<?xml version="1.0" encoding="utf-8"?><svg version="1.1" id="Layer_1" xmlns="http://www.w3.org/2000/svg" xmlns:xlink="http://www.w3.org/1999/xlink" x="0px" y="0px" viewBox="0 0 122.88 114.94" style="enable-background:new 0 0 122.88 114.94" xml:space="preserve"><style type="text/css">.st0{fill-rule:evenodd;clip-rule:evenodd;}</style><g><path class="st0" d="M1.71,0h20.82c0.94,0,1.71,0.77,1.71,1.71v21.37c0,0.94-0.77,1.71-1.71,1.71H1.71C0.77,24.78,0,24.02,0,23.08 V1.71C0,0.77,0.77,0,1.71,0L1.71,0z M1.92,90.16h40.76c0.94,0,1.71,0.77,1.71,1.71v21.37c0,0.94-0.77,1.71-1.71,1.71H1.92 c-0.94,0-1.71-0.77-1.71-1.71V91.86C0.22,90.92,0.98,90.16,1.92,90.16L1.92,90.16z M100.51,90.16h20.53c0.94,0,1.71,0.77,1.71,1.71 v21.37c0,0.94-0.77,1.71-1.71,1.71h-20.53c-0.94,0-1.71-0.77-1.71-1.71V91.86C98.8,90.92,99.57,90.16,100.51,90.16L100.51,90.16z M51.34,90.16H92.1c0.94,0,1.71,0.77,1.71,1.71v21.37c0,0.94-0.77,1.71-1.71,1.71H51.34c-0.94,0-1.71-0.77-1.71-1.71V91.86 C49.63,90.92,50.4,90.16,51.34,90.16L51.34,90.16z M80.41,60.1h40.76c0.94,0,1.71,0.77,1.71,1.71v21.37c0,0.94-0.77,1.71-1.71,1.71 H80.41c-0.94,0-1.71-0.77-1.71-1.71V61.81C78.7,60.87,79.47,60.1,80.41,60.1L80.41,60.1z M31.13,60.1h40.76 c0.94,0,1.71,0.77,1.71,1.71v21.37c0,0.94-0.77,1.71-1.71,1.71H31.13c-0.94,0-1.71-0.77-1.71-1.71V61.81 C29.43,60.87,30.19,60.1,31.13,60.1L31.13,60.1z M1.71,60.1h20.82c0.94,0,1.71,0.77,1.71,1.71v21.37c0,0.94-0.77,1.71-1.71,1.71 H1.71C0.77,84.89,0,84.12,0,83.18V61.81C0,60.87,0.77,60.1,1.71,60.1L1.71,60.1z M1.92,30.05h40.76c0.94,0,1.71,0.77,1.71,1.71 v21.37c0,0.94-0.77,1.71-1.71,1.71H1.92c-0.94,0-1.71-0.77-1.71-1.71V31.76C0.22,30.82,0.98,30.05,1.92,30.05L1.92,30.05z M100.51,30.05h20.53c0.94,0,1.71,0.77,1.71,1.71v21.37c0,0.94-0.77,1.71-1.71,1.71h-20.53c-0.94,0-1.71-0.77-1.71-1.71V31.76 C98.8,30.82,99.57,30.05,100.51,30.05L100.51,30.05z M51.34,30.05H92.1c0.94,0,1.71,0.77,1.71,1.71v21.37 c0,0.94-0.77,1.71-1.71,1.71H51.34c-0.94,0-1.71-0.77-1.71-1.71V31.76C49.63,30.82,50.4,30.05,51.34,30.05L51.34,30.05z M80.41,0 h40.76c0.94,0,1.71,0.77,1.71,1.71v21.37c0,0.94-0.77,1.71-1.71,1.71H80.41c-0.94,0-1.71-0.77-1.71-1.71V1.71 C78.7,0.77,79.47,0,80.41,0L80.41,0z M31.13,0h40.76c0.94,0,1.71,0.77,1.71,1.71v21.37c0,0.94-0.77,1.71-1.71,1.71H31.13 c-0.94,0-1.71-0.77-1.71-1.71V1.71C29.43,0.77,30.19,0,31.13,0L31.13,0z"/></g></svg>