<?xml version="1.0" encoding="utf-8"?><svg version="1.1" id="Layer_1" xmlns="http://www.w3.org/2000/svg" xmlns:xlink="http://www.w3.org/1999/xlink" x="0px" y="0px" viewBox="0 0 122.28 122.57" style="enable-background:new 0 0 122.28 122.57" xml:space="preserve"><g><path d="M74.26,51.37l-6.45,6.2l-2.39,2.56l0.1,0.11h41L74.26,51.37L74.26,51.37z M15.71,55.23v0.27c-0.2,0.02-0.37,0.07-0.5,0.17 c-0.14,0.1-0.26,0.25-0.36,0.44c-0.03,0.06-0.19,0.47-0.49,1.22l-3.32,8.75h-0.29l-2.62-6.9l-2.91,6.9H4.95l-3.5-8.66 c-0.35-0.88-0.6-1.41-0.74-1.6C0.57,55.64,0.33,55.53,0,55.5v-0.27h4.59v0.27c-0.37,0.01-0.62,0.07-0.74,0.17 c-0.12,0.1-0.18,0.23-0.18,0.38c0,0.2,0.13,0.62,0.38,1.27l2.08,5.15l1.68-4.06l-0.42-1.1c-0.24-0.62-0.42-1.03-0.55-1.23 c-0.13-0.21-0.28-0.35-0.45-0.44c-0.17-0.09-0.42-0.13-0.74-0.13v-0.27h5.09v0.27c-0.36,0.01-0.62,0.03-0.77,0.09 c-0.11,0.03-0.19,0.1-0.26,0.18c-0.06,0.09-0.09,0.19-0.09,0.3c0,0.12,0.11,0.49,0.35,1.11l1.93,5.02l1.73-4.54 c0.18-0.47,0.29-0.79,0.34-0.97c0.04-0.17,0.06-0.33,0.06-0.48c0-0.22-0.07-0.38-0.22-0.51c-0.14-0.12-0.42-0.19-0.83-0.2v-0.27 H15.71L15.71,55.23z M116.68,55.96v4.32h0.21c0.67,0,1.16-0.21,1.47-0.63c0.3-0.42,0.5-1.04,0.58-1.86h0.3v5.55h-0.3 c-0.06-0.61-0.19-1.1-0.39-1.49c-0.2-0.39-0.43-0.65-0.7-0.78s-0.65-0.2-1.16-0.2v2.98c0,0.59,0.02,0.94,0.08,1.07 c0.05,0.13,0.14,0.24,0.28,0.32c0.14,0.08,0.36,0.13,0.66,0.13h0.63c0.99,0,1.78-0.23,2.38-0.69c0.6-0.46,1.03-1.15,1.29-2.09h0.29 l-0.48,3.37h-9.15v-0.27H113c0.31,0,0.55-0.06,0.74-0.17c0.14-0.07,0.24-0.2,0.31-0.38c0.06-0.13,0.08-0.46,0.08-0.99v-6.99 c0-0.48-0.01-0.78-0.04-0.89c-0.05-0.18-0.15-0.33-0.29-0.42c-0.2-0.15-0.47-0.22-0.81-0.22h-0.35v-0.27h8.86v3.14h-0.3 c-0.15-0.77-0.36-1.32-0.63-1.65c-0.27-0.33-0.66-0.58-1.15-0.74c-0.29-0.09-0.83-0.14-1.63-0.14H116.68L116.68,55.96z M67.41,111.48l0.08,3.54h-0.32c-0.15-0.89-0.52-1.6-1.11-2.14c-0.59-0.54-1.23-0.81-1.92-0.81c-0.53,0-0.95,0.14-1.26,0.43 c-0.31,0.28-0.47,0.61-0.47,0.98c0,0.23,0.06,0.44,0.17,0.63c0.15,0.24,0.39,0.48,0.73,0.72c0.25,0.17,0.81,0.48,1.7,0.91 c1.24,0.61,2.08,1.19,2.51,1.73c0.43,0.54,0.64,1.16,0.64,1.86c0,0.89-0.35,1.65-1.04,2.28c-0.69,0.64-1.57,0.96-2.63,0.96 c-0.33,0-0.65-0.04-0.95-0.1c-0.3-0.07-0.67-0.19-1.12-0.38c-0.25-0.1-0.46-0.15-0.62-0.15c-0.14,0-0.28,0.05-0.43,0.16 c-0.15,0.11-0.27,0.27-0.37,0.48h-0.27v-4h0.27c0.23,1.12,0.67,1.98,1.32,2.57c0.66,0.59,1.36,0.89,2.12,0.89 c0.58,0,1.05-0.16,1.4-0.48c0.35-0.32,0.52-0.69,0.52-1.11c0-0.25-0.07-0.49-0.2-0.72c-0.13-0.23-0.33-0.46-0.61-0.67 c-0.27-0.21-0.75-0.48-1.44-0.82c-0.97-0.47-1.66-0.88-2.08-1.21c-0.42-0.33-0.74-0.71-0.97-1.12s-0.34-0.87-0.34-1.36 c0-0.85,0.31-1.56,0.93-2.16c0.62-0.59,1.4-0.89,2.34-0.89c0.34,0,0.68,0.04,1,0.12c0.25,0.06,0.54,0.18,0.9,0.35 c0.35,0.17,0.6,0.25,0.74,0.25c0.14,0,0.24-0.04,0.32-0.12c0.08-0.08,0.15-0.28,0.22-0.6H67.41L67.41,111.48z M62.72,0l5.22,6.57 V2.02c0-0.64-0.09-1.07-0.27-1.3c-0.25-0.31-0.67-0.45-1.26-0.44V0h3.5v0.27C69.46,0.33,69.16,0.41,69,0.5 c-0.15,0.09-0.27,0.24-0.36,0.45c-0.09,0.21-0.13,0.57-0.13,1.07v8.83h-0.26l-7.16-8.84v6.76c0,0.61,0.14,1.03,0.42,1.25 c0.28,0.22,0.6,0.32,0.96,0.32h0.25v0.27h-3.78v-0.27c0.59-0.01,0.99-0.13,1.22-0.36c0.23-0.24,0.34-0.64,0.34-1.21v-7.5L60.3,0.99 c-0.22-0.29-0.42-0.48-0.59-0.57c-0.17-0.09-0.42-0.14-0.74-0.15V0H62.72L62.72,0z M63.3,60.28H22.35l32.65,8.97l1.6-1.54 l6.84-7.31L63.3,60.28L63.3,60.28z M55.45,50.34l8.72,9.07l0.08-0.08v-41L55.45,50.34L55.45,50.34z M53.99,70.21l-34.06-9.36 l0-1.15l34.36-9.61l9.39-34.18l1.15,0l9.58,34.26l34.52,9.49l0,1.15l-34.47,9.64l-9.6,34.94l-1.15,0L53.9,70.3L53.99,70.21 L53.99,70.21z M64.29,61.97v41L73.3,70.2l-8.9-8.32L64.29,61.97L64.29,61.97z"/></g></svg>