<?xml version="1.0" encoding="utf-8"?><svg version="1.1" id="Layer_1" xmlns="http://www.w3.org/2000/svg" xmlns:xlink="http://www.w3.org/1999/xlink" x="0px" y="0px" viewBox="0 0 90.74 122.88" style="enable-background:new 0 0 90.74 122.88" xml:space="preserve"><style type="text/css">.st0{fill-rule:evenodd;clip-rule:evenodd;}</style><g><path class="st0" d="M10.12,77.7c0.65,7.16,3.33,13.24,8.08,17.91c4.74,4.66,11.59,8,20.59,9.72c-0.9-8.35-3.85-14.65-8.37-19.1 C25.43,81.34,18.46,78.57,10.12,77.7L10.12,77.7z M37.48,0L37.48,0c4.49,0,8.17,3.68,8.17,8.17v9.59l6.78-6.78 c3.18-3.18,8.38-3.18,11.55,0l0,0c3.18,3.18,3.18,8.38,0,11.55l-6.78,6.78h9.59c4.49,0,8.17,3.68,8.17,8.17l0,0 c0,4.49-3.68,8.17-8.17,8.17H57.2l6.78,6.78c3.18,3.18,3.18,8.38,0,11.55l0,0c-3.18,3.18-8.38,3.18-11.55,0l-0.85-0.85 c2.05,6.89,1.63,14.09,0.38,21c2.49-3.71,5.51-6.63,8.96-8.81c7.46-4.72,16.8-5.89,27.16-4.1c1.74,0.3,2.91,1.95,2.62,3.69 c-0.01,0.05-0.02,0.09-0.03,0.14l0,0c-2.04,9.35-6.78,16.64-14.16,21.31c-6.95,4.39-16.15,6.36-27.54,5.43 c-0.41-0.03-0.8-0.14-1.15-0.32c-0.46,1.96-0.84,3.8-1.05,5.46c-0.28,2.18-0.3,4.36-0.06,6.54c0.24,2.19,0.22,2.39,0.99,4.55 c0.65,1.81-0.14,3.87-1.77,4.6c-1.63,0.73-3.49-0.15-4.14-1.97c-1-2.76-1.11-3.55-1.42-6.32c-0.08-0.76-0.14-1.52-0.18-2.29 c-11.56-1.78-20.37-5.89-26.47-11.89C6.98,93.55,3.63,84.76,3.58,74.4c0-0.09,0-0.18,0-0.27c0.07-1.76,1.55-3.14,3.32-3.07 c11.46,0.48,21.15,3.88,28,10.61c3.51,3.45,6.24,7.75,8.05,12.93l0.09-0.35c2.33-8.97,5.06-19.45,2.62-28.44v0.98 c0,4.49-3.68,8.17-8.17,8.17l0,0c-4.49,0-8.17-3.68-8.17-8.17V57.2l-6.78,6.78c-3.18,3.18-8.38,3.18-11.55,0l0,0 c-3.18-3.18-3.18-8.38,0-11.55l6.78-6.78H8.17C3.68,45.65,0,41.97,0,37.48l0,0c0-4.49,3.68-8.17,8.17-8.17h9.59l-6.78-6.78 c-3.18-3.18-3.18-8.38,0-11.55l0,0c3.18-3.18,8.38-3.18,11.55,0l6.78,6.78V8.17C29.31,3.68,32.99,0,37.48,0L37.48,0z M73.1,90.95 c4.97-3.14,8.45-7.87,10.41-13.9c-7.4-0.75-13.96,0.37-19.18,3.68c-4.75,3-8.49,7.87-10.89,14.87 C61.55,95.74,68.11,94.11,73.1,90.95L73.1,90.95z M45.85,57.41l-0.2-0.2v0.32c0.03-0.02,0.05-0.03,0.08-0.05 C45.77,57.45,45.81,57.43,45.85,57.41L45.85,57.41z M37.48,29c4.69,0,8.48,3.8,8.48,8.48c0,4.69-3.8,8.48-8.48,8.48 c-4.69,0-8.48-3.8-8.48-8.48C29,32.8,32.8,29,37.48,29L37.48,29z"/></g></svg>