<svg xmlns="http://www.w3.org/2000/svg" shape-rendering="geometricPrecision" text-rendering="geometricPrecision" image-rendering="optimizeQuality" fill-rule="evenodd" clip-rule="evenodd" viewBox="0 0 436 511.986"><g fill-rule="nonzero"><path fill="#3E9320" d="M238.799 215.698c9.544 17.569 16.64 35.886 21.533 54.575 5.141 19.637 7.852 39.701 8.421 59.755a292.223 292.223 0 01-1.613 39.782 308.772 308.772 0 01-4.494 28.685c8.382-3.706 16.431-8.054 24.196-12.905 9.969-6.228 19.448-13.275 28.549-20.86a89.18 89.18 0 01-1.752-9.679c-2.607-21.294 3.445-39.202 16.849-53.657 12.929-13.943 32.709-24.445 58.101-31.459 12.106-3.343 25.435-5.901 39.844-7.665a6.098 6.098 0 016.791 5.313l.037.421c2.112 26.572-.39 49.022-6.375 67.218l-.111.308c-5.842 17.586-14.952 31.231-26.325 40.828-11.61 9.796-25.498 15.347-40.631 16.56-10.35.828-21.269-.384-32.416-3.668-11.3 9.148-23.072 17.448-35.511 24.575-12.53 7.181-25.749 13.179-39.851 17.665a323.123 323.123 0 01-14.288 36.891c-5.973 12.99-12.743 25.412-20.186 37.081-9.867 15.473-33.295.545-23.436-14.932l.014-.02c14.677-23.018 26.501-49.32 34.334-77.237 7.453-26.567 11.273-54.543 10.479-82.482-.63-22.186-4.191-44.385-11.176-65.857-6.529-20.075-16.055-39.497-28.975-57.656a6.084 6.084 0 018.088-8.742l27.425 14.708a6.055 6.055 0 012.479 2.454z"/><path fill="#69BC36" d="M233.461 218.605c19.097 35.151 28.129 73.381 29.215 111.589.752 26.444-2.317 52.878-8.491 78.265 25.363-9.234 47.617-24.115 68.046-41.537-15.403-55.763 27.959-88.931 106.941-98.6 7.493 93.5-43.546 133.069-101.091 114.14-23.642 19.526-49.302 35.285-78.887 44.151-8.365 27.218-20.262 52.872-34.75 75.584a7.82 7.82 0 01-13.19-8.404c29.31-45.951 47.447-104.556 45.78-163.169-1.253-44.117-13.774-88.23-41.271-126.872l27.698 14.853z"/><path fill="#56C92C" d="M429.172 268.322c7.493 93.5-43.546 133.069-101.091 114.14l101.091-114.14z"/><path fill="#ED4949" d="M215.27 216.04c7.622 32.214 7.65 58.242 1.751 79.609-6.849 24.814-21.551 43.183-41.569 57.507a6.084 6.084 0 01-7.96-.791c-22.257-20.734-34.616-44.846-36.593-73.147-1.536-21.997 3.264-46.4 14.626-73.591-21.016 14.528-41.64 24.031-62.093 27.702-27.343 4.905-54.102-.579-80.736-18.343a6.082 6.082 0 01-2.504-6.571c5.561-27.036 21.433-46.116 47.236-57.486 20.471-9.02 47.215-13.055 80.029-12.237-19.754-13.571-34.994-28.454-44.495-46.182C70.27 68.825 68.015 40.553 79.166 4.296A6.085 6.085 0 0185.599.032c24.82 2.579 47.891 11.928 66.685 32.046 15.413 16.496 27.825 40.207 35.764 73.353 11.491-27.034 25.781-49.61 42.988-65.802 19.935-18.761 43.689-28.989 71.425-27.793a6.083 6.083 0 015.694 4.837c5.797 27.902 5.009 53.278-7.697 77.53-10.43 19.905-28.844 38.779-58.224 57.338 26.381.997 49.532 4.393 68.336 13.044 24.671 11.35 41.584 31.309 48.071 65.815a6.09 6.09 0 01-3.336 6.601c-53.461 30.556-87.288 10.405-127.619-13.629-4.069-2.424-8.209-4.891-12.416-7.332z"/><path fill="#FE7678" d="M205.763 203.752c21.671 75.213 3.999 117.375-33.837 144.448-42.551-39.413-47.207-91.474-10.332-162.44C107.19 230.77 56.546 243.594 6.08 209.934c10.215-50.529 59.436-71.169 144.808-63.804-57.7-32.998-87.166-70.928-65.908-140.047 46.864 4.872 86.994 35.176 101.219 120.99C209.666 60.25 247.882 15.571 302.2 17.913c11.048 53.175-2.791 96.31-81.781 139.362 69.485-.199 120.104 9.683 132.241 74.244-61.048 35.11-95.744-.337-146.897-27.767z"/></g></svg>