<?xml version="1.0" encoding="utf-8"?><svg version="1.1" id="Layer_1" xmlns="http://www.w3.org/2000/svg" xmlns:xlink="http://www.w3.org/1999/xlink" x="0px" y="0px" viewBox="0 0 122.88 103.62" style="enable-background:new 0 0 122.88 103.62" xml:space="preserve"><style type="text/css">.st0{fill:#4CA71E;} .st1{fill:#474747;} .st2{fill:#89BF3F;}</style><g><path class="st0" d="M58.13,34.19C64.58,20.3,81.14,14.92,89.35,5.43C80.45,22.78,73.17,24.25,58.13,34.19L58.13,34.19L58.13,34.19 z"/><path class="st1" d="M67.31,87.65h21.56c1.73-1.72,3.63-3.51,5.56-5.33c4.04-3.83,8.27-7.82,12.61-12.82c4.96-5.72,5.49-7.7,7-13.3 c0.29-1.05,0.6-2.23,1.01-3.7l2.58-9.06l0.03-0.1c1.38-4.04,1.49-6.7,0.92-8.24c-0.18-0.47-0.4-0.79-0.67-0.95 c-0.21-0.14-0.48-0.19-0.77-0.16c-0.67,0.07-1.43,0.49-2.12,1.25l-7.66,18.24c-0.07,0.17-0.17,0.32-0.28,0.46 c-0.45,0.82-1.06,1.61-1.85,2.37L91.66,71.46c-0.74,0.83-2.01,0.9-2.82,0.16c-0.83-0.74-0.9-2.01-0.16-2.82l13.59-15.15 c0.06-0.07,0.12-0.14,0.19-0.2c1.41-1.34,1.85-2.79,1.6-3.84c-0.08-0.32-0.22-0.6-0.41-0.79c-0.19-0.17-0.43-0.29-0.74-0.31l0,0 c-1.21-0.13-2.99,0.77-5.17,3.34l0,0c-0.06,0.07-0.13,0.14-0.2,0.21l-5.27,4.65l-0.03,0.03c-5.7,5.39-8.15,6.67-12.62,9.01 c-0.93,0.49-1.96,1.02-3.23,1.71c-0.5,0.28-0.99,0.61-1.48,0.97c-0.51,0.39-1,0.8-1.47,1.19c-2.36,1.99-3.6,3.6-4.31,5.38 c-0.74,1.85-1,4.1-1.37,7.19c-0.15,1.25-0.26,2.48-0.34,3.71C67.37,86.48,67.34,87.07,67.31,87.65L67.31,87.65L67.31,87.65z M55.57,87.65H34c-1.73-1.72-3.63-3.51-5.56-5.33c-4.05-3.83-8.27-7.82-12.61-12.82c-4.96-5.72-5.49-7.7-7-13.3 c-0.28-1.05-0.59-2.23-1-3.7l-2.58-9.06l-0.03-0.1c-1.38-4.04-1.49-6.7-0.92-8.24c0.18-0.47,0.4-0.79,0.67-0.95 c0.21-0.14,0.48-0.19,0.77-0.16c0.68,0.06,1.44,0.49,2.13,1.24l7.66,18.24c0.07,0.17,0.17,0.32,0.28,0.46 c0.45,0.82,1.06,1.61,1.85,2.37l13.58,15.15c0.74,0.83,2.01,0.9,2.82,0.16c0.83-0.74,0.9-2.01,0.16-2.82L20.62,53.62 c-0.06-0.07-0.12-0.14-0.19-0.2c-1.41-1.34-1.85-2.79-1.6-3.84c0.08-0.32,0.22-0.6,0.41-0.79c0.19-0.17,0.43-0.29,0.74-0.31l0,0 c1.21-0.13,3,0.77,5.17,3.34l0,0c0.06,0.07,0.13,0.14,0.2,0.21l5.27,4.65l0.03,0.03c5.7,5.39,8.15,6.67,12.62,9.01 c0.93,0.49,1.96,1.02,3.23,1.71c0.5,0.28,0.99,0.61,1.48,0.97c0.51,0.39,1,0.8,1.47,1.19c2.36,1.99,3.6,3.6,4.31,5.38 c0.74,1.85,1,4.1,1.37,7.19c0.15,1.25,0.26,2.48,0.34,3.71C55.51,86.48,55.54,87.07,55.57,87.65L55.57,87.65L55.57,87.65z M28.98,88.34c-0.31,0.35-0.49,0.82-0.49,1.32v11.95c0,1.11,0.91,2.01,2.01,2.01h27.14c1.11,0,2.01-0.91,2.01-2.01 c0-5.27,0.2-10.75-0.17-15.99c-0.09-1.31-0.21-2.61-0.35-3.9c-0.39-3.38-0.69-5.85-1.63-8.22c-0.97-2.43-2.54-4.53-5.44-6.98 c-0.53-0.45-1.07-0.91-1.64-1.33c-0.6-0.45-1.25-0.89-1.98-1.29c-1.18-0.64-2.28-1.22-3.29-1.75c-4.13-2.17-6.4-3.35-11.72-8.39 c-0.04-0.04-0.09-0.08-0.13-0.11l-5.14-4.54c-3.14-3.67-6.21-4.89-8.56-4.64h-0.01l0,0c-1.15,0.12-2.14,0.57-2.92,1.26l-5.2-12.35 h-0.01c-0.08-0.18-0.18-0.34-0.31-0.5c-1.44-1.72-3.26-2.73-5-2.9c-1.19-0.12-2.34,0.14-3.35,0.79c-0.95,0.62-1.74,1.58-2.23,2.91 c-0.87,2.31-0.85,5.9,0.85,10.87l2.56,9.01c0.37,1.3,0.7,2.55,1,3.65c1.67,6.25,2.26,8.46,7.84,14.88 c4.42,5.09,8.74,9.18,12.89,13.11C26.79,86.26,27.87,87.28,28.98,88.34L28.98,88.34L28.98,88.34z M55.62,91.67v7.93H32.5v-7.93 C40.19,91.67,47.92,91.67,55.62,91.67L55.62,91.67z M93.9,88.34c0.3,0.35,0.49,0.82,0.49,1.32v11.95c0,1.11-0.9,2.01-2.01,2.01 H65.25c-1.11,0-2.01-0.91-2.01-2.01c0-5.28-0.18-10.72,0.17-15.99c0.09-1.31,0.21-2.61,0.35-3.9c0.39-3.38,0.69-5.85,1.63-8.22 c0.97-2.43,2.54-4.53,5.44-6.98c0.53-0.45,1.07-0.91,1.64-1.33c0.6-0.45,1.25-0.89,1.98-1.29c1.18-0.64,2.28-1.22,3.29-1.75 c4.13-2.17,6.4-3.35,11.72-8.39c0.04-0.04,0.09-0.08,0.13-0.11l5.14-4.54c3.14-3.67,6.21-4.89,8.56-4.64h0.01l0,0 c1.15,0.12,2.14,0.57,2.92,1.26l5.19-12.36h0.01c0.08-0.18,0.18-0.34,0.31-0.5c1.44-1.72,3.26-2.73,5-2.9 c1.19-0.12,2.34,0.14,3.35,0.79c0.95,0.62,1.74,1.58,2.23,2.91c0.87,2.31,0.85,5.9-0.85,10.87l-2.56,9.01 c-0.37,1.3-0.7,2.55-1,3.65c-1.67,6.25-2.26,8.46-7.84,14.88c-4.42,5.09-8.74,9.18-12.89,13.11C96.09,86.26,95,87.28,93.9,88.34 L93.9,88.34L93.9,88.34z M67.26,91.67v7.93h23.12v-7.93C82.68,91.67,74.97,91.67,67.26,91.67L67.26,91.67z"/><path class="st2" d="M53.33,38.03c-1.96,2.61-3.64,4.78-4.55,7.28c-0.89,2.43-1.25,3.54,0.77,1.02c1.88-2.35,3.64-4.63,6.21-6.79 c0.18,0.05,0.38,0.08,0.58,0.12C79.59,44.28,96.53,33.82,93.55,0C75.65,6.21,50.27,3.68,52.9,35.47 C53,36.65,53.09,37.46,53.33,38.03L53.33,38.03L53.33,38.03L53.33,38.03z M58.84,33.46c6.08-13.1,21.71-17.59,29.46-26.55 C79.9,23.29,73.03,24.09,58.84,33.46L58.84,33.46L58.84,33.46z"/></g></svg>