<?xml version="1.0" encoding="utf-8"?><svg version="1.1" id="Layer_1" xmlns="http://www.w3.org/2000/svg" xmlns:xlink="http://www.w3.org/1999/xlink" x="0px" y="0px" width="122.879px" height="102.151px" viewBox="0 0 122.879 102.151" enable-background="new 0 0 122.879 102.151" xml:space="preserve"><g><path d="M21.605,86.533c0.964,1.127,0.832,2.823-0.295,3.787c-1.127,0.965-2.823,0.833-3.787-0.294 C5.857,76.411-0.133,61.009,0.002,45.408C0.133,30.194,6.087,14.869,18.28,0.916c0.977-1.115,2.672-1.229,3.788-0.253 c1.115,0.977,1.229,2.672,0.252,3.788C11.01,17.395,5.487,31.512,5.367,45.45C5.244,59.736,10.795,73.918,21.605,86.533 L21.605,86.533z M35.678,73.437c0.982,1.109,0.879,2.806-0.231,3.787c-1.109,0.982-2.805,0.879-3.787-0.23 c-8.969-10.137-13.553-20.877-13.37-31.757c0.179-10.597,4.868-21.186,14.423-31.328c1.017-1.081,2.717-1.133,3.798-0.116 s1.133,2.717,0.116,3.798c-8.598,9.127-12.816,18.494-12.972,27.73C23.495,54.816,27.617,64.326,35.678,73.437L35.678,73.437z M48.146,60.97c0.935,1.15,0.761,2.842-0.39,3.777s-2.842,0.761-3.777-0.39c-4.832-5.95-7.347-12.396-7.366-18.941 c-0.02-6.394,2.347-12.788,7.265-18.811c0.936-1.15,2.626-1.325,3.776-0.39s1.325,2.627,0.39,3.776 c-4.105,5.028-6.081,10.268-6.065,15.424C41.993,50.694,44.099,55.987,48.146,60.97L48.146,60.97z M105.355,90.026 c-0.964,1.127-2.66,1.259-3.787,0.294c-1.127-0.964-1.259-2.66-0.295-3.787c10.811-12.615,16.361-26.797,16.238-41.083 c-0.12-13.938-5.643-28.056-16.953-40.999c-0.977-1.116-0.863-2.812,0.252-3.788c1.115-0.976,2.812-0.862,3.788,0.253 c12.192,13.953,18.147,29.278,18.278,44.492C123.012,61.009,117.021,76.411,105.355,90.026L105.355,90.026z M91.22,76.993 c-0.982,1.109-2.678,1.213-3.787,0.23c-1.11-0.981-1.214-2.678-0.231-3.787c8.061-9.11,12.183-18.62,12.023-28.116 c-0.155-9.236-4.373-18.604-12.972-27.73c-1.017-1.081-0.965-2.781,0.116-3.798c1.08-1.017,2.781-0.965,3.798,0.116 c9.554,10.143,14.244,20.731,14.423,31.328C104.772,56.116,100.188,66.856,91.22,76.993L91.22,76.993z M78.9,64.357 c-0.936,1.15-2.627,1.325-3.777,0.39s-1.324-2.627-0.389-3.777c4.046-4.982,6.151-10.275,6.167-15.554 c0.016-5.156-1.96-10.396-6.065-15.424c-0.936-1.149-0.761-2.841,0.39-3.776s2.841-0.761,3.776,0.39 c4.918,6.022,7.284,12.417,7.265,18.811C86.247,51.962,83.732,58.407,78.9,64.357L78.9,64.357z M64.133,55.229v44.229 c0,1.487-1.206,2.693-2.693,2.693s-2.692-1.206-2.692-2.693V55.227c-1.708-0.472-3.234-1.38-4.452-2.597 c-1.829-1.83-2.961-4.357-2.961-7.148s1.132-5.318,2.961-7.147c1.83-1.829,4.357-2.961,7.147-2.961 c2.792,0,5.318,1.132,7.148,2.961c1.829,1.829,2.961,4.356,2.961,7.147S70.42,50.8,68.591,52.63 C67.371,53.849,65.843,54.758,64.133,55.229L64.133,55.229z"/></g></svg>