<svg id="Layer_1" data-name="Layer 1" xmlns="http://www.w3.org/2000/svg" viewBox="0 0 122.88 114.8"><defs><style>.cls-1{fill:#56b320;fill-rule:evenodd;}</style></defs><title>leaf-green</title><path class="cls-1" d="M8.22,23.43C3.7,16.43,1.13,8.06,0,0A64.84,64.84,0,0,1,23.33,8l-.26-5.15c5.72.83,13.18,4.23,21.86,9.41l0-4.92A56.62,56.62,0,0,1,62.29,18.17l1.92-4.08q8,4.18,16.51,14.63l2-4.27c4.48,3.62,8.21,8.92,10.87,16.69l3-3c2.56,3.51,4.55,9,5.63,17.63l3.94-2.16c.88,4.78-.36,11.68-2.63,19.6l4.6-.19c-2.14,7.46-5.12,13.89-9.52,18.62,6.25,6.16,14.57,11.17,24.2,15.47-.25,3.48-1.47,6-3.61,7.74-11-7.52-21.52-15.63-31.72-24Q74.4,79.57,62.17,67.71A485,485,0,0,1,21.6,23.58Q16,16.61,10.67,9.42c.2,3.05,10.24,17.37,17.37,26.29C46.68,59.09,68.46,79.57,90.32,99.84c-5.71,4.68-11.47,7.41-17.3,8.06v-4.29c-7,2.34-13.79,4-19.57,2.42l2.21-4a38.67,38.67,0,0,1-17.84-5.25L41,93.32c-6.79-2-12.52-5.27-16.38-10.72l4.15-1.94C23,76,17.35,71.19,14.11,64.21l4.22-2C13.23,56.28,9.21,50.5,7.54,45.06l5.05-.21C7.42,36.85,4,29.48,3,22.94l5.24.49Z"/></svg>