<?xml version="1.0" encoding="utf-8"?><svg version="1.1" id="Layer_1" xmlns="http://www.w3.org/2000/svg" xmlns:xlink="http://www.w3.org/1999/xlink" x="0px" y="0px" viewBox="0 0 119.4 122.88" style="enable-background:new 0 0 119.4 122.88" xml:space="preserve"><g><path d="M78.62,17.22l36.71-16.95c1.45-0.66,3.14-0.03,3.8,1.42c0.17,0.38,0.28,0.79,0.28,1.21v94.23c0,1.11-0.62,2.04-1.52,2.52 l-37.74,22.79c-0.07,0.03-0.14,0.1-0.24,0.14l-0.03,0.03h-0.1c-0.35,0.17-0.73,0.24-1.1,0.24s-0.76-0.07-1.11-0.24h-0.1l-0.03-0.03 c-0.07-0.03-0.17-0.07-0.24-0.14l-36.39-21.96l-36.43,22c-1.35,0.83-3.14,0.38-3.94-0.97C0.14,121.05,0,120.53,0,120.01V20.39 c0-1.24,0.76-2.28,1.86-2.69L39.61,0.3h0.07l0.07-0.03h0.03c0.28-0.1,0.55-0.17,0.86-0.17h0.35c0.28,0.03,0.59,0.07,0.86,0.17h0.03 l0.07,0.03h0.07l36.71,16.95L78.62,17.22L78.62,17.22z M37.84,95.49V7.37L5.7,22.22v92.68L37.84,95.49L37.84,95.49L37.84,95.49z M75.76,114.9V22.22L43.61,7.37v88.12L75.76,114.9L75.76,114.9z M113.67,7.37L81.53,22.22v92.68l32.15-19.41V7.37L113.67,7.37z"/></g></svg>