<svg xmlns="http://www.w3.org/2000/svg" viewBox="0 0 42.94 41.28"><defs><style>.cls-1{fill:#efeff3;stroke:#a9acb3;stroke-width:0.4px;}.cls-1,.cls-2{stroke-miterlimit:10;}.cls-2{fill:#2b97d4;stroke:#2b97d4;stroke-width:0.46px;}</style></defs><g id="Слой_2" data-name="Слой 2"><g id="Акселерометр"><g id="accelOrientation"><g id="_2" data-name="2"><g id="Слой_1-2" data-name="Слой 1"><path class="cls-1" d="M12.27,30.22l-.18-.2a1.7,1.7,0,0,0-.3-.3.7.7,0,0,0-.7-.08c-1.61.65-2.88,1.93-4.55,2.47a3.59,3.59,0,0,1-3-.17,3.32,3.32,0,0,1-1.61-2.28,3.74,3.74,0,0,1,.48-2.6h0a3.17,3.17,0,0,1,1-1.07A36.07,36.07,0,0,1,10,23.06a1.39,1.39,0,0,0,.83-.67,14.89,14.89,0,0,1,2.71-4.08,23.18,23.18,0,0,1,4-3.29,2.43,2.43,0,0,0,.25-.2c.53-.58.17-1.21-.1-1.75-.17-.35-.34-.7-.49-1.06a11.41,11.41,0,0,1-.62-2,16.35,16.35,0,0,1-.28-3.56l0-1a5.41,5.41,0,0,1,1-3.38,3.41,3.41,0,0,1,.76-.6A2.47,2.47,0,0,1,19.34,1a3.28,3.28,0,0,1,2.84,1.56,4.07,4.07,0,0,1,0,3.73,9.59,9.59,0,0,0-.35,1.95,5.51,5.51,0,0,0,.24,1.94,5.19,5.19,0,0,0,.75,1.7,1,1,0,0,0,.83.4,1.07,1.07,0,0,0,.48-.2.78.78,0,0,0,.25-.29c.11-.28-.05-.63-.1-.91a7.17,7.17,0,0,1-.08-1,5,5,0,0,1,.35-1.79,7.4,7.4,0,0,1,1.87-2.57,1.62,1.62,0,0,0,.64-1A3.73,3.73,0,0,0,27,3.6,2.68,2.68,0,0,1,27.11,2,3.17,3.17,0,0,1,31.36.52a4.25,4.25,0,0,1,2,2.91,1.11,1.11,0,0,0,.73.77l.28.09A6.93,6.93,0,0,1,36.31,5.4a5.76,5.76,0,0,1,.59.53L37,6a6.85,6.85,0,0,1,.52.59,6.93,6.93,0,0,1,1.11,1.94c0,.1.07.19.1.28a1.07,1.07,0,0,0,.77.73,4.25,4.25,0,0,1,2.9,2,3.17,3.17,0,0,1-1.52,4.25,2.68,2.68,0,0,1-1.56.12,3.69,3.69,0,0,0-.88-.06,1.62,1.62,0,0,0-1,.64,7.31,7.31,0,0,1-2.57,1.87,5,5,0,0,1-1.79.35,7.17,7.17,0,0,1-1-.08c-.28-.05-.63-.21-.91-.1a.78.78,0,0,0-.29.25,1.07,1.07,0,0,0-.2.48,1,1,0,0,0,.4.83,5.19,5.19,0,0,0,1.7.75,5.51,5.51,0,0,0,1.94.24,9.59,9.59,0,0,0,1.95-.35,4.07,4.07,0,0,1,3.73,0,3.28,3.28,0,0,1,1.56,2.84,2.47,2.47,0,0,1-.39,1.17,3.2,3.2,0,0,1-.6.76,5.41,5.41,0,0,1-3.38,1l-1,0A16.21,16.21,0,0,1,33,26.31a11.27,11.27,0,0,1-2-.62c-.36-.14-.71-.32-1.06-.49-.54-.27-1.17-.63-1.75-.1a2.43,2.43,0,0,0-.2.25,22.73,22.73,0,0,1-3.29,4,15.15,15.15,0,0,1-4.08,2.72,1.35,1.35,0,0,0-.67.82A36.07,36.07,0,0,1,17,39.55a3.17,3.17,0,0,1-1.07,1h0a3.74,3.74,0,0,1-2.6.48A3.33,3.33,0,0,1,11,39.42a3.62,3.62,0,0,1-.17-3c.54-1.67,1.82-2.94,2.47-4.55a.72.72,0,0,0-.07-.7,3.12,3.12,0,0,0-.46-.45l-.28-.25Z"/></g></g><path class="cls-2" d="M2.83,22.29c0-4.53,0-7.31.11-7.49s.1-.23.2-.27a1.12,1.12,0,0,1,.48-.11c.45,0,5.54,0,6,0,1,0,1,.11,1,.77,0,.22-.08,1.1.41,1,.08,0,1.1-.67,2.26-1.45,2.17-1.42,2.17-1.42,2.17-1.62s0-.23-2.17-1.65C12.1,10.69,11.08,10,11,10c-.49-.09-.41.78-.41,1,0,.63,0,.74-1,.78-.49,0-.23,0-.72,0-.73,0-6.62,0-7.09.2A2.27,2.27,0,0,0,.32,14.37c0,.33-.09,3.43-.09,7.92Z"/><path class="cls-2" d="M33.25,28.24c0,4.54,0,7.32-.12,7.5s-.1.23-.19.27a1.12,1.12,0,0,1-.48.11c-.46,0-5.54,0-6,0-1,0-1-.12-1-.77,0-.22.08-1.1-.41-1-.08,0-1.1.67-2.27,1.46-2.16,1.42-2.16,1.42-2.16,1.62s0,.23,2.16,1.64c1.17.79,2.19,1.44,2.27,1.46.49.09.41-.79.41-1,0-.63,0-.75,1-.78.49,0,.23,0,.72,0,.73,0,6.62,0,7.09-.21a2.23,2.23,0,0,0,1.45-2.31c0-.33.1-3.43.1-7.93Z"/></g></g></g></svg>