<svg xmlns="http://www.w3.org/2000/svg" viewBox="0 0 42.54 33.65"><defs><style>.cls-1{fill:#efeff3;stroke:#a9acb3;stroke-miterlimit:10;stroke-width:0.4px;}.cls-2{fill:#2b97d4;fill-rule:evenodd;}</style></defs><g id="Слой_2" data-name="Слой 2"><g id="Акселерометр"><g id="bearIsOnRightSide"><g id="Слой_1-2" data-name="Слой 1"><path class="cls-1" d="M34.85,17.15c0,.12,0,.19,0,.27a2,2,0,0,0,0,.42.69.69,0,0,0,.44.55c1.6.68,3.41.67,5,1.47a3.61,3.61,0,0,1,2,2.25,3.34,3.34,0,0,1-.48,2.75,3.74,3.74,0,0,1-2.17,1.5h0a3.14,3.14,0,0,1-1.46.05,35.48,35.48,0,0,1-6.75-2.62,1.36,1.36,0,0,0-1.06-.11,14.91,14.91,0,0,1-4.8,1,22.55,22.55,0,0,1-5.18-.52,1.73,1.73,0,0,0-.32,0c-.78,0-1,.73-1.17,1.3a11.14,11.14,0,0,1-.4,1.1,10.74,10.74,0,0,1-1,1.89,15.63,15.63,0,0,1-2.31,2.7l-.74.69a5.34,5.34,0,0,1-3.12,1.67,3.05,3.05,0,0,1-.95-.11,2.54,2.54,0,0,1-1.11-.55,3.29,3.29,0,0,1-.91-3.11A4.13,4.13,0,0,1,10.94,27a9,9,0,0,0,1.64-1.13,5.81,5.81,0,0,0,1.2-1.54,5.23,5.23,0,0,0,.67-1.73,1,1,0,0,0-.3-.87,1.06,1.06,0,0,0-.49-.2.7.7,0,0,0-.38,0c-.28.12-.41.48-.57.71a6.43,6.43,0,0,1-.68.79,5.19,5.19,0,0,1-1.51,1,7.45,7.45,0,0,1-3.14.49,1.67,1.67,0,0,0-1.19.27,3.32,3.32,0,0,0-.57.67,2.73,2.73,0,0,1-1.19,1,3.27,3.27,0,0,1-1.61.15A3.17,3.17,0,0,1,.34,24.65,4.32,4.32,0,0,1,1,21.18a1.08,1.08,0,0,0,0-1.06C1,20,.93,19.94.89,19.86A7.14,7.14,0,0,1,.3,17.69a6.76,6.76,0,0,1,0-.78v-.16A7.47,7.47,0,0,1,.89,13.8,2.1,2.1,0,0,1,1,13.54a1.08,1.08,0,0,0,0-1.06A4.33,4.33,0,0,1,.34,9,3.17,3.17,0,0,1,2.82,6.93a3.05,3.05,0,0,1,1.61.15,2.65,2.65,0,0,1,1.19,1,3.32,3.32,0,0,0,.57.67A1.67,1.67,0,0,0,7.38,9a7.46,7.46,0,0,1,3.14.5,5,5,0,0,1,1.51,1,6.43,6.43,0,0,1,.68.79c.16.23.29.59.57.71a.7.7,0,0,0,.38,0,1.06,1.06,0,0,0,.49-.2,1,1,0,0,0,.3-.87,5.18,5.18,0,0,0-.67-1.72,5.7,5.7,0,0,0-1.2-1.55,9,9,0,0,0-1.64-1.13A4.09,4.09,0,0,1,8.3,4,3.29,3.29,0,0,1,9.21.87,2.44,2.44,0,0,1,10.32.32,3.39,3.39,0,0,1,11.27.2a5.39,5.39,0,0,1,3.12,1.67l.74.69a15.7,15.7,0,0,1,2.31,2.71,10.65,10.65,0,0,1,1,1.88,11.14,11.14,0,0,1,.4,1.1c.19.57.39,1.27,1.17,1.3a1.16,1.16,0,0,0,.32,0A23.72,23.72,0,0,1,25.52,9a15.18,15.18,0,0,1,4.8,1,1.36,1.36,0,0,0,1.06-.1,35.47,35.47,0,0,1,6.75-2.63,3.28,3.28,0,0,1,1.46.06h0A3.75,3.75,0,0,1,41.77,8.8a3.32,3.32,0,0,1,.48,2.74,3.61,3.61,0,0,1-2,2.25c-1.56.81-3.37.8-5,1.47a.71.71,0,0,0-.44.55,2.59,2.59,0,0,0,0,.64c0,.18,0,.23,0,.38S34.86,17.07,34.85,17.15Z"/></g><polygon class="cls-2" points="24.35 10.91 22.52 14.14 20.68 17.36 23.41 17.36 23.41 22.74 25.3 22.74 25.3 17.36 28.03 17.36 26.19 14.14 24.35 10.91"/></g></g></g></svg>