<svg xmlns="http://www.w3.org/2000/svg" viewBox="0 0 33.65 42.54"><defs><style>.cls-1{fill:#efeff3;stroke:#a9acb3;stroke-miterlimit:10;stroke-width:0.4px;}.cls-2{fill:#2b97d4;fill-rule:evenodd;}</style></defs><g id="Слой_2" data-name="Слой 2"><g id="Акселерометр"><g id="bearIsStanding"><g id="Слой_1-2" data-name="Слой 1"><path class="cls-1" d="M16.51,34.85h-.27a2,2,0,0,0-.42,0,.7.7,0,0,0-.56.44c-.67,1.6-.66,3.41-1.47,5a3.61,3.61,0,0,1-2.25,2,3.32,3.32,0,0,1-2.74-.48A3.75,3.75,0,0,1,7.29,39.6h0a3.28,3.28,0,0,1-.06-1.46,35.47,35.47,0,0,1,2.63-6.75,1.36,1.36,0,0,0,.1-1.06,15.18,15.18,0,0,1-1-4.8,23.72,23.72,0,0,1,.52-5.18,1.16,1.16,0,0,0,0-.32c0-.78-.73-1-1.3-1.17a11.14,11.14,0,0,1-1.1-.4,10.65,10.65,0,0,1-1.88-1,15.7,15.7,0,0,1-2.71-2.31l-.69-.74A5.39,5.39,0,0,1,.2,11.27a3.39,3.39,0,0,1,.12-.95A2.44,2.44,0,0,1,.87,9.21,3.29,3.29,0,0,1,4,8.3a4.09,4.09,0,0,1,2.63,2.64,9,9,0,0,0,1.13,1.64,5.7,5.7,0,0,0,1.55,1.2,5.18,5.18,0,0,0,1.72.67,1,1,0,0,0,.87-.3,1.06,1.06,0,0,0,.2-.49.7.7,0,0,0,0-.38c-.12-.28-.48-.41-.71-.57a6.43,6.43,0,0,1-.79-.68,5,5,0,0,1-1-1.51A7.46,7.46,0,0,1,9,7.38a1.67,1.67,0,0,0-.27-1.19,3.32,3.32,0,0,0-.67-.57,2.65,2.65,0,0,1-1-1.19,3.05,3.05,0,0,1-.15-1.61A3.17,3.17,0,0,1,9,.34,4.33,4.33,0,0,1,12.48,1a1.08,1.08,0,0,0,1.06,0A2.1,2.1,0,0,1,13.8.89,7.47,7.47,0,0,1,16.75.25h.16a6.76,6.76,0,0,1,.78,0,7.14,7.14,0,0,1,2.17.59l.26.13a1.08,1.08,0,0,0,1.06,0A4.32,4.32,0,0,1,24.65.34a3.17,3.17,0,0,1,2.08,2.48,3.27,3.27,0,0,1-.15,1.61,2.73,2.73,0,0,1-1,1.19,3.32,3.32,0,0,0-.67.57,1.67,1.67,0,0,0-.27,1.19,7.45,7.45,0,0,1-.49,3.14,5.19,5.19,0,0,1-1,1.51,6.43,6.43,0,0,1-.79.68c-.23.16-.59.29-.71.57a.7.7,0,0,0,0,.38,1.06,1.06,0,0,0,.2.49,1,1,0,0,0,.87.3,5.23,5.23,0,0,0,1.73-.67,5.81,5.81,0,0,0,1.54-1.2A9,9,0,0,0,27,10.94,4.13,4.13,0,0,1,29.68,8.3a3.29,3.29,0,0,1,3.11.91,2.54,2.54,0,0,1,.55,1.11,3.05,3.05,0,0,1,.11.95,5.34,5.34,0,0,1-1.67,3.12l-.69.74a15.63,15.63,0,0,1-2.7,2.31,10.74,10.74,0,0,1-1.89,1,11.14,11.14,0,0,1-1.1.4c-.57.19-1.27.39-1.3,1.17a1.73,1.73,0,0,0,0,.32,22.55,22.55,0,0,1,.52,5.18,14.91,14.91,0,0,1-1,4.8,1.36,1.36,0,0,0,.11,1.06,35.48,35.48,0,0,1,2.62,6.75,3.14,3.14,0,0,1-.05,1.46h0a3.74,3.74,0,0,1-1.5,2.17,3.34,3.34,0,0,1-2.75.48,3.61,3.61,0,0,1-2.25-2c-.8-1.56-.79-3.37-1.47-5a.71.71,0,0,0-.54-.44,2.59,2.59,0,0,0-.64,0l-.38,0Z"/></g><polygon class="cls-2" points="16.83 18.44 14.99 21.66 13.15 24.89 15.88 24.89 15.88 30.27 17.77 30.27 17.77 24.89 20.5 24.89 18.66 21.66 16.83 18.44"/></g></g></g></svg>