<svg xmlns="http://www.w3.org/2000/svg" viewBox="0 0 42.54 33.65"><defs><style>.cls-1{fill:#efeff3;stroke:#a9acb3;stroke-miterlimit:10;stroke-width:0.4px;}.cls-2{fill:#2b97d4;fill-rule:evenodd;}</style></defs><g id="Слой_2" data-name="Слой 2"><g id="Акселерометр"><g id="bearIsOnLeftSide"><g id="Слой_1-2" data-name="Слой 1"><path class="cls-1" d="M7.69,16.51c0-.12,0-.19,0-.27a1.48,1.48,0,0,0,0-.42.7.7,0,0,0-.44-.56c-1.59-.67-3.4-.66-5-1.47a3.66,3.66,0,0,1-2-2.25A3.4,3.4,0,0,1,.77,8.8,3.78,3.78,0,0,1,3,7.29H3a3.23,3.23,0,0,1,1.45-.06,35.84,35.84,0,0,1,6.76,2.63,1.35,1.35,0,0,0,1.06.1A15.13,15.13,0,0,1,17,9a23.78,23.78,0,0,1,5.18.52,1.09,1.09,0,0,0,.31,0c.79,0,1-.73,1.17-1.3.12-.37.25-.74.4-1.1a12.14,12.14,0,0,1,1-1.88,16.21,16.21,0,0,1,2.32-2.71l.73-.69A5.42,5.42,0,0,1,31.27.2a3.46,3.46,0,0,1,1,.12,2.55,2.55,0,0,1,1.11.55A3.28,3.28,0,0,1,34.24,4,4.07,4.07,0,0,1,31.6,6.61,9.32,9.32,0,0,0,30,7.74a5.34,5.34,0,0,0-1.2,1.55A5,5,0,0,0,28.1,11a1,1,0,0,0,.3.87,1,1,0,0,0,.48.2.69.69,0,0,0,.38,0c.28-.12.41-.48.58-.71a6.35,6.35,0,0,1,.67-.79,5,5,0,0,1,1.52-1A7.41,7.41,0,0,1,35.16,9a1.66,1.66,0,0,0,1.19-.27,3.72,3.72,0,0,0,.58-.67,2.6,2.6,0,0,1,1.19-1,3,3,0,0,1,1.61-.15A3.16,3.16,0,0,1,42.2,9a4.29,4.29,0,0,1-.64,3.47,1.08,1.08,0,0,0,0,1.06l.13.26A7.37,7.37,0,0,1,42.25,16a7.58,7.58,0,0,1,0,.79v.16a7.21,7.21,0,0,1,0,.78,7.43,7.43,0,0,1-.59,2.17l-.13.26a1.08,1.08,0,0,0,0,1.06,4.28,4.28,0,0,1,.64,3.47,3.16,3.16,0,0,1-2.47,2.08,3.26,3.26,0,0,1-1.61-.15,2.68,2.68,0,0,1-1.19-1,3.72,3.72,0,0,0-.58-.67,1.66,1.66,0,0,0-1.19-.27A7.41,7.41,0,0,1,32,24.13a5.24,5.24,0,0,1-1.52-1,6.35,6.35,0,0,1-.67-.79c-.17-.23-.3-.59-.58-.71a.69.69,0,0,0-.38,0,1,1,0,0,0-.48.2,1,1,0,0,0-.3.87,5,5,0,0,0,.67,1.73A5.43,5.43,0,0,0,30,25.91,9.32,9.32,0,0,0,31.6,27a4.11,4.11,0,0,1,2.64,2.64,3.29,3.29,0,0,1-.9,3.11,2.67,2.67,0,0,1-1.11.55,3.12,3.12,0,0,1-1,.11,5.37,5.37,0,0,1-3.12-1.67c-.24-.23-.49-.45-.73-.69a16.14,16.14,0,0,1-2.32-2.7,12.24,12.24,0,0,1-1-1.89c-.15-.36-.28-.73-.4-1.1-.19-.57-.38-1.27-1.17-1.3a1.63,1.63,0,0,0-.31,0,22.6,22.6,0,0,1-5.18.52,14.86,14.86,0,0,1-4.8-1,1.36,1.36,0,0,0-1.06.11,35.85,35.85,0,0,1-6.76,2.62A3.09,3.09,0,0,1,3,26.37H3a3.76,3.76,0,0,1-2.18-1.5,3.41,3.41,0,0,1-.48-2.75,3.66,3.66,0,0,1,2-2.25c1.56-.8,3.37-.79,5-1.47a.69.69,0,0,0,.44-.54,2.24,2.24,0,0,0,0-.64c0-.18,0-.24,0-.38Z"/></g><polygon class="cls-2" points="18.19 10.91 16.35 14.14 14.51 17.36 17.24 17.36 17.24 22.74 19.14 22.74 19.14 17.36 21.87 17.36 20.03 14.14 18.19 10.91"/></g></g></g></svg>