<svg xmlns="http://www.w3.org/2000/svg" viewBox="0 0 33.65 42.54"><defs><style>.cls-1{fill:#efeff3;stroke:#a9acb3;stroke-miterlimit:10;stroke-width:0.4px;}.cls-2{fill:#2b97d4;fill-rule:evenodd;}</style></defs><g id="Слой_2" data-name="Слой 2"><g id="Акселерометр"><g id="bearIsUpsideDown"><g id="Слой_1-2" data-name="Слой 1"><path class="cls-1" d="M17.15,7.69l.27,0a1.48,1.48,0,0,0,.42,0,.69.69,0,0,0,.55-.44c.68-1.59.67-3.4,1.47-5a3.66,3.66,0,0,1,2.25-2,3.41,3.41,0,0,1,2.75.48A3.76,3.76,0,0,1,26.36,3h0a3.09,3.09,0,0,1,.05,1.45,35.85,35.85,0,0,1-2.62,6.76,1.36,1.36,0,0,0-.11,1.06,14.86,14.86,0,0,1,1,4.8,22.6,22.6,0,0,1-.52,5.18,1.63,1.63,0,0,0,0,.31c0,.79.73,1,1.3,1.17.37.12.74.25,1.1.4a12.24,12.24,0,0,1,1.89,1,16.14,16.14,0,0,1,2.7,2.32c.24.24.46.49.69.73a5.37,5.37,0,0,1,1.67,3.12,3.12,3.12,0,0,1-.11,1,2.67,2.67,0,0,1-.55,1.11,3.29,3.29,0,0,1-3.11.9A4.11,4.11,0,0,1,27,31.6,9.32,9.32,0,0,0,25.91,30a5.43,5.43,0,0,0-1.54-1.2,5,5,0,0,0-1.73-.67,1,1,0,0,0-.87.3,1,1,0,0,0-.2.48.69.69,0,0,0,0,.38c.12.28.48.41.71.58a6.35,6.35,0,0,1,.79.67,5.24,5.24,0,0,1,1,1.52,7.41,7.41,0,0,1,.49,3.13,1.66,1.66,0,0,0,.27,1.19,3.72,3.72,0,0,0,.67.58,2.68,2.68,0,0,1,1,1.19,3.26,3.26,0,0,1,.15,1.61,3.16,3.16,0,0,1-2.08,2.47,4.28,4.28,0,0,1-3.47-.64,1.08,1.08,0,0,0-1.06,0l-.26.13a7.43,7.43,0,0,1-2.17.59,7.21,7.21,0,0,1-.78,0h-.16a7.58,7.58,0,0,1-.79,0,7.37,7.37,0,0,1-2.16-.59l-.26-.13a1.08,1.08,0,0,0-1.06,0A4.29,4.29,0,0,1,9,42.2a3.16,3.16,0,0,1-2.08-2.47,3,3,0,0,1,.15-1.61,2.6,2.6,0,0,1,1-1.19,3.72,3.72,0,0,0,.67-.58A1.66,1.66,0,0,0,9,35.16,7.41,7.41,0,0,1,9.53,32a5,5,0,0,1,1-1.52,6.35,6.35,0,0,1,.79-.67c.23-.17.59-.3.71-.58a.69.69,0,0,0,0-.38,1,1,0,0,0-.2-.48,1,1,0,0,0-.87-.3,5,5,0,0,0-1.72.67A5.34,5.34,0,0,0,7.74,30,9.32,9.32,0,0,0,6.61,31.6,4.07,4.07,0,0,1,4,34.24a3.28,3.28,0,0,1-3.11-.9,2.55,2.55,0,0,1-.55-1.11,3.46,3.46,0,0,1-.12-1,5.42,5.42,0,0,1,1.67-3.12l.69-.73A16.21,16.21,0,0,1,5.27,25.1a12.14,12.14,0,0,1,1.88-1c.36-.15.73-.28,1.1-.4.57-.19,1.27-.38,1.3-1.17a1.09,1.09,0,0,0,0-.31A23.78,23.78,0,0,1,9,17a15.13,15.13,0,0,1,1-4.8,1.35,1.35,0,0,0-.1-1.06A35.84,35.84,0,0,1,7.23,4.41,3.23,3.23,0,0,1,7.29,3h0A3.78,3.78,0,0,1,8.8.77,3.4,3.4,0,0,1,11.54.29a3.66,3.66,0,0,1,2.25,2c.81,1.56.8,3.37,1.47,5a.69.69,0,0,0,.55.44,2.24,2.24,0,0,0,.64,0l.38,0Z"/></g><polygon class="cls-2" points="16.83 12.28 14.99 15.5 13.15 18.72 15.88 18.72 15.88 24.1 17.77 24.1 17.77 18.72 20.5 18.72 18.66 15.5 16.83 12.28"/></g></g></g></svg>