<?xml version="1.0" encoding="UTF-8"?>
<!DOCTYPE svg PUBLIC "-//W3C//DTD SVG 1.1//EN" "http://www.w3.org/Graphics/SVG/1.1/DTD/svg11.dtd">
<!-- Creator: CorelDRAW -->
<svg xmlns="http://www.w3.org/2000/svg" xml:space="preserve" width="16.7168mm" height="12.142mm" version="1.1" style="shape-rendering:geometricPrecision; text-rendering:geometricPrecision; image-rendering:optimizeQuality; fill-rule:evenodd; clip-rule:evenodd"
viewBox="0 0 31.64 22.98"
 xmlns:xlink="http://www.w3.org/1999/xlink"
 xmlns:xodm="http://www.corel.com/coreldraw/odm/2003">
 <defs>
  <style type="text/css">
   <![CDATA[
    .str0 {stroke:#FEFEFE;stroke-width:0.14;stroke-miterlimit:22.9256}
    .fil4 {fill:none;fill-rule:nonzero}
    .fil0 {fill:#AAACB2}
    .fil2 {fill:#2B97D4}
    .fil1 {fill:white}
    .fil3 {fill:white;fill-rule:nonzero}
   ]]>
  </style>
 </defs>
 <g id="Слой_x0020_1">
  <metadata id="CorelCorpID_0Corel-Layer"/>
  <g id="_2478326897072">
   <path class="fil0" d="M30.74 16.88c-2.7,5.55 -9.59,6.56 -14.57,3.48 -0.36,-0.21 -0.32,-0.23 -0.72,0.01 -5.05,3.18 -11.92,2.23 -14.57,-3.5 -0.3,-0.54 0.51,-1.02 0.84,-0.51 1.13,1.73 2.69,3.11 4.48,3.78 2.17,0.79 4.73,0.58 6.89,-0.54 2.37,-1.18 1.96,-5.45 2.11,-7.6l1.07 -0.07c0.18,2.65 -0.4,6.48 2.18,7.69 2.18,1.02 4.72,1.45 6.96,0.6 1.82,-0.68 3.34,-2.13 4.42,-3.88 0.34,-0.58 1.26,-0.04 0.91,0.55z"/>
   <path class="fil1" d="M31.47 17.25c-0.15,0.3 -0.32,0.6 -0.5,0.91 -1.5,2.43 -3.82,3.91 -6.37,4.47 -2.53,0.56 -5.3,0.22 -7.76,-0.98 -0.33,-0.16 -0.67,-0.34 -1.01,-0.55 -0.45,0.28 -0.91,0.53 -1.37,0.74 -2.41,1.11 -5.07,1.42 -7.5,0.88 -2.46,-0.55 -4.68,-1.97 -6.15,-4.31 -0.23,-0.37 -0.45,-0.76 -0.64,-1.17 -0.26,-0.5 -0.17,-0.99 0.1,-1.35 0.11,-0.15 0.25,-0.27 0.39,-0.36 0.16,-0.09 0.33,-0.15 0.51,-0.18 0.46,-0.06 0.94,0.09 1.25,0.58 0.53,0.81 1.16,1.54 1.88,2.14 0.68,0.57 1.42,1.02 2.21,1.32 0.97,0.35 2.03,0.48 3.09,0.39 1.08,-0.08 2.15,-0.39 3.14,-0.89l0.01 -0c1.52,-0.76 1.57,-3.55 1.61,-5.6 0.01,-0.5 0.02,-0.97 0.04,-1.33l0.05 -0.71 2.59 -0.18 0.05 0.81c0.03,0.5 0.04,1.08 0.05,1.68 0.02,2.15 0.05,4.56 1.67,5.32 1.06,0.5 2.22,0.84 3.38,0.94 1.01,0.09 2.02,-0.01 2.95,-0.37 0.79,-0.29 1.52,-0.75 2.17,-1.33 0.7,-0.62 1.32,-1.37 1.83,-2.21 0.32,-0.55 0.84,-0.71 1.34,-0.63 0.17,0.03 0.34,0.09 0.49,0.18 0.15,0.09 0.29,0.2 0.39,0.34 0.3,0.38 0.41,0.9 0.12,1.43zm-0.73 -0.36c-2.7,5.55 -9.59,6.56 -14.57,3.48 -0.36,-0.21 -0.32,-0.23 -0.71,0.01 -5.05,3.18 -11.92,2.23 -14.57,-3.5 -0.3,-0.54 0.51,-1.02 0.84,-0.5 1.13,1.73 2.69,3.11 4.48,3.78 2.17,0.79 4.73,0.58 6.89,-0.54 2.37,-1.18 1.96,-5.45 2.11,-7.6l1.07 -0.07c0.18,2.65 -0.4,6.48 2.18,7.69 2.18,1.02 4.72,1.45 6.96,0.6 1.82,-0.68 3.34,-2.13 4.42,-3.88 0.34,-0.58 1.26,-0.04 0.91,0.55z"/>
   <path class="fil2" d="M17.88 13.31c1.79,-0.93 4.43,-2.46 6.6,-4.29 1.06,-0.89 1.9,-2.02 2.19,-3.33 0.27,-1.19 0.17,-2.68 -1.17,-4.05 -1.55,-1.57 -3.81,-1.65 -5.94,-1.64 -2.47,0.01 -4.94,0.02 -7.41,0.03 -2.18,0.01 -4.27,-0.01 -5.96,1.49 -1.3,1.15 -1.63,2.88 -1.08,4.44 0.55,1.55 1.87,2.58 3.13,3.63 1.74,1.44 3.69,2.74 5.74,3.79 1.22,0.63 2.68,0.56 3.9,-0.07z"/>
   <g>
    <g>
     <path class="fil3" d="M11.6 1.84c-0.26,0 -0.45,0.14 -0.57,0.39 -0.13,0.27 -0.19,0.68 -0.19,1.29 0,0.58 0.06,1.01 0.19,1.27 0.13,0.25 0.32,0.39 0.57,0.39 0.26,0 0.45,-0.14 0.57,-0.39 0.13,-0.25 0.19,-0.68 0.19,-1.27 0,-0.6 -0.06,-1.01 -0.19,-1.29 -0.13,-0.25 -0.32,-0.39 -0.57,-0.39l0 0zm0 -0.45c0.45,0 0.8,0.19 1.02,0.55 0.22,0.37 0.35,0.88 0.35,1.58 0,0.68 -0.13,1.21 -0.35,1.56 -0.22,0.39 -0.57,0.55 -1.02,0.55 -0.45,0 -0.8,-0.16 -1.02,-0.55 -0.22,-0.35 -0.35,-0.88 -0.35,-1.56 0,-0.7 0.13,-1.21 0.35,-1.58 0.23,-0.35 0.57,-0.55 1.02,-0.55l0 0z"/>
     <path id="_1" class="fil4 str0" d="M11.6 1.84c-0.26,0 -0.45,0.14 -0.57,0.39 -0.13,0.27 -0.19,0.68 -0.19,1.29 0,0.58 0.06,1.01 0.19,1.27 0.13,0.25 0.32,0.39 0.57,0.39 0.26,0 0.45,-0.14 0.57,-0.39 0.13,-0.25 0.19,-0.68 0.19,-1.27 0,-0.6 -0.06,-1.01 -0.19,-1.29 -0.13,-0.25 -0.32,-0.39 -0.57,-0.39l0 0zm0 -0.45c0.45,0 0.8,0.19 1.02,0.55 0.22,0.37 0.35,0.88 0.35,1.58 0,0.68 -0.13,1.21 -0.35,1.56 -0.22,0.39 -0.57,0.55 -1.02,0.55 -0.45,0 -0.8,-0.16 -1.02,-0.55 -0.22,-0.35 -0.35,-0.88 -0.35,-1.56 0,-0.7 0.13,-1.21 0.35,-1.58 0.23,-0.35 0.57,-0.55 1.02,-0.55l0 0z"/>
    </g>
    <g>
     <polygon class="fil3" points="15.11,1.47 15.11,5.57 14.57,5.57 14.57,2.08 13.61,2.66 13.39,2.23 14.64,1.47 "/>
     <polygon id="_1_427" class="fil4 str0" points="15.11,1.47 15.11,5.57 14.57,5.57 14.57,2.08 13.61,2.66 13.39,2.23 14.64,1.47 "/>
    </g>
    <g>
     <path class="fil3" d="M17.48 1.84c-0.26,0 -0.45,0.14 -0.57,0.39 -0.13,0.27 -0.19,0.68 -0.19,1.29 0,0.58 0.06,1.01 0.19,1.27 0.13,0.25 0.32,0.39 0.57,0.39 0.26,0 0.45,-0.14 0.57,-0.39 0.13,-0.25 0.19,-0.68 0.19,-1.27 0,-0.6 -0.06,-1.01 -0.19,-1.29 -0.13,-0.25 -0.32,-0.39 -0.57,-0.39l0 0zm0 -0.45c0.45,0 0.8,0.19 1.02,0.55 0.22,0.37 0.35,0.88 0.35,1.58 0,0.68 -0.13,1.21 -0.35,1.56 -0.22,0.39 -0.57,0.55 -1.02,0.55 -0.45,0 -0.8,-0.16 -1.02,-0.55 -0.22,-0.35 -0.35,-0.88 -0.35,-1.56 0,-0.7 0.13,-1.21 0.35,-1.58 0.22,-0.35 0.57,-0.55 1.02,-0.55l0 0z"/>
     <path id="_1_428" class="fil4 str0" d="M17.48 1.84c-0.26,0 -0.45,0.14 -0.57,0.39 -0.13,0.27 -0.19,0.68 -0.19,1.29 0,0.58 0.06,1.01 0.19,1.27 0.13,0.25 0.32,0.39 0.57,0.39 0.26,0 0.45,-0.14 0.57,-0.39 0.13,-0.25 0.19,-0.68 0.19,-1.27 0,-0.6 -0.06,-1.01 -0.19,-1.29 -0.13,-0.25 -0.32,-0.39 -0.57,-0.39l0 0zm0 -0.45c0.45,0 0.8,0.19 1.02,0.55 0.22,0.37 0.35,0.88 0.35,1.58 0,0.68 -0.13,1.21 -0.35,1.56 -0.22,0.39 -0.57,0.55 -1.02,0.55 -0.45,0 -0.8,-0.16 -1.02,-0.55 -0.22,-0.35 -0.35,-0.88 -0.35,-1.56 0,-0.7 0.13,-1.21 0.35,-1.58 0.22,-0.35 0.57,-0.55 1.02,-0.55l0 0z"/>
    </g>
    <g>
     <polygon class="fil3" points="20.99,1.47 20.99,5.57 20.45,5.57 20.45,2.08 19.49,2.66 19.27,2.23 20.51,1.47 "/>
     <polygon id="_1_429" class="fil4 str0" points="20.99,1.47 20.99,5.57 20.45,5.57 20.45,2.08 19.49,2.66 19.27,2.23 20.51,1.47 "/>
    </g>
    <g>
     <polygon class="fil3" points="11.86,6.31 11.86,10.4 11.31,10.4 11.31,6.91 10.36,7.49 10.13,7.09 11.38,6.31 "/>
     <polygon id="_1_430" class="fil4 str0" points="11.86,6.31 11.86,10.4 11.31,10.4 11.31,6.91 10.36,7.49 10.13,7.09 11.38,6.31 "/>
    </g>
    <g>
     <path class="fil3" d="M14.25 6.7c-0.26,0 -0.45,0.12 -0.57,0.39 -0.13,0.25 -0.19,0.66 -0.19,1.29 0,0.58 0.06,0.99 0.19,1.25 0.13,0.27 0.32,0.39 0.57,0.39 0.26,0 0.45,-0.12 0.57,-0.39 0.13,-0.25 0.19,-0.66 0.19,-1.25 0,-0.62 -0.06,-1.03 -0.19,-1.29 -0.13,-0.27 -0.32,-0.39 -0.57,-0.39l0 0zm0 -0.45c0.45,0 0.8,0.18 1.02,0.55 0.22,0.35 0.35,0.86 0.35,1.58 0,0.68 -0.13,1.19 -0.35,1.54 -0.22,0.39 -0.57,0.55 -1.02,0.55 -0.45,0 -0.8,-0.16 -1.02,-0.55 -0.22,-0.35 -0.35,-0.86 -0.35,-1.54 0,-0.72 0.13,-1.23 0.35,-1.58 0.22,-0.37 0.57,-0.55 1.02,-0.55l0 0z"/>
     <path id="_1_431" class="fil4 str0" d="M14.25 6.7c-0.26,0 -0.45,0.12 -0.57,0.39 -0.13,0.25 -0.19,0.66 -0.19,1.29 0,0.58 0.06,0.99 0.19,1.25 0.13,0.27 0.32,0.39 0.57,0.39 0.26,0 0.45,-0.12 0.57,-0.39 0.13,-0.25 0.19,-0.66 0.19,-1.25 0,-0.62 -0.06,-1.03 -0.19,-1.29 -0.13,-0.27 -0.32,-0.39 -0.57,-0.39l0 0zm0 -0.45c0.45,0 0.8,0.18 1.02,0.55 0.22,0.35 0.35,0.86 0.35,1.58 0,0.68 -0.13,1.19 -0.35,1.54 -0.22,0.39 -0.57,0.55 -1.02,0.55 -0.45,0 -0.8,-0.16 -1.02,-0.55 -0.22,-0.35 -0.35,-0.86 -0.35,-1.54 0,-0.72 0.13,-1.23 0.35,-1.58 0.22,-0.37 0.57,-0.55 1.02,-0.55l0 0z"/>
    </g>
    <g>
     <polygon class="fil3" points="17.73,6.31 17.73,10.4 17.19,10.4 17.19,6.91 16.23,7.49 16.01,7.09 17.26,6.31 "/>
     <polygon id="_1_432" class="fil4 str0" points="17.73,6.31 17.73,10.4 17.19,10.4 17.19,6.91 16.23,7.49 16.01,7.09 17.26,6.31 "/>
    </g>
    <g>
     <path class="fil3" d="M20.13 6.7c-0.26,0 -0.45,0.12 -0.58,0.39 -0.13,0.25 -0.19,0.66 -0.19,1.29 0,0.58 0.06,0.99 0.19,1.25 0.13,0.27 0.32,0.39 0.58,0.39 0.25,0 0.45,-0.12 0.57,-0.39 0.13,-0.25 0.19,-0.66 0.19,-1.25 0,-0.62 -0.06,-1.03 -0.19,-1.29 -0.13,-0.27 -0.32,-0.39 -0.57,-0.39l0 0zm0 -0.45c0.45,0 0.8,0.18 1.02,0.55 0.22,0.35 0.35,0.86 0.35,1.58 0,0.68 -0.13,1.19 -0.35,1.54 -0.22,0.39 -0.57,0.55 -1.02,0.55 -0.45,0 -0.8,-0.16 -1.02,-0.55 -0.22,-0.35 -0.35,-0.86 -0.35,-1.54 0,-0.72 0.13,-1.23 0.35,-1.58 0.22,-0.37 0.57,-0.55 1.02,-0.55l0 0z"/>
     <path id="_1_433" class="fil4 str0" d="M20.13 6.7c-0.26,0 -0.45,0.12 -0.58,0.39 -0.13,0.25 -0.19,0.66 -0.19,1.29 0,0.58 0.06,0.99 0.19,1.25 0.13,0.27 0.32,0.39 0.58,0.39 0.25,0 0.45,-0.12 0.57,-0.39 0.13,-0.25 0.19,-0.66 0.19,-1.25 0,-0.62 -0.06,-1.03 -0.19,-1.29 -0.13,-0.27 -0.32,-0.39 -0.57,-0.39l0 0zm0 -0.45c0.45,0 0.8,0.18 1.02,0.55 0.22,0.35 0.35,0.86 0.35,1.58 0,0.68 -0.13,1.19 -0.35,1.54 -0.22,0.39 -0.57,0.55 -1.02,0.55 -0.45,0 -0.8,-0.16 -1.02,-0.55 -0.22,-0.35 -0.35,-0.86 -0.35,-1.54 0,-0.72 0.13,-1.23 0.35,-1.58 0.22,-0.37 0.57,-0.55 1.02,-0.55l0 0z"/>
    </g>
   </g>
  </g>
 </g>
</svg>
