<?xml version="1.0" encoding="UTF-8"?>
<!DOCTYPE svg PUBLIC "-//W3C//DTD SVG 1.1//EN" "http://www.w3.org/Graphics/SVG/1.1/DTD/svg11.dtd">
<!-- Creator: CorelDRAW -->
<svg xmlns="http://www.w3.org/2000/svg" xml:space="preserve" width="31.8436mm" height="19.583mm" version="1.1" style="shape-rendering:geometricPrecision; text-rendering:geometricPrecision; image-rendering:optimizeQuality; fill-rule:evenodd; clip-rule:evenodd"
viewBox="0 0 100.41 61.75"
 xmlns:xlink="http://www.w3.org/1999/xlink"
 xmlns:xodm="http://www.corel.com/coreldraw/odm/2003">
 <defs>
  <style type="text/css">
   <![CDATA[
    .str0 {stroke:#2B97D4;stroke-width:0.24;stroke-miterlimit:22.9256}
    .fil0 {fill:#EFEFF2}
    .fil2 {fill:#AAACB2}
    .fil1 {fill:#AAACB2;fill-rule:nonzero}
    .fil3 {fill:#2B97D4;fill-rule:nonzero}
   ]]>
  </style>
 </defs>
 <g id="Слой_x0020_1">
  <metadata id="CorelCorpID_0Corel-Layer"/>
  <g id="_2515105626032">
   <g>
    <path class="fil0" d="M67.72 56.61c2.45,-1.71 4.47,-3.96 5.75,-6.89 1.36,-3.11 1.63,-6.53 1.55,-9.89 -0.03,-1.38 -0.06,-2.63 0.86,-3.75 0.59,-0.72 1.36,-1.27 2.12,-1.82 1.37,-1 2.57,-2.14 3.19,-3.76 0.61,-1.6 0.75,-3.4 0.48,-5.08 -0.57,-3.49 -3.15,-6.73 -6.56,-7.8 -3.69,-1.16 -7.77,0.04 -10.95,2.03 -1.01,0.63 -2.28,0.64 -3.34,0.09 -0.27,-0.14 -0.55,-0.27 -0.82,-0.4 -2.15,-0.99 -4.48,-1.6 -6.83,-1.86 -0.59,-0.06 -1.44,-0.14 -2.48,-0.15l-0.49 0c-1.04,0.01 -1.89,0.09 -2.48,0.15 -2.35,0.26 -4.68,0.87 -6.83,1.86 -0.28,0.13 -0.55,0.26 -0.82,0.4 -1.06,0.55 -2.33,0.54 -3.34,-0.09 -3.18,-1.99 -7.26,-3.19 -10.95,-2.03 -3.41,1.07 -5.99,4.3 -6.56,7.8 -0.27,1.68 -0.14,3.49 0.48,5.08 0.62,1.61 1.82,2.76 3.19,3.76 0.75,0.55 1.53,1.09 2.12,1.82 0.92,1.13 0.89,2.38 0.86,3.75 -0.08,3.36 0.19,6.78 1.55,9.89 3.01,6.89 11.47,10.25 18.47,11.24 7.23,1.02 15.76,-0.1 21.86,-4.35z"/>
    <path id="_1" class="fil1" d="M73.08 49.55l0.79 0.35 0 0 -0.12 0.28 -0.13 0.28 -0.13 0.27 -0.14 0.27 -0.14 0.26 -0.15 0.26 -0.15 0.26 -0.15 0.25 -0.16 0.25 -0.16 0.24 -0.17 0.24 -0.17 0.24 -0.17 0.23 -0.18 0.23 -0.18 0.23 -0.19 0.22 -0.19 0.22 -0.19 0.21 -0.2 0.21 -0.2 0.21 -0.2 0.2 -0.21 0.2 -0.21 0.2 -0.21 0.19 -0.21 0.19 -0.22 0.19 -0.22 0.18 -0.22 0.18 -0.23 0.18 -0.23 0.17 -0.23 0.17 -0.23 0.17 -0.5 -0.71 0.22 -0.16 0.22 -0.16 0.22 -0.16 0.22 -0.17 0.21 -0.17 0.21 -0.17 0.21 -0.18 0.2 -0.18 0.2 -0.18 0.2 -0.19 0.2 -0.19 0.19 -0.19 0.19 -0.2 0.19 -0.2 0.18 -0.2 0.18 -0.21 0.18 -0.21 0.17 -0.21 0.17 -0.22 0.16 -0.22 0.16 -0.22 0.16 -0.23 0.15 -0.23 0.15 -0.24 0.15 -0.24 0.14 -0.24 0.14 -0.25 0.13 -0.25 0.13 -0.25 0.13 -0.26 0.12 -0.26 0.12 -0.26 0 0zm1.52 -9.7l0.87 -0.02 0 0 0.01 0.32 0 0.32 0 0.32 -0 0.32 -0 0.32 -0.01 0.32 -0.01 0.32 -0.01 0.32 -0.02 0.32 -0.02 0.32 -0.02 0.32 -0.03 0.32 -0.03 0.32 -0.03 0.32 -0.04 0.32 -0.04 0.32 -0.05 0.32 -0.05 0.32 -0.05 0.32 -0.06 0.32 -0.06 0.31 -0.07 0.31 -0.08 0.31 -0.08 0.31 -0.09 0.31 -0.09 0.31 -0.1 0.31 -0.1 0.31 -0.11 0.31 -0.11 0.3 -0.12 0.3 -0.13 0.3 -0.79 -0.35 0.12 -0.28 0.11 -0.29 0.11 -0.29 0.1 -0.29 0.1 -0.29 0.09 -0.29 0.09 -0.29 0.08 -0.3 0.08 -0.3 0.07 -0.3 0.07 -0.3 0.06 -0.3 0.06 -0.3 0.05 -0.3 0.05 -0.3 0.04 -0.31 0.04 -0.31 0.04 -0.31 0.03 -0.31 0.03 -0.31 0.02 -0.31 0.02 -0.31 0.02 -0.31 0.02 -0.31 0.01 -0.31 0.01 -0.31 0.01 -0.31 0 -0.31 0 -0.31 -0 -0.31 -0 -0.31 -0.01 -0.31 0 0zm0.96 -4.04l0.67 0.55 0 0 -0.07 0.09 -0.07 0.09 -0.06 0.09 -0.06 0.09 -0.05 0.1 -0.05 0.1 -0.05 0.1 -0.04 0.1 -0.04 0.1 -0.04 0.1 -0.03 0.1 -0.03 0.1 -0.03 0.1 -0.02 0.1 -0.02 0.11 -0.02 0.11 -0.02 0.11 -0.01 0.11 -0.01 0.11 -0.01 0.11 -0.01 0.11 -0.01 0.11 -0 0.12 -0 0.12 -0 0.12 -0 0.12 -0 0.12 0 0.12 0 0.12 0 0.13 0 0.13 0 0.13 -0.87 0.02 -0 -0.13 -0 -0.13 -0 -0.13 -0 -0.13 -0 -0.13 -0 -0.13 0 -0.13 0 -0.13 0 -0.13 0.01 -0.13 0.01 -0.13 0.01 -0.13 0.01 -0.13 0.01 -0.13 0.02 -0.13 0.02 -0.13 0.02 -0.13 0.03 -0.13 0.03 -0.13 0.03 -0.13 0.04 -0.13 0.04 -0.13 0.05 -0.13 0.05 -0.13 0.06 -0.12 0.06 -0.12 0.07 -0.12 0.07 -0.12 0.08 -0.12 0.08 -0.12 0.09 -0.12 0.09 -0.12 0 0zm2.2 -1.89l0.51 0.7 0 0 -0.14 0.1 -0.14 0.1 -0.07 0.05 -0.07 0.05 -0.07 0.05 -0.07 0.05 -0.07 0.05 -0.07 0.05 -0.07 0.05 -0.07 0.05 -0.07 0.05 -0.07 0.05 -0.07 0.05 -0.07 0.05 -0.06 0.05 -0.06 0.05 -0.06 0.05 -0.06 0.05 -0.06 0.05 -0.06 0.06 -0.06 0.06 -0.06 0.06 -0.06 0.06 -0.06 0.06 -0.06 0.06 -0.05 0.06 -0.05 0.06 -0.05 0.06 -0.05 0.06 -0.05 0.06 -0.67 -0.55 0.06 -0.07 0.06 -0.07 0.06 -0.07 0.06 -0.07 0.06 -0.07 0.06 -0.07 0.06 -0.07 0.07 -0.06 0.07 -0.06 0.07 -0.06 0.07 -0.06 0.07 -0.06 0.07 -0.06 0.07 -0.06 0.07 -0.06 0.07 -0.06 0.07 -0.06 0.07 -0.06 0.07 -0.06 0.07 -0.06 0.07 -0.05 0.07 -0.05 0.07 -0.05 0.07 -0.05 0.07 -0.05 0.07 -0.05 0.07 -0.05 0.07 -0.05 0.14 -0.1 0.14 -0.1 0 0zm3.04 -3.56l0.81 0.31 0 0 -0.06 0.16 -0.07 0.16 -0.07 0.15 -0.07 0.15 -0.08 0.15 -0.08 0.15 -0.08 0.14 -0.09 0.14 -0.09 0.14 -0.09 0.14 -0.1 0.13 -0.1 0.13 -0.1 0.13 -0.1 0.13 -0.1 0.12 -0.11 0.12 -0.11 0.12 -0.11 0.12 -0.11 0.12 -0.12 0.11 -0.12 0.11 -0.12 0.11 -0.12 0.11 -0.12 0.11 -0.12 0.11 -0.12 0.1 -0.13 0.1 -0.13 0.1 -0.13 0.1 -0.13 0.1 -0.13 0.1 -0.13 0.1 -0.51 -0.7 0.13 -0.09 0.12 -0.09 0.12 -0.09 0.12 -0.09 0.12 -0.1 0.12 -0.1 0.12 -0.1 0.12 -0.1 0.11 -0.1 0.11 -0.1 0.11 -0.1 0.11 -0.1 0.11 -0.1 0.1 -0.11 0.1 -0.11 0.1 -0.11 0.1 -0.11 0.09 -0.11 0.09 -0.11 0.09 -0.11 0.09 -0.12 0.08 -0.12 0.08 -0.12 0.08 -0.12 0.08 -0.12 0.07 -0.13 0.07 -0.13 0.07 -0.13 0.06 -0.13 0.06 -0.13 0.06 -0.14 0.06 -0.14 0 0zm0.45 -4.86l0.85 -0.14 0 0 0.03 0.16 0.02 0.17 0.02 0.17 0.02 0.17 0.02 0.17 0.01 0.17 0.01 0.17 0.01 0.17 0 0.17 0 0.17 0 0.17 -0 0.17 -0.01 0.17 -0.01 0.17 -0.01 0.17 -0.01 0.17 -0.02 0.17 -0.02 0.17 -0.02 0.17 -0.02 0.17 -0.03 0.17 -0.03 0.17 -0.03 0.17 -0.04 0.16 -0.04 0.16 -0.04 0.16 -0.04 0.16 -0.05 0.16 -0.05 0.16 -0.05 0.16 -0.06 0.16 -0.06 0.16 -0.81 -0.31 0.05 -0.14 0.05 -0.14 0.05 -0.15 0.05 -0.15 0.04 -0.15 0.04 -0.15 0.04 -0.15 0.04 -0.15 0.03 -0.15 0.03 -0.15 0.03 -0.15 0.03 -0.15 0.02 -0.15 0.02 -0.15 0.02 -0.15 0.02 -0.15 0.01 -0.15 0.01 -0.15 0.01 -0.16 0.01 -0.16 0 -0.15 0 -0.16 -0 -0.16 -0 -0.15 -0.01 -0.15 -0.01 -0.15 -0.01 -0.15 -0.01 -0.15 -0.02 -0.15 -0.02 -0.15 -0.02 -0.15 -0.02 -0.15 0 0zm-6.26 -7.45l0.26 -0.83 0 0 0.33 0.11 0.33 0.12 0.32 0.14 0.32 0.15 0.31 0.16 0.3 0.17 0.3 0.18 0.29 0.19 0.28 0.2 0.28 0.21 0.27 0.22 0.26 0.23 0.25 0.24 0.24 0.25 0.24 0.26 0.23 0.27 0.22 0.27 0.21 0.28 0.2 0.29 0.19 0.29 0.18 0.3 0.17 0.3 0.16 0.31 0.15 0.31 0.14 0.32 0.13 0.32 0.12 0.33 0.11 0.33 0.1 0.33 0.09 0.34 0.07 0.34 0.06 0.34 -0.85 0.14 -0.06 -0.31 -0.07 -0.31 -0.08 -0.31 -0.09 -0.31 -0.1 -0.3 -0.11 -0.3 -0.12 -0.3 -0.13 -0.29 -0.14 -0.29 -0.15 -0.29 -0.16 -0.28 -0.17 -0.28 -0.18 -0.27 -0.19 -0.26 -0.19 -0.26 -0.2 -0.25 -0.21 -0.24 -0.22 -0.24 -0.22 -0.23 -0.23 -0.22 -0.24 -0.21 -0.25 -0.2 -0.25 -0.2 -0.26 -0.19 -0.26 -0.18 -0.27 -0.17 -0.28 -0.16 -0.28 -0.15 -0.29 -0.14 -0.29 -0.12 -0.3 -0.11 -0.3 -0.1 0 0zm-10.59 1.98l-0.46 -0.73 0 0 0.31 -0.19 0.31 -0.18 0.32 -0.18 0.32 -0.17 0.33 -0.17 0.33 -0.16 0.34 -0.15 0.34 -0.15 0.34 -0.14 0.35 -0.13 0.35 -0.13 0.35 -0.12 0.36 -0.11 0.36 -0.1 0.36 -0.09 0.36 -0.08 0.36 -0.07 0.37 -0.06 0.37 -0.05 0.37 -0.04 0.37 -0.03 0.37 -0.02 0.37 -0.01 0.37 0 0.37 0.01 0.37 0.03 0.37 0.04 0.37 0.05 0.37 0.06 0.37 0.08 0.36 0.09 0.36 0.11 -0.26 0.83 -0.33 -0.1 -0.33 -0.08 -0.34 -0.07 -0.34 -0.06 -0.34 -0.05 -0.34 -0.04 -0.34 -0.02 -0.34 -0.01 -0.34 -0 -0.34 0.01 -0.34 0.02 -0.34 0.03 -0.34 0.04 -0.34 0.05 -0.34 0.06 -0.34 0.07 -0.34 0.08 -0.34 0.09 -0.34 0.1 -0.34 0.1 -0.33 0.11 -0.33 0.12 -0.33 0.13 -0.33 0.13 -0.32 0.14 -0.32 0.15 -0.32 0.15 -0.31 0.16 -0.31 0.16 -0.3 0.17 -0.3 0.18 -0.29 0.18 0 0zm-3.77 0.11l0.4 -0.77 0 0 0.09 0.04 0.09 0.04 0.09 0.04 0.09 0.04 0.09 0.03 0.09 0.03 0.09 0.03 0.09 0.02 0.09 0.02 0.09 0.02 0.09 0.01 0.09 0.01 0.09 0.01 0.1 0.01 0.09 0 0.09 -0 0.09 -0 0.09 -0.01 0.09 -0.01 0.09 -0.01 0.09 -0.02 0.09 -0.02 0.09 -0.02 0.09 -0.02 0.09 -0.03 0.09 -0.03 0.09 -0.03 0.09 -0.04 0.09 -0.04 0.08 -0.04 0.08 -0.05 0.08 -0.05 0.46 0.73 -0.11 0.07 -0.11 0.06 -0.11 0.06 -0.11 0.05 -0.12 0.05 -0.12 0.04 -0.12 0.04 -0.12 0.04 -0.12 0.03 -0.12 0.03 -0.12 0.02 -0.12 0.02 -0.12 0.02 -0.12 0.01 -0.12 0.01 -0.12 0 -0.12 0 -0.12 -0 -0.12 -0.01 -0.12 -0.01 -0.12 -0.01 -0.12 -0.02 -0.12 -0.02 -0.12 -0.03 -0.12 -0.03 -0.12 -0.03 -0.12 -0.04 -0.12 -0.04 -0.12 -0.04 -0.11 -0.05 -0.11 -0.05 -0.11 -0.06 0 0zm-0.8 -0.39l0.36 -0.79 -0 -0 0.05 0.02 0.05 0.02 0.05 0.02 0.05 0.02 0.05 0.03 0.05 0.03 0.05 0.03 0.05 0.03 0.05 0.03 0.05 0.03 0.05 0.03 0.05 0.03 0.05 0.03 0.05 0.03 0.05 0.03 0.05 0.03 -0.4 0.77 -0.05 -0.03 -0.05 -0.02 -0.05 -0.03 -0.05 -0.03 -0.05 -0.02 -0.05 -0.02 -0.05 -0.02 -0.05 -0.02 -0.05 -0.02 -0.05 -0.02 -0.05 -0.02 -0.05 -0.02 -0.05 -0.02 -0.05 -0.02 -0.05 -0.02 -0.05 -0.02 -0 -0zm-6.7 -1.83l0.09 -0.86 0 0 0.22 0.03 0.22 0.03 0.22 0.03 0.22 0.03 0.22 0.03 0.22 0.04 0.22 0.04 0.22 0.04 0.22 0.04 0.22 0.04 0.22 0.05 0.22 0.05 0.22 0.05 0.22 0.05 0.22 0.06 0.22 0.06 0.22 0.06 0.22 0.06 0.22 0.06 0.22 0.07 0.22 0.07 0.22 0.07 0.21 0.07 0.21 0.08 0.21 0.08 0.21 0.08 0.21 0.08 0.21 0.08 0.21 0.09 0.21 0.09 0.21 0.09 0.21 0.09 -0.36 0.79 -0.2 -0.09 -0.2 -0.09 -0.2 -0.09 -0.2 -0.08 -0.2 -0.08 -0.2 -0.08 -0.2 -0.08 -0.2 -0.07 -0.2 -0.07 -0.21 -0.07 -0.21 -0.07 -0.21 -0.07 -0.21 -0.06 -0.21 -0.06 -0.21 -0.06 -0.21 -0.06 -0.21 -0.06 -0.21 -0.05 -0.21 -0.05 -0.21 -0.05 -0.21 -0.05 -0.21 -0.05 -0.21 -0.04 -0.21 -0.04 -0.21 -0.04 -0.22 -0.04 -0.22 -0.04 -0.22 -0.03 -0.22 -0.03 -0.22 -0.03 -0.22 -0.03 -0.22 -0.02 0 0zm-2.43 -0.15l0 -0.87 0.01 0 0.1 0 0.1 0 0.1 0 0.1 0 0.09 0 0.09 0 0.09 0 0.09 0 0.09 0 0.09 0 0.09 0 0.08 0 0.09 0 0.08 0.01 0.08 0.01 0.08 0.01 0.08 0.01 0.08 0.01 0.08 0.01 0.07 0.01 0.07 0.01 0.07 0.01 0.07 0.01 0.07 0.01 0.13 0.01 0.13 0.01 0.12 0.01 0.12 0.01 -0.09 0.86 -0.11 -0.01 -0.12 -0.01 -0.12 -0.01 -0.13 -0.01 -0.07 -0.01 -0.07 -0.01 -0.07 -0.01 -0.07 -0.01 -0.07 -0.01 -0.07 -0.01 -0.08 -0.01 -0.08 -0.01 -0.08 -0.01 -0.08 -0.01 -0.08 -0.01 -0.08 -0 -0.08 -0 -0.08 -0 -0.09 -0 -0.09 -0 -0.09 -0 -0.09 -0 -0.09 -0 -0.09 -0 -0.09 -0 -0.09 -0 -0.09 -0 -0.1 -0 0.01 0zm0 -0.87l0.01 0 -0.03 -0 0.02 0zm-0.49 0l0.49 0 0 0.87 -0.49 0 -0 -0.87 0 -0zm-0 0l0 -0 0.02 0 -0.03 0zm-2.43 1.02l-0.09 -0.86 0 0 0.12 -0.01 0.12 -0.01 0.13 -0.01 0.13 -0.01 0.07 -0.01 0.07 -0.01 0.07 -0.01 0.07 -0.01 0.07 -0.01 0.08 -0.01 0.08 -0.01 0.08 -0.01 0.08 -0.01 0.08 -0.01 0.08 -0.01 0.08 -0 0.09 -0.01 0.09 -0 0.09 -0 0.09 -0 0.09 -0 0.09 -0 0.09 -0 0.09 -0 0.1 -0 0.1 -0 0.1 -0 0.1 -0 0.01 0.87 -0.1 0 -0.09 0 -0.09 0 -0.09 0 -0.09 0 -0.09 0 -0.09 0 -0.09 0 -0.09 0 -0.08 0 -0.08 0 -0.08 0 -0.08 0 -0.08 0.01 -0.08 0.01 -0.08 0.01 -0.08 0.01 -0.07 0.01 -0.07 0.01 -0.07 0.01 -0.07 0.01 -0.07 0.01 -0.07 0.01 -0.07 0.01 -0.13 0.01 -0.12 0.01 -0.12 0.01 -0.11 0.01 0 0zm-6.7 1.83l-0.36 -0.79 -0 0 0.21 -0.09 0.21 -0.09 0.21 -0.09 0.21 -0.09 0.21 -0.08 0.21 -0.08 0.21 -0.08 0.21 -0.08 0.21 -0.08 0.21 -0.07 0.22 -0.07 0.22 -0.07 0.22 -0.07 0.22 -0.06 0.22 -0.06 0.22 -0.06 0.22 -0.06 0.22 -0.06 0.22 -0.05 0.22 -0.05 0.22 -0.05 0.22 -0.05 0.22 -0.04 0.22 -0.04 0.22 -0.04 0.22 -0.04 0.22 -0.04 0.22 -0.03 0.22 -0.03 0.22 -0.03 0.22 -0.03 0.22 -0.03 0.09 0.86 -0.22 0.02 -0.22 0.03 -0.22 0.03 -0.22 0.03 -0.22 0.03 -0.22 0.04 -0.21 0.04 -0.21 0.04 -0.21 0.04 -0.21 0.04 -0.21 0.05 -0.21 0.05 -0.21 0.05 -0.21 0.05 -0.21 0.05 -0.21 0.06 -0.21 0.06 -0.21 0.06 -0.21 0.06 -0.21 0.06 -0.21 0.07 -0.21 0.07 -0.21 0.07 -0.2 0.07 -0.2 0.07 -0.2 0.08 -0.2 0.08 -0.2 0.08 -0.2 0.08 -0.2 0.09 -0.2 0.09 -0.2 0.09 -0 0zm-0.8 0.39l-0.4 -0.77 0 -0 0.05 -0.03 0.05 -0.03 0.05 -0.03 0.05 -0.03 0.05 -0.03 0.05 -0.03 0.05 -0.03 0.05 -0.03 0.05 -0.03 0.05 -0.03 0.05 -0.03 0.05 -0.03 0.05 -0.02 0.05 -0.02 0.05 -0.02 0.05 -0.02 0.36 0.79 -0.05 0.02 -0.05 0.02 -0.05 0.02 -0.05 0.02 -0.05 0.02 -0.05 0.02 -0.05 0.02 -0.05 0.02 -0.05 0.02 -0.05 0.02 -0.05 0.02 -0.05 0.03 -0.05 0.02 -0.05 0.03 -0.05 0.02 -0.05 0.03 0 -0zm-0.4 -0.77l-0 0 0.01 -0 -0 0zm-3.38 0.66l0.46 -0.73 0 0 0.08 0.05 0.08 0.05 0.08 0.04 0.09 0.04 0.09 0.04 0.09 0.03 0.09 0.03 0.09 0.03 0.09 0.02 0.09 0.02 0.09 0.02 0.09 0.02 0.09 0.01 0.09 0.01 0.09 0.01 0.09 0 0.09 0 0.09 -0 0.1 -0.01 0.09 -0.01 0.09 -0.01 0.09 -0.01 0.09 -0.02 0.09 -0.02 0.09 -0.02 0.09 -0.03 0.09 -0.03 0.09 -0.03 0.09 -0.04 0.09 -0.04 0.09 -0.04 0.09 -0.04 0.4 0.77 -0.11 0.06 -0.11 0.05 -0.11 0.05 -0.12 0.04 -0.12 0.04 -0.12 0.04 -0.12 0.03 -0.12 0.03 -0.12 0.03 -0.12 0.02 -0.12 0.02 -0.12 0.01 -0.12 0.01 -0.12 0.01 -0.12 0 -0.12 -0 -0.12 -0 -0.12 -0.01 -0.12 -0.01 -0.12 -0.02 -0.12 -0.02 -0.12 -0.02 -0.12 -0.03 -0.12 -0.03 -0.12 -0.04 -0.12 -0.04 -0.12 -0.04 -0.12 -0.05 -0.11 -0.05 -0.11 -0.06 -0.11 -0.06 -0.11 -0.07 0 0zm-10.59 -1.98l-0.26 -0.83 0 0 0.36 -0.11 0.36 -0.09 0.37 -0.08 0.37 -0.06 0.37 -0.05 0.37 -0.04 0.37 -0.03 0.37 -0.01 0.37 -0 0.37 0.01 0.37 0.02 0.37 0.03 0.37 0.04 0.37 0.05 0.37 0.06 0.36 0.07 0.36 0.08 0.36 0.09 0.36 0.1 0.36 0.11 0.35 0.12 0.35 0.13 0.35 0.13 0.34 0.14 0.34 0.15 0.34 0.15 0.33 0.16 0.33 0.17 0.32 0.17 0.32 0.18 0.31 0.18 0.31 0.19 -0.46 0.73 -0.29 -0.18 -0.3 -0.18 -0.3 -0.17 -0.31 -0.16 -0.31 -0.16 -0.32 -0.15 -0.32 -0.15 -0.32 -0.14 -0.33 -0.13 -0.33 -0.13 -0.33 -0.12 -0.33 -0.11 -0.34 -0.1 -0.34 -0.1 -0.34 -0.09 -0.34 -0.08 -0.34 -0.07 -0.34 -0.06 -0.34 -0.05 -0.34 -0.04 -0.34 -0.03 -0.34 -0.02 -0.34 -0.01 -0.34 0 -0.34 0.01 -0.34 0.02 -0.34 0.04 -0.34 0.05 -0.34 0.06 -0.34 0.07 -0.33 0.08 -0.33 0.1 0 0zm-6.26 7.45l-0.85 -0.14 0 0 0.06 -0.34 0.07 -0.34 0.09 -0.34 0.1 -0.33 0.11 -0.33 0.12 -0.33 0.13 -0.32 0.14 -0.32 0.15 -0.31 0.16 -0.31 0.17 -0.3 0.18 -0.3 0.19 -0.29 0.2 -0.29 0.21 -0.28 0.22 -0.27 0.23 -0.27 0.24 -0.26 0.24 -0.25 0.25 -0.24 0.26 -0.23 0.27 -0.22 0.28 -0.21 0.28 -0.2 0.29 -0.19 0.3 -0.18 0.3 -0.17 0.31 -0.16 0.32 -0.15 0.32 -0.14 0.33 -0.12 0.33 -0.11 0.26 0.83 -0.3 0.1 -0.3 0.11 -0.29 0.12 -0.29 0.14 -0.28 0.15 -0.28 0.16 -0.27 0.17 -0.26 0.18 -0.26 0.19 -0.25 0.2 -0.25 0.2 -0.24 0.21 -0.23 0.22 -0.22 0.23 -0.22 0.24 -0.21 0.24 -0.2 0.25 -0.19 0.26 -0.19 0.26 -0.18 0.27 -0.17 0.28 -0.16 0.28 -0.15 0.29 -0.14 0.29 -0.13 0.29 -0.12 0.3 -0.11 0.3 -0.1 0.3 -0.09 0.31 -0.08 0.31 -0.07 0.31 -0.06 0.31 0 0zm0.45 4.86l-0.81 0.31 0 0 -0.06 -0.16 -0.06 -0.16 -0.05 -0.16 -0.05 -0.16 -0.05 -0.16 -0.04 -0.16 -0.04 -0.16 -0.04 -0.16 -0.04 -0.16 -0.03 -0.17 -0.03 -0.17 -0.03 -0.17 -0.02 -0.17 -0.02 -0.17 -0.02 -0.17 -0.02 -0.17 -0.01 -0.17 -0.01 -0.17 -0.01 -0.17 -0.01 -0.17 -0 -0.17 0 -0.17 0 -0.17 0 -0.17 0.01 -0.17 0.01 -0.17 0.01 -0.17 0.02 -0.17 0.02 -0.17 0.02 -0.17 0.02 -0.17 0.03 -0.16 0.85 0.14 -0.02 0.15 -0.02 0.15 -0.02 0.15 -0.02 0.15 -0.01 0.15 -0.01 0.15 -0.01 0.15 -0.01 0.15 -0 0.15 -0 0.16 0 0.16 0 0.15 0.01 0.16 0.01 0.16 0.01 0.15 0.01 0.15 0.02 0.15 0.02 0.15 0.02 0.15 0.02 0.15 0.03 0.15 0.03 0.15 0.03 0.15 0.03 0.15 0.04 0.15 0.04 0.15 0.04 0.15 0.04 0.15 0.05 0.15 0.05 0.15 0.05 0.14 0.05 0.14 0 0zm3.04 3.56l-0.51 0.7 0 0 -0.13 -0.1 -0.13 -0.1 -0.13 -0.1 -0.13 -0.1 -0.13 -0.1 -0.13 -0.1 -0.12 -0.1 -0.12 -0.11 -0.12 -0.11 -0.12 -0.11 -0.12 -0.11 -0.12 -0.11 -0.12 -0.11 -0.11 -0.12 -0.11 -0.12 -0.11 -0.12 -0.11 -0.12 -0.1 -0.12 -0.1 -0.13 -0.1 -0.13 -0.1 -0.13 -0.1 -0.13 -0.09 -0.14 -0.09 -0.14 -0.09 -0.14 -0.08 -0.14 -0.08 -0.15 -0.08 -0.15 -0.07 -0.15 -0.07 -0.15 -0.07 -0.16 -0.06 -0.16 0.81 -0.31 0.06 0.14 0.06 0.14 0.06 0.13 0.06 0.13 0.07 0.13 0.07 0.13 0.07 0.13 0.08 0.12 0.08 0.12 0.08 0.12 0.08 0.12 0.09 0.12 0.09 0.11 0.09 0.11 0.09 0.11 0.1 0.11 0.1 0.11 0.1 0.11 0.1 0.11 0.11 0.1 0.11 0.1 0.11 0.1 0.11 0.1 0.11 0.1 0.11 0.1 0.12 0.1 0.12 0.1 0.12 0.09 0.12 0.09 0.12 0.09 0.12 0.09 0.13 0.09 0 0zm2.2 1.89l-0.67 0.55 0 0 -0.05 -0.06 -0.05 -0.06 -0.05 -0.06 -0.05 -0.06 -0.06 -0.06 -0.06 -0.06 -0.06 -0.06 -0.06 -0.06 -0.06 -0.06 -0.06 -0.06 -0.06 -0.06 -0.06 -0.06 -0.06 -0.05 -0.06 -0.05 -0.06 -0.05 -0.07 -0.05 -0.07 -0.05 -0.07 -0.05 -0.07 -0.05 -0.07 -0.05 -0.07 -0.05 -0.07 -0.05 -0.07 -0.05 -0.07 -0.05 -0.07 -0.05 -0.07 -0.05 -0.07 -0.05 -0.07 -0.05 -0.14 -0.1 -0.14 -0.1 0.51 -0.7 0.14 0.1 0.14 0.1 0.07 0.05 0.07 0.05 0.07 0.05 0.07 0.05 0.07 0.05 0.07 0.05 0.07 0.05 0.07 0.05 0.07 0.06 0.07 0.06 0.07 0.06 0.07 0.06 0.07 0.06 0.07 0.06 0.07 0.06 0.07 0.06 0.07 0.06 0.07 0.06 0.07 0.06 0.07 0.06 0.07 0.06 0.07 0.07 0.06 0.07 0.06 0.07 0.06 0.07 0.06 0.07 0.06 0.07 0.06 0.07 0 0zm0.96 4.04l-0.87 -0.02 0 0 0 -0.13 0 -0.13 0 -0.13 0 -0.12 0 -0.12 0 -0.12 -0 -0.12 -0 -0.12 -0 -0.12 -0 -0.12 -0.01 -0.11 -0.01 -0.11 -0.01 -0.11 -0.01 -0.11 -0.01 -0.11 -0.02 -0.11 -0.02 -0.11 -0.02 -0.11 -0.02 -0.1 -0.03 -0.1 -0.03 -0.1 -0.03 -0.1 -0.04 -0.1 -0.04 -0.1 -0.04 -0.1 -0.05 -0.1 -0.05 -0.1 -0.05 -0.1 -0.06 -0.09 -0.06 -0.09 -0.07 -0.09 -0.07 -0.09 0.67 -0.55 0.09 0.12 0.09 0.12 0.08 0.12 0.08 0.12 0.07 0.12 0.07 0.12 0.06 0.12 0.06 0.12 0.05 0.13 0.05 0.13 0.04 0.13 0.04 0.13 0.03 0.13 0.03 0.13 0.03 0.13 0.02 0.13 0.02 0.13 0.02 0.13 0.01 0.13 0.01 0.13 0.01 0.13 0.01 0.13 0.01 0.13 0 0.13 0 0.13 0 0.13 -0 0.13 -0 0.13 -0 0.13 -0 0.13 -0 0.13 -0 0.13 0 0zm1.52 9.7l-0.79 0.35 0 0 -0.13 -0.3 -0.12 -0.3 -0.11 -0.3 -0.11 -0.31 -0.1 -0.31 -0.1 -0.31 -0.09 -0.31 -0.09 -0.31 -0.08 -0.31 -0.07 -0.31 -0.07 -0.31 -0.06 -0.32 -0.06 -0.32 -0.05 -0.32 -0.05 -0.32 -0.05 -0.32 -0.04 -0.32 -0.04 -0.32 -0.03 -0.32 -0.03 -0.32 -0.03 -0.32 -0.02 -0.32 -0.02 -0.32 -0.01 -0.32 -0.01 -0.32 -0.01 -0.32 -0.01 -0.32 -0 -0.32 -0 -0.32 0 -0.32 0 -0.32 0.01 -0.32 0.87 0.02 -0.01 0.31 -0 0.31 -0 0.31 0 0.31 0 0.31 0.01 0.31 0.01 0.31 0.01 0.31 0.01 0.31 0.02 0.31 0.02 0.31 0.02 0.31 0.03 0.31 0.03 0.31 0.04 0.31 0.04 0.31 0.04 0.31 0.05 0.3 0.05 0.3 0.06 0.3 0.06 0.3 0.07 0.3 0.07 0.3 0.08 0.3 0.08 0.3 0.09 0.29 0.09 0.29 0.1 0.29 0.1 0.29 0.11 0.29 0.11 0.29 0.12 0.28 0 0zm18.13 10.99l-0.12 0.86 0 0 -0.67 -0.1 -0.68 -0.12 -0.68 -0.13 -0.69 -0.14 -0.69 -0.16 -0.69 -0.17 -0.69 -0.19 -0.69 -0.21 -0.69 -0.22 -0.69 -0.24 -0.69 -0.25 -0.68 -0.27 -0.67 -0.29 -0.67 -0.3 -0.66 -0.32 -0.65 -0.34 -0.64 -0.36 -0.62 -0.37 -0.61 -0.39 -0.59 -0.41 -0.58 -0.43 -0.56 -0.45 -0.54 -0.47 -0.52 -0.49 -0.5 -0.51 -0.48 -0.53 -0.45 -0.55 -0.43 -0.57 -0.4 -0.59 -0.37 -0.61 -0.34 -0.64 -0.31 -0.66 0.79 -0.35 0.29 0.61 0.32 0.6 0.35 0.58 0.37 0.56 0.4 0.54 0.43 0.52 0.45 0.5 0.47 0.48 0.49 0.47 0.52 0.45 0.54 0.43 0.55 0.41 0.57 0.4 0.59 0.38 0.6 0.36 0.61 0.34 0.63 0.33 0.64 0.31 0.65 0.3 0.65 0.28 0.66 0.26 0.67 0.25 0.67 0.23 0.67 0.22 0.68 0.2 0.68 0.19 0.68 0.17 0.67 0.16 0.67 0.14 0.67 0.13 0.66 0.11 0.65 0.1 0 0zm21.55 -4.28l0.5 0.71 0 0 -0.59 0.4 -0.6 0.38 -0.62 0.36 -0.63 0.34 -0.64 0.32 -0.65 0.31 -0.66 0.29 -0.67 0.27 -0.68 0.25 -0.69 0.24 -0.69 0.22 -0.7 0.2 -0.71 0.19 -0.71 0.17 -0.72 0.15 -0.72 0.14 -0.72 0.12 -0.73 0.11 -0.73 0.09 -0.73 0.08 -0.73 0.06 -0.73 0.05 -0.73 0.03 -0.73 0.02 -0.72 0 -0.72 -0.01 -0.72 -0.02 -0.71 -0.04 -0.71 -0.05 -0.7 -0.06 -0.7 -0.08 -0.69 -0.09 0.12 -0.86 0.67 0.09 0.68 0.08 0.69 0.06 0.69 0.05 0.7 0.04 0.7 0.02 0.7 0.01 0.71 -0 0.71 -0.02 0.71 -0.03 0.71 -0.05 0.71 -0.06 0.71 -0.07 0.71 -0.09 0.71 -0.1 0.7 -0.12 0.7 -0.13 0.7 -0.15 0.69 -0.16 0.69 -0.18 0.68 -0.2 0.67 -0.21 0.67 -0.23 0.66 -0.25 0.65 -0.26 0.64 -0.28 0.63 -0.3 0.62 -0.31 0.61 -0.33 0.59 -0.35 0.58 -0.36 0.57 -0.38 0 0z"/>
   </g>
   <path class="fil2" d="M57.14 50.78c-1.21,2.49 -4.31,2.95 -6.55,1.56 -0.16,-0.1 -0.14,-0.1 -0.32,0 -2.27,1.43 -5.36,1 -6.55,-1.57 -0.13,-0.24 0.23,-0.46 0.38,-0.23 0.51,0.78 1.21,1.4 2.01,1.7 0.98,0.35 2.12,0.26 3.1,-0.24 1.06,-0.53 0.88,-2.45 0.95,-3.42l0.48 -0.03c0.08,1.19 -0.18,2.91 0.98,3.45 0.98,0.46 2.12,0.65 3.13,0.27 0.82,-0.31 1.5,-0.96 1.98,-1.74 0.15,-0.26 0.57,-0.02 0.41,0.25z"/>
   <g>
    <path class="fil2" d="M55.38 36.32c0,1.4 0.93,2.54 2.08,2.54 1.15,0 2.08,-1.14 2.08,-2.54 0,-1.4 -0.93,-2.54 -2.08,-2.54 -1.15,0 -2.08,1.14 -2.08,2.54z"/>
    <path id="_1_424" class="fil1" d="M57.46 38.72l0 0.29 0 0 -0.12 -0 -0.11 -0.01 -0.11 -0.02 -0.11 -0.02 -0.11 -0.03 -0.11 -0.04 -0.1 -0.04 -0.1 -0.05 -0.1 -0.05 -0.1 -0.06 -0.09 -0.07 -0.09 -0.07 -0.09 -0.08 -0.08 -0.08 -0.08 -0.09 -0.08 -0.09 -0.07 -0.09 -0.07 -0.1 -0.06 -0.1 -0.06 -0.11 -0.06 -0.11 -0.05 -0.11 -0.05 -0.12 -0.04 -0.12 -0.04 -0.12 -0.03 -0.12 -0.03 -0.13 -0.02 -0.13 -0.02 -0.13 -0.01 -0.13 -0.01 -0.14 -0 -0.14 0.29 0 0 0.12 0.01 0.12 0.01 0.12 0.02 0.12 0.02 0.12 0.03 0.12 0.03 0.11 0.04 0.11 0.04 0.11 0.04 0.1 0.05 0.1 0.05 0.1 0.05 0.09 0.06 0.09 0.06 0.09 0.06 0.08 0.07 0.08 0.07 0.08 0.07 0.07 0.08 0.07 0.08 0.06 0.08 0.06 0.08 0.05 0.09 0.05 0.09 0.04 0.09 0.04 0.09 0.03 0.09 0.03 0.09 0.02 0.1 0.01 0.1 0.01 0.1 0 0 0zm1.93 -2.4l0.29 0 0 0 -0 0.14 -0.01 0.14 -0.01 0.13 -0.02 0.13 -0.02 0.13 -0.03 0.13 -0.03 0.12 -0.04 0.12 -0.04 0.12 -0.05 0.12 -0.05 0.11 -0.06 0.11 -0.06 0.11 -0.07 0.1 -0.07 0.1 -0.07 0.09 -0.08 0.09 -0.08 0.09 -0.08 0.08 -0.09 0.08 -0.09 0.07 -0.09 0.07 -0.1 0.06 -0.1 0.05 -0.1 0.05 -0.1 0.04 -0.11 0.04 -0.11 0.03 -0.11 0.02 -0.11 0.02 -0.11 0.01 -0.12 0 0 -0.29 0.1 -0 0.1 -0.01 0.1 -0.01 0.09 -0.02 0.09 -0.03 0.09 -0.03 0.09 -0.04 0.09 -0.04 0.09 -0.05 0.08 -0.05 0.08 -0.06 0.08 -0.06 0.08 -0.07 0.07 -0.07 0.07 -0.07 0.07 -0.08 0.06 -0.08 0.06 -0.09 0.06 -0.09 0.05 -0.09 0.05 -0.1 0.05 -0.1 0.04 -0.1 0.04 -0.11 0.04 -0.11 0.03 -0.11 0.03 -0.12 0.02 -0.12 0.02 -0.12 0.01 -0.12 0.01 -0.12 0 -0.12 0 0zm-1.93 -2.4l0 -0.29 0 0 0.12 0 0.11 0.01 0.11 0.02 0.11 0.02 0.11 0.03 0.11 0.04 0.1 0.04 0.1 0.05 0.1 0.05 0.1 0.06 0.09 0.07 0.09 0.07 0.09 0.08 0.08 0.08 0.08 0.08 0.08 0.09 0.07 0.09 0.07 0.1 0.07 0.1 0.06 0.11 0.06 0.11 0.05 0.11 0.05 0.12 0.04 0.12 0.04 0.12 0.03 0.12 0.03 0.13 0.02 0.13 0.02 0.13 0.01 0.13 0.01 0.13 0 0.14 -0.29 0 -0 -0.12 -0.01 -0.12 -0.01 -0.12 -0.02 -0.12 -0.02 -0.12 -0.03 -0.11 -0.03 -0.11 -0.04 -0.11 -0.04 -0.11 -0.04 -0.1 -0.05 -0.1 -0.05 -0.1 -0.05 -0.09 -0.06 -0.09 -0.06 -0.09 -0.06 -0.08 -0.07 -0.08 -0.07 -0.07 -0.07 -0.07 -0.08 -0.07 -0.08 -0.06 -0.08 -0.06 -0.08 -0.05 -0.09 -0.05 -0.09 -0.04 -0.09 -0.04 -0.09 -0.03 -0.09 -0.03 -0.09 -0.02 -0.1 -0.01 -0.1 -0.01 -0.1 -0 0 0zm-1.93 2.4l-0.29 0 0 0 0 -0.14 0.01 -0.13 0.01 -0.13 0.02 -0.13 0.02 -0.13 0.03 -0.13 0.03 -0.12 0.04 -0.12 0.04 -0.12 0.05 -0.11 0.05 -0.11 0.06 -0.11 0.06 -0.11 0.06 -0.1 0.07 -0.1 0.07 -0.09 0.08 -0.09 0.08 -0.08 0.08 -0.08 0.09 -0.08 0.09 -0.07 0.09 -0.07 0.1 -0.06 0.1 -0.05 0.1 -0.05 0.1 -0.04 0.11 -0.04 0.11 -0.03 0.11 -0.02 0.11 -0.02 0.11 -0.01 0.12 -0 0 0.29 -0.1 0 -0.1 0.01 -0.1 0.01 -0.09 0.02 -0.09 0.03 -0.09 0.03 -0.09 0.04 -0.09 0.04 -0.08 0.05 -0.08 0.05 -0.08 0.06 -0.08 0.06 -0.08 0.07 -0.07 0.07 -0.07 0.07 -0.07 0.08 -0.06 0.08 -0.06 0.09 -0.06 0.09 -0.05 0.09 -0.05 0.1 -0.05 0.1 -0.04 0.1 -0.04 0.11 -0.04 0.11 -0.03 0.11 -0.03 0.11 -0.02 0.12 -0.02 0.12 -0.01 0.12 -0.01 0.12 -0 0.12 0 0z"/>
   </g>
   <g>
    <path class="fil2" d="M45.5 36.32c0,1.4 -0.93,2.54 -2.08,2.54 -1.15,-0 -2.08,-1.14 -2.08,-2.54 0,-1.41 0.93,-2.54 2.08,-2.54 1.15,0 2.08,1.14 2.08,2.54z"/>
    <path id="_1_425" class="fil1" d="M43.42 39.01l0 -0.29 0 0 0.1 -0 0.1 -0.01 0.1 -0.01 0.09 -0.02 0.09 -0.03 0.09 -0.03 0.09 -0.04 0.09 -0.04 0.09 -0.05 0.08 -0.05 0.08 -0.06 0.08 -0.06 0.08 -0.07 0.07 -0.07 0.07 -0.08 0.07 -0.08 0.06 -0.08 0.06 -0.09 0.06 -0.09 0.05 -0.09 0.05 -0.1 0.05 -0.1 0.04 -0.1 0.04 -0.11 0.04 -0.11 0.03 -0.11 0.03 -0.12 0.02 -0.12 0.02 -0.12 0.01 -0.12 0.01 -0.12 0 -0.12 0.29 0 -0 0.14 -0.01 0.13 -0.01 0.13 -0.02 0.13 -0.02 0.13 -0.03 0.13 -0.03 0.12 -0.04 0.12 -0.04 0.12 -0.05 0.12 -0.05 0.11 -0.06 0.11 -0.06 0.11 -0.06 0.1 -0.07 0.1 -0.07 0.09 -0.08 0.09 -0.08 0.09 -0.08 0.08 -0.09 0.08 -0.09 0.07 -0.09 0.07 -0.1 0.06 -0.1 0.05 -0.1 0.05 -0.1 0.04 -0.11 0.04 -0.11 0.03 -0.11 0.02 -0.11 0.02 -0.11 0.01 -0.12 0 0 0zm-2.23 -2.69l0.29 0 0 0 0 0.12 0.01 0.12 0.01 0.12 0.02 0.12 0.02 0.12 0.03 0.11 0.03 0.11 0.04 0.11 0.04 0.11 0.04 0.1 0.05 0.1 0.05 0.1 0.05 0.09 0.06 0.09 0.06 0.09 0.06 0.08 0.07 0.08 0.07 0.07 0.07 0.07 0.08 0.07 0.08 0.06 0.08 0.06 0.08 0.05 0.09 0.05 0.09 0.04 0.09 0.04 0.09 0.03 0.09 0.03 0.09 0.02 0.1 0.01 0.1 0.01 0.1 0 0 0.29 -0.12 -0 -0.11 -0.01 -0.11 -0.02 -0.11 -0.02 -0.11 -0.03 -0.11 -0.04 -0.1 -0.04 -0.1 -0.05 -0.1 -0.05 -0.1 -0.06 -0.09 -0.07 -0.09 -0.07 -0.09 -0.08 -0.08 -0.08 -0.08 -0.08 -0.08 -0.09 -0.07 -0.09 -0.07 -0.1 -0.07 -0.1 -0.06 -0.11 -0.06 -0.11 -0.05 -0.11 -0.05 -0.11 -0.04 -0.12 -0.04 -0.12 -0.03 -0.12 -0.03 -0.13 -0.02 -0.13 -0.02 -0.13 -0.01 -0.13 -0.01 -0.13 -0 -0.14 0 0zm2.23 -2.69l0 0.29 0 0 -0.1 0 -0.1 0.01 -0.1 0.01 -0.09 0.02 -0.09 0.03 -0.09 0.03 -0.09 0.04 -0.09 0.04 -0.09 0.05 -0.08 0.05 -0.08 0.06 -0.08 0.06 -0.08 0.07 -0.07 0.07 -0.07 0.07 -0.07 0.08 -0.06 0.08 -0.06 0.09 -0.06 0.09 -0.05 0.09 -0.05 0.1 -0.05 0.1 -0.04 0.1 -0.04 0.11 -0.04 0.11 -0.03 0.11 -0.03 0.12 -0.02 0.12 -0.02 0.12 -0.01 0.12 -0.01 0.12 -0 0.12 -0.29 0 0 -0.14 0.01 -0.14 0.01 -0.13 0.02 -0.13 0.02 -0.13 0.03 -0.13 0.03 -0.12 0.04 -0.12 0.04 -0.12 0.05 -0.12 0.05 -0.11 0.06 -0.11 0.06 -0.11 0.07 -0.1 0.07 -0.1 0.07 -0.09 0.08 -0.09 0.08 -0.08 0.08 -0.08 0.09 -0.08 0.09 -0.07 0.09 -0.07 0.1 -0.06 0.1 -0.05 0.1 -0.05 0.1 -0.04 0.11 -0.04 0.11 -0.03 0.11 -0.02 0.11 -0.02 0.11 -0.01 0.12 -0 0 0zm2.23 2.69l-0.29 0 0 0 -0 -0.12 -0.01 -0.12 -0.01 -0.12 -0.02 -0.12 -0.02 -0.12 -0.03 -0.11 -0.03 -0.11 -0.04 -0.11 -0.04 -0.11 -0.04 -0.1 -0.05 -0.1 -0.05 -0.1 -0.05 -0.09 -0.06 -0.09 -0.06 -0.09 -0.06 -0.08 -0.07 -0.08 -0.07 -0.07 -0.07 -0.07 -0.08 -0.07 -0.08 -0.06 -0.08 -0.06 -0.08 -0.05 -0.09 -0.05 -0.09 -0.04 -0.09 -0.04 -0.09 -0.03 -0.09 -0.03 -0.09 -0.02 -0.1 -0.01 -0.1 -0.01 -0.1 -0 0 -0.29 0.12 0 0.11 0.01 0.11 0.02 0.11 0.02 0.11 0.03 0.11 0.04 0.1 0.04 0.1 0.05 0.1 0.05 0.1 0.06 0.09 0.07 0.09 0.07 0.09 0.08 0.08 0.08 0.08 0.08 0.08 0.09 0.07 0.09 0.07 0.1 0.06 0.1 0.06 0.11 0.06 0.11 0.05 0.11 0.05 0.12 0.04 0.12 0.04 0.12 0.03 0.12 0.03 0.13 0.02 0.13 0.02 0.13 0.01 0.13 0.01 0.14 0 0.14 0 0z"/>
   </g>
   <g>
    <path class="fil2" d="M51.17 48.59c0.64,-0.33 1.58,-0.88 2.36,-1.53 0.38,-0.32 0.68,-0.72 0.78,-1.19 0.1,-0.43 0.06,-0.96 -0.42,-1.45 -0.55,-0.56 -1.36,-0.59 -2.12,-0.59 -0.88,0 -1.76,0.01 -2.65,0.01 -0.78,0 -1.52,-0 -2.13,0.53 -0.46,0.41 -0.58,1.03 -0.39,1.59 0.19,0.55 0.67,0.92 1.12,1.3 0.62,0.52 1.32,0.98 2.05,1.35 0.44,0.22 0.96,0.2 1.39,-0.03z"/>
    <path id="_1_426" class="fil1" d="M53.44 46.95l0.19 0.22 0 0 -0.07 0.06 -0.08 0.06 -0.08 0.06 -0.08 0.06 -0.08 0.06 -0.08 0.06 -0.08 0.06 -0.08 0.06 -0.08 0.06 -0.08 0.06 -0.08 0.05 -0.08 0.05 -0.08 0.05 -0.08 0.05 -0.08 0.05 -0.08 0.05 -0.08 0.05 -0.08 0.05 -0.08 0.05 -0.08 0.05 -0.08 0.05 -0.07 0.04 -0.07 0.04 -0.07 0.04 -0.07 0.04 -0.07 0.04 -0.07 0.04 -0.07 0.04 -0.07 0.04 -0.06 0.03 -0.06 0.03 -0.06 0.03 -0.13 -0.26 0.06 -0.03 0.06 -0.03 0.06 -0.03 0.07 -0.04 0.07 -0.04 0.07 -0.04 0.07 -0.04 0.07 -0.04 0.07 -0.04 0.07 -0.04 0.07 -0.04 0.07 -0.04 0.07 -0.05 0.08 -0.05 0.08 -0.05 0.08 -0.05 0.08 -0.05 0.08 -0.05 0.08 -0.05 0.08 -0.05 0.08 -0.05 0.08 -0.05 0.08 -0.05 0.08 -0.05 0.08 -0.06 0.08 -0.06 0.08 -0.06 0.08 -0.06 0.07 -0.06 0.07 -0.06 0.07 -0.06 0.07 -0.06 0 0zm0.73 -1.11l0.29 0.06 0 -0 -0.01 0.05 -0.01 0.05 -0.01 0.05 -0.01 0.05 -0.02 0.05 -0.02 0.04 -0.02 0.04 -0.02 0.04 -0.02 0.04 -0.02 0.04 -0.02 0.04 -0.02 0.04 -0.02 0.04 -0.02 0.04 -0.03 0.04 -0.03 0.04 -0.03 0.04 -0.03 0.04 -0.03 0.04 -0.03 0.04 -0.03 0.04 -0.03 0.04 -0.03 0.04 -0.03 0.04 -0.03 0.04 -0.03 0.04 -0.04 0.03 -0.03 0.03 -0.04 0.03 -0.04 0.03 -0.04 0.03 -0.04 0.03 -0.19 -0.22 0.03 -0.03 0.03 -0.03 0.03 -0.03 0.03 -0.03 0.03 -0.03 0.03 -0.03 0.03 -0.03 0.03 -0.03 0.03 -0.03 0.03 -0.03 0.03 -0.03 0.03 -0.03 0.03 -0.03 0.03 -0.03 0.02 -0.03 0.02 -0.03 0.02 -0.04 0.02 -0.04 0.02 -0.04 0.02 -0.04 0.02 -0.04 0.02 -0.04 0.02 -0.04 0.02 -0.04 0.02 -0.04 0.02 -0.04 0.01 -0.04 0.01 -0.04 0.01 -0.04 0.01 -0.04 0.01 -0.04 0.01 -0.04 0 -0zm-0.38 -1.31l0.21 -0.21 0 0 0.05 0.05 0.04 0.05 0.04 0.05 0.04 0.05 0.04 0.05 0.03 0.05 0.03 0.05 0.03 0.05 0.03 0.05 0.02 0.05 0.02 0.05 0.02 0.05 0.02 0.05 0.02 0.05 0.01 0.05 0.01 0.05 0.01 0.05 0.01 0.05 0.01 0.05 0.01 0.05 0 0.05 0 0.05 0 0.05 -0 0.05 -0 0.05 -0 0.05 -0 0.05 -0.01 0.05 -0.01 0.04 -0.01 0.05 -0.01 0.04 -0.01 0.04 -0.29 -0.06 0.01 -0.04 0.01 -0.04 0.01 -0.04 0.01 -0.04 0 -0.04 0 -0.04 0 -0.04 0 -0.04 0 -0.04 -0 -0.04 -0 -0.04 -0 -0.04 -0 -0.04 -0.01 -0.04 -0.01 -0.04 -0.01 -0.04 -0.01 -0.04 -0.01 -0.04 -0.01 -0.04 -0.01 -0.04 -0.02 -0.04 -0.02 -0.04 -0.02 -0.04 -0.02 -0.04 -0.02 -0.04 -0.03 -0.04 -0.03 -0.04 -0.03 -0.04 -0.03 -0.04 -0.04 -0.04 -0.04 -0.04 -0.04 -0.04 0 0zm-2.02 -0.54l-0 -0.29 0 0 0.07 0 0.07 0 0.07 0 0.07 0 0.07 0 0.07 0 0.07 0 0.07 0 0.07 0 0.07 0.01 0.07 0.01 0.07 0.01 0.07 0.01 0.07 0.01 0.07 0.01 0.07 0.01 0.07 0.02 0.07 0.02 0.07 0.02 0.07 0.02 0.07 0.02 0.07 0.03 0.07 0.03 0.07 0.03 0.07 0.03 0.07 0.04 0.06 0.04 0.06 0.04 0.06 0.05 0.06 0.05 0.06 0.05 0.06 0.06 -0.21 0.21 -0.05 -0.05 -0.05 -0.04 -0.05 -0.04 -0.05 -0.04 -0.05 -0.04 -0.05 -0.03 -0.06 -0.03 -0.06 -0.03 -0.06 -0.03 -0.06 -0.03 -0.06 -0.02 -0.06 -0.02 -0.06 -0.02 -0.06 -0.02 -0.06 -0.02 -0.06 -0.01 -0.07 -0.01 -0.07 -0.01 -0.07 -0.01 -0.07 -0.01 -0.07 -0.01 -0.07 -0.01 -0.07 -0.01 -0.07 -0 -0.07 -0 -0.07 -0 -0.07 -0 -0.07 -0 -0.07 -0 -0.07 -0 -0.07 0 -0.07 0 0 0zm-2.65 0.01l-0 -0.29 -0 0 0.17 -0 0.17 -0 0.17 -0 0.17 -0 0.17 -0 0.17 -0 0.17 -0 0.17 -0 0.17 -0 0.17 -0 0.17 -0 0.17 -0 0.17 -0 0.17 -0 0.17 -0 0.17 -0 0 0.29 -0.17 0 -0.17 0 -0.17 0 -0.17 0 -0.17 0 -0.17 0 -0.17 0 -0.17 0 -0.17 0 -0.17 0 -0.17 0 -0.17 0 -0.17 0 -0.17 0 -0.17 0 -0.17 0 -0 0zm0 0l0 0 -0 0 0 0zm-2.03 0.5l-0.19 -0.22 0 -0 0.06 -0.05 0.06 -0.05 0.06 -0.05 0.06 -0.04 0.06 -0.04 0.07 -0.04 0.07 -0.03 0.07 -0.03 0.07 -0.03 0.07 -0.03 0.07 -0.02 0.07 -0.02 0.07 -0.02 0.07 -0.02 0.07 -0.02 0.07 -0.01 0.07 -0.01 0.07 -0.01 0.07 -0.01 0.07 -0.01 0.07 -0.01 0.07 -0.01 0.07 -0 0.07 -0 0.07 -0 0.07 -0 0.07 -0 0.07 -0 0.15 -0 0.15 -0 0 0.29 -0.15 0 -0.14 0 -0.07 0 -0.07 0 -0.07 0 -0.07 0 -0.07 0 -0.07 0 -0.07 0.01 -0.07 0.01 -0.07 0.01 -0.07 0.01 -0.06 0.01 -0.06 0.01 -0.06 0.01 -0.06 0.01 -0.06 0.02 -0.06 0.02 -0.06 0.02 -0.06 0.02 -0.06 0.02 -0.06 0.02 -0.06 0.03 -0.06 0.03 -0.06 0.03 -0.06 0.03 -0.06 0.04 -0.05 0.04 -0.05 0.04 -0.05 0.05 0 -0zm-0.19 -0.22l0 -0 0.15 -0.13 -0.15 0.13zm-0.15 1.65l-0.28 0.1 0 -0 -0.02 -0.06 -0.02 -0.06 -0.02 -0.06 -0.01 -0.06 -0.01 -0.06 -0.01 -0.06 -0.01 -0.06 -0 -0.06 -0 -0.06 -0 -0.06 0 -0.06 0 -0.06 0.01 -0.06 0.01 -0.06 0.01 -0.06 0.01 -0.06 0.01 -0.06 0.02 -0.06 0.02 -0.06 0.02 -0.06 0.02 -0.05 0.03 -0.05 0.03 -0.05 0.03 -0.05 0.03 -0.05 0.03 -0.05 0.04 -0.05 0.04 -0.05 0.04 -0.05 0.04 -0.05 0.04 -0.04 0.05 -0.04 0.19 0.22 -0.04 0.04 -0.04 0.04 -0.04 0.04 -0.03 0.04 -0.03 0.04 -0.03 0.04 -0.03 0.04 -0.03 0.04 -0.02 0.04 -0.02 0.04 -0.02 0.04 -0.02 0.04 -0.02 0.04 -0.02 0.05 -0.01 0.05 -0.01 0.05 -0.01 0.05 -0.01 0.05 -0.01 0.05 -0 0.05 -0 0.05 -0 0.05 0 0.05 0 0.05 0 0.05 0.01 0.05 0.01 0.05 0.01 0.05 0.01 0.05 0.01 0.05 0.01 0.05 0.02 0.05 0 -0zm1.07 1.23l-0.19 0.23 0 -0 -0.08 -0.07 -0.09 -0.07 -0.04 -0.04 -0.04 -0.04 -0.04 -0.04 -0.04 -0.04 -0.04 -0.04 -0.04 -0.04 -0.04 -0.04 -0.04 -0.04 -0.04 -0.04 -0.04 -0.04 -0.04 -0.04 -0.04 -0.04 -0.04 -0.04 -0.04 -0.04 -0.04 -0.04 -0.04 -0.04 -0.04 -0.04 -0.03 -0.05 -0.03 -0.05 -0.03 -0.05 -0.03 -0.05 -0.03 -0.05 -0.03 -0.05 -0.03 -0.05 -0.03 -0.05 -0.02 -0.05 -0.02 -0.05 -0.02 -0.06 0.28 -0.1 0.02 0.05 0.02 0.05 0.02 0.05 0.02 0.04 0.02 0.04 0.02 0.04 0.03 0.04 0.03 0.04 0.03 0.04 0.03 0.04 0.03 0.04 0.03 0.04 0.03 0.04 0.03 0.04 0.03 0.04 0.04 0.04 0.04 0.04 0.04 0.04 0.04 0.04 0.04 0.04 0.04 0.04 0.04 0.04 0.04 0.04 0.04 0.04 0.04 0.04 0.04 0.04 0.04 0.04 0.04 0.03 0.08 0.07 0.08 0.07 0 -0zm2.02 1.34l-0.13 0.26 0 0 -0.07 -0.04 -0.07 -0.04 -0.07 -0.04 -0.07 -0.04 -0.07 -0.04 -0.07 -0.04 -0.07 -0.04 -0.07 -0.04 -0.07 -0.04 -0.07 -0.04 -0.07 -0.04 -0.07 -0.04 -0.07 -0.04 -0.07 -0.04 -0.07 -0.04 -0.06 -0.04 -0.07 -0.04 -0.06 -0.04 -0.06 -0.04 -0.06 -0.04 -0.06 -0.04 -0.06 -0.05 -0.06 -0.05 -0.06 -0.05 -0.06 -0.05 -0.06 -0.05 -0.06 -0.05 -0.06 -0.05 -0.06 -0.05 -0.06 -0.05 -0.06 -0.05 -0.06 -0.05 0.19 -0.23 0.06 0.05 0.06 0.05 0.06 0.05 0.06 0.05 0.06 0.05 0.06 0.05 0.06 0.05 0.06 0.05 0.06 0.05 0.06 0.04 0.06 0.04 0.06 0.04 0.06 0.04 0.06 0.04 0.06 0.04 0.06 0.04 0.06 0.04 0.06 0.04 0.06 0.04 0.06 0.04 0.06 0.04 0.07 0.04 0.07 0.04 0.07 0.04 0.07 0.04 0.07 0.04 0.07 0.04 0.07 0.04 0.07 0.04 0.07 0.04 0.07 0.04 0.07 0.03 0 0zm1.26 -0.03l0.13 0.26 0 0 -0.04 0.02 -0.04 0.02 -0.05 0.02 -0.05 0.02 -0.05 0.02 -0.05 0.02 -0.05 0.01 -0.05 0.01 -0.05 0.01 -0.05 0.01 -0.05 0.01 -0.05 0.01 -0.05 0.01 -0.05 0.01 -0.05 0 -0.05 0 -0.05 0 -0.05 -0 -0.05 -0 -0.05 -0 -0.05 -0.01 -0.05 -0.01 -0.05 -0.01 -0.05 -0.01 -0.05 -0.01 -0.05 -0.01 -0.05 -0.01 -0.05 -0.02 -0.05 -0.02 -0.05 -0.02 -0.05 -0.02 -0.05 -0.02 0.13 -0.26 0.04 0.02 0.04 0.02 0.04 0.02 0.04 0.01 0.04 0.01 0.04 0.01 0.04 0.01 0.04 0.01 0.04 0.01 0.04 0.01 0.04 0.01 0.04 0 0.04 0 0.04 0 0.04 0 0.04 -0 0.04 -0 0.04 -0 0.04 -0 0.04 -0.01 0.04 -0.01 0.04 -0.01 0.04 -0.01 0.04 -0.01 0.04 -0.01 0.04 -0.01 0.04 -0.01 0.04 -0.01 0.04 -0.02 0.04 -0.02 0.04 -0.02 0.04 -0.02 0 0z"/>
   </g>
   <path class="fil3 str0" d="M0.17 32.27c-0.18,-1.3 0.14,-2.38 0.98,-3.25 0.98,-1.03 2.75,-1.72 5.3,-2.07 2.55,-0.35 4.44,-0.17 5.68,0.56 1.02,0.6 1.62,1.55 1.8,2.85 0.18,1.31 -0.18,2.43 -1.07,3.37 -0.9,0.94 -2.64,1.59 -5.22,1.95 -2.54,0.35 -4.43,0.16 -5.67,-0.56 -1.02,-0.6 -1.62,-1.55 -1.8,-2.85zm2.14 -0.3c0.04,0.31 0.18,0.57 0.41,0.78 0.23,0.21 0.61,0.35 1.15,0.41 0.69,0.08 1.83,0.01 3.41,-0.21 1.58,-0.22 2.66,-0.45 3.23,-0.69 0.57,-0.24 0.94,-0.49 1.1,-0.75 0.16,-0.27 0.22,-0.55 0.18,-0.86 -0.04,-0.31 -0.18,-0.57 -0.41,-0.78 -0.23,-0.21 -0.61,-0.35 -1.15,-0.41 -0.68,-0.08 -1.82,-0.02 -3.4,0.2 -1.58,0.22 -2.66,0.45 -3.23,0.69 -0.57,0.24 -0.94,0.49 -1.1,0.76 -0.17,0.26 -0.23,0.55 -0.19,0.86zm13.12 -10.27l-0.8 2.47 -9.35 -3.02c0.56,1.18 0.84,2.44 0.85,3.8l-2.25 -0.73c-0,-0.71 -0.18,-1.54 -0.52,-2.49 -0.34,-0.95 -0.87,-1.69 -1.56,-2.22l0.65 -2.01 12.99 4.19zm-6.49 -13.54c0.89,-0.97 1.93,-1.4 3.13,-1.31 1.42,0.11 3.07,1.03 4.97,2.78 1.89,1.75 2.95,3.33 3.17,4.74 0.18,1.17 -0.17,2.24 -1.06,3.2 -0.9,0.97 -1.99,1.41 -3.29,1.31 -1.3,-0.1 -2.9,-1.03 -4.82,-2.8 -1.88,-1.74 -2.93,-3.32 -3.16,-4.73 -0.18,-1.17 0.17,-2.24 1.06,-3.2zm1.59 1.46c-0.21,0.23 -0.32,0.5 -0.34,0.82 -0.02,0.31 0.12,0.7 0.41,1.15 0.38,0.58 1.15,1.42 2.32,2.5 1.18,1.08 2.03,1.77 2.58,2.06 0.54,0.29 0.97,0.41 1.28,0.37 0.31,-0.04 0.57,-0.18 0.78,-0.41 0.21,-0.23 0.32,-0.5 0.34,-0.81 0.02,-0.31 -0.12,-0.7 -0.41,-1.15 -0.37,-0.58 -1.14,-1.42 -2.32,-2.5 -1.17,-1.08 -2.03,-1.77 -2.58,-2.06 -0.55,-0.29 -0.97,-0.41 -1.29,-0.37 -0.31,0.04 -0.57,0.17 -0.78,0.4zm16.69 3.15l-2.4 0.99 -3.75 -9.08c-0.54,1.18 -1.32,2.22 -2.35,3.11l-0.9 -2.19c0.54,-0.46 1.06,-1.13 1.56,-2.01 0.5,-0.88 0.73,-1.75 0.69,-2.63l1.95 -0.81 5.21 12.62z"/>
   <path class="fil3 str0" d="M78.4 14.25l-2.46 -0.84 3.19 -9.29c-1.19,0.54 -2.46,0.8 -3.82,0.78l0.77 -2.24c0.71,0.01 1.55,-0.15 2.5,-0.48 0.95,-0.33 1.7,-0.84 2.25,-1.52l2 0.68 -4.43 12.91zm13.54 -6c0.94,0.92 1.34,1.98 1.21,3.17 -0.15,1.41 -1.13,3.04 -2.94,4.88 -1.8,1.83 -3.42,2.84 -4.84,3.02 -1.18,0.15 -2.23,-0.24 -3.17,-1.17 -0.94,-0.92 -1.34,-2.03 -1.21,-3.33 0.14,-1.29 1.12,-2.87 2.96,-4.73 1.8,-1.83 3.41,-2.83 4.83,-3.01 1.18,-0.15 2.23,0.24 3.17,1.16zm-1.52 1.54c-0.22,-0.22 -0.49,-0.34 -0.8,-0.36 -0.31,-0.03 -0.7,0.09 -1.16,0.37 -0.6,0.36 -1.46,1.1 -2.58,2.24 -1.12,1.14 -1.83,1.98 -2.14,2.51 -0.31,0.54 -0.44,0.96 -0.41,1.27 0.03,0.31 0.16,0.57 0.38,0.79 0.22,0.22 0.49,0.34 0.81,0.37 0.31,0.03 0.7,-0.1 1.16,-0.38 0.59,-0.35 1.45,-1.1 2.57,-2.24 1.12,-1.14 1.83,-1.97 2.14,-2.51 0.31,-0.54 0.45,-0.96 0.41,-1.27 -0.03,-0.31 -0.15,-0.58 -0.38,-0.79zm-3.54 16.1l-0.92 -2.43 9.19 -3.49c-1.17,-0.57 -2.18,-1.38 -3.04,-2.44l2.21 -0.84c0.45,0.56 1.1,1.09 1.96,1.62 0.86,0.53 1.73,0.78 2.61,0.76l0.75 1.97 -12.76 4.84zm13.39 6.13c-0.11,1.31 -0.66,2.3 -1.65,2.96 -1.18,0.79 -3.06,1.08 -5.63,0.88 -2.56,-0.21 -4.38,-0.8 -5.43,-1.77 -0.87,-0.81 -1.25,-1.87 -1.14,-3.18 0.11,-1.32 0.7,-2.34 1.78,-3.06 1.08,-0.72 2.92,-0.98 5.52,-0.77 2.55,0.21 4.36,0.8 5.41,1.77 0.87,0.81 1.25,1.87 1.14,3.17zm-2.15 -0.17c0.02,-0.31 -0.05,-0.59 -0.24,-0.85 -0.18,-0.26 -0.52,-0.48 -1.03,-0.65 -0.66,-0.23 -1.78,-0.41 -3.37,-0.54 -1.59,-0.13 -2.69,-0.14 -3.3,-0.03 -0.61,0.11 -1.02,0.28 -1.24,0.5 -0.22,0.22 -0.34,0.49 -0.36,0.8 -0.02,0.31 0.05,0.59 0.24,0.85 0.18,0.26 0.52,0.47 1.03,0.65 0.65,0.23 1.77,0.41 3.37,0.54 1.59,0.13 2.69,0.14 3.3,0.03 0.61,-0.11 1.02,-0.27 1.24,-0.5 0.22,-0.22 0.34,-0.49 0.37,-0.8z"/>
  </g>
 </g>
</svg>
