<?xml version="1.0" encoding="UTF-8"?>
<!DOCTYPE svg PUBLIC "-//W3C//DTD SVG 1.1//EN" "http://www.w3.org/Graphics/SVG/1.1/DTD/svg11.dtd">
<!-- Creator: CorelDRAW -->
<svg xmlns="http://www.w3.org/2000/svg" xml:space="preserve" width="125.906mm" height="126.606mm" version="1.1" style="shape-rendering:geometricPrecision; text-rendering:geometricPrecision; image-rendering:optimizeQuality; fill-rule:evenodd; clip-rule:evenodd"
viewBox="0 0 62120 62465.3"
 xmlns:xlink="http://www.w3.org/1999/xlink"
 xmlns:xodm="http://www.corel.com/coreldraw/odm/2003">
 <defs>
  <style type="text/css">
   <![CDATA[
    .fil2 {fill:none}
    .fil0 {fill:#2B97D4}
    .fil3 {fill:#C3E394}
    .fil4 {fill:#FEFEFE;fill-rule:nonzero}
    .fil1 {fill:#50B7F2;fill-rule:nonzero}
   ]]>
  </style>
    <clipPath id="id0">
     <path d="M31059.9 2050.2l0 0c15955.4,0 29009.7,13054.3 29009.7,29009.7l0 345.5c0,15955.4 -13054.4,29009.7 -29009.7,29009.7l-0 0c-15955.4,0 -29009.6,-13054.4 -29009.6,-29009.7l0 -345.5c0,-15955.4 13054.3,-29009.7 29009.6,-29009.7z"/>
    </clipPath>
 </defs>
 <g id="Слой_x0020_1">
  <metadata id="CorelCorpID_0Corel-Layer"/>
  <g id="_2122124654624">
   <path class="fil0" d="M31059.9 2050.2l0 0c15955.4,0 29009.7,13054.3 29009.7,29009.7l0 345.5c0,15955.4 -13054.4,29009.7 -29009.7,29009.7l-0 0c-15955.4,0 -29009.6,-13054.4 -29009.6,-29009.7l0 -345.5c0,-15955.4 13054.3,-29009.7 29009.6,-29009.7z"/>
   <g style="clip-path:url(#id0)">
    <g>
     <path id="_1" class="fil1" d="M9383.8 10778.9c-528.8,0 -988.1,136.3 -1376,399.2 -407.2,276.1 -752.2,696.6 -1032,1250.6l0.8 0.4c-298.5,644.4 -525.6,1461.7 -679.8,2487.7 -157.7,1049.5 -237.3,2311.8 -237.3,3823.2 0,1463.9 79.7,2727 237.7,3777.2 153.3,1018.8 378,1829.4 672.7,2420.1l-1.8 0.8c281.2,561.2 628.7,986.8 1039.8,1265.4 387.9,262.8 847.1,399.2 1375.9,399.2 527.5,0 983.5,-135.6 1369.4,-397.1 409.8,-277.6 758.5,-705.8 1046.8,-1272.8 294.1,-590.7 518.6,-1400.3 672,-2417 158.3,-1049.9 238.3,-2312.5 238.3,-3775.6 0,-1511.4 -79.9,-2773.7 -238.2,-3823.2 -154.3,-1023.4 -381.1,-1839.2 -679,-2483.1 -285.8,-558.3 -632.2,-981.4 -1039.8,-1257.6 -386,-261.5 -842,-397.2 -1369.5,-397.2zm0 -3436.9c1222.7,0 2325.6,269 3282.3,780.5 972.3,519.7 1783.4,1285.9 2406.2,2270.5l4.5 9c603.4,996.5 1076.4,2169.4 1396.5,3556.5 316.7,1372.3 485.8,2953.8 485.8,4781.5 0,1748.5 -164,3308.8 -471.4,4667.6 -318.6,1408.5 -793.5,2599.2 -1401.9,3558.4 -624.9,1097.1 -1437.8,1866.8 -2411.4,2363.8 -960.6,490.2 -2065.6,708.1 -3290.7,708.1 -1227.5,0 -2329.3,-218.6 -3291.3,-710.4 -972.1,-497 -1783.6,-1264 -2417.2,-2355.1 -604.7,-960.4 -1078.8,-2155.6 -1397.3,-3571.5 -305.3,-1357.6 -469,-2915.6 -469,-4661 0,-1827.6 169.4,-3409.2 484.9,-4781.5 319,-1387.8 788.7,-2559.9 1384.8,-3554.3l9 -15.7c634.4,-984.6 1446.9,-1750.5 2420.5,-2269.9 953.8,-508.9 2051.2,-776.6 3275.7,-776.6z"/>
     <polygon class="fil1" points="27860.5,8315.3 27860.5,29740.3 23938.7,29740.3 23938.7,12419.2 19415.5,15182.1 17741.3,11977.4 24682.8,7739.2 27860.5,7739.2 "/>
     <path class="fil1" d="M39326.9 10778.9c-529,0 -988.3,136.3 -1376,399.2 -408.6,277.1 -754.9,703.2 -1036.3,1266.7l-0.6 -0.3c-300.8,641.1 -526.1,1452.8 -678.1,2469.9 -156.7,1049.1 -233.9,2312.2 -233.9,3825.5 0,1472.7 78.2,2742.2 237.1,3796 152.1,1008.7 375.8,1811.6 673.2,2396.7l2.2 4.5c281.4,563.3 627.7,989.1 1036.4,1266.2 387.7,262.8 846.9,399.2 1375.9,399.2 529.6,0 989.3,-136.4 1377.1,-399.2 408.9,-277.1 755.5,-703 1036.8,-1266.2l2.2 -2.2c296.8,-584.6 520.4,-1388.3 672.8,-2399.3 158.8,-1053.7 237,-2323.1 237,-3795.7 0,-1513.4 -77.1,-2776.5 -233.9,-3825.5 -151.9,-1017.2 -376.9,-1828.9 -677.5,-2469.9l-0.6 0.3c-281.4,-563.5 -627.9,-989.6 -1036.8,-1266.7 -387.9,-262.9 -847.6,-399.2 -1377.2,-399.2zm0 -3436.9c1226.6,0 2327.9,268.3 3283.5,778.2 972.8,518.9 1783.9,1285.1 2412.7,2270.6l9 13.5c596.9,994.3 1066.7,2166.4 1385.7,3554.3 315.3,1372.4 484.5,2953.9 484.5,4781.5 0,1746.2 -163.6,3304.7 -469.1,4662.7 -320.7,1425.5 -798.2,2626.2 -1407.8,3588l-1.3 -0.8c-628,1084.7 -1435.2,1846.9 -2400.9,2339.9 -960.4,490.2 -2065.1,708.1 -3296.3,708.1 -1230.2,0 -2334.7,-217.9 -3295,-708.1 -965.9,-493.2 -1773.9,-1255.9 -2403,-2341.6 -610,-962.9 -1087.8,-2163.7 -1408.1,-3587.8 -305.4,-1357.4 -469.2,-2915.3 -469.2,-4660.5 0,-1827.6 169.6,-3409.2 485.1,-4781.5 319.2,-1387.8 789,-2559.9 1385,-3554.3l9 -13.5c629.7,-985.5 1441.4,-1751.8 2413.9,-2270.7 955.7,-509.8 2056.6,-778.1 3282.2,-778.1z"/>
     <polygon class="fil1" points="57639.4,8315.3 57639.4,29740.3 53717.7,29740.3 53717.7,12419.1 49193.9,15182 47519.7,11977.4 54461.1,7739.2 57639.4,7739.2 "/>
     <polygon class="fil1" points="10905.3,33447.6 10905.3,54872.6 6983.6,54872.6 6983.6,37551.4 2459.8,40314.3 785.7,37109.1 7727.7,32871.5 10905.3,32871.5 "/>
     <path class="fil1" d="M22371.2 35911.2c-528.8,0 -988.1,136.4 -1375.9,399.3 -408.5,277 -754.8,702.9 -1035.9,1266.1l-0.6 -0.3c-300.8,641.1 -526,1453 -678,2470.1 -156.8,1049.2 -233.9,2312.3 -233.9,3825.4 0,1472.8 78.2,2742.4 237.1,3796.3 152.1,1008.7 375.8,1811.5 673.2,2396.4l2.2 4.5c281.1,563.5 627.4,989.4 1035.8,1266.5 387.8,263 847.1,399.4 1376,399.4 529.8,0 989.4,-136.3 1377.3,-399.2 408.8,-277.1 755.2,-703.1 1036.7,-1266.7l2.2 -4.5c297.4,-584.9 521.1,-1387.7 673.2,-2396.4 159,-1053.9 237.1,-2323.6 237.1,-3796.3 0,-1513.1 -77.1,-2776.2 -233.9,-3825.4 -152,-1017.2 -377.2,-1829.1 -678,-2470.2l-0.6 0.3c-281.4,-563.3 -627.8,-989.2 -1036.8,-1266.3 -387.8,-262.8 -847.4,-399.1 -1377.2,-399.1zm0 -3437c1226.6,0 2328,268.2 3283.9,778.1 972.6,518.9 1783.7,1285 2412.3,2270.7l9 13.5c597.2,994 1066.9,2166 1385.9,3553.8 315.3,1372.4 484.3,2953.9 484.3,4781.4 0,1746.5 -163.6,3305.5 -469.1,4663.8 -320.6,1425.3 -798.1,2625.8 -1407.8,3587.5l-1.3 -0.8c-626.7,1082.2 -1434,1843.7 -2400.9,2337.4l0 2.3c-960.3,490.3 -2065.1,708.3 -3296.3,708.3 -1227.4,0 -2331.4,-218.8 -3294.7,-710.6 -967.1,-493.9 -1774.9,-1256 -2402.8,-2339.1 -610.1,-962.7 -1087.8,-2163.3 -1408.1,-3587.2 -305.5,-1357.7 -469.2,-2916 -469.2,-4661.6 0,-1827.6 169.4,-3409.1 484.9,-4781.4 319.1,-1387.8 788.9,-2559.7 1385.2,-3553.8l8.9 -13.5c629.7,-985.8 1441.2,-1752 2413.4,-2270.8 955.6,-509.9 2056.5,-778.1 3282.2,-778.1z"/>
     <polygon class="fil1" points="40684.3,33447.6 40684.3,54872.6 36762,54872.6 36762,37551.5 32238.7,40314.3 30564.5,37109.1 37506,32871.5 40684.3,32871.5 "/>
     <path class="fil1" d="M51869 35911.2c-528.8,0 -988.1,136.4 -1375.9,399.2 -408.7,277.1 -755.1,702.9 -1036.5,1266.1l-0.6 -0.3c-300.8,641.1 -526,1453 -678,2470.1 -156.7,1049.2 -233.9,2312.3 -233.9,3825.4 0,1472.8 78.2,2742.4 237.1,3796.3 152.1,1008.7 375.8,1811.5 673.2,2396.4l2.3 4.5c281.4,563.4 627.7,989.4 1036.4,1266.5 387.9,263 847.1,399.4 1376,399.4 529.8,0 989.4,-136.3 1377.2,-399.2 408.9,-277.1 755.3,-703.1 1036.7,-1266.7l2.2 -4.5c297.4,-584.9 521.1,-1387.7 673.2,-2396.4 158.9,-1053.9 237.1,-2323.6 237.1,-3796.3 0,-1513.1 -77.1,-2776.2 -233.9,-3825.4 -152,-1017.2 -377.1,-1829.1 -678,-2470.2l-0.6 0.3c-281.4,-563.3 -627.9,-989.3 -1036.8,-1266.3 -387.7,-262.8 -847.3,-399.1 -1377.1,-399.1zm0 -3437c1226.6,0 2328.1,268.2 3283.8,778.1 972.6,518.9 1783.7,1285.1 2412.4,2270.7l9 13.5c596.9,994 1066.7,2166 1385.7,3553.8 315.4,1372.4 484.5,2953.9 484.5,4781.4 0,1746.2 -163.6,3305 -469.1,4663 -320.7,1425.6 -798.2,2626.4 -1407.8,3588.2l-1.3 -0.8c-626.8,1082.2 -1434.1,1843.8 -2400.9,2337.4l0 2.3c-960.3,490.3 -2065.1,708.3 -3296.2,708.3 -1230.3,0 -2334.7,-218 -3295,-708.3l0 -2.3c-967.2,-493.8 -1775.3,-1255.9 -2403.1,-2339.1 -610,-962.9 -1087.8,-2163.7 -1408.1,-3587.9 -305.4,-1357.5 -469.2,-2915.5 -469.2,-4660.8 0,-1827.6 169.5,-3409.1 485.1,-4781.4 319.2,-1387.7 788.9,-2559.7 1385,-3553.8l9 -13.5c629.6,-985.7 1441.2,-1751.9 2413.6,-2270.7 955.7,-509.9 2056.8,-778.1 3282.6,-778.1z"/>
    </g>
   </g>
   <path class="fil2" d="M31059.9 2050.2l0 0c15955.4,0 29009.7,13054.3 29009.7,29009.7l0 345.5c0,15955.4 -13054.4,29009.7 -29009.7,29009.7l-0 0c-15955.4,0 -29009.6,-13054.4 -29009.6,-29009.7l0 -345.5c0,-15955.4 13054.3,-29009.7 29009.6,-29009.7z"/>
   <path class="fil3" d="M31060 0c8543.7,0 16309.2,3493.7 21937.8,9122.3 5628.6,5628.6 9122.2,13394.1 9122.2,21937.7l0 345.5c0,8543.6 -3493.6,16309.1 -9122.2,21937.7 -5628.6,5628.5 -13394.1,9122.2 -21937.8,9122.2 -8543.7,0 -16309.2,-3493.7 -21937.8,-9122.2 -5628.6,-5628.6 -9122.2,-13394.1 -9122.2,-21937.7l0 -345.5c0,-8543.6 3493.7,-16309.2 9122.3,-21937.7 5628.5,-5628.6 13394.1,-9122.3 21937.7,-9122.3zm0 2050.3c15955.4,0 29009.7,13054.3 29009.7,29009.7l0 345.5c0,15955.4 -13054.3,29009.6 -29009.7,29009.6 -15955.4,0 -29009.7,-13054.2 -29009.7,-29009.6l0 -345.5c0,-15955.4 13054.3,-29009.7 29009.7,-29009.7z"/>
   <path class="fil4" d="M14511.4 21001.2c-511,-406.5 -809.1,-981.5 -877.6,-1582.4 -68.5,-600.4 91.9,-1226.9 497.3,-1737.6l1.7 -2.2c406.1,-510.6 980.7,-808.4 1581.3,-876.9 600,-68.5 1226.4,91.6 1737,496.8 752.8,309.9 9885.4,7834 11344.7,8990.6l0 -19220.5c0,-654 265,-1246 693.6,-1674.6 428.6,-428.6 1020.7,-693.7 1674.6,-693.7 309.1,0 606.3,60.3 880,169.8 279.5,111.9 532.6,275.4 746.9,478.5l15143.6 11951.6c511.5,404 810.9,976.9 881.2,1576.3 70.2,598.1 -88.5,1224 -492.5,1735.6 -41.9,52.9 -84.7,102.8 -128.2,149.3l19.5 21.3 -13255.1 10391.1 12984 10290.2 0 1 0.5 -0.6c510.9,406.1 808.8,980.8 877.4,1581.4 68.6,600.6 -92.1,1227.7 -497.8,1738.6l-1 0 0.6 0.5c-75.4,94.9 -157,182.7 -243.5,262.9 -83.3,77.3 -174.1,149.5 -270.9,216l-15183.6 11982.7c-511.4,404 -1137,562.7 -1734.8,492.5 -599.1,-70.3 -1171.9,-369.6 -1576.2,-881.2l-0.4 -0.4c-167.8,-212.4 -293.4,-445.3 -377.7,-688.2 -49.3,-142.1 -84.6,-286.7 -106.1,-431.7l-34 0 0 -19731.9 -11696 9168.1c-1.6,1.3 -9.2,9.1 -10.3,7.9 -512.2,395.8 -1135.2,548.7 -1729.7,475.7 -598.6,-73.6 -1169.8,-376.3 -1571.6,-890.4 -1.4,-1.6 -9.2,-9.3 -7.8,-10.3 -396.2,-512.3 -549.3,-1135.5 -476.2,-1730.2 73.6,-598.5 376.2,-1169.7 890.4,-1571.5l13134.6 -10296.4 -12817.7 -10157.8zm28155.9 22312.5l-9135.1 -7239.2 0 14448.5 9135.1 -7209.3zm-9135.1 -31371.6l0 14354.4 9124.9 -7153.3 -9124.9 -7201.2z"/>
  </g>
 </g>
</svg>
