<svg xmlns="http://www.w3.org/2000/svg" viewBox="0 0 19.65 19.84"><defs><style>.cls-1{fill:#409baa;}.cls-2,.cls-4,.cls-5,.cls-6,.cls-7{fill:none;}.cls-2{stroke:#4bab98;}.cls-2,.cls-4,.cls-5{stroke-miterlimit:10;}.cls-2,.cls-4{stroke-width:0.07px;}.cls-3{fill:#fff;}.cls-4,.cls-7{stroke:#fff;}.cls-5,.cls-6{stroke:#409baa;}.cls-5{stroke-width:0.33px;}.cls-6,.cls-7{stroke-linecap:round;stroke-linejoin:round;}.cls-6{stroke-width:0.95px;}.cls-7{stroke-width:0.95px;}</style></defs><g id="Слой_2" data-name="Слой 2"><g id="Слой_1-2" data-name="Слой 1"><path class="cls-1" d="M1.38.28A2.91,2.91,0,0,1,2,.05,8,8,0,0,1,3.33,0c1,0,1,0,1.18.1a1.12,1.12,0,0,1,.26.22,1.2,1.2,0,0,1,.16.32.65.65,0,0,1,0,.39,1.28,1.28,0,0,1-.17.33,1,1,0,0,1-.27.23c-.15.07-.24.09-1.21.1a3.59,3.59,0,0,0-1.16.1A.45.45,0,0,0,1.91,2l-.14.2A4.85,4.85,0,0,0,1.7,3.31c0,1,0,1.07-.11,1.22a.85.85,0,0,1-.23.27A1.22,1.22,0,0,1,1,5,.62.62,0,0,1,.66,5a1.2,1.2,0,0,1-.32-.17,1.47,1.47,0,0,1-.23-.26C0,4.38,0,4.31,0,3.42a7,7,0,0,1,0-1.32,2.68,2.68,0,0,1,.22-.73A2.55,2.55,0,0,1,.74.74,2.22,2.22,0,0,1,1.38.28Z"/><path class="cls-1" d="M7.64.22A1.17,1.17,0,0,1,7.93.05,12.67,12.67,0,0,1,9.81,0a12.57,12.57,0,0,1,1.88.05.65.65,0,0,1,.34.2,1.1,1.1,0,0,1,.18.28.94.94,0,0,1,.07.34.88.88,0,0,1-.07.33,1.13,1.13,0,0,1-.22.28,1,1,0,0,1-.3.19c-.1,0-.85,0-1.86,0s-1.77,0-1.86,0a1.18,1.18,0,0,1-.31-.19,1.08,1.08,0,0,1-.21-.28A.82.82,0,0,1,7.37.85.83.83,0,0,1,7.45.49,2.61,2.61,0,0,1,7.64.22Z"/><path class="cls-1" d="M15.1.12,15.34,0a9.56,9.56,0,0,1,1,0,8.8,8.8,0,0,1,1.25.05,3.13,3.13,0,0,1,.67.23,2.27,2.27,0,0,1,.62.46,2.32,2.32,0,0,1,.46.63,2.68,2.68,0,0,1,.22.73,6.68,6.68,0,0,1,.06,1.32c0,.89,0,1-.11,1.11a.71.71,0,0,1-.23.28A1.2,1.2,0,0,1,19,5a.62.62,0,0,1-.38,0,1.65,1.65,0,0,1-.32-.18.82.82,0,0,1-.22-.27C18,4.38,18,4.29,18,3.31a5.42,5.42,0,0,0-.09-1.16,1.05,1.05,0,0,0-.14-.2.45.45,0,0,0-.21-.15c-.1-.06-.28-.07-1.16-.1s-1.06,0-1.21-.1a1.18,1.18,0,0,1-.27-.23A1.26,1.26,0,0,1,14.74,1a.44.44,0,0,1,0-.39,1.15,1.15,0,0,1,.14-.32A1.45,1.45,0,0,1,15.1.12Z"/><path class="cls-1" d="M.25,7.7A.83.83,0,0,1,.5,7.51a.82.82,0,0,1,.34-.07,1.06,1.06,0,0,1,.37.07,1.69,1.69,0,0,1,.26.22.93.93,0,0,1,.19.3c0,.11,0,.87,0,1.89s0,1.79,0,1.89a1,1,0,0,1-.17.29,1.68,1.68,0,0,1-.28.23.8.8,0,0,1-.34.07.8.8,0,0,1-.34-.07.7.7,0,0,1-.28-.19.82.82,0,0,1-.19-.33A10.51,10.51,0,0,1,0,9.92,10.51,10.51,0,0,1,.06,8,.82.82,0,0,1,.25,7.7Z"/><path class="cls-1" d="M18.18,7.73a1.69,1.69,0,0,1,.26-.22.94.94,0,0,1,.34-.07,1,1,0,0,1,.34.07.82.82,0,0,1,.28.19.76.76,0,0,1,.19.33,10.51,10.51,0,0,1,.06,1.89,10.51,10.51,0,0,1-.06,1.89.82.82,0,0,1-.19.33.7.7,0,0,1-.28.19.77.77,0,0,1-.34.07.68.68,0,0,1-.32-.07.86.86,0,0,1-.28-.23.82.82,0,0,1-.18-.29c0-.1,0-.87,0-1.89S18,8.14,18,8a1.08,1.08,0,0,1,.18-.3Z"/><path class="cls-1" d="M.34,15a1,1,0,0,1,.25-.12.65.65,0,0,1,.24-.06,1.29,1.29,0,0,1,.28.06,1,1,0,0,1,.32.21.79.79,0,0,1,.21.36A7,7,0,0,1,1.7,16.6a3.61,3.61,0,0,0,.05,1.06l.16.23a.54.54,0,0,0,.21.15,3.73,3.73,0,0,0,1.16.11c1,0,1.06,0,1.21.09a1.22,1.22,0,0,1,.27.23,1.28,1.28,0,0,1,.17.33.65.65,0,0,1,0,.39,1.2,1.2,0,0,1-.16.32.92.92,0,0,1-.26.22c-.17.09-.24.1-1.13.11a7.84,7.84,0,0,1-1.3-.05,2.31,2.31,0,0,1-.7-.23,2.42,2.42,0,0,1-.64-.46,2.55,2.55,0,0,1-.46-.63,2.57,2.57,0,0,1-.22-.73,6.9,6.9,0,0,1,0-1.31c0-.9,0-1,.1-1.13A1.64,1.64,0,0,1,.34,15Z"/><path class="cls-1" d="M18.22,15.11a1.06,1.06,0,0,1,.31-.21c.07,0,.2,0,.25-.06a2.51,2.51,0,0,1,.27,0l.28.14a1.21,1.21,0,0,1,.21.28c.08.17.1.23.11,1.13a6.61,6.61,0,0,1-.06,1.31,2.57,2.57,0,0,1-.22.73,2.32,2.32,0,0,1-.46.63,2.5,2.5,0,0,1-.62.46,2.63,2.63,0,0,1-.72.23,7.84,7.84,0,0,1-1.3.05c-.89,0-1,0-1.11-.11a.88.88,0,0,1-.28-.22,1.15,1.15,0,0,1-.14-.32.44.44,0,0,1,0-.39,1.26,1.26,0,0,1,.15-.33,1.49,1.49,0,0,1,.27-.23c.15-.07.24-.08,1.21-.09A3.66,3.66,0,0,0,17.53,18a.54.54,0,0,0,.21-.15.76.76,0,0,0,.16-.26A3.42,3.42,0,0,0,18,16.55a7.5,7.5,0,0,1,0-1.12,1,1,0,0,1,.21-.32Z"/><path class="cls-1" d="M7.62,18.39a1,1,0,0,1,.3-.19,11.8,11.8,0,0,1,1.89-.05c1,0,1.78,0,1.88,0a1.19,1.19,0,0,1,.3.18,1.39,1.39,0,0,1,.22.29.93.93,0,0,1,.07.33.84.84,0,0,1-.07.33.88.88,0,0,1-.18.29.72.72,0,0,1-.34.2,12.38,12.38,0,0,1-1.86.05A12.47,12.47,0,0,1,8,19.79a.83.83,0,0,1-.34-.2.88.88,0,0,1-.18-.29A.84.84,0,0,1,7.37,19a1.07,1.07,0,0,1,.06-.32,1.88,1.88,0,0,1,.19-.26Z"/><path class="cls-1" d="M5.76,14a5.78,5.78,0,0,1,.51-8.5,5.8,5.8,0,0,1,7.53.45l-8,8Z"/><path class="cls-2" d="M5.76,13.94a5.77,5.77,0,0,1,.51-8.49,5.79,5.79,0,0,1,7.52.45l-8,8"/><path class="cls-3" d="M13.9,5.9a5.78,5.78,0,0,1-.51,8.5A5.8,5.8,0,0,1,5.86,14l8-8Z"/><path class="cls-4" d="M13.9,5.9a5.78,5.78,0,0,1-.51,8.5A5.8,5.8,0,0,1,5.86,14l8-8"/><path class="cls-5" d="M15.46,9.92A5.69,5.69,0,1,1,9.78,4.23a5.7,5.7,0,0,1,5.68,5.69Zm-9.7,4,4-4,4-4"/><line class="cls-6" x1="9.97" y1="11.85" x2="13.25" y2="11.85"/><path class="cls-7" d="M6.7,7.54H10M8.34,9.18V5.9"/></g></g></svg>