<svg xmlns="http://www.w3.org/2000/svg" viewBox="0 0 41.55 41.26"><defs><style>.cls-1{fill:#00a3c4;}.cls-1,.cls-3,.cls-4,.cls-6{stroke:#00a3c4;}.cls-1,.cls-2,.cls-3{stroke-miterlimit:10;}.cls-1,.cls-2{stroke-width:0.13px;}.cls-2{fill:#fff;}.cls-2,.cls-5{stroke:#fff;}.cls-3,.cls-4,.cls-5,.cls-6{fill:none;}.cls-3{stroke-width:0.65px;}.cls-4,.cls-5,.cls-6{stroke-linecap:round;stroke-linejoin:round;}.cls-4,.cls-5{stroke-width:1.87px;}.cls-6{stroke-width:2.15px;}</style></defs><g id="Слой_2" data-name="Слой 2"><g id="Слой_73" data-name="Слой 73"><path class="cls-1" d="M12.88,28.49s-8-8.31,1-16.74c0,0,7.59-5.91,14.84.88L13,28.49"/><path class="cls-2" d="M28.92,12.64s8,8.31-1,16.74c0,0-7.59,5.92-14.84-.88L28.77,12.64"/><path class="cls-3" d="M32,20.57a11.2,11.2,0,1,1-3.29-7.94A11.21,11.21,0,0,1,32,20.57Z"/><polyline class="cls-3" points="12.89 28.48 20.8 20.57 28.72 12.64"/><line class="cls-4" x1="21.17" y1="24.36" x2="27.65" y2="24.36"/><line class="cls-5" x1="14.73" y1="15.87" x2="21.21" y2="15.87"/><line class="cls-5" x1="17.97" y1="19.11" x2="17.97" y2="12.63"/><line class="cls-6" x1="20.8" y1="6.84" x2="20.8" y2="1.08"/><line class="cls-6" x1="30.64" y1="10.78" x2="34.72" y2="6.71"/><line class="cls-6" x1="34.72" y1="20.57" x2="40.47" y2="20.57"/><line class="cls-6" x1="30.64" y1="30.35" x2="34.72" y2="34.42"/><line class="cls-6" x1="7.03" y1="34.24" x2="11.1" y2="30.17"/><line class="cls-6" x1="20.8" y1="34.42" x2="20.8" y2="40.18"/><line class="cls-6" x1="1.08" y1="20.56" x2="6.84" y2="20.56"/><line class="cls-6" x1="11.1" y1="10.78" x2="7.03" y2="6.71"/></g></g></svg>