<?xml version="1.0" encoding="UTF-8"?>
<svg id="_Слой_2" data-name="Слой 2" xmlns="http://www.w3.org/2000/svg" viewBox="0 0 72.25 46.64">
  <defs>
    <style>
      .cls-1 {
        fill: #efeff3;
        stroke-width: .75px;
      }

      .cls-1, .cls-2 {
        stroke: #a9acb3;
        stroke-miterlimit: 10;
      }

      .cls-3, .cls-2 {
        fill: #a9acb3;
      }

      .cls-2 {
        stroke-width: .25px;
      }

      .cls-4 {
        fill: #2b97d4;
        fill-rule: evenodd;
      }
    </style>
  </defs>
  <g id="_Уши-громкость" data-name="Уши-громкость">
    <g id="_Уши-громкость-2" data-name="Уши-громкость">
      <g>
        <g id="_Слой_1-2" data-name="Слой 1">
          <path class="cls-1" d="m51.19,42.19c2.12-1.48,3.87-3.43,4.98-5.96,1.17-2.69,1.41-5.65,1.34-8.56-.03-1.19-.05-2.27.74-3.25.51-.63,1.18-1.1,1.83-1.57,1.19-.87,2.23-1.85,2.76-3.25.53-1.38.65-2.94.41-4.4-.49-3.02-2.73-5.82-5.68-6.75-3.19-1.01-6.72.04-9.47,1.76-.88.55-1.98.55-2.9.08-.23-.12-.47-.24-.71-.35-1.86-.86-3.88-1.39-5.91-1.61-.51-.06-1.25-.12-2.15-.13h-.43c-.9,0-1.64.08-2.15.13-2.04.22-4.05.76-5.91,1.61-.24.11-.48.23-.71.35-.92.47-2.02.47-2.9-.08-2.75-1.72-6.28-2.76-9.47-1.76-2.95.93-5.19,3.73-5.68,6.75-.24,1.46-.12,3.02.41,4.4.54,1.4,1.57,2.39,2.76,3.25.65.48,1.32.95,1.83,1.57.8.98.77,2.06.74,3.25-.07,2.9.17,5.86,1.34,8.56,2.6,5.96,9.92,8.87,15.99,9.73,6.25.88,13.64-.09,18.92-3.77Z"/>
        </g>
        <g>
          <ellipse class="cls-2" cx="42.3" cy="24.63" rx="1.8" ry="2.2"/>
          <ellipse class="cls-2" cx="30.15" cy="24.63" rx="1.8" ry="2.2"/>
        </g>
        <path class="cls-3" d="m42.05,37.16c-1.06,2.18-3.78,2.56-5.73,1.33-.19-.07-.45-.39-.4-.66.03-.11,0-.65.01-.77,0,0,.05-2.49.05-2.49h.48c0,1.17-.01,2.33.01,3.5,0,.14-.1.26-.25.27-.15,0-.27-.12-.27-.27-.11,0,.97,0,.51,0,0,.02,0,.04,0,.05-.21,0,.48,0-.51,0,.02-.7.09-1.49.01-2.2.06-.35.03-1,.04-1.35,0,0,.41,0,.41,0,.02,1.03.12,2.08.13,3.12.05.28-.16.71-.44.81-1.98,1.27-4.68.91-5.72-1.34-.12-.21.2-.4.33-.2.44.68,1.05,1.21,1.75,1.48,1.1.4,2.44.03,3.38-.6.03-.02.02-.68.03-.77.04-.83.1-1.67.12-2.5,0-.26.42-.26.41,0,0,.3.01,1.1-.05,1.36.08.55.05,1.45.09,2.02,0,.03,0,.13,0,.17-1.01,0-.28,0-.51,0,0,0,0-.03,0-.03,0,0,0-.02,0-.02-.46,0,.62,0,.51,0,0,0-.51,0-.51,0,.03-1.17.01-2.33.01-3.5,0-.13.11-.24.24-.24.13,0,.24.11.24.24l.06,2.49c0,.11.04.7.03.79.01.01,0-.04.02-.02.96.65,2.29,1.05,3.4.63.71-.27,1.31-.83,1.72-1.51.13-.23.49-.02.36.21h0Z"/>
        <path class="cls-2" d="m36.86,35.25c.55-.29,1.37-.76,2.04-1.33.33-.28.59-.62.68-1.03.08-.37.05-.83-.36-1.25-.48-.49-1.18-.51-1.84-.51-.76,0-1.53,0-2.29,0-.67,0-1.32,0-1.84.46-.4.36-.5.89-.33,1.37s.58.8.97,1.12c.54.45,1.14.85,1.78,1.17.38.19.83.17,1.21-.02Z"/>
      </g>
      <g>
        <path class="cls-4" d="m70.23,8.15l.28.56c-.06-.12,2.2,3.96,1.65,9.03l-.28,2.09c-.21.77-1.49.74-1.15-.59.3-1.27.33-2.74.23-4.23-.14-3.09-1.58-6.65-3.87-9.25-1.78-1.99-3.93-3.5-6.33-4.38-.22-.09-.44-.15-.63-.31-.27-.23-.31-.66-.06-.92.18-.19.42-.18.86-.04,2.12.73,4.63,2.34,6.27,3.97.38.37.78.83,1.12,1.26.32.4.82,1.01,1.06,1.4l.57.9.28.52Z"/>
        <path class="cls-4" d="m67.85,18.8c-.23.92,1,1.47,1.26-.06.94-5.63-1.15-10.9-6.3-14.46-.53-.39-2.85-1.59-3.35-1.52-.5.08-.73.58-.38,1.01.17.18.88.4,1.13.5.37.17.68.3,1.1.55,2.49,1.32,4.52,3.47,5.71,6.18,1.08,2.46,1.39,5.42.83,7.8h0Z"/>
        <path class="cls-4" d="m64.43,12.57c1.35,3.41.28,5.56.53,6.07.16.39.63.51.95.22.57-.5,1.02-5.61-1.8-9.39-1.47-1.93-2.93-2.82-4.92-3.7-1.3-.54-1.34.52-1,.88l1.81.84c1.96,1.06,3.6,2.86,4.44,5.07h0Z"/>
      </g>
      <g>
        <path class="cls-4" d="m2.02,8.15l-.28.56c.06-.12-2.2,3.96-1.65,9.03l.28,2.09c.21.77,1.49.74,1.15-.59-.3-1.27-.33-2.74-.23-4.23.14-3.09,1.58-6.65,3.87-9.25,1.78-1.99,3.93-3.5,6.33-4.38.22-.09.44-.15.63-.31.27-.23.31-.66.06-.92-.18-.19-.42-.18-.86-.04-2.12.73-4.63,2.34-6.27,3.97-.38.37-.78.83-1.12,1.26-.32.4-.82,1.01-1.06,1.4l-.57.9-.28.52Z"/>
        <path class="cls-4" d="m4.4,18.8c.23.92-1,1.47-1.26-.06-.94-5.63,1.15-10.9,6.3-14.46.53-.39,2.85-1.59,3.35-1.52.5.08.73.58.38,1.01-.17.18-.88.4-1.13.5-.37.17-.68.3-1.1.55-2.49,1.32-4.52,3.47-5.71,6.18-1.08,2.46-1.39,5.42-.83,7.8h0Z"/>
        <path class="cls-4" d="m7.82,12.57c-1.35,3.41-.28,5.56-.53,6.07-.16.39-.63.51-.95.22-.57-.5-1.02-5.61,1.8-9.39,1.47-1.93,2.93-2.82,4.92-3.7,1.3-.54,1.34.52,1,.88l-1.81.84c-1.96,1.06-3.6,2.86-4.44,5.07h0Z"/>
      </g>
    </g>
  </g>
</svg>