<?xml version="1.0" encoding="UTF-8"?>
<svg id="_Слой_2" data-name="Слой 2" xmlns="http://www.w3.org/2000/svg" viewBox="0 0 55.05 38.96">
  <defs>
    <style>
      .cls-1 {
        fill: #52a3da;
      }

      .cls-2 {
        fill: #f5c340;
      }

      .cls-3 {
        fill: #dd54a9;
        stroke: #dd54a9;
      }

      .cls-3, .cls-4 {
        stroke-width: .25px;
      }

      .cls-3, .cls-4, .cls-5, .cls-6 {
        stroke-miterlimit: 10;
      }

      .cls-7, .cls-4 {
        fill: #2b97d4;
      }

      .cls-4 {
        stroke: #2b97d4;
      }

      .cls-5 {
        fill: #efeff3;
        stroke-width: .75px;
      }

      .cls-5, .cls-6 {
        stroke: #a9acb3;
      }

      .cls-8, .cls-6 {
        fill: #a9acb3;
      }

      .cls-6 {
        stroke-width: .25px;
      }
    </style>
  </defs>
  <g id="_Глаза_палитра" data-name="Глаза палитра">
    <g id="_Глаза_палитра-2" data-name="Глаза палитра">
      <g id="_Слой_1-2" data-name="Слой 1">
        <path class="cls-5" d="m42.49,34.51c2.12-1.48,3.87-3.43,4.98-5.96,1.17-2.69,1.41-5.65,1.34-8.56-.03-1.19-.05-2.27.74-3.25.51-.63,1.18-1.1,1.83-1.57,1.19-.87,2.23-1.85,2.76-3.25.53-1.38.65-2.94.41-4.4-.49-3.02-2.73-5.82-5.68-6.75-3.19-1.01-6.72.04-9.47,1.76-.88.55-1.98.55-2.9.08-.23-.12-.47-.24-.71-.35-1.86-.86-3.88-1.39-5.91-1.61-.51-.06-1.25-.12-2.15-.13h-.43c-.9,0-1.64.08-2.15.13-2.04.22-4.05.76-5.91,1.61-.24.11-.48.23-.71.35-.92.47-2.02.47-2.9-.08C12.9.8,9.36-.24,6.17.77,3.22,1.7.98,4.49.49,7.52c-.24,1.46-.12,3.02.41,4.4.54,1.4,1.57,2.39,2.76,3.25.65.48,1.32.95,1.83,1.57.8.98.77,2.06.74,3.25-.07,2.9.17,5.86,1.34,8.56,2.6,5.96,9.92,8.87,15.99,9.73,6.25.88,13.64-.09,18.92-3.77Z"/>
      </g>
      <ellipse class="cls-4" cx="33.6" cy="16.95" rx="1.8" ry="2.2"/>
      <ellipse class="cls-3" cx="21.45" cy="16.95" rx="1.8" ry="2.2"/>
      <path class="cls-8" d="m33.36,29.48c-1.06,2.18-3.78,2.56-5.73,1.33-.19-.07-.45-.39-.4-.66.03-.11,0-.65.01-.77,0,0,.05-2.49.05-2.49h.48c0,1.17-.01,2.33.01,3.5,0,.14-.1.26-.25.27-.15,0-.27-.12-.27-.27-.11,0,.97,0,.51,0,0,.02,0,.04,0,.05-.21,0,.48,0-.51,0,.02-.7.09-1.49.01-2.2.06-.35.03-1,.04-1.35,0,0,.41,0,.41,0,.02,1.03.12,2.08.13,3.12.05.28-.16.71-.44.81-1.98,1.27-4.68.91-5.72-1.34-.12-.21.2-.4.33-.2.44.68,1.05,1.21,1.75,1.48,1.1.4,2.44.03,3.38-.6.03-.02.02-.68.03-.77.04-.83.1-1.67.12-2.5,0-.26.42-.26.41,0,0,.3.01,1.1-.05,1.36.08.55.05,1.45.09,2.02,0,.03,0,.13,0,.17-1.01,0-.28,0-.51,0,0,0,0-.03,0-.03,0,0,0-.02,0-.02-.46,0,.62,0,.51,0,0,0-.51,0-.51,0,.03-1.17.01-2.33.01-3.5,0-.13.11-.24.24-.24.13,0,.24.11.24.24l.06,2.49c0,.11.04.7.03.79.01.01,0-.04.02-.02.96.65,2.29,1.05,3.4.63.71-.27,1.31-.83,1.72-1.51.13-.23.49-.02.36.21h0Z"/>
      <path class="cls-6" d="m28.16,27.57c.55-.29,1.37-.76,2.04-1.33.33-.28.59-.62.68-1.03.08-.37.05-.83-.36-1.25-.48-.49-1.18-.51-1.84-.51-.76,0-1.53,0-2.29,0-.67,0-1.32,0-1.84.46-.4.36-.5.89-.33,1.37s.58.8.97,1.12c.54.45,1.14.85,1.78,1.17.38.19.83.17,1.21-.02Z"/>
      <g>
        <path class="cls-1" d="m42.47,24.9l-2.18-1.66-1.35,1.86-1.37,1.91,1,.74h0c.55.41,1.1.82,1.12.81,0,0,2.36-3.2,2.78-3.67h0Z"/>
        <path class="cls-2" d="m33.28,21.16c-.03.12-.06.46-.08.75-.01.34.01.8.07,1.15.05.33.16.78.24,1.01.08.23.32.64.52.93.29.45.45.6.97.99.35.24.81.52,1.02.6.21.08.61.2.88.27.28.07.6.15.66.14.04,0,.33-.48,1.37-1.91l1.37-1.89-.11-.41c-.06-.22-.18-.58-.27-.76-.07-.19-.27-.47-.43-.65-.16-.18-.47-.46-.69-.61-.22-.14-.58-.34-.77-.4-.21-.06-.55-.12-.75-.13s-.8-.01-1.31,0c-.51.01-1.15,0-1.4-.03-.25-.03-.61-.11-1.05-.22l-.24,1.16Z"/>
        <path class="cls-7" d="m40.98,26.62l-1.37,1.87,5.08,3.83c2.78,2.1,5.2,3.85,5.34,3.92,2.39,1.15,4.33-2.08,2.76-3.69-.07-.06-2.43-1.82-10.46-7.79l-1.35,1.86Z"/>
      </g>
    </g>
  </g>
</svg>