<?xml version="1.0" encoding="UTF-8"?>
<!DOCTYPE svg PUBLIC "-//W3C//DTD SVG 1.1//EN" "http://www.w3.org/Graphics/SVG/1.1/DTD/svg11.dtd">
<!-- Creator: CorelDRAW -->
<svg xmlns="http://www.w3.org/2000/svg" xml:space="preserve" width="7.6285mm" height="8.1188mm" version="1.1" style="shape-rendering:geometricPrecision; text-rendering:geometricPrecision; image-rendering:optimizeQuality; fill-rule:evenodd; clip-rule:evenodd"
viewBox="0 0 88.25 93.92"
 xmlns:xlink="http://www.w3.org/1999/xlink"
 xmlns:xodm="http://www.corel.com/coreldraw/odm/2003">
 <defs>
  <style type="text/css">
   <![CDATA[
    .fil0 {fill:#E77A73}
    .fil3 {fill:#E9EAEC}
    .fil1 {fill:#A6CB88}
    .fil2 {fill:#9FA5AC;fill-rule:nonzero}
    .fil4 {fill:#A6CB88;fill-rule:nonzero}
   ]]>
  </style>
 </defs>
 <g id="Содержимое_x0020_PowerClip">
  <metadata id="CorelCorpID_0Corel-Layer"/>
  <g id="_1872751871328">
   <g>
    <path class="fil0" d="M44.87 79.85l-38.93 0c-2.46,0 -4.45,-1.99 -4.45,-4.45l0 -34.48c0,-2.46 1.99,-4.45 4.45,-4.45l38.93 -0 0 43.38z"/>
    <path class="fil1" d="M83.8 79.85l-38.93 0 0 -43.38 38.93 0c2.46,0 4.45,1.99 4.45,4.45l0 34.48c0,2.46 -1.99,4.45 -4.45,4.45z"/>
    <g>
     <polygon class="fil2" points="42.04,79.85 42.04,36.47 47.69,36.47 47.69,79.85 "/>
    </g>
    <g>
     <path class="fil2" d="M21.66 89.94c-1.1,0 -1.99,-0.89 -1.99,-1.99 0,-1.1 0.89,-1.99 1.99,-1.99l0 3.99zm46.41 0l-46.41 0 0 -3.99 46.41 0 0 3.99zm0 -3.99c1.1,0 1.99,0.89 1.99,1.99 0,1.1 -0.89,1.99 -1.99,1.99l0 -3.99z"/>
    </g>
    <g>
     <path class="fil3" d="M50.34 87.95c0,3.02 -2.45,5.47 -5.47,5.47 -3.02,0 -5.47,-2.45 -5.47,-5.47 0,-3.02 2.45,-5.47 5.47,-5.47 3.02,0 5.47,2.45 5.47,5.47z"/>
     <path id="_1" class="fil2" d="M44.86 93.92l0 -1 0 0 0.26 -0.01 0.25 -0.02 0.25 -0.03 0.24 -0.04 0.24 -0.06 0.24 -0.07 0.23 -0.08 0.22 -0.09 0.22 -0.1 0.21 -0.11 0.21 -0.12 0.2 -0.13 0.19 -0.14 0.19 -0.15 0.18 -0.16 0.17 -0.16 0.16 -0.17 0.16 -0.18 0.15 -0.19 0.14 -0.2 0.13 -0.2 0.12 -0.21 0.11 -0.21 0.1 -0.22 0.09 -0.22 0.08 -0.23 0.07 -0.24 0.06 -0.24 0.04 -0.24 0.03 -0.25 0.02 -0.25 0.01 -0.26 1 0 -0.01 0.31 -0.02 0.3 -0.04 0.3 -0.05 0.29 -0.07 0.29 -0.08 0.28 -0.09 0.28 -0.11 0.27 -0.12 0.26 -0.13 0.26 -0.14 0.25 -0.16 0.24 -0.17 0.23 -0.18 0.23 -0.19 0.22 -0.2 0.21 -0.21 0.2 -0.22 0.19 -0.23 0.18 -0.23 0.17 -0.24 0.16 -0.25 0.14 -0.26 0.13 -0.26 0.12 -0.27 0.11 -0.28 0.09 -0.28 0.08 -0.29 0.07 -0.29 0.05 -0.3 0.04 -0.3 0.02 -0.31 0.01 0 0zm-5.97 -5.97l1 0 0 0 0.01 0.26 0.02 0.25 0.03 0.25 0.04 0.24 0.06 0.24 0.07 0.24 0.08 0.23 0.09 0.22 0.1 0.22 0.11 0.21 0.12 0.21 0.13 0.2 0.14 0.2 0.15 0.19 0.16 0.18 0.17 0.17 0.17 0.17 0.18 0.16 0.19 0.15 0.2 0.14 0.2 0.13 0.21 0.12 0.21 0.11 0.22 0.1 0.22 0.09 0.23 0.08 0.24 0.07 0.24 0.06 0.24 0.04 0.25 0.03 0.25 0.02 0.26 0.01 0 1 -0.31 -0.01 -0.3 -0.02 -0.3 -0.04 -0.29 -0.05 -0.29 -0.07 -0.28 -0.08 -0.28 -0.09 -0.27 -0.11 -0.26 -0.12 -0.26 -0.13 -0.25 -0.14 -0.24 -0.16 -0.23 -0.17 -0.22 -0.18 -0.22 -0.19 -0.21 -0.2 -0.2 -0.21 -0.19 -0.22 -0.18 -0.22 -0.17 -0.23 -0.16 -0.24 -0.14 -0.25 -0.13 -0.26 -0.12 -0.26 -0.11 -0.27 -0.09 -0.28 -0.08 -0.28 -0.07 -0.29 -0.05 -0.29 -0.04 -0.3 -0.02 -0.3 -0.01 -0.31 0 0zm5.97 -5.97l0 1 0 0 -0.26 0.01 -0.25 0.02 -0.25 0.03 -0.24 0.04 -0.24 0.06 -0.24 0.07 -0.23 0.08 -0.22 0.09 -0.22 0.1 -0.21 0.11 -0.21 0.12 -0.2 0.13 -0.2 0.14 -0.19 0.15 -0.18 0.16 -0.17 0.16 -0.16 0.17 -0.16 0.18 -0.15 0.19 -0.14 0.19 -0.13 0.2 -0.12 0.21 -0.11 0.21 -0.1 0.22 -0.09 0.22 -0.08 0.23 -0.07 0.24 -0.06 0.24 -0.04 0.24 -0.03 0.25 -0.02 0.25 -0.01 0.26 -1 0 0.01 -0.31 0.02 -0.3 0.04 -0.3 0.05 -0.29 0.07 -0.29 0.08 -0.28 0.09 -0.28 0.11 -0.27 0.12 -0.26 0.13 -0.26 0.14 -0.25 0.16 -0.24 0.17 -0.23 0.18 -0.23 0.19 -0.22 0.2 -0.21 0.21 -0.2 0.22 -0.19 0.23 -0.18 0.23 -0.17 0.24 -0.16 0.25 -0.14 0.26 -0.13 0.26 -0.12 0.27 -0.11 0.28 -0.09 0.28 -0.08 0.29 -0.07 0.29 -0.05 0.3 -0.04 0.3 -0.02 0.31 -0.01 0 0zm5.97 5.97l-1 0 0 0 -0.01 -0.26 -0.02 -0.25 -0.03 -0.25 -0.04 -0.24 -0.06 -0.24 -0.07 -0.24 -0.08 -0.23 -0.09 -0.22 -0.1 -0.22 -0.11 -0.21 -0.12 -0.21 -0.13 -0.2 -0.14 -0.19 -0.15 -0.19 -0.16 -0.18 -0.16 -0.17 -0.17 -0.16 -0.18 -0.16 -0.19 -0.15 -0.19 -0.14 -0.2 -0.13 -0.21 -0.12 -0.21 -0.11 -0.22 -0.1 -0.22 -0.09 -0.23 -0.08 -0.24 -0.07 -0.24 -0.06 -0.24 -0.04 -0.25 -0.03 -0.25 -0.02 -0.26 -0.01 0 -1 0.31 0.01 0.3 0.02 0.3 0.04 0.29 0.05 0.29 0.07 0.28 0.08 0.28 0.09 0.27 0.11 0.26 0.12 0.26 0.13 0.25 0.14 0.24 0.16 0.23 0.17 0.23 0.18 0.22 0.19 0.21 0.2 0.2 0.21 0.19 0.22 0.18 0.23 0.17 0.23 0.16 0.24 0.14 0.25 0.13 0.26 0.12 0.26 0.11 0.27 0.09 0.28 0.08 0.28 0.07 0.29 0.05 0.29 0.04 0.3 0.02 0.3 0.01 0.31 0 0z"/>
    </g>
   </g>
   <g>
    <path class="fil4" d="M2.89 18.01c-1.6,0 -2.89,-1.3 -2.89,-2.89 0,-1.6 1.3,-2.89 2.89,-2.89l0 5.78zm57.69 0l-57.69 0 0 -5.78 57.69 0 0 5.78zm-2.38 -18.01l27.49 15.12 -27.49 15.12 0 -30.24zm2.38 12.23c1.6,0 2.89,1.3 2.89,2.89 0,1.6 -1.3,2.89 -2.89,2.89l0 -5.78z"/>
   </g>
  </g>
 </g>
</svg>
