<?xml version="1.0" encoding="UTF-8"?>
<svg id="_Слой_2" data-name="Слой 2" xmlns="http://www.w3.org/2000/svg" viewBox="0 0 32.5 38.47">
  <defs>
    <style>
      .cls-1 {
        fill: #a8acb3;
        stroke: #a8acb3;
        stroke-miterlimit: 10;
        stroke-width: .5px;
      }

      .cls-2 {
        fill: #2b97d4;
        fill-rule: evenodd;
      }
    </style>
  </defs>
  <g id="_Уши-громкость" data-name="Уши-громкость">
    <g id="_2Услышан_громкий_звук" data-name="2Услышан громкий звук">
      <g>
        <g>
          <path class="cls-2" d="m16.2,19.9l-.05,1.04c.01-.22-.06,7.52-4.99,14.39l-2.12,2.79c-.94.95-2.76-.15-1.18-1.79,1.48-1.59,2.71-3.68,3.8-5.92,2.32-4.58,3.15-10.9,1.97-16.53-.94-4.33-2.81-8.26-5.57-11.5-.24-.3-.52-.57-.66-.96-.21-.56.1-1.2.67-1.38.43-.13.75.08,1.28.64,2.46,2.79,4.78,7.17,5.82,10.85.25.85.44,1.84.59,2.74.14.84.36,2.12.39,2.89l.08,1.77-.02.97Z"/>
          <path class="cls-2" d="m4.07,33.34c-1.08,1.14.25,2.94,1.87.95,5.96-7.37,7.25-16.68,2.71-26.04-.44-1-2.81-4.63-3.6-4.93-.79-.3-1.53.25-1.38,1.14.1.4.94,1.29,1.23,1.64.39.55.74,1,1.13,1.69,2.51,3.93,3.7,8.71,3.2,13.59-.44,4.43-2.42,8.96-5.18,11.95h0Z"/>
          <path class="cls-2" d="m4.22,21.54C3.38,27.56.08,29.8.03,30.75c-.1.7.49,1.24,1.18,1.1,1.23-.25,6.06-7.27,5.08-15.03-.54-3.98-1.92-6.47-4.09-9.36C.77,5.61-.17,7.1.03,7.9l1.92,2.69c1.97,3.14,2.86,7.07,2.27,10.95h0Z"/>
        </g>
        <g>
          <path class="cls-1" d="m32.18,9.05L27.14.76c-.19-.31-.63-.3-.81,0l-4.83,8.35c-.18.32.05.71.41.71l9.88-.06c.37,0,.59-.41.4-.72Z"/>
          <path class="cls-1" d="m25.71,6.01l.03,7.44c0,.14-.03.29-.09.42l-3.79,8.1c-.15.33-.11.72.11,1.01l4.82,6.15c.22.28.27.66.12.99l-3.21,7.25c-.12.27.08.57.37.57h1.63c.16,0,.3-.09.37-.23l3.72-7.79c.16-.33.12-.72-.11-1.01l-4.77-6.18c-.21-.28-.26-.65-.12-.97l3.33-7.73c.06-.13.08-.28.08-.42l-.31-7.66"/>
        </g>
      </g>
    </g>
  </g>
</svg>