<svg xmlns="http://www.w3.org/2000/svg" viewBox="0 0 39.78 37.67"><defs><style>.cls-1{fill:#ed79bc;stroke-miterlimit:10;}.cls-1,.cls-6{stroke:#f7ade0;}.cls-1,.cls-2,.cls-3,.cls-4,.cls-5{fill-rule:evenodd;}.cls-2{fill:#c75c99;}.cls-3{fill:#eea933;}.cls-4{fill:#f2c61f;}.cls-5{fill:#eda935;}.cls-6{fill:none;stroke-linecap:round;stroke-linejoin:round;stroke-width:3px;}</style></defs><g id="Слой_2" data-name="Слой 2"><g id="irLed"><g id="принято"><path class="cls-1" d="M26.75,30.77H13.05c0-2.05,0-4.58,0-6.67,0-3.1-.41-6.06,1-8.41a4.94,4.94,0,0,1,.63-.91,4.73,4.73,0,0,1,.38-.41l.19-.19a6.61,6.61,0,0,1,4.24-1.86h.86A6.85,6.85,0,0,1,26.64,18a47.21,47.21,0,0,1,.11,6.13v6.67"/><path class="cls-2" d="M15.72,30.43h1V27.67c.68,0,.64-.27.94-.72s.42-.72.64-1.14.64-.83.19-1.17a4.52,4.52,0,0,0-1.65-.12c-1.43,0-1.17,0-1.17,2.31"/><path class="cls-2" d="M23.07,30.43h1c0-1.13,0-2.42,0-3.6,0-.53,0-1.17,0-1.7s-.53-.65-1.2-.61-.64.46-.87.83c-1.46,2.43-1.35,2.32,1,2.32Z"/><path class="cls-3" d="M16.77,35.09H15.69V36c0,.72-.19,1.63.48,1.71h.15c.64-.08.45-1,.45-1.71Z"/><path class="cls-3" d="M24.13,35.09H23V36c0,.72-.19,1.63.45,1.71h.15c.68-.08.49-1,.49-1.71Z"/><path class="cls-4" d="M22,33a3.64,3.64,0,0,0,.15,1.48,1.34,1.34,0,0,0,.34.45.77.77,0,0,0,.6.15h1.09c1-.07,1.16-.91,1-2.08A17.87,17.87,0,0,0,22,33Z"/><path class="cls-4" d="M15.69,35.09h1.08c.31,0,.42,0,.61-.15a1,1,0,0,0,.37-.45A4.58,4.58,0,0,0,17.86,33a17.87,17.87,0,0,0-3.19,0c-.15,1.17,0,2,1,2.08Z"/><path class="cls-5" d="M27,33c.67,0,1.27.11,1.35-.53,0-.27,0-1.63,0-1.82-.19-.49-.82-.34-1.54-.34H13.06a4.83,4.83,0,0,0-1.27.07c-.45.19-.34,1.44-.27,2.09s.6.53,1.24.53Z"/></g><line class="cls-6" x1="19.92" y1="6.88" x2="19.92" y2="1.5"/><line class="cls-6" x1="29.1" y1="10.56" x2="32.91" y2="6.75"/><line class="cls-6" x1="32.91" y1="19.69" x2="38.28" y2="19.69"/><line class="cls-6" x1="1.5" y1="19.69" x2="6.88" y2="19.69"/><line class="cls-6" x1="10.86" y1="10.56" x2="7.06" y2="6.75"/></g></g></svg>