<svg xmlns="http://www.w3.org/2000/svg" viewBox="0 0 50.08 38.93"><defs><style>.cls-1{fill:none;stroke:#e5c688;stroke-linecap:round;stroke-linejoin:round;stroke-width:2.5px;}.cls-2{fill:#de6855;stroke:#c45944;stroke-miterlimit:10;stroke-width:0.83px;}</style></defs><g id="Слой_2" data-name="Слой 2"><g id="_130" data-name="130"><line class="cls-1" x1="35.57" y1="1.25" x2="14.54" y2="37.68"/><path class="cls-2" d="M34.36,2.63a14.09,14.09,0,0,1,7.17,5.24,8,8,0,0,0,1.6,1.88,11,11,0,0,0,6.44,2.65.1.1,0,0,1,.08.15L43.33,23.26a.72.72,0,0,1-.61.34c-1.33,0-4.66-.18-7.45-4.17-.34-.48-.59-1-1-1.48a9.89,9.89,0,0,0-6.41-3.51.56.56,0,0,1-.42-.84c1.31-2.26,5.12-8.85,6.2-10.73A.56.56,0,0,1,34.36,2.63Z"/><line class="cls-1" x1="14.54" y1="1.25" x2="35.57" y2="37.68"/><path class="cls-2" d="M15.72,2.63A14.12,14.12,0,0,0,8.56,7.87,8.05,8.05,0,0,1,7,9.75,11,11,0,0,1,.52,12.4a.1.1,0,0,0-.09.15c.67,1.12,5.27,8.91,6.33,10.71a.71.71,0,0,0,.61.34c1.33,0,4.65-.18,7.44-4.17.34-.48.6-1,1-1.48a10,10,0,0,1,6.42-3.51.56.56,0,0,0,.42-.84c-1.31-2.26-5.12-8.85-6.2-10.73A.58.58,0,0,0,15.72,2.63Z"/></g></g></svg>