<?xml version="1.0" encoding="UTF-8"?>
<!DOCTYPE svg PUBLIC "-//W3C//DTD SVG 1.1//EN" "http://www.w3.org/Graphics/SVG/1.1/DTD/svg11.dtd">
<!-- Creator: CorelDRAW -->
<svg xmlns="http://www.w3.org/2000/svg" xml:space="preserve" width="7.5785mm" height="8.1188mm" version="1.1" style="shape-rendering:geometricPrecision; text-rendering:geometricPrecision; image-rendering:optimizeQuality; fill-rule:evenodd; clip-rule:evenodd"
viewBox="0 0 411.46 440.8"
 xmlns:xlink="http://www.w3.org/1999/xlink"
 xmlns:xodm="http://www.corel.com/coreldraw/odm/2003">
 <defs>
  <style type="text/css">
   <![CDATA[
    .fil0 {fill:#E77A73}
    .fil3 {fill:#E9EAEC}
    .fil1 {fill:#A6CB88}
    .fil4 {fill:#E77A73;fill-rule:nonzero}
    .fil2 {fill:#9FA5AC;fill-rule:nonzero}
   ]]>
  </style>
 </defs>
 <g id="Содержимое_x0020_PowerClip">
  <metadata id="CorelCorpID_0Corel-Layer"/>
  <g id="_1908774902336">
   <g>
    <path class="fil0" d="M203.61 374.76l182.7 0c11.54,0 20.89,-9.35 20.89,-20.89l0 -161.81c0,-11.54 -9.35,-20.89 -20.89,-20.89l-182.7 -0.01 0 203.6z"/>
    <path class="fil1" d="M20.89 374.76l182.71 0 0 -203.6 -182.71 0c-11.54,0 -20.89,9.35 -20.89,20.9l0 161.81c0,11.54 9.36,20.89 20.89,20.89z"/>
    <g>
     <polygon class="fil2" points="216.88,374.76 190.34,374.76 190.34,171.15 216.88,171.15 "/>
    </g>
    <g>
     <path class="fil2" d="M312.51 422.14l0 -18.71c5.16,0 9.35,4.19 9.35,9.35 0,5.16 -4.19,9.35 -9.35,9.35zm-217.81 0l0 -18.71 217.81 0 0 18.71 -217.81 0zm0 -18.71l0 18.71c-5.16,0 -9.35,-4.19 -9.35,-9.35 0,-5.16 4.19,-9.35 9.35,-9.35z"/>
    </g>
    <g>
     <path class="fil3" d="M177.93 412.79c0,14.18 11.49,25.67 25.68,25.67 14.18,0 25.67,-11.49 25.67,-25.67 0,-14.19 -11.49,-25.68 -25.67,-25.68 -14.19,0 -25.68,11.49 -25.68,25.68z"/>
     <path id="_1" class="fil2" d="M203.61 440.8l0 0 -1.43 -0.04 -1.43 -0.1 -1.4 -0.18 -1.38 -0.25 -1.36 -0.31 -1.33 -0.37 -1.3 -0.44 -1.27 -0.5 -1.24 -0.56 -1.21 -0.62 -1.17 -0.67 -1.13 -0.73 -1.1 -0.78 -1.06 -0.83 -1.02 -0.88 -0.97 -0.93 -0.92 -0.97 -0.88 -1.02 -0.84 -1.06 -0.78 -1.1 -0.73 -1.13 -0.67 -1.17 -0.62 -1.21 -0.56 -1.24 -0.5 -1.27 -0.43 -1.3 -0.38 -1.32 -0.31 -1.36 -0.25 -1.38 -0.18 -1.41 -0.1 -1.42 -0.04 -1.43 4.68 0 0.03 1.21 0.09 1.18 0.15 1.17 0.21 1.15 0.26 1.13 0.31 1.11 0.37 1.09 0.42 1.05 0.46 1.04 0.52 1 0.56 0.98 0.61 0.94 0.65 0.92 0.69 0.87 0.74 0.85 0.77 0.81 0.81 0.77 0.85 0.73 0.88 0.7 0.91 0.65 0.95 0.61 0.98 0.56 1 0.52 1.04 0.46 1.05 0.42 1.09 0.36 1.11 0.32 1.13 0.26 1.15 0.21 1.16 0.15 1.19 0.09 1.21 0.03 0 0 0 4.68zm28.01 -28.01l0 0 -0.04 1.43 -0.1 1.42 -0.18 1.41 -0.25 1.38 -0.31 1.36 -0.38 1.32 -0.43 1.3 -0.5 1.27 -0.56 1.24 -0.62 1.21 -0.67 1.17 -0.73 1.13 -0.78 1.1 -0.84 1.05 -0.87 1.02 -0.93 0.97 -0.97 0.93 -1.02 0.87 -1.05 0.84 -1.1 0.78 -1.13 0.73 -1.17 0.67 -1.21 0.62 -1.24 0.56 -1.27 0.5 -1.3 0.43 -1.32 0.38 -1.36 0.31 -1.38 0.25 -1.41 0.18 -1.42 0.1 -1.43 0.04 0 -4.68 1.21 -0.03 1.18 -0.09 1.17 -0.15 1.15 -0.21 1.13 -0.26 1.11 -0.31 1.09 -0.37 1.05 -0.42 1.04 -0.46 1 -0.52 0.98 -0.56 0.94 -0.61 0.92 -0.65 0.88 -0.69 0.85 -0.73 0.81 -0.78 0.78 -0.81 0.73 -0.85 0.69 -0.88 0.65 -0.92 0.61 -0.94 0.56 -0.98 0.52 -1 0.46 -1.04 0.42 -1.05 0.37 -1.09 0.31 -1.11 0.26 -1.13 0.21 -1.15 0.15 -1.17 0.09 -1.18 0.03 -1.21 0 0 4.68 0zm-28.01 -28.02l0 0 1.43 0.04 1.42 0.1 1.41 0.18 1.38 0.25 1.36 0.31 1.32 0.38 1.3 0.43 1.27 0.5 1.24 0.56 1.21 0.62 1.17 0.67 1.13 0.73 1.1 0.78 1.06 0.84 1.02 0.88 0.97 0.92 0.93 0.97 0.88 1.02 0.83 1.06 0.78 1.1 0.73 1.13 0.67 1.17 0.62 1.21 0.56 1.24 0.5 1.27 0.44 1.3 0.37 1.33 0.31 1.36 0.25 1.38 0.18 1.4 0.1 1.43 0.04 1.43 -4.68 0 -0.03 -1.21 -0.09 -1.19 -0.15 -1.16 -0.21 -1.15 -0.26 -1.13 -0.32 -1.11 -0.36 -1.09 -0.42 -1.05 -0.46 -1.04 -0.52 -1 -0.56 -0.98 -0.61 -0.95 -0.65 -0.91 -0.7 -0.88 -0.73 -0.85 -0.77 -0.81 -0.81 -0.77 -0.85 -0.74 -0.87 -0.69 -0.92 -0.65 -0.94 -0.61 -0.98 -0.56 -1 -0.52 -1.04 -0.46 -1.05 -0.42 -1.09 -0.37 -1.11 -0.31 -1.13 -0.26 -1.15 -0.21 -1.17 -0.15 -1.18 -0.09 -1.21 -0.03 0 0 0 -4.68zm-28.02 28.02l0 0 0.04 -1.43 0.1 -1.43 0.18 -1.4 0.25 -1.38 0.31 -1.36 0.37 -1.33 0.44 -1.3 0.5 -1.27 0.56 -1.24 0.62 -1.21 0.67 -1.17 0.73 -1.13 0.78 -1.1 0.84 -1.06 0.88 -1.02 0.92 -0.97 0.97 -0.92 1.02 -0.88 1.06 -0.84 1.1 -0.78 1.13 -0.73 1.17 -0.67 1.21 -0.62 1.24 -0.56 1.27 -0.5 1.3 -0.44 1.33 -0.37 1.36 -0.31 1.38 -0.25 1.4 -0.18 1.43 -0.1 1.43 -0.04 0 4.68 -1.21 0.03 -1.19 0.09 -1.16 0.15 -1.15 0.21 -1.13 0.26 -1.11 0.32 -1.09 0.36 -1.05 0.42 -1.04 0.46 -1 0.52 -0.98 0.56 -0.95 0.61 -0.91 0.65 -0.88 0.69 -0.85 0.74 -0.81 0.77 -0.77 0.81 -0.74 0.85 -0.69 0.88 -0.65 0.91 -0.61 0.95 -0.56 0.98 -0.52 1 -0.46 1.04 -0.42 1.05 -0.36 1.09 -0.32 1.11 -0.26 1.13 -0.21 1.15 -0.15 1.16 -0.09 1.19 -0.03 1.21 0 0 -4.68 0z"/>
    </g>
   </g>
   <g>
    <path class="fil4" d="M397.89 57.39c7.49,0 13.57,6.08 13.57,13.57 0,7.49 -6.08,13.57 -13.57,13.57l0 -27.15zm-270.76 0l270.76 0 0 27.15 -270.76 0 0 -27.15zm11.18 84.53l-129 -70.96 129 -70.96 0 141.92zm-11.18 -57.39c-7.49,0 -13.57,-6.08 -13.57,-13.57 0,-7.49 6.08,-13.57 13.57,-13.57l0 27.15z"/>
   </g>
  </g>
 </g>
</svg>
