<svg xmlns="http://www.w3.org/2000/svg" viewBox="0 0 36.25 36.45"><defs><style>.cls-1,.cls-2,.cls-5{fill:none;stroke-miterlimit:10;}.cls-1,.cls-2{stroke:#00a3c4;stroke-linecap:round;stroke-width:3.6px;}.cls-1{stroke-dasharray:6.14;}.cls-2{stroke-dasharray:12.7;}.cls-3{fill:#fff;stroke:#f3c23c;stroke-linejoin:bevel;stroke-width:1.2px;fill-rule:evenodd;}.cls-4{fill:#272c2a;}.cls-5{stroke:#272c2a;stroke-width:0.24px;}</style></defs><g id="Слой_2" data-name="Слой 2"><g id="Слой_73" data-name="Слой 73"><path class="cls-1" d="M34.44,15.29c0,2.28,0,2.1,0,6.15"/><path class="cls-1" d="M15.34,1.81c2.28,0,2.1,0,6.14,0"/><path class="cls-2" d="M1.81,8.82c0-2.84,0-4.29.06-4.46a3.08,3.08,0,0,1,.88-1.7,2.82,2.82,0,0,1,1.58-.84H8.81"/><path class="cls-2" d="M27.45,1.81h4.47a2.82,2.82,0,0,1,1.59.84,3.08,3.08,0,0,1,.88,1.7c0,.17,0,1.63.06,4.46"/><path class="cls-1" d="M20.91,34.64c-2.28,0-2.1,0-6.15,0"/><path class="cls-2" d="M34.44,27.63c0,2.83,0,4.29-.06,4.46a3.09,3.09,0,0,1-.89,1.7,2.85,2.85,0,0,1-1.58.84H27.44"/><path class="cls-2" d="M8.8,34.64H4.32a2.84,2.84,0,0,1-1.58-.85,3,3,0,0,1-.88-1.69c0-.17-.05-1.63-.06-4.46"/><path class="cls-1" d="M1.81,15.29c0,2.28,0,2.1,0,6.15"/></g><g id="Слой_75" data-name="Слой 75"><path class="cls-3" d="M18,9h.44a9.19,9.19,0,0,1,8.71,8.83v.75a9.16,9.16,0,0,1-8.71,8.86H18a9.1,9.1,0,0,1-8.91-9.13V18.1A9.09,9.09,0,0,1,11.45,12,9,9,0,0,1,18,9Z"/><path class="cls-4" d="M13.65,13.42a1.22,1.22,0,0,1,1.09.58,3.22,3.22,0,0,1,.37,1.68,3.18,3.18,0,0,1-.37,1.64,1.16,1.16,0,0,1-1.09.58,1.15,1.15,0,0,1-1.08-.58,3.09,3.09,0,0,1-.37-1.64A3.12,3.12,0,0,1,12.57,14a1.21,1.21,0,0,1,1.08-.58Zm0,.48a.65.65,0,0,0-.61.41,3.39,3.39,0,0,0-.2,1.37A3.3,3.3,0,0,0,13,17a.66.66,0,0,0,.61.41.65.65,0,0,0,.61-.41,3.13,3.13,0,0,0,.2-1.33,3.22,3.22,0,0,0-.2-1.37.64.64,0,0,0-.61-.41Z"/><polygon class="cls-4" points="17.38 13.49 17.38 17.83 16.8 17.83 16.8 14.14 15.79 14.75 15.55 14.31 16.87 13.49 17.38 13.49"/><path class="cls-4" d="M19.88,13.42A1.22,1.22,0,0,1,21,14a3.12,3.12,0,0,1,.37,1.68A3.09,3.09,0,0,1,21,17.32a1.3,1.3,0,0,1-2.17,0,3.09,3.09,0,0,1-.37-1.64A3.12,3.12,0,0,1,18.8,14a1.21,1.21,0,0,1,1.08-.58Zm0,.48a.65.65,0,0,0-.61.41,3.39,3.39,0,0,0-.2,1.37,3.3,3.3,0,0,0,.2,1.33.66.66,0,0,0,.61.41.64.64,0,0,0,.61-.41,3.1,3.1,0,0,0,.21-1.33,3.19,3.19,0,0,0-.21-1.37.63.63,0,0,0-.61-.41Z"/><polygon class="cls-4" points="23.61 13.49 23.61 17.83 23.03 17.83 23.03 14.14 22.02 14.75 21.78 14.31 23.1 13.49 23.61 13.49"/><polygon class="cls-4" points="13.92 18.62 13.92 22.96 13.35 22.96 13.35 19.27 12.33 19.88 12.09 19.44 13.41 18.62 13.92 18.62"/><path class="cls-4" d="M16.46,18.55a1.22,1.22,0,0,1,1.09.58,3.22,3.22,0,0,1,.37,1.68,3.16,3.16,0,0,1-.37,1.64,1.3,1.3,0,0,1-2.17,0A3.06,3.06,0,0,1,15,20.81a3.12,3.12,0,0,1,.37-1.68,1.21,1.21,0,0,1,1.08-.58Zm0,.48a.65.65,0,0,0-.61.41,3.39,3.39,0,0,0-.2,1.37,3.3,3.3,0,0,0,.2,1.33.66.66,0,0,0,.61.41.65.65,0,0,0,.61-.41,3.1,3.1,0,0,0,.21-1.33,3.19,3.19,0,0,0-.21-1.37.64.64,0,0,0-.61-.41Z"/><polygon class="cls-4" points="20.16 18.62 20.16 22.96 19.58 22.96 19.58 19.27 18.56 19.88 18.33 19.44 19.65 18.62 20.16 18.62"/><path class="cls-4" d="M22.7,18.55a1.21,1.21,0,0,1,1.08.58,3.12,3.12,0,0,1,.37,1.68,3.06,3.06,0,0,1-.37,1.64,1.3,1.3,0,0,1-2.17,0,3.06,3.06,0,0,1-.37-1.64,3.12,3.12,0,0,1,.37-1.68,1.22,1.22,0,0,1,1.09-.58Zm0,.48a.63.63,0,0,0-.61.41,3.19,3.19,0,0,0-.21,1.37,3.1,3.1,0,0,0,.21,1.33.64.64,0,0,0,.61.41.66.66,0,0,0,.61-.41,3.3,3.3,0,0,0,.2-1.33,3.39,3.39,0,0,0-.2-1.37A.65.65,0,0,0,22.7,19Z"/><path class="cls-5" d="M13.65,13.42a1.22,1.22,0,0,1,1.09.58,3.22,3.22,0,0,1,.37,1.68,3.18,3.18,0,0,1-.37,1.64,1.16,1.16,0,0,1-1.09.58,1.15,1.15,0,0,1-1.08-.58,3.09,3.09,0,0,1-.37-1.64A3.12,3.12,0,0,1,12.57,14a1.21,1.21,0,0,1,1.08-.58Zm0,.48a.65.65,0,0,0-.61.41,3.39,3.39,0,0,0-.2,1.37A3.3,3.3,0,0,0,13,17a.66.66,0,0,0,.61.41.65.65,0,0,0,.61-.41,3.13,3.13,0,0,0,.2-1.33,3.22,3.22,0,0,0-.2-1.37.64.64,0,0,0-.61-.41Z"/><polygon class="cls-5" points="17.38 13.49 17.38 17.83 16.8 17.83 16.8 14.14 15.79 14.75 15.55 14.31 16.87 13.49 17.38 13.49"/><path class="cls-5" d="M19.88,13.42A1.22,1.22,0,0,1,21,14a3.12,3.12,0,0,1,.37,1.68A3.09,3.09,0,0,1,21,17.32a1.3,1.3,0,0,1-2.17,0,3.09,3.09,0,0,1-.37-1.64A3.12,3.12,0,0,1,18.8,14a1.21,1.21,0,0,1,1.08-.58Zm0,.48a.65.65,0,0,0-.61.41,3.39,3.39,0,0,0-.2,1.37,3.3,3.3,0,0,0,.2,1.33.66.66,0,0,0,.61.41.64.64,0,0,0,.61-.41,3.1,3.1,0,0,0,.21-1.33,3.19,3.19,0,0,0-.21-1.37.63.63,0,0,0-.61-.41Z"/><polygon class="cls-5" points="23.61 13.49 23.61 17.83 23.03 17.83 23.03 14.14 22.02 14.75 21.78 14.31 23.1 13.49 23.61 13.49"/><polygon class="cls-5" points="13.92 18.62 13.92 22.96 13.35 22.96 13.35 19.27 12.33 19.88 12.09 19.44 13.41 18.62 13.92 18.62"/><path class="cls-5" d="M16.46,18.55a1.22,1.22,0,0,1,1.09.58,3.22,3.22,0,0,1,.37,1.68,3.16,3.16,0,0,1-.37,1.64,1.3,1.3,0,0,1-2.17,0A3.06,3.06,0,0,1,15,20.81a3.12,3.12,0,0,1,.37-1.68,1.21,1.21,0,0,1,1.08-.58Zm0,.48a.65.65,0,0,0-.61.41,3.39,3.39,0,0,0-.2,1.37,3.3,3.3,0,0,0,.2,1.33.66.66,0,0,0,.61.41.65.65,0,0,0,.61-.41,3.1,3.1,0,0,0,.21-1.33,3.19,3.19,0,0,0-.21-1.37.64.64,0,0,0-.61-.41Z"/><polygon class="cls-5" points="20.16 18.62 20.16 22.96 19.58 22.96 19.58 19.27 18.56 19.88 18.33 19.44 19.65 18.62 20.16 18.62"/><path class="cls-5" d="M22.7,18.55a1.21,1.21,0,0,1,1.08.58,3.12,3.12,0,0,1,.37,1.68,3.06,3.06,0,0,1-.37,1.64,1.3,1.3,0,0,1-2.17,0,3.06,3.06,0,0,1-.37-1.64,3.12,3.12,0,0,1,.37-1.68,1.22,1.22,0,0,1,1.09-.58Zm0,.48a.63.63,0,0,0-.61.41,3.19,3.19,0,0,0-.21,1.37,3.1,3.1,0,0,0,.21,1.33.64.64,0,0,0,.61.41.66.66,0,0,0,.61-.41,3.3,3.3,0,0,0,.2-1.33,3.39,3.39,0,0,0-.2-1.37A.65.65,0,0,0,22.7,19Z"/></g></g></svg>