<svg xmlns="http://www.w3.org/2000/svg" viewBox="0 0 37.86 38.6"><defs><style>.cls-1{fill:#f5c340;stroke:#f5c340;}.cls-1,.cls-2,.cls-3{stroke-miterlimit:10;}.cls-1,.cls-3{stroke-width:0.07px;}.cls-2{fill:#a9acb3;stroke:#a9acb3;stroke-width:0.5px;}.cls-3{fill:#fae780;stroke:#fae780;}.cls-4{fill:#71bfe8;}.cls-4,.cls-5{fill-rule:evenodd;}.cls-5{fill:#fff;}</style></defs><g id="Слой_2" data-name="Слой 2"><g id="Матрица_анимация" data-name="Матрица анимация"><g id="Слой_51" data-name="Слой 51"><rect class="cls-1" x="0.25" y="0.27" width="9.68" height="9.68" rx="0.89"/><rect class="cls-2" x="14.07" y="0.25" width="9.68" height="9.68" rx="0.89"/><rect class="cls-2" x="27.93" y="0.26" width="9.68" height="9.68" rx="0.89"/><rect class="cls-2" x="0.25" y="14.47" width="9.68" height="9.68" rx="0.89"/><rect class="cls-2" x="0.25" y="28.67" width="9.68" height="9.68" rx="0.89"/><rect class="cls-3" x="14.07" y="14.45" width="9.68" height="9.68" rx="0.89"/><rect class="cls-2" x="27.93" y="14.5" width="9.68" height="9.68" rx="0.89"/><rect class="cls-2" x="14.07" y="28.67" width="9.68" height="9.68" rx="0.89"/><rect class="cls-1" x="27.93" y="28.67" width="9.68" height="9.68" rx="0.89"/><path class="cls-4" d="M19,31.6A12.32,12.32,0,1,0,6.79,19.28,12.27,12.27,0,0,0,19,31.6Z"/><path class="cls-5" d="M25.42,18.65,20.56,15.8,15.69,13A.69.69,0,0,0,15,13a.74.74,0,0,0-.37.65V25a.74.74,0,0,0,.37.63.69.69,0,0,0,.73,0l4.87-2.83,4.86-2.85a.73.73,0,0,0,0-1.27Zm-1.65.44L20,16.91l-3.75-2.2a.25.25,0,0,0-.24,0,.22.22,0,0,0-.12.21v8.76a.22.22,0,0,0,.12.21.18.18,0,0,0,.24,0L20,21.71l3.76-2.2a.23.23,0,0,0,.12-.21.26.26,0,0,0-.12-.21Z"/></g></g></g></svg>