<?xml version="1.0" encoding="UTF-8"?>
<svg id="_Слой_2" data-name="Слой 2" xmlns="http://www.w3.org/2000/svg" viewBox="0 0 48.76 38.82">
  <defs>
    <style>
      .cls-1 {
        fill: #fff;
      }

      .cls-2 {
        fill: #acca7e;
        stroke-width: .67px;
      }

      .cls-2, .cls-3 {
        stroke: #fff;
      }

      .cls-2, .cls-4 {
        stroke-miterlimit: 10;
      }

      .cls-3 {
        fill: none;
        stroke-linecap: round;
        stroke-linejoin: round;
        stroke-width: 2.02px;
      }

      .cls-4 {
        fill: #a9acb3;
        stroke: #a9acb3;
        stroke-width: .25px;
      }
    </style>
  </defs>
  <g id="_Нос" data-name="Нос">
    <g id="_Текущее_значение" data-name="Текущее значение">
      <path class="cls-4" d="m24.39,1.13c7.86,2.3,13.29,9.34,13.69,17.58v1.67c-.3,5.09-2.22,9.39-5.75,12.9-3.36,3.34-7.75,5.18-12.47,5.42h-1.52c-2.79-.11-5.42-.82-7.86-2.08C4.25,33.33.34,27.11.13,19.99v-.85C.4,8.85,8.45.69,18.62.36h.92c1.65.05,3.28.3,4.85.77h0Zm-12.55,10.32c.3-.96-.62-1.89-1.57-1.48-.16.08-.38.25-.62.49-2.14,2.3-3.44,5.29-3.55,8.46-.14,3.83,1.11,7.12,3.74,9.89.95.96,2.49-.05,1.98-1.26-.14-.27-.33-.47-.54-.68-3.66-3.97-3.8-10.13-.33-14.27.27-.33.76-.77.89-1.15h0Zm14.56,16.13c-.38.9.52,1.89,1.46,1.56.38-.14.65-.47.92-.77,4.61-5.23,4.45-13.12-.41-18.13-1.11-1.1-2.79.38-1.74,1.67.14.14.24.27.38.41,3.8,4.27,3.61,10.57-.27,14.73-.19.19-.3.36-.35.52h0Zm-12.17-2.11c.87.25,1.87-.11,2.39-.85.49-.77.98-1.53,1.49-2.27,0-.03.03-.03.03-.05.08-.05.19-.05.27.03t.03.05c.49,1.26.87,2.63,2.3,3.01,1.68.49,2.6-.6,3.63-1.7.22-.27.38-.49.43-.66.3-.96-.73-1.89-1.68-1.4-.11.05-.24.16-.41.33-.33.33-.62.66-.92.99-.19.16-.46.25-.57-.03-.43-1.07-.89-2.14-1.33-3.18,0-.05,0-.11.03-.16l2.33-3.56s.08-.05.14-.05c.16,0,.35,0,.52-.03,1.38-.11,1.52-2,.22-2.33-.24-.08-.57-.05-.84-.05-1,.03-1.44.33-1.98,1.15-.46.66-.89,1.34-1.36,2-.03.05-.08.08-.14.08-.08,0-.14-.03-.16-.11-.3-.71-.6-1.42-.89-2.16-.24-.55-.57-.96-1.14-.96h-1.36c-.33,0-.57.03-.7.08-1,.36-1.08,1.78-.11,2.22.35.14.81.11,1.22.11.08,0,.14.03.16.11l1.36,3.29v.05l-2.41,3.64s-.05.05-.08.05c-.11,0-.22,0-.33.03-1.25.19-1.33,1.97-.14,2.33h0Z"/>
      <path class="cls-1" d="m10.27,9.97c.95-.41,1.87.52,1.57,1.48-.14.38-.62.82-.89,1.15-3.47,4.14-3.33,10.3.33,14.27.22.22.41.41.54.68.52,1.2-1.03,2.22-1.98,1.26-2.63-2.77-3.88-6.05-3.74-9.89.11-3.18,1.41-6.16,3.55-8.46.24-.25.46-.41.62-.49h0Z"/>
      <path class="cls-1" d="m27.86,29.14c-.95.33-1.84-.66-1.46-1.56.05-.16.16-.33.35-.52,3.88-4.16,4.07-10.46.27-14.73-.14-.14-.24-.27-.38-.41-1.06-1.29.62-2.77,1.74-1.67,4.85,5.01,5.02,12.9.41,18.13-.27.3-.54.63-.92.77h0Z"/>
      <path class="cls-1" d="m16.61,24.62c-.52.74-1.52,1.1-2.39.85-1.19-.36-1.11-2.14.14-2.33.11-.03.22-.03.33-.03.03,0,.05-.03.08-.05l2.41-3.64v-.05l-1.36-3.29c-.03-.08-.08-.11-.16-.11-.41,0-.87.03-1.22-.11-.98-.44-.89-1.86.11-2.22.14-.05.38-.08.7-.08h1.36c.57,0,.89.41,1.14.96.3.74.6,1.45.89,2.16.03.08.08.11.16.11.05,0,.11-.03.14-.08.46-.66.89-1.34,1.36-2,.54-.82.98-1.12,1.98-1.15.27,0,.6-.03.84.05,1.3.33,1.17,2.22-.22,2.33-.16.03-.35.03-.52.03-.05,0-.11.03-.14.05l-2.33,3.56c-.03.05-.03.11-.03.16.43,1.04.89,2.11,1.33,3.18.11.27.38.19.57.03.3-.33.6-.66.92-.99.16-.16.3-.27.41-.33.95-.49,1.98.44,1.68,1.4-.05.16-.22.38-.43.66-1.03,1.1-1.95,2.19-3.63,1.7-1.44-.38-1.82-1.75-2.3-3.01t-.03-.05c-.08-.08-.19-.08-.27-.03,0,.03-.03.03-.03.05-.52.74-1,1.51-1.49,2.27h0Z"/>
    </g>
    <g id="_Прочитать_значение" data-name="Прочитать значение">
      <circle class="cls-2" cx="39.76" cy="9" r="8.66"/>
      <polyline class="cls-3" points="35.65 9.17 38.55 12.08 44.19 6.44"/>
    </g>
  </g>
</svg>