<?xml version="1.0" encoding="UTF-8"?>
<svg id="_Слой_2" data-name="Слой 2" xmlns="http://www.w3.org/2000/svg" viewBox="0 0 42.07 41.58">
  <defs>
    <style>
      .cls-1 {
        fill: #57676c;
      }

      .cls-1, .cls-2 {
        fill-rule: evenodd;
      }

      .cls-3 {
        fill: none;
        stroke: #9bc765;
        stroke-linecap: round;
        stroke-linejoin: round;
        stroke-width: 4px;
      }

      .cls-2 {
        fill: #f0f4f7;
      }
    </style>
  </defs>
  <g id="_Слой_46" data-name="Слой 46">
    <g>
      <path class="cls-2" d="m40.06,21.1c.79-10.05-8.84-19.55-18.52-18.7-8.45.04-14.32,5.33-16.89,11.05-6.82,15.38,8.64,31.76,24.59,24.67,6.31-2.8,11.1-9.93,10.83-17.02h0Z"/>
      <path class="cls-1" d="m20.71,23.15l6.6,6.63c.14.17.38.17.52,0l1.45-1.47c.17-.14.17-.38,0-.52l-6.39-6.49c.14-.7-.31-1.64-.93-2.02v-9.18c0-.21-.17-.35-.38-.35h-1.76c-.21,0-.38.14-.38.35v9.43c-.86.77-1,2.16-.07,3.04.28.31.8.56,1.35.59h0Z"/>
    </g>
    <g>
      <polyline class="cls-3" points="28.54 8.56 35.15 8.56 35.15 2"/>
      <path class="cls-3" d="m38.88,14.96s5.75,13.98-8.05,22.17c0,0-11.53,6.77-22.22-2.24-1.03-.87-1.93-1.89-2.74-2.98h0c-2.98-4.01-4.4-9.03-3.7-13.98.64-4.48,2.92-9.53,9.07-13.18,0,0,12.77-7.51,23.9,3.8"/>
    </g>
  </g>
</svg>