<svg xmlns="http://www.w3.org/2000/svg" viewBox="0 0 30.3 30.89"><defs><style>.cls-1{fill:#9bcb64;fill-rule:evenodd;}.cls-2{fill:#fefefe;}.cls-3{fill:none;stroke:#fefefe;stroke-miterlimit:10;stroke-width:0.23px;}</style></defs><g id="Слой_2" data-name="Слой 2"><g id="Слой_1-2" data-name="Слой 1"><path class="cls-1" d="M15,0h.76A15.37,15.37,0,0,1,30.3,14.8v1.26A15.32,15.32,0,0,1,15.7,30.89H15A15.3,15.3,0,0,1,0,15.6v-.31A15.43,15.43,0,0,1,4,5,14.92,14.92,0,0,1,15,0Z"/><path class="cls-2" d="M14,7a4.58,4.58,0,0,1,2.1.48,3.48,3.48,0,0,1,1.42,1.29A3.24,3.24,0,0,1,18,10.59,3.63,3.63,0,0,1,17.21,13,10,10,0,0,1,14.94,15l3.85,3.95a18.42,18.42,0,0,0,1.34-4l1.9.6a18.93,18.93,0,0,1-2,4.7l2.5,2.49-1.45,1.28L18.94,21.7a6.18,6.18,0,0,1-4.88,2.23,5.62,5.62,0,0,1-2.55-.54,4.32,4.32,0,0,1-1.76-1.57,4.24,4.24,0,0,1-.62-2.32,4.5,4.5,0,0,1,.76-2.61,11,11,0,0,1,2.3-2.15,11.07,11.07,0,0,1-1.62-2,4.11,4.11,0,0,1-.51-2.06,3.49,3.49,0,0,1,1-2.63A3.9,3.9,0,0,1,14,7Zm0,1.63a1.87,1.87,0,0,0-1.44.57,2,2,0,0,0-.54,1.46,2.68,2.68,0,0,0,.42,1.55,7.62,7.62,0,0,0,1.33,1.6,7.39,7.39,0,0,0,1.68-1.46,2.5,2.5,0,0,0,.56-1.6,2,2,0,0,0-.56-1.55A1.82,1.82,0,0,0,14,8.59ZM13.38,16a5.7,5.7,0,0,0-1.64,1.6,3.22,3.22,0,0,0-.54,1.86,2.59,2.59,0,0,0,.85,2.06,3.31,3.31,0,0,0,2.24.72,4,4,0,0,0,1.87-.43,6,6,0,0,0,1.61-1.29Z"/><path class="cls-3" d="M14,7a4.58,4.58,0,0,1,2.1.48,3.48,3.48,0,0,1,1.42,1.29A3.24,3.24,0,0,1,18,10.59,3.63,3.63,0,0,1,17.21,13,10,10,0,0,1,14.94,15l3.85,3.95a18.42,18.42,0,0,0,1.34-4l1.9.6a18.93,18.93,0,0,1-2,4.7l2.5,2.49-1.45,1.28L18.94,21.7a6.18,6.18,0,0,1-4.88,2.23,5.62,5.62,0,0,1-2.55-.54,4.32,4.32,0,0,1-1.76-1.57,4.24,4.24,0,0,1-.62-2.32,4.5,4.5,0,0,1,.76-2.61,11,11,0,0,1,2.3-2.15,11.07,11.07,0,0,1-1.62-2,4.11,4.11,0,0,1-.51-2.06,3.49,3.49,0,0,1,1-2.63A3.9,3.9,0,0,1,14,7Zm0,1.63a1.87,1.87,0,0,0-1.44.57,2,2,0,0,0-.54,1.46,2.68,2.68,0,0,0,.42,1.55,7.62,7.62,0,0,0,1.33,1.6,7.39,7.39,0,0,0,1.68-1.46,2.5,2.5,0,0,0,.56-1.6,2,2,0,0,0-.56-1.55A1.82,1.82,0,0,0,14,8.59ZM13.38,16a5.7,5.7,0,0,0-1.64,1.6,3.22,3.22,0,0,0-.54,1.86,2.59,2.59,0,0,0,.85,2.06,3.31,3.31,0,0,0,2.24.72,4,4,0,0,0,1.87-.43,6,6,0,0,0,1.61-1.29Z"/></g></g></svg>