<svg xmlns="http://www.w3.org/2000/svg" viewBox="0 0 29.2 40.08"><defs><style>.cls-1{fill:#71bbd1;}.cls-1,.cls-2,.cls-3,.cls-4{fill-rule:evenodd;}.cls-2{fill:#35acb2;}.cls-3{fill:#fefefe;}.cls-4{fill:#f6f6f6;}.cls-5{fill:#141515;stroke:#141515;stroke-miterlimit:10;stroke-width:0.4px;}</style></defs><g id="Слой_2" data-name="Слой 2"><g id="Слой_1-2" data-name="Слой 1"><path class="cls-1" d="M1.62,0h26A1.63,1.63,0,0,1,29.2,1.66V38.45a1.62,1.62,0,0,1-1.62,1.63h-26A1.62,1.62,0,0,1,0,38.45V1.66A1.63,1.63,0,0,1,1.62,0Z"/><path class="cls-2" d="M18.34,29.58h3.91A2.4,2.4,0,0,1,24.66,32v4a2.45,2.45,0,0,1-2.41,2.46H18.34A2.45,2.45,0,0,1,15.93,36V32a2.4,2.4,0,0,1,2.41-2.43Z"/><path class="cls-3" d="M18.11,32h4.4a.57.57,0,0,1,.54.57V33a.55.55,0,0,1-.54.55h-4.4a.53.53,0,0,1-.54-.55v-.37a.55.55,0,0,1,.54-.57Z"/><path class="cls-3" d="M18.11,34.53h4.4a.57.57,0,0,1,.54.54v.4a.57.57,0,0,1-.54.55h-4.4a.55.55,0,0,1-.54-.55v-.4a.54.54,0,0,1,.54-.54Z"/><path class="cls-2" d="M6.94,17.92h4a2.44,2.44,0,0,1,2.38,2.44v4a2.44,2.44,0,0,1-2.38,2.47H6.94a2.46,2.46,0,0,1-2.4-2.47v-4a2.46,2.46,0,0,1,2.4-2.44Z"/><path class="cls-3" d="M6.77,21.67H8.25V20.18a.53.53,0,0,1,.54-.54h.39a.51.51,0,0,1,.51.54v1.49h1.48a.55.55,0,0,1,.54.55v.4a.53.53,0,0,1-.54.54H9.69v1.52a.53.53,0,0,1-.51.54H8.79a.54.54,0,0,1-.54-.54V23.16H6.77a.54.54,0,0,1-.53-.54v-.4a.56.56,0,0,1,.53-.55Z"/><path class="cls-2" d="M6.94,29.58h4A2.39,2.39,0,0,1,13.27,32v4a2.44,2.44,0,0,1-2.38,2.46H6.94A2.46,2.46,0,0,1,4.54,36V32a2.41,2.41,0,0,1,2.4-2.43Z"/><path class="cls-3" d="M6.83,35.07l1-1.06L6.83,33a.57.57,0,0,1,0-.77l.26-.29a.6.6,0,0,1,.79,0L8.9,33l1-1.06a.53.53,0,0,1,.74,0l.28.29A.57.57,0,0,1,11,33L9.92,34,11,35.07a.58.58,0,0,1,0,.78l-.28.25a.48.48,0,0,1-.74,0L8.9,35l-1,1.06a.54.54,0,0,1-.79,0l-.26-.25a.58.58,0,0,1,0-.78Z"/><path class="cls-2" d="M18.34,17.92h3.91a2.44,2.44,0,0,1,2.41,2.44v4a2.45,2.45,0,0,1-2.41,2.47H18.34a2.45,2.45,0,0,1-2.41-2.47v-4a2.44,2.44,0,0,1,2.41-2.44Z"/><path class="cls-3" d="M18.11,21.64h4.4a.57.57,0,0,1,.54.55v.37a.54.54,0,0,1-.54.54h-4.4a.52.52,0,0,1-.54-.54v-.37a.55.55,0,0,1,.54-.55Z"/><path class="cls-4" d="M4.39,3.24H24.8a1.09,1.09,0,0,1,1.05,1.08V14.57a1.09,1.09,0,0,1-1.05,1.12H4.39a1.09,1.09,0,0,1-1-1.12V4.32a1.1,1.1,0,0,1,1-1.08Z"/><path class="cls-5" d="M10.23,7.47V6.9l.54-.11V11a.44.44,0,0,0,.09.31.32.32,0,0,0,.25.09,1.77,1.77,0,0,0,.37-.06l.14.4a.84.84,0,0,1-.25.09,1.44,1.44,0,0,1-.31,0,.78.78,0,0,1-.6-.23.74.74,0,0,1-.23-.63ZM9.64,7.3a3,3,0,0,0-.57-.06c-.48,0-.74.2-.74.58v.43h.83L9.1,8.7H8.33v3.07H7.77V8.7h-.6V8.25h.6V7.84a.92.92,0,0,1,.37-.77A1.3,1.3,0,0,1,9,6.79a2.42,2.42,0,0,1,.63.08Zm3.77.89a1.34,1.34,0,0,1,1.1.48A2.1,2.1,0,0,1,14.88,10a2.13,2.13,0,0,1-.37,1.32,1.36,1.36,0,0,1-1.1.51,1.48,1.48,0,0,1-1.14-.48A2.22,2.22,0,0,1,11.91,10a2,2,0,0,1,.39-1.35,1.38,1.38,0,0,1,1.11-.48Zm0,.46a.74.74,0,0,0-.68.34,2,2,0,0,0-.23,1,2,2,0,0,0,.23,1,.74.74,0,0,0,.68.34.72.72,0,0,0,.65-.34,1.73,1.73,0,0,0,.23-1,1.73,1.73,0,0,0-.23-1,.72.72,0,0,0-.65-.34Zm5,2.34a.51.51,0,0,0,.08.32.38.38,0,0,0,.2.14l-.14.4a.66.66,0,0,1-.62-.51,1.26,1.26,0,0,1-.46.37,1.44,1.44,0,0,1-.62.14,1.08,1.08,0,0,1-.82-.31,1,1,0,0,1-.31-.77,1,1,0,0,1,.42-.84,2,2,0,0,1,1.19-.28h.51V9.36a.63.63,0,0,0-.2-.54A.92.92,0,0,0,17,8.65a2.77,2.77,0,0,0-.91.17l-.14-.4a3,3,0,0,1,1.13-.23,1.36,1.36,0,0,1,1,.28,1.06,1.06,0,0,1,.34.83Zm-1.45.43a1.09,1.09,0,0,0,.51-.14,1.1,1.1,0,0,0,.37-.34V10h-.48a1.16,1.16,0,0,0-.79.2.62.62,0,0,0-.26.55.59.59,0,0,0,.65.65ZM22,11.6a1.11,1.11,0,0,1-.43.17,1.81,1.81,0,0,1-.51.08,1.27,1.27,0,0,1-.85-.28,1.06,1.06,0,0,1-.31-.78V8.7h-.8V8.25h.8V7.47l.56-.08v.86h1.2l-.06.45H20.49v2.09c0,.2,0,.35.15.43a.65.65,0,0,0,.51.15,1.9,1.9,0,0,0,.68-.15Z"/></g></g></svg>