<svg xmlns="http://www.w3.org/2000/svg" viewBox="0 0 29.2 40.08"><defs><style>.cls-1{fill:#9bcb64;}.cls-1,.cls-2,.cls-3,.cls-4{fill-rule:evenodd;}.cls-2{fill:#7cb242;}.cls-3{fill:#fefefe;}.cls-4{fill:#f6f6f6;}.cls-5{fill:#141515;}.cls-6{fill:none;stroke:#141515;stroke-miterlimit:10;stroke-width:0.4px;}</style></defs><g id="Слой_2" data-name="Слой 2"><g id="Слой_1-2" data-name="Слой 1"><path class="cls-1" d="M1.59,0h26A1.65,1.65,0,0,1,29.2,1.66V38.45a1.62,1.62,0,0,1-1.62,1.63h-26A1.6,1.6,0,0,1,0,38.45V1.66A1.62,1.62,0,0,1,1.59,0Z"/><path class="cls-2" d="M18.34,29.58h3.91A2.42,2.42,0,0,1,24.66,32v4a2.45,2.45,0,0,1-2.41,2.46H18.34A2.45,2.45,0,0,1,15.93,36V32a2.42,2.42,0,0,1,2.41-2.43Z"/><path class="cls-3" d="M18.11,32h4.4a.57.57,0,0,1,.54.57V33a.55.55,0,0,1-.54.55h-4.4a.53.53,0,0,1-.54-.55v-.37a.55.55,0,0,1,.54-.57Z"/><path class="cls-3" d="M18.11,34.53h4.4a.57.57,0,0,1,.54.54v.4a.57.57,0,0,1-.54.55h-4.4a.55.55,0,0,1-.54-.55v-.4a.54.54,0,0,1,.54-.54Z"/><path class="cls-2" d="M6.94,17.92h4a2.44,2.44,0,0,1,2.38,2.46v4a2.44,2.44,0,0,1-2.38,2.47H6.94a2.44,2.44,0,0,1-2.4-2.47v-4a2.44,2.44,0,0,1,2.4-2.46Z"/><path class="cls-3" d="M6.77,21.67H8.25V20.18a.52.52,0,0,1,.51-.54h.42a.51.51,0,0,1,.51.54v1.49h1.48a.57.57,0,0,1,.54.55v.4a.54.54,0,0,1-.54.54H9.69v1.52a.53.53,0,0,1-.51.54H8.76a.53.53,0,0,1-.51-.54V23.16H6.77a.54.54,0,0,1-.53-.54v-.4a.56.56,0,0,1,.53-.55Z"/><path class="cls-2" d="M6.94,29.58h4A2.41,2.41,0,0,1,13.27,32v4a2.44,2.44,0,0,1-2.38,2.46H6.94A2.44,2.44,0,0,1,4.54,36V32a2.41,2.41,0,0,1,2.4-2.43Z"/><path class="cls-3" d="M6.83,35.07l1-1.06L6.83,33a.57.57,0,0,1,0-.77l.26-.29a.56.56,0,0,1,.76,0L8.9,33l1-1.06a.53.53,0,0,1,.74,0l.28.29A.57.57,0,0,1,11,33L9.92,34,11,35.07a.58.58,0,0,1,0,.78l-.28.28a.53.53,0,0,1-.74,0l-1-1.06L7.85,36.13a.56.56,0,0,1-.76,0l-.26-.28a.58.58,0,0,1,0-.78Z"/><path class="cls-2" d="M18.34,17.92h3.91a2.45,2.45,0,0,1,2.41,2.46v4a2.45,2.45,0,0,1-2.41,2.47H18.34a2.45,2.45,0,0,1-2.41-2.47v-4a2.45,2.45,0,0,1,2.41-2.46Z"/><path class="cls-3" d="M18.11,21.64h4.4a.57.57,0,0,1,.54.55v.4a.56.56,0,0,1-.54.54h-4.4a.54.54,0,0,1-.54-.54v-.4a.55.55,0,0,1,.54-.55Z"/><path class="cls-4" d="M4.39,3.26H24.8a1.08,1.08,0,0,1,1.05,1.09V14.6a1.08,1.08,0,0,1-1.05,1.09H4.39a1.08,1.08,0,0,1-1-1.09V4.35a1.08,1.08,0,0,1,1-1.09Z"/><path class="cls-5" d="M10.32,6.61a.32.32,0,0,1,.28.12.31.31,0,0,1,.11.28.36.36,0,0,1-.11.29.41.41,0,0,1-.28.09A.42.42,0,0,1,10,7.3.39.39,0,0,1,9.92,7,.34.34,0,0,1,10,6.73a.33.33,0,0,1,.29-.12Zm.45,4.7h1v.46H9.13v-.46H10.2V8.7h-1V8.25h1.61Z"/><path class="cls-5" d="M13,8.25h.49l.05.48a1.42,1.42,0,0,1,.51-.4,1.31,1.31,0,0,1,.63-.14.9.9,0,0,1,1,1v2.55h-.57V9.62A3.28,3.28,0,0,0,15,9a.43.43,0,0,0-.17-.29.55.55,0,0,0-.39-.11,1,1,0,0,0-.54.17,1.37,1.37,0,0,0-.4.43v2.55H13Z"/><path class="cls-5" d="M19.67,11.6a1,1,0,0,1-.42.17,1.81,1.81,0,0,1-.51.08,1.15,1.15,0,0,1-.85-.31.87.87,0,0,1-.32-.75V8.7h-.82V8.25h.82V7.44l.54-.05v.86h1.22l-.08.45H18.11v2.09a.51.51,0,0,0,.17.43c.09.12.26.15.51.15a1.28,1.28,0,0,0,.66-.18Z"/><path class="cls-6" d="M10.32,6.61a.32.32,0,0,1,.28.12.31.31,0,0,1,.11.28.36.36,0,0,1-.11.29.41.41,0,0,1-.28.09A.42.42,0,0,1,10,7.3.39.39,0,0,1,9.92,7,.34.34,0,0,1,10,6.73a.33.33,0,0,1,.29-.12Zm.45,4.7h1v.46H9.13v-.46H10.2V8.7h-1V8.25h1.61Z"/><path class="cls-6" d="M13,8.25h.49l.05.48a1.42,1.42,0,0,1,.51-.4,1.31,1.31,0,0,1,.63-.14.9.9,0,0,1,1,1v2.55h-.57V9.62A3.28,3.28,0,0,0,15,9a.43.43,0,0,0-.17-.29.55.55,0,0,0-.39-.11,1,1,0,0,0-.54.17,1.37,1.37,0,0,0-.4.43v2.55H13Z"/><path class="cls-6" d="M19.67,11.6a1,1,0,0,1-.42.17,1.81,1.81,0,0,1-.51.08,1.15,1.15,0,0,1-.85-.31.87.87,0,0,1-.32-.75V8.7h-.82V8.25h.82V7.44l.54-.05v.86h1.22l-.08.45H18.11v2.09a.51.51,0,0,0,.17.43c.09.12.26.15.51.15a1.28,1.28,0,0,0,.66-.18Z"/></g></g></svg>