<svg xmlns="http://www.w3.org/2000/svg" viewBox="0 0 39.69 40.08"><defs><style>.cls-1{fill:#9bcb64;}.cls-2{fill:#fefefe;}</style></defs><g id="Слой_2" data-name="Слой 2"><g id="Слой_1-2" data-name="Слой 1"><path class="cls-1" d="M19.64,0h1a20,20,0,0,1,19,19.18v1.66A20,20,0,0,1,20.58,40.08h-1A20,20,0,0,1,0,20.24v-.43A20,20,0,0,1,5.22,6.53,19.71,19.71,0,0,1,19.64,0Z"/><path class="cls-2" d="M28.09,28.37a1.24,1.24,0,0,1-1.39.26,2.21,2.21,0,0,1-.79-.63c-2-2-4-4-6-6.07,0,0,0,0-.06,0-2.09,2.12-4.19,4.27-6.29,6.39a1.31,1.31,0,0,1-2.15-1.44,2.53,2.53,0,0,1,.54-.65c2-2.07,4.05-4.1,6.06-6.16,0,0,0,0,0-.06L12.1,14.09a3.37,3.37,0,0,1-.76-1,1.23,1.23,0,0,1,.28-1.37,0,0,0,0,0,0,0A1.37,1.37,0,0,1,13,11.42a3.62,3.62,0,0,1,.88.72c2,2,3.94,4,5.92,6,0,0,.06,0,.06,0,2.1-2.09,4.2-4.21,6.29-6.32a1.33,1.33,0,0,1,2.19,1.46,4.7,4.7,0,0,1-.54.63L21.74,20s0,.06,0,.06c2,2,3.94,4,5.93,6a3,3,0,0,1,.7.92,1.25,1.25,0,0,1-.25,1.37,0,0,0,0,0,0,0Z"/></g></g></svg>