<svg xmlns="http://www.w3.org/2000/svg" viewBox="0 0 39.69 40.08"><defs><style>.cls-1{fill:#f1c61c;}.cls-1,.cls-2,.cls-3,.cls-4{fill-rule:evenodd;}.cls-2{fill:#a8acb3;}.cls-3{fill:#dd6854;}.cls-4{fill:#fefefe;}</style></defs><g id="Слой_2" data-name="Слой 2"><g id="Слой_1-2" data-name="Слой 1"><path class="cls-1" d="M10.37,27.71v7.51a.58.58,0,0,0,.57.57h17.8a.57.57,0,0,0,.57-.57v-.49H29c-.26,0-1.28.08-1.16-.49,0-.08.76-1.26,1.67-2.66,1.67-2.52,1.67-2.52,1.9-2.52s.25,0,1.9,2.52c.9,1.4,1.67,2.58,1.7,2.66.08.57-.91.49-1.19.49h-.26v3.35a2,2,0,0,1-2,2H8.11a2,2,0,0,1-2-2V27.71a2,2,0,0,1,2-2h.28a2,2,0,0,1,2,2Z"/><path class="cls-2" d="M8.5,28.63a8.59,8.59,0,0,0,0-17.18,8.59,8.59,0,0,0,0,17.18Z"/><path class="cls-1" d="M29.31,12.4V4.87a.57.57,0,0,0-.57-.58H10.94a.58.58,0,0,0-.57.58v.51h.32c.25,0,1.27-.11,1.16.49,0,.06-.77,1.26-1.67,2.63C8.53,11,8.53,11,8.28,11S8,11,6.38,8.5c-.91-1.37-1.67-2.57-1.7-2.63-.09-.6.9-.49,1.19-.49h.25V2a2,2,0,0,1,2-2H31.58a2,2,0,0,1,2,2V12.4a2,2,0,0,1-2,2h-.29a2,2,0,0,1-2-2Z"/><path class="cls-3" d="M31.18,28.63A8.59,8.59,0,1,0,22.68,20a8.57,8.57,0,0,0,8.5,8.59Z"/><path class="cls-4" d="M27.75,18.87h2.3V16.55a.83.83,0,0,1,.82-.83h.62a.82.82,0,0,1,.82.83v2.32h2.3a.85.85,0,0,1,.82.86v.63a.86.86,0,0,1-.82.86h-2.3v2.31a.85.85,0,0,1-.82.86h-.62a.85.85,0,0,1-.82-.86V21.22h-2.3a.86.86,0,0,1-.82-.86v-.63a.85.85,0,0,1,.82-.86Z"/><path class="cls-4" d="M5.07,18.87h6.86a.85.85,0,0,1,.83.86v.63a.86.86,0,0,1-.83.86H5.07a.86.86,0,0,1-.82-.86v-.63a.85.85,0,0,1,.82-.86Z"/></g></g></svg>