<svg xmlns="http://www.w3.org/2000/svg" viewBox="0 0 30.3 30.89"><defs><style>.cls-1{fill:#9bcb64;}.cls-1,.cls-2,.cls-3{fill-rule:evenodd;}.cls-2,.cls-3{fill:#fefefe;}.cls-2{stroke:#fefefe;stroke-miterlimit:10;stroke-width:0.31px;}</style></defs><g id="Слой_2" data-name="Слой 2"><g id="Слой_1-2" data-name="Слой 1"><path class="cls-1" d="M15,0h.76A15.37,15.37,0,0,1,30.3,14.8v1.26A15.32,15.32,0,0,1,15.7,30.89H15A15.3,15.3,0,0,1,0,15.6v-.31A15.43,15.43,0,0,1,4,5,14.92,14.92,0,0,1,15,0Z"/><path class="cls-2" d="M8.11,24.65a1,1,0,0,1-.63-1,.8.8,0,0,1,.15-.6,1.11,1.11,0,0,1,.79-.52c.31,0,.31,0,1.42-1.74C10.43,19.84,11,19,11,19a10.14,10.14,0,0,0-.62-1.72c-.66-1.54-.66-1.54-1.25-1.6s-.91-.12-1.16-.63a1,1,0,0,1,.17-1.2c.31-.35.56-.4,1.56-.4,1.47,0,1.53,0,2.26,1.83a9.29,9.29,0,0,0,.6,1.34l.91-1.31c.9-1.43,1.13-1.66,1.81-1.81a3.45,3.45,0,0,1,1.62.09,1,1,0,0,1,.53,1,1.08,1.08,0,0,1-1.13,1.12c-.45,0-.45,0-1,.83-.28.46-.79,1.26-1.11,1.74-.59.95-.59.95,0,2.5s.71,1.71.88,1.71a4.52,4.52,0,0,0,.8-.71,2.7,2.7,0,0,1,.93-.78,1.09,1.09,0,0,1,1.36,1.32,6.44,6.44,0,0,1-1.67,2,2.36,2.36,0,0,1-3.2-.4,3.84,3.84,0,0,1-.8-1.38c-.22-.57-.42-1-.45-.94s-.43.63-.91,1.34c-.88,1.38-1.13,1.63-1.73,1.78a2.17,2.17,0,0,1-1.27-.06Z"/><path class="cls-3" d="M18.85,12.28l.09-.08h1.24a.17.17,0,0,1,.17.17s0,.06,0,.11a.11.11,0,0,1,0,.09.27.27,0,0,1-.05.11.16.16,0,0,1-.12.06,2,2,0,0,1-.62,0,2,2,0,0,1-.6,0,.15.15,0,0,1-.11-.06.2.2,0,0,1-.06-.11.15.15,0,0,1,0-.09.18.18,0,0,1,0-.11s0-.06.06-.09Z"/><path class="cls-3" d="M22.34,11.17a.2.2,0,0,1,.11-.06l.09,0s.05,0,.08,0,.06,0,.09.06.05.05.08.08,0,.06,0,.37a1.44,1.44,0,0,1,0,.43.76.76,0,0,1-.06.26.63.63,0,0,1-.17.2.38.38,0,0,1-.19.14.84.84,0,0,1-.23.09,1.48,1.48,0,0,1-.43,0c-.31,0-.34,0-.37-.06a.24.24,0,0,1-.11-.06s0-.08,0-.11,0-.09,0-.11a.16.16,0,0,1,.06-.12s.06-.06.08-.08.06,0,.4,0a1.59,1.59,0,0,0,.37,0s.06-.06.09-.06a.14.14,0,0,1,.05-.09v-.37c0-.2,0-.31,0-.37a.17.17,0,0,1,.06-.11Z"/><path class="cls-3" d="M16.44,11.17s.06-.06.09-.06a.22.22,0,0,1,.08,0l.09,0s.05,0,.11.06a.25.25,0,0,1,.06.14s0,.17,0,.37V12s.06.06.06.09.06,0,.09.06a1.44,1.44,0,0,0,.36,0c.34,0,.37,0,.4,0s.09,0,.09.08a.19.19,0,0,1,.05.12s0,.05,0,.11,0,.09,0,.11a.17.17,0,0,1-.11.06s-.06,0-.37.06a1.4,1.4,0,0,1-.42,0,.73.73,0,0,1-.23-.09.46.46,0,0,1-.2-.14,1.06,1.06,0,0,1-.17-.2.75.75,0,0,1-.05-.26,1.44,1.44,0,0,1,0-.43c0-.31,0-.31,0-.37s.05-.08.08-.08Z"/><path class="cls-3" d="M22.34,8.7s.05,0,.08,0a.18.18,0,0,1,.12,0,.17.17,0,0,1,.11,0,.1.1,0,0,1,.08,0,.16.16,0,0,1,.06.12,2.11,2.11,0,0,1,0,.63,2.11,2.11,0,0,1,0,.63.2.2,0,0,1-.06.11s-.05.06-.08.06l-.11,0-.12,0-.08-.09s-.06-.05-.06-.08,0-.29,0-.63,0-.6,0-.63a.23.23,0,0,1,.06-.12Z"/><path class="cls-3" d="M16.41,8.7a.14.14,0,0,1,.09,0s.05,0,.11,0,.09,0,.11,0,.06,0,.09,0a.23.23,0,0,1,.06.12s0,.28,0,.63,0,.6,0,.63,0,.06-.06.08l-.09.09-.11,0-.11,0s-.06,0-.09-.06a.18.18,0,0,1-.05-.11,2.11,2.11,0,0,1,0-.63,2.11,2.11,0,0,1,0-.63.15.15,0,0,1,.05-.12Z"/><path class="cls-3" d="M21.32,6.18a.11.11,0,0,1,.08,0,2.24,2.24,0,0,1,.34,0c.2,0,.34,0,.4,0a.32.32,0,0,1,.23.08.33.33,0,0,1,.19.14.54.54,0,0,1,.17.2.88.88,0,0,1,.06.26,1.48,1.48,0,0,1,0,.43c0,.32,0,.32,0,.37s-.06.09-.08.09a.16.16,0,0,1-.12.06s-.05,0-.11,0a.17.17,0,0,1-.11-.06s-.06-.06-.06-.09,0-.08-.06-.4,0-.37,0-.4a.12.12,0,0,1,0,0s-.06,0-.09-.06a1.59,1.59,0,0,0-.37,0c-.34,0-.37,0-.4,0s-.08-.06-.08-.09a.12.12,0,0,1-.06-.11s0-.06,0-.11,0-.09,0-.12.06-.06.09-.06Z"/><path class="cls-3" d="M18.85,6.21a.14.14,0,0,1,.09,0,2,2,0,0,1,.62,0,2,2,0,0,1,.62,0,.15.15,0,0,1,.12,0s.05.06.05.09a.15.15,0,0,1,0,.11c0,.06,0,.09,0,.12a.27.27,0,0,1-.05.11s-.09,0-.12.06H19s-.08,0-.11-.06a.2.2,0,0,1-.06-.11.2.2,0,0,1,0-.12.22.22,0,0,1,0-.11s0-.06.06-.09Z"/><path class="cls-3" d="M16.78,6.24a.29.29,0,0,1,.2-.08c.08,0,.2,0,.45,0s.34,0,.37,0a.17.17,0,0,1,.11.06s0,.09,0,.12,0,.08,0,.11a.14.14,0,0,1-.05.11s-.06.06-.09.09-.06,0-.4,0a1.44,1.44,0,0,0-.36,0s-.06.06-.09.06,0,0,0,0,0,.15,0,.4,0,.35-.05.4,0,.09-.06.09a.2.2,0,0,1-.11.06c-.06,0-.09,0-.12,0a.15.15,0,0,1-.11-.06s-.06-.06-.08-.09,0,0,0-.37a1.48,1.48,0,0,1,0-.43.85.85,0,0,1,.05-.26.82.82,0,0,1,.17-.2.39.39,0,0,1,.2-.14Z"/></g></g></svg>