<svg xmlns="http://www.w3.org/2000/svg" viewBox="0 0 30.27 30.89"><defs><style>.cls-1{fill:#9bcb64;fill-rule:evenodd;}.cls-2{fill:#fefefe;}.cls-3{fill:none;stroke:#fefefe;stroke-miterlimit:10;stroke-width:0.74px;}</style></defs><g id="Слой_2" data-name="Слой 2"><g id="Слой_1-2" data-name="Слой 1"><path class="cls-1" d="M15,0h.73A15.35,15.35,0,0,1,30.27,14.8v1.26A15.3,15.3,0,0,1,15.7,30.89h-.76A15.3,15.3,0,0,1,0,15.6v-.31A15.55,15.55,0,0,1,4,5,15,15,0,0,1,15,0Z"/><polygon class="cls-2" points="12.76 10.45 13.46 12.2 6.49 15.46 13.46 18.75 12.76 20.44 4.96 16.52 4.96 14.37 12.76 10.45"/><polygon class="cls-2" points="23.36 10.45 24.07 12.2 17.12 15.46 24.07 18.75 23.36 20.44 15.56 16.52 15.56 14.37 23.36 10.45"/><polygon class="cls-3" points="12.76 10.45 13.46 12.2 6.49 15.46 13.46 18.75 12.76 20.44 4.96 16.52 4.96 14.37 12.76 10.45"/><polygon class="cls-3" points="23.36 10.45 24.07 12.2 17.12 15.46 24.07 18.75 23.36 20.44 15.56 16.52 15.56 14.37 23.36 10.45"/></g></g></svg>