<?xml version="1.0" encoding="UTF-8" standalone="no"?>
<!DOCTYPE svg PUBLIC "-//W3C//DTD SVG 1.1//EN" "http://www.w3.org/Graphics/SVG/1.1/DTD/svg11.dtd">
<svg xmlns="http://www.w3.org/2000/svg" version="1.1" viewBox="0.00 0.00 512.00 512.00">
<path stroke="#d7dbda" stroke-width="2.00" fill="none" stroke-linecap="butt" vector-effect="non-scaling-stroke" d="
  M 383.93 255.99
  A 127.93 127.93 0.0 0 0 256.00 128.06
  A 127.93 127.93 0.0 0 0 128.07 255.99
  A 127.93 127.93 0.0 0 0 256.00 383.92
  A 127.93 127.93 0.0 0 0 383.93 255.99"
/>
<path fill="#e7eced" d="
  M 223.06 0.00
  L 289.31 0.00
  C 302.10 2.25 305.32 10.62 305.25 22.39
  Q 305.17 33.47 305.29 44.67
  Q 305.29 45.15 305.76 45.26
  Q 340.03 53.36 369.97 71.83
  A 0.51 0.50 38.3 0 0 370.59 71.76
  Q 378.72 63.72 386.79 55.56
  Q 391.62 50.68 395.10 49.05
  Q 406.01 43.93 415.30 53.20
  Q 436.95 74.80 458.55 96.45
  Q 468.06 105.98 462.87 116.94
  Q 461.19 120.49 455.98 125.65
  Q 448.16 133.40 440.32 141.31
  Q 439.92 141.72 440.22 142.20
  Q 458.64 172.06 466.74 206.23
  Q 466.85 206.70 467.33 206.71
  Q 478.55 206.83 489.62 206.76
  C 501.49 206.68 510.00 210.02 512.00 223.06
  L 512.00 289.31
  C 509.74 302.18 501.33 305.29 489.48 305.24
  Q 478.47 305.18 467.33 305.28
  Q 466.84 305.29 466.73 305.76
  Q 458.62 339.93 440.23 369.80
  Q 439.94 370.27 440.32 370.66
  Q 448.37 378.83 456.54 386.90
  C 462.96 393.23 466.90 399.93 463.29 408.55
  Q 461.66 412.45 453.55 420.57
  Q 436.54 437.59 419.52 454.60
  C 411.94 462.18 405.36 467.61 395.14 462.93
  Q 391.64 461.32 386.26 455.90
  Q 378.56 448.11 370.70 440.36
  Q 370.30 439.96 369.82 440.26
  Q 339.94 458.66 305.77 466.73
  Q 305.29 466.84 305.29 467.33
  Q 305.18 478.27 305.24 489.06
  C 305.31 501.22 302.32 509.94 288.94 512.00
  L 222.69 512.00
  C 209.59 509.68 206.69 501.11 206.76 489.06
  Q 206.82 478.26 206.72 467.33
  Q 206.71 466.84 206.24 466.73
  Q 172.09 458.62 142.23 440.21
  A 0.77 0.75 -51.1 0 0 141.30 440.32
  Q 133.83 447.80 126.28 455.34
  C 118.50 463.12 112.03 467.57 101.63 462.46
  C 99.10 461.22 97.34 459.17 95.32 457.18
  Q 74.44 436.56 53.76 415.74
  C 43.84 405.76 46.44 395.79 55.33 387.02
  Q 63.55 378.92 71.69 370.64
  Q 72.07 370.25 71.79 369.79
  Q 53.34 339.94 45.26 305.76
  Q 45.15 305.29 44.67 305.29
  Q 34.73 305.17 24.91 305.24
  C 11.81 305.33 2.51 303.48 0.00 289.19
  L 0.00 222.69
  Q 2.04 211.42 11.26 208.04
  Q 14.95 206.69 24.91 206.76
  Q 34.72 206.83 44.68 206.71
  Q 45.16 206.71 45.27 206.23
  Q 53.34 172.06 71.78 142.22
  Q 72.07 141.75 71.68 141.35
  Q 63.89 133.43 56.02 125.66
  Q 50.75 120.46 49.09 116.94
  Q 44.02 106.22 53.22 96.71
  Q 62.92 86.68 95.78 54.21
  C 101.76 48.30 108.60 45.44 116.50 48.86
  Q 120.05 50.40 126.01 56.39
  Q 133.64 64.07 141.34 71.69
  Q 141.73 72.08 142.21 71.79
  Q 172.09 53.36 206.27 45.27
  Q 206.76 45.16 206.76 44.66
  Q 206.78 33.64 206.75 22.61
  C 206.71 10.58 209.89 2.03 223.06 0.00
  Z
  M 383.93 255.99
  A 127.93 127.93 0.0 0 0 256.00 128.06
  A 127.93 127.93 0.0 0 0 128.07 255.99
  A 127.93 127.93 0.0 0 0 256.00 383.92
  A 127.93 127.93 0.0 0 0 383.93 255.99
  Z"
/>
<path fill="#c7cac7" d="
  M 383.93 255.99
  A 127.93 127.93 0.0 0 1 256.00 383.92
  A 127.93 127.93 0.0 0 1 128.07 255.99
  A 127.93 127.93 0.0 0 1 256.00 128.06
  A 127.93 127.93 0.0 0 1 383.93 255.99
  Z
  M 344.39 255.99
  A 88.39 88.39 0.0 0 0 256.00 167.60
  A 88.39 88.39 0.0 0 0 167.61 255.99
  A 88.39 88.39 0.0 0 0 256.00 344.38
  A 88.39 88.39 0.0 0 0 344.39 255.99
  Z"
/>
</svg>
