<?xml version="1.0" encoding="UTF-8" standalone="no"?>
<!DOCTYPE svg PUBLIC "-//W3C//DTD SVG 1.1//EN" "http://www.w3.org/Graphics/SVG/1.1/DTD/svg11.dtd">
<svg xmlns="http://www.w3.org/2000/svg" version="1.1" viewBox="0.00 0.00 512.00 512.00">
<g stroke-width="2.00" fill="none" stroke-linecap="butt">
<path stroke="#67be28" vector-effect="non-scaling-stroke" d="
  M 253.77 0.00
  Q 254.62 0.33 255.69 0.25
  Q 256.09 0.22 256.09 0.63
  L 256.01 105.42"
/>
<path stroke="#b6da62" vector-effect="non-scaling-stroke" d="
  M 256.01 105.42
  Q 256.01 105.56 256.01 105.70"
/>
<path stroke="#b6e495" vector-effect="non-scaling-stroke" d="
  M 256.01 105.70
  Q 244.47 106.84 240.84 115.76
  Q 239.23 119.72 239.24 131.48
  Q 239.28 185.07 239.24 238.72
  Q 239.24 239.24 238.72 239.24
  Q 183.27 239.27 127.84 239.26
  Q 120.08 239.26 116.91 240.36
  C 98.80 246.65 104.11 272.75 123.51 272.75
  Q 181.08 272.73 238.71 272.76
  Q 239.24 272.76 239.24 273.28
  Q 239.28 328.27 239.25 383.15
  Q 239.24 392.24 240.74 396.01
  Q 244.42 405.22 256.00 406.28"
/>
<path stroke="#b6da62" vector-effect="non-scaling-stroke" d="
  M 256.00 406.28
  Q 256.50 406.11 256.55 406.45"
/>
<path stroke="#67be28" vector-effect="non-scaling-stroke" d="
  M 256.55 406.45
  Q 256.00 407.09 256.00 408.00
  Q 256.07 460.00 255.91 512.00"
/>
<path stroke="#b0cf5f" vector-effect="non-scaling-stroke" d="
  M 256.55 406.45
  Q 267.82 405.06 271.42 396.24
  Q 273.01 392.33 273.00 381.50
  Q 272.97 327.55 273.01 273.53
  Q 273.01 273.01 273.53 273.01
  Q 328.94 272.99 384.34 272.99
  Q 391.83 272.99 394.91 271.96
  C 413.48 265.75 408.30 239.02 388.23 239.02
  Q 330.92 239.02 273.53 238.99
  Q 273.01 238.99 273.01 238.47
  Q 272.98 184.22 273.00 130.07
  Q 273.01 119.62 271.42 115.76
  Q 267.74 106.80 256.01 105.42"
/>
<path stroke="#fff5cc" vector-effect="non-scaling-stroke" d="
  M 256.00 406.28
  L 256.01 105.70"
/>
</g>
<path fill="#6dc82a" d="
  M 253.33 0.00
  L 253.77 0.00
  Q 254.62 0.33 255.69 0.25
  Q 256.09 0.22 256.09 0.63
  L 256.01 105.42
  Q 256.01 105.56 256.01 105.70
  Q 244.47 106.84 240.84 115.76
  Q 239.23 119.72 239.24 131.48
  Q 239.28 185.07 239.24 238.72
  Q 239.24 239.24 238.72 239.24
  Q 183.27 239.27 127.84 239.26
  Q 120.08 239.26 116.91 240.36
  C 98.80 246.65 104.11 272.75 123.51 272.75
  Q 181.08 272.73 238.71 272.76
  Q 239.24 272.76 239.24 273.28
  Q 239.28 328.27 239.25 383.15
  Q 239.24 392.24 240.74 396.01
  Q 244.42 405.22 256.00 406.28
  Q 256.50 406.11 256.55 406.45
  Q 256.00 407.09 256.00 408.00
  Q 256.07 460.00 255.91 512.00
  L 252.71 512.00
  C 112.57 509.09 2.64 398.14 0.00 258.44
  L 0.00 253.17
  Q 2.36 154.96 67.17 83.40
  C 114.43 31.22 182.10 1.17 253.33 0.00
  Z"
/>
<path fill="#61b325" d="
  M 253.77 0.00
  L 266.07 0.00
  C 399.61 6.70 505.21 110.67 512.00 244.84
  L 512.00 266.06
  C 505.46 400.00 400.21 506.35 265.43 512.00
  L 255.91 512.00
  Q 256.07 460.00 256.00 408.00
  Q 256.00 407.09 256.55 406.45
  Q 267.82 405.06 271.42 396.24
  Q 273.01 392.33 273.00 381.50
  Q 272.97 327.55 273.01 273.53
  Q 273.01 273.01 273.53 273.01
  Q 328.94 272.99 384.34 272.99
  Q 391.83 272.99 394.91 271.96
  C 413.48 265.75 408.30 239.02 388.23 239.02
  Q 330.92 239.02 273.53 238.99
  Q 273.01 238.99 273.01 238.47
  Q 272.98 184.22 273.00 130.07
  Q 273.01 119.62 271.42 115.76
  Q 267.74 106.80 256.01 105.42
  L 256.09 0.63
  Q 256.09 0.22 255.69 0.25
  Q 254.62 0.33 253.77 0.00
  Z"
/>
<path fill="#ffeb99" d="
  M 256.01 105.42
  Q 267.74 106.80 271.42 115.76
  Q 273.01 119.62 273.00 130.07
  Q 272.98 184.22 273.01 238.47
  Q 273.01 238.99 273.53 238.99
  Q 330.92 239.02 388.23 239.02
  C 408.30 239.02 413.48 265.75 394.91 271.96
  Q 391.83 272.99 384.34 272.99
  Q 328.94 272.99 273.53 273.01
  Q 273.01 273.01 273.01 273.53
  Q 272.97 327.55 273.00 381.50
  Q 273.01 392.33 271.42 396.24
  Q 267.82 405.06 256.55 406.45
  Q 256.50 406.11 256.00 406.28
  L 256.01 105.70
  Q 256.01 105.56 256.01 105.42
  Z"
/>
<path fill="#ffffff" d="
  M 256.01 105.70
  L 256.00 406.28
  Q 244.42 405.22 240.74 396.01
  Q 239.24 392.24 239.25 383.15
  Q 239.28 328.27 239.24 273.28
  Q 239.24 272.76 238.71 272.76
  Q 181.08 272.73 123.51 272.75
  C 104.11 272.75 98.80 246.65 116.91 240.36
  Q 120.08 239.26 127.84 239.26
  Q 183.27 239.27 238.72 239.24
  Q 239.24 239.24 239.24 238.72
  Q 239.28 185.07 239.24 131.48
  Q 239.23 119.72 240.84 115.76
  Q 244.47 106.84 256.01 105.70
  Z"
/>
</svg>
