<?xml version="1.0" encoding="UTF-8" standalone="no"?>
<!DOCTYPE svg PUBLIC "-//W3C//DTD SVG 1.1//EN" "http://www.w3.org/Graphics/SVG/1.1/DTD/svg11.dtd">
<svg xmlns="http://www.w3.org/2000/svg" version="1.1" viewBox="0.00 0.00 512.00 512.00">
<g stroke-width="2.00" fill="none" stroke-linecap="butt">
<path stroke="#c0dcf8" vector-effect="non-scaling-stroke" d="
  M 185.04 264.52
  C 182.43 258.18 181.48 254.85 184.80 248.42
  A 0.62 0.61 -76.1 0 0 184.26 247.51
  L 181.03 247.50"
/>
<path stroke="#ddedfd" vector-effect="non-scaling-stroke" d="
  M 181.03 247.50
  C 179.11 206.05 176.04 160.50 169.05 118.59
  C 167.94 111.90 159.99 70.81 149.65 71.61
  C 139.81 72.36 132.79 108.32 131.47 116.04
  C 124.02 159.39 121.44 203.60 119.03 247.50"
/>
<path stroke="#c0dcf8" vector-effect="non-scaling-stroke" d="
  M 119.03 247.50
  L 101.89 247.46"
/>
<path stroke="#ddedfd" vector-effect="non-scaling-stroke" d="
  M 264.16 351.23
  A 0.34 0.34 0.0 0 0 264.50 350.89
  L 264.50 161.09
  A 0.34 0.34 0.0 0 0 264.16 160.75
  L 236.51 160.75
  A 0.34 0.34 0.0 0 0 236.20 160.97
  L 200.12 255.86
  A 0.34 0.34 0.0 0 0 200.12 256.10
  L 236.20 351.06
  A 0.34 0.34 0.0 0 0 236.51 351.28
  L 264.16 351.23"
/>
<path stroke="#d2e6fa" vector-effect="non-scaling-stroke" d="
  M 181.03 247.50
  L 119.03 247.50"
/>
<path stroke="#c0dcf8" vector-effect="non-scaling-stroke" d="
  M 117.78 265.25
  Q 117.84 264.57 117.50 264.56
  Q 109.19 264.46 100.72 264.52"
/>
<path stroke="#d2e6fa" vector-effect="non-scaling-stroke" d="
  M 100.72 264.52
  L 38.77 264.51"
/>
<path stroke="#c0dcf8" vector-effect="non-scaling-stroke" d="
  M 38.77 264.51
  L 21.68 264.43"
/>
<path stroke="#ddedfd" vector-effect="non-scaling-stroke" d="
  M 38.77 264.51
  Q 40.97 316.32 46.77 367.74
  Q 49.61 392.94 56.27 417.37
  C 57.29 421.11 65.03 445.85 72.26 439.47
  C 81.70 431.15 85.77 410.61 87.85 398.67
  C 95.56 354.39 98.24 309.46 100.72 264.52"
/>
</g>
<path fill="#cbe3fa" d="
  M 512.00 188.82
  L 512.00 257.06
  C 508.71 268.14 494.97 266.27 494.99 254.95
  Q 495.07 226.79 494.97 198.51
  Q 494.97 198.00 494.46 198.00
  L 455.01 198.00
  Q 454.42 198.00 454.43 198.59
  Q 454.65 226.80 454.38 255.00
  C 454.30 262.44 450.02 264.49 442.99 264.50
  Q 416.32 264.51 389.65 264.48
  C 381.87 264.48 379.74 260.30 379.75 252.89
  Q 379.78 225.72 379.74 198.50
  Q 379.74 198.00 379.23 198.00
  L 339.76 198.00
  Q 339.26 198.00 339.26 198.51
  Q 339.24 225.10 339.24 251.68
  C 339.24 258.91 338.01 264.53 329.75 264.52
  Q 305.78 264.48 282.06 264.51
  A 0.57 0.56 0.0 0 0 281.49 265.07
  Q 281.52 311.88 281.49 358.74
  C 281.48 366.03 277.60 368.26 270.58 368.26
  Q 251.23 368.25 231.89 368.24
  C 226.61 368.24 223.89 366.74 222.06 361.94
  Q 203.57 313.23 185.04 264.52
  C 182.43 258.18 181.48 254.85 184.80 248.42
  A 0.62 0.61 -76.1 0 0 184.26 247.51
  L 181.03 247.50
  C 179.11 206.05 176.04 160.50 169.05 118.59
  C 167.94 111.90 159.99 70.81 149.65 71.61
  C 139.81 72.36 132.79 108.32 131.47 116.04
  C 124.02 159.39 121.44 203.60 119.03 247.50
  L 101.89 247.46
  C 103.92 212.35 106.26 177.21 110.24 142.25
  C 112.43 122.91 120.55 42.26 157.32 55.84
  C 177.72 63.37 185.05 106.53 187.63 124.99
  Q 194.02 170.76 196.23 216.10
  Q 196.32 217.86 196.94 216.21
  Q 209.56 182.84 222.40 149.33
  C 223.37 146.80 226.38 143.77 228.81 143.77
  Q 250.03 143.73 271.24 143.76
  C 277.60 143.77 281.49 146.30 281.49 152.85
  Q 281.51 199.95 281.50 246.98
  A 0.52 0.52 0.0 0 0 282.02 247.50
  L 321.50 247.50
  A 0.76 0.75 90.0 0 0 322.25 246.74
  Q 322.12 218.73 322.30 190.52
  C 322.34 184.54 325.15 181.01 331.16 181.01
  Q 358.50 181.00 385.83 180.99
  C 392.85 180.99 396.73 183.24 396.73 190.51
  Q 396.75 218.74 396.75 246.99
  Q 396.75 247.50 397.26 247.50
  L 436.73 247.50
  Q 437.29 247.50 437.29 246.94
  Q 437.17 207.45 437.28 190.27
  C 437.32 183.33 441.62 180.99 448.12 180.99
  Q 474.81 181.00 501.50 181.00
  C 507.43 181.00 511.05 182.85 512.00 188.82
  Z
  M 264.16 351.23
  A 0.34 0.34 0.0 0 0 264.50 350.89
  L 264.50 161.09
  A 0.34 0.34 0.0 0 0 264.16 160.75
  L 236.51 160.75
  A 0.34 0.34 0.0 0 0 236.20 160.97
  L 200.12 255.86
  A 0.34 0.34 0.0 0 0 200.12 256.10
  L 236.20 351.06
  A 0.34 0.34 0.0 0 0 236.51 351.28
  L 264.16 351.23
  Z"
/>
<path fill="#eef7ff" d="
  M 181.03 247.50
  L 119.03 247.50
  C 121.44 203.60 124.02 159.39 131.47 116.04
  C 132.79 108.32 139.81 72.36 149.65 71.61
  C 159.99 70.81 167.94 111.90 169.05 118.59
  C 176.04 160.50 179.11 206.05 181.03 247.50
  Z"
/>
<path fill="#eef7ff" d="
  M 264.16 351.23
  L 236.51 351.28
  A 0.34 0.34 0.0 0 1 236.20 351.06
  L 200.12 256.10
  A 0.34 0.34 0.0 0 1 200.12 255.86
  L 236.20 160.97
  A 0.34 0.34 0.0 0 1 236.51 160.75
  L 264.16 160.75
  A 0.34 0.34 0.0 0 1 264.50 161.09
  L 264.50 350.89
  A 0.34 0.34 0.0 0 1 264.16 351.23
  Z"
/>
<path fill="#b5d5f5" d="
  M 101.89 247.46
  L 119.03 247.50
  L 181.03 247.50
  L 184.26 247.51
  A 0.62 0.61 -76.1 0 1 184.80 248.42
  C 181.48 254.85 182.43 258.18 185.04 264.52
  L 118.46 264.56
  Q 118.10 264.56 118.03 264.91
  Q 117.96 265.19 117.78 265.25
  Q 117.84 264.57 117.50 264.56
  Q 109.19 264.46 100.72 264.52
  L 38.77 264.51
  L 21.68 264.43
  C 14.10 264.56 2.23 267.16 0.00 256.93
  L 0.00 254.95
  C 1.33 249.18 4.94 247.55 10.79 247.52
  C 41.11 247.40 71.44 247.57 101.89 247.46
  Z"
/>
<path fill="#cbe3fa" d="
  M 38.77 264.51
  Q 40.97 316.32 46.77 367.74
  Q 49.61 392.94 56.27 417.37
  C 57.29 421.11 65.03 445.85 72.26 439.47
  C 81.70 431.15 85.77 410.61 87.85 398.67
  C 95.56 354.39 98.24 309.46 100.72 264.52
  Q 109.19 264.46 117.50 264.56
  Q 117.84 264.57 117.78 265.25
  C 115.24 312.40 112.44 360.28 103.59 406.72
  C 100.27 424.14 89.61 466.60 62.12 456.02
  C 38.88 447.09 32.30 391.18 29.87 369.68
  Q 23.96 317.33 21.68 264.43
  L 38.77 264.51
  Z"
/>
<path fill="#eef7ff" d="
  M 38.77 264.51
  L 100.72 264.52
  C 98.24 309.46 95.56 354.39 87.85 398.67
  C 85.77 410.61 81.70 431.15 72.26 439.47
  C 65.03 445.85 57.29 421.11 56.27 417.37
  Q 49.61 392.94 46.77 367.74
  Q 40.97 316.32 38.77 264.51
  Z"
/>
</svg>
