<?xml version="1.0" encoding="UTF-8" standalone="no"?>
<!DOCTYPE svg PUBLIC "-//W3C//DTD SVG 1.1//EN" "http://www.w3.org/Graphics/SVG/1.1/DTD/svg11.dtd">
<svg xmlns="http://www.w3.org/2000/svg" version="1.1" viewBox="0.00 0.00 512.00 512.00">
<g stroke-width="2.00" fill="none" stroke-linecap="butt">
<path stroke="#c0dcf8" vector-effect="non-scaling-stroke" d="
  M 185.00 264.54
  C 182.52 258.13 181.43 254.94 184.79 248.44
  A 0.64 0.64 0.0 0 0 184.23 247.50
  L 181.00 247.46"
/>
<path stroke="#ddedfd" vector-effect="non-scaling-stroke" d="
  M 181.00 247.46
  C 179.15 206.08 176.02 160.40 169.05 118.59
  C 167.94 111.90 159.99 70.81 149.65 71.61
  C 139.81 72.36 132.79 108.32 131.47 116.04
  C 124.02 159.39 121.48 203.59 119.00 247.46"
/>
<path stroke="#c0dcf8" vector-effect="non-scaling-stroke" d="
  M 119.00 247.46
  L 101.75 247.46"
/>
<path stroke="#ddedfd" vector-effect="non-scaling-stroke" d="
  M 264.16 351.23
  A 0.34 0.34 0.0 0 0 264.50 350.89
  L 264.50 161.09
  A 0.34 0.34 0.0 0 0 264.16 160.75
  L 236.51 160.75
  A 0.34 0.34 0.0 0 0 236.20 160.97
  L 200.12 255.86
  A 0.34 0.34 0.0 0 0 200.12 256.10
  L 236.20 351.06
  A 0.34 0.34 0.0 0 0 236.51 351.28
  L 264.16 351.23"
/>
<path stroke="#d2e6fa" vector-effect="non-scaling-stroke" d="
  M 181.00 247.46
  L 119.00 247.46"
/>
<path stroke="#c0dcf8" vector-effect="non-scaling-stroke" d="
  M 117.79 265.25
  L 117.64 264.86
  Q 117.49 264.47 117.07 264.48
  L 100.79 264.75"
/>
<path stroke="#d2e6fa" vector-effect="non-scaling-stroke" d="
  M 100.79 264.75
  L 38.75 264.54"
/>
<path stroke="#c0dcf8" vector-effect="non-scaling-stroke" d="
  M 38.75 264.54
  L 21.50 264.54"
/>
<path stroke="#ddedfd" vector-effect="non-scaling-stroke" d="
  M 38.75 264.54
  Q 40.99 316.29 46.78 367.74
  Q 49.61 392.94 56.27 417.37
  C 57.29 421.11 65.03 445.85 72.26 439.47
  C 81.70 431.15 85.77 410.61 87.85 398.67
  C 95.56 354.41 98.11 309.53 100.79 264.75"
/>
</g>
<path fill="#cbe3fa" d="
  M 512.00 188.81
  L 512.00 257.06
  C 508.77 268.11 494.97 266.30 494.99 254.95
  Q 495.07 226.79 494.97 198.51
  Q 494.97 198.00 494.46 198.00
  L 455.01 198.00
  Q 454.42 198.00 454.43 198.59
  Q 454.65 226.80 454.38 255.00
  C 454.30 262.44 450.02 264.49 442.99 264.50
  Q 416.32 264.51 389.65 264.48
  C 381.87 264.48 379.74 260.30 379.75 252.89
  Q 379.78 225.72 379.74 198.50
  Q 379.74 198.00 379.23 198.00
  L 339.76 198.00
  Q 339.26 198.00 339.26 198.51
  Q 339.24 225.09 339.24 251.68
  C 339.24 258.91 338.01 264.53 329.75 264.52
  Q 305.78 264.48 281.90 264.51
  A 0.41 0.40 0.0 0 0 281.49 264.91
  Q 281.52 311.87 281.49 358.74
  C 281.48 366.03 277.60 368.26 270.58 368.26
  Q 251.23 368.25 231.89 368.24
  C 226.64 368.24 223.86 366.74 222.06 361.94
  Q 213.60 339.36 185.00 264.54
  C 182.52 258.13 181.43 254.94 184.79 248.44
  A 0.64 0.64 0.0 0 0 184.23 247.50
  L 181.00 247.46
  C 179.15 206.08 176.02 160.40 169.05 118.59
  C 167.94 111.90 159.99 70.81 149.65 71.61
  C 139.81 72.36 132.79 108.32 131.47 116.04
  C 124.02 159.39 121.48 203.59 119.00 247.46
  L 101.75 247.46
  Q 104.89 199.57 106.09 184.82
  C 108.39 156.48 111.15 128.01 117.13 100.18
  C 120.82 83.02 131.91 46.46 157.32 55.84
  C 177.72 63.37 185.05 106.53 187.63 124.99
  Q 194.02 170.76 196.27 216.66
  A 0.24 0.24 0.0 0 0 196.74 216.74
  Q 209.56 182.85 222.40 149.33
  C 223.37 146.80 226.38 143.77 228.81 143.77
  Q 250.03 143.73 271.24 143.76
  C 277.60 143.77 281.49 146.30 281.49 152.85
  Q 281.51 199.89 281.50 247.02
  A 0.48 0.48 0.0 0 0 281.98 247.50
  L 321.74 247.50
  A 0.51 0.51 0.0 0 0 322.25 246.99
  Q 322.12 218.74 322.30 190.51
  C 322.34 184.53 325.16 181.01 331.16 181.01
  Q 358.50 181.00 385.83 180.99
  C 392.85 180.99 396.73 183.24 396.73 190.51
  Q 396.75 218.74 396.75 246.99
  Q 396.75 247.50 397.26 247.50
  L 436.73 247.50
  Q 437.29 247.50 437.29 246.94
  Q 437.17 207.45 437.28 190.27
  C 437.32 183.33 441.62 180.99 448.12 180.99
  Q 474.82 181.00 501.52 181.00
  C 507.43 181.00 511.06 182.86 512.00 188.81
  Z
  M 264.16 351.23
  A 0.34 0.34 0.0 0 0 264.50 350.89
  L 264.50 161.09
  A 0.34 0.34 0.0 0 0 264.16 160.75
  L 236.51 160.75
  A 0.34 0.34 0.0 0 0 236.20 160.97
  L 200.12 255.86
  A 0.34 0.34 0.0 0 0 200.12 256.10
  L 236.20 351.06
  A 0.34 0.34 0.0 0 0 236.51 351.28
  L 264.16 351.23
  Z"
/>
<path fill="#eef7ff" d="
  M 181.00 247.46
  L 119.00 247.46
  C 121.48 203.59 124.02 159.39 131.47 116.04
  C 132.79 108.32 139.81 72.36 149.65 71.61
  C 159.99 70.81 167.94 111.90 169.05 118.59
  C 176.02 160.40 179.15 206.08 181.00 247.46
  Z"
/>
<path fill="#eef7ff" d="
  M 264.16 351.23
  L 236.51 351.28
  A 0.34 0.34 0.0 0 1 236.20 351.06
  L 200.12 256.10
  A 0.34 0.34 0.0 0 1 200.12 255.86
  L 236.20 160.97
  A 0.34 0.34 0.0 0 1 236.51 160.75
  L 264.16 160.75
  A 0.34 0.34 0.0 0 1 264.50 161.09
  L 264.50 350.89
  A 0.34 0.34 0.0 0 1 264.16 351.23
  Z"
/>
<path fill="#b5d5f5" d="
  M 101.75 247.46
  L 119.00 247.46
  L 181.00 247.46
  L 184.23 247.50
  A 0.64 0.64 0.0 0 1 184.79 248.44
  C 181.43 254.94 182.52 258.13 185.00 264.54
  L 118.43 264.56
  Q 118.06 264.56 117.93 264.90
  L 117.79 265.25
  L 117.64 264.86
  Q 117.49 264.47 117.07 264.48
  L 100.79 264.75
  L 38.75 264.54
  L 21.50 264.54
  C 14.01 264.52 2.19 267.11 0.00 256.94
  L 0.00 254.94
  C 1.31 249.19 4.97 247.55 10.77 247.52
  C 41.10 247.40 71.43 247.57 101.75 247.46
  Z"
/>
<path fill="#cbe3fa" d="
  M 38.75 264.54
  Q 40.99 316.29 46.78 367.74
  Q 49.61 392.94 56.27 417.37
  C 57.29 421.11 65.03 445.85 72.26 439.47
  C 81.70 431.15 85.77 410.61 87.85 398.67
  C 95.56 354.41 98.11 309.53 100.79 264.75
  L 117.07 264.48
  Q 117.49 264.47 117.64 264.86
  L 117.79 265.25
  C 115.23 312.40 112.44 360.27 103.59 406.72
  C 100.27 424.14 89.61 466.60 62.12 456.02
  C 38.85 447.08 32.31 391.18 29.92 369.67
  Q 24.09 317.25 21.50 264.54
  L 38.75 264.54
  Z"
/>
<path fill="#eef7ff" d="
  M 38.75 264.54
  L 100.79 264.75
  C 98.11 309.53 95.56 354.41 87.85 398.67
  C 85.77 410.61 81.70 431.15 72.26 439.47
  C 65.03 445.85 57.29 421.11 56.27 417.37
  Q 49.61 392.94 46.78 367.74
  Q 40.99 316.29 38.75 264.54
  Z"
/>
</svg>
