<?xml version="1.0" encoding="UTF-8" standalone="no"?>
<!DOCTYPE svg PUBLIC "-//W3C//DTD SVG 1.1//EN" "http://www.w3.org/Graphics/SVG/1.1/DTD/svg11.dtd">
<svg xmlns="http://www.w3.org/2000/svg" version="1.1" viewBox="0.00 0.00 512.00 512.00">
<g stroke-width="2.00" fill="none" stroke-linecap="butt">
<path stroke="#c0dcf8" vector-effect="non-scaling-stroke" d="
  M 222.50 247.60
  L 204.87 247.48"
/>
<path stroke="#ddedfd" vector-effect="non-scaling-stroke" d="
  M 204.87 247.48
  C 202.71 204.53 199.98 162.25 193.74 119.01
  C 192.73 112.05 183.02 52.82 167.36 66.03
  C 156.90 74.85 152.37 97.26 149.99 110.36
  C 146.63 128.82 144.41 148.52 142.85 167.57
  Q 139.71 205.84 137.32 244.18
  Q 137.24 245.49 137.04 247.47"
/>
<path stroke="#c0dcf8" vector-effect="non-scaling-stroke" d="
  M 137.04 247.47
  L 120.09 247.49"
/>
<path stroke="#c0dcf8" vector-effect="non-scaling-stroke" d="
  M 391.96 247.53
  L 374.77 247.49"
/>
<path stroke="#ddedfd" vector-effect="non-scaling-stroke" d="
  M 374.77 247.49
  Q 372.65 213.50 370.13 179.57
  C 367.96 150.46 364.56 114.72 355.54 84.75
  C 353.79 78.92 345.17 57.96 335.83 65.88
  C 332.69 68.54 329.19 75.47 327.56 80.07
  C 320.71 99.31 317.66 119.80 315.44 140.02
  Q 309.57 193.34 307.21 247.48"
/>
<path stroke="#c0dcf8" vector-effect="non-scaling-stroke" d="
  M 307.21 247.48
  L 290.03 247.54"
/>
<path stroke="#d2e6fa" vector-effect="non-scaling-stroke" d="
  M 374.77 247.49
  L 307.21 247.48"
/>
<path stroke="#d2e6fa" vector-effect="non-scaling-stroke" d="
  M 204.87 247.48
  L 137.04 247.47"
/>
<path stroke="#c0dcf8" vector-effect="non-scaling-stroke" d="
  M 471.99 264.48
  L 455.01 264.52"
/>
<path stroke="#d2e6fa" vector-effect="non-scaling-stroke" d="
  M 455.01 264.52
  L 393.24 264.51"
/>
<path stroke="#c0dcf8" vector-effect="non-scaling-stroke" d="
  M 393.24 264.51
  Q 386.06 264.54 378.28 264.44
  C 377.36 264.43 376.66 263.75 376.17 265.24"
/>
<path stroke="#c0dcf8" vector-effect="non-scaling-stroke" d="
  M 305.94 264.78
  Q 305.82 264.72 305.75 264.55
  A 0.37 0.36 -10.5 0 0 305.41 264.32
  L 288.91 264.51"
/>
<path stroke="#d2e6fa" vector-effect="non-scaling-stroke" d="
  M 288.91 264.51
  L 223.06 264.51"
/>
<path stroke="#c0dcf8" vector-effect="non-scaling-stroke" d="
  M 223.06 264.51
  L 205.96 264.53"
/>
<path stroke="#c0dcf8" vector-effect="non-scaling-stroke" d="
  M 135.82 265.26
  L 135.75 264.78
  Q 135.68 264.32 135.21 264.33
  L 118.73 264.51"
/>
<path stroke="#d2e6fa" vector-effect="non-scaling-stroke" d="
  M 118.73 264.51
  L 56.99 264.51"
/>
<path stroke="#c0dcf8" vector-effect="non-scaling-stroke" d="
  M 56.99 264.51
  L 39.97 264.53"
/>
<path stroke="#ddedfd" vector-effect="non-scaling-stroke" d="
  M 56.99 264.51
  Q 58.86 291.71 62.07 318.74
  C 64.23 337.00 67.17 355.58 73.22 373.00
  C 76.94 383.69 87.71 402.67 98.43 382.18
  C 105.36 368.95 108.52 352.97 110.79 338.22
  Q 116.39 301.85 118.73 264.51"
/>
<path stroke="#ddedfd" vector-effect="non-scaling-stroke" d="
  M 223.06 264.51
  C 225.36 310.54 227.89 357.29 235.94 402.71
  C 238.14 415.10 241.07 427.72 246.66 439.07
  C 256.45 458.91 265.73 439.85 268.88 430.66
  C 272.70 419.50 275.23 408.92 277.21 396.59
  C 284.11 353.41 286.81 305.97 288.91 264.51"
/>
<path stroke="#ddedfd" vector-effect="non-scaling-stroke" d="
  M 393.24 264.51
  C 395.41 296.94 398.15 329.80 405.97 361.40
  C 408.07 369.92 418.27 405.50 432.83 385.04
  Q 435.61 381.13 437.35 376.57
  C 444.17 358.76 447.50 339.38 449.76 320.50
  Q 453.06 292.86 455.01 264.52"
/>
</g>
<path fill="#cbe3fa" d="
  M 222.50 247.60
  L 204.87 247.48
  C 202.71 204.53 199.98 162.25 193.74 119.01
  C 192.73 112.05 183.02 52.82 167.36 66.03
  C 156.90 74.85 152.37 97.26 149.99 110.36
  C 146.63 128.82 144.41 148.52 142.85 167.57
  Q 139.71 205.84 137.32 244.18
  Q 137.24 245.49 137.04 247.47
  L 120.09 247.49
  C 122.82 202.42 125.29 157.06 132.25 112.56
  C 135.18 93.85 142.71 56.24 163.55 48.48
  C 201.42 34.37 210.76 112.28 213.15 132.49
  C 217.64 170.36 219.91 208.65 221.96 246.73
  C 221.99 247.18 222.17 247.35 222.50 247.60
  Z"
/>
<path fill="#cbe3fa" d="
  M 391.96 247.53
  L 374.77 247.49
  Q 372.65 213.50 370.13 179.57
  C 367.96 150.46 364.56 114.72 355.54 84.75
  C 353.79 78.92 345.17 57.96 335.83 65.88
  C 332.69 68.54 329.19 75.47 327.56 80.07
  C 320.71 99.31 317.66 119.80 315.44 140.02
  Q 309.57 193.34 307.21 247.48
  L 290.03 247.54
  C 292.61 195.73 294.85 152.25 303.19 105.84
  C 306.44 87.73 314.25 50.48 337.29 47.18
  C 373.07 42.04 380.80 116.03 383.26 138.50
  C 387.37 175.93 389.57 211.12 391.96 247.53
  Z"
/>
<path fill="#eef7ff" d="
  M 374.77 247.49
  L 307.21 247.48
  Q 309.57 193.34 315.44 140.02
  C 317.66 119.80 320.71 99.31 327.56 80.07
  C 329.19 75.47 332.69 68.54 335.83 65.88
  C 345.17 57.96 353.79 78.92 355.54 84.75
  C 364.56 114.72 367.96 150.46 370.13 179.57
  Q 372.65 213.50 374.77 247.49
  Z"
/>
<path fill="#eef7ff" d="
  M 204.87 247.48
  L 137.04 247.47
  Q 137.24 245.49 137.32 244.18
  Q 139.71 205.84 142.85 167.57
  C 144.41 148.52 146.63 128.82 149.99 110.36
  C 152.37 97.26 156.90 74.85 167.36 66.03
  C 183.02 52.82 192.73 112.05 193.74 119.01
  C 199.98 162.25 202.71 204.53 204.87 247.48
  Z"
/>
<path fill="#b5d5f5" d="
  M 120.09 247.49
  L 137.04 247.47
  L 204.87 247.48
  L 222.50 247.60
  L 290.03 247.54
  L 307.21 247.48
  L 374.77 247.49
  L 391.96 247.53
  Q 446.32 247.44 500.58 247.50
  C 506.80 247.50 510.86 248.91 512.00 255.32
  L 512.00 256.80
  C 510.64 263.51 506.47 264.50 500.00 264.50
  Q 486.00 264.51 471.99 264.48
  L 455.01 264.52
  L 393.24 264.51
  Q 386.06 264.54 378.28 264.44
  C 377.36 264.43 376.66 263.75 376.17 265.24
  Q 376.02 265.19 375.97 264.89
  Q 375.90 264.50 375.50 264.50
  L 306.51 264.50
  A 0.34 0.31 -70.7 0 0 306.25 264.64
  Q 306.15 264.77 305.94 264.78
  Q 305.82 264.72 305.75 264.55
  A 0.37 0.36 -10.5 0 0 305.41 264.32
  L 288.91 264.51
  L 223.06 264.51
  L 205.96 264.53
  L 136.46 264.56
  Q 136.10 264.56 136.02 264.91
  Q 135.96 265.15 135.82 265.26
  L 135.75 264.78
  Q 135.68 264.32 135.21 264.33
  L 118.73 264.51
  L 56.99 264.51
  L 39.97 264.53
  Q 25.66 264.48 11.37 264.50
  C 5.21 264.50 1.34 263.15 0.00 256.93
  L 0.00 254.95
  C 1.34 249.07 5.11 247.48 11.02 247.50
  C 47.37 247.64 83.67 247.61 120.09 247.49
  Z"
/>
<path fill="#cbe3fa" d="
  M 135.82 265.26
  Q 134.29 288.01 131.26 315.50
  C 129.41 332.23 126.83 349.75 122.98 364.83
  C 118.33 383.06 105.88 416.62 79.59 406.83
  C 57.16 398.47 50.66 358.40 47.64 338.23
  Q 42.20 301.83 39.97 264.53
  L 56.99 264.51
  Q 58.86 291.71 62.07 318.74
  C 64.23 337.00 67.17 355.58 73.22 373.00
  C 76.94 383.69 87.71 402.67 98.43 382.18
  C 105.36 368.95 108.52 352.97 110.79 338.22
  Q 116.39 301.85 118.73 264.51
  L 135.21 264.33
  Q 135.68 264.32 135.75 264.78
  L 135.82 265.26
  Z"
/>
<path fill="#cbe3fa" d="
  M 305.94 264.78
  Q 303.68 314.53 298.83 364.05
  C 296.47 388.16 289.74 458.59 260.93 464.49
  C 227.75 471.28 219.06 409.85 216.23 389.25
  C 210.56 347.96 208.12 306.25 205.96 264.53
  L 223.06 264.51
  C 225.36 310.54 227.89 357.29 235.94 402.71
  C 238.14 415.10 241.07 427.72 246.66 439.07
  C 256.45 458.91 265.73 439.85 268.88 430.66
  C 272.70 419.50 275.23 408.92 277.21 396.59
  C 284.11 353.41 286.81 305.97 288.91 264.51
  L 305.41 264.32
  A 0.37 0.36 -10.5 0 1 305.75 264.55
  Q 305.82 264.72 305.94 264.78
  Z"
/>
<path fill="#cbe3fa" d="
  M 393.24 264.51
  C 395.41 296.94 398.15 329.80 405.97 361.40
  C 408.07 369.92 418.27 405.50 432.83 385.04
  Q 435.61 381.13 437.35 376.57
  C 444.17 358.76 447.50 339.38 449.76 320.50
  Q 453.06 292.86 455.01 264.52
  L 471.99 264.48
  Q 469.64 305.62 463.12 345.48
  C 460.27 362.86 455.81 382.70 445.43 396.92
  C 436.92 408.58 421.51 412.22 409.51 403.52
  C 391.49 390.45 385.72 352.93 382.79 331.60
  Q 378.26 298.56 376.17 265.24
  C 376.66 263.75 377.36 264.43 378.28 264.44
  Q 386.06 264.54 393.24 264.51
  Z"
/>
<path fill="#eef7ff" d="
  M 56.99 264.51
  L 118.73 264.51
  Q 116.39 301.85 110.79 338.22
  C 108.52 352.97 105.36 368.95 98.43 382.18
  C 87.71 402.67 76.94 383.69 73.22 373.00
  C 67.17 355.58 64.23 337.00 62.07 318.74
  Q 58.86 291.71 56.99 264.51
  Z"
/>
<path fill="#eef7ff" d="
  M 223.06 264.51
  L 288.91 264.51
  C 286.81 305.97 284.11 353.41 277.21 396.59
  C 275.23 408.92 272.70 419.50 268.88 430.66
  C 265.73 439.85 256.45 458.91 246.66 439.07
  C 241.07 427.72 238.14 415.10 235.94 402.71
  C 227.89 357.29 225.36 310.54 223.06 264.51
  Z"
/>
<path fill="#eef7ff" d="
  M 393.24 264.51
  L 455.01 264.52
  Q 453.06 292.86 449.76 320.50
  C 447.50 339.38 444.17 358.76 437.35 376.57
  Q 435.61 381.13 432.83 385.04
  C 418.27 405.50 408.07 369.92 405.97 361.40
  C 398.15 329.80 395.41 296.94 393.24 264.51
  Z"
/>
</svg>
