<?xml version="1.0" encoding="UTF-8" standalone="no"?>
<!DOCTYPE svg PUBLIC "-//W3C//DTD SVG 1.1//EN" "http://www.w3.org/Graphics/SVG/1.1/DTD/svg11.dtd">
<svg xmlns="http://www.w3.org/2000/svg" version="1.1" viewBox="0.00 0.00 512.00 512.00">
<g stroke-width="2.00" fill="none" stroke-linecap="butt">
<path stroke="#c0dcf8" vector-effect="non-scaling-stroke" d="
  M 222.50 247.56
  L 205.00 247.46"
/>
<path stroke="#ddedfd" vector-effect="non-scaling-stroke" d="
  M 205.00 247.46
  C 202.60 204.52 199.98 162.27 193.74 119.01
  C 192.73 112.05 183.02 52.82 167.36 66.03
  C 156.90 74.85 152.37 97.26 149.99 110.36
  C 146.63 128.82 144.41 148.52 142.85 167.57
  Q 139.71 205.84 137.35 244.18
  Q 137.27 245.53 137.01 247.44"
/>
<path stroke="#c0dcf8" vector-effect="non-scaling-stroke" d="
  M 137.01 247.44
  L 120.03 247.37"
/>
<path stroke="#c0dcf8" vector-effect="non-scaling-stroke" d="
  M 392.00 247.46
  L 374.89 247.45"
/>
<path stroke="#ddedfd" vector-effect="non-scaling-stroke" d="
  M 374.89 247.45
  Q 372.56 213.53 370.10 179.57
  C 367.98 150.46 364.56 114.70 355.54 84.75
  C 353.79 78.92 345.17 57.96 335.83 65.88
  C 332.69 68.54 329.19 75.47 327.56 80.07
  C 320.71 99.31 317.66 119.79 315.46 140.02
  Q 309.64 193.44 307.11 247.35"
/>
<path stroke="#c0dcf8" vector-effect="non-scaling-stroke" d="
  M 307.11 247.35
  L 290.00 247.38"
/>
<path stroke="#d2e6fa" vector-effect="non-scaling-stroke" d="
  M 374.89 247.45
  L 307.11 247.35"
/>
<path stroke="#d2e6fa" vector-effect="non-scaling-stroke" d="
  M 205.00 247.46
  L 137.01 247.44"
/>
<path stroke="#c0dcf8" vector-effect="non-scaling-stroke" d="
  M 471.98 264.68
  Q 463.54 264.14 455.04 264.75"
/>
<path stroke="#d2e6fa" vector-effect="non-scaling-stroke" d="
  M 455.04 264.75
  L 393.39 264.56"
/>
<path stroke="#c0dcf8" vector-effect="non-scaling-stroke" d="
  M 393.39 264.56
  L 376.14 264.72"
/>
<path stroke="#c0dcf8" vector-effect="non-scaling-stroke" d="
  M 305.95 264.65
  Q 297.57 264.16 289.04 264.75"
/>
<path stroke="#d2e6fa" vector-effect="non-scaling-stroke" d="
  M 289.04 264.75
  L 222.91 264.55"
/>
<path stroke="#c0dcf8" vector-effect="non-scaling-stroke" d="
  M 222.91 264.55
  L 205.96 264.75"
/>
<path stroke="#c0dcf8" vector-effect="non-scaling-stroke" d="
  M 135.79 265.25
  L 135.75 264.78
  Q 135.70 264.32 135.24 264.33
  L 118.79 264.75"
/>
<path stroke="#d2e6fa" vector-effect="non-scaling-stroke" d="
  M 118.79 264.75
  L 56.86 264.56"
/>
<path stroke="#c0dcf8" vector-effect="non-scaling-stroke" d="
  M 56.86 264.56
  L 39.96 264.75"
/>
<path stroke="#ddedfd" vector-effect="non-scaling-stroke" d="
  M 56.86 264.56
  C 59.10 293.59 61.52 322.89 67.33 351.48
  C 69.70 363.13 73.20 377.07 80.33 386.64
  C 87.25 395.94 94.67 389.37 98.43 382.18
  C 105.36 368.94 108.52 352.98 110.77 338.21
  Q 116.35 301.66 118.79 264.75"
/>
<path stroke="#ddedfd" vector-effect="non-scaling-stroke" d="
  M 222.91 264.55
  C 225.52 310.59 227.88 357.24 235.94 402.71
  C 238.14 415.10 241.07 427.72 246.66 439.07
  C 256.45 458.91 265.73 439.85 268.88 430.66
  C 272.70 419.50 275.23 408.93 277.21 396.59
  C 284.15 353.29 286.65 306.10 289.04 264.75"
/>
<path stroke="#ddedfd" vector-effect="non-scaling-stroke" d="
  M 393.39 264.56
  C 395.24 296.88 398.18 329.90 405.97 361.40
  C 408.07 369.92 418.27 405.50 432.83 385.04
  Q 435.61 381.13 437.35 376.57
  C 444.17 358.75 447.50 339.39 449.74 320.50
  Q 453.04 292.69 455.04 264.75"
/>
</g>
<path fill="#cbe3fa" d="
  M 222.50 247.56
  L 205.00 247.46
  C 202.60 204.52 199.98 162.27 193.74 119.01
  C 192.73 112.05 183.02 52.82 167.36 66.03
  C 156.90 74.85 152.37 97.26 149.99 110.36
  C 146.63 128.82 144.41 148.52 142.85 167.57
  Q 139.71 205.84 137.35 244.18
  Q 137.27 245.53 137.01 247.44
  L 120.03 247.37
  C 122.89 202.40 125.30 157.04 132.25 112.56
  C 135.18 93.85 142.71 56.24 163.55 48.48
  C 201.42 34.37 210.76 112.28 213.15 132.49
  C 217.64 170.37 219.91 208.66 221.96 246.75
  C 221.99 247.15 222.16 247.38 222.50 247.56
  Z"
/>
<path fill="#cbe3fa" d="
  M 392.00 247.46
  L 374.89 247.45
  Q 372.56 213.53 370.10 179.57
  C 367.98 150.46 364.56 114.70 355.54 84.75
  C 353.79 78.92 345.17 57.96 335.83 65.88
  C 332.69 68.54 329.19 75.47 327.56 80.07
  C 320.71 99.31 317.66 119.79 315.46 140.02
  Q 309.64 193.44 307.11 247.35
  L 290.00 247.38
  C 292.67 195.26 294.86 152.20 303.19 105.84
  C 306.44 87.73 314.25 50.48 337.29 47.18
  C 373.07 42.04 380.80 116.03 383.26 138.50
  C 387.37 175.91 389.52 211.11 392.00 247.46
  Z"
/>
<path fill="#eef7ff" d="
  M 374.89 247.45
  L 307.11 247.35
  Q 309.64 193.44 315.46 140.02
  C 317.66 119.79 320.71 99.31 327.56 80.07
  C 329.19 75.47 332.69 68.54 335.83 65.88
  C 345.17 57.96 353.79 78.92 355.54 84.75
  C 364.56 114.70 367.98 150.46 370.10 179.57
  Q 372.56 213.53 374.89 247.45
  Z"
/>
<path fill="#eef7ff" d="
  M 205.00 247.46
  L 137.01 247.44
  Q 137.27 245.53 137.35 244.18
  Q 139.71 205.84 142.85 167.57
  C 144.41 148.52 146.63 128.82 149.99 110.36
  C 152.37 97.26 156.90 74.85 167.36 66.03
  C 183.02 52.82 192.73 112.05 193.74 119.01
  C 199.98 162.27 202.60 204.52 205.00 247.46
  Z"
/>
<path fill="#b5d5f5" d="
  M 120.03 247.37
  L 137.01 247.44
  L 205.00 247.46
  L 222.50 247.56
  L 290.00 247.38
  L 307.11 247.35
  L 374.89 247.45
  L 392.00 247.46
  Q 446.29 247.49 500.58 247.50
  C 506.80 247.50 510.86 248.91 512.00 255.31
  L 512.00 256.81
  C 510.69 263.50 506.42 264.51 500.00 264.47
  Q 486.00 264.40 471.98 264.68
  Q 463.54 264.14 455.04 264.75
  L 393.39 264.56
  L 376.14 264.72
  L 305.95 264.65
  Q 297.57 264.16 289.04 264.75
  L 222.91 264.55
  L 205.96 264.75
  L 136.44 264.56
  Q 136.06 264.56 135.93 264.91
  L 135.79 265.25
  L 135.75 264.78
  Q 135.70 264.32 135.24 264.33
  L 118.79 264.75
  L 56.86 264.56
  L 39.96 264.75
  Q 25.67 264.36 11.37 264.47
  C 5.25 264.51 1.30 263.14 0.00 256.94
  L 0.00 254.94
  C 1.34 249.07 5.11 247.48 11.02 247.51
  C 47.34 247.65 83.67 247.70 120.03 247.37
  Z"
/>
<path fill="#cbe3fa" d="
  M 135.79 265.25
  Q 134.31 287.92 131.26 315.50
  C 129.40 332.26 126.83 349.74 122.98 364.83
  C 118.33 383.06 105.88 416.62 79.59 406.83
  C 57.16 398.47 50.65 358.40 47.65 338.22
  Q 42.20 301.66 39.96 264.75
  L 56.86 264.56
  C 59.10 293.59 61.52 322.89 67.33 351.48
  C 69.70 363.13 73.20 377.07 80.33 386.64
  C 87.25 395.94 94.67 389.37 98.43 382.18
  C 105.36 368.94 108.52 352.98 110.77 338.21
  Q 116.35 301.66 118.79 264.75
  L 135.24 264.33
  Q 135.70 264.32 135.75 264.78
  L 135.79 265.25
  Z"
/>
<path fill="#cbe3fa" d="
  M 305.95 264.65
  Q 303.67 314.60 298.83 364.06
  C 296.47 388.16 289.74 458.59 260.93 464.49
  C 227.75 471.28 219.06 409.85 216.23 389.25
  C 210.65 348.65 208.00 303.72 205.96 264.75
  L 222.91 264.55
  C 225.52 310.59 227.88 357.24 235.94 402.71
  C 238.14 415.10 241.07 427.72 246.66 439.07
  C 256.45 458.91 265.73 439.85 268.88 430.66
  C 272.70 419.50 275.23 408.93 277.21 396.59
  C 284.15 353.29 286.65 306.10 289.04 264.75
  Q 297.57 264.16 305.95 264.65
  Z"
/>
<path fill="#cbe3fa" d="
  M 393.39 264.56
  C 395.24 296.88 398.18 329.90 405.97 361.40
  C 408.07 369.92 418.27 405.50 432.83 385.04
  Q 435.61 381.13 437.35 376.57
  C 444.17 358.75 447.50 339.39 449.74 320.50
  Q 453.04 292.69 455.04 264.75
  Q 463.54 264.14 471.98 264.68
  Q 469.65 305.45 463.11 345.48
  C 460.27 362.86 455.81 382.69 445.43 396.92
  C 436.92 408.58 421.51 412.22 409.51 403.52
  C 393.25 391.73 387.52 360.78 384.21 341.50
  Q 379.11 311.85 376.14 264.72
  L 393.39 264.56
  Z"
/>
<path fill="#eef7ff" d="
  M 56.86 264.56
  L 118.79 264.75
  Q 116.35 301.66 110.77 338.21
  C 108.52 352.98 105.36 368.94 98.43 382.18
  C 94.67 389.37 87.25 395.94 80.33 386.64
  C 73.20 377.07 69.70 363.13 67.33 351.48
  C 61.52 322.89 59.10 293.59 56.86 264.56
  Z"
/>
<path fill="#eef7ff" d="
  M 222.91 264.55
  L 289.04 264.75
  C 286.65 306.10 284.15 353.29 277.21 396.59
  C 275.23 408.93 272.70 419.50 268.88 430.66
  C 265.73 439.85 256.45 458.91 246.66 439.07
  C 241.07 427.72 238.14 415.10 235.94 402.71
  C 227.88 357.24 225.52 310.59 222.91 264.55
  Z"
/>
<path fill="#eef7ff" d="
  M 393.39 264.56
  L 455.04 264.75
  Q 453.04 292.69 449.74 320.50
  C 447.50 339.39 444.17 358.75 437.35 376.57
  Q 435.61 381.13 432.83 385.04
  C 418.27 405.50 408.07 369.92 405.97 361.40
  C 398.18 329.90 395.24 296.88 393.39 264.56
  Z"
/>
</svg>
