<?xml version="1.0" encoding="UTF-8" standalone="no"?>
<!DOCTYPE svg PUBLIC "-//W3C//DTD SVG 1.1//EN" "http://www.w3.org/Graphics/SVG/1.1/DTD/svg11.dtd">
<svg xmlns="http://www.w3.org/2000/svg" version="1.1" viewBox="0.00 0.00 512.00 512.00">
<g stroke-width="2.00" fill="none" stroke-linecap="butt">
<path stroke="#ffe261" vector-effect="non-scaling-stroke" d="
  M 256.08 0.00
  L 256.02 45.21"
/>
<path stroke="#fc6c24" vector-effect="non-scaling-stroke" d="
  M 256.04 75.29
  L 256.01 165.70"
/>
<path stroke="#ffbd4a" vector-effect="non-scaling-stroke" d="
  M 256.01 165.70
  C 205.19 166.86 193.76 235.56 241.02 253.42"
/>
<path stroke="#ffb517" vector-effect="non-scaling-stroke" d="
  M 241.02 253.42
  L 241.01 361.25"
/>
<path stroke="#ae8453" vector-effect="non-scaling-stroke" d="
  M 241.01 361.25
  L 120.50 361.46"
/>
<path stroke="#9b526a" vector-effect="non-scaling-stroke" d="
  M 391.48 360.99
  Q 390.77 361.50 389.75 361.50
  Q 330.37 361.63 271.00 361.30"
/>
<path stroke="#fc8424" vector-effect="non-scaling-stroke" d="
  M 271.00 361.30
  L 271.00 253.47"
/>
<path stroke="#fc913b" vector-effect="non-scaling-stroke" d="
  M 271.00 253.47
  Q 292.38 244.92 298.89 224.50
  C 308.22 195.22 286.63 166.15 256.01 165.70"
/>
<path stroke="#ffe261" vector-effect="non-scaling-stroke" d="
  M 256.01 165.70
  L 256.00 255.97"
/>
<path stroke="#ffe261" vector-effect="non-scaling-stroke" d="
  M 256.00 255.97
  Q 248.64 255.82 241.02 253.42"
/>
<path stroke="#ffcd17" vector-effect="non-scaling-stroke" d="
  M 271.00 253.47
  Q 263.62 255.80 256.00 255.97"
/>
<path stroke="#ffcd17" vector-effect="non-scaling-stroke" d="
  M 256.00 255.97
  L 256.00 361.52"
/>
<path stroke="#aea86a" vector-effect="non-scaling-stroke" d="
  M 256.00 361.52
  L 241.01 361.25"
/>
<path stroke="#9d8e46" vector-effect="non-scaling-stroke" d="
  M 271.00 361.30
  L 256.00 361.52"
/>
<path stroke="#305080" vector-effect="non-scaling-stroke" d="
  M 451.72 436.01
  Q 450.34 436.81 448.50 436.81
  Q 353.30 436.76 258.10 436.75
  C 257.55 436.75 256.55 436.42 256.00 436.29"
/>
<path stroke="#4c6a99" vector-effect="non-scaling-stroke" d="
  M 256.00 436.29
  L 256.00 361.52"
/>
<path stroke="#405d8c" vector-effect="non-scaling-stroke" d="
  M 256.00 436.29
  Q 255.80 436.20 255.70 436.49"
/>
<path stroke="#4c6a99" vector-effect="non-scaling-stroke" d="
  M 255.70 436.49
  L 60.97 436.75
  Q 60.60 436.75 60.53 436.38
  Q 60.46 436.01 60.26 436.01"
/>
<path stroke="#305080" vector-effect="non-scaling-stroke" d="
  M 255.70 436.49
  L 255.92 512.00"
/>
</g>
<path fill="#ffea94" d="
  M 241.08 0.00
  L 256.08 0.00
  L 256.02 45.21
  L 241.59 45.20
  A 0.56 0.56 0.0 0 1 241.04 44.64
  L 241.08 0.00
  Z"
/>
<path fill="#ffd92e" d="
  M 256.08 0.00
  L 271.00 0.00
  L 270.98 44.69
  Q 270.98 45.22 270.44 45.22
  L 256.02 45.21
  L 256.08 0.00
  Z"
/>
<rect fill="#ffd92e" x="-15.08" y="-22.63" transform="translate(410.42,86.54) rotate(44.9)" width="30.16" height="45.26" rx="0.57"/>
<rect fill="#ffea94" x="-15.03" y="-22.63" transform="translate(101.62,86.50) rotate(-45.0)" width="30.06" height="45.26" rx="0.54"/>
<path fill="#ff9000" d="
  M 256.04 75.29
  L 256.01 165.70
  C 205.19 166.86 193.76 235.56 241.02 253.42
  L 241.01 361.25
  L 120.50 361.46
  Q 120.51 289.33 120.49 217.75
  Q 120.49 204.52 121.15 197.77
  C 128.05 127.60 185.76 76.40 256.04 75.29
  Z"
/>
<path fill="#f94848" d="
  M 256.04 75.29
  C 325.74 76.05 383.38 127.30 390.74 196.83
  Q 391.45 203.54 391.47 216.81
  Q 391.54 288.91 391.48 360.99
  Q 390.77 361.50 389.75 361.50
  Q 330.37 361.63 271.00 361.30
  L 271.00 253.47
  Q 292.38 244.92 298.89 224.50
  C 308.22 195.22 286.63 166.15 256.01 165.70
  L 256.04 75.29
  Z"
/>
<path fill="#ffea94" d="
  M 256.01 165.70
  L 256.00 255.97
  Q 248.64 255.82 241.02 253.42
  C 193.76 235.56 205.19 166.86 256.01 165.70
  Z"
/>
<path fill="#ffd92e" d="
  M 256.01 165.70
  C 286.63 166.15 308.22 195.22 298.89 224.50
  Q 292.38 244.92 271.00 253.47
  Q 263.62 255.80 256.00 255.97
  L 256.01 165.70
  Z"
/>
<rect fill="#ffea94" x="15.01" y="225.76" width="45.24" height="30.24" rx="0.60"/>
<rect fill="#ffd92e" x="451.75" y="225.98" width="45.24" height="30.02" rx="0.53"/>
<path fill="#ffd92e" d="
  M 241.02 253.42
  Q 248.64 255.82 256.00 255.97
  L 256.00 361.52
  L 241.01 361.25
  L 241.02 253.42
  Z"
/>
<path fill="#fec000" d="
  M 271.00 253.47
  L 271.00 361.30
  L 256.00 361.52
  L 256.00 255.97
  Q 263.62 255.80 271.00 253.47
  Z"
/>
<path fill="#3c5c8c" d="
  M 391.48 360.99
  C 391.73 361.84 445.70 361.50 451.20 361.49
  Q 451.71 361.48 451.71 362.00
  L 451.72 436.01
  Q 450.34 436.81 448.50 436.81
  Q 353.30 436.76 258.10 436.75
  C 257.55 436.75 256.55 436.42 256.00 436.29
  L 256.00 361.52
  L 271.00 361.30
  Q 330.37 361.63 389.75 361.50
  Q 390.77 361.50 391.48 360.99
  Z"
/>
<path fill="#5c77a5" d="
  M 120.50 361.46
  L 241.01 361.25
  L 256.00 361.52
  L 256.00 436.29
  Q 255.80 436.20 255.70 436.49
  L 60.97 436.75
  Q 60.60 436.75 60.53 436.38
  Q 60.46 436.01 60.26 436.01
  L 60.27 362.04
  Q 60.27 361.51 60.79 361.51
  L 120.50 361.46
  Z"
/>
<path fill="#3c5c8c" d="
  M 60.26 436.01
  Q 60.46 436.01 60.53 436.38
  Q 60.60 436.75 60.97 436.75
  L 255.70 436.49
  L 255.92 512.00
  L 0.00 512.00
  L 0.00 436.83
  Q 29.37 436.69 58.75 436.97
  Q 60.28 436.98 60.26 436.01
  Z"
/>
<path fill="#244373" d="
  M 451.72 436.01
  Q 451.76 436.17 451.70 436.44
  Q 451.63 436.73 451.92 436.73
  L 512.00 436.76
  L 512.00 512.00
  L 255.92 512.00
  L 255.70 436.49
  Q 255.80 436.20 256.00 436.29
  C 256.55 436.42 257.55 436.75 258.10 436.75
  Q 353.30 436.76 448.50 436.81
  Q 450.34 436.81 451.72 436.01
  Z"
/>
</svg>
