<svg xmlns="http://www.w3.org/2000/svg" viewBox="0 0 39.69 21.76"><defs><style>.cls-1{fill:#e43a35;}.cls-1,.cls-2,.cls-3,.cls-4{fill-rule:evenodd;}.cls-2{fill:#458abd;}.cls-3{fill:#5997c5;}.cls-4{fill:#ed5451;}</style></defs><g id="Слой_2" data-name="Слой 2"><g id="Слой_1-2" data-name="Слой 1"><polygon class="cls-1" points="19.84 15.04 28.32 15.04 28.32 8.13 19.87 8.11 11.37 8.16 11.34 15.06 19.84 15.04"/><polygon class="cls-2" points="6.32 19.59 19.81 19.59 19.81 19.59 33.36 19.59 33.42 14.92 28.23 14.89 19.64 14.89 19.64 14.89 11.34 14.89 6.35 14.89 6.32 19.59"/><path class="cls-3" d="M0,19.39v2.32l19.64.05h20v-2.4l-20.07,0Z"/><path class="cls-4" d="M11.37,8.71H30.73a12.58,12.58,0,0,0-.46-4.55A6.19,6.19,0,0,0,28.2,1.35C25.82-.43,23.22.06,19.87.06,16,.06,11.2-.65,9.41,4.21a13.11,13.11,0,0,0-.34,4.47Z"/></g></g></svg>