<?xml version="1.0" encoding="UTF-8" standalone="no"?>
<!DOCTYPE svg PUBLIC "-//W3C//DTD SVG 1.1//EN" "http://www.w3.org/Graphics/SVG/1.1/DTD/svg11.dtd">
<svg xmlns="http://www.w3.org/2000/svg" version="1.1" viewBox="0.00 0.00 512.00 512.00">
<g stroke-width="2.00" fill="none" stroke-linecap="butt">
<path stroke="#f84e0d" vector-effect="non-scaling-stroke" d="
  M 255.75 242.04
  L 256.00 362.00"
/>
<path stroke="#a35a37" vector-effect="non-scaling-stroke" d="
  M 256.00 362.00
  L 150.75 362.04"
/>
<path stroke="#913920" vector-effect="non-scaling-stroke" d="
  M 361.00 362.04
  L 256.00 362.00"
/>
<path stroke="#3d444a" vector-effect="non-scaling-stroke" d="
  M 256.00 362.00
  L 256.00 391.16
  A 0.83 0.83 0.0 0 0 256.83 391.99
  L 361.00 391.96"
/>
<path stroke="#3d444a" vector-effect="non-scaling-stroke" d="
  M 450.97 481.94
  L 256.25 482.00"
/>
<path stroke="#4f575c" vector-effect="non-scaling-stroke" d="
  M 256.25 482.00
  L 255.99 393.37
  A 1.39 1.38 0.0 0 0 254.60 391.99
  L 151.00 391.96"
/>
<path stroke="#3d444a" vector-effect="non-scaling-stroke" d="
  M 256.25 482.00
  Q 255.63 495.98 256.25 509.96"
/>
<path stroke="#4f575c" vector-effect="non-scaling-stroke" d="
  M 256.25 482.00
  L 61.97 482.00
  Q 61.41 482.00 61.25 481.46
  L 61.04 480.75"
/>
</g>
<path fill="#ff641a" d="
  M 255.75 242.04
  L 256.00 362.00
  L 150.75 362.04
  Q 115.78 361.96 80.79 362.01
  Q 73.24 362.01 69.90 360.56
  C 62.35 357.27 60.49 350.25 61.27 342.21
  C 64.25 311.60 88.49 288.24 114.45 274.18
  C 157.34 250.96 207.50 241.97 255.75 242.04
  Z"
/>
<path fill="#f03800" d="
  M 255.75 242.04
  Q 290.97 241.61 331.24 249.78
  C 376.13 258.89 447.57 288.71 450.92 343.05
  C 451.69 355.58 445.93 362.02 433.56 362.00
  Q 397.28 361.97 361.00 362.04
  L 256.00 362.00
  L 255.75 242.04
  Z"
/>
<path fill="#474f54" d="
  M 150.75 362.04
  L 256.00 362.00
  L 256.00 391.16
  A 0.83 0.83 0.0 0 0 256.83 391.99
  L 361.00 391.96
  Q 397.44 392.04 433.88 391.99
  C 444.66 391.97 450.97 397.15 450.98 408.31
  Q 451.04 444.91 450.97 481.94
  L 256.25 482.00
  L 255.99 393.37
  A 1.39 1.38 0.0 0 0 254.60 391.99
  L 151.00 391.96
  L 150.75 362.04
  Z"
/>
<path fill="#32393f" d="
  M 256.00 362.00
  L 361.00 362.04
  L 361.00 391.96
  L 256.83 391.99
  A 0.83 0.83 0.0 0 1 256.00 391.16
  L 256.00 362.00
  Z"
/>
<path fill="#575f64" d="
  M 151.00 391.96
  L 254.60 391.99
  A 1.39 1.38 0.0 0 1 255.99 393.37
  L 256.25 482.00
  L 61.97 482.00
  Q 61.41 482.00 61.25 481.46
  L 61.04 480.75
  Q 60.97 446.15 61.00 411.55
  C 61.02 398.09 65.59 391.99 79.45 392.00
  Q 115.23 392.03 151.00 391.96
  Z"
/>
<path fill="#474f54" d="
  M 61.04 480.75
  L 61.25 481.46
  Q 61.41 482.00 61.97 482.00
  L 256.25 482.00
  Q 255.63 495.98 256.25 509.96
  L 38.96 509.99
  Q 38.45 509.99 38.04 509.69
  C 27.55 502.06 29.16 486.92 41.47 482.79
  C 46.53 481.09 54.83 481.97 60.27 482.01
  Q 60.80 482.02 60.97 481.52
  Q 61.10 481.14 61.04 480.75
  Z"
/>
<path fill="#32393f" d="
  M 450.97 481.94
  C 456.82 482.03 466.61 480.84 471.83 483.12
  C 483.07 488.04 484.27 502.73 474.26 509.69
  Q 473.84 509.99 473.32 509.99
  L 256.25 509.96
  Q 255.63 495.98 256.25 482.00
  L 450.97 481.94
  Z"
/>
</svg>
