<?xml version="1.0" encoding="UTF-8"?>
<svg id="_Слой_2" data-name="Слой 2" xmlns="http://www.w3.org/2000/svg" viewBox="0 0 324.41 277.86">
  <defs>
    <style>
      .cls-1 {
        stroke-width: 18px;
      }

      .cls-1, .cls-2, .cls-3 {
        stroke: #272c2a;
      }

      .cls-1, .cls-4 {
        fill: none;
        stroke-linecap: round;
        stroke-linejoin: round;
      }

      .cls-2 {
        fill: #272c2a;
      }

      .cls-2, .cls-5, .cls-3 {
        stroke-miterlimit: 10;
      }

      .cls-5 {
        fill: #adcc7e;
        stroke-width: 4.01px;
      }

      .cls-5, .cls-4 {
        stroke: #fff;
      }

      .cls-3 {
        fill: #eaf1f7;
        stroke-width: 10px;
      }

      .cls-4 {
        stroke-width: 12.04px;
      }
    </style>
  </defs>
  <g id="_Слой_2-2" data-name="Слой 2">
    <g>
      <path class="cls-3" d="m5.04,44.11h267.91v202.21c0,5.64-4.58,10.22-10.22,10.22H15.26c-5.64,0-10.22-4.58-10.22-10.22V44.11h0Z"/>
      <g>
        <g>
          <line class="cls-1" x1="47.98" y1="78.83" x2="47.98" y2="135"/>
          <path class="cls-2" d="m120.7,79.55c4.31,6.44,6.46,15.53,6.46,27.26s-2.15,20.94-6.46,27.41c-4.31,6.48-10.63,9.71-18.97,9.71s-14.66-3.24-18.97-9.71c-4.31-6.48-6.46-15.61-6.46-27.41s2.15-20.82,6.46-27.26c4.31-6.44,10.63-9.66,18.97-9.66s14.66,3.22,18.97,9.66Zm-26.45,7.88c-1.59,3.9-2.39,10.36-2.39,19.38s.8,15.87,2.39,19.73c1.59,3.87,4.08,5.8,7.48,5.8s5.95-1.93,7.48-5.8c1.53-3.87,2.29-10.44,2.29-19.73s-.8-15.65-2.39-19.48c-1.59-3.83-4.05-5.75-7.37-5.75s-5.88,1.95-7.48,5.85Z"/>
          <line class="cls-1" x1="158.19" y1="78.87" x2="158.19" y2="135.04"/>
          <path class="cls-2" d="m230.91,80.36c4.31,6.44,6.46,15.53,6.46,27.26s-2.15,20.94-6.46,27.41c-4.31,6.48-10.63,9.71-18.97,9.71s-14.66-3.24-18.97-9.71c-4.31-6.48-6.46-15.61-6.46-27.41s2.15-20.82,6.46-27.26c4.31-6.44,10.63-9.66,18.97-9.66s14.66,3.22,18.97,9.66Zm-26.45,7.88c-1.59,3.9-2.39,10.36-2.39,19.38s.8,15.87,2.39,19.73c1.59,3.87,4.08,5.8,7.48,5.8s5.95-1.93,7.48-5.8c1.53-3.87,2.29-10.44,2.29-19.73s-.8-15.65-2.39-19.48c-1.59-3.83-4.05-5.75-7.37-5.75s-5.88,1.95-7.48,5.85Z"/>
        </g>
        <g>
          <line class="cls-1" x1="228.79" y1="171.53" x2="228.79" y2="227.7"/>
          <path class="cls-2" d="m175.05,162.59c8.34,0,14.66,3.22,18.97,9.66,4.31,6.44,6.46,15.53,6.46,27.26,0,11.8-2.15,20.94-6.46,27.41-4.31,6.48-10.63,9.71-18.97,9.71s-14.66-3.24-18.97-9.71c-4.31-6.48-6.46-15.61-6.46-27.41,0-11.73,2.15-20.82,6.46-27.26,4.31-6.44,10.63-9.66,18.97-9.66Zm0,11.7c-3.32,0-5.78,1.92-7.37,5.75-1.59,3.83-2.39,10.32-2.39,19.48,0,9.29.76,15.87,2.29,19.73,1.53,3.87,4.02,5.8,7.48,5.8s5.88-1.93,7.48-5.8c1.59-3.87,2.39-10.44,2.39-19.73,0-9.02-.8-15.48-2.39-19.38-1.59-3.9-4.08-5.85-7.48-5.85Z"/>
          <line class="cls-1" x1="118.59" y1="171.58" x2="118.59" y2="227.75"/>
          <path class="cls-2" d="m64.84,162.63c8.34,0,14.66,3.22,18.97,9.66,4.31,6.44,6.46,15.53,6.46,27.26,0,11.8-2.15,20.94-6.46,27.41-4.31,6.48-10.63,9.71-18.97,9.71-8.34,0-14.66-3.24-18.97-9.71-4.31-6.48-6.46-15.61-6.46-27.41,0-11.73,2.15-20.82,6.46-27.26,4.31-6.44,10.63-9.66,18.97-9.66Zm0,11.7c-3.32,0-5.78,1.92-7.37,5.75-1.59,3.83-2.39,10.32-2.39,19.48,0,9.29.76,15.87,2.29,19.73,1.53,3.87,4.02,5.8,7.48,5.8,3.39,0,5.88-1.93,7.48-5.8,1.59-3.87,2.39-10.44,2.39-19.73,0-9.02-.8-15.48-2.39-19.38-1.59-3.9-4.08-5.85-7.48-5.85Z"/>
        </g>
      </g>
      <g>
        <circle class="cls-5" cx="270.86" cy="224.31" r="51.54"/>
        <polyline class="cls-4" points="246.4 225.35 263.69 242.64 297.25 209.09"/>
      </g>
      <path class="cls-3" d="m15.22,5h247.52c5.64,0,10.22,4.58,10.22,10.22v28.27H5V15.22c0-5.64,4.58-10.22,10.22-10.22Z"/>
    </g>
  </g>
</svg>