<?xml version="1.0" encoding="UTF-8" standalone="no"?>
<!DOCTYPE svg PUBLIC "-//W3C//DTD SVG 1.1//EN" "http://www.w3.org/Graphics/SVG/1.1/DTD/svg11.dtd">
<svg xmlns="http://www.w3.org/2000/svg" version="1.1" viewBox="0.00 0.00 512.00 512.00">
<g stroke-width="2.00" fill="none" stroke-linecap="butt">
<path stroke="#e6ebf6" vector-effect="non-scaling-stroke" d="
  M 202.75 0.00
  Q 202.75 34.75 202.75 69.50
  Q 202.75 70.11 202.00 70.75"
/>
<path stroke="#d3d8e9" vector-effect="non-scaling-stroke" d="
  M 202.00 70.75
  L 85.01 70.75
  Q 84.50 70.75 84.50 71.26
  L 84.50 100.48
  A 0.52 0.52 0.0 0 0 85.02 101.00
  Q 143.44 101.00 201.94 101.00
  Q 202.11 100.64 202.73 100.75"
/>
<path stroke="#e6ebf6" vector-effect="non-scaling-stroke" d="
  M 202.73 100.75
  L 202.64 136.74"
/>
<path stroke="#d3d8e9" vector-effect="non-scaling-stroke" d="
  M 202.64 136.74
  L 85.03 136.74
  A 0.53 0.53 0.0 0 0 84.50 137.27
  L 84.50 166.48
  A 0.52 0.52 0.0 0 0 85.02 167.00
  Q 143.44 167.00 201.94 167.00
  Q 202.07 166.64 202.76 166.76"
/>
<path stroke="#b2b8cb" vector-effect="non-scaling-stroke" d="
  M 202.76 166.76
  Q 202.81 167.00 202.87 167.00"
/>
<path stroke="#e6ebf6" vector-effect="non-scaling-stroke" d="
  M 202.87 167.00
  L 202.69 202.74"
/>
<path stroke="#d3d8e9" vector-effect="non-scaling-stroke" d="
  M 202.69 202.74
  L 85.03 202.74
  A 0.53 0.53 0.0 0 0 84.50 203.27
  L 84.50 232.48
  A 0.52 0.52 0.0 0 0 85.02 233.00
  L 202.76 232.98"
/>
<path stroke="#b2b8cb" vector-effect="non-scaling-stroke" d="
  M 202.76 232.98
  Q 202.78 232.99 202.79 233.00"
/>
<path stroke="#e6ebf6" vector-effect="non-scaling-stroke" d="
  M 202.79 233.00
  L 202.67 268.74"
/>
<path stroke="#d3d8e9" vector-effect="non-scaling-stroke" d="
  M 202.67 268.74
  L 85.03 268.74
  A 0.53 0.53 0.0 0 0 84.50 269.27
  L 84.50 298.24
  A 0.76 0.76 0.0 0 0 85.26 299.00
  Q 143.70 299.00 201.94 299.00
  Q 202.07 298.64 202.76 298.76"
/>
<path stroke="#b2b8cb" vector-effect="non-scaling-stroke" d="
  M 202.76 298.76
  L 202.84 299.00"
/>
<path stroke="#e6ebf6" vector-effect="non-scaling-stroke" d="
  M 202.84 299.00
  L 202.76 334.76"
/>
<path stroke="#b2b8cb" vector-effect="non-scaling-stroke" d="
  M 202.76 334.76
  Q 202.73 334.76 202.70 334.77"
/>
<path stroke="#d3d8e9" vector-effect="non-scaling-stroke" d="
  M 202.70 334.77
  L 85.25 334.75
  A 0.76 0.75 90.0 0 0 84.50 335.51
  L 84.50 364.64
  A 0.35 0.35 0.0 0 0 84.85 364.99
  L 201.78 364.99"
/>
<path stroke="#e6ebf6" vector-effect="non-scaling-stroke" d="
  M 201.78 364.99
  C 203.61 366.16 202.63 396.96 202.53 401.04"
/>
<path stroke="#d3d8e9" vector-effect="non-scaling-stroke" d="
  M 202.53 401.04
  L 85.25 400.75
  A 0.75 0.75 0.0 0 0 84.50 401.50
  L 84.50 430.48
  Q 84.50 430.99 85.01 430.99
  L 202.58 430.99"
/>
<path stroke="#e6ebf6" vector-effect="non-scaling-stroke" d="
  M 202.58 430.99
  L 202.61 512.00"
/>
<path stroke="#72c7e6" vector-effect="non-scaling-stroke" d="
  M 404.01 309.84
  C 372.09 318.34 347.57 341.13 339.22 373.04
  C 326.68 420.97 356.34 468.25 404.00 480.29"
/>
<path stroke="#d0d0df" vector-effect="non-scaling-stroke" d="
  M 202.58 430.99
  Q 201.79 415.98 202.53 401.04"
/>
<path stroke="#d0d0df" vector-effect="non-scaling-stroke" d="
  M 201.78 364.99
  Q 201.68 364.70 202.54 364.71"
/>
<path stroke="#b0b0c2" vector-effect="non-scaling-stroke" d="
  M 202.54 364.71
  L 320.68 364.97
  Q 321.20 364.97 321.20 364.45
  L 321.27 335.29
  Q 321.28 334.76 320.75 334.76
  L 202.76 334.76"
/>
<path stroke="#b0b0c2" vector-effect="non-scaling-stroke" d="
  M 202.84 299.00
  L 320.49 299.00
  Q 321.00 299.00 321.00 298.49
  L 321.00 269.27
  Q 321.00 268.76 320.49 268.76
  L 203.25 268.76"
/>
<path stroke="#d0d0df" vector-effect="non-scaling-stroke" d="
  M 203.25 268.76
  L 202.67 268.74"
/>
<path stroke="#b0b0c2" vector-effect="non-scaling-stroke" d="
  M 202.79 233.00
  L 320.49 233.00
  Q 320.99 233.00 320.99 232.50
  L 321.02 203.16
  A 0.40 0.40 0.0 0 0 320.62 202.76
  L 203.25 202.76"
/>
<path stroke="#d0d0df" vector-effect="non-scaling-stroke" d="
  M 203.25 202.76
  L 202.69 202.74"
/>
<path stroke="#b0b0c2" vector-effect="non-scaling-stroke" d="
  M 202.87 167.00
  L 320.49 167.00
  Q 321.00 167.00 321.00 166.49
  L 321.00 137.27
  Q 321.00 136.76 320.49 136.76
  L 203.25 136.76"
/>
<path stroke="#d0d0df" vector-effect="non-scaling-stroke" d="
  M 203.25 136.76
  L 202.64 136.74"
/>
<path stroke="#b0b0c2" vector-effect="non-scaling-stroke" d="
  M 202.73 100.75
  L 320.50 100.99
  Q 321.00 100.99 321.00 100.48
  L 321.00 71.25
  Q 321.00 70.75 320.50 70.75
  L 203.26 70.75
  Q 203.09 70.75 202.99 70.89
  Q 202.89 71.02 202.74 71.04"
/>
<path stroke="#d0d0df" vector-effect="non-scaling-stroke" d="
  M 202.74 71.04
  Q 202.39 70.70 202.00 70.75"
/>
<path stroke="#9d9db5" vector-effect="non-scaling-stroke" d="
  M 202.74 71.04
  L 202.73 100.75"
/>
<path stroke="#9d9db5" vector-effect="non-scaling-stroke" d="
  M 203.25 136.76
  Q 203.23 136.93 203.04 137.01
  Q 202.81 137.10 202.81 137.35
  L 202.76 166.76"
/>
<path stroke="#9d9db5" vector-effect="non-scaling-stroke" d="
  M 203.25 202.76
  Q 203.23 202.93 203.04 203.01
  Q 202.81 203.10 202.81 203.36
  L 202.76 232.98"
/>
<path stroke="#9d9db5" vector-effect="non-scaling-stroke" d="
  M 203.25 268.76
  Q 203.23 268.93 203.04 269.01
  Q 202.81 269.10 202.81 269.35
  L 202.76 298.76"
/>
<path stroke="#009adf" vector-effect="non-scaling-stroke" d="
  M 424.34 307.67
  Q 423.21 322.87 423.90 337.97"
/>
<path stroke="#74cfef" vector-effect="non-scaling-stroke" d="
  M 423.90 337.97
  C 374.59 338.65 348.41 395.82 381.06 432.94
  Q 397.34 451.45 423.80 452.28"
/>
<path stroke="#72c7e6" vector-effect="non-scaling-stroke" d="
  M 423.80 452.28
  Q 423.77 452.27 423.74 452.26"
/>
<path stroke="#009adf" vector-effect="non-scaling-stroke" d="
  M 423.74 452.26
  L 424.07 481.74
  Q 424.07 482.15 423.66 482.19
  L 420.76 482.49"
/>
<path stroke="#72b7e6" vector-effect="non-scaling-stroke" d="
  M 423.74 452.26
  C 443.03 451.79 459.97 443.05 470.81 427.27
  Q 486.26 404.80 477.79 376.24"
/>
<path stroke="#009adf" vector-effect="non-scaling-stroke" d="
  M 477.79 376.24
  Q 472.63 362.46 461.98 352.61"
/>
<path stroke="#72b7e6" vector-effect="non-scaling-stroke" d="
  M 461.98 352.61
  Q 445.49 338.28 423.94 337.99"
/>
<path stroke="#74bfef" vector-effect="non-scaling-stroke" d="
  M 423.94 337.99
  Q 423.92 337.98 423.90 337.97"
/>
<path stroke="#9d9db5" vector-effect="non-scaling-stroke" d="
  M 202.70 334.77
  L 202.54 364.71"
/>
<path stroke="#e6ebf6" vector-effect="non-scaling-stroke" d="
  M 423.94 337.99
  Q 423.44 366.06 424.00 394.00
  Q 424.01 394.65 424.29 395.25"
/>
<path stroke="#74cfef" vector-effect="non-scaling-stroke" d="
  M 424.29 395.25
  Q 424.29 395.79 423.73 396.06"
/>
<path stroke="#89e6fb" vector-effect="non-scaling-stroke" d="
  M 423.73 396.06
  L 394.82 374.12
  A 0.59 0.59 0.0 0 0 394.00 374.22
  L 375.76 396.96
  A 0.45 0.45 0.0 0 0 375.82 397.60
  L 422.93 436.79"
/>
<path stroke="#74cfef" vector-effect="non-scaling-stroke" d="
  M 422.93 436.79
  Q 423.04 436.63 423.83 437.41"
/>
<path stroke="#e6ebf6" vector-effect="non-scaling-stroke" d="
  M 423.83 437.41
  L 423.80 452.28"
/>
<path stroke="#72c7e6" vector-effect="non-scaling-stroke" d="
  M 461.98 352.61
  L 424.29 395.25"
/>
<path stroke="#72c7e6" vector-effect="non-scaling-stroke" d="
  M 477.79 376.24
  L 423.83 437.41"
/>
<path stroke="#15c1eb" vector-effect="non-scaling-stroke" d="
  M 422.93 436.79
  L 423.38 436.22
  A 1.43 1.40 -26.4 0 0 423.69 435.34
  L 423.73 396.06"
/>
</g>
<path fill="#e8f3ff" d="
  M 0.76 0.00
  L 202.75 0.00
  Q 202.75 34.75 202.75 69.50
  Q 202.75 70.11 202.00 70.75
  L 85.01 70.75
  Q 84.50 70.75 84.50 71.26
  L 84.50 100.48
  A 0.52 0.52 0.0 0 0 85.02 101.00
  Q 143.44 101.00 201.94 101.00
  Q 202.11 100.64 202.73 100.75
  L 202.64 136.74
  L 85.03 136.74
  A 0.53 0.53 0.0 0 0 84.50 137.27
  L 84.50 166.48
  A 0.52 0.52 0.0 0 0 85.02 167.00
  Q 143.44 167.00 201.94 167.00
  Q 202.07 166.64 202.76 166.76
  Q 202.81 167.00 202.87 167.00
  L 202.69 202.74
  L 85.03 202.74
  A 0.53 0.53 0.0 0 0 84.50 203.27
  L 84.50 232.48
  A 0.52 0.52 0.0 0 0 85.02 233.00
  L 202.76 232.98
  Q 202.78 232.99 202.79 233.00
  L 202.67 268.74
  L 85.03 268.74
  A 0.53 0.53 0.0 0 0 84.50 269.27
  L 84.50 298.24
  A 0.76 0.76 0.0 0 0 85.26 299.00
  Q 143.70 299.00 201.94 299.00
  Q 202.07 298.64 202.76 298.76
  L 202.84 299.00
  L 202.76 334.76
  Q 202.73 334.76 202.70 334.77
  L 85.25 334.75
  A 0.76 0.75 90.0 0 0 84.50 335.51
  L 84.50 364.64
  A 0.35 0.35 0.0 0 0 84.85 364.99
  L 201.78 364.99
  C 203.61 366.16 202.63 396.96 202.53 401.04
  L 85.25 400.75
  A 0.75 0.75 0.0 0 0 84.50 401.50
  L 84.50 430.48
  Q 84.50 430.99 85.01 430.99
  L 202.58 430.99
  L 202.61 512.00
  L 0.75 512.00
  L 0.76 0.00
  Z"
/>
<path fill="#e3e3ec" d="
  M 202.75 0.00
  L 404.00 0.00
  L 404.01 309.84
  C 372.09 318.34 347.57 341.13 339.22 373.04
  C 326.68 420.97 356.34 468.25 404.00 480.29
  L 403.95 512.00
  L 202.61 512.00
  L 202.58 430.99
  Q 201.79 415.98 202.53 401.04
  C 202.63 396.96 203.61 366.16 201.78 364.99
  Q 201.68 364.70 202.54 364.71
  L 320.68 364.97
  Q 321.20 364.97 321.20 364.45
  L 321.27 335.29
  Q 321.28 334.76 320.75 334.76
  L 202.76 334.76
  L 202.84 299.00
  L 320.49 299.00
  Q 321.00 299.00 321.00 298.49
  L 321.00 269.27
  Q 321.00 268.76 320.49 268.76
  L 203.25 268.76
  L 202.67 268.74
  L 202.79 233.00
  L 320.49 233.00
  Q 320.99 233.00 320.99 232.50
  L 321.02 203.16
  A 0.40 0.40 0.0 0 0 320.62 202.76
  L 203.25 202.76
  L 202.69 202.74
  L 202.87 167.00
  L 320.49 167.00
  Q 321.00 167.00 321.00 166.49
  L 321.00 137.27
  Q 321.00 136.76 320.49 136.76
  L 203.25 136.76
  L 202.64 136.74
  L 202.73 100.75
  L 320.50 100.99
  Q 321.00 100.99 321.00 100.48
  L 321.00 71.25
  Q 321.00 70.75 320.50 70.75
  L 203.26 70.75
  Q 203.09 70.75 202.99 70.89
  Q 202.89 71.02 202.74 71.04
  Q 202.39 70.70 202.00 70.75
  Q 202.75 70.11 202.75 69.50
  Q 202.75 34.75 202.75 0.00
  Z"
/>
<path fill="#bdbdd2" d="
  M 202.00 70.75
  Q 202.39 70.70 202.74 71.04
  L 202.73 100.75
  Q 202.11 100.64 201.94 101.00
  Q 143.44 101.00 85.02 101.00
  A 0.52 0.52 0.0 0 1 84.50 100.48
  L 84.50 71.26
  Q 84.50 70.75 85.01 70.75
  L 202.00 70.75
  Z"
/>
<path fill="#7c7c97" d="
  M 202.73 100.75
  L 202.74 71.04
  Q 202.89 71.02 202.99 70.89
  Q 203.09 70.75 203.26 70.75
  L 320.50 70.75
  Q 321.00 70.75 321.00 71.25
  L 321.00 100.48
  Q 321.00 100.99 320.50 100.99
  L 202.73 100.75
  Z"
/>
<path fill="#bdbdd2" d="
  M 202.64 136.74
  L 203.25 136.76
  Q 203.23 136.93 203.04 137.01
  Q 202.81 137.10 202.81 137.35
  L 202.76 166.76
  Q 202.07 166.64 201.94 167.00
  Q 143.44 167.00 85.02 167.00
  A 0.52 0.52 0.0 0 1 84.50 166.48
  L 84.50 137.27
  A 0.53 0.53 0.0 0 1 85.03 136.74
  L 202.64 136.74
  Z"
/>
<path fill="#7c7c97" d="
  M 203.25 136.76
  L 320.49 136.76
  Q 321.00 136.76 321.00 137.27
  L 321.00 166.49
  Q 321.00 167.00 320.49 167.00
  L 202.87 167.00
  Q 202.81 167.00 202.76 166.76
  L 202.81 137.35
  Q 202.81 137.10 203.04 137.01
  Q 203.23 136.93 203.25 136.76
  Z"
/>
<path fill="#bdbdd2" d="
  M 202.69 202.74
  L 203.25 202.76
  Q 203.23 202.93 203.04 203.01
  Q 202.81 203.10 202.81 203.36
  L 202.76 232.98
  L 85.02 233.00
  A 0.52 0.52 0.0 0 1 84.50 232.48
  L 84.50 203.27
  A 0.53 0.53 0.0 0 1 85.03 202.74
  L 202.69 202.74
  Z"
/>
<path fill="#7c7c97" d="
  M 203.25 202.76
  L 320.62 202.76
  A 0.40 0.40 0.0 0 1 321.02 203.16
  L 320.99 232.50
  Q 320.99 233.00 320.49 233.00
  L 202.79 233.00
  Q 202.78 232.99 202.76 232.98
  L 202.81 203.36
  Q 202.81 203.10 203.04 203.01
  Q 203.23 202.93 203.25 202.76
  Z"
/>
<path fill="#bdbdd2" d="
  M 202.67 268.74
  L 203.25 268.76
  Q 203.23 268.93 203.04 269.01
  Q 202.81 269.10 202.81 269.35
  L 202.76 298.76
  Q 202.07 298.64 201.94 299.00
  Q 143.70 299.00 85.26 299.00
  A 0.76 0.76 0.0 0 1 84.50 298.24
  L 84.50 269.27
  A 0.53 0.53 0.0 0 1 85.03 268.74
  L 202.67 268.74
  Z"
/>
<path fill="#7c7c97" d="
  M 203.25 268.76
  L 320.49 268.76
  Q 321.00 268.76 321.00 269.27
  L 321.00 298.49
  Q 321.00 299.00 320.49 299.00
  L 202.84 299.00
  L 202.76 298.76
  L 202.81 269.35
  Q 202.81 269.10 203.04 269.01
  Q 203.23 268.93 203.25 268.76
  Z"
/>
<path fill="#00aadf" d="
  M 424.34 307.67
  Q 423.21 322.87 423.90 337.97
  C 374.59 338.65 348.41 395.82 381.06 432.94
  Q 397.34 451.45 423.80 452.28
  Q 423.77 452.27 423.74 452.26
  L 424.07 481.74
  Q 424.07 482.15 423.66 482.19
  L 420.76 482.49
  L 404.00 480.29
  C 356.34 468.25 326.68 420.97 339.22 373.04
  C 347.57 341.13 372.09 318.34 404.01 309.84
  Q 414.61 307.80 424.34 307.67
  Z"
/>
<path fill="#008adf" d="
  M 424.34 307.67
  Q 456.06 308.46 479.02 327.48
  C 516.47 358.51 522.17 414.26 490.45 451.45
  Q 463.74 482.77 420.76 482.49
  L 423.66 482.19
  Q 424.07 482.15 424.07 481.74
  L 423.74 452.26
  C 443.03 451.79 459.97 443.05 470.81 427.27
  Q 486.26 404.80 477.79 376.24
  Q 472.63 362.46 461.98 352.61
  Q 445.49 338.28 423.94 337.99
  Q 423.92 337.98 423.90 337.97
  Q 423.21 322.87 424.34 307.67
  Z"
/>
<path fill="#bdbdd2" d="
  M 202.70 334.77
  L 202.54 364.71
  Q 201.68 364.70 201.78 364.99
  L 84.85 364.99
  A 0.35 0.35 0.0 0 1 84.50 364.64
  L 84.50 335.51
  A 0.76 0.75 -90.0 0 1 85.25 334.75
  L 202.70 334.77
  Z"
/>
<path fill="#7c7c97" d="
  M 202.76 334.76
  L 320.75 334.76
  Q 321.28 334.76 321.27 335.29
  L 321.20 364.45
  Q 321.20 364.97 320.68 364.97
  L 202.54 364.71
  L 202.70 334.77
  Q 202.73 334.76 202.76 334.76
  Z"
/>
<path fill="#e8f3ff" d="
  M 423.90 337.97
  Q 423.92 337.98 423.94 337.99
  Q 423.44 366.06 424.00 394.00
  Q 424.01 394.65 424.29 395.25
  Q 424.29 395.79 423.73 396.06
  L 394.82 374.12
  A 0.59 0.59 0.0 0 0 394.00 374.22
  L 375.76 396.96
  A 0.45 0.45 0.0 0 0 375.82 397.60
  L 422.93 436.79
  Q 423.04 436.63 423.83 437.41
  L 423.80 452.28
  Q 397.34 451.45 381.06 432.94
  C 348.41 395.82 374.59 338.65 423.90 337.97
  Z"
/>
<path fill="#e3e3ec" d="
  M 423.94 337.99
  Q 445.49 338.28 461.98 352.61
  L 424.29 395.25
  Q 424.01 394.65 424.00 394.00
  Q 423.44 366.06 423.94 337.99
  Z"
/>
<path fill="#00aadf" d="
  M 461.98 352.61
  Q 472.63 362.46 477.79 376.24
  L 423.83 437.41
  Q 423.04 436.63 422.93 436.79
  L 423.38 436.22
  A 1.43 1.40 -26.4 0 0 423.69 435.34
  L 423.73 396.06
  Q 424.29 395.79 424.29 395.25
  L 461.98 352.61
  Z"
/>
<path fill="#2ad8f6" d="
  M 423.73 396.06
  L 423.69 435.34
  A 1.43 1.40 -26.4 0 1 423.38 436.22
  L 422.93 436.79
  L 375.82 397.60
  A 0.45 0.45 0.0 0 1 375.76 396.96
  L 394.00 374.22
  A 0.59 0.59 0.0 0 1 394.82 374.12
  L 423.73 396.06
  Z"
/>
<path fill="#e3e3ec" d="
  M 477.79 376.24
  Q 486.26 404.80 470.81 427.27
  C 459.97 443.05 443.03 451.79 423.74 452.26
  Q 423.77 452.27 423.80 452.28
  L 423.83 437.41
  L 477.79 376.24
  Z"
/>
<path fill="#bdbdd2" d="
  M 202.53 401.04
  Q 201.79 415.98 202.58 430.99
  L 85.01 430.99
  Q 84.50 430.99 84.50 430.48
  L 84.50 401.50
  A 0.75 0.75 0.0 0 1 85.25 400.75
  L 202.53 401.04
  Z"
/>
</svg>
