<?xml version="1.0" encoding="UTF-8" standalone="no"?>
<!DOCTYPE svg PUBLIC "-//W3C//DTD SVG 1.1//EN" "http://www.w3.org/Graphics/SVG/1.1/DTD/svg11.dtd">
<svg xmlns="http://www.w3.org/2000/svg" version="1.1" viewBox="0.00 0.00 512.00 512.00">
<g stroke-width="2.00" fill="none" stroke-linecap="butt">
<path stroke="#78d154" vector-effect="non-scaling-stroke" d="
  M 256.03 0.00
  L 256.00 211.46"
/>
<path stroke="#467e55" vector-effect="non-scaling-stroke" d="
  M 356.22 117.14
  L 344.74 128.28"
/>
<path stroke="#467e55" vector-effect="non-scaling-stroke" d="
  M 344.74 128.28
  L 341.77 131.18"
/>
<path stroke="#467e55" vector-effect="non-scaling-stroke" d="
  M 341.50 131.54
  L 337.79 135.25"
/>
<path stroke="#467e55" vector-effect="non-scaling-stroke" d="
  M 336.43 136.49
  L 333.77 139.17"
/>
<path stroke="#467e55" vector-effect="non-scaling-stroke" d="
  M 333.57 139.52
  Q 332.41 140.22 331.75 141.25"
/>
<path stroke="#467e55" vector-effect="non-scaling-stroke" d="
  M 331.75 141.25
  Q 330.54 141.95 329.76 143.35"
/>
<path stroke="#467e55" vector-effect="non-scaling-stroke" d="
  M 328.46 144.50
  L 322.66 150.51"
/>
<path stroke="#467e55" vector-effect="non-scaling-stroke" d="
  M 320.46 152.50
  L 318.38 154.55"
/>
<path stroke="#467e55" vector-effect="non-scaling-stroke" d="
  M 318.69 154.37
  L 314.58 158.25"
/>
<path stroke="#467e55" vector-effect="non-scaling-stroke" d="
  M 314.50 158.46
  L 312.75 160.21"
/>
<path stroke="#467e55" vector-effect="non-scaling-stroke" d="
  M 312.44 160.49
  L 307.80 165.20"
/>
<path stroke="#467e55" vector-effect="non-scaling-stroke" d="
  M 307.80 165.20
  L 304.68 168.42"
/>
<path stroke="#467e55" vector-effect="non-scaling-stroke" d="
  M 304.44 168.49
  L 302.53 170.30"
/>
<path stroke="#467e55" vector-effect="non-scaling-stroke" d="
  M 301.55 171.53
  Q 300.36 172.23 299.83 173.22"
/>
<path stroke="#467e55" vector-effect="non-scaling-stroke" d="
  M 299.83 173.22
  L 296.70 176.43"
/>
<path stroke="#467e55" vector-effect="non-scaling-stroke" d="
  M 296.46 176.50
  L 293.77 179.21"
/>
<path stroke="#467e55" vector-effect="non-scaling-stroke" d="
  M 293.77 179.21
  L 289.49 183.50"
/>
<path stroke="#467e55" vector-effect="non-scaling-stroke" d="
  M 289.49 183.50
  L 283.77 189.20"
/>
<path stroke="#467e55" vector-effect="non-scaling-stroke" d="
  M 283.50 189.54
  Q 282.37 190.04 281.79 191.36"
/>
<path stroke="#467e55" vector-effect="non-scaling-stroke" d="
  M 280.46 192.50
  L 269.48 203.45"
/>
<path stroke="#467e55" vector-effect="non-scaling-stroke" d="
  M 268.48 204.45
  L 266.75 206.21"
/>
<path stroke="#f84e0d" vector-effect="non-scaling-stroke" d="
  M 256.03 242.24
  L 256.02 361.94"
/>
<path stroke="#a35a37" vector-effect="non-scaling-stroke" d="
  M 256.02 361.94
  L 151.51 361.87"
/>
<path stroke="#913920" vector-effect="non-scaling-stroke" d="
  M 361.00 361.79
  L 256.02 361.94"
/>
<path stroke="#3d444a" vector-effect="non-scaling-stroke" d="
  M 256.02 361.94
  L 256.00 391.22
  A 0.84 0.84 0.0 0 0 256.84 392.06
  L 360.69 392.27"
/>
<path stroke="#3d444a" vector-effect="non-scaling-stroke" d="
  M 450.50 482.07
  L 256.14 482.00"
/>
<path stroke="#4f575c" vector-effect="non-scaling-stroke" d="
  M 256.14 482.00
  L 255.98 393.17
  A 1.12 1.11 89.5 0 0 254.86 392.06
  L 151.63 392.26"
/>
<path stroke="#4f575c" vector-effect="non-scaling-stroke" d="
  M 256.14 482.00
  L 61.55 482.06"
/>
<path stroke="#3d444a" vector-effect="non-scaling-stroke" d="
  M 256.14 482.00
  L 255.88 512.00"
/>
</g>
<path fill="#97de3d" d="
  M 209.07 0.00
  L 256.03 0.00
  L 256.00 211.46
  Q 249.84 211.40 245.71 207.29
  Q 224.04 185.77 155.71 117.29
  C 146.34 107.89 153.21 93.07 166.01 92.53
  Q 180.91 91.90 195.85 92.44
  Q 196.34 92.45 196.33 91.96
  Q 196.17 58.98 196.25 26.01
  Q 196.28 13.64 197.05 11.08
  Q 199.46 2.99 209.07 0.00
  Z"
/>
<path fill="#59c36a" d="
  M 256.03 0.00
  L 303.30 0.00
  Q 306.62 1.18 309.35 3.21
  C 310.43 4.01 311.35 5.63 312.72 6.63
  Q 313.08 6.89 313.27 7.30
  C 314.22 9.30 315.49 11.01 315.49 13.32
  Q 315.53 52.68 315.48 92.05
  Q 315.48 92.53 315.96 92.52
  Q 330.10 92.46 344.29 92.50
  Q 349.24 92.52 352.01 93.79
  C 361.38 98.07 363.17 109.74 356.22 117.14
  L 344.74 128.28
  L 341.77 131.18
  Q 341.76 131.52 341.50 131.54
  L 337.79 135.25
  L 336.43 136.49
  L 333.77 139.17
  Q 333.78 139.47 333.57 139.52
  Q 332.41 140.22 331.75 141.25
  Q 330.54 141.95 329.76 143.35
  Q 329.02 143.67 328.46 144.50
  L 322.66 150.51
  Q 321.44 151.15 320.46 152.50
  L 318.38 154.55
  Q 318.54 154.46 318.69 154.37
  L 314.58 158.25
  Q 314.54 158.36 314.50 158.46
  L 312.75 160.21
  Q 312.53 160.28 312.44 160.49
  L 307.80 165.20
  L 304.68 168.42
  Q 304.88 167.89 304.44 168.49
  L 302.53 170.30
  L 301.55 171.53
  Q 300.36 172.23 299.83 173.22
  L 296.70 176.43
  Q 296.83 175.90 296.46 176.50
  L 293.77 179.21
  L 289.49 183.50
  L 283.77 189.20
  Q 283.76 189.50 283.50 189.54
  Q 282.37 190.04 281.79 191.36
  Q 280.92 191.63 280.46 192.50
  L 269.48 203.45
  Q 268.65 203.96 268.48 204.45
  L 266.75 206.21
  C 265.37 209.78 259.25 211.77 256.00 211.46
  L 256.03 0.00
  Z"
/>
<path fill="#000000" d="
  M 462.52 46.50
  A 0.20 0.20 0.0 0 0 462.39 46.31
  C 461.54 45.98 446.96 55.23 445.15 56.30
  A 0.72 0.72 0.0 0 1 444.18 56.07
  L 437.54 45.73
  Q 437.32 45.39 437.66 45.18
  L 463.67 29.49
  A 1.95 1.88 -59.1 0 1 464.63 29.23
  Q 471.56 29.28 478.49 29.24
  Q 479.00 29.24 479.00 29.75
  L 479.00 109.36
  A 0.43 0.43 0.0 0 1 478.57 109.79
  L 462.97 109.75
  Q 462.49 109.75 462.49 109.28
  L 462.52 46.50
  Z"
/>
<path fill="#32393f" d="
  M 356.22 117.14
  C 354.30 119.34 345.72 128.86 344.74 128.28
  L 356.22 117.14
  Z"
/>
<path fill="#32393f" d="
  M 344.74 128.28
  L 344.75 128.59
  A 0.62 0.59 -25.7 0 1 344.58 129.03
  L 342.35 131.48
  Q 342.11 131.74 341.93 131.44
  L 341.77 131.18
  L 344.74 128.28
  Z"
/>
<path fill="#32393f" d="
  M 341.50 131.54
  L 341.47 132.25
  A 0.26 0.25 -88.8 0 1 341.22 132.50
  Q 341.13 132.50 340.99 132.36
  Q 340.96 132.34 340.92 132.43
  Q 340.05 134.65 337.79 135.25
  L 341.50 131.54
  Z"
/>
<path fill="#32393f" d="
  M 336.43 136.49
  L 336.63 136.97
  Q 336.84 137.45 336.34 137.64
  Q 334.95 138.16 334.51 139.46
  Q 334.32 140.01 334.01 139.53
  L 333.77 139.17
  L 336.43 136.49
  Z"
/>
<rect fill="#fabe2c" x="-14.61" y="-54.75" transform="translate(394.58,182.35) rotate(41.0)" width="29.22" height="109.50" rx="14.33"/>
<rect fill="#fed843" x="-14.52" y="-54.59" transform="translate(117.39,182.33) rotate(-41.2)" width="29.04" height="109.18" rx="14.23"/>
<path fill="#32393f" d="
  M 333.57 139.52
  L 332.49 141.46
  Q 332.30 141.80 332.02 141.52
  L 331.75 141.25
  Q 332.41 140.22 333.57 139.52
  Z"
/>
<path fill="#32393f" d="
  M 331.75 141.25
  Q 331.70 143.10 329.76 143.35
  Q 330.54 141.95 331.75 141.25
  Z"
/>
<path fill="#32393f" d="
  M 328.46 144.50
  L 328.64 144.75
  Q 328.91 145.11 328.56 145.41
  L 322.66 150.51
  L 328.46 144.50
  Z"
/>
<path fill="#32393f" d="
  M 320.46 152.50
  Q 320.74 152.75 320.76 153.02
  Q 320.81 153.51 320.35 153.71
  L 318.38 154.55
  L 320.46 152.50
  Z"
/>
<path fill="#32393f" d="
  M 318.69 154.37
  Q 317.83 156.25 316.27 157.76
  Q 315.26 158.73 314.58 158.25
  L 318.69 154.37
  Z"
/>
<path fill="#32393f" d="
  M 314.50 158.46
  Q 314.36 160.39 312.75 160.21
  L 314.50 158.46
  Z"
/>
<path fill="#32393f" d="
  M 312.44 160.49
  C 313.15 161.26 309.27 164.40 308.41 165.49
  Q 308.17 165.80 307.96 165.46
  L 307.80 165.20
  L 312.44 160.49
  Z"
/>
<path fill="#32393f" d="
  M 307.80 165.20
  Q 307.29 167.43 304.68 168.42
  L 307.80 165.20
  Z"
/>
<path fill="#32393f" d="
  M 304.44 168.49
  L 304.64 168.75
  Q 304.99 169.22 304.52 169.56
  Q 303.44 170.35 302.53 170.30
  L 304.44 168.49
  Z"
/>
<path fill="#32393f" d="
  M 301.55 171.53
  Q 301.36 172.63 300.45 173.56
  Q 300.17 173.85 299.97 173.49
  L 299.83 173.22
  Q 300.36 172.23 301.55 171.53
  Z"
/>
<path fill="#32393f" d="
  M 299.83 173.22
  Q 299.11 175.44 296.70 176.43
  L 299.83 173.22
  Z"
/>
<path fill="#32393f" d="
  M 296.46 176.50
  L 296.62 176.71
  Q 296.97 177.16 296.49 177.46
  Q 295.23 178.26 294.32 179.48
  Q 294.11 179.76 293.93 179.46
  L 293.77 179.21
  L 296.46 176.50
  Z"
/>
<path fill="#32393f" d="
  M 293.77 179.21
  Q 293.56 180.90 292.06 181.70
  Q 291.69 181.90 291.46 182.25
  Q 290.75 183.28 289.49 183.50
  L 293.77 179.21
  Z"
/>
<path fill="#32393f" d="
  M 289.49 183.50
  C 289.26 185.42 285.72 187.75 284.44 189.48
  Q 284.21 189.80 283.97 189.48
  L 283.77 189.20
  L 289.49 183.50
  Z"
/>
<path fill="#32393f" d="
  M 283.50 189.54
  Q 283.46 191.32 281.79 191.36
  Q 282.37 190.04 283.50 189.54
  Z"
/>
<path fill="#32393f" d="
  M 280.46 192.50
  Q 280.54 192.60 280.60 192.71
  Q 280.75 192.96 280.56 193.18
  Q 275.77 198.46 270.46 203.21
  Q 270.55 203.68 269.48 203.45
  L 280.46 192.50
  Z"
/>
<path fill="#32393f" d="
  M 268.48 204.45
  Q 268.45 206.55 266.75 206.21
  L 268.48 204.45
  Z"
/>
<path fill="#fabe2c" d="
  M 512.00 223.81
  L 512.00 229.03
  C 509.48 234.66 506.40 237.83 500.43 240.44
  Q 477.01 250.70 453.57 260.82
  C 450.48 262.15 447.02 263.80 443.66 263.45
  C 433.94 262.44 427.07 253.68 430.40 244.22
  C 432.16 239.24 435.45 236.83 440.55 234.60
  Q 465.63 223.62 490.75 212.76
  C 500.24 208.65 509.35 214.34 512.00 223.81
  Z"
/>
<path fill="#fed843" d="
  M 0.00 228.44
  L 0.00 223.69
  C 2.17 217.22 7.51 211.59 14.50 211.52
  Q 17.96 211.48 25.64 214.78
  Q 48.35 224.51 70.95 234.46
  Q 76.31 236.81 78.35 239.03
  C 89.20 250.81 76.19 268.15 61.50 261.93
  Q 35.57 250.95 9.86 239.51
  C 4.71 237.22 1.80 233.49 0.00 228.44
  Z"
/>
<path fill="#ff641a" d="
  M 256.03 242.24
  L 256.02 361.94
  L 151.51 361.87
  Q 115.60 361.67 79.69 361.75
  Q 73.13 361.76 69.99 360.36
  C 62.86 357.19 60.76 350.64 61.44 342.92
  C 64.92 303.50 102.58 277.63 135.86 264.16
  C 173.97 248.73 214.97 242.27 256.03 242.24
  Z"
/>
<path fill="#f03800" d="
  M 256.03 242.24
  Q 294.82 241.76 332.78 250.13
  C 370.02 258.34 413.59 275.84 437.22 307.54
  C 444.89 317.82 461.71 353.34 441.50 360.85
  Q 438.61 361.92 431.27 361.97
  Q 396.13 362.18 361.00 361.79
  L 256.02 361.94
  L 256.03 242.24
  Z"
/>
<path fill="#474f54" d="
  M 151.51 361.87
  L 256.02 361.94
  L 256.00 391.22
  A 0.84 0.84 0.0 0 0 256.84 392.06
  L 360.69 392.27
  Q 398.06 392.59 435.84 392.59
  C 445.02 392.60 450.47 399.00 450.48 407.89
  Q 450.52 444.90 450.50 482.07
  L 256.14 482.00
  L 255.98 393.17
  A 1.12 1.11 89.5 0 0 254.86 392.06
  L 151.63 392.26
  L 151.51 361.87
  Z"
/>
<path fill="#32393f" d="
  M 361.00 361.79
  L 360.69 392.27
  L 256.84 392.06
  A 0.84 0.84 0.0 0 1 256.00 391.22
  L 256.02 361.94
  L 361.00 361.79
  Z"
/>
<path fill="#575f64" d="
  M 256.14 482.00
  L 61.55 482.06
  Q 61.41 445.47 61.56 408.92
  C 61.61 398.29 67.35 392.49 78.02 392.53
  Q 115.00 392.65 151.63 392.26
  L 254.86 392.06
  A 1.12 1.11 89.5 0 1 255.98 393.17
  L 256.14 482.00
  Z"
/>
<path fill="#474f54" d="
  M 256.14 482.00
  L 255.88 512.00
  L 42.31 512.00
  Q 35.79 507.98 33.80 504.70
  C 29.07 496.94 32.01 487.42 40.20 483.73
  Q 42.73 482.59 47.63 482.61
  Q 54.80 482.63 61.55 482.06
  L 256.14 482.00
  Z"
/>
<path fill="#32393f" d="
  M 256.14 482.00
  L 450.50 482.07
  Q 457.59 482.54 464.75 482.35
  C 484.39 481.82 486.43 508.55 467.18 512.00
  L 255.88 512.00
  L 256.14 482.00
  Z"
/>
</svg>
