<?xml version="1.0" encoding="UTF-8" standalone="no"?>
<!DOCTYPE svg PUBLIC "-//W3C//DTD SVG 1.1//EN" "http://www.w3.org/Graphics/SVG/1.1/DTD/svg11.dtd">
<svg xmlns="http://www.w3.org/2000/svg" version="1.1" viewBox="0.00 0.00 512.00 512.00">
<g stroke-width="2.00" fill="none" stroke-linecap="butt">
<path stroke="#b9c8d9" vector-effect="non-scaling-stroke" d="
  M 256.11 30.99
  L 256.02 91.00"
/>
<path stroke="#a8ebdd" vector-effect="non-scaling-stroke" d="
  M 256.02 91.00
  L 211.02 90.99"
/>
<path stroke="#69cfd9" vector-effect="non-scaling-stroke" d="
  M 300.99 91.00
  L 256.02 91.00"
/>
<path stroke="#57f3dd" vector-effect="non-scaling-stroke" d="
  M 256.02 91.00
  L 256.00 151.00"
/>
<path stroke="#57f3dd" vector-effect="non-scaling-stroke" d="
  M 256.00 151.00
  L 0.00 151.01"
/>
<path stroke="#2cccd9" vector-effect="non-scaling-stroke" d="
  M 512.00 151.99
  C 510.69 150.35 510.29 151.00 508.68 151.00
  Q 382.34 151.00 256.00 151.00"
/>
<path stroke="#88cfdf" vector-effect="non-scaling-stroke" d="
  M 512.00 180.97
  L 420.99 180.99"
/>
<path stroke="#2e72a0" vector-effect="non-scaling-stroke" d="
  M 420.99 180.99
  L 391.00 181.00"
/>
<path stroke="#88cfdf" vector-effect="non-scaling-stroke" d="
  M 391.00 181.00
  L 361.01 181.00"
/>
<path stroke="#2e72a0" vector-effect="non-scaling-stroke" d="
  M 361.01 181.00
  L 331.02 181.00"
/>
<path stroke="#88cfdf" vector-effect="non-scaling-stroke" d="
  M 331.02 181.00
  L 256.03 181.00"
/>
<path stroke="#2cccd9" vector-effect="non-scaling-stroke" d="
  M 256.03 181.00
  L 256.00 151.00"
/>
<path stroke="#97eeee" vector-effect="non-scaling-stroke" d="
  M 256.03 181.00
  L 0.00 180.99"
/>
<path stroke="#f3f1f4" vector-effect="non-scaling-stroke" d="
  M 256.03 181.00
  L 256.19 211.08"
/>
<path stroke="#9994b4" vector-effect="non-scaling-stroke" d="
  M 256.19 211.08
  Q 255.78 211.02 255.42 211.21"
/>
<path stroke="#a0a0bb" vector-effect="non-scaling-stroke" d="
  M 255.42 211.21
  C 233.22 211.37 216.07 227.23 212.05 247.59
  Q 210.91 253.35 210.95 267.51
  Q 211.02 287.23 211.03 306.94
  Q 211.04 321.26 212.40 326.83
  C 217.32 346.97 235.16 360.30 255.85 360.96"
/>
<path stroke="#9994b4" vector-effect="non-scaling-stroke" d="
  M 255.85 360.96
  Q 256.13 361.11 256.55 360.93"
/>
<path stroke="#f3f1f4" vector-effect="non-scaling-stroke" d="
  M 256.55 360.93
  Q 255.98 362.14 255.97 363.00
  Q 255.87 376.96 256.17 390.99"
/>
<path stroke="#94d3e1" vector-effect="non-scaling-stroke" d="
  M 256.17 390.99
  L 255.50 391.01"
/>
<path stroke="#97eeee" vector-effect="non-scaling-stroke" d="
  M 255.50 391.01
  L 0.00 391.02"
/>
<path stroke="#a0a0bb" vector-effect="non-scaling-stroke" d="
  M 179.65 245.43
  C 172.85 216.40 139.61 202.36 113.71 217.18
  Q 96.27 227.15 92.14 247.09
  Q 90.92 252.96 90.96 267.00
  Q 91.01 287.09 91.03 307.19
  C 91.05 323.11 92.25 334.27 101.97 345.28
  C 130.58 377.68 181.01 356.48 181.04 314.50
  Q 181.06 289.90 180.98 265.32
  Q 180.93 250.92 179.65 245.43"
/>
<path stroke="#88cfdf" vector-effect="non-scaling-stroke" d="
  M 512.00 391.00
  L 390.99 390.99"
/>
<path stroke="#8d90b3" vector-effect="non-scaling-stroke" d="
  M 390.99 390.99
  L 390.99 286.36
  A 0.36 0.35 90.0 0 0 390.64 286.00
  L 361.73 286.00
  Q 361.17 286.00 361.08 286.54
  C 360.68 288.75 360.65 291.37 360.07 293.29
  Q 353.75 314.05 331.42 316.09
  Q 331.00 316.13 331.00 316.54
  L 331.00 345.49
  Q 331.00 345.97 331.47 345.96
  Q 346.98 345.69 360.47 338.21
  A 0.35 0.35 0.0 0 1 360.99 338.52
  L 360.98 390.97"
/>
<path stroke="#88cfdf" vector-effect="non-scaling-stroke" d="
  M 360.98 390.97
  L 256.17 390.99"
/>
<path stroke="#8d90b3" vector-effect="non-scaling-stroke" d="
  M 256.55 360.93
  C 282.10 360.25 300.92 340.17 300.98 314.75
  Q 301.04 289.90 300.99 265.06
  Q 300.96 250.91 299.56 245.17
  C 294.75 225.35 276.75 211.32 256.19 211.08"
/>
<path stroke="#8d90b3" vector-effect="non-scaling-stroke" d="
  M 331.02 181.00
  C 330.95 194.12 329.73 211.33 332.52 222.32
  C 337.17 240.58 353.68 254.30 372.26 255.70
  C 399.09 257.71 420.76 237.06 420.94 210.49
  Q 421.04 195.81 420.99 180.99"
/>
<path stroke="#8d90b3" vector-effect="non-scaling-stroke" d="
  M 361.01 181.00
  Q 360.97 194.31 361.02 207.54
  Q 361.04 213.84 362.16 216.68
  C 366.97 228.94 384.92 228.76 389.72 216.91
  Q 391.01 213.74 391.00 205.41
  Q 391.00 193.25 391.00 181.00"
/>
<path stroke="#3a3f7a" vector-effect="non-scaling-stroke" d="
  M 255.85 360.96
  L 255.73 331.09"
/>
<path stroke="#9994b4" vector-effect="non-scaling-stroke" d="
  M 255.73 331.09
  Q 255.20 330.96 256.10 331.03"
/>
<path stroke="#8d90b3" vector-effect="non-scaling-stroke" d="
  M 256.10 331.03
  C 268.13 329.69 270.99 322.16 271.00 311.19
  Q 271.01 285.82 270.99 260.43
  C 270.99 249.59 267.87 242.13 255.95 240.93"
/>
<path stroke="#3a3f7a" vector-effect="non-scaling-stroke" d="
  M 255.95 240.93
  Q 256.01 227.88 256.00 214.75
  Q 256.00 212.76 255.42 211.21"
/>
<path stroke="#a0a0bb" vector-effect="non-scaling-stroke" d="
  M 150.92 255.60
  A 14.43 14.43 0.0 0 0 136.49 241.17
  L 135.51 241.17
  A 14.43 14.43 0.0 0 0 121.08 255.60
  L 121.08 316.40
  A 14.43 14.43 0.0 0 0 135.51 330.83
  L 136.49 330.83
  A 14.43 14.43 0.0 0 0 150.92 316.40
  L 150.92 255.60"
/>
<path stroke="#939bb9" vector-effect="non-scaling-stroke" d="
  M 255.95 240.93
  L 254.93 241.05"
/>
<path stroke="#a0a0bb" vector-effect="non-scaling-stroke" d="
  M 254.93 241.05
  C 242.24 243.06 241.00 251.35 241.00 263.15
  Q 240.99 287.60 241.01 312.09
  C 241.01 322.61 244.35 329.61 255.73 331.09"
/>
<path stroke="#f3f1f4" vector-effect="non-scaling-stroke" d="
  M 256.10 331.03
  L 256.10 241.79
  Q 256.10 241.39 255.71 241.28
  L 254.93 241.05"
/>
<path stroke="#2e72a0" vector-effect="non-scaling-stroke" d="
  M 390.99 390.99
  L 360.98 390.97"
/>
<path stroke="#2cccd9" vector-effect="non-scaling-stroke" d="
  M 512.00 420.99
  L 255.97 420.99"
/>
<path stroke="#2cccd9" vector-effect="non-scaling-stroke" d="
  M 255.97 420.99
  Q 256.02 406.85 256.00 392.70
  C 256.00 391.91 255.79 391.70 255.50 391.01"
/>
<path stroke="#57f3dd" vector-effect="non-scaling-stroke" d="
  M 255.97 420.99
  L 0.00 420.98"
/>
<path stroke="#57f3dd" vector-effect="non-scaling-stroke" d="
  M 255.97 420.99
  L 255.90 480.99"
/>
</g>
<path fill="#cfd7e6" d="
  M 256.11 30.99
  L 256.02 91.00
  L 211.02 90.99
  Q 210.99 83.19 211.17 76.01
  C 211.81 50.65 230.76 31.38 256.11 30.99
  Z"
/>
<path fill="#a3b8cc" d="
  M 256.11 30.99
  C 280.68 31.84 299.90 49.87 300.91 74.57
  Q 301.10 79.19 300.99 91.00
  L 256.02 91.00
  L 256.11 30.99
  Z"
/>
<path fill="#80ffd4" d="
  M 211.02 90.99
  L 256.02 91.00
  L 256.00 151.00
  L 0.00 151.01
  L 0.00 147.71
  C 2.45 120.61 20.60 98.09 47.42 92.37
  Q 53.73 91.02 67.32 91.01
  Q 139.19 90.99 211.02 90.99
  Z"
/>
<path fill="#2ee6e6" d="
  M 256.02 91.00
  L 300.99 91.00
  Q 377.00 91.01 453.00 90.98
  C 485.18 90.97 509.41 117.08 512.00 148.55
  L 512.00 151.99
  C 510.69 150.35 510.29 151.00 508.68 151.00
  Q 382.34 151.00 256.00 151.00
  L 256.02 91.00
  Z"
/>
<path fill="#29b1cc" d="
  M 512.00 151.99
  L 512.00 180.97
  L 420.99 180.99
  L 391.00 181.00
  L 361.01 181.00
  L 331.02 181.00
  L 256.03 181.00
  L 256.00 151.00
  Q 382.34 151.00 508.68 151.00
  C 510.29 151.00 510.69 150.35 512.00 151.99
  Z"
/>
<path fill="#2ee6e6" d="
  M 256.00 151.00
  L 256.03 181.00
  L 0.00 180.99
  L 0.00 151.01
  L 256.00 151.00
  Z"
/>
<path fill="#fff5f5" d="
  M 0.00 180.99
  L 256.03 181.00
  L 256.19 211.08
  Q 255.78 211.02 255.42 211.21
  C 233.22 211.37 216.07 227.23 212.05 247.59
  Q 210.91 253.35 210.95 267.51
  Q 211.02 287.23 211.03 306.94
  Q 211.04 321.26 212.40 326.83
  C 217.32 346.97 235.16 360.30 255.85 360.96
  Q 256.13 361.11 256.55 360.93
  Q 255.98 362.14 255.97 363.00
  Q 255.87 376.96 256.17 390.99
  L 255.50 391.01
  L 0.00 391.02
  L 0.00 180.99
  Z
  M 179.65 245.43
  C 172.85 216.40 139.61 202.36 113.71 217.18
  Q 96.27 227.15 92.14 247.09
  Q 90.92 252.96 90.96 267.00
  Q 91.01 287.09 91.03 307.19
  C 91.05 323.11 92.25 334.27 101.97 345.28
  C 130.58 377.68 181.01 356.48 181.04 314.50
  Q 181.06 289.90 180.98 265.32
  Q 180.93 250.92 179.65 245.43
  Z"
/>
<path fill="#e6ecf2" d="
  M 512.00 180.97
  L 512.00 391.00
  L 390.99 390.99
  L 390.99 286.36
  A 0.36 0.35 90.0 0 0 390.64 286.00
  L 361.73 286.00
  Q 361.17 286.00 361.08 286.54
  C 360.68 288.75 360.65 291.37 360.07 293.29
  Q 353.75 314.05 331.42 316.09
  Q 331.00 316.13 331.00 316.54
  L 331.00 345.49
  Q 331.00 345.97 331.47 345.96
  Q 346.98 345.69 360.47 338.21
  A 0.35 0.35 0.0 0 1 360.99 338.52
  L 360.98 390.97
  L 256.17 390.99
  Q 255.87 376.96 255.97 363.00
  Q 255.98 362.14 256.55 360.93
  C 282.10 360.25 300.92 340.17 300.98 314.75
  Q 301.04 289.90 300.99 265.06
  Q 300.96 250.91 299.56 245.17
  C 294.75 225.35 276.75 211.32 256.19 211.08
  L 256.03 181.00
  L 331.02 181.00
  C 330.95 194.12 329.73 211.33 332.52 222.32
  C 337.17 240.58 353.68 254.30 372.26 255.70
  C 399.09 257.71 420.76 237.06 420.94 210.49
  Q 421.04 195.81 420.99 180.99
  L 512.00 180.97
  Z"
/>
<path fill="#333373" d="
  M 331.02 181.00
  L 361.01 181.00
  Q 360.97 194.31 361.02 207.54
  Q 361.04 213.84 362.16 216.68
  C 366.97 228.94 384.92 228.76 389.72 216.91
  Q 391.01 213.74 391.00 205.41
  Q 391.00 193.25 391.00 181.00
  L 420.99 180.99
  Q 421.04 195.81 420.94 210.49
  C 420.76 237.06 399.09 257.71 372.26 255.70
  C 353.68 254.30 337.17 240.58 332.52 222.32
  C 329.73 211.33 330.95 194.12 331.02 181.00
  Z"
/>
<path fill="#e6ecf2" d="
  M 361.01 181.00
  L 391.00 181.00
  Q 391.00 193.25 391.00 205.41
  Q 391.01 213.74 389.72 216.91
  C 384.92 228.76 366.97 228.94 362.16 216.68
  Q 361.04 213.84 361.02 207.54
  Q 360.97 194.31 361.01 181.00
  Z"
/>
<path fill="#333373" d="
  M 256.19 211.08
  C 276.75 211.32 294.75 225.35 299.56 245.17
  Q 300.96 250.91 300.99 265.06
  Q 301.04 289.90 300.98 314.75
  C 300.92 340.17 282.10 360.25 256.55 360.93
  Q 256.13 361.11 255.85 360.96
  L 255.73 331.09
  Q 255.20 330.96 256.10 331.03
  C 268.13 329.69 270.99 322.16 271.00 311.19
  Q 271.01 285.82 270.99 260.43
  C 270.99 249.59 267.87 242.13 255.95 240.93
  Q 256.01 227.88 256.00 214.75
  Q 256.00 212.76 255.42 211.21
  Q 255.78 211.02 256.19 211.08
  Z"
/>
<path fill="#404a80" d="
  M 113.71 217.18
  C 139.61 202.36 172.85 216.40 179.65 245.43
  Q 180.93 250.92 180.98 265.32
  Q 181.06 289.90 181.04 314.50
  C 181.01 356.48 130.58 377.68 101.97 345.28
  C 92.25 334.27 91.05 323.11 91.03 307.19
  Q 91.01 287.09 90.96 267.00
  Q 90.92 252.96 92.14 247.09
  Q 96.27 227.15 113.71 217.18
  Z
  M 150.92 255.60
  A 14.43 14.43 0.0 0 0 136.49 241.17
  L 135.51 241.17
  A 14.43 14.43 0.0 0 0 121.08 255.60
  L 121.08 316.40
  A 14.43 14.43 0.0 0 0 135.51 330.83
  L 136.49 330.83
  A 14.43 14.43 0.0 0 0 150.92 316.40
  L 150.92 255.60
  Z"
/>
<path fill="#404a80" d="
  M 255.42 211.21
  Q 256.00 212.76 256.00 214.75
  Q 256.01 227.88 255.95 240.93
  L 254.93 241.05
  C 242.24 243.06 241.00 251.35 241.00 263.15
  Q 240.99 287.60 241.01 312.09
  C 241.01 322.61 244.35 329.61 255.73 331.09
  L 255.85 360.96
  C 235.16 360.30 217.32 346.97 212.40 326.83
  Q 211.04 321.26 211.03 306.94
  Q 211.02 287.23 210.95 267.51
  Q 210.91 253.35 212.05 247.59
  C 216.07 227.23 233.22 211.37 255.42 211.21
  Z"
/>
<rect fill="#fff5f5" x="121.08" y="241.17" width="29.84" height="89.66" rx="14.43"/>
<path fill="#e6ecf2" d="
  M 255.95 240.93
  C 267.87 242.13 270.99 249.59 270.99 260.43
  Q 271.01 285.82 271.00 311.19
  C 270.99 322.16 268.13 329.69 256.10 331.03
  L 256.10 241.79
  Q 256.10 241.39 255.71 241.28
  L 254.93 241.05
  L 255.95 240.93
  Z"
/>
<path fill="#fff5f5" d="
  M 254.93 241.05
  L 255.71 241.28
  Q 256.10 241.39 256.10 241.79
  L 256.10 331.03
  Q 255.20 330.96 255.73 331.09
  C 244.35 329.61 241.01 322.61 241.01 312.09
  Q 240.99 287.60 241.00 263.15
  C 241.00 251.35 242.24 243.06 254.93 241.05
  Z"
/>
<path fill="#333373" d="
  M 390.99 390.99
  L 360.98 390.97
  L 360.99 338.52
  A 0.35 0.35 0.0 0 0 360.47 338.21
  Q 346.98 345.69 331.47 345.96
  Q 331.00 345.97 331.00 345.49
  L 331.00 316.54
  Q 331.00 316.13 331.42 316.09
  Q 353.75 314.05 360.07 293.29
  C 360.65 291.37 360.68 288.75 361.08 286.54
  Q 361.17 286.00 361.73 286.00
  L 390.64 286.00
  A 0.36 0.35 90.0 0 1 390.99 286.36
  L 390.99 390.99
  Z"
/>
<path fill="#29b1cc" d="
  M 360.98 390.97
  L 390.99 390.99
  L 512.00 391.00
  L 512.00 420.99
  L 255.97 420.99
  Q 256.02 406.85 256.00 392.70
  C 256.00 391.91 255.79 391.70 255.50 391.01
  L 256.17 390.99
  L 360.98 390.97
  Z"
/>
<path fill="#2ee6e6" d="
  M 255.50 391.01
  C 255.79 391.70 256.00 391.91 256.00 392.70
  Q 256.02 406.85 255.97 420.99
  L 0.00 420.98
  L 0.00 391.02
  L 255.50 391.01
  Z"
/>
<path fill="#80ffd4" d="
  M 0.00 420.98
  L 255.97 420.99
  L 255.90 480.99
  Q 161.43 481.03 67.31 480.98
  Q 53.75 480.97 47.42 479.61
  C 20.56 473.85 2.18 451.21 0.00 423.92
  L 0.00 420.98
  Z"
/>
<path fill="#2ee6e6" d="
  M 512.00 420.99
  L 512.00 424.05
  C 509.23 456.71 484.11 480.93 451.25 480.95
  Q 353.39 481.01 255.90 480.99
  L 255.97 420.99
  L 512.00 420.99
  Z"
/>
</svg>
