<?xml version="1.0" encoding="UTF-8" standalone="no"?>
<!DOCTYPE svg PUBLIC "-//W3C//DTD SVG 1.1//EN" "http://www.w3.org/Graphics/SVG/1.1/DTD/svg11.dtd">
<svg xmlns="http://www.w3.org/2000/svg" version="1.1" viewBox="0.00 0.00 512.00 512.00">
<g stroke-width="2.00" fill="none" stroke-linecap="butt">
<path stroke="#0c6868" vector-effect="non-scaling-stroke" d="
  M 271.06 29.84
  L 271.05 60.28"
/>
<path stroke="#896643" vector-effect="non-scaling-stroke" d="
  M 270.98 94.16
  L 256.05 93.48"
/>
<path stroke="#8a7938" vector-effect="non-scaling-stroke" d="
  M 256.05 93.48
  Q 256.02 93.47 256.00 93.45"
/>
<path stroke="#232346" vector-effect="non-scaling-stroke" d="
  M 256.00 93.45
  Q 256.00 47.36 256.00 1.25
  Q 256.00 0.01 254.19 0.14"
/>
<path stroke="#98874d" vector-effect="non-scaling-stroke" d="
  M 256.00 93.45
  L 241.01 94.18"
/>
<path stroke="#58846d" vector-effect="non-scaling-stroke" d="
  M 240.50 60.19
  Q 240.56 60.06 240.72 59.99
  Q 240.94 59.90 240.94 59.66
  L 240.98 30.11"
/>
<path stroke="#0c6868" vector-effect="non-scaling-stroke" d="
  M 482.08 240.98
  L 451.73 240.94"
/>
<path stroke="#58846d" vector-effect="non-scaling-stroke" d="
  M 60.14 240.50
  Q 60.06 240.57 60.00 240.72
  Q 59.92 240.94 59.68 240.94
  L 30.07 240.97"
/>
<path stroke="#feca4a" vector-effect="non-scaling-stroke" d="
  M 256.05 93.48
  L 256.05 176.06"
/>
<path stroke="#98874d" vector-effect="non-scaling-stroke" d="
  M 256.05 176.06
  C 234.13 176.38 215.58 190.61 210.06 211.74
  C 205.57 228.94 224.51 239.50 236.28 225.99
  C 238.68 223.23 239.20 217.36 241.28 214.17
  Q 246.21 206.57 256.00 205.99"
/>
<path stroke="#8a7938" vector-effect="non-scaling-stroke" d="
  M 256.00 205.99
  Q 256.39 205.96 256.55 206.16"
/>
<path stroke="#feca4a" vector-effect="non-scaling-stroke" d="
  M 256.55 206.16
  Q 256.59 206.92 256.32 207.31
  Q 256.05 207.71 256.05 208.18
  L 256.16 240.93"
/>
<path stroke="#8a7938" vector-effect="non-scaling-stroke" d="
  M 256.16 240.93
  Q 255.98 241.03 255.87 241.01"
/>
<path stroke="#98874d" vector-effect="non-scaling-stroke" d="
  M 255.87 241.01
  C 236.56 242.15 236.13 268.90 255.49 271.02"
/>
<path stroke="#8a7938" vector-effect="non-scaling-stroke" d="
  M 255.49 271.02
  Q 255.98 270.96 256.11 271.03"
/>
<path stroke="#feca4a" vector-effect="non-scaling-stroke" d="
  M 256.11 271.03
  L 256.12 305.82"
/>
<path stroke="#8a7938" vector-effect="non-scaling-stroke" d="
  M 256.12 305.82
  Q 256.71 305.82 255.45 306.09"
/>
<path stroke="#98874d" vector-effect="non-scaling-stroke" d="
  M 255.45 306.09
  Q 240.41 303.85 238.56 289.75
  Q 237.81 284.05 237.32 282.83
  C 231.05 267.22 207.69 272.94 208.46 289.25
  C 209.67 315.12 229.29 335.44 255.86 335.94"
/>
<path stroke="#8a7938" vector-effect="non-scaling-stroke" d="
  M 255.86 335.94
  Q 256.56 336.06 256.06 336.22"
/>
<path stroke="#feca4a" vector-effect="non-scaling-stroke" d="
  M 256.06 336.22
  L 256.02 418.49"
/>
<path stroke="#8a7938" vector-effect="non-scaling-stroke" d="
  M 256.02 418.49
  Q 256.01 418.52 255.99 418.56"
/>
<path stroke="#98874d" vector-effect="non-scaling-stroke" d="
  M 255.99 418.56
  L 240.87 417.82"
/>
<path stroke="#98874d" vector-effect="non-scaling-stroke" d="
  M 94.20 271.07
  Q 92.89 256.34 94.05 240.97"
/>
<path stroke="#896643" vector-effect="non-scaling-stroke" d="
  M 417.79 241.03
  Q 419.13 256.23 417.79 271.08"
/>
<path stroke="#896643" vector-effect="non-scaling-stroke" d="
  M 271.09 417.80
  L 256.02 418.49"
/>
<path stroke="#896643" vector-effect="non-scaling-stroke" d="
  M 256.06 336.22
  C 297.93 333.84 318.54 288.84 291.16 256.38
  Q 290.83 255.99 291.16 255.60
  C 317.70 224.43 298.26 176.66 256.51 175.99"
/>
<path stroke="#977458" vector-effect="non-scaling-stroke" d="
  M 256.51 175.99
  Q 256.22 175.98 256.05 176.06"
/>
<path stroke="#232346" vector-effect="non-scaling-stroke" d="
  M 256.51 175.99
  Q 256.00 177.02 256.00 177.50
  Q 256.00 191.71 256.00 205.99"
/>
<path stroke="#232346" vector-effect="non-scaling-stroke" d="
  M 255.86 335.94
  Q 256.24 321.59 255.81 307.19
  Q 255.80 306.76 255.45 306.09"
/>
<path stroke="#896643" vector-effect="non-scaling-stroke" d="
  M 256.12 305.82
  C 278.72 304.55 279.05 273.06 256.11 271.03"
/>
<path stroke="#232346" vector-effect="non-scaling-stroke" d="
  M 255.49 271.02
  Q 256.04 269.99 256.04 269.00
  Q 256.09 255.04 255.87 241.01"
/>
<path stroke="#896643" vector-effect="non-scaling-stroke" d="
  M 256.16 240.93
  C 278.75 239.21 278.84 207.86 256.55 206.16"
/>
<path stroke="#58846d" vector-effect="non-scaling-stroke" d="
  M 60.08 271.06
  L 30.06 271.02"
/>
<path stroke="#0c6868" vector-effect="non-scaling-stroke" d="
  M 482.11 271.10
  L 451.69 271.06"
/>
<path stroke="#58846d" vector-effect="non-scaling-stroke" d="
  M 240.97 452.01
  L 240.94 481.42
  A 0.34 0.33 80.3 0 1 240.72 481.74
  Q 240.59 481.79 240.48 481.87"
/>
<path stroke="#0c6868" vector-effect="non-scaling-stroke" d="
  M 271.51 482.07
  Q 271.50 481.85 271.25 481.73
  Q 271.04 481.63 271.04 481.40
  L 271.08 451.73"
/>
<path stroke="#232346" vector-effect="non-scaling-stroke" d="
  M 255.99 418.56
  L 256.02 512.00"
/>
</g>
<path fill="#151530" d="
  M 254.31 0.00
  L 258.79 0.00
  C 274.05 4.09 270.91 18.15 271.06 29.84
  L 271.05 60.28
  L 270.98 94.16
  L 256.05 93.48
  Q 256.02 93.47 256.00 93.45
  Q 256.00 47.36 256.00 1.25
  Q 256.00 0.01 254.19 0.14
  Q 254.25 0.07 254.31 0.00
  Z"
/>
<path fill="#31315b" d="
  M 254.19 0.14
  Q 256.00 0.01 256.00 1.25
  Q 256.00 47.36 256.00 93.45
  L 241.01 94.18
  L 240.94 60.49
  Q 240.94 60.31 240.76 60.25
  Q 240.63 60.22 240.50 60.19
  Q 240.56 60.06 240.72 59.99
  Q 240.94 59.90 240.94 59.66
  L 240.98 30.11
  C 241.04 17.99 238.22 3.17 254.19 0.14
  Z"
/>
<path fill="#02ba9f" d="
  M 271.06 29.84
  C 384.28 38.08 474.46 126.92 482.08 240.98
  L 451.73 240.94
  C 443.61 144.27 368.03 68.11 271.05 60.28
  L 271.06 29.84
  Z"
/>
<path fill="#7fd67f" d="
  M 240.98 30.11
  L 240.94 59.66
  Q 240.94 59.90 240.72 59.99
  Q 240.56 60.06 240.50 60.19
  C 143.91 67.97 68.29 144.42 60.14 240.50
  Q 60.06 240.57 60.00 240.72
  Q 59.92 240.94 59.68 240.94
  L 30.07 240.97
  C 37.95 127.85 127.38 37.57 240.98 30.11
  Z"
/>
<path fill="#ffdd3f" d="
  M 256.00 93.45
  Q 256.02 93.47 256.05 93.48
  L 256.05 176.06
  C 234.13 176.38 215.58 190.61 210.06 211.74
  C 205.57 228.94 224.51 239.50 236.28 225.99
  C 238.68 223.23 239.20 217.36 241.28 214.17
  Q 246.21 206.57 256.00 205.99
  Q 256.39 205.96 256.55 206.16
  Q 256.59 206.92 256.32 207.31
  Q 256.05 207.71 256.05 208.18
  L 256.16 240.93
  Q 255.98 241.03 255.87 241.01
  C 236.56 242.15 236.13 268.90 255.49 271.02
  Q 255.98 270.96 256.11 271.03
  L 256.12 305.82
  Q 256.71 305.82 255.45 306.09
  Q 240.41 303.85 238.56 289.75
  Q 237.81 284.05 237.32 282.83
  C 231.05 267.22 207.69 272.94 208.46 289.25
  C 209.67 315.12 229.29 335.44 255.86 335.94
  Q 256.56 336.06 256.06 336.22
  L 256.02 418.49
  Q 256.01 418.52 255.99 418.56
  L 240.87 417.82
  C 163.05 409.91 101.73 349.29 94.20 271.07
  Q 92.89 256.34 94.05 240.97
  C 102.93 162.46 162.01 102.02 241.01 94.18
  L 256.00 93.45
  Z"
/>
<path fill="#fdb655" d="
  M 256.05 93.48
  L 270.98 94.16
  C 348.83 101.68 410.46 163.00 417.79 241.03
  Q 419.13 256.23 417.79 271.08
  C 410.28 349.14 348.90 410.17 271.09 417.80
  L 256.02 418.49
  L 256.06 336.22
  C 297.93 333.84 318.54 288.84 291.16 256.38
  Q 290.83 255.99 291.16 255.60
  C 317.70 224.43 298.26 176.66 256.51 175.99
  Q 256.22 175.98 256.05 176.06
  L 256.05 93.48
  Z"
/>
<path fill="#31315b" d="
  M 256.05 176.06
  Q 256.22 175.98 256.51 175.99
  Q 256.00 177.02 256.00 177.50
  Q 256.00 191.71 256.00 205.99
  Q 246.21 206.57 241.28 214.17
  C 239.20 217.36 238.68 223.23 236.28 225.99
  C 224.51 239.50 205.57 228.94 210.06 211.74
  C 215.58 190.61 234.13 176.38 256.05 176.06
  Z"
/>
<path fill="#151530" d="
  M 256.51 175.99
  C 298.26 176.66 317.70 224.43 291.16 255.60
  Q 290.83 255.99 291.16 256.38
  C 318.54 288.84 297.93 333.84 256.06 336.22
  Q 256.56 336.06 255.86 335.94
  Q 256.24 321.59 255.81 307.19
  Q 255.80 306.76 255.45 306.09
  Q 256.71 305.82 256.12 305.82
  C 278.72 304.55 279.05 273.06 256.11 271.03
  Q 255.98 270.96 255.49 271.02
  Q 256.04 269.99 256.04 269.00
  Q 256.09 255.04 255.87 241.01
  Q 255.98 241.03 256.16 240.93
  C 278.75 239.21 278.84 207.86 256.55 206.16
  Q 256.39 205.96 256.00 205.99
  Q 256.00 191.71 256.00 177.50
  Q 256.00 177.02 256.51 175.99
  Z"
/>
<path fill="#fdb655" d="
  M 256.55 206.16
  C 278.84 207.86 278.75 239.21 256.16 240.93
  L 256.05 208.18
  Q 256.05 207.71 256.32 207.31
  Q 256.59 206.92 256.55 206.16
  Z"
/>
<path fill="#31315b" d="
  M 60.14 240.50
  Q 60.21 240.60 60.26 240.73
  A 0.33 0.32 79.3 0 0 60.56 240.94
  L 94.05 240.97
  Q 92.89 256.34 94.20 271.07
  L 60.08 271.06
  L 30.06 271.02
  C 17.48 270.96 3.09 273.72 0.00 257.43
  L 0.00 254.21
  C 3.42 238.22 17.93 241.01 30.07 240.97
  L 59.68 240.94
  Q 59.92 240.94 60.00 240.72
  Q 60.06 240.57 60.14 240.50
  Z"
/>
<path fill="#151530" d="
  M 451.73 240.94
  L 482.08 240.98
  C 494.72 241.03 509.16 238.32 512.00 254.82
  L 512.00 257.55
  C 508.77 273.77 494.62 270.82 482.11 271.10
  L 451.69 271.06
  L 417.79 271.08
  Q 419.13 256.23 417.79 241.03
  L 451.73 240.94
  Z"
/>
<path fill="#31315b" d="
  M 255.87 241.01
  Q 256.09 255.04 256.04 269.00
  Q 256.04 269.99 255.49 271.02
  C 236.13 268.90 236.56 242.15 255.87 241.01
  Z"
/>
<path fill="#7fd67f" d="
  M 30.06 271.02
  L 60.08 271.06
  C 68.58 369.07 143.42 442.68 240.97 452.01
  L 240.94 481.42
  A 0.34 0.33 80.3 0 1 240.72 481.74
  Q 240.59 481.79 240.48 481.87
  C 127.18 474.05 37.88 384.05 30.06 271.02
  Z"
/>
<path fill="#fdb655" d="
  M 256.11 271.03
  C 279.05 273.06 278.72 304.55 256.12 305.82
  L 256.11 271.03
  Z"
/>
<path fill="#02ba9f" d="
  M 482.11 271.10
  C 474.16 384.09 384.97 474.30 271.51 482.07
  Q 271.50 481.85 271.25 481.73
  Q 271.04 481.63 271.04 481.40
  L 271.08 451.73
  C 367.66 443.70 443.84 368.01 451.69 271.06
  L 482.11 271.10
  Z"
/>
<path fill="#31315b" d="
  M 255.45 306.09
  Q 255.80 306.76 255.81 307.19
  Q 256.24 321.59 255.86 335.94
  C 229.29 335.44 209.67 315.12 208.46 289.25
  C 207.69 272.94 231.05 267.22 237.32 282.83
  Q 237.81 284.05 238.56 289.75
  Q 240.41 303.85 255.45 306.09
  Z"
/>
<path fill="#31315b" d="
  M 240.87 417.82
  L 255.99 418.56
  L 256.02 512.00
  L 254.69 512.00
  C 238.43 509.17 240.97 494.55 241.00 482.34
  Q 241.00 482.08 240.75 482.01
  Q 240.56 481.95 240.48 481.87
  Q 240.59 481.79 240.72 481.74
  A 0.34 0.33 80.3 0 0 240.94 481.42
  L 240.97 452.01
  L 240.87 417.82
  Z"
/>
<path fill="#151530" d="
  M 271.09 417.80
  L 271.08 451.73
  L 271.04 481.40
  Q 271.04 481.63 271.25 481.73
  Q 271.50 481.85 271.51 482.07
  Q 271.58 481.90 271.24 481.99
  Q 271.00 482.05 271.00 482.31
  C 271.02 494.07 273.92 507.93 258.68 512.00
  L 256.02 512.00
  L 255.99 418.56
  Q 256.01 418.52 256.02 418.49
  L 271.09 417.80
  Z"
/>
</svg>
