<svg xmlns="http://www.w3.org/2000/svg" viewBox="0 0 40.06 40.45"><defs><style>.cls-1{fill:#5997ab;}.cls-1,.cls-3,.cls-6{fill-rule:evenodd;}.cls-2,.cls-5{fill:none;}.cls-2{stroke:#dd2a1a;stroke-linecap:round;stroke-width:1.49px;}.cls-2,.cls-3,.cls-5{stroke-miterlimit:10;}.cls-3{fill:#ef7e12;stroke:#f1bd29;stroke-width:0.74px;}.cls-4{fill:#fefefe;}.cls-5{stroke:#fefefe;stroke-width:0.2px;}.cls-6{fill:#dd2a1a;}</style></defs><g id="Слой_2" data-name="Слой 2"><g id="Слой_1-2" data-name="Слой 1"><path class="cls-1" d="M24.15,17.41h.29a.41.41,0,0,1,.4.43v3.75H23.76V17.84a.41.41,0,0,1,.39-.43Z"/><path class="cls-1" d="M28.52,17.41h.26a.44.44,0,0,1,.42.43v3.75H28.1V17.84a.43.43,0,0,1,.42-.43Z"/><path class="cls-1" d="M32.86,17.41h.25a.44.44,0,0,1,.43.43v3.75H32.46V17.84a.41.41,0,0,1,.4-.43Z"/><path class="cls-1" d="M17.24,33.44v-.26a.41.41,0,0,1,.42-.4h3.72v1.09H17.66a.44.44,0,0,1-.42-.43Z"/><path class="cls-1" d="M17.24,29.06V28.8a.44.44,0,0,1,.42-.43h3.72v1.12H17.66a.44.44,0,0,1-.42-.43Z"/><path class="cls-1" d="M17.24,24.68v-.29a.41.41,0,0,1,.42-.4h3.72v1.09H17.66a.41.41,0,0,1-.42-.4Z"/><path class="cls-1" d="M40.06,33.44v-.26a.41.41,0,0,0-.43-.4H35.92v1.09h3.71a.44.44,0,0,0,.43-.43Z"/><path class="cls-1" d="M40.06,29.06V28.8a.44.44,0,0,0-.43-.43H35.92v1.12h3.71a.44.44,0,0,0,.43-.43Z"/><path class="cls-1" d="M40.06,24.68v-.29a.41.41,0,0,0-.43-.4H35.92v1.09h3.71a.41.41,0,0,0,.43-.4Z"/><path class="cls-1" d="M24.15,40.45h.29a.41.41,0,0,0,.4-.42V36.27H23.76V40a.41.41,0,0,0,.39.42Z"/><path class="cls-1" d="M28.52,40.45h.26A.44.44,0,0,0,29.2,40V36.27H28.1V40a.43.43,0,0,0,.42.42Z"/><path class="cls-1" d="M32.86,40.45h.25a.44.44,0,0,0,.43-.42V36.27H32.46V40a.41.41,0,0,0,.4.42Z"/><path class="cls-1" d="M22.23,21.59H35.07a.84.84,0,0,1,.85.86v13a.84.84,0,0,1-.85.85H22.23a.84.84,0,0,1-.85-.85v-13a.84.84,0,0,1,.85-.86Zm11.14,1.23a1.23,1.23,0,0,1,0,2.46,1.23,1.23,0,0,1,0-2.46Z"/><polyline class="cls-2" points="7.63 12.91 7.63 20.3 16.67 20.3 16.67 13.6 28.63 13.6 28.63 17.41"/><polygon class="cls-3" points="0.37 0.37 12.79 0.37 16.27 3.49 19.73 6.64 16.27 9.79 12.79 12.91 0.37 12.91 0.37 0.37"/><polygon class="cls-4" points="4.65 3.67 4.65 9.59 3.83 9.59 3.83 4.55 2.47 5.38 2.13 4.81 3.94 3.67 4.65 3.67"/><path class="cls-4" d="M8.05,3.58a1.62,1.62,0,0,1,1.48.8A4.13,4.13,0,0,1,10,6.64,4.15,4.15,0,0,1,9.53,8.9a1.61,1.61,0,0,1-1.48.81A1.61,1.61,0,0,1,6.58,8.9,4.44,4.44,0,0,1,6.1,6.64a4.42,4.42,0,0,1,.48-2.26,1.62,1.62,0,0,1,1.47-.8Zm0,.66a.9.9,0,0,0-.85.57A4.72,4.72,0,0,0,7,6.64,4.82,4.82,0,0,0,7.2,8.47a.9.9,0,0,0,.85.58.88.88,0,0,0,.85-.58,4.67,4.67,0,0,0,.29-1.83A4.57,4.57,0,0,0,8.9,4.81a.89.89,0,0,0-.85-.57Z"/><polygon class="cls-4" points="13.36 3.67 13.36 9.59 12.53 9.59 12.53 4.55 11.17 5.38 10.83 4.81 12.65 3.67 13.36 3.67"/><polygon class="cls-5" points="4.65 3.67 4.65 9.59 3.83 9.59 3.83 4.55 2.47 5.38 2.13 4.81 3.94 3.67 4.65 3.67"/><path class="cls-5" d="M8.05,3.58a1.62,1.62,0,0,1,1.48.8A4.13,4.13,0,0,1,10,6.64,4.15,4.15,0,0,1,9.53,8.9a1.61,1.61,0,0,1-1.48.81A1.61,1.61,0,0,1,6.58,8.9,4.44,4.44,0,0,1,6.1,6.64a4.42,4.42,0,0,1,.48-2.26,1.62,1.62,0,0,1,1.47-.8Zm0,.66a.9.9,0,0,0-.85.57A4.72,4.72,0,0,0,7,6.64,4.82,4.82,0,0,0,7.2,8.47a.9.9,0,0,0,.85.58.88.88,0,0,0,.85-.58,4.67,4.67,0,0,0,.29-1.83A4.57,4.57,0,0,0,8.9,4.81a.89.89,0,0,0-.85-.57Z"/><polygon class="cls-5" points="13.36 3.67 13.36 9.59 12.53 9.59 12.53 4.55 11.17 5.38 10.83 4.81 12.65 3.67 13.36 3.67"/><polygon class="cls-6" points="13.89 20.36 12.08 18.93 10.27 17.46 10.27 20.36 10.27 23.25 12.08 21.79 13.89 20.36"/><polygon class="cls-6" points="24.21 13.37 22.4 12 20.58 10.59 20.58 13.37 20.58 16.18 22.4 14.77 24.21 13.37"/></g></g></svg>