<?xml version="1.0" encoding="UTF-8" standalone="no"?>
<svg
   version="1.1"
   viewBox="0.00 0.00 512.00 512.00"
   id="svg22"
   sodipodi:docname="digitalIn.svg"
   inkscape:version="1.2.2 (b0a8486541, 2022-12-01)"
   xmlns:inkscape="http://www.inkscape.org/namespaces/inkscape"
   xmlns:sodipodi="http://sodipodi.sourceforge.net/DTD/sodipodi-0.dtd"
   xmlns="http://www.w3.org/2000/svg"
   xmlns:svg="http://www.w3.org/2000/svg">
  <defs
     id="defs26" />
  <sodipodi:namedview
     id="namedview24"
     pagecolor="#505050"
     bordercolor="#eeeeee"
     borderopacity="1"
     inkscape:showpageshadow="0"
     inkscape:pageopacity="0"
     inkscape:pagecheckerboard="0"
     inkscape:deskcolor="#505050"
     showgrid="false"
     inkscape:zoom="0.64471064"
     inkscape:cx="-290.0526"
     inkscape:cy="94.61609"
     inkscape:window-width="2560"
     inkscape:window-height="1440"
     inkscape:window-x="0"
     inkscape:window-y="0"
     inkscape:window-maximized="1"
     inkscape:current-layer="svg22" />
  <path
     fill="#eef7ff"
     d="m 256.27953,145.14389 193.93018,-0.05 c 0.13851,0.003 0.26114,0.0904 0.31,0.22 l 36.75513,99.73222 c 0.0292,0.0773 1.83653,5.63583 1.80733,5.71317 l -39.38968,104.4733 c -0.0489,0.12964 -0.17149,0.21667 -0.31,0.22 l -193.10296,0 c -0.18778,0 -0.34,-0.15223 -0.34,-0.34 V 145.48389 c 0,-0.18778 0.15222,-0.34 0.34,-0.34 z"
     id="path175"
     sodipodi:nodetypes="cccccccsssc"
     style="fill:#ffd42a" />
  <path
     fill="#d13330"
     d="m 360.38543,362.1884 18.24,0.02 c -0.007,64.94667 -0.003,-11.18697 0.01,53.65303 0,9.04 -2.27,13.13 -11.58,13.13 -68.02667,0.0133 -116.12782,0.0133 -184.15449,0 -7.81,0 -10.6,-4.04 -10.6,-11.35 0,-133.82667 0.003,-185.92934 0.01,-321.636006 0,-0.04971 -0.0403,-0.09 -0.09,-0.09 H 57.78 c -0.298234,0 -0.54,0.237289 -0.54,0.53 V 246.83 L 39,246.99 V 87.165424 c 0,-7.72 5.95,-9.5 12.83,-9.5 66.33333,0 58.21761,-0.0033 124.55094,-0.01 8.93,0 14.42,1.26 14.41,11.32 0,134.646666 0.007,186.629336 0.02,321.276006 0,0.33333 0.16667,0.5 0.5,0.5 l 168.53449,0 c 0.29823,0 0.54,-0.24177 0.54,-0.54 z"
     id="path12"
     sodipodi:nodetypes="cccccsssssccssccssssc" />
  <path
     fill="#606669"
     d="   M 57.24 246.83   Q 63.78 246.47 67.27 247.22   C 75.69 249.03 76.40 261.13 68.50 264.32   C 65.46 265.54 60.91 264.85 57.25 265.24   L 39.00 265.07   C 32.07 265.14 24.43 266.28 22.56 258.05   C 20.05 246.99 31.57 246.42 39.00 246.99   L 57.24 246.83   Z"
     id="path16" />
  <path
     fill="#d13330"
     d="m 57.25,265.24 v 151.73215 c 0,3.26666 -0.456667,5.70666 -1.37,7.32 -4.45,7.87 -16.89,4.4 -16.89,-4.47 0.01333,-66.16 0.01667,-88.29215 0.01,-154.75215 z"
     id="path20"
     sodipodi:nodetypes="cscccc" />
  <path
     d="m 238.0996,240.87181 c -0.0219,-34.08892 -0.0219,-68.19605 0,-102.32138 0.0109,-7.9633 4.24928,-10.39927 11.91765,-10.39927 14.09144,0.008 189.93964,0.0145 204.0238,0.0219 5.76766,0 8.73888,1.63855 10.7379,6.88187 13.46517,35.47257 26.94489,70.94516 40.43918,106.41773 2.85106,6.92556 3.8888,10.56312 0.26217,17.587 -13.48288,35.07789 -0.20208,0.33662 -13.26126,35.18492 -9.19038,24.30138 -18.46089,48.65373 -27.81149,73.05705 -1.05959,2.76367 -4.34759,6.07353 -7.00203,6.07353 -15.45326,0.0292 -192.66326,0.0328 -208.10923,0.0109 -6.94741,-0.0109 -11.19669,-2.7746 -11.19669,-9.92955 -0.0145,-34.30012 -0.0183,-68.57474 -0.0109,-102.82387 m 18.9415,-113.87853 c -0.20513,0 -0.3714,0.16628 -0.3714,0.3714 v 207.32997 c 0,0.20512 0.16627,0.3714 0.3714,0.3714 l 191.96415,0 c 0.1513,-0.003 0.28526,-0.0988 0.33863,-0.24032 l 39.41236,-103.65411 c 0.0319,-0.0844 0.0319,-0.17768 0,-0.26217 L 449.33298,146.93976 c -0.0534,-0.14161 -0.18733,-0.23669 -0.33863,-0.24032 z"
     style="fill:#d13330;fill-opacity:1;stroke-width:1.09236"
     id="path519"
     sodipodi:nodetypes="ccccccccccccccsssccccccc" />
  <path
     fill="#05ff77"
     d="m 326.77043,177.78599 h 3.28 q 1.09,0.48 2.27,0.2 7.94,6.55 11.61,15.11 6.34,14.74 6.43,31.83 -4.9,-10.84 -13.43,-14.32 c -12.33,-5.02 -26.4,0.85 -30.81,13.25 q -1.38,3.86 -1.38,11.54 0.02,17.23 0.01,34.47 0,8.28 1.43,12.16 c 4.84,13.14 19.81,18.13 32.3,12.24 q 7.5,-3.53 11.86,-13.8 0.06,18.89 -7.74,34.9 -3.85,7.89 -11.17,12.42 c -27.13,1.08 -50.66,-16.31 -56.35,-42.64 q -1.37,-6.34 -1.34,-19.32 0.04,-16.52 -0.01,-33.04 c -0.08,-30.76 22.56,-52.88 53.04,-55 z"
     id="path5488"
     style="fill:#808080" />
  <path
     fill="#05ff77"
     d="m 395.59879,177.78599 h 5.04 c 14.05,5.78 11.65,18.21 11.79,30.32 q 0,0.32 -0.3,0.41 -0.26,0.07 -0.32,0.23 c -6.4,0.14 -15.71,1 -21.35,-1.62 -14.54,-6.74 -10.53,-27.07 5.14,-29.34 z"
     id="path5490"
     style="fill:#808080" />
  <path
     fill="#02e885"
     d="m 400.63879,177.78599 h 28.49 q 14.14,2.75 14.16,17.32 0.05,58.08 -0.01,116.18 c -0.03,21.68 -30.86,21.85 -30.89,0.5 q -0.08,-51.34 -0.08,-102.69 a 0.33,0.32 6.9 0 0 -0.25,-0.31 q -0.15,-0.03 -0.25,-0.04 0.06,-0.16 0.32,-0.23 0.3,-0.09 0.3,-0.41 c -0.14,-12.11 2.26,-24.54 -11.79,-30.32 z"
     id="path5492"
     style="fill:#4d4d4d" />
  <path
     fill="#02e885"
     d="m 332.32043,177.98599 c 23.27,2.62 42.51,18.21 47.97,41.12 q 1.37,5.76 1.56,18.5 0.43,28.81 -0.11,39.68 c -1.31,26.7 -23.37,48.08 -50.31,50.5 q 7.32,-4.53 11.17,-12.42 7.8,-16.01 7.74,-34.9 0.18,-2.06 0.43,-4.63 0.22,-2.33 0.22,-4.62 0.03,-19.53 -0.01,-39.05 -0.01,-1.52 -0.36,-3.61 -0.37,-2.22 -0.26,-3.63 -0.09,-17.09 -6.43,-31.83 -3.67,-8.56 -11.61,-15.11 z"
     id="path5500"
     style="fill:#4d4d4d" />
</svg>
