<svg xmlns="http://www.w3.org/2000/svg" viewBox="0 0 25.89 40.5"><defs><style>.cls-1{fill:#ef7e12;stroke:#f1bd29;stroke-width:0.74px;fill-rule:evenodd;}.cls-1,.cls-3{stroke-miterlimit:10;}.cls-2{fill:#fefefe;}.cls-3{fill:none;stroke:#fefefe;stroke-width:0.49px;}</style></defs><g id="Слой_2" data-name="Слой 2"><g id="Слой_1-2" data-name="Слой 1"><polygon class="cls-1" points="0.37 40.13 0.37 14.7 6.67 7.63 12.96 0.56 19.22 7.63 25.52 14.7 25.52 40.13 0.37 40.13"/><polygon class="cls-2" points="6.55 27.59 6.55 23.78 3.72 23.78 3.72 27.59 2.81 27.59 2.81 19.46 3.72 19.46 3.72 22.86 6.55 22.86 6.55 19.46 7.49 19.46 7.49 27.59 6.55 27.59"/><rect class="cls-2" x="9.41" y="19.46" width="0.91" height="8.13"/><path class="cls-2" d="M14.77,19.31a2.53,2.53,0,0,1,1.08.23,3.38,3.38,0,0,1,.91.66l-.54.69a2.18,2.18,0,0,0-.68-.49,1.74,1.74,0,0,0-.77-.17,1.45,1.45,0,0,0-1,.34,2.12,2.12,0,0,0-.71,1.09,5.61,5.61,0,0,0-.28,1.86A5,5,0,0,0,13.3,26a1.45,1.45,0,0,0,1.36.8,2,2,0,0,0,1.27-.37V24H14.74l-.11-.89h2.21V27a3.73,3.73,0,0,1-2.18.71,2.37,2.37,0,0,1-2.07-1.09,5.31,5.31,0,0,1-.74-3.12,6.08,6.08,0,0,1,.37-2.26A3.33,3.33,0,0,1,13.3,19.8a2.54,2.54,0,0,1,1.47-.49Z"/><polygon class="cls-2" points="22.17 27.59 22.17 23.78 19.34 23.78 19.34 27.59 18.43 27.59 18.43 19.46 19.34 19.46 19.34 22.86 22.17 22.86 22.17 19.46 23.08 19.46 23.08 27.59 22.17 27.59"/><polygon class="cls-3" points="6.55 27.59 6.55 23.78 3.72 23.78 3.72 27.59 2.81 27.59 2.81 19.46 3.72 19.46 3.72 22.86 6.55 22.86 6.55 19.46 7.49 19.46 7.49 27.59 6.55 27.59"/><rect class="cls-3" x="9.41" y="19.46" width="0.91" height="8.13"/><path class="cls-3" d="M14.77,19.31a2.53,2.53,0,0,1,1.08.23,3.38,3.38,0,0,1,.91.66l-.54.69a2.18,2.18,0,0,0-.68-.49,1.74,1.74,0,0,0-.77-.17,1.45,1.45,0,0,0-1,.34,2.12,2.12,0,0,0-.71,1.09,5.61,5.61,0,0,0-.28,1.86A5,5,0,0,0,13.3,26a1.45,1.45,0,0,0,1.36.8,2,2,0,0,0,1.27-.37V24H14.74l-.11-.89h2.21V27a3.73,3.73,0,0,1-2.18.71,2.37,2.37,0,0,1-2.07-1.09,5.31,5.31,0,0,1-.74-3.12,6.08,6.08,0,0,1,.37-2.26A3.33,3.33,0,0,1,13.3,19.8a2.54,2.54,0,0,1,1.47-.49Z"/><polygon class="cls-3" points="22.17 27.59 22.17 23.78 19.34 23.78 19.34 27.59 18.43 27.59 18.43 19.46 19.34 19.46 19.34 22.86 22.17 22.86 22.17 19.46 23.08 19.46 23.08 27.59 22.17 27.59"/></g></g></svg>