<?xml version="1.0" encoding="UTF-8" standalone="no"?>
<!DOCTYPE svg PUBLIC "-//W3C//DTD SVG 1.1//EN" "http://www.w3.org/Graphics/SVG/1.1/DTD/svg11.dtd">
<svg xmlns="http://www.w3.org/2000/svg" version="1.1" viewBox="0.00 0.00 512.00 512.00">
<g stroke-width="2.00" fill="none" stroke-linecap="butt">
<path stroke="#e63d12" vector-effect="non-scaling-stroke" d="
  M 256.02 0.00
  Q 255.99 91.97 256.00 183.94
  Q 255.68 184.02 255.75 184.54"
/>
<path stroke="#ff9b6b" vector-effect="non-scaling-stroke" d="
  M 255.75 184.54
  Q 255.41 184.41 255.05 184.76"
/>
<path stroke="#ffa891" vector-effect="non-scaling-stroke" d="
  M 255.05 184.76
  Q 190.93 184.73 126.92 184.77
  Q 119.39 184.77 116.30 185.74
  C 101.30 190.42 100.77 211.72 115.44 216.93
  Q 119.19 218.26 128.73 218.26
  Q 191.88 218.24 254.96 218.25"
/>
<path stroke="#ff9b6b" vector-effect="non-scaling-stroke" d="
  M 254.96 218.25
  Q 255.27 218.34 255.50 218.54"
/>
<path stroke="#e63d12" vector-effect="non-scaling-stroke" d="
  M 255.50 218.54
  C 255.80 219.20 256.00 219.41 256.00 220.19
  Q 255.99 251.74 256.00 283.30
  C 256.00 284.09 255.79 284.31 255.49 284.99"
/>
<path stroke="#ff9b6b" vector-effect="non-scaling-stroke" d="
  M 255.49 284.99
  Q 254.64 285.03 254.98 285.01"
/>
<path stroke="#ffa891" vector-effect="non-scaling-stroke" d="
  M 254.98 285.01
  Q 189.85 284.98 125.27 285.02
  Q 118.84 285.02 115.97 285.99
  C 97.48 292.26 103.05 318.56 122.75 318.55
  Q 189.02 318.54 254.80 318.49"
/>
<path stroke="#ff9b6b" vector-effect="non-scaling-stroke" d="
  M 254.80 318.49
  Q 255.65 318.80 256.00 318.75"
/>
<path stroke="#e63d12" vector-effect="non-scaling-stroke" d="
  M 256.00 318.75
  L 256.00 512.00"
/>
<path stroke="#e6885a" vector-effect="non-scaling-stroke" d="
  M 256.00 318.75
  Q 319.30 318.76 382.59 318.74
  Q 390.23 318.73 393.20 317.83
  C 407.28 313.54 409.47 294.99 397.15 287.23
  Q 393.59 284.99 390.00 284.99
  Q 322.76 285.01 255.49 284.99"
/>
<path stroke="#e6885a" vector-effect="non-scaling-stroke" d="
  M 255.50 218.54
  Q 320.98 218.47 386.43 218.50
  Q 402.00 218.50 404.80 204.76
  C 406.42 196.81 402.44 189.15 395.02 186.13
  Q 391.45 184.68 383.29 184.70
  Q 319.51 184.90 255.75 184.54"
/>
<path stroke="#fff3d9" vector-effect="non-scaling-stroke" d="
  M 254.96 218.25
  L 255.05 184.76"
/>
<path stroke="#fff3d9" vector-effect="non-scaling-stroke" d="
  M 254.98 285.01
  L 254.80 318.49"
/>
</g>
<path fill="#ff5023" d="
  M 252.82 0.00
  L 256.02 0.00
  Q 255.99 91.97 256.00 183.94
  Q 255.68 184.02 255.75 184.54
  Q 255.41 184.41 255.05 184.76
  Q 190.93 184.73 126.92 184.77
  Q 119.39 184.77 116.30 185.74
  C 101.30 190.42 100.77 211.72 115.44 216.93
  Q 119.19 218.26 128.73 218.26
  Q 191.88 218.24 254.96 218.25
  Q 255.27 218.34 255.50 218.54
  C 255.80 219.20 256.00 219.41 256.00 220.19
  Q 255.99 251.74 256.00 283.30
  C 256.00 284.09 255.79 284.31 255.49 284.99
  Q 254.64 285.03 254.98 285.01
  Q 189.85 284.98 125.27 285.02
  Q 118.84 285.02 115.97 285.99
  C 97.48 292.26 103.05 318.56 122.75 318.55
  Q 189.02 318.54 254.80 318.49
  Q 255.65 318.80 256.00 318.75
  L 256.00 512.00
  L 251.71 512.00
  C 112.76 508.42 2.07 398.03 0.00 258.43
  L 0.00 253.17
  Q 2.21 160.85 60.28 91.36
  C 108.09 34.15 178.43 1.37 252.82 0.00
  Z"
/>
<path fill="#cd2a00" d="
  M 256.02 0.00
  L 267.78 0.00
  C 400.85 7.20 505.28 112.07 512.00 244.83
  L 512.00 267.30
  C 504.68 400.60 400.53 505.44 266.69 512.00
  L 256.00 512.00
  L 256.00 318.75
  Q 319.30 318.76 382.59 318.74
  Q 390.23 318.73 393.20 317.83
  C 407.28 313.54 409.47 294.99 397.15 287.23
  Q 393.59 284.99 390.00 284.99
  Q 322.76 285.01 255.49 284.99
  C 255.79 284.31 256.00 284.09 256.00 283.30
  Q 255.99 251.74 256.00 220.19
  C 256.00 219.41 255.80 219.20 255.50 218.54
  Q 320.98 218.47 386.43 218.50
  Q 402.00 218.50 404.80 204.76
  C 406.42 196.81 402.44 189.15 395.02 186.13
  Q 391.45 184.68 383.29 184.70
  Q 319.51 184.90 255.75 184.54
  Q 255.68 184.02 256.00 183.94
  Q 255.99 91.97 256.02 0.00
  Z"
/>
<path fill="#ffe6b3" d="
  M 255.75 184.54
  Q 319.51 184.90 383.29 184.70
  Q 391.45 184.68 395.02 186.13
  C 402.44 189.15 406.42 196.81 404.80 204.76
  Q 402.00 218.50 386.43 218.50
  Q 320.98 218.47 255.50 218.54
  Q 255.27 218.34 254.96 218.25
  L 255.05 184.76
  Q 255.41 184.41 255.75 184.54
  Z"
/>
<path fill="#ffffff" d="
  M 255.05 184.76
  L 254.96 218.25
  Q 191.88 218.24 128.73 218.26
  Q 119.19 218.26 115.44 216.93
  C 100.77 211.72 101.30 190.42 116.30 185.74
  Q 119.39 184.77 126.92 184.77
  Q 190.93 184.73 255.05 184.76
  Z"
/>
<path fill="#ffffff" d="
  M 254.98 285.01
  L 254.80 318.49
  Q 189.02 318.54 122.75 318.55
  C 103.05 318.56 97.48 292.26 115.97 285.99
  Q 118.84 285.02 125.27 285.02
  Q 189.85 284.98 254.98 285.01
  Z"
/>
<path fill="#ffe6b3" d="
  M 254.98 285.01
  Q 254.64 285.03 255.49 284.99
  Q 322.76 285.01 390.00 284.99
  Q 393.59 284.99 397.15 287.23
  C 409.47 294.99 407.28 313.54 393.20 317.83
  Q 390.23 318.73 382.59 318.74
  Q 319.30 318.76 256.00 318.75
  Q 255.65 318.80 254.80 318.49
  L 254.98 285.01
  Z"
/>
</svg>
