<?xml version="1.0" encoding="UTF-8" standalone="no"?>
<!DOCTYPE svg PUBLIC "-//W3C//DTD SVG 1.1//EN" "http://www.w3.org/Graphics/SVG/1.1/DTD/svg11.dtd">
<svg xmlns="http://www.w3.org/2000/svg" version="1.1" viewBox="0.00 0.00 512.00 512.00">
<g stroke-width="2.00" fill="none" stroke-linecap="butt">
<path stroke="#e63d12" vector-effect="non-scaling-stroke" d="
  M 256.02 0.00
  L 255.99 143.85
  A 1.30 1.28 65.7 0 1 255.68 144.69
  Q 255.51 144.88 255.33 145.20"
/>
<path stroke="#ffa891" vector-effect="non-scaling-stroke" d="
  M 255.33 145.20
  Q 236.49 132.74 217.63 120.31
  Q 212.02 116.61 209.14 115.79
  C 197.54 112.50 186.52 122.53 188.29 134.27
  C 189.48 142.20 194.54 144.98 202.09 150.01
  Q 229.13 168.00 256.69 186.23"
/>
<path stroke="#ff9b6b" vector-effect="non-scaling-stroke" d="
  M 256.69 186.23
  Q 256.38 186.16 256.06 186.09"
/>
<path stroke="#e63d12" vector-effect="non-scaling-stroke" d="
  M 256.06 186.09
  Q 255.88 290.09 256.01 321.94
  Q 256.01 323.16 256.68 323.19"
/>
<path stroke="#ff9b6b" vector-effect="non-scaling-stroke" d="
  M 256.68 323.19
  Q 256.45 323.62 255.97 323.91"
/>
<path stroke="#ffa891" vector-effect="non-scaling-stroke" d="
  M 255.97 323.91
  Q 226.85 343.12 197.87 362.53
  C 190.74 367.31 186.54 373.14 188.53 381.74
  C 191.17 393.14 204.67 397.97 214.33 391.58
  Q 235.00 377.90 255.67 364.18"
/>
<path stroke="#e63d12" vector-effect="non-scaling-stroke" d="
  M 255.67 364.18
  L 255.89 365.18
  Q 256.00 365.66 256.00 366.14
  L 256.00 512.00"
/>
<path stroke="#e69580" vector-effect="non-scaling-stroke" d="
  M 255.67 364.18
  Q 256.03 363.90 256.59 363.78"
/>
<path stroke="#e6885a" vector-effect="non-scaling-stroke" d="
  M 256.59 363.78
  Q 326.73 317.35 396.80 270.68
  Q 401.83 267.34 403.58 265.13
  C 408.09 259.46 408.15 250.66 403.93 244.98
  Q 401.96 242.33 395.00 237.71
  Q 326.29 192.06 257.53 146.51"
/>
<path stroke="#e69580" vector-effect="non-scaling-stroke" d="
  M 257.53 146.51
  L 255.33 145.20"
/>
<path stroke="#fff3d9" vector-effect="non-scaling-stroke" d="
  M 257.53 146.51
  Q 257.50 146.93 257.09 147.30
  Q 256.74 147.63 256.74 148.11
  L 256.69 186.23"
/>
<path stroke="#fff3d9" vector-effect="non-scaling-stroke" d="
  M 256.59 363.78
  L 256.69 325.24
  Q 256.69 324.81 256.43 324.47
  L 255.97 323.91"
/>
<path stroke="#e6885a" vector-effect="non-scaling-stroke" d="
  M 256.68 323.19
  L 358.75 255.48
  A 0.77 0.76 -45.2 0 0 358.75 254.21
  L 256.06 186.09"
/>
</g>
<path fill="#ff5023" d="
  M 252.82 0.00
  L 256.02 0.00
  L 255.99 143.85
  A 1.30 1.28 65.7 0 1 255.68 144.69
  Q 255.51 144.88 255.33 145.20
  Q 236.49 132.74 217.63 120.31
  Q 212.02 116.61 209.14 115.79
  C 197.54 112.50 186.52 122.53 188.29 134.27
  C 189.48 142.20 194.54 144.98 202.09 150.01
  Q 229.13 168.00 256.69 186.23
  Q 256.38 186.16 256.06 186.09
  Q 255.88 290.09 256.01 321.94
  Q 256.01 323.16 256.68 323.19
  Q 256.45 323.62 255.97 323.91
  Q 226.85 343.12 197.87 362.53
  C 190.74 367.31 186.54 373.14 188.53 381.74
  C 191.17 393.14 204.67 397.97 214.33 391.58
  Q 235.00 377.90 255.67 364.18
  L 255.89 365.18
  Q 256.00 365.66 256.00 366.14
  L 256.00 512.00
  L 251.69 512.00
  C 112.76 508.43 2.07 398.02 0.00 258.43
  L 0.00 253.18
  Q 2.21 160.84 60.28 91.36
  C 108.09 34.14 178.43 1.37 252.82 0.00
  Z"
/>
<path fill="#cd2a00" d="
  M 256.02 0.00
  L 267.78 0.00
  C 400.85 7.20 505.28 112.07 512.00 244.83
  L 512.00 267.29
  C 504.68 400.57 400.52 505.48 266.67 512.00
  L 256.00 512.00
  L 256.00 366.14
  Q 256.00 365.66 255.89 365.18
  L 255.67 364.18
  Q 256.03 363.90 256.59 363.78
  Q 326.73 317.35 396.80 270.68
  Q 401.83 267.34 403.58 265.13
  C 408.09 259.46 408.15 250.66 403.93 244.98
  Q 401.96 242.33 395.00 237.71
  Q 326.29 192.06 257.53 146.51
  L 255.33 145.20
  Q 255.51 144.88 255.68 144.69
  A 1.30 1.28 65.7 0 0 255.99 143.85
  L 256.02 0.00
  Z"
/>
<path fill="#ffffff" d="
  M 255.33 145.20
  L 257.53 146.51
  Q 257.50 146.93 257.09 147.30
  Q 256.74 147.63 256.74 148.11
  L 256.69 186.23
  Q 229.13 168.00 202.09 150.01
  C 194.54 144.98 189.48 142.20 188.29 134.27
  C 186.52 122.53 197.54 112.50 209.14 115.79
  Q 212.02 116.61 217.63 120.31
  Q 236.49 132.74 255.33 145.20
  Z"
/>
<path fill="#ffe6b3" d="
  M 257.53 146.51
  Q 326.29 192.06 395.00 237.71
  Q 401.96 242.33 403.93 244.98
  C 408.15 250.66 408.09 259.46 403.58 265.13
  Q 401.83 267.34 396.80 270.68
  Q 326.73 317.35 256.59 363.78
  L 256.69 325.24
  Q 256.69 324.81 256.43 324.47
  L 255.97 323.91
  Q 256.45 323.62 256.68 323.19
  L 358.75 255.48
  A 0.77 0.76 -45.2 0 0 358.75 254.21
  L 256.06 186.09
  Q 256.38 186.16 256.69 186.23
  L 256.74 148.11
  Q 256.74 147.63 257.09 147.30
  Q 257.50 146.93 257.53 146.51
  Z"
/>
<path fill="#cd2a00" d="
  M 256.06 186.09
  L 358.75 254.21
  A 0.77 0.76 -45.2 0 1 358.75 255.48
  L 256.68 323.19
  Q 256.01 323.16 256.01 321.94
  Q 255.88 290.09 256.06 186.09
  Z"
/>
<path fill="#ffffff" d="
  M 255.97 323.91
  L 256.43 324.47
  Q 256.69 324.81 256.69 325.24
  L 256.59 363.78
  Q 256.03 363.90 255.67 364.18
  Q 235.00 377.90 214.33 391.58
  C 204.67 397.97 191.17 393.14 188.53 381.74
  C 186.54 373.14 190.74 367.31 197.87 362.53
  Q 226.85 343.12 255.97 323.91
  Z"
/>
</svg>
