<?xml version="1.0" encoding="UTF-8"?>
<!DOCTYPE svg PUBLIC "-//W3C//DTD SVG 1.1//EN" "http://www.w3.org/Graphics/SVG/1.1/DTD/svg11.dtd">
<svg xmlns="http://www.w3.org/2000/svg" version="1.1" width="512px" height="512px" style="shape-rendering:geometricPrecision; text-rendering:geometricPrecision; image-rendering:optimizeQuality; fill-rule:evenodd; clip-rule:evenodd" xmlns:xlink="http://www.w3.org/1999/xlink">
<g><path style="opacity:0.961" fill="#d1332f" d="M 367.5,83.5 C 360.167,83.5 352.833,83.5 345.5,83.5C 356.512,62.9798 368.179,42.8131 380.5,23C 396.745,21.8471 413.078,21.3471 429.5,21.5C 445.167,21.6667 460.833,21.8333 476.5,22C 481.563,25.8702 482.73,30.7036 480,36.5C 478.681,38.4875 476.848,39.6541 474.5,40C 447.167,40.3333 419.833,40.6667 392.5,41C 383.777,54.9474 375.444,69.1141 367.5,83.5 Z"/></g>
<g><path style="opacity:0.968" fill="#606568" d="M 345.5,83.5 C 352.833,83.5 360.167,83.5 367.5,83.5C 377.089,83.6937 380.589,88.3604 378,97.5C 376.773,99.7261 374.939,101.226 372.5,102C 367.177,102.499 361.844,102.666 356.5,102.5C 348.932,101.188 341.265,101.188 333.5,102.5C 323.832,101.685 320.665,96.6845 324,87.5C 325.214,85.9512 326.714,84.7845 328.5,84C 334.157,83.5006 339.824,83.3339 345.5,83.5 Z"/></g>
<g><path style="opacity:0.965" fill="#d03330" d="M 356.5,102.5 C 297.406,204.259 238.739,306.259 180.5,408.5C 172.705,409.782 165.038,409.782 157.5,408.5C 216.178,306.473 274.845,204.473 333.5,102.5C 341.265,101.188 348.932,101.188 356.5,102.5 Z"/></g>
<g><path style="opacity:0.967" fill="#606568" d="M 157.5,408.5 C 165.038,409.782 172.705,409.782 180.5,408.5C 189.723,409.606 192.89,414.606 190,423.5C 188.786,425.049 187.286,426.215 185.5,427C 179.843,427.499 174.176,427.666 168.5,427.5C 161.167,427.5 153.833,427.5 146.5,427.5C 135.461,426.898 132.294,421.565 137,411.5C 138.419,410.54 139.919,409.707 141.5,409C 146.823,408.501 152.156,408.334 157.5,408.5 Z"/></g>
<g><path style="opacity:0.961" fill="#d1322f" d="M 146.5,427.5 C 153.833,427.5 161.167,427.5 168.5,427.5C 157.224,447.885 145.557,468.051 133.5,488C 116.755,489.153 99.9217,489.653 83,489.5C 66.8333,489.333 50.6667,489.167 34.5,489C 28.2208,483.666 27.8875,477.999 33.5,472C 62.772,470.69 92.1053,470.024 121.5,470C 129.719,455.723 138.052,441.557 146.5,427.5 Z"/></g>
</svg>
