<?xml version="1.0" encoding="UTF-8" standalone="no"?>
<!DOCTYPE svg PUBLIC "-//W3C//DTD SVG 1.1//EN" "http://www.w3.org/Graphics/SVG/1.1/DTD/svg11.dtd">
<svg xmlns="http://www.w3.org/2000/svg" version="1.1" viewBox="0.00 0.00 512.00 512.00">
<g stroke-width="2.00" fill="none" stroke-linecap="butt">
<path stroke="#e63d12" vector-effect="non-scaling-stroke" d="
  M 256.03 0.00
  Q 255.98 72.37 256.00 144.75
  Q 256.00 145.04 256.52 145.84"
/>
<path stroke="#ff9b6b" vector-effect="non-scaling-stroke" d="
  M 256.52 145.84
  Q 256.13 146.22 256.12 146.34"
/>
<path stroke="#ffa891" vector-effect="non-scaling-stroke" d="
  M 256.12 146.34
  Q 186.32 192.55 116.93 238.66
  Q 111.67 242.15 109.93 244.28
  C 103.45 252.20 105.61 263.48 113.98 269.04
  Q 184.53 315.94 256.09 363.32"
/>
<path stroke="#ff9b6b" vector-effect="non-scaling-stroke" d="
  M 256.09 363.32
  Q 255.28 362.63 256.32 363.72"
/>
<path stroke="#e63d12" vector-effect="non-scaling-stroke" d="
  M 256.32 363.72
  L 256.00 512.00"
/>
<path stroke="#e6885a" vector-effect="non-scaling-stroke" d="
  M 256.32 363.72
  Q 277.00 377.54 297.71 391.33
  C 311.95 400.81 330.59 387.69 323.70 371.34
  C 321.58 366.30 317.86 364.08 313.25 361.00
  Q 285.39 342.38 256.34 323.23"
/>
<path stroke="#e69580" vector-effect="non-scaling-stroke" d="
  M 256.34 323.23
  Q 257.10 323.75 255.44 322.80"
/>
<path stroke="#e63d12" vector-effect="non-scaling-stroke" d="
  M 255.44 322.80
  L 255.72 322.38
  A 1.19 1.19 0.0 0 0 255.94 321.69
  L 255.97 186.56"
/>
<path stroke="#e69580" vector-effect="non-scaling-stroke" d="
  M 255.97 186.56
  L 256.73 186.18"
/>
<path stroke="#e6885a" vector-effect="non-scaling-stroke" d="
  M 256.73 186.18
  Q 285.24 167.32 313.70 148.39
  Q 320.11 144.12 322.26 140.96
  C 327.44 133.34 325.16 123.15 317.80 117.94
  C 311.37 113.38 304.09 114.36 297.56 118.65
  Q 276.98 132.17 256.52 145.84"
/>
<path stroke="#fff3d9" vector-effect="non-scaling-stroke" d="
  M 256.73 186.18
  C 255.37 173.31 256.30 159.46 256.12 146.34"
/>
<path stroke="#ffa891" vector-effect="non-scaling-stroke" d="
  M 255.97 186.56
  L 153.33 254.69
  A 0.21 0.21 0.0 0 0 153.33 255.04
  L 255.44 322.80"
/>
<path stroke="#fff3d9" vector-effect="non-scaling-stroke" d="
  M 256.34 323.23
  L 256.09 363.32"
/>
</g>
<path fill="#ff5023" d="
  M 252.82 0.00
  L 256.03 0.00
  Q 255.98 72.37 256.00 144.75
  Q 256.00 145.04 256.52 145.84
  Q 256.13 146.22 256.12 146.34
  Q 186.32 192.55 116.93 238.66
  Q 111.67 242.15 109.93 244.28
  C 103.45 252.20 105.61 263.48 113.98 269.04
  Q 184.53 315.94 256.09 363.32
  Q 255.28 362.63 256.32 363.72
  L 256.00 512.00
  L 251.71 512.00
  C 112.76 508.42 2.07 398.03 0.00 258.43
  L 0.00 253.17
  Q 2.21 160.85 60.28 91.36
  C 108.09 34.15 178.43 1.37 252.82 0.00
  Z"
/>
<path fill="#cd2a00" d="
  M 256.03 0.00
  L 267.78 0.00
  C 400.85 7.20 505.28 112.07 512.00 244.83
  L 512.00 267.29
  C 504.68 400.58 400.51 505.48 266.66 512.00
  L 256.00 512.00
  L 256.32 363.72
  Q 277.00 377.54 297.71 391.33
  C 311.95 400.81 330.59 387.69 323.70 371.34
  C 321.58 366.30 317.86 364.08 313.25 361.00
  Q 285.39 342.38 256.34 323.23
  Q 257.10 323.75 255.44 322.80
  L 255.72 322.38
  A 1.19 1.19 0.0 0 0 255.94 321.69
  L 255.97 186.56
  L 256.73 186.18
  Q 285.24 167.32 313.70 148.39
  Q 320.11 144.12 322.26 140.96
  C 327.44 133.34 325.16 123.15 317.80 117.94
  C 311.37 113.38 304.09 114.36 297.56 118.65
  Q 276.98 132.17 256.52 145.84
  Q 256.00 145.04 256.00 144.75
  Q 255.98 72.37 256.03 0.00
  Z"
/>
<path fill="#ffe6b3" d="
  M 256.73 186.18
  C 255.37 173.31 256.30 159.46 256.12 146.34
  Q 256.13 146.22 256.52 145.84
  Q 276.98 132.17 297.56 118.65
  C 304.09 114.36 311.37 113.38 317.80 117.94
  C 325.16 123.15 327.44 133.34 322.26 140.96
  Q 320.11 144.12 313.70 148.39
  Q 285.24 167.32 256.73 186.18
  Z"
/>
<path fill="#ffffff" d="
  M 256.12 146.34
  C 256.30 159.46 255.37 173.31 256.73 186.18
  L 255.97 186.56
  L 153.33 254.69
  A 0.21 0.21 0.0 0 0 153.33 255.04
  L 255.44 322.80
  Q 257.10 323.75 256.34 323.23
  L 256.09 363.32
  Q 184.53 315.94 113.98 269.04
  C 105.61 263.48 103.45 252.20 109.93 244.28
  Q 111.67 242.15 116.93 238.66
  Q 186.32 192.55 256.12 146.34
  Z"
/>
<path fill="#ff5023" d="
  M 255.97 186.56
  L 255.94 321.69
  A 1.19 1.19 0.0 0 1 255.72 322.38
  L 255.44 322.80
  L 153.33 255.04
  A 0.21 0.21 0.0 0 1 153.33 254.69
  L 255.97 186.56
  Z"
/>
<path fill="#ffe6b3" d="
  M 256.34 323.23
  Q 285.39 342.38 313.25 361.00
  C 317.86 364.08 321.58 366.30 323.70 371.34
  C 330.59 387.69 311.95 400.81 297.71 391.33
  Q 277.00 377.54 256.32 363.72
  Q 255.28 362.63 256.09 363.32
  L 256.34 323.23
  Z"
/>
</svg>
