<svg xmlns="http://www.w3.org/2000/svg" viewBox="0 0 39.69 34.04"><defs><style>.cls-1{fill:#e43a35;}.cls-1,.cls-2,.cls-3,.cls-4,.cls-5{fill-rule:evenodd;}.cls-2,.cls-5{fill:#458abd;}.cls-3{fill:#5997c5;}.cls-4{fill:#ed5451;}.cls-5{stroke:#458abd;stroke-miterlimit:10;stroke-width:2px;}</style></defs><g id="Слой_2" data-name="Слой 2"><g id="Слой_1-2" data-name="Слой 1"><polygon class="cls-1" points="19.84 27.31 28.32 27.31 28.32 20.41 19.87 20.38 11.37 20.44 11.34 27.34 19.84 27.31"/><polygon class="cls-2" points="6.32 31.86 19.81 31.86 19.81 31.86 33.36 31.86 33.42 27.2 28.23 27.17 19.64 27.17 19.64 27.17 11.34 27.17 6.35 27.17 6.32 31.86"/><path class="cls-3" d="M0,31.66V34L19.64,34h20V31.63l-20.07,0Z"/><path class="cls-4" d="M11.37,25H30.73a12.58,12.58,0,0,0-.46-4.55,6.24,6.24,0,0,0-2.07-2.81c-2.38-1.77-5-1.29-8.33-1.29-3.85,0-8.67-.71-10.46,4.16A13,13,0,0,0,9.07,25Z"/><polygon class="cls-5" points="19.84 13.4 21.77 10.02 23.7 6.64 20.84 6.64 20.84 1 18.85 1 18.85 6.64 15.99 6.64 17.91 10.02 19.84 13.4"/></g></g></svg>