<?xml version="1.0" encoding="UTF-8" standalone="no"?>
<!DOCTYPE svg PUBLIC "-//W3C//DTD SVG 1.1//EN" "http://www.w3.org/Graphics/SVG/1.1/DTD/svg11.dtd">
<svg xmlns="http://www.w3.org/2000/svg" version="1.1" viewBox="0.00 0.00 512.00 512.00">
<g stroke-width="2.00" fill="none" stroke-linecap="butt">
<path stroke="#78d154" vector-effect="non-scaling-stroke" d="
  M 256.03 0.00
  L 255.99 211.56"
/>
<path stroke="#467e55" vector-effect="non-scaling-stroke" d="
  M 356.22 117.14
  L 344.74 128.28"
/>
<path stroke="#467e55" vector-effect="non-scaling-stroke" d="
  M 344.74 128.28
  L 341.77 131.18"
/>
<path stroke="#467e55" vector-effect="non-scaling-stroke" d="
  M 341.48 131.50
  L 337.71 135.38"
/>
<path stroke="#467e55" vector-effect="non-scaling-stroke" d="
  M 336.43 136.49
  L 333.77 139.18"
/>
<path stroke="#467e55" vector-effect="non-scaling-stroke" d="
  M 333.57 139.52
  Q 332.41 140.21 331.78 141.23"
/>
<path stroke="#467e55" vector-effect="non-scaling-stroke" d="
  M 331.78 141.23
  Q 330.50 141.99 329.74 143.38"
/>
<path stroke="#467e55" vector-effect="non-scaling-stroke" d="
  M 328.46 144.50
  L 322.63 150.54"
/>
<path stroke="#467e55" vector-effect="non-scaling-stroke" d="
  M 320.45 152.51
  L 318.50 154.38"
/>
<path stroke="#467e55" vector-effect="non-scaling-stroke" d="
  M 318.62 154.45
  L 314.58 158.25"
/>
<path stroke="#467e55" vector-effect="non-scaling-stroke" d="
  M 314.52 158.46
  L 312.71 160.28"
/>
<path stroke="#467e55" vector-effect="non-scaling-stroke" d="
  M 312.44 160.48
  L 307.80 165.20"
/>
<path stroke="#467e55" vector-effect="non-scaling-stroke" d="
  M 307.80 165.20
  L 304.61 168.47"
/>
<path stroke="#467e55" vector-effect="non-scaling-stroke" d="
  M 304.44 168.49
  L 302.53 170.30"
/>
<path stroke="#467e55" vector-effect="non-scaling-stroke" d="
  M 301.55 171.53
  Q 300.36 172.23 299.83 173.22"
/>
<path stroke="#467e55" vector-effect="non-scaling-stroke" d="
  M 299.83 173.22
  L 296.65 176.48"
/>
<path stroke="#467e55" vector-effect="non-scaling-stroke" d="
  M 296.46 176.51
  L 293.78 179.19"
/>
<path stroke="#467e55" vector-effect="non-scaling-stroke" d="
  M 293.78 179.19
  L 289.48 183.50"
/>
<path stroke="#467e55" vector-effect="non-scaling-stroke" d="
  M 289.48 183.50
  L 283.77 189.19"
/>
<path stroke="#467e55" vector-effect="non-scaling-stroke" d="
  M 283.55 189.51
  Q 282.35 190.08 281.77 191.35"
/>
<path stroke="#467e55" vector-effect="non-scaling-stroke" d="
  M 280.43 192.47
  L 269.48 203.44"
/>
<path stroke="#467e55" vector-effect="non-scaling-stroke" d="
  M 268.50 204.46
  Q 267.42 205.14 266.72 206.33"
/>
<path stroke="#f84e0d" vector-effect="non-scaling-stroke" d="
  M 256.03 242.24
  L 256.02 361.97"
/>
<path stroke="#a35a37" vector-effect="non-scaling-stroke" d="
  M 256.02 361.97
  L 151.54 361.88"
/>
<path stroke="#913920" vector-effect="non-scaling-stroke" d="
  M 360.81 361.96
  L 256.02 361.97"
/>
<path stroke="#3d444a" vector-effect="non-scaling-stroke" d="
  M 256.02 361.97
  L 256.00 391.22
  A 0.84 0.84 0.0 0 0 256.84 392.06
  L 360.68 392.27"
/>
<path stroke="#3d444a" vector-effect="non-scaling-stroke" d="
  M 450.50 482.07
  L 256.15 482.00"
/>
<path stroke="#4f575c" vector-effect="non-scaling-stroke" d="
  M 256.15 482.00
  L 255.98 393.17
  A 1.12 1.11 89.5 0 0 254.86 392.06
  L 151.63 392.26"
/>
<path stroke="#4f575c" vector-effect="non-scaling-stroke" d="
  M 256.15 482.00
  L 61.55 482.06"
/>
<path stroke="#3d444a" vector-effect="non-scaling-stroke" d="
  M 256.15 482.00
  L 255.88 512.00"
/>
</g>
<path fill="#97de3d" d="
  M 209.07 0.00
  L 256.03 0.00
  L 255.99 211.56
  Q 249.79 211.37 245.71 207.29
  Q 200.67 162.34 155.71 117.29
  C 146.34 107.89 153.21 93.07 166.01 92.53
  Q 180.91 91.90 195.85 92.44
  Q 196.34 92.45 196.33 91.96
  Q 196.17 58.98 196.25 26.01
  Q 196.28 13.61 197.04 11.08
  Q 199.45 3.02 209.07 0.00
  Z"
/>
<path fill="#59c36a" d="
  M 256.03 0.00
  L 303.30 0.00
  Q 306.62 1.18 309.35 3.21
  C 310.43 4.01 311.35 5.63 312.72 6.63
  Q 313.08 6.89 313.27 7.30
  C 314.22 9.30 315.49 11.01 315.49 13.32
  Q 315.53 52.68 315.48 92.05
  Q 315.48 92.53 315.96 92.52
  Q 330.10 92.46 344.29 92.50
  Q 349.24 92.52 352.01 93.79
  C 361.38 98.07 363.17 109.74 356.22 117.14
  L 344.74 128.28
  L 341.77 131.18
  Q 341.80 131.50 341.48 131.50
  L 337.71 135.38
  Q 337.08 135.65 336.43 136.49
  L 333.77 139.18
  Q 333.82 139.41 333.57 139.52
  Q 332.41 140.21 331.78 141.23
  Q 330.50 141.99 329.74 143.38
  Q 329.03 143.65 328.46 144.50
  L 322.63 150.54
  Q 321.56 151.05 320.45 152.51
  L 318.50 154.38
  Q 318.56 154.41 318.62 154.45
  L 314.58 158.25
  Q 314.55 158.36 314.52 158.46
  L 312.71 160.28
  Q 312.55 160.24 312.44 160.48
  L 307.80 165.20
  L 304.61 168.47
  Q 304.96 167.82 304.44 168.49
  L 302.53 170.30
  L 301.55 171.53
  Q 300.36 172.23 299.83 173.22
  L 296.65 176.48
  Q 296.92 175.75 296.46 176.51
  L 293.78 179.19
  L 289.48 183.50
  L 283.77 189.19
  Q 283.83 189.42 283.55 189.51
  Q 282.35 190.08 281.77 191.35
  Q 280.83 191.75 280.43 192.47
  L 269.48 203.44
  Q 268.58 204.01 268.50 204.46
  Q 267.42 205.14 266.72 206.33
  C 265.45 209.75 259.10 211.72 255.99 211.56
  L 256.03 0.00
  Z"
/>
<path fill="#000000" d="
  M 453.02 72.75
  A 0.57 0.56 -44.8 0 0 454.06 72.75
  C 458.73 61.90 469.06 54.91 481.51 57.52
  C 509.02 63.31 499.96 111.75 472.10 103.59
  C 464.12 101.25 460.55 95.18 456.38 88.48
  A 0.96 0.95 41.5 0 0 454.70 88.58
  C 447.57 104.09 427.81 110.84 415.54 96.44
  C 405.59 84.74 409.66 60.54 426.83 57.68
  Q 431.47 56.91 436.21 57.34
  A 1.55 1.52 -20.8 0 1 437.08 57.72
  Q 437.71 58.29 438.56 58.27
  Q 439.12 58.25 439.62 58.49
  Q 449.02 63.02 453.02 72.75
  Z
  M 447.0389 80.8120
  A 14.57 13.06 -0.7 0 0 432.3104 67.9310
  A 14.57 13.06 -0.7 0 0 417.9011 81.1680
  A 14.57 13.06 -0.7 0 0 432.6296 94.0490
  A 14.57 13.06 -0.7 0 0 447.0389 80.8120
  Z
  M 491.4185 81.1961
  A 14.68 13.28 -3.1 0 0 476.0418 68.7294
  A 14.68 13.28 -3.1 0 0 462.1015 82.7839
  A 14.68 13.28 -3.1 0 0 477.4782 95.2506
  A 14.68 13.28 -3.1 0 0 491.4185 81.1961
  Z"
/>
<path fill="#32393f" d="
  M 356.22 117.14
  C 354.30 119.34 345.73 128.86 344.74 128.28
  L 356.22 117.14
  Z"
/>
<path fill="#32393f" d="
  M 344.74 128.28
  L 344.75 128.88
  Q 344.77 129.39 344.31 129.62
  C 343.36 130.11 342.37 132.33 341.77 131.18
  L 344.74 128.28
  Z"
/>
<path fill="#32393f" d="
  M 341.48 131.50
  L 341.48 132.20
  A 0.31 0.30 -5.8 0 1 341.23 132.50
  Q 341.15 132.51 340.99 132.36
  Q 340.96 132.34 340.92 132.42
  Q 340.16 134.50 337.71 135.38
  L 341.48 131.50
  Z"
/>
<path fill="#32393f" d="
  M 336.43 136.49
  L 336.63 136.97
  Q 336.84 137.45 336.34 137.64
  Q 334.95 138.16 334.51 139.46
  Q 334.33 140.01 334.01 139.53
  L 333.77 139.18
  L 336.43 136.49
  Z"
/>
<rect fill="#fabe2c" x="-14.61" y="-54.75" transform="translate(394.58,182.35) rotate(41.0)" width="29.22" height="109.50" rx="14.33"/>
<rect fill="#fed843" x="-14.52" y="-54.59" transform="translate(117.39,182.33) rotate(-41.2)" width="29.04" height="109.18" rx="14.23"/>
<path fill="#32393f" d="
  M 333.57 139.52
  L 332.48 141.47
  Q 332.27 141.85 332.00 141.51
  L 331.78 141.23
  Q 332.41 140.21 333.57 139.52
  Z"
/>
<path fill="#32393f" d="
  M 331.78 141.23
  Q 331.77 143.01 329.74 143.38
  Q 330.50 141.99 331.78 141.23
  Z"
/>
<path fill="#32393f" d="
  M 328.46 144.50
  L 328.64 144.75
  Q 328.90 145.11 328.57 145.41
  L 322.63 150.54
  L 328.46 144.50
  Z"
/>
<path fill="#32393f" d="
  M 320.45 152.51
  C 321.51 153.56 319.19 154.15 318.50 154.38
  L 320.45 152.51
  Z"
/>
<path fill="#32393f" d="
  M 318.62 154.45
  Q 317.79 156.31 316.27 157.76
  Q 315.26 158.73 314.58 158.25
  L 318.62 154.45
  Z"
/>
<path fill="#32393f" d="
  M 314.52 158.46
  Q 314.27 160.40 312.71 160.28
  L 314.52 158.46
  Z"
/>
<path fill="#32393f" d="
  M 312.44 160.48
  C 313.12 161.31 309.36 164.29 308.41 165.49
  Q 308.16 165.81 307.96 165.46
  L 307.80 165.20
  L 312.44 160.48
  Z"
/>
<path fill="#32393f" d="
  M 307.80 165.20
  Q 307.33 167.39 304.61 168.47
  L 307.80 165.20
  Z"
/>
<path fill="#32393f" d="
  M 304.44 168.49
  C 305.53 169.60 303.22 170.34 302.53 170.30
  L 304.44 168.49
  Z"
/>
<path fill="#32393f" d="
  M 301.55 171.53
  Q 301.36 172.63 300.45 173.55
  Q 300.17 173.84 299.98 173.49
  L 299.83 173.22
  Q 300.36 172.23 301.55 171.53
  Z"
/>
<path fill="#32393f" d="
  M 299.83 173.22
  Q 299.18 175.37 296.65 176.48
  L 299.83 173.22
  Z"
/>
<path fill="#32393f" d="
  M 296.46 176.51
  Q 296.63 176.68 296.70 176.88
  Q 296.88 177.36 296.41 177.58
  C 295.44 178.02 294.33 180.22 293.78 179.19
  L 296.46 176.51
  Z"
/>
<path fill="#32393f" d="
  M 293.78 179.19
  Q 293.60 180.86 292.06 181.71
  Q 291.68 181.91 291.44 182.26
  Q 290.71 183.32 289.48 183.50
  L 293.78 179.19
  Z"
/>
<path fill="#32393f" d="
  M 289.48 183.50
  C 289.35 185.27 285.60 187.93 284.44 189.48
  Q 284.20 189.81 283.96 189.47
  L 283.77 189.19
  L 289.48 183.50
  Z"
/>
<path fill="#32393f" d="
  M 283.55 189.51
  Q 283.31 191.46 281.77 191.35
  Q 282.35 190.08 283.55 189.51
  Z"
/>
<path fill="#32393f" d="
  M 280.43 192.47
  Q 280.52 192.59 280.59 192.69
  A 0.41 0.40 49.1 0 1 280.56 193.18
  Q 275.77 198.46 270.46 203.21
  Q 270.48 203.70 269.48 203.44
  L 280.43 192.47
  Z"
/>
<path fill="#32393f" d="
  M 268.50 204.46
  Q 268.39 206.50 266.72 206.33
  Q 267.42 205.14 268.50 204.46
  Z"
/>
<path fill="#fabe2c" d="
  M 512.00 223.82
  L 512.00 229.02
  C 509.47 234.66 506.42 237.82 500.43 240.44
  Q 477.01 250.70 453.57 260.82
  C 450.48 262.15 447.02 263.80 443.66 263.45
  C 433.94 262.44 427.07 253.68 430.40 244.22
  C 432.16 239.24 435.45 236.83 440.55 234.60
  Q 465.63 223.62 490.75 212.76
  C 500.25 208.65 509.34 214.34 512.00 223.82
  Z"
/>
<path fill="#fed843" d="
  M 0.00 228.44
  L 0.00 223.69
  C 2.17 217.22 7.51 211.59 14.50 211.52
  Q 17.96 211.48 25.64 214.78
  Q 48.35 224.51 70.95 234.46
  Q 76.31 236.81 78.35 239.03
  C 89.20 250.81 76.19 268.15 61.50 261.93
  Q 35.57 250.95 9.86 239.51
  C 4.71 237.22 1.79 233.48 0.00 228.44
  Z"
/>
<path fill="#ff641a" d="
  M 256.03 242.24
  L 256.02 361.97
  L 151.54 361.88
  Q 115.58 361.66 79.68 361.75
  Q 73.14 361.76 70.01 360.37
  C 62.87 357.21 60.76 350.65 61.44 342.92
  C 64.92 303.50 102.58 277.63 135.86 264.16
  C 173.97 248.73 214.97 242.27 256.03 242.24
  Z"
/>
<path fill="#f03800" d="
  M 256.03 242.24
  Q 294.82 241.76 332.78 250.13
  C 370.02 258.34 413.59 275.84 437.22 307.54
  C 444.89 317.82 461.71 353.34 441.50 360.85
  Q 438.60 361.93 431.27 361.95
  Q 396.23 362.07 360.81 361.96
  L 256.02 361.97
  L 256.03 242.24
  Z"
/>
<path fill="#474f54" d="
  M 151.54 361.88
  L 256.02 361.97
  L 256.00 391.22
  A 0.84 0.84 0.0 0 0 256.84 392.06
  L 360.68 392.27
  Q 398.06 392.59 435.84 392.59
  C 445.02 392.60 450.47 399.00 450.48 407.89
  Q 450.51 444.90 450.50 482.07
  L 256.15 482.00
  L 255.98 393.17
  A 1.12 1.11 89.5 0 0 254.86 392.06
  L 151.63 392.26
  L 151.54 361.88
  Z"
/>
<path fill="#32393f" d="
  M 360.81 361.96
  L 360.68 392.27
  L 256.84 392.06
  A 0.84 0.84 0.0 0 1 256.00 391.22
  L 256.02 361.97
  L 360.81 361.96
  Z"
/>
<path fill="#575f64" d="
  M 256.15 482.00
  L 61.55 482.06
  Q 61.41 445.47 61.56 408.92
  C 61.61 398.27 67.36 392.49 78.04 392.53
  Q 115.01 392.65 151.63 392.26
  L 254.86 392.06
  A 1.12 1.11 89.5 0 1 255.98 393.17
  L 256.15 482.00
  Z"
/>
<path fill="#474f54" d="
  M 256.15 482.00
  L 255.88 512.00
  L 42.41 512.00
  Q 35.82 508.03 33.80 504.70
  C 29.07 496.94 32.01 487.42 40.20 483.73
  Q 42.73 482.59 47.63 482.61
  Q 54.80 482.63 61.55 482.06
  L 256.15 482.00
  Z"
/>
<path fill="#32393f" d="
  M 256.15 482.00
  L 450.50 482.07
  Q 457.52 482.54 464.75 482.35
  C 484.39 481.83 486.43 508.55 467.18 512.00
  L 255.88 512.00
  L 256.15 482.00
  Z"
/>
</svg>
