<?xml version="1.0" encoding="UTF-8"?>
<svg id="_Слой_2" data-name="Слой 2" xmlns="http://www.w3.org/2000/svg" viewBox="0 0 28.27 52.39">
  <defs>
    <style>
      .cls-1 {
        fill: #de6855;
      }

      .cls-1, .cls-2, .cls-3, .cls-4, .cls-5 {
        fill-rule: evenodd;
      }

      .cls-2 {
        fill: #ea3;
      }

      .cls-3 {
        fill: #eeaa36;
      }

      .cls-4 {
        fill: #f2c620;
      }

      .cls-5 {
        fill: #c45944;
      }
    </style>
  </defs>
  <g id="_Слой_1-2" data-name="Слой 1">
    <g>
      <path class="cls-1" d="m13.42,0h1.47c4.93.31,9.5,3.87,10.54,9.48.43,2.26.17,7.47.17,10.28v10.42h-4.42v-5.84c0-.92.06-1.95,0-2.86-.06-1.17-.82-1.12-1.96-1.06-.96.06-1.08.77-1.47,1.43-2.44,4.07-2.21,3.89,1.7,3.89v4.44h-10.57v-4.44c1.16,0,1.11-.43,1.59-1.23.4-.63.74-1.23,1.08-1.86.31-.54,1.05-1.46.34-2.03-.43-.31-2.13-.2-2.78-.2-2.38,0-1.98.03-1.98,3.92v5.84H2.73v-10.42c0-5.21-.77-10.19,1.56-14.09.34-.54.68-1.12,1.08-1.55.26-.26.43-.4.65-.69l.31-.31C8.43,1.17,10.92.17,13.42,0h0Z"/>
      <path class="cls-3" d="m5.4,34.67c.31-.17,4.76-.14,5.33-.03h6.89c.54-.11,4.99-.14,5.33.03h3.09c1.13,0,2.13.2,2.21-.92.03-.43.06-2.72-.03-3.01-.31-.83-1.39-.54-2.61-.57H2.73c-.45,0-1.81-.09-2.15.09-.79.34-.57,2.43-.48,3.49.09,1.09,1.02.92,2.13.92h3.17Z"/>
      <path class="cls-5" d="m7.13,30.18h1.76v-4.44c1.16,0,1.11-.43,1.59-1.23.4-.63.74-1.23,1.08-1.86.31-.54,1.05-1.46.34-2.03-.43-.31-2.13-.2-2.78-.2-2.38,0-1.98.03-1.98,3.92v5.84h0Z"/>
      <path class="cls-5" d="m19.46,30.18h1.73v-5.84c0-.92.06-1.95,0-2.86-.06-1.17-.82-1.12-1.96-1.06-.96.06-1.08.77-1.47,1.43-2.44,4.07-2.21,3.89,1.7,3.89v4.44Z"/>
      <path class="cls-2" d="m8.91,38.19h-1.84v11.34c0,1.2-.26,2.72.82,2.86h.31c1.02-.14.71-1.69.71-2.86v-11.34Z"/>
      <path class="cls-2" d="m21.27,38.19h-1.84v11.34c0,1.17-.31,2.72.71,2.86h.31c1.08-.14.82-1.66.82-2.86v-11.34Z"/>
      <path class="cls-4" d="m17.61,34.64c0,.94-.09,1.86.2,2.49.14.31.34.54.6.74.31.26.48.26,1.02.31h1.84c1.67-.17,1.93-1.55,1.67-3.52-.34-.17-4.79-.14-5.33-.03h0Z"/>
      <path class="cls-4" d="m7.07,38.19h1.84c.54-.06.68-.06,1.02-.31.26-.2.48-.46.6-.74.26-.6.2-1.6.2-2.49-.57-.11-5.02-.14-5.33.03-.26,1.98,0,3.35,1.67,3.52h0Z"/>
    </g>
  </g>
</svg>