<?xml version="1.0" encoding="UTF-8" standalone="no"?>
<!DOCTYPE svg PUBLIC "-//W3C//DTD SVG 1.1//EN" "http://www.w3.org/Graphics/SVG/1.1/DTD/svg11.dtd">
<svg xmlns="http://www.w3.org/2000/svg" version="1.1" viewBox="0.00 0.00 512.00 512.00">
<g stroke-width="2.00" fill="none" stroke-linecap="butt">
<path stroke="#ec742e" vector-effect="non-scaling-stroke" d="
  M 368.79 295.00
  Q 347.15 295.66 325.50 294.96"
/>
<path stroke="#d34334" vector-effect="non-scaling-stroke" d="
  M 325.50 294.96
  Q 325.52 252.03 325.40 209.10
  C 325.39 202.45 321.36 199.81 314.92 199.67
  C 309.87 199.55 300.09 198.53 297.30 203.32
  Q 287.93 219.40 278.50 235.47
  Q 275.87 239.94 275.67 242.59
  C 275.21 248.58 279.95 251.45 285.53 251.63
  Q 296.14 251.96 307.36 251.55
  Q 308.00 251.53 308.00 252.17
  L 308.00 295.13"
/>
<path stroke="#ec742e" vector-effect="non-scaling-stroke" d="
  M 308.00 295.13
  L 203.80 295.11"
/>
<path stroke="#d34334" vector-effect="non-scaling-stroke" d="
  M 203.80 295.11
  L 203.94 252.16
  Q 203.94 251.59 204.51 251.54
  C 208.33 251.18 212.38 251.76 214.48 248.21
  Q 224.59 231.15 234.50 213.97
  C 238.94 206.26 235.06 199.78 226.30 199.68
  Q 211.15 199.53 196.01 199.79
  C 188.61 199.91 186.78 203.89 186.73 210.91
  Q 186.42 252.90 186.44 295.02"
/>
<path stroke="#ec742e" vector-effect="non-scaling-stroke" d="
  M 186.44 295.02
  Q 164.61 295.64 143.25 294.96"
/>
<path stroke="#f16459" vector-effect="non-scaling-stroke" d="
  M 249.12 43.71
  C 251.54 43.44 255.52 43.70 257.68 43.14
  C 268.45 40.35 266.34 25.96 254.13 26.22
  Q 230.56 26.73 210.61 39.00
  Q 206.53 41.51 205.22 43.39
  C 201.51 48.71 206.17 56.69 212.54 56.49
  C 216.01 56.38 220.14 53.54 223.42 51.77
  Q 235.51 45.25 249.12 43.71"
/>
<path stroke="#f16459" vector-effect="non-scaling-stroke" d="
  M 169.77 104.34
  C 169.17 110.96 168.12 115.97 172.76 119.54
  C 178.85 124.23 186.20 119.70 186.43 112.41
  Q 186.93 96.89 193.29 82.83
  Q 194.78 79.53 194.61 77.37
  C 194.15 71.27 186.64 67.27 181.61 70.67
  C 174.66 75.38 170.48 96.44 169.77 104.34"
/>
<path stroke="#d96b25" vector-effect="non-scaling-stroke" d="
  M 203.80 295.11
  L 186.44 295.02"
/>
<path stroke="#d96b25" vector-effect="non-scaling-stroke" d="
  M 325.50 294.96
  L 308.00 295.13"
/>
<path stroke="#f1b01c" vector-effect="non-scaling-stroke" d="
  M 343.15 338.41
  L 290.75 338.54"
/>
<path stroke="#f1b01c" vector-effect="non-scaling-stroke" d="
  M 221.25 338.54
  Q 195.27 338.09 169.29 338.78"
/>
<path stroke="#f1b01c" vector-effect="non-scaling-stroke" d="
  M 204.01 373.22
  Q 195.29 372.66 186.51 373.44"
/>
<path stroke="#f1b01c" vector-effect="non-scaling-stroke" d="
  M 325.50 373.29
  Q 322.72 372.93 319.93 372.98
  Q 313.95 373.09 308.02 373.24"
/>
</g>
<path fill="#e64c3c" d="
  M 254.56 0.00
  L 258.31 0.00
  C 315.21 2.66 361.60 43.11 368.03 100.02
  Q 368.76 106.54 368.76 120.00
  Q 368.71 207.51 368.79 295.00
  Q 347.15 295.66 325.50 294.96
  Q 325.52 252.03 325.40 209.10
  C 325.39 202.45 321.36 199.81 314.92 199.67
  C 309.87 199.55 300.09 198.53 297.30 203.32
  Q 287.93 219.40 278.50 235.47
  Q 275.87 239.94 275.67 242.59
  C 275.21 248.58 279.95 251.45 285.53 251.63
  Q 296.14 251.96 307.36 251.55
  Q 308.00 251.53 308.00 252.17
  L 308.00 295.13
  L 203.80 295.11
  L 203.94 252.16
  Q 203.94 251.59 204.51 251.54
  C 208.33 251.18 212.38 251.76 214.48 248.21
  Q 224.59 231.15 234.50 213.97
  C 238.94 206.26 235.06 199.78 226.30 199.68
  Q 211.15 199.53 196.01 199.79
  C 188.61 199.91 186.78 203.89 186.73 210.91
  Q 186.42 252.90 186.44 295.02
  Q 164.61 295.64 143.25 294.96
  Q 143.27 207.35 143.22 119.74
  Q 143.22 106.66 144.04 99.78
  C 150.86 43.00 197.30 1.71 254.56 0.00
  Z
  M 249.12 43.71
  C 251.54 43.44 255.52 43.70 257.68 43.14
  C 268.45 40.35 266.34 25.96 254.13 26.22
  Q 230.56 26.73 210.61 39.00
  Q 206.53 41.51 205.22 43.39
  C 201.51 48.71 206.17 56.69 212.54 56.49
  C 216.01 56.38 220.14 53.54 223.42 51.77
  Q 235.51 45.25 249.12 43.71
  Z
  M 169.77 104.34
  C 169.17 110.96 168.12 115.97 172.76 119.54
  C 178.85 124.23 186.20 119.70 186.43 112.41
  Q 186.93 96.89 193.29 82.83
  Q 194.78 79.53 194.61 77.37
  C 194.15 71.27 186.64 67.27 181.61 70.67
  C 174.66 75.38 170.48 96.44 169.77 104.34
  Z"
/>
<path fill="#fb7b76" d="
  M 249.12 43.71
  Q 235.51 45.25 223.42 51.77
  C 220.14 53.54 216.01 56.38 212.54 56.49
  C 206.17 56.69 201.51 48.71 205.22 43.39
  Q 206.53 41.51 210.61 39.00
  Q 230.56 26.73 254.13 26.22
  C 266.34 25.96 268.45 40.35 257.68 43.14
  C 255.52 43.70 251.54 43.44 249.12 43.71
  Z"
/>
<path fill="#fb7b76" d="
  M 169.77 104.34
  C 170.48 96.44 174.66 75.38 181.61 70.67
  C 186.64 67.27 194.15 71.27 194.61 77.37
  Q 194.78 79.53 193.29 82.83
  Q 186.93 96.89 186.43 112.41
  C 186.20 119.70 178.85 124.23 172.76 119.54
  C 168.12 115.97 169.17 110.96 169.77 104.34
  Z"
/>
<path fill="#c03a2b" d="
  M 203.80 295.11
  L 186.44 295.02
  Q 186.42 252.90 186.73 210.91
  C 186.78 203.89 188.61 199.91 196.01 199.79
  Q 211.15 199.53 226.30 199.68
  C 235.06 199.78 238.94 206.26 234.50 213.97
  Q 224.59 231.15 214.48 248.21
  C 212.38 251.76 208.33 251.18 204.51 251.54
  Q 203.94 251.59 203.94 252.16
  L 203.80 295.11
  Z"
/>
<path fill="#c03a2b" d="
  M 325.50 294.96
  L 308.00 295.13
  L 308.00 252.17
  Q 308.00 251.53 307.36 251.55
  Q 296.14 251.96 285.53 251.63
  C 279.95 251.45 275.21 248.58 275.67 242.59
  Q 275.87 239.94 278.50 235.47
  Q 287.93 219.40 297.30 203.32
  C 300.09 198.53 309.87 199.55 314.92 199.67
  C 321.36 199.81 325.39 202.45 325.40 209.10
  Q 325.52 252.03 325.50 294.96
  Z"
/>
<path fill="#f29c1f" d="
  M 143.25 294.96
  Q 164.61 295.64 186.44 295.02
  L 203.80 295.11
  L 308.00 295.13
  L 325.50 294.96
  Q 347.15 295.66 368.79 295.00
  Q 377.02 295.01 385.24 295.06
  C 393.15 295.12 394.77 299.96 394.76 307.12
  Q 394.75 317.20 394.74 327.27
  C 394.73 335.53 391.71 338.44 383.77 338.48
  Q 363.57 338.58 343.15 338.41
  L 290.75 338.54
  L 221.25 338.54
  Q 195.27 338.09 169.29 338.78
  Q 158.83 338.54 126.50 338.49
  C 119.76 338.48 117.25 334.03 117.25 327.74
  Q 117.26 317.03 117.24 306.32
  Q 117.23 301.22 118.62 298.95
  C 122.23 293.02 137.04 295.01 143.25 294.96
  Z"
/>
<path fill="#f0c419" d="
  M 221.25 338.54
  C 221.25 352.96 224.44 371.28 204.01 373.22
  Q 195.29 372.66 186.51 373.44
  Q 184.81 372.98 183.01 372.62
  C 166.25 369.21 169.15 351.11 169.29 338.78
  Q 195.27 338.09 221.25 338.54
  Z"
/>
<path fill="#f0c419" d="
  M 343.15 338.41
  Q 342.58 345.55 342.68 352.65
  C 342.82 364.16 337.91 371.97 325.50 373.29
  Q 322.72 372.93 319.93 372.98
  Q 313.95 373.09 308.02 373.24
  C 287.57 371.26 290.75 353.00 290.75 338.54
  L 343.15 338.41
  Z"
/>
<path fill="#f29c1f" d="
  M 204.01 373.22
  Q 203.99 437.78 204.00 502.25
  Q 204.00 510.20 196.19 512.00
  L 194.44 512.00
  Q 186.50 510.27 186.50 502.25
  Q 186.49 437.92 186.51 373.44
  Q 195.29 372.66 204.01 373.22
  Z"
/>
<path fill="#f29c1f" d="
  M 325.50 373.29
  Q 325.50 437.77 325.50 502.25
  Q 325.50 510.18 317.69 512.00
  L 315.69 512.00
  C 309.01 510.46 308.07 506.12 308.06 499.61
  Q 307.94 436.48 308.02 373.24
  Q 313.95 373.09 319.93 372.98
  Q 322.72 372.93 325.50 373.29
  Z"
/>
</svg>
