<?xml version="1.0" encoding="UTF-8" standalone="no"?>
<!DOCTYPE svg PUBLIC "-//W3C//DTD SVG 1.1//EN" "http://www.w3.org/Graphics/SVG/1.1/DTD/svg11.dtd">
<svg xmlns="http://www.w3.org/2000/svg" version="1.1" viewBox="0.00 0.00 512.00 512.00">
<g stroke-width="2.00" fill="none" stroke-linecap="butt">
<path stroke="#e6ebf6" vector-effect="non-scaling-stroke" d="
  M 202.74 0.00
  Q 202.76 34.75 202.75 69.50
  Q 202.75 70.12 202.00 70.75"
/>
<path stroke="#d3d8e9" vector-effect="non-scaling-stroke" d="
  M 202.00 70.75
  L 85.01 70.75
  Q 84.50 70.75 84.50 71.26
  L 84.50 100.48
  A 0.52 0.52 0.0 0 0 85.02 101.00
  Q 143.44 101.00 201.94 101.00
  Q 202.10 100.64 202.73 100.75"
/>
<path stroke="#e6ebf6" vector-effect="non-scaling-stroke" d="
  M 202.73 100.75
  L 202.64 136.74"
/>
<path stroke="#d3d8e9" vector-effect="non-scaling-stroke" d="
  M 202.64 136.74
  L 85.03 136.74
  A 0.53 0.53 0.0 0 0 84.50 137.27
  L 84.50 166.48
  A 0.52 0.52 0.0 0 0 85.02 167.00
  Q 143.44 167.00 201.94 167.00
  Q 202.07 166.64 202.76 166.76"
/>
<path stroke="#b2b8cb" vector-effect="non-scaling-stroke" d="
  M 202.76 166.76
  Q 202.81 167.00 202.87 167.00"
/>
<path stroke="#e6ebf6" vector-effect="non-scaling-stroke" d="
  M 202.87 167.00
  L 202.69 202.74"
/>
<path stroke="#d3d8e9" vector-effect="non-scaling-stroke" d="
  M 202.69 202.74
  L 85.03 202.74
  A 0.53 0.53 0.0 0 0 84.50 203.27
  L 84.50 232.48
  A 0.52 0.52 0.0 0 0 85.02 233.00
  L 202.76 232.98"
/>
<path stroke="#b2b8cb" vector-effect="non-scaling-stroke" d="
  M 202.76 232.98
  Q 202.72 232.99 202.68 233.00"
/>
<path stroke="#e6ebf6" vector-effect="non-scaling-stroke" d="
  M 202.68 233.00
  L 202.64 268.74"
/>
<path stroke="#d3d8e9" vector-effect="non-scaling-stroke" d="
  M 202.64 268.74
  L 85.03 268.74
  A 0.53 0.53 0.0 0 0 84.50 269.27
  L 84.50 298.24
  A 0.76 0.76 0.0 0 0 85.26 299.00
  Q 143.70 299.00 201.94 299.00
  Q 202.07 298.64 202.76 298.76"
/>
<path stroke="#b2b8cb" vector-effect="non-scaling-stroke" d="
  M 202.76 298.76
  L 202.84 299.00"
/>
<path stroke="#e6ebf6" vector-effect="non-scaling-stroke" d="
  M 202.84 299.00
  L 202.76 334.76"
/>
<path stroke="#b2b8cb" vector-effect="non-scaling-stroke" d="
  M 202.76 334.76
  Q 202.73 334.76 202.70 334.77"
/>
<path stroke="#d3d8e9" vector-effect="non-scaling-stroke" d="
  M 202.70 334.77
  L 85.25 334.75
  A 0.76 0.75 90.0 0 0 84.50 335.51
  L 84.50 364.64
  A 0.35 0.35 0.0 0 0 84.85 364.99
  L 201.78 364.99"
/>
<path stroke="#e6ebf6" vector-effect="non-scaling-stroke" d="
  M 201.78 364.99
  C 203.61 366.16 202.63 396.96 202.53 401.04"
/>
<path stroke="#d3d8e9" vector-effect="non-scaling-stroke" d="
  M 202.53 401.04
  L 85.26 400.75
  A 0.76 0.75 -0.0 0 0 84.50 401.50
  L 84.50 430.48
  Q 84.50 430.99 85.01 430.99
  L 202.59 430.99"
/>
<path stroke="#e6ebf6" vector-effect="non-scaling-stroke" d="
  M 202.59 430.99
  L 202.61 512.00"
/>
<path stroke="#f18d91" vector-effect="non-scaling-stroke" d="
  M 404.00 309.88
  Q 366.42 319.76 347.82 352.14
  C 334.10 376.02 332.67 405.94 344.27 430.96
  Q 361.86 468.89 403.99 480.29"
/>
<path stroke="#d0d0df" vector-effect="non-scaling-stroke" d="
  M 202.59 430.99
  Q 201.79 415.98 202.53 401.04"
/>
<path stroke="#d0d0df" vector-effect="non-scaling-stroke" d="
  M 201.78 364.99
  Q 201.67 364.70 202.54 364.71"
/>
<path stroke="#b0b0c2" vector-effect="non-scaling-stroke" d="
  M 202.54 364.71
  L 320.66 364.98
  Q 321.19 364.98 321.19 364.45
  L 321.28 335.29
  Q 321.28 334.76 320.76 334.76
  L 202.76 334.76"
/>
<path stroke="#b0b0c2" vector-effect="non-scaling-stroke" d="
  M 202.84 299.00
  L 320.49 299.00
  Q 321.00 299.00 321.00 298.49
  L 321.00 269.27
  Q 321.00 268.76 320.49 268.76
  L 203.25 268.76"
/>
<path stroke="#d0d0df" vector-effect="non-scaling-stroke" d="
  M 203.25 268.76
  L 202.64 268.74"
/>
<path stroke="#b0b0c2" vector-effect="non-scaling-stroke" d="
  M 202.68 233.00
  L 320.49 232.99
  Q 320.99 232.99 320.99 232.50
  L 321.02 203.16
  Q 321.02 202.76 320.62 202.76
  L 203.25 202.76"
/>
<path stroke="#d0d0df" vector-effect="non-scaling-stroke" d="
  M 203.25 202.76
  L 202.69 202.74"
/>
<path stroke="#b0b0c2" vector-effect="non-scaling-stroke" d="
  M 202.87 167.00
  L 320.49 167.00
  Q 321.00 167.00 321.00 166.49
  L 321.00 137.27
  Q 321.00 136.76 320.49 136.76
  L 203.25 136.76"
/>
<path stroke="#d0d0df" vector-effect="non-scaling-stroke" d="
  M 203.25 136.76
  L 202.64 136.74"
/>
<path stroke="#b0b0c2" vector-effect="non-scaling-stroke" d="
  M 202.73 100.75
  L 320.49 100.99
  Q 321.00 100.99 321.00 100.48
  L 321.00 71.25
  Q 321.00 70.75 320.50 70.75
  L 203.26 70.75
  Q 203.10 70.75 203.00 70.88
  Q 202.90 71.01 202.74 71.05"
/>
<path stroke="#d0d0df" vector-effect="non-scaling-stroke" d="
  M 202.74 71.05
  Q 202.34 70.68 202.00 70.75"
/>
<path stroke="#9d9db5" vector-effect="non-scaling-stroke" d="
  M 202.74 71.05
  L 202.73 100.75"
/>
<path stroke="#9d9db5" vector-effect="non-scaling-stroke" d="
  M 203.25 136.76
  Q 203.23 136.93 203.04 137.01
  Q 202.81 137.10 202.81 137.35
  L 202.76 166.76"
/>
<path stroke="#9d9db5" vector-effect="non-scaling-stroke" d="
  M 203.25 202.76
  Q 203.23 202.93 203.04 203.01
  Q 202.81 203.10 202.81 203.36
  L 202.76 232.98"
/>
<path stroke="#9d9db5" vector-effect="non-scaling-stroke" d="
  M 203.25 268.76
  Q 203.23 268.93 203.04 269.01
  Q 202.81 269.10 202.81 269.35
  L 202.76 298.76"
/>
<path stroke="#fa1b1b" vector-effect="non-scaling-stroke" d="
  M 423.71 307.67
  L 423.77 337.98"
/>
<path stroke="#f4959b" vector-effect="non-scaling-stroke" d="
  M 423.77 337.98
  Q 408.89 337.94 396.16 345.20
  Q 395.66 345.48 396.07 345.89
  L 422.97 372.80"
/>
<path stroke="#f18d91" vector-effect="non-scaling-stroke" d="
  M 422.97 372.80
  Q 425.21 375.11 423.95 373.91"
/>
<path stroke="#fa1b1b" vector-effect="non-scaling-stroke" d="
  M 423.95 373.91
  L 423.62 416.20"
/>
<path stroke="#f4959b" vector-effect="non-scaling-stroke" d="
  M 423.62 416.20
  L 374.62 367.25
  Q 374.22 366.85 373.94 367.34
  C 363.26 386.20 364.49 410.12 377.01 427.76
  C 387.42 442.43 405.15 452.66 423.70 451.99"
/>
<path stroke="#f18d91" vector-effect="non-scaling-stroke" d="
  M 423.70 451.99
  Q 424.26 452.48 423.80 452.17"
/>
<path stroke="#fa1b1b" vector-effect="non-scaling-stroke" d="
  M 423.80 452.17
  L 423.75 482.50"
/>
<path stroke="#ec7276" vector-effect="non-scaling-stroke" d="
  M 423.80 452.17
  Q 438.86 452.13 451.32 444.98
  Q 451.88 444.66 451.43 444.21
  L 424.53 417.27"
/>
<path stroke="#ee7a80" vector-effect="non-scaling-stroke" d="
  M 424.53 417.27
  Q 423.30 415.84 423.62 416.20"
/>
<path stroke="#ec7276" vector-effect="non-scaling-stroke" d="
  M 423.95 373.91
  L 473.00 422.91
  A 0.46 0.46 0.0 0 0 473.72 422.80
  C 494.98 383.88 466.94 338.94 423.92 337.94"
/>
<path stroke="#ee7a80" vector-effect="non-scaling-stroke" d="
  M 423.92 337.94
  Q 423.85 337.96 423.77 337.98"
/>
<path stroke="#9d9db5" vector-effect="non-scaling-stroke" d="
  M 202.70 334.77
  L 202.54 364.71"
/>
<path stroke="#e6ebf6" vector-effect="non-scaling-stroke" d="
  M 423.92 337.94
  Q 423.51 354.53 423.92 370.88
  C 423.95 371.70 423.48 372.24 422.97 372.80"
/>
<path stroke="#e6ebf6" vector-effect="non-scaling-stroke" d="
  M 424.53 417.27
  L 424.22 417.67
  A 1.36 1.35 -25.1 0 0 423.92 418.49
  Q 423.60 433.62 423.81 448.76
  C 423.82 449.81 424.67 450.92 423.70 451.99"
/>
</g>
<path fill="#e8f3ff" d="
  M 0.76 0.00
  L 202.74 0.00
  Q 202.76 34.75 202.75 69.50
  Q 202.75 70.12 202.00 70.75
  L 85.01 70.75
  Q 84.50 70.75 84.50 71.26
  L 84.50 100.48
  A 0.52 0.52 0.0 0 0 85.02 101.00
  Q 143.44 101.00 201.94 101.00
  Q 202.10 100.64 202.73 100.75
  L 202.64 136.74
  L 85.03 136.74
  A 0.53 0.53 0.0 0 0 84.50 137.27
  L 84.50 166.48
  A 0.52 0.52 0.0 0 0 85.02 167.00
  Q 143.44 167.00 201.94 167.00
  Q 202.07 166.64 202.76 166.76
  Q 202.81 167.00 202.87 167.00
  L 202.69 202.74
  L 85.03 202.74
  A 0.53 0.53 0.0 0 0 84.50 203.27
  L 84.50 232.48
  A 0.52 0.52 0.0 0 0 85.02 233.00
  L 202.76 232.98
  Q 202.72 232.99 202.68 233.00
  L 202.64 268.74
  L 85.03 268.74
  A 0.53 0.53 0.0 0 0 84.50 269.27
  L 84.50 298.24
  A 0.76 0.76 0.0 0 0 85.26 299.00
  Q 143.70 299.00 201.94 299.00
  Q 202.07 298.64 202.76 298.76
  L 202.84 299.00
  L 202.76 334.76
  Q 202.73 334.76 202.70 334.77
  L 85.25 334.75
  A 0.76 0.75 90.0 0 0 84.50 335.51
  L 84.50 364.64
  A 0.35 0.35 0.0 0 0 84.85 364.99
  L 201.78 364.99
  C 203.61 366.16 202.63 396.96 202.53 401.04
  L 85.26 400.75
  A 0.76 0.75 -0.0 0 0 84.50 401.50
  L 84.50 430.48
  Q 84.50 430.99 85.01 430.99
  L 202.59 430.99
  L 202.61 512.00
  L 0.75 512.00
  L 0.76 0.00
  Z"
/>
<path fill="#e3e3ec" d="
  M 202.74 0.00
  L 404.00 0.00
  L 404.00 309.88
  Q 366.42 319.76 347.82 352.14
  C 334.10 376.02 332.67 405.94 344.27 430.96
  Q 361.86 468.89 403.99 480.29
  L 403.97 512.00
  L 202.61 512.00
  L 202.59 430.99
  Q 201.79 415.98 202.53 401.04
  C 202.63 396.96 203.61 366.16 201.78 364.99
  Q 201.67 364.70 202.54 364.71
  L 320.66 364.98
  Q 321.19 364.98 321.19 364.45
  L 321.28 335.29
  Q 321.28 334.76 320.76 334.76
  L 202.76 334.76
  L 202.84 299.00
  L 320.49 299.00
  Q 321.00 299.00 321.00 298.49
  L 321.00 269.27
  Q 321.00 268.76 320.49 268.76
  L 203.25 268.76
  L 202.64 268.74
  L 202.68 233.00
  L 320.49 232.99
  Q 320.99 232.99 320.99 232.50
  L 321.02 203.16
  Q 321.02 202.76 320.62 202.76
  L 203.25 202.76
  L 202.69 202.74
  L 202.87 167.00
  L 320.49 167.00
  Q 321.00 167.00 321.00 166.49
  L 321.00 137.27
  Q 321.00 136.76 320.49 136.76
  L 203.25 136.76
  L 202.64 136.74
  L 202.73 100.75
  L 320.49 100.99
  Q 321.00 100.99 321.00 100.48
  L 321.00 71.25
  Q 321.00 70.75 320.50 70.75
  L 203.26 70.75
  Q 203.10 70.75 203.00 70.88
  Q 202.90 71.01 202.74 71.05
  Q 202.34 70.68 202.00 70.75
  Q 202.75 70.12 202.75 69.50
  Q 202.76 34.75 202.74 0.00
  Z"
/>
<path fill="#bdbdd2" d="
  M 202.00 70.75
  Q 202.34 70.68 202.74 71.05
  L 202.73 100.75
  Q 202.10 100.64 201.94 101.00
  Q 143.44 101.00 85.02 101.00
  A 0.52 0.52 0.0 0 1 84.50 100.48
  L 84.50 71.26
  Q 84.50 70.75 85.01 70.75
  L 202.00 70.75
  Z"
/>
<path fill="#7c7c97" d="
  M 202.73 100.75
  L 202.74 71.05
  Q 202.90 71.01 203.00 70.88
  Q 203.10 70.75 203.26 70.75
  L 320.50 70.75
  Q 321.00 70.75 321.00 71.25
  L 321.00 100.48
  Q 321.00 100.99 320.49 100.99
  L 202.73 100.75
  Z"
/>
<path fill="#bdbdd2" d="
  M 202.64 136.74
  L 203.25 136.76
  Q 203.23 136.93 203.04 137.01
  Q 202.81 137.10 202.81 137.35
  L 202.76 166.76
  Q 202.07 166.64 201.94 167.00
  Q 143.44 167.00 85.02 167.00
  A 0.52 0.52 0.0 0 1 84.50 166.48
  L 84.50 137.27
  A 0.53 0.53 0.0 0 1 85.03 136.74
  L 202.64 136.74
  Z"
/>
<path fill="#7c7c97" d="
  M 203.25 136.76
  L 320.49 136.76
  Q 321.00 136.76 321.00 137.27
  L 321.00 166.49
  Q 321.00 167.00 320.49 167.00
  L 202.87 167.00
  Q 202.81 167.00 202.76 166.76
  L 202.81 137.35
  Q 202.81 137.10 203.04 137.01
  Q 203.23 136.93 203.25 136.76
  Z"
/>
<path fill="#bdbdd2" d="
  M 202.69 202.74
  L 203.25 202.76
  Q 203.23 202.93 203.04 203.01
  Q 202.81 203.10 202.81 203.36
  L 202.76 232.98
  L 85.02 233.00
  A 0.52 0.52 0.0 0 1 84.50 232.48
  L 84.50 203.27
  A 0.53 0.53 0.0 0 1 85.03 202.74
  L 202.69 202.74
  Z"
/>
<path fill="#7c7c97" d="
  M 203.25 202.76
  L 320.62 202.76
  Q 321.02 202.76 321.02 203.16
  L 320.99 232.50
  Q 320.99 232.99 320.49 232.99
  L 202.68 233.00
  Q 202.72 232.99 202.76 232.98
  L 202.81 203.36
  Q 202.81 203.10 203.04 203.01
  Q 203.23 202.93 203.25 202.76
  Z"
/>
<path fill="#bdbdd2" d="
  M 202.64 268.74
  L 203.25 268.76
  Q 203.23 268.93 203.04 269.01
  Q 202.81 269.10 202.81 269.35
  L 202.76 298.76
  Q 202.07 298.64 201.94 299.00
  Q 143.70 299.00 85.26 299.00
  A 0.76 0.76 0.0 0 1 84.50 298.24
  L 84.50 269.27
  A 0.53 0.53 0.0 0 1 85.03 268.74
  L 202.64 268.74
  Z"
/>
<path fill="#7c7c97" d="
  M 203.25 268.76
  L 320.49 268.76
  Q 321.00 268.76 321.00 269.27
  L 321.00 298.49
  Q 321.00 299.00 320.49 299.00
  L 202.84 299.00
  L 202.76 298.76
  L 202.81 269.35
  Q 202.81 269.10 203.04 269.01
  Q 203.23 268.93 203.25 268.76
  Z"
/>
<path fill="#ff3636" d="
  M 423.71 307.67
  L 423.77 337.98
  Q 408.89 337.94 396.16 345.20
  Q 395.66 345.48 396.07 345.89
  L 422.97 372.80
  Q 425.21 375.11 423.95 373.91
  L 423.62 416.20
  L 374.62 367.25
  Q 374.22 366.85 373.94 367.34
  C 363.26 386.20 364.49 410.12 377.01 427.76
  C 387.42 442.43 405.15 452.66 423.70 451.99
  Q 424.26 452.48 423.80 452.17
  L 423.75 482.50
  Q 413.79 482.22 403.99 480.29
  Q 361.86 468.89 344.27 430.96
  C 332.67 405.94 334.10 376.02 347.82 352.14
  Q 366.42 319.76 404.00 309.88
  Q 413.90 307.89 423.71 307.67
  Z"
/>
<path fill="#f40000" d="
  M 423.71 307.67
  Q 457.31 308.36 481.35 329.53
  C 522.17 365.49 520.73 429.51 478.04 463.41
  Q 454.77 481.88 423.75 482.50
  L 423.80 452.17
  Q 438.86 452.13 451.32 444.98
  Q 451.88 444.66 451.43 444.21
  L 424.53 417.27
  Q 423.30 415.84 423.62 416.20
  L 423.95 373.91
  L 473.00 422.91
  A 0.46 0.46 0.0 0 0 473.72 422.80
  C 494.98 383.88 466.94 338.94 423.92 337.94
  Q 423.85 337.96 423.77 337.98
  L 423.71 307.67
  Z"
/>
<path fill="#bdbdd2" d="
  M 202.70 334.77
  L 202.54 364.71
  Q 201.67 364.70 201.78 364.99
  L 84.85 364.99
  A 0.35 0.35 0.0 0 1 84.50 364.64
  L 84.50 335.51
  A 0.76 0.75 -90.0 0 1 85.25 334.75
  L 202.70 334.77
  Z"
/>
<path fill="#7c7c97" d="
  M 202.76 334.76
  L 320.76 334.76
  Q 321.28 334.76 321.28 335.29
  L 321.19 364.45
  Q 321.19 364.98 320.66 364.98
  L 202.54 364.71
  L 202.70 334.77
  Q 202.73 334.76 202.76 334.76
  Z"
/>
<path fill="#e8f3ff" d="
  M 423.77 337.98
  Q 423.85 337.96 423.92 337.94
  Q 423.51 354.53 423.92 370.88
  C 423.95 371.70 423.48 372.24 422.97 372.80
  L 396.07 345.89
  Q 395.66 345.48 396.16 345.20
  Q 408.89 337.94 423.77 337.98
  Z"
/>
<path fill="#e3e3ec" d="
  M 423.92 337.94
  C 466.94 338.94 494.98 383.88 473.72 422.80
  A 0.46 0.46 0.0 0 1 473.00 422.91
  L 423.95 373.91
  Q 425.21 375.11 422.97 372.80
  C 423.48 372.24 423.95 371.70 423.92 370.88
  Q 423.51 354.53 423.92 337.94
  Z"
/>
<path fill="#e8f3ff" d="
  M 423.62 416.20
  Q 423.30 415.84 424.53 417.27
  L 424.22 417.67
  A 1.36 1.35 -25.1 0 0 423.92 418.49
  Q 423.60 433.62 423.81 448.76
  C 423.82 449.81 424.67 450.92 423.70 451.99
  C 405.15 452.66 387.42 442.43 377.01 427.76
  C 364.49 410.12 363.26 386.20 373.94 367.34
  Q 374.22 366.85 374.62 367.25
  L 423.62 416.20
  Z"
/>
<path fill="#bdbdd2" d="
  M 202.53 401.04
  Q 201.79 415.98 202.59 430.99
  L 85.01 430.99
  Q 84.50 430.99 84.50 430.48
  L 84.50 401.50
  A 0.76 0.75 -0.0 0 1 85.26 400.75
  L 202.53 401.04
  Z"
/>
<path fill="#e3e3ec" d="
  M 424.53 417.27
  L 451.43 444.21
  Q 451.88 444.66 451.32 444.98
  Q 438.86 452.13 423.80 452.17
  Q 424.26 452.48 423.70 451.99
  C 424.67 450.92 423.82 449.81 423.81 448.76
  Q 423.60 433.62 423.92 418.49
  A 1.36 1.35 -25.1 0 1 424.22 417.67
  L 424.53 417.27
  Z"
/>
</svg>
