<?xml version="1.0" encoding="UTF-8" standalone="no"?>
<svg
   version="1.1"
   viewBox="0.00 0.00 512.00 512.00"
   id="svg86"
   sodipodi:docname="println.svg"
   inkscape:version="1.2.2 (b0a8486541, 2022-12-01)"
   xmlns:inkscape="http://www.inkscape.org/namespaces/inkscape"
   xmlns:sodipodi="http://sodipodi.sourceforge.net/DTD/sodipodi-0.dtd"
   xmlns="http://www.w3.org/2000/svg"
   xmlns:svg="http://www.w3.org/2000/svg">
  <defs
     id="defs90" />
  <sodipodi:namedview
     id="namedview88"
     pagecolor="#505050"
     bordercolor="#eeeeee"
     borderopacity="1"
     inkscape:showpageshadow="0"
     inkscape:pageopacity="0"
     inkscape:pagecheckerboard="0"
     inkscape:deskcolor="#505050"
     showgrid="false"
     inkscape:zoom="1.196597"
     inkscape:cx="-94.434466"
     inkscape:cy="217.28284"
     inkscape:window-width="2560"
     inkscape:window-height="1440"
     inkscape:window-x="0"
     inkscape:window-y="0"
     inkscape:window-maximized="1"
     inkscape:current-layer="svg86" />
  <g
     stroke-width="2.00"
     fill="none"
     stroke-linecap="butt"
     id="g56">
    <path
       stroke="#e6ebf6"
       vector-effect="non-scaling-stroke"
       d="   M 210.32 0.00   L 210.48 67.80   Q 210.48 68.24 210.04 68.24   L 80.75 68.25   A 0.50 0.50 0.0 0 0 80.25 68.75   L 80.26 182.88   A 0.87 0.87 0.0 0 0 81.13 183.75   L 208.48 183.75   Q 210.69 183.75 210.70 185.97   L 210.78 221.49"
       id="path2" />
    <path
       stroke="#b2b8cb"
       vector-effect="non-scaling-stroke"
       d="   M 210.78 221.49   L 210.82 251.25"
       id="path4" />
    <path
       stroke="#e6ebf6"
       vector-effect="non-scaling-stroke"
       d="   M 210.82 251.25   L 210.54 284.50"
       id="path6" />
    <path
       stroke="#b2b8cb"
       vector-effect="non-scaling-stroke"
       d="   M 210.54 284.50   L 210.62 314.23"
       id="path8" />
    <path
       stroke="#e6ebf6"
       vector-effect="non-scaling-stroke"
       d="   M 210.62 314.23   Q 210.83 328.31 210.45 342.91   C 210.41 344.10 211.27 346.34 209.76 347.24"
       id="path10" />
    <path
       stroke="#cacfe2"
       vector-effect="non-scaling-stroke"
       d="   M 209.76 347.24   L 80.79 347.24   A 0.54 0.54 0.0 0 0 80.25 347.78   L 80.25 376.48   Q 80.25 376.99 80.76 376.99   L 210.04 376.99"
       id="path12" />
    <path
       stroke="#e6ebf6"
       vector-effect="non-scaling-stroke"
       d="   M 210.04 376.99   Q 210.50 378.80 210.54 383.50   Q 210.71 402.13 210.27 410.25"
       id="path14" />
    <path
       stroke="#cacfe2"
       vector-effect="non-scaling-stroke"
       d="   M 210.27 410.25   L 80.78 410.24   A 0.54 0.53 -90.0 0 0 80.25 410.78   L 80.25 439.50   A 0.50 0.50 0.0 0 0 80.75 440.00   L 209.62 440.00   Q 209.88 440.00 210.07 439.83   Q 210.24 439.68 210.51 439.71"
       id="path16" />
    <path
       stroke="#b2b8cb"
       vector-effect="non-scaling-stroke"
       d="   M 210.51 439.71   Q 210.72 439.77 210.79 440.00"
       id="path18" />
    <path
       stroke="#e6ebf6"
       vector-effect="non-scaling-stroke"
       d="   M 210.79 440.00   Q 210.81 440.60 210.55 441.22   Q 210.36 441.66 210.37 442.15   Q 211.35 477.12 210.08 512.00"
       id="path20" />
    <path
       stroke="#e6ebf6"
       vector-effect="non-scaling-stroke"
       d="   M 174.00 222.32   A 0.82 0.82 0.0 0 0 173.18 221.50   L 81.08 221.50   A 0.82 0.82 0.0 0 0 80.26 222.32   L 80.26 314.44   A 0.82 0.82 0.0 0 0 81.08 315.26   L 173.18 315.26   A 0.82 0.82 0.0 0 0 174.00 314.44   L 174.00 222.32"
       id="path22" />
    <path
       stroke="#d0d0df"
       vector-effect="non-scaling-stroke"
       d="   M 408.30 172.02   C 408.10 182.06 408.49 193.85 408.49 202.07   Q 408.50 330.36 408.51 458.65   Q 408.51 469.11 409.89 474.61   C 414.27 492.08 427.82 505.25 445.05 510.49   C 446.14 510.83 448.75 510.43 448.70 512.00"
       id="path24" />
    <path
       stroke="#b0b0c2"
       vector-effect="non-scaling-stroke"
       d="   M 210.79 440.00   L 340.57 440.00   A 0.30 0.30 0.0 0 0 340.87 439.70   L 340.70 410.73   Q 340.70 410.26 340.23 410.26   L 210.99 410.26"
       id="path26" />
    <path
       stroke="#c7c7d9"
       vector-effect="non-scaling-stroke"
       d="   M 210.99 410.26   L 210.27 410.25"
       id="path28" />
    <path
       stroke="#c7c7d9"
       vector-effect="non-scaling-stroke"
       d="   M 210.04 376.99   Q 209.94 376.74 210.46 376.71"
       id="path30" />
    <path
       stroke="#b0b0c2"
       vector-effect="non-scaling-stroke"
       d="   M 210.46 376.71   Q 210.65 376.73 210.75 376.87   Q 210.85 377.00 211.01 377.00   L 340.15 377.00   A 0.71 0.71 0.0 0 0 340.86 376.29   L 340.71 347.74   A 0.50 0.49 89.4 0 0 340.22 347.25   L 211.25 347.47"
       id="path32" />
    <path
       stroke="#c7c7d9"
       vector-effect="non-scaling-stroke"
       d="   M 211.25 347.47   Q 210.82 347.10 209.76 347.24"
       id="path34" />
    <path
       stroke="#b0b0c2"
       vector-effect="non-scaling-stroke"
       d="   M 210.62 314.23   L 340.27 314.24   A 0.57 0.57 0.0 0 0 340.84 313.67   L 340.71 284.99   Q 340.71 284.50 340.22 284.50   L 210.54 284.50"
       id="path36" />
    <path
       stroke="#b0b0c2"
       vector-effect="non-scaling-stroke"
       d="   M 210.82 251.25   L 340.45 251.25   A 0.53 0.52 90.0 0 0 340.97 250.72   L 340.74 221.98   Q 340.73 221.50 340.26 221.50   L 210.78 221.49"
       id="path38" />
    <path
       stroke="#72c7e6"
       vector-effect="non-scaling-stroke"
       d="   M 210.75 97.96   Q 210.13 98.06 210.46 98.01"
       id="path40" />
    <path
       stroke="#87def1"
       vector-effect="non-scaling-stroke"
       d="   M 210.46 98.01   L 110.50 98.01   Q 110.00 98.01 110.00 98.51   L 110.00 153.48   Q 110.00 154.00 110.52 154.00   L 210.71 154.00"
       id="path42" />
    <path
       stroke="#d0d0df"
       vector-effect="non-scaling-stroke"
       d="   M 210.71 154.00   L 210.52 182.96   A 0.59 0.59 0.0 0 0 211.11 183.56   L 339.58 183.59   A 0.42 0.42 0.0 0 0 340.00 183.17   L 340.00 68.56   A 0.31 0.31 0.0 0 0 339.69 68.25   L 211.21 68.25   Q 210.58 68.25 210.58 68.88   L 210.75 97.96"
       id="path44" />
    <path
       stroke="#5fb4d9"
       vector-effect="non-scaling-stroke"
       d="   M 210.71 154.00   L 309.35 154.00   A 0.90 0.90 0.0 0 0 310.25 153.10   L 310.25 98.51   Q 310.25 98.00 309.74 98.00   L 210.75 97.96"
       id="path46" />
    <path
       stroke="#15c1eb"
       vector-effect="non-scaling-stroke"
       d="   M 210.46 98.01   L 210.50 152.49   Q 210.50 152.53 210.72 153.45   Q 210.78 153.72 210.71 154.00"
       id="path48" />
    <path
       stroke="#d0d0df"
       vector-effect="non-scaling-stroke"
       d="   M 144.25 251.69   A 0.43 0.43 0.0 0 0 143.82 251.26   L 110.44 251.26   A 0.43 0.43 0.0 0 0 110.01 251.69   L 110.01 285.07   A 0.43 0.43 0.0 0 0 110.44 285.50   L 143.82 285.50   A 0.43 0.43 0.0 0 0 144.25 285.07   L 144.25 251.69"
       id="path50" />
    <path
       stroke="#9494ae"
       vector-effect="non-scaling-stroke"
       d="   M 211.25 347.47   Q 210.80 347.42 210.80 347.75   Q 210.58 362.23 210.46 376.71"
       id="path52" />
    <path
       stroke="#9494ae"
       vector-effect="non-scaling-stroke"
       d="   M 210.99 410.26   C 210.32 413.29 210.75 416.51 210.74 418.88   Q 210.67 429.30 210.51 439.71"
       id="path54" />
  </g>
  <path
     fill="#e8f3ff"
     d="   M 4.76 0.00   L 210.32 0.00   L 210.48 67.80   Q 210.48 68.24 210.04 68.24   L 80.75 68.25   A 0.50 0.50 0.0 0 0 80.25 68.75   L 80.26 182.88   A 0.87 0.87 0.0 0 0 81.13 183.75   L 208.48 183.75   Q 210.69 183.75 210.70 185.97   L 210.78 221.49   L 210.82 251.25   L 210.54 284.50   L 210.62 314.23   Q 210.83 328.31 210.45 342.91   C 210.41 344.10 211.27 346.34 209.76 347.24   L 80.79 347.24   A 0.54 0.54 0.0 0 0 80.25 347.78   L 80.25 376.48   Q 80.25 376.99 80.76 376.99   L 210.04 376.99   Q 210.50 378.80 210.54 383.50   Q 210.71 402.13 210.27 410.25   L 80.78 410.24   A 0.54 0.53 -90.0 0 0 80.25 410.78   L 80.25 439.50   A 0.50 0.50 0.0 0 0 80.75 440.00   L 209.62 440.00   Q 209.88 440.00 210.07 439.83   Q 210.24 439.68 210.51 439.71   Q 210.72 439.77 210.79 440.00   Q 210.81 440.60 210.55 441.22   Q 210.36 441.66 210.37 442.15   Q 211.35 477.12 210.08 512.00   L 66.20 512.00   C 36.78 510.11 12.15 490.01 6.12 461.10   Q 4.78 454.68 4.78 441.19   Q 4.72 220.60 4.76 0.00   Z   M 174.00 222.32   A 0.82 0.82 0.0 0 0 173.18 221.50   L 81.08 221.50   A 0.82 0.82 0.0 0 0 80.26 222.32   L 80.26 314.44   A 0.82 0.82 0.0 0 0 81.08 315.26   L 173.18 315.26   A 0.82 0.82 0.0 0 0 174.00 314.44   L 174.00 222.32   Z"
     id="path58" />
  <path
     fill="#e3e3ec"
     d="   M 210.32 0.00   L 408.27 0.00   L 408.30 172.02   C 408.10 182.06 408.49 193.85 408.49 202.07   Q 408.50 330.36 408.51 458.65   Q 408.51 469.11 409.89 474.61   C 414.27 492.08 427.82 505.25 445.05 510.49   C 446.14 510.83 448.75 510.43 448.70 512.00   L 210.08 512.00   Q 211.35 477.12 210.37 442.15   Q 210.36 441.66 210.55 441.22   Q 210.81 440.60 210.79 440.00   L 340.57 440.00   A 0.30 0.30 0.0 0 0 340.87 439.70   L 340.70 410.73   Q 340.70 410.26 340.23 410.26   L 210.99 410.26   L 210.27 410.25   Q 210.71 402.13 210.54 383.50   Q 210.50 378.80 210.04 376.99   Q 209.94 376.74 210.46 376.71   Q 210.65 376.73 210.75 376.87   Q 210.85 377.00 211.01 377.00   L 340.15 377.00   A 0.71 0.71 0.0 0 0 340.86 376.29   L 340.71 347.74   A 0.50 0.49 89.4 0 0 340.22 347.25   L 211.25 347.47   Q 210.82 347.10 209.76 347.24   C 211.27 346.34 210.41 344.10 210.45 342.91   Q 210.83 328.31 210.62 314.23   L 340.27 314.24   A 0.57 0.57 0.0 0 0 340.84 313.67   L 340.71 284.99   Q 340.71 284.50 340.22 284.50   L 210.54 284.50   L 210.82 251.25   L 340.45 251.25   A 0.53 0.52 90.0 0 0 340.97 250.72   L 340.74 221.98   Q 340.73 221.50 340.26 221.50   L 210.78 221.49   L 210.70 185.97   Q 210.69 183.75 208.48 183.75   L 81.13 183.75   A 0.87 0.87 0.0 0 1 80.26 182.88   L 80.25 68.75   A 0.50 0.50 0.0 0 1 80.75 68.25   L 210.04 68.24   Q 210.48 68.24 210.48 67.80   L 210.32 0.00   Z   M 210.75 97.96   Q 210.13 98.06 210.46 98.01   L 110.50 98.01   Q 110.00 98.01 110.00 98.51   L 110.00 153.48   Q 110.00 154.00 110.52 154.00   L 210.71 154.00   L 210.52 182.96   A 0.59 0.59 0.0 0 0 211.11 183.56   L 339.58 183.59   A 0.42 0.42 0.0 0 0 340.00 183.17   L 340.00 68.56   A 0.31 0.31 0.0 0 0 339.69 68.25   L 211.21 68.25   Q 210.58 68.25 210.58 68.88   L 210.75 97.96   Z"
     id="path60" />
  <path
     fill="#bdbdd2"
     d="   M 210.71 154.00   L 309.35 154.00   A 0.90 0.90 0.0 0 0 310.25 153.10   L 310.25 98.51   Q 310.25 98.00 309.74 98.00   L 210.75 97.96   L 210.58 68.88   Q 210.58 68.25 211.21 68.25   L 339.69 68.25   A 0.31 0.31 0.0 0 1 340.00 68.56   L 340.00 183.17   A 0.42 0.42 0.0 0 1 339.58 183.59   L 211.11 183.56   A 0.59 0.59 0.0 0 1 210.52 182.96   L 210.71 154.00   Z"
     id="path62" />
  <path
     fill="#2ad8f6"
     d="   M 210.46 98.01   L 210.50 152.49   Q 210.50 152.53 210.72 153.45   Q 210.78 153.72 210.71 154.00   L 110.52 154.00   Q 110.00 154.00 110.00 153.48   L 110.00 98.51   Q 110.00 98.01 110.50 98.01   L 210.46 98.01   Z"
     id="path64" />
  <path
     fill="#00aadf"
     d="   M 210.46 98.01   Q 210.13 98.06 210.75 97.96   L 309.74 98.00   Q 310.25 98.00 310.25 98.51   L 310.25 153.10   A 0.90 0.90 0.0 0 1 309.35 154.00   L 210.71 154.00   Q 210.78 153.72 210.72 153.45   Q 210.50 152.53 210.50 152.49   L 210.46 98.01   Z"
     id="path66" />
  <path
     fill="#bdbdd2"
     d="   M 408.30 172.02   L 506.72 172.02   Q 507.24 172.02 507.24 172.54   Q 507.28 313.51 507.24 454.44   Q 507.23 468.21 505.77 474.30   C 500.62 495.77 481.66 510.91 459.42 512.00   L 454.74 512.00   Q 452.03 511.41 449.42 512.00   L 448.70 512.00   C 448.75 510.43 446.14 510.83 445.05 510.49   C 427.82 505.25 414.27 492.08 409.89 474.61   Q 408.51 469.11 408.51 458.65   Q 408.50 330.36 408.49 202.07   C 408.49 193.85 408.10 182.06 408.30 172.02   Z"
     id="path68" />
  <path
     fill="#7c7c97"
     d="   M 210.78 221.49   L 340.26 221.50   Q 340.73 221.50 340.74 221.98   L 340.97 250.72   A 0.53 0.52 -90.0 0 1 340.45 251.25   L 210.82 251.25   L 210.78 221.49   Z"
     id="path70" />
  <path
     fill="#e3e3ec"
     d="   M 174.00 314.44   A 0.82 0.82 0.0 0 1 173.18 315.26   L 81.08 315.26   A 0.82 0.82 0.0 0 1 80.26 314.44   L 80.26 222.32   A 0.82 0.82 0.0 0 1 81.08 221.50   L 173.18 221.50   A 0.82 0.82 0.0 0 1 174.00 222.32   L 174.00 314.44   Z   M 144.25 251.69   A 0.43 0.43 0.0 0 0 143.82 251.26   L 110.44 251.26   A 0.43 0.43 0.0 0 0 110.01 251.69   L 110.01 285.07   A 0.43 0.43 0.0 0 0 110.44 285.50   L 143.82 285.50   A 0.43 0.43 0.0 0 0 144.25 285.07   L 144.25 251.69   Z"
     id="path72" />
  <rect
     fill="#bdbdd2"
     x="110.01"
     y="251.26"
     width="34.24"
     height="34.24"
     rx="0.43"
     id="rect74" />
  <path
     fill="#7c7c97"
     d="   M 210.54 284.50   L 340.22 284.50   Q 340.71 284.50 340.71 284.99   L 340.84 313.67   A 0.57 0.57 0.0 0 1 340.27 314.24   L 210.62 314.23   L 210.54 284.50   Z"
     id="path76" />
  <path
     fill="#ababc5"
     d="   M 209.76 347.24   Q 210.82 347.10 211.25 347.47   Q 210.80 347.42 210.80 347.75   Q 210.58 362.23 210.46 376.71   Q 209.94 376.74 210.04 376.99   L 80.76 376.99   Q 80.25 376.99 80.25 376.48   L 80.25 347.78   A 0.54 0.54 0.0 0 1 80.79 347.24   L 209.76 347.24   Z"
     id="path78" />
  <path
     fill="#7c7c97"
     d="   M 210.46 376.71   Q 210.58 362.23 210.80 347.75   Q 210.80 347.42 211.25 347.47   L 340.22 347.25   A 0.50 0.49 89.4 0 1 340.71 347.74   L 340.86 376.29   A 0.71 0.71 0.0 0 1 340.15 377.00   L 211.01 377.00   Q 210.85 377.00 210.75 376.87   Q 210.65 376.73 210.46 376.71   Z"
     id="path80" />
  <path
     fill="#ababc5"
     d="   M 210.27 410.25   L 210.99 410.26   C 210.32 413.29 210.75 416.51 210.74 418.88   Q 210.67 429.30 210.51 439.71   Q 210.24 439.68 210.07 439.83   Q 209.88 440.00 209.62 440.00   L 80.75 440.00   A 0.50 0.50 0.0 0 1 80.25 439.50   L 80.25 410.78   A 0.54 0.53 -90.0 0 1 80.78 410.24   L 210.27 410.25   Z"
     id="path82" />
  <path
     fill="#7c7c97"
     d="   M 210.99 410.26   L 340.23 410.26   Q 340.70 410.26 340.70 410.73   L 340.87 439.70   A 0.30 0.30 0.0 0 1 340.57 440.00   L 210.79 440.00   Q 210.72 439.77 210.51 439.71   Q 210.67 429.30 210.74 418.88   C 210.75 416.51 210.32 413.29 210.99 410.26   Z"
     id="path84" />
  <path
     style="color:#000000;fill:#4400aa;stroke-linecap:round;-inkscape-stroke:none"
     d="m 463.84331,331.07127 c -6.2399,6.5e-4 -11.29817,5.05893 -11.29882,11.29883 v 115.78321 l -63.82268,0 17.10156,-42.79102 -107.87891,65.39063 177.19964,0 V 342.3701 c -6.5e-4,-6.24067 -5.06012,-11.29927 -11.30079,-11.29883 z"
     id="path373"
     sodipodi:nodetypes="ccccccccc" />
</svg>
