<?xml version="1.0" encoding="UTF-8" standalone="no"?>
<!DOCTYPE svg PUBLIC "-//W3C//DTD SVG 1.1//EN" "http://www.w3.org/Graphics/SVG/1.1/DTD/svg11.dtd">
<svg xmlns="http://www.w3.org/2000/svg" version="1.1" viewBox="0.00 0.00 512.00 512.00">
<g stroke-width="2.00" fill="none" stroke-linecap="butt">
<path stroke="#60a6cf" vector-effect="non-scaling-stroke" d="
  M 512.00 467.81
  Q 287.41 467.69 62.81 467.76
  Q 31.40 467.77 0.00 468.13"
/>
<path stroke="#7cadcd" vector-effect="non-scaling-stroke" d="
  M 476.74 53.43
  A 18.17 18.17 0.0 0 0 458.57 35.26
  L 53.43 35.26
  A 18.17 18.17 0.0 0 0 35.26 53.43
  L 35.26 282.05
  A 18.17 18.17 0.0 0 0 53.43 300.22
  L 458.57 300.22
  A 18.17 18.17 0.0 0 0 476.74 282.05
  L 476.74 53.43"
/>
<path stroke="#94c4e2" vector-effect="non-scaling-stroke" d="
  M 300.06 344.27
  A 17.57 17.57 0.0 0 0 282.49 326.70
  A 17.57 17.57 0.0 0 0 264.92 344.27
  A 17.57 17.57 0.0 0 0 282.49 361.84
  A 17.57 17.57 0.0 0 0 300.06 344.27"
/>
<path stroke="#7cadcd" vector-effect="non-scaling-stroke" d="
  M 123.47 379.58
  A 44.03 44.03 0.0 0 0 79.44 335.55
  A 44.03 44.03 0.0 0 0 35.41 379.58
  A 44.03 44.03 0.0 0 0 79.44 423.61
  A 44.03 44.03 0.0 0 0 123.47 379.58"
/>
<path stroke="#7cadcd" vector-effect="non-scaling-stroke" d="
  M 229.39 379.57
  A 44.02 44.02 0.0 0 0 185.37 335.55
  A 44.02 44.02 0.0 0 0 141.35 379.57
  A 44.02 44.02 0.0 0 0 185.37 423.59
  A 44.02 44.02 0.0 0 0 229.39 379.57"
/>
<path stroke="#3277aa" vector-effect="non-scaling-stroke" d="
  M 370.4292 343.8296
  A 8.30 8.30 0.0 0 0 362.1147 335.5441
  L 343.9347 335.5759
  A 8.30 8.30 0.0 0 0 335.6492 343.8904
  L 335.6508 344.7904
  A 8.30 8.30 0.0 0 0 343.9653 353.0759
  L 362.1453 353.0441
  A 8.30 8.30 0.0 0 0 370.4308 344.7296
  L 370.4292 343.8296"
/>
<path stroke="#3277aa" vector-effect="non-scaling-stroke" d="
  M 423.42 343.88
  A 8.33 8.33 0.0 0 0 415.09 335.55
  L 396.95 335.55
  A 8.33 8.33 0.0 0 0 388.62 343.88
  L 388.62 344.76
  A 8.33 8.33 0.0 0 0 396.95 353.09
  L 415.09 353.09
  A 8.33 8.33 0.0 0 0 423.42 344.76
  L 423.42 343.88"
/>
<path stroke="#3277aa" vector-effect="non-scaling-stroke" d="
  M 476.4208 343.9004
  A 8.33 8.33 0.0 0 0 468.1053 335.5558
  L 449.9653 335.5242
  A 8.33 8.33 0.0 0 0 441.6208 343.8396
  L 441.6192 344.7396
  A 8.33 8.33 0.0 0 0 449.9347 353.0842
  L 468.0747 353.1158
  A 8.33 8.33 0.0 0 0 476.4192 344.8004
  L 476.4208 343.9004"
/>
<path stroke="#3277aa" vector-effect="non-scaling-stroke" d="
  M 370.4292 379.0897
  A 8.29 8.29 0.0 0 0 362.1247 370.8141
  L 343.9448 370.8459
  A 8.29 8.29 0.0 0 0 335.6692 379.1503
  L 335.6708 380.0503
  A 8.29 8.29 0.0 0 0 343.9753 388.3259
  L 362.1552 388.2941
  A 8.29 8.29 0.0 0 0 370.4308 379.9897
  L 370.4292 379.0897"
/>
<path stroke="#3277aa" vector-effect="non-scaling-stroke" d="
  M 423.44 379.15
  A 8.32 8.32 0.0 0 0 415.12 370.83
  L 396.96 370.83
  A 8.32 8.32 0.0 0 0 388.64 379.15
  L 388.64 380.03
  A 8.32 8.32 0.0 0 0 396.96 388.35
  L 415.12 388.35
  A 8.32 8.32 0.0 0 0 423.44 380.03
  L 423.44 379.15"
/>
<path stroke="#3277aa" vector-effect="non-scaling-stroke" d="
  M 476.44 379.11
  A 8.27 8.27 0.0 0 0 468.17 370.84
  L 449.87 370.84
  A 8.27 8.27 0.0 0 0 441.60 379.11
  L 441.60 379.95
  A 8.27 8.27 0.0 0 0 449.87 388.22
  L 468.17 388.22
  A 8.27 8.27 0.0 0 0 476.44 379.95
  L 476.44 379.11"
/>
<path stroke="#94c4e2" vector-effect="non-scaling-stroke" d="
  M 300.05 414.89
  A 17.57 17.57 0.0 0 0 282.48 397.32
  A 17.57 17.57 0.0 0 0 264.91 414.89
  A 17.57 17.57 0.0 0 0 282.48 432.46
  A 17.57 17.57 0.0 0 0 300.05 414.89"
/>
<path stroke="#3277aa" vector-effect="non-scaling-stroke" d="
  M 370.45 414.44
  A 8.34 8.34 0.0 0 0 362.11 406.10
  L 343.99 406.10
  A 8.34 8.34 0.0 0 0 335.65 414.44
  L 335.65 415.32
  A 8.34 8.34 0.0 0 0 343.99 423.66
  L 362.11 423.66
  A 8.34 8.34 0.0 0 0 370.45 415.32
  L 370.45 414.44"
/>
<path stroke="#3277aa" vector-effect="non-scaling-stroke" d="
  M 423.42 414.44
  A 8.34 8.34 0.0 0 0 415.08 406.10
  L 396.98 406.10
  A 8.34 8.34 0.0 0 0 388.64 414.44
  L 388.64 415.32
  A 8.34 8.34 0.0 0 0 396.98 423.66
  L 415.08 423.66
  A 8.34 8.34 0.0 0 0 423.42 415.32
  L 423.42 414.44"
/>
<path stroke="#3277aa" vector-effect="non-scaling-stroke" d="
  M 476.40 414.44
  A 8.34 8.34 0.0 0 0 468.06 406.10
  L 449.96 406.10
  A 8.34 8.34 0.0 0 0 441.62 414.44
  L 441.62 415.32
  A 8.34 8.34 0.0 0 0 449.96 423.66
  L 468.06 423.66
  A 8.34 8.34 0.0 0 0 476.40 415.32
  L 476.40 414.44"
/>
<path stroke="#899ca4" vector-effect="non-scaling-stroke" d="
  M 356.25 53.04
  L 53.54 53.02
  Q 53.03 53.02 53.03 53.53
  L 53.05 194.29"
/>
<path stroke="#91d0c0" vector-effect="non-scaling-stroke" d="
  M 53.05 194.29
  L 53.04 211.75"
/>
<path stroke="#899ca4" vector-effect="non-scaling-stroke" d="
  M 53.04 211.75
  L 53.08 231.53"
/>
<path stroke="#7e909a" vector-effect="non-scaling-stroke" d="
  M 53.08 231.53
  L 53.02 282.02
  A 0.48 0.48 0.0 0 0 53.50 282.50
  L 458.49 282.50
  Q 458.97 282.50 458.97 282.02
  L 458.96 211.75"
/>
<path stroke="#91d0c0" vector-effect="non-scaling-stroke" d="
  M 458.96 211.75
  L 458.96 194.00"
/>
<path stroke="#7e909a" vector-effect="non-scaling-stroke" d="
  M 458.96 194.00
  L 458.99 53.39
  A 0.38 0.38 0.0 0 0 458.61 53.01
  L 356.25 53.04"
/>
<path stroke="#529d93" vector-effect="non-scaling-stroke" d="
  M 458.96 194.00
  L 433.08 194.15
  Q 432.53 194.15 432.53 193.61
  Q 432.44 169.58 432.51 145.57
  C 432.55 132.02 427.34 123.72 412.71 123.73
  Q 397.12 123.75 381.51 123.76
  C 368.10 123.78 361.99 131.29 362.01 144.23
  Q 362.04 168.93 361.98 193.73
  Q 361.98 194.25 361.46 194.25
  L 336.01 194.25
  Q 335.50 194.25 335.50 193.74
  Q 335.50 170.66 335.49 147.59
  Q 335.49 138.39 334.07 134.71
  C 331.03 126.81 324.28 123.72 315.94 123.74
  Q 299.98 123.78 283.99 123.72
  C 271.55 123.68 264.80 131.26 264.78 144.02
  Q 264.74 168.86 264.75 193.74
  Q 264.75 194.25 264.24 194.25
  L 238.75 194.25
  A 0.51 0.50 90.0 0 1 238.25 193.74
  Q 238.26 168.79 238.24 143.81
  C 238.23 131.17 231.89 123.70 218.87 123.72
  Q 203.00 123.74 187.12 123.75
  C 172.80 123.76 167.70 132.38 167.74 145.50
  Q 167.81 169.57 167.72 193.74
  Q 167.72 194.25 167.21 194.25
  L 141.59 194.25
  A 0.36 0.35 -90.0 0 1 141.24 193.89
  Q 141.29 167.07 141.21 140.31
  Q 141.20 134.37 136.08 128.80"
/>
<path stroke="#4a6976" vector-effect="non-scaling-stroke" d="
  M 136.08 128.80
  C 198.67 86.69 277.15 65.54 350.88 54.45
  C 352.69 54.18 354.28 53.30 356.25 53.04"
/>
<path stroke="#529d93" vector-effect="non-scaling-stroke" d="
  M 458.96 211.75
  Q 447.36 211.74 435.76 211.76
  C 421.75 211.78 414.94 205.13 414.99 191.05
  Q 415.07 166.47 414.97 141.75
  Q 414.97 141.25 414.46 141.25
  L 379.84 141.25
  A 0.34 0.33 -90.0 0 0 379.51 141.59
  Q 379.49 165.80 379.51 189.93
  C 379.52 204.31 373.84 211.79 358.81 211.76
  Q 348.48 211.73 338.14 211.76
  C 329.58 211.78 322.57 209.15 319.32 201.08
  Q 317.74 197.16 317.75 185.70
  Q 317.77 163.74 317.74 141.75
  Q 317.74 141.25 317.24 141.25
  L 283.01 141.25
  Q 282.51 141.25 282.50 141.76
  Q 282.49 165.01 282.49 188.27
  Q 282.49 197.17 281.00 200.92
  C 277.69 209.25 270.71 211.76 261.90 211.76
  Q 251.26 211.75 240.63 211.74
  C 226.41 211.73 220.72 203.86 220.75 190.39
  Q 220.80 166.14 220.72 141.76
  Q 220.72 141.25 220.21 141.25
  L 186.03 141.25
  Q 185.56 141.25 185.56 141.72
  Q 185.33 166.65 185.22 191.58
  C 185.16 205.70 178.18 211.78 164.36 211.75
  Q 154.06 211.73 143.75 211.77
  C 131.71 211.82 123.52 205.39 123.51 192.48
  Q 123.50 167.17 123.50 141.78
  Q 123.50 141.27 122.98 141.27
  L 118.75 141.29"
/>
<path stroke="#5da99d" vector-effect="non-scaling-stroke" d="
  M 118.75 141.29
  L 88.75 141.26
  A 0.49 0.49 0.0 0 0 88.26 141.75
  L 88.29 170.50"
/>
<path stroke="#529d93" vector-effect="non-scaling-stroke" d="
  M 88.29 170.50
  Q 88.22 180.07 88.25 189.63
  C 88.27 199.75 86.13 207.37 76.20 210.83
  C 71.83 212.35 66.06 211.57 61.00 212.04"
/>
<path stroke="#5da99d" vector-effect="non-scaling-stroke" d="
  M 61.00 212.04
  L 53.04 211.75"
/>
<path stroke="#5da99d" vector-effect="non-scaling-stroke" d="
  M 136.08 128.80
  C 130.91 123.71 124.39 123.26 117.30 123.47
  C 108.13 123.74 99.02 123.77 89.85 123.77
  C 77.75 123.77 70.80 130.77 70.78 142.85
  Q 70.75 168.35 70.45 193.99
  Q 70.45 194.26 70.18 194.26
  L 53.05 194.29"
/>
<path stroke="#4a6976" vector-effect="non-scaling-stroke" d="
  M 53.08 231.53
  L 61.00 212.04"
/>
<path stroke="#4a6976" vector-effect="non-scaling-stroke" d="
  M 118.75 141.29
  Q 102.45 154.78 88.29 170.50"
/>
<path stroke="#d5dadc" vector-effect="non-scaling-stroke" d="
  M 105.81 379.58
  A 26.36 26.36 0.0 0 0 79.45 353.22
  A 26.36 26.36 0.0 0 0 53.09 379.58
  A 26.36 26.36 0.0 0 0 79.45 405.94
  A 26.36 26.36 0.0 0 0 105.81 379.58"
/>
<path stroke="#d5dadc" vector-effect="non-scaling-stroke" d="
  M 211.74 379.57
  A 26.35 26.35 0.0 0 0 185.39 353.22
  A 26.35 26.35 0.0 0 0 159.04 379.57
  A 26.35 26.35 0.0 0 0 185.39 405.92
  A 26.35 26.35 0.0 0 0 211.74 379.57"
/>
</g>
<path fill="#3b97d3" d="
  M 42.31 0.00
  L 469.81 0.00
  C 493.62 2.22 510.38 18.66 512.00 42.81
  L 512.00 467.81
  Q 287.41 467.69 62.81 467.76
  Q 31.40 467.77 0.00 468.13
  L 0.00 42.19
  C 1.61 18.81 18.91 1.77 42.31 0.00
  Z
  M 476.74 53.43
  A 18.17 18.17 0.0 0 0 458.57 35.26
  L 53.43 35.26
  A 18.17 18.17 0.0 0 0 35.26 53.43
  L 35.26 282.05
  A 18.17 18.17 0.0 0 0 53.43 300.22
  L 458.57 300.22
  A 18.17 18.17 0.0 0 0 476.74 282.05
  L 476.74 53.43
  Z
  M 300.06 344.27
  A 17.57 17.57 0.0 0 0 282.49 326.70
  A 17.57 17.57 0.0 0 0 264.92 344.27
  A 17.57 17.57 0.0 0 0 282.49 361.84
  A 17.57 17.57 0.0 0 0 300.06 344.27
  Z
  M 123.47 379.58
  A 44.03 44.03 0.0 0 0 79.44 335.55
  A 44.03 44.03 0.0 0 0 35.41 379.58
  A 44.03 44.03 0.0 0 0 79.44 423.61
  A 44.03 44.03 0.0 0 0 123.47 379.58
  Z
  M 229.39 379.57
  A 44.02 44.02 0.0 0 0 185.37 335.55
  A 44.02 44.02 0.0 0 0 141.35 379.57
  A 44.02 44.02 0.0 0 0 185.37 423.59
  A 44.02 44.02 0.0 0 0 229.39 379.57
  Z
  M 370.4292 343.8296
  A 8.30 8.30 0.0 0 0 362.1147 335.5441
  L 343.9347 335.5759
  A 8.30 8.30 0.0 0 0 335.6492 343.8904
  L 335.6508 344.7904
  A 8.30 8.30 0.0 0 0 343.9653 353.0759
  L 362.1453 353.0441
  A 8.30 8.30 0.0 0 0 370.4308 344.7296
  L 370.4292 343.8296
  Z
  M 423.42 343.88
  A 8.33 8.33 0.0 0 0 415.09 335.55
  L 396.95 335.55
  A 8.33 8.33 0.0 0 0 388.62 343.88
  L 388.62 344.76
  A 8.33 8.33 0.0 0 0 396.95 353.09
  L 415.09 353.09
  A 8.33 8.33 0.0 0 0 423.42 344.76
  L 423.42 343.88
  Z
  M 476.4208 343.9004
  A 8.33 8.33 0.0 0 0 468.1053 335.5558
  L 449.9653 335.5242
  A 8.33 8.33 0.0 0 0 441.6208 343.8396
  L 441.6192 344.7396
  A 8.33 8.33 0.0 0 0 449.9347 353.0842
  L 468.0747 353.1158
  A 8.33 8.33 0.0 0 0 476.4192 344.8004
  L 476.4208 343.9004
  Z
  M 370.4292 379.0897
  A 8.29 8.29 0.0 0 0 362.1247 370.8141
  L 343.9448 370.8459
  A 8.29 8.29 0.0 0 0 335.6692 379.1503
  L 335.6708 380.0503
  A 8.29 8.29 0.0 0 0 343.9753 388.3259
  L 362.1552 388.2941
  A 8.29 8.29 0.0 0 0 370.4308 379.9897
  L 370.4292 379.0897
  Z
  M 423.44 379.15
  A 8.32 8.32 0.0 0 0 415.12 370.83
  L 396.96 370.83
  A 8.32 8.32 0.0 0 0 388.64 379.15
  L 388.64 380.03
  A 8.32 8.32 0.0 0 0 396.96 388.35
  L 415.12 388.35
  A 8.32 8.32 0.0 0 0 423.44 380.03
  L 423.44 379.15
  Z
  M 476.44 379.11
  A 8.27 8.27 0.0 0 0 468.17 370.84
  L 449.87 370.84
  A 8.27 8.27 0.0 0 0 441.60 379.11
  L 441.60 379.95
  A 8.27 8.27 0.0 0 0 449.87 388.22
  L 468.17 388.22
  A 8.27 8.27 0.0 0 0 476.44 379.95
  L 476.44 379.11
  Z
  M 300.05 414.89
  A 17.57 17.57 0.0 0 0 282.48 397.32
  A 17.57 17.57 0.0 0 0 264.91 414.89
  A 17.57 17.57 0.0 0 0 282.48 432.46
  A 17.57 17.57 0.0 0 0 300.05 414.89
  Z
  M 370.45 414.44
  A 8.34 8.34 0.0 0 0 362.11 406.10
  L 343.99 406.10
  A 8.34 8.34 0.0 0 0 335.65 414.44
  L 335.65 415.32
  A 8.34 8.34 0.0 0 0 343.99 423.66
  L 362.11 423.66
  A 8.34 8.34 0.0 0 0 370.45 415.32
  L 370.45 414.44
  Z
  M 423.42 414.44
  A 8.34 8.34 0.0 0 0 415.08 406.10
  L 396.98 406.10
  A 8.34 8.34 0.0 0 0 388.64 414.44
  L 388.64 415.32
  A 8.34 8.34 0.0 0 0 396.98 423.66
  L 415.08 423.66
  A 8.34 8.34 0.0 0 0 423.42 415.32
  L 423.42 414.44
  Z
  M 476.40 414.44
  A 8.34 8.34 0.0 0 0 468.06 406.10
  L 449.96 406.10
  A 8.34 8.34 0.0 0 0 441.62 414.44
  L 441.62 415.32
  A 8.34 8.34 0.0 0 0 449.96 423.66
  L 468.06 423.66
  A 8.34 8.34 0.0 0 0 476.40 415.32
  L 476.40 414.44
  Z"
/>
<path fill="#bdc3c7" d="
  M 476.74 282.05
  A 18.17 18.17 0.0 0 1 458.57 300.22
  L 53.43 300.22
  A 18.17 18.17 0.0 0 1 35.26 282.05
  L 35.26 53.43
  A 18.17 18.17 0.0 0 1 53.43 35.26
  L 458.57 35.26
  A 18.17 18.17 0.0 0 1 476.74 53.43
  L 476.74 282.05
  Z
  M 356.25 53.04
  L 53.54 53.02
  Q 53.03 53.02 53.03 53.53
  L 53.05 194.29
  L 53.04 211.75
  L 53.08 231.53
  L 53.02 282.02
  A 0.48 0.48 0.0 0 0 53.50 282.50
  L 458.49 282.50
  Q 458.97 282.50 458.97 282.02
  L 458.96 211.75
  L 458.96 194.00
  L 458.99 53.39
  A 0.38 0.38 0.0 0 0 458.61 53.01
  L 356.25 53.04
  Z"
/>
<path fill="#3f5c6c" d="
  M 458.96 194.00
  L 433.08 194.15
  Q 432.53 194.15 432.53 193.61
  Q 432.44 169.58 432.51 145.57
  C 432.55 132.02 427.34 123.72 412.71 123.73
  Q 397.12 123.75 381.51 123.76
  C 368.10 123.78 361.99 131.29 362.01 144.23
  Q 362.04 168.93 361.98 193.73
  Q 361.98 194.25 361.46 194.25
  L 336.01 194.25
  Q 335.50 194.25 335.50 193.74
  Q 335.50 170.66 335.49 147.59
  Q 335.49 138.39 334.07 134.71
  C 331.03 126.81 324.28 123.72 315.94 123.74
  Q 299.98 123.78 283.99 123.72
  C 271.55 123.68 264.80 131.26 264.78 144.02
  Q 264.74 168.86 264.75 193.74
  Q 264.75 194.25 264.24 194.25
  L 238.75 194.25
  A 0.51 0.50 90.0 0 1 238.25 193.74
  Q 238.26 168.79 238.24 143.81
  C 238.23 131.17 231.89 123.70 218.87 123.72
  Q 203.00 123.74 187.12 123.75
  C 172.80 123.76 167.70 132.38 167.74 145.50
  Q 167.81 169.57 167.72 193.74
  Q 167.72 194.25 167.21 194.25
  L 141.59 194.25
  A 0.36 0.35 -90.0 0 1 141.24 193.89
  Q 141.29 167.07 141.21 140.31
  Q 141.20 134.37 136.08 128.80
  C 198.67 86.69 277.15 65.54 350.88 54.45
  C 352.69 54.18 354.28 53.30 356.25 53.04
  L 458.61 53.01
  A 0.38 0.38 0.0 0 1 458.99 53.39
  L 458.96 194.00
  Z"
/>
<path fill="#547580" d="
  M 356.25 53.04
  C 354.28 53.30 352.69 54.18 350.88 54.45
  C 277.15 65.54 198.67 86.69 136.08 128.80
  C 130.91 123.71 124.39 123.26 117.30 123.47
  C 108.13 123.74 99.02 123.77 89.85 123.77
  C 77.75 123.77 70.80 130.77 70.78 142.85
  Q 70.75 168.35 70.45 193.99
  Q 70.45 194.26 70.18 194.26
  L 53.05 194.29
  L 53.03 53.53
  Q 53.03 53.02 53.54 53.02
  L 356.25 53.04
  Z"
/>
<path fill="#65ddb9" d="
  M 136.08 128.80
  Q 141.20 134.37 141.21 140.31
  Q 141.29 167.07 141.24 193.89
  A 0.36 0.35 90.0 0 0 141.59 194.25
  L 167.21 194.25
  Q 167.72 194.25 167.72 193.74
  Q 167.81 169.57 167.74 145.50
  C 167.70 132.38 172.80 123.76 187.12 123.75
  Q 203.00 123.74 218.87 123.72
  C 231.89 123.70 238.23 131.17 238.24 143.81
  Q 238.26 168.79 238.25 193.74
  A 0.51 0.50 90.0 0 0 238.75 194.25
  L 264.24 194.25
  Q 264.75 194.25 264.75 193.74
  Q 264.74 168.86 264.78 144.02
  C 264.80 131.26 271.55 123.68 283.99 123.72
  Q 299.98 123.78 315.94 123.74
  C 324.28 123.72 331.03 126.81 334.07 134.71
  Q 335.49 138.39 335.49 147.59
  Q 335.50 170.66 335.50 193.74
  Q 335.50 194.25 336.01 194.25
  L 361.46 194.25
  Q 361.98 194.25 361.98 193.73
  Q 362.04 168.93 362.01 144.23
  C 361.99 131.29 368.10 123.78 381.51 123.76
  Q 397.12 123.75 412.71 123.73
  C 427.34 123.72 432.55 132.02 432.51 145.57
  Q 432.44 169.58 432.53 193.61
  Q 432.53 194.15 433.08 194.15
  L 458.96 194.00
  L 458.96 211.75
  Q 447.36 211.74 435.76 211.76
  C 421.75 211.78 414.94 205.13 414.99 191.05
  Q 415.07 166.47 414.97 141.75
  Q 414.97 141.25 414.46 141.25
  L 379.84 141.25
  A 0.34 0.33 -90.0 0 0 379.51 141.59
  Q 379.49 165.80 379.51 189.93
  C 379.52 204.31 373.84 211.79 358.81 211.76
  Q 348.48 211.73 338.14 211.76
  C 329.58 211.78 322.57 209.15 319.32 201.08
  Q 317.74 197.16 317.75 185.70
  Q 317.77 163.74 317.74 141.75
  Q 317.74 141.25 317.24 141.25
  L 283.01 141.25
  Q 282.51 141.25 282.50 141.76
  Q 282.49 165.01 282.49 188.27
  Q 282.49 197.17 281.00 200.92
  C 277.69 209.25 270.71 211.76 261.90 211.76
  Q 251.26 211.75 240.63 211.74
  C 226.41 211.73 220.72 203.86 220.75 190.39
  Q 220.80 166.14 220.72 141.76
  Q 220.72 141.25 220.21 141.25
  L 186.03 141.25
  Q 185.56 141.25 185.56 141.72
  Q 185.33 166.65 185.22 191.58
  C 185.16 205.70 178.18 211.78 164.36 211.75
  Q 154.06 211.73 143.75 211.77
  C 131.71 211.82 123.52 205.39 123.51 192.48
  Q 123.50 167.17 123.50 141.78
  Q 123.50 141.27 122.98 141.27
  L 118.75 141.29
  L 88.75 141.26
  A 0.49 0.49 0.0 0 0 88.26 141.75
  L 88.29 170.50
  Q 88.22 180.07 88.25 189.63
  C 88.27 199.75 86.13 207.37 76.20 210.83
  C 71.83 212.35 66.06 211.57 61.00 212.04
  L 53.04 211.75
  L 53.05 194.29
  L 70.18 194.26
  Q 70.45 194.26 70.45 193.99
  Q 70.75 168.35 70.78 142.85
  C 70.80 130.77 77.75 123.77 89.85 123.77
  C 99.02 123.77 108.13 123.74 117.30 123.47
  C 124.39 123.26 130.91 123.71 136.08 128.80
  Z"
/>
<path fill="#547580" d="
  M 118.75 141.29
  Q 102.45 154.78 88.29 170.50
  L 88.26 141.75
  A 0.49 0.49 0.0 0 1 88.75 141.26
  L 118.75 141.29
  Z"
/>
<path fill="#3f5c6c" d="
  M 118.75 141.29
  L 122.98 141.27
  Q 123.50 141.27 123.50 141.78
  Q 123.50 167.17 123.51 192.48
  C 123.52 205.39 131.71 211.82 143.75 211.77
  Q 154.06 211.73 164.36 211.75
  C 178.18 211.78 185.16 205.70 185.22 191.58
  Q 185.33 166.65 185.56 141.72
  Q 185.56 141.25 186.03 141.25
  L 220.21 141.25
  Q 220.72 141.25 220.72 141.76
  Q 220.80 166.14 220.75 190.39
  C 220.72 203.86 226.41 211.73 240.63 211.74
  Q 251.26 211.75 261.90 211.76
  C 270.71 211.76 277.69 209.25 281.00 200.92
  Q 282.49 197.17 282.49 188.27
  Q 282.49 165.01 282.50 141.76
  Q 282.51 141.25 283.01 141.25
  L 317.24 141.25
  Q 317.74 141.25 317.74 141.75
  Q 317.77 163.74 317.75 185.70
  Q 317.74 197.16 319.32 201.08
  C 322.57 209.15 329.58 211.78 338.14 211.76
  Q 348.48 211.73 358.81 211.76
  C 373.84 211.79 379.52 204.31 379.51 189.93
  Q 379.49 165.80 379.51 141.59
  A 0.34 0.33 -90.0 0 1 379.84 141.25
  L 414.46 141.25
  Q 414.97 141.25 414.97 141.75
  Q 415.07 166.47 414.99 191.05
  C 414.94 205.13 421.75 211.78 435.76 211.76
  Q 447.36 211.74 458.96 211.75
  L 458.97 282.02
  Q 458.97 282.50 458.49 282.50
  L 53.50 282.50
  A 0.48 0.48 0.0 0 1 53.02 282.02
  L 53.08 231.53
  L 61.00 212.04
  C 66.06 211.57 71.83 212.35 76.20 210.83
  C 86.13 207.37 88.27 199.75 88.25 189.63
  Q 88.22 180.07 88.29 170.50
  Q 102.45 154.78 118.75 141.29
  Z"
/>
<path fill="#547580" d="
  M 53.04 211.75
  L 61.00 212.04
  L 53.08 231.53
  L 53.04 211.75
  Z"
/>
<circle fill="#ecf0f1" cx="282.49" cy="344.27" r="17.57"/>
<path fill="#bdc3c7" d="
  M 123.47 379.58
  A 44.03 44.03 0.0 0 1 79.44 423.61
  A 44.03 44.03 0.0 0 1 35.41 379.58
  A 44.03 44.03 0.0 0 1 79.44 335.55
  A 44.03 44.03 0.0 0 1 123.47 379.58
  Z
  M 105.81 379.58
  A 26.36 26.36 0.0 0 0 79.45 353.22
  A 26.36 26.36 0.0 0 0 53.09 379.58
  A 26.36 26.36 0.0 0 0 79.45 405.94
  A 26.36 26.36 0.0 0 0 105.81 379.58
  Z"
/>
<path fill="#bdc3c7" d="
  M 229.39 379.57
  A 44.02 44.02 0.0 0 1 185.37 423.59
  A 44.02 44.02 0.0 0 1 141.35 379.57
  A 44.02 44.02 0.0 0 1 185.37 335.55
  A 44.02 44.02 0.0 0 1 229.39 379.57
  Z
  M 211.74 379.57
  A 26.35 26.35 0.0 0 0 185.39 353.22
  A 26.35 26.35 0.0 0 0 159.04 379.57
  A 26.35 26.35 0.0 0 0 185.39 405.92
  A 26.35 26.35 0.0 0 0 211.74 379.57
  Z"
/>
<rect fill="#285680" x="-17.39" y="-8.75" transform="translate(353.04,344.31) rotate(-0.1)" width="34.78" height="17.50" rx="8.30"/>
<rect fill="#285680" x="388.62" y="335.55" width="34.80" height="17.54" rx="8.33"/>
<rect fill="#285680" x="-17.40" y="-8.78" transform="translate(459.02,344.32) rotate(0.1)" width="34.80" height="17.56" rx="8.33"/>
<circle fill="#ecf0f1" cx="79.45" cy="379.58" r="26.36"/>
<circle fill="#ecf0f1" cx="185.39" cy="379.57" r="26.35"/>
<rect fill="#285680" x="-17.38" y="-8.74" transform="translate(353.05,379.57) rotate(-0.1)" width="34.76" height="17.48" rx="8.29"/>
<rect fill="#285680" x="388.64" y="370.83" width="34.80" height="17.52" rx="8.32"/>
<rect fill="#285680" x="441.60" y="370.84" width="34.84" height="17.38" rx="8.27"/>
<circle fill="#ecf0f1" cx="282.48" cy="414.89" r="17.57"/>
<rect fill="#285680" x="335.65" y="406.10" width="34.80" height="17.56" rx="8.34"/>
<rect fill="#285680" x="388.64" y="406.10" width="34.78" height="17.56" rx="8.34"/>
<rect fill="#285680" x="441.62" y="406.10" width="34.78" height="17.56" rx="8.34"/>
<path fill="#84b5cb" d="
  M 512.00 467.81
  L 512.00 469.56
  C 510.28 493.16 493.04 510.58 469.44 512.00
  L 42.69 512.00
  C 18.91 510.34 1.49 493.15 0.00 469.44
  L 0.00 468.13
  Q 31.40 467.77 62.81 467.76
  Q 287.41 467.69 512.00 467.81
  Z"
/>
</svg>
