<?xml version="1.0" encoding="UTF-8" standalone="no"?>
<!DOCTYPE svg PUBLIC "-//W3C//DTD SVG 1.1//EN" "http://www.w3.org/Graphics/SVG/1.1/DTD/svg11.dtd">
<svg xmlns="http://www.w3.org/2000/svg" version="1.1" viewBox="0.00 0.00 512.00 512.00">
<g stroke-width="2.00" fill="none" stroke-linecap="butt">
<path stroke="#e6ebf6" vector-effect="non-scaling-stroke" d="
  M 180.43 0.00
  L 180.49 51.76"
/>
<path stroke="#d3d8e9" vector-effect="non-scaling-stroke" d="
  M 180.49 51.76
  L 133.76 51.78
  A 0.51 0.50 -90.0 0 0 133.26 52.29
  L 133.23 81.28
  Q 133.23 81.74 133.69 81.74
  L 180.40 81.74"
/>
<path stroke="#e6ebf6" vector-effect="non-scaling-stroke" d="
  M 180.40 81.74
  L 180.44 128.54
  Q 180.44 128.89 180.10 128.97
  Q 179.79 129.04 179.75 129.25"
/>
<path stroke="#d3d8e9" vector-effect="non-scaling-stroke" d="
  M 179.75 129.25
  L 64.52 129.25
  Q 64.00 129.25 64.00 129.76
  L 64.00 158.73
  A 0.53 0.53 0.0 0 0 64.53 159.26
  L 179.55 159.25"
/>
<path stroke="#e6ebf6" vector-effect="non-scaling-stroke" d="
  M 179.55 159.25
  Q 180.57 160.17 180.57 162.51
  Q 180.52 182.12 180.49 201.76
  Q 180.49 202.13 180.12 202.21
  Q 179.84 202.28 179.75 202.50"
/>
<path stroke="#d3d8e9" vector-effect="non-scaling-stroke" d="
  M 179.75 202.50
  L 61.51 202.50
  Q 61.01 202.50 61.01 203.00
  L 60.98 231.75
  A 0.78 0.77 0.4 0 0 61.76 232.53
  L 179.77 232.54"
/>
<path stroke="#e6ebf6" vector-effect="non-scaling-stroke" d="
  M 179.77 232.54
  Q 180.42 233.45 180.43 234.81
  Q 180.51 255.37 180.56 275.98"
/>
<path stroke="#b2b8cb" vector-effect="non-scaling-stroke" d="
  M 180.56 275.98
  Q 180.53 275.87 180.50 275.76"
/>
<path stroke="#d3d8e9" vector-effect="non-scaling-stroke" d="
  M 180.50 275.76
  L 61.94 275.76
  A 0.95 0.94 0.0 0 0 60.99 276.70
  L 60.98 305.28
  A 0.42 0.42 0.0 0 0 61.40 305.71
  L 179.53 305.90"
/>
<path stroke="#e6ebf6" vector-effect="non-scaling-stroke" d="
  M 179.53 305.90
  Q 180.50 306.22 180.50 308.26
  Q 180.52 328.37 180.49 348.52
  Q 180.49 348.88 180.13 348.96
  Q 179.84 349.02 179.75 349.25"
/>
<path stroke="#d3d8e9" vector-effect="non-scaling-stroke" d="
  M 179.75 349.25
  L 61.51 349.25
  Q 61.01 349.25 61.01 349.75
  L 60.98 378.80
  Q 60.98 379.28 61.45 379.28
  L 179.76 379.28"
/>
<path stroke="#e6ebf6" vector-effect="non-scaling-stroke" d="
  M 179.76 379.28
  Q 180.51 380.98 180.51 382.50
  Q 180.50 401.14 180.50 419.80
  C 180.50 420.81 180.16 421.52 179.99 422.53"
/>
<path stroke="#d3d8e9" vector-effect="non-scaling-stroke" d="
  M 179.99 422.53
  L 64.56 422.51
  Q 64.00 422.51 64.00 423.07
  L 64.00 451.95
  Q 64.00 452.53 64.58 452.53
  L 179.80 452.58"
/>
<path stroke="#e6ebf6" vector-effect="non-scaling-stroke" d="
  M 179.80 452.58
  Q 180.47 453.81 180.48 455.50
  Q 180.70 483.79 180.24 512.00"
/>
<path stroke="#e6ebf6" vector-effect="non-scaling-stroke" d="
  M 1.17 78.66
  Q 2.51 78.59 3.10 79.03
  Q 3.41 79.25 3.79 79.25
  L 76.19 79.25
  Q 76.73 79.25 76.73 78.71
  Q 76.79 40.33 76.73 2.07
  Q 76.73 1.41 75.95 0.91"
/>
<path stroke="#72c7e6" vector-effect="non-scaling-stroke" d="
  M 365.95 198.84
  C 324.44 158.37 257.39 156.88 215.88 198.99"
/>
<path stroke="#87def1" vector-effect="non-scaling-stroke" d="
  M 215.88 198.99
  L 212.08 202.66"
/>
<path stroke="#b0b0c2" vector-effect="non-scaling-stroke" d="
  M 212.08 202.66
  L 180.57 202.56"
/>
<path stroke="#d0d0df" vector-effect="non-scaling-stroke" d="
  M 180.57 202.56
  Q 180.41 202.46 179.75 202.50"
/>
<path stroke="#d0d0df" vector-effect="non-scaling-stroke" d="
  M 179.55 159.25
  L 180.72 159.24"
/>
<path stroke="#b0b0c2" vector-effect="non-scaling-stroke" d="
  M 180.72 159.24
  L 301.75 159.24
  Q 302.25 159.24 302.25 158.73
  L 302.25 129.77
  Q 302.25 129.26 301.74 129.26
  L 180.56 129.26"
/>
<path stroke="#d0d0df" vector-effect="non-scaling-stroke" d="
  M 180.56 129.26
  L 179.75 129.25"
/>
<path stroke="#d0d0df" vector-effect="non-scaling-stroke" d="
  M 180.40 81.74
  Q 180.52 81.76 180.56 81.74"
/>
<path stroke="#b0b0c2" vector-effect="non-scaling-stroke" d="
  M 180.56 81.74
  L 299.50 81.74
  Q 300.00 81.74 300.00 81.24
  L 300.00 52.26
  Q 300.00 51.76 299.49 51.76
  L 180.49 51.76"
/>
<path stroke="#9d9db5" vector-effect="non-scaling-stroke" d="
  M 180.49 51.76
  L 180.56 81.74"
/>
<path stroke="#9d9db5" vector-effect="non-scaling-stroke" d="
  M 180.56 129.26
  L 180.72 159.24"
/>
<path stroke="#40737c" vector-effect="non-scaling-stroke" d="
  M 386.75 320.08
  Q 379.09 335.80 366.09 349.26"
/>
<path stroke="#5a7f82" vector-effect="non-scaling-stroke" d="
  M 366.09 349.26
  Q 366.07 349.26 366.05 349.26"
/>
<path stroke="#15c1eb" vector-effect="non-scaling-stroke" d="
  M 366.05 349.26
  L 215.88 198.99"
/>
<path stroke="#6f968d" vector-effect="non-scaling-stroke" d="
  M 366.05 349.26
  Q 353.18 361.98 336.86 369.98"
/>
<path stroke="#87def1" vector-effect="non-scaling-stroke" d="
  M 336.86 369.98
  C 316.11 379.74 295.40 381.89 272.57 379.07"
/>
<path stroke="#53aac7" vector-effect="non-scaling-stroke" d="
  M 272.57 379.07
  Q 239.31 372.44 215.93 349.43
  Q 215.77 349.26 215.53 349.27
  Q 215.39 349.28 215.27 349.25"
/>
<path stroke="#87def1" vector-effect="non-scaling-stroke" d="
  M 215.27 349.25
  Q 215.17 348.75 214.72 348.28
  C 202.83 335.92 195.00 322.07 189.41 305.92"
/>
<path stroke="#53aac7" vector-effect="non-scaling-stroke" d="
  M 189.41 305.92
  Q 184.96 291.26 184.61 276.01"
/>
<path stroke="#87def1" vector-effect="non-scaling-stroke" d="
  M 184.61 276.01
  C 184.45 260.71 187.44 246.78 192.95 232.59"
/>
<path stroke="#53aac7" vector-effect="non-scaling-stroke" d="
  M 192.95 232.59
  Q 200.00 216.54 212.08 202.66"
/>
<path stroke="#9d9db5" vector-effect="non-scaling-stroke" d="
  M 180.57 202.56
  L 180.56 232.51"
/>
<path stroke="#d0d0df" vector-effect="non-scaling-stroke" d="
  M 180.56 232.51
  L 179.77 232.54"
/>
<path stroke="#b0b0c2" vector-effect="non-scaling-stroke" d="
  M 192.95 232.59
  L 180.56 232.51"
/>
<path stroke="#b0b0c2" vector-effect="non-scaling-stroke" d="
  M 184.61 276.01
  L 180.56 275.98"
/>
<path stroke="#9d9db5" vector-effect="non-scaling-stroke" d="
  M 180.50 275.76
  L 180.50 305.79"
/>
<path stroke="#d0d0df" vector-effect="non-scaling-stroke" d="
  M 180.50 305.79
  Q 179.77 305.63 179.53 305.90"
/>
<path stroke="#b0b0c2" vector-effect="non-scaling-stroke" d="
  M 189.41 305.92
  L 180.50 305.79"
/>
<path stroke="#b0b0c2" vector-effect="non-scaling-stroke" d="
  M 215.27 349.25
  L 180.52 349.25"
/>
<path stroke="#d0d0df" vector-effect="non-scaling-stroke" d="
  M 180.52 349.25
  L 179.75 349.25"
/>
<path stroke="#9a481f" vector-effect="non-scaling-stroke" d="
  M 501.32 484.53
  L 366.09 349.26"
/>
<path stroke="#9d9db5" vector-effect="non-scaling-stroke" d="
  M 180.52 349.25
  L 180.56 378.67
  Q 180.56 378.91 180.79 378.99
  Q 180.96 379.06 181.00 379.19"
/>
<path stroke="#d0d0df" vector-effect="non-scaling-stroke" d="
  M 181.00 379.19
  L 179.76 379.28"
/>
<path stroke="#b0b0c2" vector-effect="non-scaling-stroke" d="
  M 272.57 379.07
  L 181.00 379.19"
/>
<path stroke="#cb9b88" vector-effect="non-scaling-stroke" d="
  M 366.05 399.21
  L 336.86 369.98"
/>
<path stroke="#d0d0df" vector-effect="non-scaling-stroke" d="
  M 179.80 452.58
  Q 180.13 452.44 180.62 452.51"
/>
<path stroke="#b0b0c2" vector-effect="non-scaling-stroke" d="
  M 180.62 452.51
  L 301.74 452.49
  Q 302.25 452.49 302.25 451.98
  L 302.25 423.02
  Q 302.25 422.51 301.74 422.51
  L 180.66 422.51"
/>
<path stroke="#d0d0df" vector-effect="non-scaling-stroke" d="
  M 180.66 422.51
  L 179.99 422.53"
/>
<path stroke="#9d9db5" vector-effect="non-scaling-stroke" d="
  M 180.66 422.51
  L 180.62 452.51"
/>
</g>
<path fill="#e8f3ff" d="
  M 76.81 0.00
  L 180.43 0.00
  L 180.49 51.76
  L 133.76 51.78
  A 0.51 0.50 -90.0 0 0 133.26 52.29
  L 133.23 81.28
  Q 133.23 81.74 133.69 81.74
  L 180.40 81.74
  L 180.44 128.54
  Q 180.44 128.89 180.10 128.97
  Q 179.79 129.04 179.75 129.25
  L 64.52 129.25
  Q 64.00 129.25 64.00 129.76
  L 64.00 158.73
  A 0.53 0.53 0.0 0 0 64.53 159.26
  L 179.55 159.25
  Q 180.57 160.17 180.57 162.51
  Q 180.52 182.12 180.49 201.76
  Q 180.49 202.13 180.12 202.21
  Q 179.84 202.28 179.75 202.50
  L 61.51 202.50
  Q 61.01 202.50 61.01 203.00
  L 60.98 231.75
  A 0.78 0.77 0.4 0 0 61.76 232.53
  L 179.77 232.54
  Q 180.42 233.45 180.43 234.81
  Q 180.51 255.37 180.56 275.98
  Q 180.53 275.87 180.50 275.76
  L 61.94 275.76
  A 0.95 0.94 0.0 0 0 60.99 276.70
  L 60.98 305.28
  A 0.42 0.42 0.0 0 0 61.40 305.71
  L 179.53 305.90
  Q 180.50 306.22 180.50 308.26
  Q 180.52 328.37 180.49 348.52
  Q 180.49 348.88 180.13 348.96
  Q 179.84 349.02 179.75 349.25
  L 61.51 349.25
  Q 61.01 349.25 61.01 349.75
  L 60.98 378.80
  Q 60.98 379.28 61.45 379.28
  L 179.76 379.28
  Q 180.51 380.98 180.51 382.50
  Q 180.50 401.14 180.50 419.80
  C 180.50 420.81 180.16 421.52 179.99 422.53
  L 64.56 422.51
  Q 64.00 422.51 64.00 423.07
  L 64.00 451.95
  Q 64.00 452.53 64.58 452.53
  L 179.80 452.58
  Q 180.47 453.81 180.48 455.50
  Q 180.70 483.79 180.24 512.00
  L 0.27 512.00
  Q 0.19 296.14 0.31 80.29
  C 0.31 79.54 0.68 79.14 1.17 78.66
  Q 2.51 78.59 3.10 79.03
  Q 3.41 79.25 3.79 79.25
  L 76.19 79.25
  Q 76.73 79.25 76.73 78.71
  Q 76.79 40.33 76.73 2.07
  Q 76.73 1.41 75.95 0.91
  L 76.81 0.00
  Z"
/>
<path fill="#e3e3ec" d="
  M 180.43 0.00
  L 365.99 0.00
  L 365.95 198.84
  C 324.44 158.37 257.39 156.88 215.88 198.99
  L 212.08 202.66
  L 180.57 202.56
  Q 180.41 202.46 179.75 202.50
  Q 179.84 202.28 180.12 202.21
  Q 180.49 202.13 180.49 201.76
  Q 180.52 182.12 180.57 162.51
  Q 180.57 160.17 179.55 159.25
  L 180.72 159.24
  L 301.75 159.24
  Q 302.25 159.24 302.25 158.73
  L 302.25 129.77
  Q 302.25 129.26 301.74 129.26
  L 180.56 129.26
  L 179.75 129.25
  Q 179.79 129.04 180.10 128.97
  Q 180.44 128.89 180.44 128.54
  L 180.40 81.74
  Q 180.52 81.76 180.56 81.74
  L 299.50 81.74
  Q 300.00 81.74 300.00 81.24
  L 300.00 52.26
  Q 300.00 51.76 299.49 51.76
  L 180.49 51.76
  L 180.43 0.00
  Z"
/>
<path fill="#e3e3ec" d="
  M 75.95 0.91
  Q 76.73 1.41 76.73 2.07
  Q 76.79 40.33 76.73 78.71
  Q 76.73 79.25 76.19 79.25
  L 3.79 79.25
  Q 3.41 79.25 3.10 79.03
  Q 2.51 78.59 1.17 78.66
  L 75.95 0.91
  Z"
/>
<path fill="#bdbdd2" d="
  M 180.49 51.76
  L 180.56 81.74
  Q 180.52 81.76 180.40 81.74
  L 133.69 81.74
  Q 133.23 81.74 133.23 81.28
  L 133.26 52.29
  A 0.51 0.50 -90.0 0 1 133.76 51.78
  L 180.49 51.76
  Z"
/>
<path fill="#7c7c97" d="
  M 180.49 51.76
  L 299.49 51.76
  Q 300.00 51.76 300.00 52.26
  L 300.00 81.24
  Q 300.00 81.74 299.50 81.74
  L 180.56 81.74
  L 180.49 51.76
  Z"
/>
<path fill="#bdbdd2" d="
  M 179.75 129.25
  L 180.56 129.26
  L 180.72 159.24
  L 179.55 159.25
  L 64.53 159.26
  A 0.53 0.53 0.0 0 1 64.00 158.73
  L 64.00 129.76
  Q 64.00 129.25 64.52 129.25
  L 179.75 129.25
  Z"
/>
<path fill="#7c7c97" d="
  M 180.56 129.26
  L 301.74 129.26
  Q 302.25 129.26 302.25 129.77
  L 302.25 158.73
  Q 302.25 159.24 301.75 159.24
  L 180.72 159.24
  L 180.56 129.26
  Z"
/>
<path fill="#00aadf" d="
  M 365.95 198.84
  C 397.96 231.41 405.89 278.44 386.75 320.08
  Q 379.09 335.80 366.09 349.26
  Q 366.07 349.26 366.05 349.26
  L 215.88 198.99
  C 257.39 156.88 324.44 158.37 365.95 198.84
  Z"
/>
<path fill="#2ad8f6" d="
  M 215.88 198.99
  L 366.05 349.26
  Q 353.18 361.98 336.86 369.98
  C 316.11 379.74 295.40 381.89 272.57 379.07
  Q 239.31 372.44 215.93 349.43
  Q 215.77 349.26 215.53 349.27
  Q 215.39 349.28 215.27 349.25
  Q 215.17 348.75 214.72 348.28
  C 202.83 335.92 195.00 322.07 189.41 305.92
  Q 184.96 291.26 184.61 276.01
  C 184.45 260.71 187.44 246.78 192.95 232.59
  Q 200.00 216.54 212.08 202.66
  L 215.88 198.99
  Z"
/>
<path fill="#bdbdd2" d="
  M 179.75 202.50
  Q 180.41 202.46 180.57 202.56
  L 180.56 232.51
  L 179.77 232.54
  L 61.76 232.53
  A 0.78 0.77 0.4 0 1 60.98 231.75
  L 61.01 203.00
  Q 61.01 202.50 61.51 202.50
  L 179.75 202.50
  Z"
/>
<path fill="#7c7c97" d="
  M 180.57 202.56
  L 212.08 202.66
  Q 200.00 216.54 192.95 232.59
  L 180.56 232.51
  L 180.57 202.56
  Z"
/>
<path fill="#e3e3ec" d="
  M 180.56 232.51
  L 192.95 232.59
  C 187.44 246.78 184.45 260.71 184.61 276.01
  L 180.56 275.98
  Q 180.51 255.37 180.43 234.81
  Q 180.42 233.45 179.77 232.54
  L 180.56 232.51
  Z"
/>
<path fill="#bdbdd2" d="
  M 180.50 275.76
  L 180.50 305.79
  Q 179.77 305.63 179.53 305.90
  L 61.40 305.71
  A 0.42 0.42 0.0 0 1 60.98 305.28
  L 60.99 276.70
  A 0.95 0.94 0.0 0 1 61.94 275.76
  L 180.50 275.76
  Z"
/>
<path fill="#7c7c97" d="
  M 180.50 275.76
  Q 180.53 275.87 180.56 275.98
  L 184.61 276.01
  Q 184.96 291.26 189.41 305.92
  L 180.50 305.79
  L 180.50 275.76
  Z"
/>
<path fill="#e3e3ec" d="
  M 180.50 305.79
  L 189.41 305.92
  C 195.00 322.07 202.83 335.92 214.72 348.28
  Q 215.17 348.75 215.27 349.25
  L 180.52 349.25
  L 179.75 349.25
  Q 179.84 349.02 180.13 348.96
  Q 180.49 348.88 180.49 348.52
  Q 180.52 328.37 180.50 308.26
  Q 180.50 306.22 179.53 305.90
  Q 179.77 305.63 180.50 305.79
  Z"
/>
<path fill="#803c19" d="
  M 386.75 320.08
  Q 444.62 378.01 502.69 436.06
  C 515.83 449.20 513.59 471.61 501.32 484.53
  L 366.09 349.26
  Q 379.09 335.80 386.75 320.08
  Z"
/>
<path fill="#bdbdd2" d="
  M 179.75 349.25
  L 180.52 349.25
  L 180.56 378.67
  Q 180.56 378.91 180.79 378.99
  Q 180.96 379.06 181.00 379.19
  L 179.76 379.28
  L 61.45 379.28
  Q 60.98 379.28 60.98 378.80
  L 61.01 349.75
  Q 61.01 349.25 61.51 349.25
  L 179.75 349.25
  Z"
/>
<path fill="#7c7c97" d="
  M 180.52 349.25
  L 215.27 349.25
  Q 215.39 349.28 215.53 349.27
  Q 215.77 349.26 215.93 349.43
  Q 239.31 372.44 272.57 379.07
  L 181.00 379.19
  Q 180.96 379.06 180.79 378.99
  Q 180.56 378.91 180.56 378.67
  L 180.52 349.25
  Z"
/>
<path fill="#b35324" d="
  M 366.05 349.26
  Q 366.07 349.26 366.09 349.26
  L 501.32 484.53
  C 489.69 495.76 471.90 498.40 457.99 489.75
  Q 454.41 487.52 447.02 480.13
  Q 406.70 439.81 366.05 399.21
  L 336.86 369.98
  Q 353.18 361.98 366.05 349.26
  Z"
/>
<path fill="#e3e3ec" d="
  M 336.86 369.98
  L 366.05 399.21
  L 366.01 512.00
  L 180.24 512.00
  Q 180.70 483.79 180.48 455.50
  Q 180.47 453.81 179.80 452.58
  Q 180.13 452.44 180.62 452.51
  L 301.74 452.49
  Q 302.25 452.49 302.25 451.98
  L 302.25 423.02
  Q 302.25 422.51 301.74 422.51
  L 180.66 422.51
  L 179.99 422.53
  C 180.16 421.52 180.50 420.81 180.50 419.80
  Q 180.50 401.14 180.51 382.50
  Q 180.51 380.98 179.76 379.28
  L 181.00 379.19
  L 272.57 379.07
  C 295.40 381.89 316.11 379.74 336.86 369.98
  Z"
/>
<path fill="#bdbdd2" d="
  M 179.99 422.53
  L 180.66 422.51
  L 180.62 452.51
  Q 180.13 452.44 179.80 452.58
  L 64.58 452.53
  Q 64.00 452.53 64.00 451.95
  L 64.00 423.07
  Q 64.00 422.51 64.56 422.51
  L 179.99 422.53
  Z"
/>
<path fill="#7c7c97" d="
  M 180.66 422.51
  L 301.74 422.51
  Q 302.25 422.51 302.25 423.02
  L 302.25 451.98
  Q 302.25 452.49 301.74 452.49
  L 180.62 452.51
  L 180.66 422.51
  Z"
/>
</svg>
