<?xml version="1.0" encoding="UTF-8"?>
<svg id="_Слой_2" data-name="Слой 2" xmlns="http://www.w3.org/2000/svg" viewBox="0 0 148.39 149.87">
  <defs>
    <style>
      .cls-1 {
        fill: #fff;
      }

      .cls-2 {
        fill: #72c0e9;
      }
    </style>
  </defs>
  <g id="reset">
    <g>
      <path class="cls-2" d="m72.39,0h3.82c39.85,1.28,71.12,33.29,72.18,73.44v2.78c-.85,40.36-32.64,72.58-72.71,73.65h-3.39C32.54,148.48,1.17,116.69,0,76.54v-3.21C1.17,33.19,32.33,1.18,72.39,0h0Zm-33.39,74.08c.85-17.56,14.31-32.86,32.11-34.04,10.6-.64,19.71,2.78,27.56,10.28.21.11.11.21-.11.21h-9.01c-1.17,0-2.12.11-2.54.32-4.66,1.39-3.5,8.46,1.59,8.46h18.12c4.03,0,5.83-1.18,5.83-5.57v-17.66c0-2.68-1.27-4.6-4.13-4.82-2.23-.21-4.56,1.71-4.56,3.96v7.6q0,.11-.11.11h0c-9.65-8.89-22.79-13.06-35.82-11.13-25.86,3.85-42.93,29.76-35.72,55.24,8.59,30.83,46,42.29,69.95,21.2,7.95-6.85,12.93-16.7,14.31-27.19.21-1.71.32-3.64.42-5.46.11-1.28,0-2.14-.21-2.78-1.17-3.21-6.15-2.78-7.53.32-.42,1.07-.32,2.46-.42,3.64-1.17,21.41-20.56,37.36-41.65,32.97-16.43-3.43-28.83-18.31-28.09-35.65h0Z"/>
      <path class="cls-1" d="m71.12,40.04c-17.81,1.18-31.27,16.49-32.11,34.04-.74,17.34,11.66,32.22,28.09,35.65,21.09,4.39,40.49-11.56,41.65-32.97.11-1.18,0-2.57.42-3.64,1.38-3.1,6.36-3.53,7.53-.32.21.64.32,1.5.21,2.78-.11,1.82-.21,3.75-.42,5.46-1.38,10.49-6.36,20.34-14.31,27.19-23.95,21.09-61.37,9.63-69.95-21.2-7.21-25.48,9.86-51.38,35.72-55.24,13.04-1.93,26.18,2.25,35.82,11.13h0q.11,0,.11-.11v-7.6c0-2.25,2.33-4.17,4.56-3.96,2.86.21,4.13,2.14,4.13,4.82v17.66c0,4.39-1.8,5.57-5.83,5.57h-18.12c-5.09,0-6.25-7.07-1.59-8.46.42-.21,1.38-.32,2.54-.32h9.01c.21,0,.32-.11.11-.21-7.84-7.49-16.96-10.92-27.56-10.28h0Z"/>
    </g>
  </g>
</svg>