<?xml version="1.0" encoding="UTF-8" standalone="no"?>
<!DOCTYPE svg PUBLIC "-//W3C//DTD SVG 1.1//EN" "http://www.w3.org/Graphics/SVG/1.1/DTD/svg11.dtd">
<svg xmlns="http://www.w3.org/2000/svg" version="1.1" viewBox="0.00 0.00 512.00 512.00">
<path stroke="#81dcff" stroke-width="2.00" fill="none" stroke-linecap="butt" vector-effect="non-scaling-stroke" d="
  M 134.58 253.25
  C 137.39 193.32 183.78 141.00 245.20 136.97
  Q 300.09 133.37 340.38 171.86
  Q 341.33 172.77 340.02 172.76
  Q 324.84 172.72 309.16 172.78
  Q 302.62 172.80 300.06 173.62
  C 284.24 178.70 288.28 202.64 305.75 202.69
  Q 336.93 202.77 368.10 202.74
  C 382.20 202.73 388.27 198.60 388.26 183.79
  Q 388.25 153.58 388.23 123.37
  C 388.22 114.31 383.78 107.55 374.22 106.69
  C 366.56 105.99 358.51 112.77 358.51 120.25
  Q 358.50 133.47 358.50 146.55
  A 0.34 0.34 0.0 0 1 357.93 146.80
  C 324.62 116.28 279.19 102.18 234.49 108.75
  C 145.24 121.86 86.22 210.21 111.00 297.38
  C 140.92 402.64 269.77 441.78 352.60 369.99
  C 379.96 346.27 396.99 312.68 401.96 276.86
  C 402.77 271.07 402.95 264.48 403.33 258.29
  Q 403.71 251.96 402.54 248.79
  C 398.45 237.66 381.30 239.28 376.81 249.73
  C 375.22 253.42 375.40 258.14 375.17 262.36
  C 371.27 335.45 304.24 390.09 231.46 375.00
  C 174.75 363.25 131.82 312.32 134.58 253.25"
/>
<path fill="#03b8ff" d="
  M 249.57 0.00
  L 262.78 0.00
  C 400.35 4.48 508.40 113.76 512.00 251.08
  L 512.00 260.30
  C 508.99 398.30 399.31 508.55 261.17 512.00
  L 249.46 512.00
  C 112.07 507.49 4.01 398.86 0.00 261.67
  L 0.00 250.69
  C 3.99 113.56 111.67 4.24 249.57 0.00
  Z
  M 134.58 253.25
  C 137.39 193.32 183.78 141.00 245.20 136.97
  Q 300.09 133.37 340.38 171.86
  Q 341.33 172.77 340.02 172.76
  Q 324.84 172.72 309.16 172.78
  Q 302.62 172.80 300.06 173.62
  C 284.24 178.70 288.28 202.64 305.75 202.69
  Q 336.93 202.77 368.10 202.74
  C 382.20 202.73 388.27 198.60 388.26 183.79
  Q 388.25 153.58 388.23 123.37
  C 388.22 114.31 383.78 107.55 374.22 106.69
  C 366.56 105.99 358.51 112.77 358.51 120.25
  Q 358.50 133.47 358.50 146.55
  A 0.34 0.34 0.0 0 1 357.93 146.80
  C 324.62 116.28 279.19 102.18 234.49 108.75
  C 145.24 121.86 86.22 210.21 111.00 297.38
  C 140.92 402.64 269.77 441.78 352.60 369.99
  C 379.96 346.27 396.99 312.68 401.96 276.86
  C 402.77 271.07 402.95 264.48 403.33 258.29
  Q 403.71 251.96 402.54 248.79
  C 398.45 237.66 381.30 239.28 376.81 249.73
  C 375.22 253.42 375.40 258.14 375.17 262.36
  C 371.27 335.45 304.24 390.09 231.46 375.00
  C 174.75 363.25 131.82 312.32 134.58 253.25
  Z"
/>
<path fill="#ffffff" d="
  M 245.20 136.97
  C 183.78 141.00 137.39 193.32 134.58 253.25
  C 131.82 312.32 174.75 363.25 231.46 375.00
  C 304.24 390.09 371.27 335.45 375.17 262.36
  C 375.40 258.14 375.22 253.42 376.81 249.73
  C 381.30 239.28 398.45 237.66 402.54 248.79
  Q 403.71 251.96 403.33 258.29
  C 402.95 264.48 402.77 271.07 401.96 276.86
  C 396.99 312.68 379.96 346.27 352.60 369.99
  C 269.77 441.78 140.92 402.64 111.00 297.38
  C 86.22 210.21 145.24 121.86 234.49 108.75
  C 279.19 102.18 324.62 116.28 357.93 146.80
  A 0.34 0.34 0.0 0 0 358.50 146.55
  Q 358.50 133.47 358.51 120.25
  C 358.51 112.77 366.56 105.99 374.22 106.69
  C 383.78 107.55 388.22 114.31 388.23 123.37
  Q 388.25 153.58 388.26 183.79
  C 388.27 198.60 382.20 202.73 368.10 202.74
  Q 336.93 202.77 305.75 202.69
  C 288.28 202.64 284.24 178.70 300.06 173.62
  Q 302.62 172.80 309.16 172.78
  Q 324.84 172.72 340.02 172.76
  Q 341.33 172.77 340.38 171.86
  Q 300.09 133.37 245.20 136.97
  Z"
/>
</svg>
