<svg xmlns="http://www.w3.org/2000/svg" viewBox="0 0 39.69 40.08"><defs><style>.cls-1{fill:#72bcd4;}.cls-2{fill:#fff;}</style></defs><g id="Слой_2" data-name="Слой 2"><g id="Слой_1-2" data-name="Слой 1"><path class="cls-1" d="M19.36,0h1A20,20,0,0,1,39.69,19.64v.74a20,20,0,0,1-19.45,19.7h-.91A20,20,0,0,1,0,20.47v-.86A20,20,0,0,1,19.36,0ZM10.43,19.81a9.32,9.32,0,0,1,16-6.35c.06,0,0,0,0,0H24a1.8,1.8,0,0,0-.68.09,1.16,1.16,0,0,0,.43,2.26h4.84c1.08,0,1.56-.31,1.56-1.49V9.65a1.17,1.17,0,1,0-2.32-.23v2s0,0,0,0h0A11.67,11.67,0,0,0,8.62,23.28,11.51,11.51,0,0,0,27.33,29a11.64,11.64,0,0,0,3.82-7.28c.06-.45.09-1,.12-1.46a1.93,1.93,0,0,0-.06-.74,1.12,1.12,0,0,0-2,.08,3.51,3.51,0,0,0-.12,1,9.33,9.33,0,1,1-18.65-.72Z"/><path class="cls-2" d="M19,10.71a9.44,9.44,0,0,0-1.08,18.64,9.36,9.36,0,0,0,11.14-8.82,3.51,3.51,0,0,1,.12-1,1.12,1.12,0,0,1,2-.08,1.93,1.93,0,0,1,.06.74c0,.49-.06,1-.12,1.46A11.64,11.64,0,0,1,27.33,29,11.51,11.51,0,0,1,8.62,23.28a11.67,11.67,0,0,1,19.13-11.8h0s0,0,0,0v-2a1.17,1.17,0,1,1,2.32.23v4.72c0,1.18-.48,1.49-1.56,1.49H23.7a1.16,1.16,0,0,1-.43-2.26,1.8,1.8,0,0,1,.68-.09h2.41c.06,0,.09,0,0,0A9.39,9.39,0,0,0,19,10.71Z"/></g></g></svg>