<?xml version="1.0" encoding="UTF-8" standalone="no"?>
<!DOCTYPE svg PUBLIC "-//W3C//DTD SVG 1.1//EN" "http://www.w3.org/Graphics/SVG/1.1/DTD/svg11.dtd">
<svg xmlns="http://www.w3.org/2000/svg" version="1.1" viewBox="0.00 0.00 512.00 512.00">
<g stroke-width="2.00" fill="none" stroke-linecap="butt">
<path stroke="#bebebe" vector-effect="non-scaling-stroke" d="
  M 351.52 160.02
  L 320.00 191.95"
/>
<path stroke="#badfe9" vector-effect="non-scaling-stroke" d="
  M 320.00 191.95
  Q 320.53 191.52 319.85 192.02"
/>
<path stroke="#d5e4e8" vector-effect="non-scaling-stroke" d="
  M 319.85 192.02
  Q 228.74 191.97 137.88 192.02
  Q 129.94 192.02 126.40 193.32
  C 119.07 196.02 113.64 203.11 112.71 210.87
  Q 112.27 214.59 113.98 221.51
  Q 123.87 261.54 133.97 301.50
  Q 137.40 315.11 148.89 318.86
  Q 152.71 320.11 161.24 320.00
  Q 176.37 319.80 191.50 320.29"
/>
<path stroke="#bebebe" vector-effect="non-scaling-stroke" d="
  M 191.50 320.29
  L 160.39 351.97"
/>
<path stroke="#b9edfb" vector-effect="non-scaling-stroke" d="
  M 191.91 319.98
  L 319.85 192.02"
/>
<path stroke="#bdcccf" vector-effect="non-scaling-stroke" d="
  M 191.50 320.29
  L 191.91 319.98"
/>
<path stroke="#a1c7d1" vector-effect="non-scaling-stroke" d="
  M 191.91 319.98
  Q 271.55 320.03 350.98 319.98
  Q 360.09 319.98 364.23 318.51
  Q 374.57 314.85 377.43 303.48
  Q 386.60 267.05 395.64 230.60
  Q 399.12 216.55 399.23 214.99
  C 400.13 201.61 389.62 191.85 376.50 191.93
  Q 348.55 192.08 320.00 191.95"
/>
<path stroke="#9a9a9a" vector-effect="non-scaling-stroke" d="
  M 48.93 271.18
  C 69.73 289.79 97.62 262.53 79.21 240.93"
/>
<path stroke="#b4b4b4" vector-effect="non-scaling-stroke" d="
  M 79.21 240.93
  Q 72.00 233.34 61.40 234.64
  C 43.42 236.85 36.34 258.22 48.93 271.18"
/>
<path stroke="#787878" vector-effect="non-scaling-stroke" d="
  M 79.21 240.93
  L 48.93 271.18"
/>
<path stroke="#828282" vector-effect="non-scaling-stroke" d="
  M 432.83 271.24
  C 455.03 288.96 480.88 263.27 463.25 240.82"
/>
<path stroke="#9b9b9b" vector-effect="non-scaling-stroke" d="
  M 463.25 240.82
  C 442.94 220.53 412.46 250.47 432.83 271.24"
/>
<path stroke="#787878" vector-effect="non-scaling-stroke" d="
  M 463.25 240.82
  L 432.83 271.24"
/>
<path stroke="#7ea3ad" vector-effect="non-scaling-stroke" d="
  M 309.25 234.67
  A 10.58 10.58 0.0 0 0 298.67 224.09
  A 10.58 10.58 0.0 0 0 288.09 234.67
  A 10.58 10.58 0.0 0 0 298.67 245.25
  A 10.58 10.58 0.0 0 0 309.25 234.67"
/>
<path stroke="#7ea3ad" vector-effect="non-scaling-stroke" d="
  M 351.91 234.66
  A 10.58 10.58 0.0 0 0 341.33 224.08
  A 10.58 10.58 0.0 0 0 330.75 234.66
  A 10.58 10.58 0.0 0 0 341.33 245.24
  A 10.58 10.58 0.0 0 0 351.91 234.66"
/>
<path stroke="#7ea3ad" vector-effect="non-scaling-stroke" d="
  M 266.59 277.33
  A 10.58 10.58 0.0 0 0 256.01 266.75
  A 10.58 10.58 0.0 0 0 245.43 277.33
  A 10.58 10.58 0.0 0 0 256.01 287.91
  A 10.58 10.58 0.0 0 0 266.59 277.33"
/>
<path stroke="#7ea3ad" vector-effect="non-scaling-stroke" d="
  M 309.24 277.32
  A 10.58 10.58 0.0 0 0 298.66 266.74
  A 10.58 10.58 0.0 0 0 288.08 277.32
  A 10.58 10.58 0.0 0 0 298.66 287.90
  A 10.58 10.58 0.0 0 0 309.24 277.32"
/>
<path stroke="#7ea3ad" vector-effect="non-scaling-stroke" d="
  M 351.93 277.33
  A 10.59 10.59 0.0 0 0 341.34 266.74
  A 10.59 10.59 0.0 0 0 330.75 277.33
  A 10.59 10.59 0.0 0 0 341.34 287.92
  A 10.59 10.59 0.0 0 0 351.93 277.33"
/>
<path stroke="#99a8ac" vector-effect="non-scaling-stroke" d="
  M 181.24 234.66
  A 10.58 10.58 0.0 0 0 170.66 224.08
  A 10.58 10.58 0.0 0 0 160.08 234.66
  A 10.58 10.58 0.0 0 0 170.66 245.24
  A 10.58 10.58 0.0 0 0 181.24 234.66"
/>
<path stroke="#99a8ac" vector-effect="non-scaling-stroke" d="
  M 223.91 234.66
  A 10.58 10.58 0.0 0 0 213.33 224.08
  A 10.58 10.58 0.0 0 0 202.75 234.66
  A 10.58 10.58 0.0 0 0 213.33 245.24
  A 10.58 10.58 0.0 0 0 223.91 234.66"
/>
<path stroke="#99a8ac" vector-effect="non-scaling-stroke" d="
  M 266.56 234.67
  A 10.56 10.56 0.0 0 0 256.00 224.11
  A 10.56 10.56 0.0 0 0 245.44 234.67
  A 10.56 10.56 0.0 0 0 256.00 245.23
  A 10.56 10.56 0.0 0 0 266.56 234.67"
/>
<path stroke="#99a8ac" vector-effect="non-scaling-stroke" d="
  M 181.24 277.33
  A 10.58 10.58 0.0 0 0 170.66 266.75
  A 10.58 10.58 0.0 0 0 160.08 277.33
  A 10.58 10.58 0.0 0 0 170.66 287.91
  A 10.58 10.58 0.0 0 0 181.24 277.33"
/>
<path stroke="#99a8ac" vector-effect="non-scaling-stroke" d="
  M 223.92 277.33
  A 10.58 10.58 0.0 0 0 213.34 266.75
  A 10.58 10.58 0.0 0 0 202.76 277.33
  A 10.58 10.58 0.0 0 0 213.34 287.91
  A 10.58 10.58 0.0 0 0 223.92 277.33"
/>
</g>
<path fill="#d6d6d6" d="
  M 351.52 160.02
  L 320.00 191.95
  Q 320.53 191.52 319.85 192.02
  Q 228.74 191.97 137.88 192.02
  Q 129.94 192.02 126.40 193.32
  C 119.07 196.02 113.64 203.11 112.71 210.87
  Q 112.27 214.59 113.98 221.51
  Q 123.87 261.54 133.97 301.50
  Q 137.40 315.11 148.89 318.86
  Q 152.71 320.11 161.24 320.00
  Q 176.37 319.80 191.50 320.29
  L 160.39 351.97
  Q 92.27 352.03 23.31 351.99
  C 14.14 351.99 10.51 347.71 10.51 338.84
  Q 10.49 256.95 10.50 175.05
  C 10.50 165.94 12.57 160.02 22.51 160.01
  Q 186.68 159.97 351.52 160.02
  Z
  M 48.93 271.18
  C 69.73 289.79 97.62 262.53 79.21 240.93
  Q 72.00 233.34 61.40 234.64
  C 43.42 236.85 36.34 258.22 48.93 271.18
  Z"
/>
<path fill="#a5a5a5" d="
  M 351.52 160.02
  Q 418.67 159.98 486.45 160.01
  C 495.79 160.01 501.24 162.36 501.24 172.32
  Q 501.26 255.21 501.25 338.09
  C 501.25 347.84 497.84 351.98 488.13 351.99
  Q 324.70 352.03 160.39 351.97
  L 191.50 320.29
  L 191.91 319.98
  Q 271.55 320.03 350.98 319.98
  Q 360.09 319.98 364.23 318.51
  Q 374.57 314.85 377.43 303.48
  Q 386.60 267.05 395.64 230.60
  Q 399.12 216.55 399.23 214.99
  C 400.13 201.61 389.62 191.85 376.50 191.93
  Q 348.55 192.08 320.00 191.95
  L 351.52 160.02
  Z
  M 432.83 271.24
  C 455.03 288.96 480.88 263.27 463.25 240.82
  C 442.94 220.53 412.46 250.47 432.83 271.24
  Z"
/>
<path fill="#9de8fc" d="
  M 320.00 191.95
  Q 348.55 192.08 376.50 191.93
  C 389.62 191.85 400.13 201.61 399.23 214.99
  Q 399.12 216.55 395.64 230.60
  Q 386.60 267.05 377.43 303.48
  Q 374.57 314.85 364.23 318.51
  Q 360.09 319.98 350.98 319.98
  Q 271.55 320.03 191.91 319.98
  L 319.85 192.02
  Q 320.53 191.52 320.00 191.95
  Z
  M 309.25 234.67
  A 10.58 10.58 0.0 0 0 298.67 224.09
  A 10.58 10.58 0.0 0 0 288.09 234.67
  A 10.58 10.58 0.0 0 0 298.67 245.25
  A 10.58 10.58 0.0 0 0 309.25 234.67
  Z
  M 351.91 234.66
  A 10.58 10.58 0.0 0 0 341.33 224.08
  A 10.58 10.58 0.0 0 0 330.75 234.66
  A 10.58 10.58 0.0 0 0 341.33 245.24
  A 10.58 10.58 0.0 0 0 351.91 234.66
  Z
  M 266.59 277.33
  A 10.58 10.58 0.0 0 0 256.01 266.75
  A 10.58 10.58 0.0 0 0 245.43 277.33
  A 10.58 10.58 0.0 0 0 256.01 287.91
  A 10.58 10.58 0.0 0 0 266.59 277.33
  Z
  M 309.24 277.32
  A 10.58 10.58 0.0 0 0 298.66 266.74
  A 10.58 10.58 0.0 0 0 288.08 277.32
  A 10.58 10.58 0.0 0 0 298.66 287.90
  A 10.58 10.58 0.0 0 0 309.24 277.32
  Z
  M 351.93 277.33
  A 10.59 10.59 0.0 0 0 341.34 266.74
  A 10.59 10.59 0.0 0 0 330.75 277.33
  A 10.59 10.59 0.0 0 0 341.34 287.92
  A 10.59 10.59 0.0 0 0 351.93 277.33
  Z"
/>
<path fill="#d4f2f9" d="
  M 319.85 192.02
  L 191.91 319.98
  L 191.50 320.29
  Q 176.37 319.80 161.24 320.00
  Q 152.71 320.11 148.89 318.86
  Q 137.40 315.11 133.97 301.50
  Q 123.87 261.54 113.98 221.51
  Q 112.27 214.59 112.71 210.87
  C 113.64 203.11 119.07 196.02 126.40 193.32
  Q 129.94 192.02 137.88 192.02
  Q 228.74 191.97 319.85 192.02
  Z
  M 181.24 234.66
  A 10.58 10.58 0.0 0 0 170.66 224.08
  A 10.58 10.58 0.0 0 0 160.08 234.66
  A 10.58 10.58 0.0 0 0 170.66 245.24
  A 10.58 10.58 0.0 0 0 181.24 234.66
  Z
  M 223.91 234.66
  A 10.58 10.58 0.0 0 0 213.33 224.08
  A 10.58 10.58 0.0 0 0 202.75 234.66
  A 10.58 10.58 0.0 0 0 213.33 245.24
  A 10.58 10.58 0.0 0 0 223.91 234.66
  Z
  M 266.56 234.67
  A 10.56 10.56 0.0 0 0 256.00 224.11
  A 10.56 10.56 0.0 0 0 245.44 234.67
  A 10.56 10.56 0.0 0 0 256.00 245.23
  A 10.56 10.56 0.0 0 0 266.56 234.67
  Z
  M 181.24 277.33
  A 10.58 10.58 0.0 0 0 170.66 266.75
  A 10.58 10.58 0.0 0 0 160.08 277.33
  A 10.58 10.58 0.0 0 0 170.66 287.91
  A 10.58 10.58 0.0 0 0 181.24 277.33
  Z
  M 223.92 277.33
  A 10.58 10.58 0.0 0 0 213.34 266.75
  A 10.58 10.58 0.0 0 0 202.76 277.33
  A 10.58 10.58 0.0 0 0 213.34 287.91
  A 10.58 10.58 0.0 0 0 223.92 277.33
  Z"
/>
<circle fill="#5e5e5e" cx="170.66" cy="234.66" r="10.58"/>
<circle fill="#5e5e5e" cx="213.33" cy="234.66" r="10.58"/>
<circle fill="#5e5e5e" cx="256.00" cy="234.67" r="10.56"/>
<circle fill="#5e5e5e" cx="298.67" cy="234.67" r="10.58"/>
<circle fill="#5e5e5e" cx="341.33" cy="234.66" r="10.58"/>
<path fill="#919191" d="
  M 463.25 240.82
  L 432.83 271.24
  C 412.46 250.47 442.94 220.53 463.25 240.82
  Z"
/>
<path fill="#919191" d="
  M 79.21 240.93
  L 48.93 271.18
  C 36.34 258.22 43.42 236.85 61.40 234.64
  Q 72.00 233.34 79.21 240.93
  Z"
/>
<path fill="#5e5e5e" d="
  M 463.25 240.82
  C 480.88 263.27 455.03 288.96 432.83 271.24
  L 463.25 240.82
  Z"
/>
<path fill="#5e5e5e" d="
  M 79.21 240.93
  C 97.62 262.53 69.73 289.79 48.93 271.18
  L 79.21 240.93
  Z"
/>
<circle fill="#5e5e5e" cx="170.66" cy="277.33" r="10.58"/>
<circle fill="#5e5e5e" cx="213.34" cy="277.33" r="10.58"/>
<circle fill="#5e5e5e" cx="256.01" cy="277.33" r="10.58"/>
<circle fill="#5e5e5e" cx="298.66" cy="277.32" r="10.58"/>
<circle fill="#5e5e5e" cx="341.34" cy="277.33" r="10.59"/>
</svg>
