<?xml version="1.0" encoding="UTF-8" standalone="no"?>
<!DOCTYPE svg PUBLIC "-//W3C//DTD SVG 1.1//EN" "http://www.w3.org/Graphics/SVG/1.1/DTD/svg11.dtd">
<svg xmlns="http://www.w3.org/2000/svg" version="1.1" viewBox="0.00 0.00 512.00 512.00">
<g stroke-width="2.00" fill="none" stroke-linecap="butt">
<path stroke="#04f47e" vector-effect="non-scaling-stroke" d="
  M 19.17 0.00
  C 31.80 4.82 31.39 15.21 30.66 26.75
  Q 30.56 28.39 31.26 29.73
  Q 31.45 30.10 31.28 30.48
  Q 31.14 30.80 30.99 30.73"
/>
<path stroke="#04f47e" vector-effect="non-scaling-stroke" d="
  M 151.69 181.06
  Q 162.26 187.03 162.17 197.25
  C 162.16 198.86 162.76 211.52 161.99 211.76"
/>
<path stroke="#04f47e" vector-effect="non-scaling-stroke" d="
  M 281.99 180.90
  Q 290.07 185.95 294.30 195.45
  Q 301.24 211.06 300.81 227.07"
/>
<path stroke="#04f47e" vector-effect="non-scaling-stroke" d="
  M 301.16 283.51
  C 301.23 300.41 296.70 319.24 283.52 330.79"
/>
<path stroke="#04f47e" vector-effect="non-scaling-stroke" d="
  M 376.29 181.09
  Q 377.78 182.38 379.49 183.50
  C 384.86 187.01 386.73 191.55 386.75 197.99
  Q 386.76 204.89 386.81 211.80"
/>
<path stroke="#04f47e" vector-effect="non-scaling-stroke" d="
  M 151.82 0.20
  Q 159.76 6.75 163.43 15.31
  Q 169.77 30.05 169.86 47.14"
/>
<path stroke="#04f47e" vector-effect="non-scaling-stroke" d="
  M 169.84 102.68
  Q 169.90 121.57 162.10 137.58
  Q 158.25 145.47 150.93 150.00"
/>
<path stroke="#04f47e" vector-effect="non-scaling-stroke" d="
  M 244.33 0.00
  C 258.38 5.78 255.98 18.21 256.12 30.32
  Q 256.12 30.64 255.82 30.73
  Q 255.56 30.80 255.50 30.96"
/>
<path stroke="#04f47e" vector-effect="non-scaling-stroke" d="
  M 376.59 0.22
  C 390.58 10.61 395.10 31.70 395.23 48.39"
/>
<path stroke="#04f47e" vector-effect="non-scaling-stroke" d="
  M 394.75 103.11
  Q 395.12 113.92 391.49 126.25
  C 389.25 133.87 385.88 142.37 379.86 146.95
  Q 378.04 148.34 376.50 149.94"
/>
<path stroke="#04f47e" vector-effect="non-scaling-stroke" d="
  M 469.93 0.00
  Q 471.03 0.88 472.29 1.56
  C 478.10 4.73 481.18 10.30 481.11 16.98
  Q 481.03 23.96 481.02 30.93"
/>
<path stroke="#04f47e" vector-effect="non-scaling-stroke" d="
  M 58.34 181.18
  Q 68.15 188.91 72.25 201.97
  Q 76.69 216.09 76.75 228.61"
/>
<path stroke="#04f47e" vector-effect="non-scaling-stroke" d="
  M 76.63 284.22
  Q 76.52 300.48 70.57 314.80
  Q 67.03 323.33 59.30 330.81"
/>
<path stroke="#04f47e" vector-effect="non-scaling-stroke" d="
  M 470.29 181.08
  C 478.05 185.90 480.98 189.60 481.00 199.14
  Q 481.01 205.48 481.05 211.76"
/>
<path stroke="#04f47e" vector-effect="non-scaling-stroke" d="
  M 20.11 362.09
  C 28.06 365.99 30.72 371.36 30.87 380.26
  Q 30.98 386.50 31.01 392.77"
/>
<path stroke="#04f47e" vector-effect="non-scaling-stroke" d="
  M 150.79 362.03
  Q 159.30 367.67 163.28 376.96
  Q 169.84 392.25 169.84 409.15"
/>
<path stroke="#04f47e" vector-effect="non-scaling-stroke" d="
  M 169.58 465.75
  Q 169.85 481.53 163.54 496.28
  Q 159.70 505.27 152.08 511.62"
/>
<path stroke="#04f47e" vector-effect="non-scaling-stroke" d="
  M 246.43 362.10
  Q 254.82 368.29 255.71 375.00
  Q 256.29 379.35 255.97 390.46
  Q 255.95 391.02 256.24 391.51
  L 256.38 391.75
  Q 256.62 392.15 256.35 392.53
  Q 256.15 392.79 255.98 392.76"
/>
<path stroke="#04f47e" vector-effect="non-scaling-stroke" d="
  M 377.41 362.16
  Q 385.15 369.45 388.41 377.08
  C 391.32 383.89 396.97 401.34 394.43 408.72"
/>
<path stroke="#04f47e" vector-effect="non-scaling-stroke" d="
  M 394.79 465.34
  Q 394.88 481.81 388.61 496.41
  C 386.56 501.17 383.79 505.93 379.55 509.06
  Q 377.94 510.25 376.62 511.84"
/>
<path stroke="#04f47e" vector-effect="non-scaling-stroke" d="
  M 470.45 362.11
  C 476.03 365.22 481.00 370.53 481.00 376.50
  Q 481.01 384.63 481.06 392.81"
/>
</g>
<path fill="#05ff77" d="
  M 14.30 0.00
  L 19.17 0.00
  C 31.80 4.82 31.39 15.21 30.66 26.75
  Q 30.56 28.39 31.26 29.73
  Q 31.45 30.10 31.28 30.48
  Q 31.14 30.80 30.99 30.73
  C 18.91 31.92 2.39 32.88 0.00 16.69
  L 0.00 13.96
  Q 2.23 1.87 14.30 0.00
  Z"
/>
<path fill="#02e885" d="
  M 19.17 0.00
  L 47.80 0.00
  C 58.48 1.91 61.76 8.86 61.75 18.94
  Q 61.74 75.17 61.75 131.40
  Q 61.76 137.49 60.56 140.43
  C 55.34 153.26 36.97 153.07 31.99 140.14
  Q 31.00 137.57 31.00 132.23
  Q 31.01 81.55 30.99 30.73
  Q 31.14 30.80 31.28 30.48
  Q 31.45 30.10 31.26 29.73
  Q 30.56 28.39 30.66 26.75
  C 31.39 15.21 31.80 4.82 19.17 0.00
  Z"
/>
<path fill="#05ff77" d="
  M 146.27 0.00
  L 149.55 0.00
  Q 150.64 0.48 151.82 0.20
  Q 159.76 6.75 163.43 15.31
  Q 169.77 30.05 169.86 47.14
  Q 164.96 36.30 156.43 32.82
  C 144.10 27.80 130.03 33.67 125.62 46.07
  Q 124.24 49.93 124.24 57.61
  Q 124.26 74.84 124.25 92.08
  Q 124.25 100.36 125.68 104.24
  C 130.52 117.38 145.49 122.37 157.98 116.48
  Q 165.48 112.95 169.84 102.68
  Q 169.90 121.57 162.10 137.58
  Q 158.25 145.47 150.93 150.00
  C 123.80 151.08 100.27 133.69 94.58 107.36
  Q 93.21 101.02 93.24 88.04
  Q 93.28 71.52 93.23 55.00
  C 93.15 24.24 115.79 2.12 146.27 0.00
  Z"
/>
<path fill="#05ff77" d="
  M 239.29 0.00
  L 244.33 0.00
  C 258.38 5.78 255.98 18.21 256.12 30.32
  Q 256.12 30.64 255.82 30.73
  Q 255.56 30.80 255.50 30.96
  C 249.10 31.10 239.79 31.96 234.15 29.34
  C 219.61 22.60 223.62 2.27 239.29 0.00
  Z"
/>
<path fill="#02e885" d="
  M 244.33 0.00
  L 272.82 0.00
  Q 286.96 2.75 286.98 17.32
  Q 287.03 75.40 286.97 133.50
  C 286.94 155.18 256.11 155.35 256.08 134.00
  Q 256.00 82.66 256.00 31.31
  A 0.33 0.32 6.9 0 0 255.75 31.00
  Q 255.60 30.97 255.50 30.96
  Q 255.56 30.80 255.82 30.73
  Q 256.12 30.64 256.12 30.32
  C 255.98 18.21 258.38 5.78 244.33 0.00
  Z"
/>
<path fill="#05ff77" d="
  M 371.27 0.00
  L 374.55 0.00
  Q 375.68 0.48 376.59 0.22
  C 390.58 10.61 395.10 31.70 395.23 48.39
  Q 391.57 38.19 383.19 33.70
  C 371.01 27.17 355.53 33.00 350.78 45.83
  Q 349.27 49.90 349.25 59.38
  Q 349.23 76.58 349.27 93.77
  Q 349.29 99.50 350.19 102.50
  C 354.29 116.14 369.44 122.79 382.13 116.94
  Q 390.39 113.13 394.75 103.11
  Q 395.12 113.92 391.49 126.25
  C 389.25 133.87 385.88 142.37 379.86 146.95
  Q 378.04 148.34 376.50 149.94
  C 348.81 151.47 324.51 133.08 319.39 106.12
  Q 318.28 100.26 318.25 86.19
  Q 318.21 71.34 318.21 56.50
  C 318.21 25.14 339.52 2.24 371.27 0.00
  Z"
/>
<path fill="#05ff77" d="
  M 464.31 0.00
  L 469.93 0.00
  Q 471.03 0.88 472.29 1.56
  C 478.10 4.73 481.18 10.30 481.11 16.98
  Q 481.03 23.96 481.02 30.93
  C 474.12 31.13 464.39 32.01 458.59 29.05
  C 444.38 21.80 449.29 2.55 464.31 0.00
  Z"
/>
<path fill="#02e885" d="
  M 469.93 0.00
  L 498.04 0.00
  Q 510.15 2.24 512.00 14.31
  L 512.00 136.04
  C 509.01 155.91 481.05 153.42 481.02 134.44
  Q 480.96 82.71 481.02 30.93
  Q 481.03 23.96 481.11 16.98
  C 481.18 10.30 478.10 4.73 472.29 1.56
  Q 471.03 0.88 469.93 0.00
  Z"
/>
<path fill="#02e885" d="
  M 151.82 0.20
  C 175.09 2.82 194.33 18.41 199.79 41.32
  Q 201.16 47.08 201.35 59.82
  Q 201.78 88.63 201.24 99.50
  C 199.93 126.20 177.87 147.58 150.93 150.00
  Q 158.25 145.47 162.10 137.58
  Q 169.90 121.57 169.84 102.68
  Q 170.02 100.62 170.27 98.05
  Q 170.49 95.72 170.49 93.43
  Q 170.52 73.90 170.48 54.38
  Q 170.47 52.86 170.12 50.77
  Q 169.75 48.55 169.86 47.14
  Q 169.77 30.05 163.43 15.31
  Q 159.76 6.75 151.82 0.20
  Z"
/>
<path fill="#02e885" d="
  M 376.59 0.22
  C 400.88 2.49 420.39 19.56 425.23 43.15
  Q 426.47 49.21 426.50 63.05
  Q 426.54 79.03 426.50 95.00
  C 426.43 123.91 405.56 147.04 376.50 149.94
  Q 378.04 148.34 379.86 146.95
  C 385.88 142.37 389.25 133.87 391.49 126.25
  Q 395.12 113.92 394.75 103.11
  Q 395.48 98.73 395.50 96.50
  Q 395.70 72.35 395.23 48.39
  C 395.10 31.70 390.58 10.61 376.59 0.22
  Z"
/>
<path fill="#05ff77" d="
  M 58.34 181.18
  Q 68.15 188.91 72.25 201.97
  Q 76.69 216.09 76.75 228.61
  Q 72.33 218.15 64.25 214.27
  C 51.93 208.34 37.02 214.20 32.37 227.16
  Q 30.98 231.02 30.99 239.04
  Q 31.00 256.26 31.02 273.48
  Q 31.03 281.39 32.44 285.20
  C 36.05 294.90 46.38 301.08 56.52 299.98
  Q 69.61 298.57 76.63 284.22
  Q 76.52 300.48 70.57 314.80
  Q 67.03 323.33 59.30 330.81
  Q 32.41 332.75 14.31 313.44
  Q 0.79 299.02 0.00 277.92
  L 0.00 233.44
  C 1.69 202.17 27.04 179.24 58.34 181.18
  Z"
/>
<path fill="#05ff77" d="
  M 151.69 181.06
  Q 162.26 187.03 162.17 197.25
  C 162.16 198.86 162.76 211.52 161.99 211.76
  C 152.42 211.73 137.98 214.34 132.99 203.26
  C 128.45 193.20 134.44 182.57 145.25 181.02
  Q 146.61 180.82 151.69 181.06
  Z"
/>
<path fill="#02e885" d="
  M 151.69 181.06
  Q 163.52 180.98 174.42 180.99
  Q 180.65 180.99 183.86 182.38
  C 192.47 186.12 193.24 193.29 193.24 202.55
  Q 193.27 258.39 193.15 314.24
  Q 193.13 326.43 182.52 330.29
  C 175.46 332.86 166.37 328.71 163.47 321.54
  Q 162.27 318.58 162.26 312.17
  Q 162.24 262.34 162.29 212.50
  Q 162.29 212.17 161.99 211.76
  C 162.76 211.52 162.16 198.86 162.17 197.25
  Q 162.26 187.03 151.69 181.06
  Z"
/>
<path fill="#05ff77" d="
  M 281.99 180.90
  Q 290.07 185.95 294.30 195.45
  Q 301.24 211.06 300.81 227.07
  Q 292.83 211.65 278.22 212.01
  C 268.50 212.24 260.16 218.15 256.94 227.29
  Q 255.49 231.40 255.49 240.36
  Q 255.50 256.77 255.51 273.17
  Q 255.52 280.79 256.85 284.54
  C 264.59 306.47 293.06 304.20 301.16 283.51
  C 301.23 300.41 296.70 319.24 283.52 330.79
  Q 274.97 331.51 266.27 329.47
  C 245.14 324.50 229.67 307.79 225.64 286.67
  Q 224.48 280.53 224.49 266.75
  C 224.51 247.09 221.61 225.13 232.37 207.47
  Q 248.53 180.95 281.99 180.90
  Z"
/>
<path fill="#02e885" d="
  M 281.99 180.90
  C 306.58 183.57 326.34 199.60 331.42 223.91
  C 334.03 236.42 332.77 254.00 332.73 268.17
  Q 332.69 282.26 331.48 288.09
  C 326.63 311.38 307.42 328.06 283.52 330.79
  C 296.70 319.24 301.23 300.41 301.16 283.51
  Q 301.19 282.10 301.46 280.32
  Q 301.74 278.53 301.74 277.15
  Q 301.77 255.78 301.73 234.41
  Q 301.73 232.76 301.31 230.76
  Q 300.87 228.61 300.81 227.07
  Q 301.24 211.06 294.30 195.45
  Q 290.07 185.95 281.99 180.90
  Z"
/>
<path fill="#05ff77" d="
  M 376.29 181.09
  Q 377.78 182.38 379.49 183.50
  C 384.86 187.01 386.73 191.55 386.75 197.99
  Q 386.76 204.89 386.81 211.80
  C 380.93 211.77 371.22 212.84 365.91 210.82
  C 355.50 206.87 352.80 193.77 360.26 185.87
  Q 366.07 179.73 376.29 181.09
  Z"
/>
<path fill="#02e885" d="
  M 376.29 181.09
  Q 387.20 180.97 398.20 180.98
  C 412.22 180.98 417.74 186.58 417.74 200.58
  Q 417.75 257.92 417.55 315.25
  C 417.49 332.89 393.36 337.05 387.76 320.54
  Q 386.77 317.62 386.76 310.22
  Q 386.70 261.00 386.81 211.80
  Q 386.76 204.89 386.75 197.99
  C 386.73 191.55 384.86 187.01 379.49 183.50
  Q 377.78 182.38 376.29 181.09
  Z"
/>
<path fill="#05ff77" d="
  M 470.29 181.08
  C 478.05 185.90 480.98 189.60 481.00 199.14
  Q 481.01 205.48 481.05 211.76
  Q 473.69 211.76 466.43 211.74
  C 443.39 211.65 445.40 177.97 470.29 181.08
  Z"
/>
<path fill="#02e885" d="
  M 470.29 181.08
  Q 481.59 180.97 492.96 180.99
  C 503.20 181.00 510.31 184.37 512.00 195.31
  L 512.00 317.06
  C 509.40 333.74 486.81 336.19 481.84 320.01
  Q 481.02 317.34 481.01 310.79
  Q 480.95 261.31 481.05 211.76
  Q 481.01 205.48 481.00 199.14
  C 480.98 189.60 478.05 185.90 470.29 181.08
  Z"
/>
<path fill="#02e885" d="
  M 58.34 181.18
  C 81.47 183.32 100.57 199.19 106.30 221.41
  Q 108.02 228.08 108.20 241.24
  Q 108.46 261.00 108.01 280.75
  C 107.92 284.81 106.36 291.55 104.67 295.81
  Q 92.76 325.72 59.30 330.81
  Q 67.03 323.33 70.57 314.80
  Q 76.52 300.48 76.63 284.22
  Q 78.06 256.68 76.75 228.61
  Q 76.69 216.09 72.25 201.97
  Q 68.15 188.91 58.34 181.18
  Z"
/>
<path fill="#05ff77" d="
  M 20.11 362.09
  C 28.06 365.99 30.72 371.36 30.87 380.26
  Q 30.98 386.50 31.01 392.77
  C 18.55 392.73 2.92 395.81 0.00 378.67
  L 0.00 375.89
  Q 3.36 360.35 20.11 362.09
  Z"
/>
<path fill="#02e885" d="
  M 20.11 362.09
  Q 31.52 361.98 42.70 361.97
  C 56.15 361.96 61.76 367.63 61.76 381.06
  Q 61.74 437.06 61.76 493.06
  C 61.76 503.18 58.42 510.14 47.68 512.00
  L 44.97 512.00
  C 34.84 510.20 31.00 503.66 31.00 494.01
  Q 30.99 443.36 31.01 392.77
  Q 30.98 386.50 30.87 380.26
  C 30.72 371.36 28.06 365.99 20.11 362.09
  Z"
/>
<path fill="#05ff77" d="
  M 150.79 362.03
  Q 159.30 367.67 163.28 376.96
  Q 169.84 392.25 169.84 409.15
  Q 164.67 397.46 155.43 394.32
  C 143.27 390.18 129.96 395.97 125.64 407.94
  Q 124.26 411.77 124.25 419.25
  Q 124.23 437.43 124.27 455.63
  Q 124.29 462.41 125.64 466.08
  C 129.42 476.34 140.64 482.61 151.27 480.74
  Q 163.09 478.66 169.58 465.75
  Q 169.85 481.53 163.54 496.28
  Q 159.70 505.27 152.08 511.62
  L 148.68 512.00
  L 146.18 512.00
  C 121.16 510.61 99.74 494.19 94.50 469.35
  Q 93.30 463.66 93.27 450.93
  Q 93.22 433.72 93.29 416.50
  C 93.41 384.50 118.81 361.11 150.79 362.03
  Z"
/>
<path fill="#02e885" d="
  M 150.79 362.03
  C 174.53 364.10 194.18 380.20 199.71 403.14
  Q 201.28 409.67 201.39 423.00
  Q 201.53 440.50 201.22 458.00
  C 200.74 485.75 180.62 509.22 152.08 511.62
  Q 159.70 505.27 163.54 496.28
  Q 169.85 481.53 169.58 465.75
  Q 169.65 463.86 170.08 461.23
  Q 170.49 458.76 170.49 456.73
  Q 170.52 436.39 170.48 416.05
  Q 170.47 414.56 170.14 412.61
  Q 169.77 410.50 169.84 409.15
  Q 169.84 392.25 163.28 376.96
  Q 159.30 367.67 150.79 362.03
  Z"
/>
<path fill="#05ff77" d="
  M 246.43 362.10
  Q 254.82 368.29 255.71 375.00
  Q 256.29 379.35 255.97 390.46
  Q 255.95 391.02 256.24 391.51
  L 256.38 391.75
  Q 256.62 392.15 256.35 392.53
  Q 256.15 392.79 255.98 392.76
  C 249.98 392.75 240.48 393.81 235.17 391.83
  C 220.04 386.18 222.86 365.15 238.33 362.05
  Q 240.28 361.66 246.43 362.10
  Z"
/>
<path fill="#02e885" d="
  M 246.43 362.10
  Q 258.30 361.97 268.78 361.97
  C 279.39 361.97 286.96 367.18 286.97 378.82
  Q 287.04 436.52 287.01 494.24
  Q 287.00 509.32 272.74 512.00
  L 270.19 512.00
  C 258.48 510.00 255.99 502.44 255.99 491.49
  Q 256.02 442.16 255.98 392.76
  Q 256.15 392.79 256.35 392.53
  Q 256.62 392.15 256.38 391.75
  L 256.24 391.51
  Q 255.95 391.02 255.97 390.46
  Q 256.29 379.35 255.71 375.00
  Q 254.82 368.29 246.43 362.10
  Z"
/>
<path fill="#05ff77" d="
  M 377.41 362.16
  Q 385.15 369.45 388.41 377.08
  C 391.32 383.89 396.97 401.34 394.43 408.72
  C 388.50 393.18 370.79 387.94 357.71 398.20
  C 350.40 403.93 349.24 411.19 349.25 420.95
  Q 349.28 436.85 349.22 452.76
  Q 349.19 460.98 350.54 465.11
  C 354.62 477.53 367.84 483.96 380.00 479.71
  Q 389.45 476.41 394.79 465.34
  Q 394.88 481.81 388.61 496.41
  C 386.56 501.17 383.79 505.93 379.55 509.06
  Q 377.94 510.25 376.62 511.84
  Q 375.09 511.50 373.68 512.00
  L 371.20 512.00
  C 346.62 511.02 325.95 494.58 320.01 470.90
  Q 318.45 464.69 318.36 453.97
  Q 318.24 440.58 318.33 417.50
  C 318.43 391.78 334.35 370.04 359.16 363.63
  Q 367.94 361.36 377.41 362.16
  Z"
/>
<path fill="#05ff77" d="
  M 470.45 362.11
  C 476.03 365.22 481.00 370.53 481.00 376.50
  Q 481.01 384.63 481.06 392.81
  C 475.13 392.79 465.09 393.87 459.78 391.63
  C 449.85 387.43 447.13 375.04 454.28 367.12
  Q 460.09 360.67 470.45 362.11
  Z"
/>
<path fill="#02e885" d="
  M 470.45 362.11
  Q 482.00 361.95 493.46 361.98
  C 503.46 362.01 510.38 365.66 512.00 376.31
  L 512.00 498.05
  Q 509.72 510.16 497.70 512.00
  L 495.19 512.00
  C 481.89 509.44 481.00 500.74 480.99 488.25
  Q 480.96 440.51 481.06 392.81
  Q 481.01 384.63 481.00 376.50
  C 481.00 370.53 476.03 365.22 470.45 362.11
  Z"
/>
<path fill="#02e885" d="
  M 377.41 362.16
  C 405.22 365.80 425.78 386.88 426.24 415.06
  Q 426.57 435.53 426.54 456.00
  C 426.49 485.42 406.44 508.75 376.62 511.84
  Q 377.94 510.25 379.55 509.06
  C 383.79 505.93 386.56 501.17 388.61 496.41
  Q 394.88 481.81 394.79 465.34
  Q 394.77 463.79 395.14 461.60
  Q 395.49 459.48 395.50 457.88
  Q 395.52 436.22 395.48 414.55
  C 395.48 412.50 394.99 410.57 394.43 408.72
  C 396.97 401.34 391.32 383.89 388.41 377.08
  Q 385.15 369.45 377.41 362.16
  Z"
/>
</svg>
