<?xml version="1.0" encoding="UTF-8" standalone="no"?>
<!DOCTYPE svg PUBLIC "-//W3C//DTD SVG 1.1//EN" "http://www.w3.org/Graphics/SVG/1.1/DTD/svg11.dtd">
<svg xmlns="http://www.w3.org/2000/svg" version="1.1" viewBox="0.00 0.00 512.00 512.00">
<g stroke-width="2.00" fill="none" stroke-linecap="butt">
<path stroke="#ffb6a2" vector-effect="non-scaling-stroke" d="
  M 152.43 221.71
  Q 157.45 224.48 159.22 227.29
  Q 184.12 267.03 208.91 306.83
  Q 211.53 311.03 212.26 316.00"
/>
<path stroke="#ffa755" vector-effect="non-scaling-stroke" d="
  M 212.26 316.00
  Q 212.26 316.21 212.04 316.25"
/>
<path stroke="#ff5e94" vector-effect="non-scaling-stroke" d="
  M 212.04 316.25
  C 211.86 315.58 211.11 316.00 210.64 316.00
  Q 105.32 315.99 0.00 316.01"
/>
<path stroke="#dfe97c" vector-effect="non-scaling-stroke" d="
  M 302.50 221.60
  Q 302.56 222.28 303.22 222.53
  Q 306.76 223.87 309.01 227.42
  Q 334.66 267.88 359.97 308.54
  Q 361.69 311.30 362.00 316.01"
/>
<path stroke="#ffdc4d" vector-effect="non-scaling-stroke" d="
  M 362.00 316.01
  L 212.26 316.00"
/>
<path stroke="#5fe16f" vector-effect="non-scaling-stroke" d="
  M 512.00 316.03
  L 362.00 316.01"
/>
<path stroke="#ff853f" vector-effect="non-scaling-stroke" d="
  M 212.04 316.25
  Q 212.03 320.40 209.97 323.71
  Q 194.61 348.50 162.86 399.12
  C 159.57 404.36 157.64 407.90 151.73 410.54"
/>
<path stroke="#80d440" vector-effect="non-scaling-stroke" d="
  M 362.00 316.01
  Q 362.18 320.13 359.95 323.72
  Q 334.94 363.93 309.81 404.07
  Q 307.27 408.13 301.36 410.89"
/>
</g>
<path fill="#5f55af" d="
  M 228.97 97.47
  C 242.97 93.66 257.95 99.07 263.90 112.76
  Q 269.18 124.88 268.68 140.51
  C 268.06 159.89 261.30 180.84 237.98 180.72
  C 222.88 180.64 212.59 171.92 208.76 157.46
  C 203.72 138.39 204.34 104.17 228.97 97.47
  Z
  M 247.72 130.25
  C 247.49 123.78 246.59 108.92 235.68 111.34
  C 224.53 113.82 227.50 143.58 227.90 152.07
  C 228.23 158.93 232.59 170.01 241.94 164.68
  C 249.15 160.57 247.96 137.09 247.72 130.25
  Z"
/>
<path fill="#5f55af" d="
  M 90.80 118.03
  L 74.55 127.67
  A 0.54 0.53 58.2 0 1 73.83 127.50
  L 65.74 115.27
  Q 65.40 114.74 65.93 114.42
  Q 78.09 107.04 90.28 99.81
  C 95.45 96.75 105.15 97.91 111.11 98.06
  Q 111.75 98.07 111.75 98.72
  L 111.75 178.25
  Q 111.75 178.75 111.25 178.75
  L 91.74 178.75
  Q 91.23 178.75 91.23 178.24
  L 91.29 118.31
  Q 91.29 117.74 90.80 118.03
  Z"
/>
<path fill="#5f55af" d="
  M 380.69 118.03
  L 364.55 127.75
  Q 364.15 128.00 363.89 127.60
  L 355.75 115.26
  Q 355.41 114.76 355.93 114.44
  Q 368.15 106.99 380.42 99.66
  C 384.62 97.15 392.76 97.70 401.28 98.23
  Q 401.73 98.26 401.73 98.70
  L 401.67 178.29
  Q 401.67 178.75 401.21 178.75
  L 381.73 178.75
  Q 381.20 178.75 381.20 178.22
  L 381.36 118.41
  Q 381.37 117.63 380.69 118.03
  Z"
/>
<path fill="#ff80aa" d="
  M 152.43 221.71
  Q 157.45 224.48 159.22 227.29
  Q 184.12 267.03 208.91 306.83
  Q 211.53 311.03 212.26 316.00
  Q 212.26 316.21 212.04 316.25
  C 211.86 315.58 211.11 316.00 210.64 316.00
  Q 105.32 315.99 0.00 316.01
  L 0.00 235.21
  C 2.89 222.96 10.76 221.52 22.63 221.51
  Q 84.08 221.49 145.52 221.50
  C 147.52 221.50 150.11 221.89 152.43 221.71
  Z"
/>
<path fill="#ffeb99" d="
  M 302.50 221.60
  Q 302.56 222.28 303.22 222.53
  Q 306.76 223.87 309.01 227.42
  Q 334.66 267.88 359.97 308.54
  Q 361.69 311.30 362.00 316.01
  L 212.26 316.00
  Q 211.53 311.03 208.91 306.83
  Q 184.12 267.03 159.22 227.29
  Q 157.45 224.48 152.43 221.71
  L 302.50 221.60
  Z"
/>
<path fill="#bee75e" d="
  M 302.50 221.60
  Q 373.71 221.42 444.92 221.51
  C 451.31 221.52 455.95 223.07 459.22 228.29
  Q 483.47 266.94 507.55 305.69
  Q 509.95 309.54 512.00 313.56
  L 512.00 316.03
  L 362.00 316.01
  Q 361.69 311.30 359.97 308.54
  Q 334.66 267.88 309.01 227.42
  Q 306.76 223.87 303.22 222.53
  Q 302.56 222.28 302.50 221.60
  Z"
/>
<path fill="#ff3c7d" d="
  M 212.04 316.25
  Q 212.03 320.40 209.97 323.71
  Q 194.61 348.50 162.86 399.12
  C 159.57 404.36 157.64 407.90 151.73 410.54
  Q 83.55 410.42 15.31 410.75
  C 7.81 410.79 1.97 405.21 0.00 398.18
  L 0.00 316.01
  Q 105.32 315.99 210.64 316.00
  C 211.11 316.00 211.86 315.58 212.04 316.25
  Z"
/>
<path fill="#ffcd00" d="
  M 212.26 316.00
  L 362.00 316.01
  Q 362.18 320.13 359.95 323.72
  Q 334.94 363.93 309.81 404.07
  Q 307.27 408.13 301.36 410.89
  Q 291.14 410.76 280.56 410.78
  Q 220.20 410.85 159.83 410.80
  C 157.44 410.80 154.54 411.14 151.73 410.54
  C 157.64 407.90 159.57 404.36 162.86 399.12
  Q 194.61 348.50 209.97 323.71
  Q 212.03 320.40 212.04 316.25
  Q 212.26 316.21 212.26 316.00
  Z"
/>
<path fill="#00da80" d="
  M 362.00 316.01
  L 512.00 316.03
  L 512.00 319.72
  Q 486.34 361.44 460.10 403.09
  C 455.59 410.25 450.30 410.99 442.44 411.00
  Q 372.07 411.08 301.36 410.89
  Q 307.27 408.13 309.81 404.07
  Q 334.94 363.93 359.95 323.72
  Q 362.18 320.13 362.00 316.01
  Z"
/>
</svg>
