<svg xmlns="http://www.w3.org/2000/svg" viewBox="0 0 39.69 40.08"><defs><style>.cls-1{fill:#72bcd4;}.cls-1,.cls-2{fill-rule:evenodd;}.cls-2{fill:#fefefe;}</style></defs><g id="Слой_2" data-name="Слой 2"><g id="Слой_1-2" data-name="Слой 1"><path class="cls-1" d="M19.84,40.08A20,20,0,0,0,19.84,0a20,20,0,0,0,0,40.08Z"/><path class="cls-2" d="M30.33,19l-7.91-4.64L14.49,9.76a1.13,1.13,0,0,0-1.2,0,1.23,1.23,0,0,0-.59,1.06V29.29a1.22,1.22,0,0,0,.59,1,1.13,1.13,0,0,0,1.2,0l7.93-4.61,7.91-4.64a1.14,1.14,0,0,0,.6-1,1.17,1.17,0,0,0-.6-1Zm-2.69.72-6.13-3.55L15.42,12.6a.47.47,0,0,0-.4,0,.36.36,0,0,0-.19.34V27.2a.36.36,0,0,0,.19.34.33.33,0,0,0,.4,0L21.51,24l6.13-3.58a.4.4,0,0,0,.2-.34.44.44,0,0,0-.2-.34Z"/></g></g></svg>