<?xml version="1.0" encoding="UTF-8" standalone="no"?>
<!DOCTYPE svg PUBLIC "-//W3C//DTD SVG 1.1//EN" "http://www.w3.org/Graphics/SVG/1.1/DTD/svg11.dtd">
<svg xmlns="http://www.w3.org/2000/svg" version="1.1" viewBox="0.00 0.00 512.00 512.00">
<g stroke-width="2.00" fill="none" stroke-linecap="butt">
<path stroke="#81dcff" vector-effect="non-scaling-stroke" d="
  M 371.47 200.38
  C 314.69 167.77 257.94 135.09 201.03 102.71
  C 164.14 81.72 116.83 99.49 108.06 142.36
  Q 106.74 148.77 106.74 162.25
  Q 106.74 256.68 106.76 351.11
  Q 106.76 363.40 108.16 369.65
  C 116.23 405.76 153.82 426.24 188.45 415.01
  Q 194.52 413.04 206.37 406.25
  Q 290.18 358.25 373.99 310.27
  C 401.68 294.42 414.60 261.53 402.57 231.56
  C 397.41 218.70 382.86 206.92 371.47 200.38"
/>
<path stroke="#81dcff" vector-effect="non-scaling-stroke" d="
  M 355.04 234.00
  C 297.40 200.84 239.72 167.73 181.93 134.82
  C 172.92 129.69 168.42 129.15 159.04 132.84
  Q 148.08 137.16 144.56 147.43
  Q 142.98 152.04 142.98 164.20
  Q 143.01 258.06 143.01 351.92
  Q 143.01 360.72 144.45 364.78
  C 148.54 376.28 161.92 382.55 173.47 380.28
  Q 178.27 379.34 188.89 373.26
  Q 272.63 325.34 356.40 277.46
  C 361.34 274.63 362.71 272.00 365.36 268.03
  C 374.19 254.77 367.27 241.04 355.04 234.00"
/>
</g>
<path fill="#03b8ff" d="
  M 249.59 0.00
  L 262.78 0.00
  C 400.35 4.48 508.40 113.76 512.00 251.08
  L 512.00 260.29
  C 508.99 398.31 399.34 508.51 261.19 512.00
  L 249.46 512.00
  C 112.08 507.49 4.01 398.86 0.00 261.68
  L 0.00 250.70
  C 3.98 113.54 111.67 4.25 249.59 0.00
  Z
  M 371.47 200.38
  C 314.69 167.77 257.94 135.09 201.03 102.71
  C 164.14 81.72 116.83 99.49 108.06 142.36
  Q 106.74 148.77 106.74 162.25
  Q 106.74 256.68 106.76 351.11
  Q 106.76 363.40 108.16 369.65
  C 116.23 405.76 153.82 426.24 188.45 415.01
  Q 194.52 413.04 206.37 406.25
  Q 290.18 358.25 373.99 310.27
  C 401.68 294.42 414.60 261.53 402.57 231.56
  C 397.41 218.70 382.86 206.92 371.47 200.38
  Z"
/>
<path fill="#ffffff" d="
  M 201.03 102.71
  C 257.94 135.09 314.69 167.77 371.47 200.38
  C 382.86 206.92 397.41 218.70 402.57 231.56
  C 414.60 261.53 401.68 294.42 373.99 310.27
  Q 290.18 358.25 206.37 406.25
  Q 194.52 413.04 188.45 415.01
  C 153.82 426.24 116.23 405.76 108.16 369.65
  Q 106.76 363.40 106.76 351.11
  Q 106.74 256.68 106.74 162.25
  Q 106.74 148.77 108.06 142.36
  C 116.83 99.49 164.14 81.72 201.03 102.71
  Z
  M 355.04 234.00
  C 297.40 200.84 239.72 167.73 181.93 134.82
  C 172.92 129.69 168.42 129.15 159.04 132.84
  Q 148.08 137.16 144.56 147.43
  Q 142.98 152.04 142.98 164.20
  Q 143.01 258.06 143.01 351.92
  Q 143.01 360.72 144.45 364.78
  C 148.54 376.28 161.92 382.55 173.47 380.28
  Q 178.27 379.34 188.89 373.26
  Q 272.63 325.34 356.40 277.46
  C 361.34 274.63 362.71 272.00 365.36 268.03
  C 374.19 254.77 367.27 241.04 355.04 234.00
  Z"
/>
<path fill="#03b8ff" d="
  M 181.93 134.82
  C 239.72 167.73 297.40 200.84 355.04 234.00
  C 367.27 241.04 374.19 254.77 365.36 268.03
  C 362.71 272.00 361.34 274.63 356.40 277.46
  Q 272.63 325.34 188.89 373.26
  Q 178.27 379.34 173.47 380.28
  C 161.92 382.55 148.54 376.28 144.45 364.78
  Q 143.01 360.72 143.01 351.92
  Q 143.01 258.06 142.98 164.20
  Q 142.98 152.04 144.56 147.43
  Q 148.08 137.16 159.04 132.84
  C 168.42 129.15 172.92 129.69 181.93 134.82
  Z"
/>
</svg>
