<?xml version="1.0" encoding="UTF-8"?>
<svg id="_Слой_2" data-name="Слой 2" xmlns="http://www.w3.org/2000/svg" viewBox="0 0 39.69 40.08">
  <defs>
    <style>
      .cls-1 {
        fill: #72c1ea;
      }

      .cls-1, .cls-2 {
        fill-rule: evenodd;
      }

      .cls-2 {
        fill: #fefefe;
      }
    </style>
  </defs>
  <g id="_Слой_1-2" data-name="Слой 1">
    <g>
      <path class="cls-1" d="m19.84,40.08c10.94,0,19.84-9.02,19.84-20.04S30.78,0,19.84,0,0,8.99,0,20.04s8.93,20.04,19.84,20.04h0Z"/>
      <path class="cls-2" d="m30.33,18.98l-7.91-4.61-7.94-4.61c-.37-.23-.79-.23-1.19,0-.37.2-.6.6-.6,1.03v18.47c0,.46.23.83.6,1.06.4.2.82.2,1.19,0l7.94-4.64,7.91-4.61c.4-.23.6-.6.6-1.03,0-.46-.2-.83-.6-1.06h0Zm-2.69.74l-6.09-3.58-6.12-3.55c-.11-.09-.26-.09-.4,0-.11.06-.2.2-.2.34v14.26c0,.14.09.26.2.34.14.06.28.06.4,0l6.12-3.58,6.09-3.55c.14-.09.2-.2.2-.34s-.06-.29-.2-.34h0Z"/>
    </g>
  </g>
</svg>