<?xml version="1.0" encoding="UTF-8"?>
<svg id="_Слой_2" data-name="Слой 2" xmlns="http://www.w3.org/2000/svg" viewBox="0 0 208.42 210.51">
  <defs>
    <style>
      .cls-1 {
        fill: #fff;
        fill-rule: evenodd;
      }

      .cls-2 {
        fill: none;
        stroke: #fff;
        stroke-linecap: round;
        stroke-linejoin: round;
        stroke-width: 10.77px;
      }

      .cls-3 {
        fill: #72c0e9;
      }
    </style>
  </defs>
  <g id="start">
    <path class="cls-3" d="m101.68,0h5.36c55.98,1.8,99.89,46.76,101.38,103.15v3.91c-1.19,56.69-45.85,101.95-102.13,103.45h-4.76C45.7,208.55,1.64,163.9,0,107.51v-4.51C1.64,46.61,45.41,1.65,101.68,0h0Z"/>
    <g>
      <polyline class="cls-2" points="74.35 56.56 48.05 56.56 48.05 30.44"/>
      <path class="cls-2" d="m175.56,134.92s22.68-60.83-32.31-93.48c0,0-50.87-29.9-95.2,15.12"/>
    </g>
    <g>
      <polyline class="cls-2" points="134.15 155.29 160.44 155.29 160.44 181.41"/>
      <path class="cls-2" d="m32.93,76.93s-22.68,60.83,32.31,93.48c0,0,50.87,29.9,95.2-15.12"/>
    </g>
    <path class="cls-1" d="m147.68,103.64l-30.92-18.13-31.03-18.02c-1.44-.9-3.1-.9-4.65,0-1.44.9-2.33,2.35-2.33,4.14v72.19c0,1.68.89,3.13,2.33,4.03,1.55.9,3.21.9,4.65,0l31.03-18.02,30.92-18.13c1.44-.78,2.33-2.24,2.33-4.03,0-1.68-.89-3.25-2.33-4.03h0Zm-10.53,2.8l-23.93-13.88-23.82-13.99c-.55-.22-1.11-.22-1.55,0-.55.34-.78.78-.78,1.34v55.73c0,.56.22,1.01.78,1.34.44.34,1,.34,1.55,0l23.82-13.88,23.93-13.99c.44-.22.78-.78.78-1.34s-.33-1.01-.78-1.34h0Z"/>
  </g>
</svg>