<?xml version="1.0" encoding="UTF-8"?>
<svg id="_Слой_2" data-name="Слой 2" xmlns="http://www.w3.org/2000/svg" viewBox="0 0 149.97 151.47">
  <defs>
    <style>
      .cls-1 {
        fill: #72c0e9;
      }

      .cls-1, .cls-2 {
        fill-rule: evenodd;
      }

      .cls-2 {
        fill: #fff;
      }
    </style>
  </defs>
  <g id="PLAY">
    <g>
      <path class="cls-1" d="m74.99,151.47c41.35,0,74.99-33.97,74.99-75.74S116.34,0,74.99,0,0,34.08,0,75.74s33.74,75.74,74.99,75.74h0Z"/>
      <path class="cls-2" d="m114.62,71.84l-29.89-17.53-29.99-17.42c-1.39-.87-3-.87-4.5,0-1.39.87-2.25,2.27-2.25,4v69.79c0,1.62.86,3.03,2.25,3.89,1.5.87,3.11.87,4.5,0l29.99-17.42,29.89-17.53c1.39-.76,2.25-2.16,2.25-3.9,0-1.62-.86-3.14-2.25-3.89h0Zm-10.18,2.7l-23.14-13.42-23.03-13.52c-.54-.22-1.07-.22-1.5,0-.54.32-.75.76-.75,1.3v53.88c0,.54.21.97.75,1.3.43.32.96.32,1.5,0l23.03-13.42,23.14-13.52c.43-.22.75-.76.75-1.3s-.32-.97-.75-1.3h0Z"/>
    </g>
  </g>
</svg>