<?xml version="1.0" encoding="UTF-8" standalone="no"?>
<!DOCTYPE svg PUBLIC "-//W3C//DTD SVG 1.1//EN" "http://www.w3.org/Graphics/SVG/1.1/DTD/svg11.dtd">
<svg xmlns="http://www.w3.org/2000/svg" version="1.1" viewBox="0.00 0.00 512.00 512.00">
<g stroke-width="2.00" fill="none" stroke-linecap="butt">
<path stroke="#67be28" vector-effect="non-scaling-stroke" d="
  M 253.77 0.00
  Q 254.60 0.32 255.65 0.26
  Q 256.01 0.23 256.01 0.59
  L 256.00 239.00"
/>
<path stroke="#b6da62" vector-effect="non-scaling-stroke" d="
  M 256.00 239.00
  Q 255.98 239.13 255.96 239.25"
/>
<path stroke="#b6e495" vector-effect="non-scaling-stroke" d="
  M 255.96 239.25
  Q 191.90 239.24 127.85 239.26
  Q 120.07 239.26 116.91 240.36
  C 98.80 246.64 104.12 272.75 123.50 272.76
  Q 189.49 272.77 255.93 272.74"
/>
<path stroke="#b6da62" vector-effect="non-scaling-stroke" d="
  M 255.93 272.74
  Q 255.88 272.75 256.00 272.99"
/>
<path stroke="#67be28" vector-effect="non-scaling-stroke" d="
  M 256.00 272.99
  Q 256.00 391.75 256.00 510.50
  Q 256.00 511.48 255.20 512.00"
/>
<path stroke="#b0cf5f" vector-effect="non-scaling-stroke" d="
  M 256.00 272.99
  Q 320.22 273.01 384.33 272.99
  Q 391.84 272.98 394.91 271.96
  C 413.48 265.76 408.28 239.01 388.25 239.01
  Q 322.18 238.99 256.00 239.00"
/>
<path stroke="#fff5cc" vector-effect="non-scaling-stroke" d="
  M 255.93 272.74
  L 255.96 239.25"
/>
</g>
<path fill="#6dc82a" d="
  M 253.33 0.00
  L 253.77 0.00
  Q 254.60 0.32 255.65 0.26
  Q 256.01 0.23 256.01 0.59
  L 256.00 239.00
  Q 255.98 239.13 255.96 239.25
  Q 191.90 239.24 127.85 239.26
  Q 120.07 239.26 116.91 240.36
  C 98.80 246.64 104.12 272.75 123.50 272.76
  Q 189.49 272.77 255.93 272.74
  Q 255.88 272.75 256.00 272.99
  Q 256.00 391.75 256.00 510.50
  Q 256.00 511.48 255.20 512.00
  L 252.71 512.00
  C 112.56 509.09 2.64 398.14 0.00 258.44
  L 0.00 253.17
  Q 2.36 154.96 67.17 83.40
  C 114.43 31.22 182.10 1.17 253.33 0.00
  Z"
/>
<path fill="#61b325" d="
  M 253.77 0.00
  L 266.07 0.00
  C 399.60 6.70 505.21 110.67 512.00 244.83
  L 512.00 266.06
  C 505.46 400.00 400.21 506.35 265.43 512.00
  L 255.20 512.00
  Q 256.00 511.48 256.00 510.50
  Q 256.00 391.75 256.00 272.99
  Q 320.22 273.01 384.33 272.99
  Q 391.84 272.98 394.91 271.96
  C 413.48 265.76 408.28 239.01 388.25 239.01
  Q 322.18 238.99 256.00 239.00
  L 256.01 0.59
  Q 256.01 0.23 255.65 0.26
  Q 254.60 0.32 253.77 0.00
  Z"
/>
<path fill="#ffeb99" d="
  M 256.00 239.00
  Q 322.18 238.99 388.25 239.01
  C 408.28 239.01 413.48 265.76 394.91 271.96
  Q 391.84 272.98 384.33 272.99
  Q 320.22 273.01 256.00 272.99
  Q 255.88 272.75 255.93 272.74
  L 255.96 239.25
  Q 255.98 239.13 256.00 239.00
  Z"
/>
<path fill="#ffffff" d="
  M 255.96 239.25
  L 255.93 272.74
  Q 189.49 272.77 123.50 272.76
  C 104.12 272.75 98.80 246.64 116.91 240.36
  Q 120.07 239.26 127.85 239.26
  Q 191.90 239.24 255.96 239.25
  Z"
/>
</svg>
