<?xml version="1.0" encoding="UTF-8" standalone="no"?>
<!DOCTYPE svg PUBLIC "-//W3C//DTD SVG 1.1//EN" "http://www.w3.org/Graphics/SVG/1.1/DTD/svg11.dtd">
<svg xmlns="http://www.w3.org/2000/svg" version="1.1" viewBox="0.00 0.00 512.00 512.00">
<g stroke-width="2.00" fill="none" stroke-linecap="butt">
<path stroke="#e28e89" vector-effect="non-scaling-stroke" d="
  M 234.54 256.00
  A 95.88 95.88 0.0 0 0 138.66 160.12
  A 95.88 95.88 0.0 0 0 42.78 256.00
  A 95.88 95.88 0.0 0 0 138.66 351.88
  A 95.88 95.88 0.0 0 0 234.54 256.00"
/>
<path stroke="#8a99a0" vector-effect="non-scaling-stroke" d="
  M 256.25 233.25
  Q 255.82 248.14 255.96 267.82
  Q 256.07 281.78 257.85 287.35
  C 267.42 317.24 310.86 315.64 318.67 285.88
  Q 319.99 280.88 319.99 266.00
  C 320.00 253.65 321.51 236.69 318.55 226.08
  C 308.90 191.42 257.29 197.63 256.25 233.25"
/>
<path stroke="#8a99a0" vector-effect="non-scaling-stroke" d="
  M 363.16 266.66
  C 369.14 266.34 378.11 268.16 382.05 261.85
  C 385.41 256.46 383.78 249.26 377.80 246.53
  C 374.00 244.80 367.92 245.61 363.29 245.46
  Q 362.70 245.44 362.70 244.85
  L 362.75 224.43
  Q 362.75 224.00 363.19 224.00
  C 370.87 224.01 386.69 226.07 391.90 220.19
  C 396.34 215.17 394.87 206.97 388.76 204.07
  Q 385.91 202.72 379.51 202.73
  Q 368.25 202.77 356.98 202.75
  C 348.06 202.74 341.47 204.47 341.36 214.50
  Q 341.05 243.00 341.32 296.56
  C 341.36 305.15 348.37 312.49 356.78 308.00
  C 361.86 305.29 362.55 301.21 362.61 295.22
  Q 362.75 281.19 362.66 267.19
  Q 362.66 266.69 363.16 266.66"
/>
<path stroke="#8a99a0" vector-effect="non-scaling-stroke" d="
  M 427.16 266.69
  C 433.37 266.25 441.83 268.17 445.90 262.04
  C 449.47 256.68 447.87 249.31 441.80 246.54
  C 437.98 244.80 431.93 245.60 427.29 245.46
  Q 426.70 245.44 426.70 244.85
  L 426.75 224.43
  Q 426.75 224.00 427.19 224.00
  C 433.76 224.01 446.67 225.36 452.37 222.84
  C 460.11 219.41 460.68 207.99 452.89 204.06
  Q 450.36 202.78 443.90 202.76
  Q 431.86 202.71 419.84 202.78
  C 403.41 202.86 405.62 211.96 405.51 224.32
  Q 405.02 277.80 405.30 296.93
  C 405.43 305.41 412.59 312.36 420.79 307.99
  C 425.87 305.29 426.54 301.22 426.59 295.23
  Q 426.71 281.21 426.68 267.20
  Q 426.68 266.72 427.16 266.69"
/>
<path stroke="#8a99a0" vector-effect="non-scaling-stroke" d="
  M 298.65 234.61
  A 10.27 10.27 0.0 0 0 288.38 224.34
  L 287.64 224.34
  A 10.27 10.27 0.0 0 0 277.37 234.61
  L 277.37 277.51
  A 10.27 10.27 0.0 0 0 287.64 287.78
  L 288.38 287.78
  A 10.27 10.27 0.0 0 0 298.65 277.51
  L 298.65 234.61"
/>
</g>
<path fill="#cfd8dc" d="
  M 512.00 255.06
  L 512.00 256.56
  C 510.73 329.50 455.28 390.01 381.66 394.23
  Q 372.72 394.74 367.00 394.74
  Q 258.53 394.77 150.06 394.73
  Q 136.57 394.72 130.07 394.29
  C 56.97 389.42 1.64 330.33 0.00 257.44
  L 0.00 254.44
  C 2.34 176.18 63.09 117.46 141.32 117.31
  C 199.89 117.19 279.80 116.71 374.75 117.68
  C 451.08 118.46 510.30 179.00 512.00 255.06
  Z
  M 234.54 256.00
  A 95.88 95.88 0.0 0 0 138.66 160.12
  A 95.88 95.88 0.0 0 0 42.78 256.00
  A 95.88 95.88 0.0 0 0 138.66 351.88
  A 95.88 95.88 0.0 0 0 234.54 256.00
  Z
  M 256.25 233.25
  Q 255.82 248.14 255.96 267.82
  Q 256.07 281.78 257.85 287.35
  C 267.42 317.24 310.86 315.64 318.67 285.88
  Q 319.99 280.88 319.99 266.00
  C 320.00 253.65 321.51 236.69 318.55 226.08
  C 308.90 191.42 257.29 197.63 256.25 233.25
  Z
  M 363.16 266.66
  C 369.14 266.34 378.11 268.16 382.05 261.85
  C 385.41 256.46 383.78 249.26 377.80 246.53
  C 374.00 244.80 367.92 245.61 363.29 245.46
  Q 362.70 245.44 362.70 244.85
  L 362.75 224.43
  Q 362.75 224.00 363.19 224.00
  C 370.87 224.01 386.69 226.07 391.90 220.19
  C 396.34 215.17 394.87 206.97 388.76 204.07
  Q 385.91 202.72 379.51 202.73
  Q 368.25 202.77 356.98 202.75
  C 348.06 202.74 341.47 204.47 341.36 214.50
  Q 341.05 243.00 341.32 296.56
  C 341.36 305.15 348.37 312.49 356.78 308.00
  C 361.86 305.29 362.55 301.21 362.61 295.22
  Q 362.75 281.19 362.66 267.19
  Q 362.66 266.69 363.16 266.66
  Z
  M 427.16 266.69
  C 433.37 266.25 441.83 268.17 445.90 262.04
  C 449.47 256.68 447.87 249.31 441.80 246.54
  C 437.98 244.80 431.93 245.60 427.29 245.46
  Q 426.70 245.44 426.70 244.85
  L 426.75 224.43
  Q 426.75 224.00 427.19 224.00
  C 433.76 224.01 446.67 225.36 452.37 222.84
  C 460.11 219.41 460.68 207.99 452.89 204.06
  Q 450.36 202.78 443.90 202.76
  Q 431.86 202.71 419.84 202.78
  C 403.41 202.86 405.62 211.96 405.51 224.32
  Q 405.02 277.80 405.30 296.93
  C 405.43 305.41 412.59 312.36 420.79 307.99
  C 425.87 305.29 426.54 301.22 426.59 295.23
  Q 426.71 281.21 426.68 267.20
  Q 426.68 266.72 427.16 266.69
  Z"
/>
<circle fill="#f44336" cx="138.66" cy="256.00" r="95.88"/>
<path fill="#455a64" d="
  M 256.25 233.25
  C 257.29 197.63 308.90 191.42 318.55 226.08
  C 321.51 236.69 320.00 253.65 319.99 266.00
  Q 319.99 280.88 318.67 285.88
  C 310.86 315.64 267.42 317.24 257.85 287.35
  Q 256.07 281.78 255.96 267.82
  Q 255.82 248.14 256.25 233.25
  Z
  M 298.65 234.61
  A 10.27 10.27 0.0 0 0 288.38 224.34
  L 287.64 224.34
  A 10.27 10.27 0.0 0 0 277.37 234.61
  L 277.37 277.51
  A 10.27 10.27 0.0 0 0 287.64 287.78
  L 288.38 287.78
  A 10.27 10.27 0.0 0 0 298.65 277.51
  L 298.65 234.61
  Z"
/>
<path fill="#455a64" d="
  M 362.66 267.19
  Q 362.75 281.19 362.61 295.22
  C 362.55 301.21 361.86 305.29 356.78 308.00
  C 348.37 312.49 341.36 305.15 341.32 296.56
  Q 341.05 243.00 341.36 214.50
  C 341.47 204.47 348.06 202.74 356.98 202.75
  Q 368.25 202.77 379.51 202.73
  Q 385.91 202.72 388.76 204.07
  C 394.87 206.97 396.34 215.17 391.90 220.19
  C 386.69 226.07 370.87 224.01 363.19 224.00
  Q 362.75 224.00 362.75 224.43
  L 362.70 244.85
  Q 362.70 245.44 363.29 245.46
  C 367.92 245.61 374.00 244.80 377.80 246.53
  C 383.78 249.26 385.41 256.46 382.05 261.85
  C 378.11 268.16 369.14 266.34 363.16 266.66
  Q 362.66 266.69 362.66 267.19
  Z"
/>
<path fill="#455a64" d="
  M 426.68 267.20
  Q 426.71 281.21 426.59 295.23
  C 426.54 301.22 425.87 305.29 420.79 307.99
  C 412.59 312.36 405.43 305.41 405.30 296.93
  Q 405.02 277.80 405.51 224.32
  C 405.62 211.96 403.41 202.86 419.84 202.78
  Q 431.86 202.71 443.90 202.76
  Q 450.36 202.78 452.89 204.06
  C 460.68 207.99 460.11 219.41 452.37 222.84
  C 446.67 225.36 433.76 224.01 427.19 224.00
  Q 426.75 224.00 426.75 224.43
  L 426.70 244.85
  Q 426.70 245.44 427.29 245.46
  C 431.93 245.60 437.98 244.80 441.80 246.54
  C 447.87 249.31 449.47 256.68 445.90 262.04
  C 441.83 268.17 433.37 266.25 427.16 266.69
  Q 426.68 266.72 426.68 267.20
  Z"
/>
<rect fill="#cfd8dc" x="277.37" y="224.34" width="21.28" height="63.44" rx="10.27"/>
</svg>
