<?xml version="1.0" encoding="UTF-8" standalone="no"?>
<!DOCTYPE svg PUBLIC "-//W3C//DTD SVG 1.1//EN" "http://www.w3.org/Graphics/SVG/1.1/DTD/svg11.dtd">
<svg xmlns="http://www.w3.org/2000/svg" version="1.1" viewBox="0.00 0.00 512.00 512.00">
<g stroke-width="2.00" fill="none" stroke-linecap="butt">
<path stroke="#758d93" vector-effect="non-scaling-stroke" d="
  M 229.30 35.36
  Q 201.06 35.64 172.92 35.77
  C 171.36 35.78 169.33 35.33 167.50 35.46"
/>
<path stroke="#758d93" vector-effect="non-scaling-stroke" d="
  M 344.25 35.35
  Q 313.36 35.95 282.46 35.48"
/>
<path stroke="#8a9999" vector-effect="non-scaling-stroke" d="
  M 400.22 39.81
  C 387.95 50.39 378.37 62.70 374.12 78.58
  Q 371.49 88.38 370.49 102.50"
/>
<path stroke="#758d93" vector-effect="non-scaling-stroke" d="
  M 370.49 102.50
  C 367.04 90.09 358.91 88.25 346.69 88.25
  Q 255.52 88.24 164.34 88.26
  C 152.72 88.26 145.12 90.46 141.49 102.07"
/>
<path stroke="#8a9999" vector-effect="non-scaling-stroke" d="
  M 141.49 102.07
  Q 140.85 90.56 138.01 79.51
  C 133.37 61.48 124.24 52.52 112.21 39.50"
/>
<path stroke="#6a8187" vector-effect="non-scaling-stroke" d="
  M 141.49 102.07
  Q 141.50 271.06 141.50 440.07
  C 141.50 441.76 141.82 443.75 141.96 445.50"
/>
<path stroke="#8a9999" vector-effect="non-scaling-stroke" d="
  M 141.96 445.50
  Q 141.63 445.43 141.35 445.57
  Q 140.90 445.79 140.91 446.29
  C 140.97 464.53 135.57 481.39 123.74 495.22
  Q 118.20 501.69 112.26 507.90"
/>
<path stroke="#8a9999" vector-effect="non-scaling-stroke" d="
  M 399.79 507.75
  C 387.86 495.45 378.42 485.33 374.07 468.49
  Q 371.91 460.13 370.38 445.98"
/>
<path stroke="#6a8187" vector-effect="non-scaling-stroke" d="
  M 370.38 445.98
  L 370.49 102.50"
/>
<path stroke="#758d93" vector-effect="non-scaling-stroke" d="
  M 370.38 445.98
  C 366.34 457.01 359.10 458.99 347.69 459.00
  Q 255.32 459.01 162.97 458.99
  C 152.31 458.98 144.85 456.38 141.96 445.50"
/>
<path stroke="#8a5856" vector-effect="non-scaling-stroke" d="
  M 176.69 256.00
  Q 179.09 317.81 191.88 376.93
  Q 192.77 381.03 195.34 385.08"
/>
<path stroke="#455f6f" vector-effect="non-scaling-stroke" d="
  M 195.34 385.08
  Q 201.53 400.15 208.14 415.03
  C 210.57 420.50 213.66 424.70 219.00 426.49
  Q 254.40 438.42 291.35 427.18
  Q 299.67 424.65 303.33 416.33
  Q 313.08 394.17 316.96 384.50"
/>
<path stroke="#8a5856" vector-effect="non-scaling-stroke" d="
  M 316.96 384.50
  Q 319.31 380.90 320.21 376.69
  Q 332.54 318.59 335.16 259.25
  Q 335.24 257.40 335.27 255.87"
/>
<path stroke="#9d615e" vector-effect="non-scaling-stroke" d="
  M 335.27 255.87
  Q 333.03 196.30 320.73 138.30
  C 318.73 128.86 315.43 122.90 305.93 120.85
  C 287.23 116.82 266.75 114.13 247.43 115.25
  Q 226.17 116.48 205.93 120.91
  C 196.45 122.99 193.26 128.91 191.26 138.35
  Q 178.92 196.52 176.69 256.00"
/>
<path stroke="#d34334" vector-effect="non-scaling-stroke" d="
  M 335.27 255.87
  L 176.69 256.00"
/>
<path stroke="#7b4245" vector-effect="non-scaling-stroke" d="
  M 316.96 384.50
  Q 312.72 389.44 308.51 390.51
  Q 288.41 395.62 263.81 396.85
  C 244.55 397.82 224.75 395.05 205.95 391.01
  Q 199.86 389.70 195.34 385.08"
/>
<path stroke="#f3a69e" vector-effect="non-scaling-stroke" d="
  M 291.20 176.55
  A 35.20 35.20 0.0 0 0 256.00 141.35
  A 35.20 35.20 0.0 0 0 220.80 176.55
  A 35.20 35.20 0.0 0 0 256.00 211.75
  A 35.20 35.20 0.0 0 0 291.20 176.55"
/>
<path stroke="#f3a69e" vector-effect="non-scaling-stroke" d="
  M 273.58 176.54
  A 17.58 17.58 0.0 0 0 256.00 158.96
  A 17.58 17.58 0.0 0 0 238.42 176.54
  A 17.58 17.58 0.0 0 0 256.00 194.12
  A 17.58 17.58 0.0 0 0 273.58 176.54"
/>
<path stroke="#e09d95" vector-effect="non-scaling-stroke" d="
  M 264.73 308.77
  A 8.47 8.47 0.0 0 0 256.26 300.30
  L 255.74 300.30
  A 8.47 8.47 0.0 0 0 247.27 308.77
  L 247.27 353.25
  A 8.47 8.47 0.0 0 0 255.74 361.72
  L 256.26 361.72
  A 8.47 8.47 0.0 0 0 264.73 353.25
  L 264.73 308.77"
/>
</g>
<path fill="#547580" d="
  M 175.56 0.00
  L 221.56 0.00
  Q 229.12 1.52 229.50 8.50
  Q 229.84 14.75 229.30 35.36
  Q 201.06 35.64 172.92 35.77
  C 171.36 35.78 169.33 35.33 167.50 35.46
  Q 167.88 23.75 167.79 12.04
  C 167.74 5.59 168.93 1.37 175.56 0.00
  Z"
/>
<path fill="#547580" d="
  M 290.31 0.00
  L 336.56 0.00
  C 342.83 1.45 344.25 5.45 344.25 11.70
  Q 344.25 23.39 344.25 35.35
  Q 313.36 35.95 282.46 35.48
  Q 282.52 23.71 282.51 12.35
  C 282.50 5.79 283.57 1.47 290.31 0.00
  Z"
/>
<path fill="#95a5a5" d="
  M 167.50 35.46
  C 169.33 35.33 171.36 35.78 172.92 35.77
  Q 201.06 35.64 229.30 35.36
  L 282.46 35.48
  Q 313.36 35.95 344.25 35.35
  Q 372.42 35.13 387.75 35.25
  Q 394.83 35.31 400.22 39.81
  C 387.95 50.39 378.37 62.70 374.12 78.58
  Q 371.49 88.38 370.49 102.50
  C 367.04 90.09 358.91 88.25 346.69 88.25
  Q 255.52 88.24 164.34 88.26
  C 152.72 88.26 145.12 90.46 141.49 102.07
  Q 140.85 90.56 138.01 79.51
  C 133.37 61.48 124.24 52.52 112.21 39.50
  Q 117.25 35.43 123.31 35.31
  Q 141.12 34.97 167.50 35.46
  Z"
/>
<path fill="#7f8c8d" d="
  M 112.21 39.50
  C 124.24 52.52 133.37 61.48 138.01 79.51
  Q 140.85 90.56 141.49 102.07
  Q 141.50 271.06 141.50 440.07
  C 141.50 441.76 141.82 443.75 141.96 445.50
  Q 141.63 445.43 141.35 445.57
  Q 140.90 445.79 140.91 446.29
  C 140.97 464.53 135.57 481.39 123.74 495.22
  Q 118.20 501.69 112.26 507.90
  Q 105.77 502.41 105.77 491.94
  Q 105.73 275.43 105.76 58.91
  C 105.76 51.23 105.75 44.83 112.21 39.50
  Z"
/>
<path fill="#7f8c8d" d="
  M 400.22 39.81
  Q 406.23 45.44 406.23 54.81
  Q 406.27 272.53 406.25 490.25
  C 406.25 496.98 405.80 503.01 399.79 507.75
  C 387.86 495.45 378.42 485.33 374.07 468.49
  Q 371.91 460.13 370.38 445.98
  L 370.49 102.50
  Q 371.49 88.38 374.12 78.58
  C 378.37 62.70 387.95 50.39 400.22 39.81
  Z"
/>
<path fill="#547580" d="
  M 370.49 102.50
  L 370.38 445.98
  C 366.34 457.01 359.10 458.99 347.69 459.00
  Q 255.32 459.01 162.97 458.99
  C 152.31 458.98 144.85 456.38 141.96 445.50
  C 141.82 443.75 141.50 441.76 141.50 440.07
  Q 141.50 271.06 141.49 102.07
  C 145.12 90.46 152.72 88.26 164.34 88.26
  Q 255.52 88.24 346.69 88.25
  C 358.91 88.25 367.04 90.09 370.49 102.50
  Z
  M 176.69 256.00
  Q 179.09 317.81 191.88 376.93
  Q 192.77 381.03 195.34 385.08
  Q 201.53 400.15 208.14 415.03
  C 210.57 420.50 213.66 424.70 219.00 426.49
  Q 254.40 438.42 291.35 427.18
  Q 299.67 424.65 303.33 416.33
  Q 313.08 394.17 316.96 384.50
  Q 319.31 380.90 320.21 376.69
  Q 332.54 318.59 335.16 259.25
  Q 335.24 257.40 335.27 255.87
  Q 333.03 196.30 320.73 138.30
  C 318.73 128.86 315.43 122.90 305.93 120.85
  C 287.23 116.82 266.75 114.13 247.43 115.25
  Q 226.17 116.48 205.93 120.91
  C 196.45 122.99 193.26 128.91 191.26 138.35
  Q 178.92 196.52 176.69 256.00
  Z"
/>
<path fill="#e64c3c" d="
  M 335.27 255.87
  L 176.69 256.00
  Q 178.92 196.52 191.26 138.35
  C 193.26 128.91 196.45 122.99 205.93 120.91
  Q 226.17 116.48 247.43 115.25
  C 266.75 114.13 287.23 116.82 305.93 120.85
  C 315.43 122.90 318.73 128.86 320.73 138.30
  Q 333.03 196.30 335.27 255.87
  Z
  M 291.20 176.55
  A 35.20 35.20 0.0 0 0 256.00 141.35
  A 35.20 35.20 0.0 0 0 220.80 176.55
  A 35.20 35.20 0.0 0 0 256.00 211.75
  A 35.20 35.20 0.0 0 0 291.20 176.55
  Z"
/>
<path fill="#ffffff" d="
  M 291.20 176.55
  A 35.20 35.20 0.0 0 1 256.00 211.75
  A 35.20 35.20 0.0 0 1 220.80 176.55
  A 35.20 35.20 0.0 0 1 256.00 141.35
  A 35.20 35.20 0.0 0 1 291.20 176.55
  Z
  M 273.58 176.54
  A 17.58 17.58 0.0 0 0 256.00 158.96
  A 17.58 17.58 0.0 0 0 238.42 176.54
  A 17.58 17.58 0.0 0 0 256.00 194.12
  A 17.58 17.58 0.0 0 0 273.58 176.54
  Z"
/>
<circle fill="#e64c3c" cx="256.00" cy="176.54" r="17.58"/>
<path fill="#c03a2b" d="
  M 335.27 255.87
  Q 335.24 257.40 335.16 259.25
  Q 332.54 318.59 320.21 376.69
  Q 319.31 380.90 316.96 384.50
  Q 312.72 389.44 308.51 390.51
  Q 288.41 395.62 263.81 396.85
  C 244.55 397.82 224.75 395.05 205.95 391.01
  Q 199.86 389.70 195.34 385.08
  Q 192.77 381.03 191.88 376.93
  Q 179.09 317.81 176.69 256.00
  L 335.27 255.87
  Z
  M 264.73 308.77
  A 8.47 8.47 0.0 0 0 256.26 300.30
  L 255.74 300.30
  A 8.47 8.47 0.0 0 0 247.27 308.77
  L 247.27 353.25
  A 8.47 8.47 0.0 0 0 255.74 361.72
  L 256.26 361.72
  A 8.47 8.47 0.0 0 0 264.73 353.25
  L 264.73 308.77
  Z"
/>
<rect fill="#ffffff" x="247.27" y="300.30" width="17.46" height="61.42" rx="8.47"/>
<path fill="#35495e" d="
  M 316.96 384.50
  Q 313.08 394.17 303.33 416.33
  Q 299.67 424.65 291.35 427.18
  Q 254.40 438.42 219.00 426.49
  C 213.66 424.70 210.57 420.50 208.14 415.03
  Q 201.53 400.15 195.34 385.08
  Q 199.86 389.70 205.95 391.01
  C 224.75 395.05 244.55 397.82 263.81 396.85
  Q 288.41 395.62 308.51 390.51
  Q 312.72 389.44 316.96 384.50
  Z"
/>
<path fill="#95a5a5" d="
  M 141.96 445.50
  C 144.85 456.38 152.31 458.98 162.97 458.99
  Q 255.32 459.01 347.69 459.00
  C 359.10 458.99 366.34 457.01 370.38 445.98
  Q 371.91 460.13 374.07 468.49
  C 378.42 485.33 387.86 495.45 399.79 507.75
  Q 395.29 511.47 389.44 512.00
  L 122.19 512.00
  Q 116.90 511.41 112.26 507.90
  Q 118.20 501.69 123.74 495.22
  C 135.57 481.39 140.97 464.53 140.91 446.29
  Q 140.90 445.79 141.35 445.57
  Q 141.63 445.43 141.96 445.50
  Z"
/>
</svg>
