<?xml version="1.0" encoding="UTF-8" standalone="no"?>
<!DOCTYPE svg PUBLIC "-//W3C//DTD SVG 1.1//EN" "http://www.w3.org/Graphics/SVG/1.1/DTD/svg11.dtd">
<svg xmlns="http://www.w3.org/2000/svg" version="1.1" viewBox="0.00 0.00 512.00 512.00">
<g stroke-width="2.00" fill="none" stroke-linecap="butt">
<path stroke="#8ec496" vector-effect="non-scaling-stroke" d="
  M 469.21 256.00
  A 95.88 95.88 0.0 0 0 373.33 160.12
  A 95.88 95.88 0.0 0 0 277.45 256.00
  A 95.88 95.88 0.0 0 0 373.33 351.88
  A 95.88 95.88 0.0 0 0 469.21 256.00"
/>
<path stroke="#8a99a0" vector-effect="non-scaling-stroke" d="
  M 85.42 241.08
  C 85.33 253.60 84.93 265.63 85.60 277.90
  C 86.55 295.27 98.94 308.72 116.69 309.20
  C 130.64 309.59 143.77 299.96 147.65 286.98
  Q 149.26 281.61 149.26 267.38
  Q 149.26 254.71 149.23 242.05
  Q 149.20 229.74 147.63 224.76
  C 138.45 195.74 97.67 195.79 87.29 224.17
  C 85.34 229.50 85.46 235.27 85.42 241.08"
/>
<path stroke="#8a99a0" vector-effect="non-scaling-stroke" d="
  M 192.54 259.60
  Q 203.48 281.36 214.51 303.47
  C 218.35 311.17 229.65 311.00 233.44 303.20
  Q 234.57 300.86 234.63 296.10
  C 234.95 269.17 234.28 242.67 234.71 215.33
  C 234.96 199.15 213.62 198.03 213.37 215.70
  Q 213.10 234.07 213.33 252.25
  A 0.26 0.26 0.0 0 1 212.84 252.38
  Q 201.72 230.39 190.74 208.51
  C 185.74 198.55 170.75 202.50 170.75 213.75
  Q 170.75 254.16 170.74 294.58
  C 170.74 300.43 171.12 305.08 176.25 307.81
  C 184.20 312.03 191.96 306.09 191.98 297.24
  Q 192.02 278.53 192.00 259.73
  A 0.29 0.29 0.0 0 1 192.54 259.60"
/>
<path stroke="#8a99a0" vector-effect="non-scaling-stroke" d="
  M 127.92 234.53
  A 10.20 10.20 0.0 0 0 117.72 224.33
  L 117.00 224.33
  A 10.20 10.20 0.0 0 0 106.80 234.53
  L 106.80 277.61
  A 10.20 10.20 0.0 0 0 117.00 287.81
  L 117.72 287.81
  A 10.20 10.20 0.0 0 0 127.92 277.61
  L 127.92 234.53"
/>
</g>
<path fill="#cfd8dc" d="
  M 512.00 255.06
  L 512.00 256.56
  C 510.60 330.22 454.33 390.99 379.92 394.31
  Q 370.30 394.74 366.75 394.74
  Q 258.40 394.77 150.07 394.73
  Q 136.08 394.72 130.08 394.27
  C 56.75 388.82 1.89 331.08 0.00 257.44
  L 0.00 254.44
  C 2.34 176.13 63.01 117.51 141.32 117.39
  Q 295.28 117.14 362.50 117.27
  C 372.18 117.29 383.90 117.54 393.45 118.93
  C 461.87 128.86 510.45 186.73 512.00 255.06
  Z
  M 469.21 256.00
  A 95.88 95.88 0.0 0 0 373.33 160.12
  A 95.88 95.88 0.0 0 0 277.45 256.00
  A 95.88 95.88 0.0 0 0 373.33 351.88
  A 95.88 95.88 0.0 0 0 469.21 256.00
  Z
  M 85.42 241.08
  C 85.33 253.60 84.93 265.63 85.60 277.90
  C 86.55 295.27 98.94 308.72 116.69 309.20
  C 130.64 309.59 143.77 299.96 147.65 286.98
  Q 149.26 281.61 149.26 267.38
  Q 149.26 254.71 149.23 242.05
  Q 149.20 229.74 147.63 224.76
  C 138.45 195.74 97.67 195.79 87.29 224.17
  C 85.34 229.50 85.46 235.27 85.42 241.08
  Z
  M 192.54 259.60
  Q 203.48 281.36 214.51 303.47
  C 218.35 311.17 229.65 311.00 233.44 303.20
  Q 234.57 300.86 234.63 296.10
  C 234.95 269.17 234.28 242.67 234.71 215.33
  C 234.96 199.15 213.62 198.03 213.37 215.70
  Q 213.10 234.07 213.33 252.25
  A 0.26 0.26 0.0 0 1 212.84 252.38
  Q 201.72 230.39 190.74 208.51
  C 185.74 198.55 170.75 202.50 170.75 213.75
  Q 170.75 254.16 170.74 294.58
  C 170.74 300.43 171.12 305.08 176.25 307.81
  C 184.20 312.03 191.96 306.09 191.98 297.24
  Q 192.02 278.53 192.00 259.73
  A 0.29 0.29 0.0 0 1 192.54 259.60
  Z"
/>
<circle fill="#4caf50" cx="373.33" cy="256.00" r="95.88"/>
<path fill="#455a64" d="
  M 85.42 241.08
  C 85.46 235.27 85.34 229.50 87.29 224.17
  C 97.67 195.79 138.45 195.74 147.63 224.76
  Q 149.20 229.74 149.23 242.05
  Q 149.26 254.71 149.26 267.38
  Q 149.26 281.61 147.65 286.98
  C 143.77 299.96 130.64 309.59 116.69 309.20
  C 98.94 308.72 86.55 295.27 85.60 277.90
  C 84.93 265.63 85.33 253.60 85.42 241.08
  Z
  M 127.92 234.53
  A 10.20 10.20 0.0 0 0 117.72 224.33
  L 117.00 224.33
  A 10.20 10.20 0.0 0 0 106.80 234.53
  L 106.80 277.61
  A 10.20 10.20 0.0 0 0 117.00 287.81
  L 117.72 287.81
  A 10.20 10.20 0.0 0 0 127.92 277.61
  L 127.92 234.53
  Z"
/>
<path fill="#455a64" d="
  M 192.54 259.60
  A 0.29 0.29 0.0 0 0 192.00 259.73
  Q 192.02 278.53 191.98 297.24
  C 191.96 306.09 184.20 312.03 176.25 307.81
  C 171.12 305.08 170.74 300.43 170.74 294.58
  Q 170.75 254.16 170.75 213.75
  C 170.75 202.50 185.74 198.55 190.74 208.51
  Q 201.72 230.39 212.84 252.38
  A 0.26 0.26 0.0 0 0 213.33 252.25
  Q 213.10 234.07 213.37 215.70
  C 213.62 198.03 234.96 199.15 234.71 215.33
  C 234.28 242.67 234.95 269.17 234.63 296.10
  Q 234.57 300.86 233.44 303.20
  C 229.65 311.00 218.35 311.17 214.51 303.47
  Q 203.48 281.36 192.54 259.60
  Z"
/>
<rect fill="#cfd8dc" x="106.80" y="224.33" width="21.12" height="63.48" rx="10.20"/>
</svg>
