<?xml version="1.0" encoding="UTF-8"?>
<svg id="_Слой_2" data-name="Слой 2" xmlns="http://www.w3.org/2000/svg" viewBox="0 0 39.59 17.73">
  <defs>
    <style>
      .cls-1 {
        fill: #fefefe;
        stroke: #fefefe;
        stroke-miterlimit: 10;
        stroke-width: .57px;
      }

      .cls-2 {
        fill: #adcb7e;
      }

      .cls-2, .cls-3, .cls-4 {
        fill-rule: evenodd;
      }

      .cls-3 {
        fill: #eaf1f7;
      }

      .cls-4 {
        fill: #90b657;
      }
    </style>
  </defs>
  <g id="_Слой_1-2" data-name="Слой 1">
    <g>
      <path class="cls-2" d="m29.11,2.78c3.69-.66,6.55,2.03,7.06,5.1.62,3.66-2.01,6.58-4.99,7.1-3.69.66-6.66-2.03-7.11-5.12-.57-3.72,2.01-6.53,5.05-7.07h0ZM3.18,15.64c.82,1,3.29,1.92,4.79,2.06.94.06,5.47,0,6.8,0h13.72c3.66,0,5.36.11,8.11-2.15,2.61-2.12,3.88-6.58,2.3-10.16-.28-.63-.88-1.78-1.36-2.18-.77-.43-1.25-.8-2.21-1.2-2.32-.92-6.69-.57-9.47-.57h-13.46c-2.41,0-3.83-.11-5.92.8C3.32,3.64,1.22,7.11,1.42,10.71c.03.97.26,1.95.57,2.75.34.92.79,1.49,1.19,2.18h0Z"/>
      <path class="cls-3" d="m29.11,2.78c-3.03.54-5.61,3.35-5.05,7.07.45,3.09,3.43,5.78,7.11,5.12,2.98-.52,5.61-3.44,4.99-7.1-.51-3.06-3.37-5.75-7.06-5.1h0Z"/>
      <path class="cls-4" d="m3.18,15.64c-.4-.69-.85-1.26-1.19-2.18-.31-.8-.54-1.78-.57-2.75-.2-3.61,1.9-7.07,5.05-8.47,2.1-.92,3.51-.8,5.92-.8h13.46c2.78,0,7.14-.34,9.47.57.96.4,1.45.77,2.21,1.2-.82-1.32-2.95-2.46-4.45-2.89-1.9-.52-4.85-.26-7.14-.26C23.98.06,8.62-.08,7.51.12,5.19.52,3.03,1.7,1.7,3.64.17,5.88-.4,8.37.28,11.09c.2.92.65,1.86,1.11,2.58.26.46,1.33,1.83,1.79,1.98h0Z"/>
      <path class="cls-1" d="m11.08,9.2c0,.83-.14,1.49-.48,2-.34.49-.82.74-1.45.74s-1.11-.26-1.42-.74c-.34-.49-.51-1.15-.51-2,0-.52.09-1,.23-1.43.14-.4.37-.74.65-.97.28-.23.65-.34,1.05-.34.62,0,1.11.26,1.45.74.34.52.48,1.17.48,2h0Zm-.68,0c0-.72-.09-1.26-.28-1.63s-.51-.54-.96-.54c-.43,0-.74.17-.94.54s-.31.92-.31,1.63.11,1.26.31,1.63.51.54.94.54c.45,0,.77-.17.96-.54s.28-.92.28-1.63h0Zm2.38-1.57s-.14-.17-.11.23c.03.43.03.86.03,1.35v2.66h-.62v-5.33h.91l1.83,4.49.04-.08c-.06-.63-.09-1.2-.09-1.75v-2.66h.62v5.33h-.94l-1.68-4.24Z"/>
    </g>
  </g>
</svg>