<?xml version="1.0" encoding="UTF-8"?>
<svg id="_Слой_2" data-name="Слой 2" xmlns="http://www.w3.org/2000/svg" viewBox="0 0 39.68 41.4">
  <defs>
    <style>
      .cls-1 {
        fill: #72c1ea;
      }

      .cls-1, .cls-2, .cls-3, .cls-4, .cls-5 {
        fill-rule: evenodd;
      }

      .cls-2 {
        fill: #b7dcf3;
      }

      .cls-3 {
        fill: #57676b;
      }

      .cls-4 {
        fill: #f0f4f8;
      }

      .cls-5 {
        fill: #007ebc;
      }
    </style>
  </defs>
  <g id="_Слой_1-2" data-name="Слой 1">
    <g>
      <path class="cls-4" d="m33.06,24.08l-11.51.03c-.11.83-.4,1.29-1.05,1.55-.68.29-1.5.03-1.87-.34-1.05-1-.43-2.83,1.19-2.98l.03-11.62c-6.07,0-10.26,3.81-12.1,7.9-4.88,10.99,6.18,22.68,17.57,17.64,4.51-2,7.94-7.13,7.74-12.17h0Z"/>
      <path class="cls-2" d="m19.85,10.71c3.69.09,6.26,1.2,8.93,3.46.17.17.23.29.43.46,2.38,2.23,3.91,6.1,3.86,9.45.2,5.04-3.23,10.16-7.74,12.17-11.4,5.04-22.45-6.64-17.57-17.64,1.84-4.09,6.04-7.9,12.1-7.9h0Zm-3.94-3.52c-1.08.2-2.41.72-3.32,1.17-.54.23-.99.49-1.47.77-.45.29-.94.63-1.39.89-.17.23-.37.31-.6.52l-1.87,1.75c-.2.2-.31.4-.51.6-.6.66-1.33,1.89-1.56,2.09-.09.29-.43.74-.57,1.03-3.06,5.93-2.52,12.68,1.28,18.18.14.2.2.34.4.49.88.54,1.5,1.69,4.73,3.24,1.84.86,4.2,1.46,6.49,1.55,4.79.2,8.36-1.37,11.88-4.18.71-.57.96-1,1.47-1.49.71-.69,1.62-2.06,2.13-2.95,1.02-1.66,1.79-3.72,2.13-5.96.74-4.87-.45-8.96-3-12.83-.2-.31-.71-.77-1.02-1.03-.23-.2-.34-.31-.57-.49-.23-.17-.43-.31-.6-.52l-1.45-.92c-.51-.31-.96-.54-1.5-.8-.88-.43-2.04-.8-2.98-1.06-.14-.06-.43-.09-.51-.11-3.12-.52-4.51-.46-7.6.06h0Z"/>
      <path class="cls-4" d="m19.82,22.33c1.08.09,1.64.69,1.73,1.78l11.51-.03c.06-3.35-1.47-7.21-3.86-9.45-.2-.17-.26-.29-.43-.46-2.66-2.26-5.24-3.38-8.93-3.46l-.03,11.62Z"/>
      <path class="cls-1" d="m6.3,34.67c.06.23.26.4.4.57l2.07,2.12c.23.17.4.29.6.46,2.01,1.52,4.34,2.72,7.09,3.26.79.14,1.56.26,2.3.31h2.3c3.57-.26,6.8-1.66,9.75-3.98.26-.17.34-.31.57-.49.37-.34.68-.57,1.05-1.03.34-.46.77-.86,1.42-1.75,2.66-3.72,3.69-8.36,2.92-13.08-.4-2.46-1.25-4.27-2.27-6.13-.2-.2-.4-.54-.57-.8-.2-.31-.31-.43-.54-.72-.31-.43-.85-1.15-1.25-1.37,2.55,3.87,3.74,7.96,3,12.83-.34,2.23-1.11,4.29-2.13,5.96-.51.89-1.42,2.26-2.13,2.95-.51.49-.77.92-1.47,1.49-3.51,2.81-7.09,4.38-11.88,4.18-2.3-.09-4.65-.69-6.49-1.55-3.23-1.55-3.86-2.69-4.73-3.24h0Z"/>
      <path class="cls-5" d="m15.91,3.46h7.6c.6.03,1.22.03,1.7-.09.14-.69.14-2.61,0-3.29-.17-.06-.6-.09-1.22-.09h-9.58l-.23.26-.03,2.98.26.23h1.5Z"/>
      <path class="cls-5" d="m31.93,8.07c.37.17,1.93,1.98,2.35,2.4l1.19,1.2c.31.34.94.92,1.13,1.26,1.36,1.37,1.02.97,1.93.26,1.79-1.4,1.11-1.57.51-2.18-.26-.26-.43-.43-.65-.66-.28-.29-.4-.46-.65-.74l-3.91-4.04c-.74-.74-.74-.8-1.53-.03-.43.46-.96.83-1.25,1.4.11.52.62.72.88,1.12h0Z"/>
      <path class="cls-5" d="m3.07,12.94c.31-.57,1.73-1.83,2.3-2.43.37-.4,2.04-2.29,2.38-2.43.48-.72,1.33-.8.51-1.63-1.9-1.86-1.33-1.92-3.09-.17-.28.29-.4.52-.68.77L.21,11.45c-.34.37-.23.63.09.94l1.53,1.43c.6-.03.91-.54,1.25-.89h0Z"/>
      <path class="cls-1" d="m15.91,7.19c3.09-.52,4.48-.57,7.6-.06v-3.66h-7.6v3.72Z"/>
      <path class="cls-1" d="m3.07,12.94c.74.66,1.39,1.35,2.13,2.03.23-.2.96-1.43,1.56-2.09.2-.2.31-.4.51-.6l1.87-1.75c.23-.2.43-.29.6-.52-.2-.17-.34-.26-.51-.43-.2-.17-.31-.31-.48-.49-.31-.31-.77-.69-.99-1.03-.34.14-2.01,2.03-2.38,2.43-.57.6-1.98,1.86-2.3,2.43h0Z"/>
      <path class="cls-1" d="m29.94,10.02c.17.2.37.34.6.52.23.17.34.29.57.49.31.26.82.72,1.02,1.03.4.23.94.94,1.25,1.37.23.29.34.4.54.72.17.26.37.6.57.8.37-.23.74-.69,1.08-1.03.37-.37.71-.63,1.05-.97-.2-.34-.82-.92-1.13-1.26l-1.19-1.2c-.43-.43-1.98-2.23-2.35-2.4-.23.37-.62.69-.94,1-.2.2-.31.29-.51.46-.23.17-.34.31-.54.49h0Z"/>
      <path class="cls-3" d="m21.55,24.11c-.09-1.09-.65-1.69-1.73-1.78-1.62.14-2.24,1.98-1.19,2.98.37.37,1.19.63,1.87.34.65-.26.94-.72,1.05-1.55h0Z"/>
      <path class="cls-3" d="m18.69,24.71v-9.62c0-.17.14-.31.31-.31h1.47c.17,0,.28.14.28.31v8.42l6.04,6.07c.11.14.11.34,0,.46l-1.22,1.2c-.11.11-.31.11-.43,0l-6.46-6.53Z"/>
    </g>
  </g>
</svg>