<?xml version="1.0" encoding="UTF-8" standalone="no"?>
<!DOCTYPE svg PUBLIC "-//W3C//DTD SVG 1.1//EN" "http://www.w3.org/Graphics/SVG/1.1/DTD/svg11.dtd">
<svg xmlns="http://www.w3.org/2000/svg" version="1.1" viewBox="0.00 0.00 512.00 512.00">
<g stroke-width="2.00" fill="none" stroke-linecap="butt">
<path stroke="#81dcff" vector-effect="non-scaling-stroke" d="
  M 239.50 139.26
  C 227.85 95.40 162.91 96.09 152.81 140.60
  Q 151.50 146.38 151.50 160.50
  Q 151.50 257.52 151.51 354.53
  Q 151.51 365.94 152.91 371.73
  C 157.59 391.05 173.46 403.83 193.07 405.17
  C 218.87 406.93 240.98 387.66 240.99 361.50
  Q 241.03 259.26 240.97 157.03
  Q 240.97 144.80 239.50 139.26"
/>
<path stroke="#81dcff" vector-effect="non-scaling-stroke" d="
  M 322.49 404.76
  C 344.90 401.73 360.41 383.22 360.43 360.75
  Q 360.53 259.96 360.48 159.17
  Q 360.47 145.54 358.97 139.58
  C 347.56 94.41 281.00 96.63 271.93 141.89
  Q 271.00 146.52 271.00 149.75
  Q 271.00 255.13 271.00 360.50
  C 271.00 388.94 294.63 408.53 322.49 404.76"
/>
<path stroke="#81dcff" vector-effect="non-scaling-stroke" d="
  M 211.24 151.48
  A 14.78 14.78 0.0 0 0 196.46 136.70
  L 196.04 136.70
  A 14.78 14.78 0.0 0 0 181.26 151.48
  L 181.26 360.64
  A 14.78 14.78 0.0 0 0 196.04 375.42
  L 196.46 375.42
  A 14.78 14.78 0.0 0 0 211.24 360.64
  L 211.24 151.48"
/>
<path stroke="#81dcff" vector-effect="non-scaling-stroke" d="
  M 330.74 151.48
  A 14.78 14.78 0.0 0 0 315.96 136.70
  L 315.54 136.70
  A 14.78 14.78 0.0 0 0 300.76 151.48
  L 300.76 360.64
  A 14.78 14.78 0.0 0 0 315.54 375.42
  L 315.96 375.42
  A 14.78 14.78 0.0 0 0 330.74 360.64
  L 330.74 151.48"
/>
</g>
<path fill="#03b8ff" d="
  M 249.59 0.00
  L 262.79 0.00
  C 400.35 4.47 508.40 113.77 512.00 251.08
  L 512.00 260.30
  C 508.99 398.28 399.32 508.56 261.18 512.00
  L 249.46 512.00
  C 112.07 507.49 4.01 398.86 0.00 261.67
  L 0.00 250.69
  C 3.99 113.54 111.67 4.25 249.59 0.00
  Z
  M 239.50 139.26
  C 227.85 95.40 162.91 96.09 152.81 140.60
  Q 151.50 146.38 151.50 160.50
  Q 151.50 257.52 151.51 354.53
  Q 151.51 365.94 152.91 371.73
  C 157.59 391.05 173.46 403.83 193.07 405.17
  C 218.87 406.93 240.98 387.66 240.99 361.50
  Q 241.03 259.26 240.97 157.03
  Q 240.97 144.80 239.50 139.26
  Z
  M 322.49 404.76
  C 344.90 401.73 360.41 383.22 360.43 360.75
  Q 360.53 259.96 360.48 159.17
  Q 360.47 145.54 358.97 139.58
  C 347.56 94.41 281.00 96.63 271.93 141.89
  Q 271.00 146.52 271.00 149.75
  Q 271.00 255.13 271.00 360.50
  C 271.00 388.94 294.63 408.53 322.49 404.76
  Z"
/>
<path fill="#ffffff" d="
  M 152.81 140.60
  C 162.91 96.09 227.85 95.40 239.50 139.26
  Q 240.97 144.80 240.97 157.03
  Q 241.03 259.26 240.99 361.50
  C 240.98 387.66 218.87 406.93 193.07 405.17
  C 173.46 403.83 157.59 391.05 152.91 371.73
  Q 151.51 365.94 151.51 354.53
  Q 151.50 257.52 151.50 160.50
  Q 151.50 146.38 152.81 140.60
  Z
  M 211.24 151.48
  A 14.78 14.78 0.0 0 0 196.46 136.70
  L 196.04 136.70
  A 14.78 14.78 0.0 0 0 181.26 151.48
  L 181.26 360.64
  A 14.78 14.78 0.0 0 0 196.04 375.42
  L 196.46 375.42
  A 14.78 14.78 0.0 0 0 211.24 360.64
  L 211.24 151.48
  Z"
/>
<path fill="#ffffff" d="
  M 360.43 360.75
  C 360.41 383.22 344.90 401.73 322.49 404.76
  C 294.63 408.53 271.00 388.94 271.00 360.50
  Q 271.00 255.13 271.00 149.75
  Q 271.00 146.52 271.93 141.89
  C 281.00 96.63 347.56 94.41 358.97 139.58
  Q 360.47 145.54 360.48 159.17
  Q 360.53 259.96 360.43 360.75
  Z
  M 330.74 151.48
  A 14.78 14.78 0.0 0 0 315.96 136.70
  L 315.54 136.70
  A 14.78 14.78 0.0 0 0 300.76 151.48
  L 300.76 360.64
  A 14.78 14.78 0.0 0 0 315.54 375.42
  L 315.96 375.42
  A 14.78 14.78 0.0 0 0 330.74 360.64
  L 330.74 151.48
  Z"
/>
<rect fill="#03b8ff" x="181.26" y="136.70" width="29.98" height="238.72" rx="14.78"/>
<rect fill="#03b8ff" x="300.76" y="136.70" width="29.98" height="238.72" rx="14.78"/>
</svg>
