<svg xmlns="http://www.w3.org/2000/svg" viewBox="0 0 39.69 40.08"><defs><style>.cls-1{fill:#72bcd4;}.cls-2{fill:#fff;}</style></defs><g id="Слой_2" data-name="Слой 2"><g id="Слой_1-2" data-name="Слой 1"><path class="cls-1" d="M19.36,0h1A20,20,0,0,1,39.69,19.67v.71a20,20,0,0,1-19.45,19.7h-.91A20,20,0,0,1,0,20.5v-.86A20,20,0,0,1,19.36,0Zm-.79,10.91a3.47,3.47,0,0,0-6.72.11,8.56,8.56,0,0,0-.11,1.55v15.2a7.25,7.25,0,0,0,.11,1.35A3.33,3.33,0,0,0,15,31.72a3.4,3.4,0,0,0,3.71-3.4v-16a6,6,0,0,0-.11-1.4ZM25,31.69A3.4,3.4,0,0,0,28,28.26V12.48a9.78,9.78,0,0,0-.11-1.54,3.48,3.48,0,0,0-6.75.17,2.86,2.86,0,0,0-.09.63V28.23a3.42,3.42,0,0,0,4,3.46Z"/><path class="cls-2" d="M11.85,11a3.47,3.47,0,0,1,6.72-.11,6,6,0,0,1,.11,1.4v16A3.4,3.4,0,0,1,15,31.72a3.33,3.33,0,0,1-3.12-2.6,7.25,7.25,0,0,1-.11-1.35V12.57A8.56,8.56,0,0,1,11.85,11Zm4.53.86a1.15,1.15,0,0,0-1.16-1.17h0a1.14,1.14,0,0,0-1.13,1.17V28.26a1.14,1.14,0,0,0,1.13,1.14h0a1.14,1.14,0,0,0,1.16-1.14Z"/><path class="cls-2" d="M28,28.26a3.48,3.48,0,1,1-6.95,0V11.74a2.86,2.86,0,0,1,.09-.63,3.48,3.48,0,0,1,6.75-.17A9.78,9.78,0,0,1,28,12.48V28.26ZM25.63,11.88a1.15,1.15,0,0,0-1.14-1.17h0a1.17,1.17,0,0,0-1.16,1.17V28.26a1.16,1.16,0,0,0,1.16,1.14h0a1.15,1.15,0,0,0,1.14-1.14Z"/><path class="cls-1" d="M15.19,10.71h0a1.15,1.15,0,0,1,1.16,1.17V28.26a1.14,1.14,0,0,1-1.16,1.14h0a1.14,1.14,0,0,1-1.13-1.14V11.88a1.14,1.14,0,0,1,1.13-1.17Z"/><path class="cls-1" d="M24.46,10.71h0a1.15,1.15,0,0,1,1.14,1.17V28.26a1.15,1.15,0,0,1-1.14,1.14h0a1.16,1.16,0,0,1-1.16-1.14V11.88a1.17,1.17,0,0,1,1.16-1.17Z"/></g></g></svg>