<?xml version="1.0" encoding="UTF-8"?>
<svg id="_Слой_2" data-name="Слой 2" xmlns="http://www.w3.org/2000/svg" viewBox="0 0 39.7 35.42">
  <defs>
    <style>
      .cls-1 {
        fill: #f6c340;
      }

      .cls-1, .cls-2, .cls-3, .cls-4, .cls-5 {
        fill-rule: evenodd;
      }

      .cls-2 {
        fill: #e3645f;
      }

      .cls-3 {
        fill: #e9ae29;
      }

      .cls-4 {
        fill: #d4534e;
      }

      .cls-5 {
        fill: #ec8f8b;
      }
    </style>
  </defs>
  <g id="_Слой_1-2" data-name="Слой 1">
    <g>
      <path class="cls-2" d="m15.23,18.64c1.9-.31,3.8.52,4.85,1.4,2.69,2.29,3.12,6.38.88,9.1-2.24,2.75-6.26,3.15-9.01.89-4.05-3.35-2.75-10.45,3.29-11.39h0Zm15.76-1.89c.34-.23,4.03-.11,4.71-.11s1.76-.2,2.01.37c.2.52.11,1.86-.23,2.09-.31.2-.68.11-.85-.11-.23-.26-.14-.69-.14-1.06-1.62,0-3.2.03-4.82.03-.96-.03-1.25-.8-.68-1.2h0Zm-24.6,4.64c-.28,1.2-.6,1.98-.62,3.41v.49c0,1.43.34,2.2.62,3.38,2.58,6.64,10.63,9.08,16.36,4.15.94-.77,1.73-1.78,2.27-2.86.99-1.98.79-1.86,1.22-3.98.06-.37.03-.31.37-.43l8.05-3.06c.43-.17,4.65-1.86,5.05-1.89v-5.9h-10.97c-.09.29-.4.72-.57.97-.23.34-.45.63-.62.97h-5.75v-1.95h-5.44c-3.54,0-6.43,1.32-8.45,4.01-.62.86-1.11,1.69-1.5,2.69h0Z"/>
      <path class="cls-4" d="m20.45,25.68c-.51,3.46-4.31,4.38-4.93,3.64-.23-.29-.14-.69.09-.89.37-.31,2.24,0,3.23-1.89.34-.6.31-1.75.62-2,.23-.2,1.22-.43.99,1.15h0Zm-3.88-4.21c-.43.69-2.01-.09-3.26,1.86-.51.77-.34,1.6-.6,2-.31.6-1.28.49-1.16-.69.31-3.55,4-4.47,4.76-4.04.23.11.45.52.26.86h0Zm-1.33-2.83c-6.04.94-7.34,8.05-3.29,11.39,2.75,2.26,6.77,1.86,9.01-.89,2.24-2.72,1.81-6.81-.88-9.1-1.05-.89-2.95-1.72-4.85-1.4h0Z"/>
      <path class="cls-1" d="m23.34,1.52c0,.46.2,1.66.28,2.18.09.6.74,5.58.85,5.84.14.23.94.69,1.08-.49l.45-3.21c.09-.6.6-3.78.6-4.32,0-.72-.77-1.52-1.45-1.52h-.37c-.68,0-1.45.8-1.45,1.52h0Z"/>
      <path class="cls-4" d="m6.39,28.66c-.28-1.17-.62-1.95-.62-3.38,0,.03-.03.03-.03.06s0,.03-.03.06l-.14.4c-.11.2-.23.29-.37.43-.23.23-.65.46-1.11.43-1.9-.11-2.04-2.98-.06-3.21,1.3-.17,1.67,1.23,1.73,1.35.03-1.43.34-2.2.62-3.41-.62-.17-.85-.54-2.13-.54C-.05,20.84-1.58,26.25,1.97,28.63c.91.6,2.38.8,3.43.46.34-.11.68-.34.99-.43h0Z"/>
      <path class="cls-3" d="m16.88,5.96c0,1.03.4,1.23,1.3,2.06l.68.6c.17.11.2.17.34.31.14.11.2.11.31.26.14.11.17.17.34.31l1.33,1.2c.45.43.57.52.96.52.11,0,.6-.29.34-.86l-.48-.92c-.4-.77-2.15-4.18-2.55-4.52-.99-.97-2.58-.11-2.58,1.03h0Z"/>
      <path class="cls-3" d="m27.79,11.22c.34,0,.37,0,.57-.2l3.32-2.95c.54-.43,1.39-1.15,1.39-1.83,0-.49-.03-.74-.34-1.15-.6-.69-1.53-.8-2.18-.23-.34.29-.4.46-.6.86-.17.29-.34.57-.51.89l-.74,1.4c-.11.17-.14.29-.26.46l-.99,1.86c-.28.6.23.89.34.89h0Z"/>
      <path class="cls-5" d="m36.49,17.92c0,.37-.09.8.14,1.06.17.23.54.31.85.11.34-.23.43-1.57.23-2.09-.26-.57-1.36-.37-2.01-.37s-4.37-.11-4.71.11c-.57.4-.28,1.17.68,1.2,1.62,0,3.2-.03,4.82-.03h0Z"/>
      <path class="cls-2" d="m16.57,21.47c.2-.34-.03-.74-.26-.86-.77-.43-4.45.49-4.76,4.04-.11,1.17.85,1.29,1.16.69.26-.4.09-1.23.6-2,1.25-1.95,2.83-1.17,3.26-1.86h0Z"/>
      <path class="cls-2" d="m20.45,25.68c.23-1.57-.77-1.35-.99-1.15-.31.26-.28,1.4-.62,2-.99,1.89-2.86,1.57-3.23,1.89-.23.2-.31.6-.09.89.62.74,4.42-.17,4.93-3.64h0Z"/>
    </g>
  </g>
</svg>