<?xml version="1.0" encoding="UTF-8"?>
<svg id="_Слой_2" data-name="Слой 2" xmlns="http://www.w3.org/2000/svg" viewBox="0 0 143.5 144.93">
  <defs>
    <style>
      .cls-1 {
        fill: #fff;
      }

      .cls-2 {
        fill: #72c0e9;
      }
    </style>
  </defs>
  <g id="timer-stop">
    <g>
      <path class="cls-2" d="m70.01,0h3.69c38.54,1.35,68.78,32.3,69.8,71.12v2.59c-.82,39.13-31.57,70.29-70.31,71.22h-3.28C31.47,143.69,1.13,112.95,0,74.12v-3.11C1.13,32.2,31.26,1.24,70.01,0h0Zm-2.87,39.44c-3.28-12.42-21.42-12.22-24.29.41-.2,1.04-.41,3-.41,5.59v54.97c0,2.17.2,3.73.41,4.87,1.33,5.49,5.74,9.11,11.27,9.42,7.28.52,13.43-4.97,13.43-12.32v-57.87c0-2.28-.1-4.04-.41-5.07h0Zm23.27,75.16c6.25-.83,10.66-6.11,10.66-12.42v-57.04c0-2.59-.2-4.45-.41-5.59-3.28-12.73-21.93-12.11-24.39.62-.2.93-.31,1.66-.31,2.28v59.63c0,8.07,6.66,13.67,14.45,12.53h0Z"/>
      <path class="cls-1" d="m42.84,39.86c2.87-12.63,21.01-12.84,24.29-.41.31,1.04.41,2.8.41,5.07v57.87c0,7.35-6.15,12.84-13.43,12.32-5.53-.31-9.94-3.93-11.27-9.42-.2-1.14-.41-2.69-.41-4.87v-54.97c0-2.59.2-4.56.41-5.59h0Zm16.4,3.11c0-2.38-1.84-4.24-4.2-4.24h-.1c-2.25,0-4.1,1.86-4.1,4.24v59.22c0,2.28,1.84,4.14,4.1,4.14h.1c2.36,0,4.2-1.86,4.2-4.14v-59.22Z"/>
      <path class="cls-1" d="m101.06,102.18c0,6.32-4.41,11.59-10.66,12.42-7.79,1.14-14.45-4.45-14.45-12.53v-59.63c0-.62.1-1.35.31-2.28,2.46-12.73,21.11-13.35,24.39-.62.2,1.14.41,3,.41,5.59v57.04h0Zm-8.4-59.22c0-2.38-1.84-4.24-4.1-4.24h-.1c-2.25,0-4.2,1.86-4.2,4.24v59.22c0,2.28,1.95,4.14,4.2,4.14h.1c2.25,0,4.1-1.86,4.1-4.14v-59.22Z"/>
      <path class="cls-2" d="m54.94,38.72h.1c2.36,0,4.2,1.86,4.2,4.24v59.22c0,2.28-1.84,4.14-4.2,4.14h-.1c-2.25,0-4.1-1.86-4.1-4.14v-59.22c0-2.38,1.84-4.24,4.1-4.24h0Z"/>
      <path class="cls-2" d="m88.46,38.72h.1c2.25,0,4.1,1.86,4.1,4.24v59.22c0,2.28-1.84,4.14-4.1,4.14h-.1c-2.25,0-4.2-1.86-4.2-4.14v-59.22c0-2.38,1.95-4.24,4.2-4.24h0Z"/>
    </g>
  </g>
</svg>