<?xml version="1.0" encoding="UTF-8" standalone="no"?>
<!DOCTYPE svg PUBLIC "-//W3C//DTD SVG 1.1//EN" "http://www.w3.org/Graphics/SVG/1.1/DTD/svg11.dtd">
<svg xmlns="http://www.w3.org/2000/svg" version="1.1" viewBox="0.00 0.00 512.00 512.00">
<g stroke-width="2.00" fill="none" stroke-linecap="butt">
<path stroke="#705d74" vector-effect="non-scaling-stroke" d="
  M 256.32 0.00
  Q 255.81 2.12 255.79 4.25
  Q 255.72 17.13 255.79 29.99"
/>
<path stroke="#705d74" vector-effect="non-scaling-stroke" d="
  M 255.79 29.99
  L 205.22 29.98"
/>
<path stroke="#564059" vector-effect="non-scaling-stroke" d="
  M 307.05 29.96
  L 255.79 29.99"
/>
<path stroke="#564059" vector-effect="non-scaling-stroke" d="
  M 255.79 29.99
  L 255.78 76.42
  A 1.35 1.35 0.0 0 0 257.08 77.77
  Q 263.68 78.00 270.80 78.36
  Q 289.16 79.26 307.04 83.74"
/>
<path stroke="#47344b" vector-effect="non-scaling-stroke" d="
  M 384.03 119.36
  Q 410.16 138.53 429.38 163.83"
/>
<path stroke="#705d74" vector-effect="non-scaling-stroke" d="
  M 255.86 512.00
  L 256.00 482.04"
/>
<path stroke="#a79ead" vector-effect="non-scaling-stroke" d="
  M 256.00 482.04
  Q 256.00 482.00 256.01 481.97"
/>
<path stroke="#9c94a6" vector-effect="non-scaling-stroke" d="
  M 256.01 481.97
  L 271.00 481.21"
/>
<path stroke="#a79ead" vector-effect="non-scaling-stroke" d="
  M 271.00 481.21
  Q 305.73 478.30 336.56 463.53"
/>
<path stroke="#9c94a6" vector-effect="non-scaling-stroke" d="
  M 336.56 463.53
  Q 350.15 456.98 362.11 448.71"
/>
<path stroke="#a79ead" vector-effect="non-scaling-stroke" d="
  M 362.11 448.71
  Q 391.68 428.09 411.18 399.02"
/>
<path stroke="#9c94a6" vector-effect="non-scaling-stroke" d="
  M 411.18 399.02
  Q 419.68 386.44 425.72 373.32"
/>
<path stroke="#a79ead" vector-effect="non-scaling-stroke" d="
  M 425.72 373.32
  Q 439.72 342.98 442.39 309.76"
/>
<path stroke="#9c94a6" vector-effect="non-scaling-stroke" d="
  M 442.39 309.76
  Q 443.76 294.77 442.39 280.10"
/>
<path stroke="#a79ead" vector-effect="non-scaling-stroke" d="
  M 442.39 280.10
  Q 439.64 245.73 424.77 214.51"
/>
<path stroke="#9c94a6" vector-effect="non-scaling-stroke" d="
  M 424.77 214.51
  Q 418.39 201.28 409.89 188.92"
/>
<path stroke="#a79ead" vector-effect="non-scaling-stroke" d="
  M 409.89 188.92
  Q 389.68 159.77 360.20 139.87"
/>
<path stroke="#9c94a6" vector-effect="non-scaling-stroke" d="
  M 360.20 139.87
  Q 348.25 131.78 334.64 125.44"
/>
<path stroke="#a79ead" vector-effect="non-scaling-stroke" d="
  M 334.64 125.44
  Q 304.60 111.42 270.86 108.67"
/>
<path stroke="#9c94a6" vector-effect="non-scaling-stroke" d="
  M 270.86 108.67
  L 255.97 107.98"
/>
<path stroke="#a79ead" vector-effect="non-scaling-stroke" d="
  M 255.97 107.98
  Q 255.87 107.98 255.76 107.98"
/>
<path stroke="#705d74" vector-effect="non-scaling-stroke" d="
  M 255.76 107.98
  L 255.73 78.51
  Q 255.73 77.98 255.20 77.98
  C 237.91 78.06 222.12 80.49 205.26 83.86"
/>
<path stroke="#b4acbb" vector-effect="non-scaling-stroke" d="
  M 255.76 107.98
  L 241.09 108.55"
/>
<path stroke="#bcb1bd" vector-effect="non-scaling-stroke" d="
  M 241.09 108.55
  Q 206.09 111.50 175.79 126.07"
/>
<path stroke="#b4acbb" vector-effect="non-scaling-stroke" d="
  M 175.79 126.07
  Q 162.60 132.33 150.35 140.70"
/>
<path stroke="#bcb1bd" vector-effect="non-scaling-stroke" d="
  M 150.35 140.70
  Q 120.90 160.97 100.69 190.72"
/>
<path stroke="#b4acbb" vector-effect="non-scaling-stroke" d="
  M 100.69 190.72
  Q 92.32 203.24 86.04 216.65"
/>
<path stroke="#bcb1bd" vector-effect="non-scaling-stroke" d="
  M 86.04 216.65
  Q 71.97 247.27 69.43 280.31"
/>
<path stroke="#b4acbb" vector-effect="non-scaling-stroke" d="
  M 69.43 280.31
  Q 68.43 295.63 69.47 310.12"
/>
<path stroke="#bcb1bd" vector-effect="non-scaling-stroke" d="
  M 69.47 310.12
  Q 72.35 344.69 87.18 375.56"
/>
<path stroke="#b4acbb" vector-effect="non-scaling-stroke" d="
  M 87.18 375.56
  Q 93.73 389.13 102.08 401.14"
/>
<path stroke="#bcb1bd" vector-effect="non-scaling-stroke" d="
  M 102.08 401.14
  Q 122.39 430.39 151.80 450.13"
/>
<path stroke="#b4acbb" vector-effect="non-scaling-stroke" d="
  M 151.80 450.13
  Q 163.87 458.31 177.49 464.64"
/>
<path stroke="#bcb1bd" vector-effect="non-scaling-stroke" d="
  M 177.49 464.64
  Q 208.03 478.70 241.20 481.33"
/>
<path stroke="#b4acbb" vector-effect="non-scaling-stroke" d="
  M 241.20 481.33
  L 256.00 482.04"
/>
<path stroke="#634e67" vector-effect="non-scaling-stroke" d="
  M 83.25 163.32
  Q 103.09 137.88 128.67 119.12"
/>
<path stroke="#e0e3ed" vector-effect="non-scaling-stroke" d="
  M 255.97 107.98
  L 255.93 143.50"
/>
<path stroke="#f3f2f6" vector-effect="non-scaling-stroke" d="
  M 255.93 143.50
  C 243.38 142.15 241.25 134.21 241.29 122.96
  Q 241.31 115.81 241.09 108.55"
/>
<path stroke="#e0e3ed" vector-effect="non-scaling-stroke" d="
  M 270.86 108.67
  C 270.71 116.51 271.95 128.61 269.31 134.74
  Q 266.04 142.33 255.93 143.63"
/>
<path stroke="#e8e8ef" vector-effect="non-scaling-stroke" d="
  M 255.93 143.63
  Q 255.93 143.56 255.93 143.50"
/>
<path stroke="#f3f2f6" vector-effect="non-scaling-stroke" d="
  M 255.93 143.63
  L 256.00 174.21"
/>
<path stroke="#afa3af" vector-effect="non-scaling-stroke" d="
  M 256.00 174.21
  C 245.45 175.02 241.06 181.61 240.94 191.36
  Q 240.53 225.17 240.83 259.46"
/>
<path stroke="#fddaae" vector-effect="non-scaling-stroke" d="
  M 240.83 259.46
  C 232.57 264.04 226.67 268.43 222.17 276.76
  C 208.14 302.74 227.12 332.45 255.75 333.46"
/>
<path stroke="#fdccac" vector-effect="non-scaling-stroke" d="
  M 255.75 333.46
  L 256.34 333.60"
/>
<path stroke="#f3f2f6" vector-effect="non-scaling-stroke" d="
  M 256.34 333.60
  C 255.56 336.57 256.00 339.42 256.00 341.96
  Q 256.00 393.71 256.00 445.56
  Q 256.00 446.11 255.46 446.19
  C 244.21 447.90 241.15 455.11 241.21 465.52
  Q 241.25 473.34 241.20 481.33"
/>
<path stroke="#f3f2f6" vector-effect="non-scaling-stroke" d="
  M 177.49 464.64
  Q 181.97 456.98 186.14 449.31
  Q 188.73 444.54 189.02 441.13
  C 190.08 428.77 176.23 420.50 165.98 427.92
  Q 163.22 429.93 159.76 436.08
  Q 155.82 443.09 151.80 450.13"
/>
<path stroke="#f3f2f6" vector-effect="non-scaling-stroke" d="
  M 102.08 401.14
  Q 109.59 396.48 117.18 392.10
  Q 121.63 389.53 123.54 387.03
  C 133.22 374.40 119.05 358.09 104.95 365.16
  Q 100.66 367.31 87.18 375.56"
/>
<path stroke="#f3f2f6" vector-effect="non-scaling-stroke" d="
  M 69.47 310.12
  C 76.70 309.66 87.08 310.91 93.49 309.04
  C 107.14 305.05 108.13 286.01 94.68 281.14
  Q 92.10 280.20 86.71 280.20
  Q 78.15 280.21 69.43 280.31"
/>
<path stroke="#f3f2f6" vector-effect="non-scaling-stroke" d="
  M 86.04 216.65
  Q 93.13 220.18 99.90 224.20
  Q 104.97 227.21 108.13 227.79
  C 120.96 230.18 130.72 216.30 123.02 205.23
  C 119.16 199.67 107.21 194.36 100.69 190.72"
/>
<path stroke="#f3f2f6" vector-effect="non-scaling-stroke" d="
  M 150.35 140.70
  Q 154.53 149.18 159.32 157.19
  Q 162.39 162.32 166.91 164.42
  C 176.02 168.66 187.13 161.78 187.32 151.57
  C 187.46 144.47 179.89 133.80 175.79 126.07"
/>
<path stroke="#e0e3ed" vector-effect="non-scaling-stroke" d="
  M 334.64 125.44
  Q 326.64 138.33 324.18 143.94
  C 316.58 161.27 340.91 173.80 351.17 155.91
  Q 355.71 148.00 360.20 139.87"
/>
<path stroke="#e0e3ed" vector-effect="non-scaling-stroke" d="
  M 409.89 188.92
  Q 401.92 193.49 394.22 198.07
  C 375.23 209.36 390.31 234.03 407.53 224.25
  Q 416.02 219.43 424.77 214.51"
/>
<path stroke="#e0e3ed" vector-effect="non-scaling-stroke" d="
  M 442.39 280.10
  Q 433.92 280.32 425.71 280.27
  C 418.37 280.22 412.57 281.63 409.30 288.06
  C 404.02 298.43 411.63 309.69 422.99 309.72
  Q 432.47 309.75 442.39 309.76"
/>
<path stroke="#e0e3ed" vector-effect="non-scaling-stroke" d="
  M 425.72 373.32
  C 418.96 369.48 406.05 360.31 398.69 361.85
  C 385.75 364.57 381.45 381.46 392.83 388.66
  Q 396.43 390.94 411.18 399.02"
/>
<path stroke="#e0e3ed" vector-effect="non-scaling-stroke" d="
  M 362.11 448.71
  Q 354.04 434.70 351.83 431.18
  C 341.72 415.05 317.34 429.22 326.34 445.93
  Q 328.79 450.47 336.56 463.53"
/>
<path stroke="#e0e3ed" vector-effect="non-scaling-stroke" d="
  M 271.00 481.21
  Q 270.66 472.77 270.72 464.55
  C 270.79 454.99 267.38 447.59 256.85 446.48
  Q 256.06 446.40 256.06 447.19
  L 256.01 481.97"
/>
<path stroke="#f5c7a9" vector-effect="non-scaling-stroke" d="
  M 256.34 333.60
  C 272.63 333.05 284.68 324.47 291.77 309.98"
/>
<path stroke="#9a8fa0" vector-effect="non-scaling-stroke" d="
  M 291.77 309.98
  Q 313.59 310.03 334.94 309.99
  Q 340.70 309.98 343.39 308.89
  C 359.25 302.50 353.71 280.16 336.50 280.07
  Q 314.39 279.95 291.82 280.03"
/>
<path stroke="#f5c7a9" vector-effect="non-scaling-stroke" d="
  M 291.82 280.03
  Q 285.31 265.70 270.99 259.20"
/>
<path stroke="#9a8fa0" vector-effect="non-scaling-stroke" d="
  M 270.99 259.20
  Q 271.01 227.68 271.00 196.57
  Q 270.99 186.27 269.37 182.66
  Q 265.99 175.10 255.90 174.11"
/>
<path stroke="#a79ead" vector-effect="non-scaling-stroke" d="
  M 255.90 174.11
  Q 255.95 174.16 256.00 174.21"
/>
<path stroke="#564059" vector-effect="non-scaling-stroke" d="
  M 255.90 174.11
  L 255.83 256.19"
/>
<path stroke="#b17863" vector-effect="non-scaling-stroke" d="
  M 255.83 256.19
  L 255.44 256.43"
/>
<path stroke="#b18665" vector-effect="non-scaling-stroke" d="
  M 255.44 256.43
  Q 248.01 256.66 240.83 259.46"
/>
<path stroke="#a46956" vector-effect="non-scaling-stroke" d="
  M 270.99 259.20
  Q 263.74 256.35 255.83 256.19"
/>
<path stroke="#a46956" vector-effect="non-scaling-stroke" d="
  M 291.82 280.03
  Q 297.74 294.89 291.77 309.98"
/>
<path stroke="#ffae62" vector-effect="non-scaling-stroke" d="
  M 255.75 333.46
  L 255.69 257.08
  A 0.70 0.63 29.3 0 0 255.56 256.69
  Q 255.49 256.59 255.44 256.43"
/>
</g>
<path fill="#7d6a82" d="
  M 168.06 0.00
  L 256.32 0.00
  Q 255.81 2.12 255.79 4.25
  Q 255.72 17.13 255.79 29.99
  L 205.22 29.98
  Q 190.16 29.97 175.49 30.04
  Q 167.22 30.07 163.70 28.68
  C 148.97 22.87 152.77 2.61 168.06 0.00
  Z"
/>
<path fill="#634f66" d="
  M 256.32 0.00
  L 345.53 0.00
  C 359.19 3.88 362.87 22.41 349.20 28.63
  Q 346.22 29.98 340.58 29.99
  Q 324.02 30.03 307.05 29.96
  L 255.79 29.99
  Q 255.72 17.13 255.79 4.25
  Q 255.81 2.12 256.32 0.00
  Z"
/>
<path fill="#634f66" d="
  M 255.79 29.99
  L 255.78 76.42
  A 1.35 1.35 0.0 0 0 257.08 77.77
  Q 263.68 78.00 270.80 78.36
  Q 289.16 79.26 307.04 83.74
  Q 348.83 93.85 384.03 119.36
  Q 410.16 138.53 429.38 163.83
  Q 437.00 174.26 441.26 181.24
  C 488.92 259.27 482.82 357.92 426.69 429.44
  C 388.19 478.50 329.72 508.59 266.40 512.00
  L 255.86 512.00
  L 256.00 482.04
  Q 256.00 482.00 256.01 481.97
  L 271.00 481.21
  Q 305.73 478.30 336.56 463.53
  Q 350.15 456.98 362.11 448.71
  Q 391.68 428.09 411.18 399.02
  Q 419.68 386.44 425.72 373.32
  Q 439.72 342.98 442.39 309.76
  Q 443.76 294.77 442.39 280.10
  Q 439.64 245.73 424.77 214.51
  Q 418.39 201.28 409.89 188.92
  Q 389.68 159.77 360.20 139.87
  Q 348.25 131.78 334.64 125.44
  Q 304.60 111.42 270.86 108.67
  L 255.97 107.98
  Q 255.87 107.98 255.76 107.98
  L 255.73 78.51
  Q 255.73 77.98 255.20 77.98
  C 237.91 78.06 222.12 80.49 205.26 83.86
  L 205.22 29.98
  L 255.79 29.99
  Z"
/>
<path fill="#48314c" d="
  M 307.05 29.96
  L 307.04 83.74
  Q 289.16 79.26 270.80 78.36
  Q 263.68 78.00 257.08 77.77
  A 1.35 1.35 0.0 0 1 255.78 76.42
  L 255.79 29.99
  L 307.05 29.96
  Z"
/>
<path fill="#7d6a82" d="
  M 255.76 107.98
  L 241.09 108.55
  Q 206.09 111.50 175.79 126.07
  Q 162.60 132.33 150.35 140.70
  Q 120.90 160.97 100.69 190.72
  Q 92.32 203.24 86.04 216.65
  Q 71.97 247.27 69.43 280.31
  Q 68.43 295.63 69.47 310.12
  Q 72.35 344.69 87.18 375.56
  Q 93.73 389.13 102.08 401.14
  Q 122.39 430.39 151.80 450.13
  Q 163.87 458.31 177.49 464.64
  Q 208.03 478.70 241.20 481.33
  L 256.00 482.04
  L 255.86 512.00
  L 252.20 512.00
  Q 181.06 510.04 125.31 468.24
  C 75.19 430.67 42.53 371.21 39.22 308.30
  Q 34.99 227.81 83.25 163.32
  Q 103.09 137.88 128.67 119.12
  Q 163.58 93.90 205.26 83.86
  C 222.12 80.49 237.91 78.06 255.20 77.98
  Q 255.73 77.98 255.73 78.51
  L 255.76 107.98
  Z"
/>
<path fill="#48314c" d="
  M 128.67 119.12
  Q 103.09 137.88 83.25 163.32
  C 72.47 152.69 56.07 140.31 55.47 124.50
  C 54.56 100.26 79.14 83.36 101.33 94.21
  Q 105.50 96.25 110.84 101.37
  Q 119.92 110.08 128.67 119.12
  Z"
/>
<path fill="#2b182f" d="
  M 429.38 163.83
  Q 410.16 138.53 384.03 119.36
  Q 393.20 109.97 402.64 100.93
  Q 407.63 96.15 411.67 94.16
  C 438.16 81.13 467.46 108.80 454.42 136.12
  Q 452.28 140.60 446.25 146.89
  Q 438.05 155.47 429.38 163.83
  Z"
/>
<path fill="#ebedf3" d="
  M 255.76 107.98
  Q 255.87 107.98 255.97 107.98
  L 255.93 143.50
  C 243.38 142.15 241.25 134.21 241.29 122.96
  Q 241.31 115.81 241.09 108.55
  L 255.76 107.98
  Z"
/>
<path fill="#d5d9e6" d="
  M 255.97 107.98
  L 270.86 108.67
  C 270.71 116.51 271.95 128.61 269.31 134.74
  Q 266.04 142.33 255.93 143.63
  Q 255.93 143.56 255.93 143.50
  L 255.97 107.98
  Z"
/>
<path fill="#fbf7f8" d="
  M 241.09 108.55
  Q 241.31 115.81 241.29 122.96
  C 241.25 134.21 243.38 142.15 255.93 143.50
  Q 255.93 143.56 255.93 143.63
  L 256.00 174.21
  C 245.45 175.02 241.06 181.61 240.94 191.36
  Q 240.53 225.17 240.83 259.46
  C 232.57 264.04 226.67 268.43 222.17 276.76
  C 208.14 302.74 227.12 332.45 255.75 333.46
  L 256.34 333.60
  C 255.56 336.57 256.00 339.42 256.00 341.96
  Q 256.00 393.71 256.00 445.56
  Q 256.00 446.11 255.46 446.19
  C 244.21 447.90 241.15 455.11 241.21 465.52
  Q 241.25 473.34 241.20 481.33
  Q 208.03 478.70 177.49 464.64
  Q 181.97 456.98 186.14 449.31
  Q 188.73 444.54 189.02 441.13
  C 190.08 428.77 176.23 420.50 165.98 427.92
  Q 163.22 429.93 159.76 436.08
  Q 155.82 443.09 151.80 450.13
  Q 122.39 430.39 102.08 401.14
  Q 109.59 396.48 117.18 392.10
  Q 121.63 389.53 123.54 387.03
  C 133.22 374.40 119.05 358.09 104.95 365.16
  Q 100.66 367.31 87.18 375.56
  Q 72.35 344.69 69.47 310.12
  C 76.70 309.66 87.08 310.91 93.49 309.04
  C 107.14 305.05 108.13 286.01 94.68 281.14
  Q 92.10 280.20 86.71 280.20
  Q 78.15 280.21 69.43 280.31
  Q 71.97 247.27 86.04 216.65
  Q 93.13 220.18 99.90 224.20
  Q 104.97 227.21 108.13 227.79
  C 120.96 230.18 130.72 216.30 123.02 205.23
  C 119.16 199.67 107.21 194.36 100.69 190.72
  Q 120.90 160.97 150.35 140.70
  Q 154.53 149.18 159.32 157.19
  Q 162.39 162.32 166.91 164.42
  C 176.02 168.66 187.13 161.78 187.32 151.57
  C 187.46 144.47 179.89 133.80 175.79 126.07
  Q 206.09 111.50 241.09 108.55
  Z"
/>
<path fill="#ebedf3" d="
  M 270.86 108.67
  Q 304.60 111.42 334.64 125.44
  Q 326.64 138.33 324.18 143.94
  C 316.58 161.27 340.91 173.80 351.17 155.91
  Q 355.71 148.00 360.20 139.87
  Q 389.68 159.77 409.89 188.92
  Q 401.92 193.49 394.22 198.07
  C 375.23 209.36 390.31 234.03 407.53 224.25
  Q 416.02 219.43 424.77 214.51
  Q 439.64 245.73 442.39 280.10
  Q 433.92 280.32 425.71 280.27
  C 418.37 280.22 412.57 281.63 409.30 288.06
  C 404.02 298.43 411.63 309.69 422.99 309.72
  Q 432.47 309.75 442.39 309.76
  Q 439.72 342.98 425.72 373.32
  C 418.96 369.48 406.05 360.31 398.69 361.85
  C 385.75 364.57 381.45 381.46 392.83 388.66
  Q 396.43 390.94 411.18 399.02
  Q 391.68 428.09 362.11 448.71
  Q 354.04 434.70 351.83 431.18
  C 341.72 415.05 317.34 429.22 326.34 445.93
  Q 328.79 450.47 336.56 463.53
  Q 305.73 478.30 271.00 481.21
  Q 270.66 472.77 270.72 464.55
  C 270.79 454.99 267.38 447.59 256.85 446.48
  Q 256.06 446.40 256.06 447.19
  L 256.01 481.97
  Q 256.00 482.00 256.00 482.04
  L 241.20 481.33
  Q 241.25 473.34 241.21 465.52
  C 241.15 455.11 244.21 447.90 255.46 446.19
  Q 256.00 446.11 256.00 445.56
  Q 256.00 393.71 256.00 341.96
  C 256.00 339.42 255.56 336.57 256.34 333.60
  C 272.63 333.05 284.68 324.47 291.77 309.98
  Q 313.59 310.03 334.94 309.99
  Q 340.70 309.98 343.39 308.89
  C 359.25 302.50 353.71 280.16 336.50 280.07
  Q 314.39 279.95 291.82 280.03
  Q 285.31 265.70 270.99 259.20
  Q 271.01 227.68 271.00 196.57
  Q 270.99 186.27 269.37 182.66
  Q 265.99 175.10 255.90 174.11
  Q 255.95 174.16 256.00 174.21
  L 255.93 143.63
  Q 266.04 142.33 269.31 134.74
  C 271.95 128.61 270.71 116.51 270.86 108.67
  Z"
/>
<path fill="#d5d9e6" d="
  M 334.64 125.44
  Q 348.25 131.78 360.20 139.87
  Q 355.71 148.00 351.17 155.91
  C 340.91 173.80 316.58 161.27 324.18 143.94
  Q 326.64 138.33 334.64 125.44
  Z"
/>
<path fill="#ebedf3" d="
  M 175.79 126.07
  C 179.89 133.80 187.46 144.47 187.32 151.57
  C 187.13 161.78 176.02 168.66 166.91 164.42
  Q 162.39 162.32 159.32 157.19
  Q 154.53 149.18 150.35 140.70
  Q 162.60 132.33 175.79 126.07
  Z"
/>
<path fill="#634f66" d="
  M 256.00 174.21
  Q 255.95 174.16 255.90 174.11
  L 255.83 256.19
  L 255.44 256.43
  Q 248.01 256.66 240.83 259.46
  Q 240.53 225.17 240.94 191.36
  C 241.06 181.61 245.45 175.02 256.00 174.21
  Z"
/>
<path fill="#48314c" d="
  M 255.90 174.11
  Q 265.99 175.10 269.37 182.66
  Q 270.99 186.27 271.00 196.57
  Q 271.01 227.68 270.99 259.20
  Q 263.74 256.35 255.83 256.19
  L 255.90 174.11
  Z"
/>
<path fill="#d5d9e6" d="
  M 409.89 188.92
  Q 418.39 201.28 424.77 214.51
  Q 416.02 219.43 407.53 224.25
  C 390.31 234.03 375.23 209.36 394.22 198.07
  Q 401.92 193.49 409.89 188.92
  Z"
/>
<path fill="#ebedf3" d="
  M 100.69 190.72
  C 107.21 194.36 119.16 199.67 123.02 205.23
  C 130.72 216.30 120.96 230.18 108.13 227.79
  Q 104.97 227.21 99.90 224.20
  Q 93.13 220.18 86.04 216.65
  Q 92.32 203.24 100.69 190.72
  Z"
/>
<path fill="#ffa05f" d="
  M 255.83 256.19
  Q 263.74 256.35 270.99 259.20
  Q 285.31 265.70 291.82 280.03
  Q 297.74 294.89 291.77 309.98
  C 284.68 324.47 272.63 333.05 256.34 333.60
  L 255.75 333.46
  L 255.69 257.08
  A 0.70 0.63 29.3 0 0 255.56 256.69
  Q 255.49 256.59 255.44 256.43
  L 255.83 256.19
  Z"
/>
<path fill="#ffbc64" d="
  M 255.44 256.43
  Q 255.49 256.59 255.56 256.69
  A 0.70 0.63 29.3 0 1 255.69 257.08
  L 255.75 333.46
  C 227.12 332.45 208.14 302.74 222.17 276.76
  C 226.67 268.43 232.57 264.04 240.83 259.46
  Q 248.01 256.66 255.44 256.43
  Z"
/>
<path fill="#ebedf3" d="
  M 69.47 310.12
  Q 68.43 295.63 69.43 280.31
  Q 78.15 280.21 86.71 280.20
  Q 92.10 280.20 94.68 281.14
  C 108.13 286.01 107.14 305.05 93.49 309.04
  C 87.08 310.91 76.70 309.66 69.47 310.12
  Z"
/>
<path fill="#48314c" d="
  M 291.82 280.03
  Q 314.39 279.95 336.50 280.07
  C 353.71 280.16 359.25 302.50 343.39 308.89
  Q 340.70 309.98 334.94 309.99
  Q 313.59 310.03 291.77 309.98
  Q 297.74 294.89 291.82 280.03
  Z"
/>
<path fill="#d5d9e6" d="
  M 442.39 280.10
  Q 443.76 294.77 442.39 309.76
  Q 432.47 309.75 422.99 309.72
  C 411.63 309.69 404.02 298.43 409.30 288.06
  C 412.57 281.63 418.37 280.22 425.71 280.27
  Q 433.92 280.32 442.39 280.10
  Z"
/>
<path fill="#d5d9e6" d="
  M 425.72 373.32
  Q 419.68 386.44 411.18 399.02
  Q 396.43 390.94 392.83 388.66
  C 381.45 381.46 385.75 364.57 398.69 361.85
  C 406.05 360.31 418.96 369.48 425.72 373.32
  Z"
/>
<path fill="#ebedf3" d="
  M 102.08 401.14
  Q 93.73 389.13 87.18 375.56
  Q 100.66 367.31 104.95 365.16
  C 119.05 358.09 133.22 374.40 123.54 387.03
  Q 121.63 389.53 117.18 392.10
  Q 109.59 396.48 102.08 401.14
  Z"
/>
<path fill="#d5d9e6" d="
  M 362.11 448.71
  Q 350.15 456.98 336.56 463.53
  Q 328.79 450.47 326.34 445.93
  C 317.34 429.22 341.72 415.05 351.83 431.18
  Q 354.04 434.70 362.11 448.71
  Z"
/>
<path fill="#ebedf3" d="
  M 177.49 464.64
  Q 163.87 458.31 151.80 450.13
  Q 155.82 443.09 159.76 436.08
  Q 163.22 429.93 165.98 427.92
  C 176.23 420.50 190.08 428.77 189.02 441.13
  Q 188.73 444.54 186.14 449.31
  Q 181.97 456.98 177.49 464.64
  Z"
/>
<path fill="#d5d9e6" d="
  M 271.00 481.21
  L 256.01 481.97
  L 256.06 447.19
  Q 256.06 446.40 256.85 446.48
  C 267.38 447.59 270.79 454.99 270.72 464.55
  Q 270.66 472.77 271.00 481.21
  Z"
/>
</svg>
