<?xml version="1.0" encoding="UTF-8" standalone="no"?>
<!DOCTYPE svg PUBLIC "-//W3C//DTD SVG 1.1//EN" "http://www.w3.org/Graphics/SVG/1.1/DTD/svg11.dtd">
<svg xmlns="http://www.w3.org/2000/svg" version="1.1" viewBox="0.00 0.00 512.00 512.00">
<g stroke-width="2.00" fill="none" stroke-linecap="butt">
<path stroke="#ea9e35" vector-effect="non-scaling-stroke" d="
  M 111.20 149.76
  Q 96.93 155.70 84.52 163.55"
/>
<path stroke="#ea9e35" vector-effect="non-scaling-stroke" d="
  M 39.78 203.33
  Q 30.19 215.40 22.92 228.26"
/>
<path stroke="#f0cb38" vector-effect="non-scaling-stroke" d="
  M 180.25 136.04
  L 180.11 210.95"
/>
<path stroke="#ea9e35" vector-effect="non-scaling-stroke" d="
  M 180.11 210.95
  Q 180.06 210.99 180.00 211.04"
/>
<path stroke="#edb433" vector-effect="non-scaling-stroke" d="
  M 180.00 211.04
  C 127.85 211.56 84.81 248.48 76.40 299.57
  C 71.80 327.59 79.16 356.75 96.43 379.23
  Q 127.00 419.02 179.95 421.19"
/>
<path stroke="#f0cb38" vector-effect="non-scaling-stroke" d="
  M 179.95 421.19
  Q 180.08 457.69 179.94 494.56
  C 179.94 495.06 179.69 495.54 179.50 496.01"
/>
<path stroke="#e9a627" vector-effect="non-scaling-stroke" d="
  M 179.95 421.19
  Q 180.50 420.82 180.04 421.03"
/>
<path stroke="#e69129" vector-effect="non-scaling-stroke" d="
  M 180.04 421.03
  C 223.07 420.37 260.76 395.35 277.15 355.62
  C 293.11 316.91 283.94 272.18 254.85 242.54
  C 235.00 222.30 208.76 211.48 180.11 210.95"
/>
<path stroke="#e27a24" vector-effect="non-scaling-stroke" d="
  M 180.00 211.04
  L 180.01 271.01
  Q 157.72 271.70 144.82 288.06
  C 122.30 316.64 141.73 360.64 179.11 360.81
  Q 180.04 360.82 180.04 361.75
  L 180.04 421.03"
/>
<path stroke="#d7501a" vector-effect="non-scaling-stroke" d="
  M 180.01 271.01
  L 180.01 360.51
  Q 180.01 361.07 180.56 361.03
  Q 203.29 359.68 215.80 342.97
  C 238.41 312.77 216.73 271.93 180.01 271.01"
/>
</g>
<rect fill="#7dc1fc" x="330.00" y="16.00" width="30.00" height="90.00" rx="0.43"/>
<rect fill="#7dc1fc" x="-15.00" y="-40.41" transform="translate(419.86,68.22) rotate(21.8)" width="30.00" height="80.82" rx="0.30"/>
<rect fill="#7dc1fc" x="-15.00" y="-40.41" transform="translate(270.13,68.67) rotate(-21.8)" width="30.00" height="80.82" rx="0.72"/>
<path fill="#df6426" d="
  M 111.20 149.76
  Q 96.93 155.70 84.52 163.55
  Q 71.24 147.32 51.96 152.22
  C 41.93 154.77 34.03 162.94 31.26 172.87
  Q 26.55 189.72 39.78 203.33
  Q 30.19 215.40 22.92 228.26
  Q 1.57 210.74 0.00 182.95
  L 0.00 178.21
  C 4.42 119.25 78.94 99.58 111.20 149.76
  Z"
/>
<path fill="#f4d844" d="
  M 180.25 136.04
  L 180.11 210.95
  Q 180.06 210.99 180.00 211.04
  C 127.85 211.56 84.81 248.48 76.40 299.57
  C 71.80 327.59 79.16 356.75 96.43 379.23
  Q 127.00 419.02 179.95 421.19
  Q 180.08 457.69 179.94 494.56
  C 179.94 495.06 179.69 495.54 179.50 496.01
  C 81.31 494.60 2.44 418.01 0.00 319.42
  L 0.00 312.46
  Q 1.12 267.70 22.92 228.26
  Q 30.19 215.40 39.78 203.33
  Q 58.72 179.88 84.52 163.55
  Q 96.93 155.70 111.20 149.76
  Q 144.14 136.12 180.25 136.04
  Z"
/>
<path fill="#ecbd2c" d="
  M 180.25 136.04
  L 308.92 136.01
  A 0.56 0.55 -12.7 0 1 309.42 136.32
  L 324.01 165.52
  Q 324.25 166.00 324.78 166.00
  L 374.50 166.00
  A 0.50 0.50 0.0 0 0 375.00 165.50
  L 375.00 136.75
  A 0.74 0.74 0.0 0 1 375.74 136.01
  L 512.00 136.02
  L 512.00 221.86
  L 355.54 273.38
  A 0.74 0.73 74.1 0 0 355.06 274.25
  C 382.12 387.82 295.53 495.77 179.50 496.01
  C 179.69 495.54 179.94 495.06 179.94 494.56
  Q 180.08 457.69 179.95 421.19
  Q 180.50 420.82 180.04 421.03
  C 223.07 420.37 260.76 395.35 277.15 355.62
  C 293.11 316.91 283.94 272.18 254.85 242.54
  C 235.00 222.30 208.76 211.48 180.11 210.95
  L 180.25 136.04
  Z"
/>
<path fill="#e58f22" d="
  M 180.00 211.04
  L 180.01 271.01
  Q 157.72 271.70 144.82 288.06
  C 122.30 316.64 141.73 360.64 179.11 360.81
  Q 180.04 360.82 180.04 361.75
  L 180.04 421.03
  Q 180.50 420.82 179.95 421.19
  Q 127.00 419.02 96.43 379.23
  C 79.16 356.75 71.80 327.59 76.40 299.57
  C 84.81 248.48 127.85 211.56 180.00 211.04
  Z"
/>
<path fill="#df6426" d="
  M 180.00 211.04
  Q 180.06 210.99 180.11 210.95
  C 208.76 211.48 235.00 222.30 254.85 242.54
  C 283.94 272.18 293.11 316.91 277.15 355.62
  C 260.76 395.35 223.07 420.37 180.04 421.03
  L 180.04 361.75
  Q 180.04 360.82 179.11 360.81
  C 141.73 360.64 122.30 316.64 144.82 288.06
  Q 157.72 271.70 180.01 271.01
  L 180.01 360.51
  Q 180.01 361.07 180.56 361.03
  Q 203.29 359.68 215.80 342.97
  C 238.41 312.77 216.73 271.93 180.01 271.01
  L 180.00 211.04
  Z"
/>
<path fill="#ce3b0e" d="
  M 180.01 271.01
  C 216.73 271.93 238.41 312.77 215.80 342.97
  Q 203.29 359.68 180.56 361.03
  Q 180.01 361.07 180.01 360.51
  L 180.01 271.01
  Z"
/>
</svg>
