<?xml version="1.0" encoding="UTF-8" standalone="no"?>
<!DOCTYPE svg PUBLIC "-//W3C//DTD SVG 1.1//EN" "http://www.w3.org/Graphics/SVG/1.1/DTD/svg11.dtd">
<svg xmlns="http://www.w3.org/2000/svg" version="1.1" viewBox="0.00 0.00 512.00 512.00">
<g stroke-width="2.00" fill="none" stroke-linecap="butt">
<path stroke="#81dcff" vector-effect="non-scaling-stroke" d="
  M 315.73 303.59
  Q 315.78 321.05 315.76 338.66
  Q 315.75 350.73 317.13 356.59
  C 327.68 401.20 392.92 401.69 403.83 357.02
  Q 405.25 351.19 405.25 339.36
  Q 405.27 255.59 405.23 171.82
  Q 405.22 160.00 403.77 154.44
  C 392.23 110.19 327.34 110.99 317.09 155.69
  Q 315.70 161.77 315.74 174.97
  Q 315.79 191.80 315.73 208.53
  A 0.27 0.26 -74.6 0 1 315.33 208.76
  Q 250.82 169.87 186.48 131.13
  Q 177.42 125.68 171.95 123.98
  C 158.24 119.75 141.28 121.10 129.34 130.34
  C 116.93 139.94 106.78 154.96 106.77 170.49
  Q 106.70 251.85 106.79 333.19
  Q 106.81 347.01 108.25 353.05
  C 113.79 376.29 136.10 392.22 160.16 390.01
  Q 173.38 388.79 181.91 383.64
  Q 248.59 343.44 315.21 303.29
  A 0.35 0.34 74.7 0 1 315.73 303.59"
/>
<path stroke="#81dcff" vector-effect="non-scaling-stroke" d="
  M 302.73 235.43
  C 258.11 208.39 213.32 181.60 168.48 154.91
  C 161.58 150.81 152.52 149.55 145.72 154.68
  C 137.14 161.16 136.50 168.60 136.50 179.82
  Q 136.49 256.31 136.51 332.80
  Q 136.51 342.92 137.98 346.91
  C 140.96 354.98 149.70 362.54 158.82 361.32
  Q 162.23 360.87 169.01 356.81
  Q 275.51 293.04 307.66 273.64
  C 311.45 271.35 310.81 268.16 312.42 264.79
  C 318.50 252.08 313.83 242.16 302.73 235.43"
/>
<path stroke="#81dcff" vector-effect="non-scaling-stroke" d="
  M 375.49 166.30
  A 14.75 14.75 0.0 0 0 360.74 151.55
  L 360.28 151.55
  A 14.75 14.75 0.0 0 0 345.53 166.30
  L 345.53 345.70
  A 14.75 14.75 0.0 0 0 360.28 360.45
  L 360.74 360.45
  A 14.75 14.75 0.0 0 0 375.49 345.70
  L 375.49 166.30"
/>
</g>
<path fill="#03b8ff" d="
  M 249.58 0.00
  L 262.78 0.00
  C 400.35 4.48 508.40 113.76 512.00 251.08
  L 512.00 260.29
  C 508.99 398.27 399.32 508.56 261.18 512.00
  L 249.46 512.00
  C 112.07 507.49 4.01 398.86 0.00 261.67
  L 0.00 250.69
  C 3.99 113.55 111.67 4.25 249.58 0.00
  Z
  M 315.73 303.59
  Q 315.78 321.05 315.76 338.66
  Q 315.75 350.73 317.13 356.59
  C 327.68 401.20 392.92 401.69 403.83 357.02
  Q 405.25 351.19 405.25 339.36
  Q 405.27 255.59 405.23 171.82
  Q 405.22 160.00 403.77 154.44
  C 392.23 110.19 327.34 110.99 317.09 155.69
  Q 315.70 161.77 315.74 174.97
  Q 315.79 191.80 315.73 208.53
  A 0.27 0.26 -74.6 0 1 315.33 208.76
  Q 250.82 169.87 186.48 131.13
  Q 177.42 125.68 171.95 123.98
  C 158.24 119.75 141.28 121.10 129.34 130.34
  C 116.93 139.94 106.78 154.96 106.77 170.49
  Q 106.70 251.85 106.79 333.19
  Q 106.81 347.01 108.25 353.05
  C 113.79 376.29 136.10 392.22 160.16 390.01
  Q 173.38 388.79 181.91 383.64
  Q 248.59 343.44 315.21 303.29
  A 0.35 0.34 74.7 0 1 315.73 303.59
  Z"
/>
<path fill="#ffffff" d="
  M 315.73 303.59
  A 0.35 0.34 74.7 0 0 315.21 303.29
  Q 248.59 343.44 181.91 383.64
  Q 173.38 388.79 160.16 390.01
  C 136.10 392.22 113.79 376.29 108.25 353.05
  Q 106.81 347.01 106.79 333.19
  Q 106.70 251.85 106.77 170.49
  C 106.78 154.96 116.93 139.94 129.34 130.34
  C 141.28 121.10 158.24 119.75 171.95 123.98
  Q 177.42 125.68 186.48 131.13
  Q 250.82 169.87 315.33 208.76
  A 0.27 0.26 -74.6 0 0 315.73 208.53
  Q 315.79 191.80 315.74 174.97
  Q 315.70 161.77 317.09 155.69
  C 327.34 110.99 392.23 110.19 403.77 154.44
  Q 405.22 160.00 405.23 171.82
  Q 405.27 255.59 405.25 339.36
  Q 405.25 351.19 403.83 357.02
  C 392.92 401.69 327.68 401.20 317.13 356.59
  Q 315.75 350.73 315.76 338.66
  Q 315.78 321.05 315.73 303.59
  Z
  M 302.73 235.43
  C 258.11 208.39 213.32 181.60 168.48 154.91
  C 161.58 150.81 152.52 149.55 145.72 154.68
  C 137.14 161.16 136.50 168.60 136.50 179.82
  Q 136.49 256.31 136.51 332.80
  Q 136.51 342.92 137.98 346.91
  C 140.96 354.98 149.70 362.54 158.82 361.32
  Q 162.23 360.87 169.01 356.81
  Q 275.51 293.04 307.66 273.64
  C 311.45 271.35 310.81 268.16 312.42 264.79
  C 318.50 252.08 313.83 242.16 302.73 235.43
  Z
  M 375.49 166.30
  A 14.75 14.75 0.0 0 0 360.74 151.55
  L 360.28 151.55
  A 14.75 14.75 0.0 0 0 345.53 166.30
  L 345.53 345.70
  A 14.75 14.75 0.0 0 0 360.28 360.45
  L 360.74 360.45
  A 14.75 14.75 0.0 0 0 375.49 345.70
  L 375.49 166.30
  Z"
/>
<path fill="#03b8ff" d="
  M 168.48 154.91
  C 213.32 181.60 258.11 208.39 302.73 235.43
  C 313.83 242.16 318.50 252.08 312.42 264.79
  C 310.81 268.16 311.45 271.35 307.66 273.64
  Q 275.51 293.04 169.01 356.81
  Q 162.23 360.87 158.82 361.32
  C 149.70 362.54 140.96 354.98 137.98 346.91
  Q 136.51 342.92 136.51 332.80
  Q 136.49 256.31 136.50 179.82
  C 136.50 168.60 137.14 161.16 145.72 154.68
  C 152.52 149.55 161.58 150.81 168.48 154.91
  Z"
/>
<rect fill="#03b8ff" x="345.53" y="151.55" width="29.96" height="208.90" rx="14.75"/>
</svg>
