<svg xmlns="http://www.w3.org/2000/svg" viewBox="0 0 39.69 40.08"><defs><style>.cls-1{fill:#72bcd4;}.cls-2{fill:#fff;}</style></defs><g id="Слой_2" data-name="Слой 2"><g id="Слой_1-2" data-name="Слой 1"><path class="cls-1" d="M19.36,0h1A20,20,0,0,1,39.69,19.64v.72A20,20,0,0,1,20.24,40.08h-.91A20,20,0,0,1,0,20.47v-.86A20,20,0,0,1,19.36,0Zm5.1,23.76c0,.92,0,1.84,0,2.75a5.8,5.8,0,0,0,.09,1.4,3.46,3.46,0,0,0,6.71,0,5.38,5.38,0,0,0,.12-1.37V13.46a5.22,5.22,0,0,0-.12-1.38,3.46,3.46,0,0,0-6.71.09,8.63,8.63,0,0,0-.12,1.52c0,.88,0,1.74,0,2.63h0v0h0l-10-6.1a5,5,0,0,0-1.14-.54,3.65,3.65,0,0,0-3.29.48,4.24,4.24,0,0,0-1.75,3.15V26.08a7.2,7.2,0,0,0,.11,1.55,3.78,3.78,0,0,0,4,2.89,4.15,4.15,0,0,0,1.7-.49c3.43-2.12,6.88-4.21,10.31-6.3h0s0,0,0,0Z"/><path class="cls-2" d="M24.46,23.76h0s0,0,0,0h0C21,25.82,17.55,27.91,14.12,30a4.15,4.15,0,0,1-1.7.49,3.78,3.78,0,0,1-4-2.89,7.2,7.2,0,0,1-.11-1.55V13.34A4.24,4.24,0,0,1,10,10.19a3.65,3.65,0,0,1,3.29-.48,5,5,0,0,1,1.14.54l10,6.1h0v0h0c0-.89,0-1.75,0-2.63a8.63,8.63,0,0,1,.12-1.52,3.46,3.46,0,0,1,6.71-.09,5.22,5.22,0,0,1,.12,1.38V26.57a5.38,5.38,0,0,1-.12,1.37,3.46,3.46,0,0,1-6.71,0,5.8,5.8,0,0,1-.09-1.4c0-.91,0-1.83,0-2.75Zm-1-5.35-10.4-6.3a1.59,1.59,0,0,0-1.76,0,2,2,0,0,0-.74,2v12a4.06,4.06,0,0,0,.12,1.09,1.7,1.7,0,0,0,1.61,1.15,2.12,2.12,0,0,0,.8-.38l10.74-6.49c.31-.18.25-.43.37-.69a1.67,1.67,0,0,0-.74-2.32ZM29.11,13A1.15,1.15,0,0,0,28,11.85h-.06A1.15,1.15,0,0,0,26.79,13V27.06a1.14,1.14,0,0,0,1.13,1.14H28a1.14,1.14,0,0,0,1.13-1.14Z"/><path class="cls-1" d="M13.07,12.11l10.4,6.3.45.33a1.69,1.69,0,0,1,0,2.6l-.11.08L13.1,27.91a2.12,2.12,0,0,1-.8.38,1.7,1.7,0,0,1-1.61-1.15,4.06,4.06,0,0,1-.12-1.09v-12a2,2,0,0,1,.74-2,1.59,1.59,0,0,1,1.76,0Z"/><path class="cls-1" d="M27.92,11.85H28A1.15,1.15,0,0,1,29.11,13V27.06A1.14,1.14,0,0,1,28,28.2h-.06a1.14,1.14,0,0,1-1.13-1.14V13a1.15,1.15,0,0,1,1.13-1.15Z"/></g></g></svg>