<?xml version="1.0" encoding="UTF-8"?>
<svg id="_Слой_2" data-name="Слой 2" xmlns="http://www.w3.org/2000/svg" viewBox="0 0 39.69 23.24">
  <defs>
    <style>
      .cls-1 {
        fill: #f7bf5d;
      }

      .cls-1, .cls-2, .cls-3 {
        fill-rule: evenodd;
      }

      .cls-2 {
        fill: #72c1ea;
      }

      .cls-3 {
        fill: #f2a753;
      }
    </style>
  </defs>
  <g id="_Слой_1-2" data-name="Слой 1">
    <g>
      <path class="cls-2" d="m0,11.32v2.06c.4.92-.03,3.84,3,8.25.23.29,1.08,1.43,1.28,1.55.4.17.79-.03.85-.4.09-.46-.26-.66-.48-.92C1.79,18.6.54,13.44,1.5,8.98c.45-2.12,1.42-4.18,2.64-5.81.26-.34,1.25-1.32.96-1.78-.57-.46-.79-.31-1.22.2-.28.34-.57.69-.85,1.09C1.56,4.88.65,6.91.2,9.61c-.06.4-.11,1.46-.2,1.72h0Z"/>
      <path class="cls-2" d="m39.69,13.1v-2.03c-.17-.43-.17-1.23-.26-1.75-.09-.52-.2-1.09-.34-1.57-.6-2.12-1.93-4.64-3.34-6.24-.45-.49-.65-.52-1.16-.11-.09.57.2.8.43,1.09,1.59,1.86,2.66,4.12,3.2,6.61.68,3.24.2,6.87-1.13,9.51-.62,1.29-1.33,2.49-2.18,3.41-.91.94.14,1.57.68,1.03l1.22-1.6c2.83-3.95,2.55-7.36,2.89-8.33h0Z"/>
      <path class="cls-2" d="m32.71,20.29c-.62.66.14,1.69,1.08.54,3.43-4.24,4.17-9.59,1.56-14.97-.26-.57-1.62-2.66-2.07-2.83-.45-.17-.88.14-.79.66.06.23.54.74.71.94.23.31.43.57.65.97,1.45,2.26,2.13,5.01,1.84,7.82-.26,2.55-1.39,5.15-2.98,6.87h0Z"/>
      <path class="cls-2" d="m7.14,3.85c.26-.49-.11-.94-.62-.86-.28.03-.65.57-.85.8-4,5.21-3.77,11.77.11,16.89,1.08,1.4,1.73.26,1.28-.31l-.74-.92c-1.19-1.63-2.01-3.55-2.3-5.81-.23-1.98.03-4.04.68-5.75,1.02-2.69,2.18-3.61,2.44-4.04h0Z"/>
      <path class="cls-2" d="m9.24,5.8c.34-.54-.43-1.43-1.11-.49-.4.52-.71.92-1.08,1.52-2.3,3.87-1.73,8.53.79,11.85.11.14.51.63.65.72.37.14.77-.09.82-.46.09-.74-1.84-1.63-2.44-5.33-.23-1.55-.06-3.18.43-4.58.23-.66.54-1.23.82-1.75.43-.74.79-1.03,1.11-1.49h0Z"/>
      <path class="cls-2" d="m32.8,13.5c-.48,3.46-2.38,4.75-2.41,5.3-.06.4.28.72.68.63.71-.14,3.49-4.18,2.92-8.65-.31-2.29-1.11-3.72-2.35-5.38-.82-1.06-1.36-.2-1.25.26l1.11,1.55c1.13,1.8,1.64,4.07,1.3,6.3h0Z"/>
    </g>
    <g>
      <path class="cls-1" d="m26.63,16.78c-.17-2.23,1.03-6.28.37-8.59-.35-1.14-.95-2.23-1.6-2.83-1.48-1.46-2.3-1.43-2.72-1.79-.49-.08-.86-.19-1.46-.25s-.95-.02-1.48-.04l-.04.07c-2.37.41-4.15,1.74-5.09,3.75-1.02,2.18-.78,5.87-1.23,8.4l10.24.99,3.01.29Z"/>
      <path class="cls-1" d="m17.09,19.53c-.16.59.29,1.38.61,1.73,1.79,1.92,4.6.23,4.49-1.24l.1-.63-5.17-.5-.03.64Z"/>
      <path class="cls-3" d="m22.32,19.39c1.08.1,4.28.63,4.99.23,1.34-.73,1.04-2.71-.68-2.84l-2.34-.23h0l-10.9-1.05c-1.89-.15-2.34,1.91-1.18,2.7.66.42,3.82.58,4.84.68h.07s5.17.51,5.17.51h.03Z"/>
      <path class="cls-3" d="m19.75,3.29c.53.02.88-.02,1.48.04s.97.16,1.46.25c.15-1.59.61-3.4-1.14-3.57-.73-.07-1.23.31-1.45.82-.26.51-.28,1.83-.34,2.46h0Z"/>
    </g>
  </g>
</svg>