<?xml version="1.0" encoding="UTF-8"?>
<svg id="_Слой_2" data-name="Слой 2" xmlns="http://www.w3.org/2000/svg" viewBox="0 0 240.58 243.35">
  <defs>
    <style>
      .cls-1 {
        fill: #eea933;
      }

      .cls-1, .cls-2, .cls-3, .cls-4, .cls-5, .cls-6, .cls-7 {
        fill-rule: evenodd;
      }

      .cls-2 {
        fill: #f2c61f;
      }

      .cls-3 {
        fill: #dd6854;
      }

      .cls-4 {
        fill: #c35845;
      }

      .cls-5 {
        fill: #676b6d;
      }

      .cls-6 {
        fill: #a8acb3;
      }

      .cls-7 {
        fill: #eda935;
      }

      .cls-8 {
        fill: #f2c61e;
      }
    </style>
  </defs>
  <g id="_Слой_34" data-name="Слой 34">
    <g>
      <path class="cls-3" d="m200.02,0h3.95c13.58.87,25.95,10.59,28.87,26.04,1.2,6.08.52,20.31.52,27.95v28.64h-12.2v-15.97c0-2.6.17-5.38.17-7.98-.17-3.12-2.41-2.95-5.5-2.78-2.58.17-2.92,2.08-3.95,3.82-6.7,11.11-6.19,10.76,4.64,10.76v12.15h-28.87v-12.15c3.09,0,2.92-1.22,4.3-3.47,1.03-1.74,1.89-3.3,2.92-5.03.86-1.56,2.92-3.99.86-5.55-1.03-.87-5.67-.52-7.56-.52-6.53,0-5.33,0-5.33,10.76v15.97h-12.2v-28.64c0-14.23-1.89-27.77,4.47-38.36.86-1.56,1.72-3.12,2.92-4.34.52-.69,1.03-1.04,1.72-1.91l.86-.87c5.67-5.38,12.55-7.98,19.42-8.51h0Z"/>
      <path class="cls-7" d="m178.02,94.95c.86-.52,13.06-.52,14.61-.17h18.73c1.55-.35,13.75-.35,14.61.17h8.42c3.09,0,5.84.35,6.19-2.6,0-1.22,0-7.46-.17-8.33-.86-2.26-3.78-1.39-7.05-1.39h-62.73c-1.2,0-4.81-.35-5.84.17-2.06.87-1.55,6.6-1.2,9.55.17,2.95,2.75,2.6,5.67,2.6h8.76Z"/>
      <path class="cls-4" d="m182.83,82.62h4.81v-12.15c3.09,0,2.92-1.22,4.3-3.47,1.03-1.74,1.89-3.3,2.92-5.03.86-1.56,2.92-3.99.86-5.55-1.03-.87-5.67-.52-7.56-.52-6.53,0-5.33,0-5.33,10.76v15.97h0Z"/>
      <path class="cls-4" d="m216.52,82.62h4.64v-15.97c0-2.6.17-5.38.17-7.98-.17-3.12-2.41-2.95-5.5-2.78-2.58.17-2.92,2.08-3.95,3.82-6.7,11.11-6.19,10.76,4.64,10.76v12.15Z"/>
      <path class="cls-1" d="m187.65,104.49h-4.98v30.9c0,3.47-.86,7.46,2.23,7.81h.86c2.75-.35,1.89-4.51,1.89-7.81v-30.9Z"/>
      <path class="cls-1" d="m221.33,104.49h-4.98v30.9c0,3.3-.86,7.46,2.06,7.81h.69c3.09-.35,2.23-4.34,2.23-7.81v-30.9Z"/>
      <path class="cls-2" d="m211.36,94.77c0,2.6-.17,5.03.69,6.77.34.87.86,1.56,1.55,2.08.86.69,1.37.69,2.75.87h4.98c4.64-.52,5.33-4.34,4.64-9.55-.86-.52-13.06-.52-14.61-.17h0Z"/>
      <path class="cls-2" d="m182.66,104.49h4.98c1.37-.17,1.89-.17,2.75-.87.69-.52,1.37-1.22,1.72-2.08.69-1.74.52-4.34.52-6.77-1.55-.35-13.75-.35-14.61.17-.69,5.21,0,9.03,4.64,9.55h0Z"/>
      <path class="cls-6" d="m36.75,99.81h3.95c13.58.87,25.95,10.59,28.87,25.86,1.2,6.25.52,20.48.52,28.12v28.47h-12.2v-15.97c0-2.43.17-5.38.17-7.81-.17-3.12-2.41-2.95-5.5-2.78-2.58,0-2.92,2.08-3.95,3.82-6.7,11.11-6.19,10.59,4.64,10.59v12.15h-28.87v-12.15c3.09,0,2.92-1.22,4.3-3.3,1.03-1.74,1.89-3.3,2.92-5.21.86-1.39,2.92-3.82.86-5.38-1.03-.87-5.67-.52-7.56-.52-6.53,0-5.33,0-5.33,10.59v15.97H7.37v-28.47c0-14.23-1.89-27.77,4.47-38.53.86-1.39,1.72-2.95,2.92-4.17.52-.69,1.03-1.22,1.72-1.91l.86-.87c5.67-5.38,12.55-8.16,19.42-8.51h0Z"/>
      <path class="cls-7" d="m14.76,194.58c.86-.52,13.06-.35,14.61,0h18.73c1.55-.35,13.75-.52,14.61,0h8.42c3.09,0,5.84.52,6.19-2.43,0-1.22,0-7.46-.17-8.33-.86-2.26-3.78-1.56-7.05-1.56H7.37c-1.2,0-4.81-.17-5.84.35-2.06.87-1.55,6.6-1.2,9.55.17,2.95,2.75,2.43,5.67,2.43h8.76Z"/>
      <path class="cls-5" d="m19.57,182.26h4.81v-12.15c3.09,0,2.92-1.22,4.3-3.3,1.03-1.74,1.89-3.3,2.92-5.21.86-1.39,2.92-3.82.86-5.38-1.03-.87-5.67-.52-7.56-.52-6.53,0-5.33,0-5.33,10.59v15.97h0Z"/>
      <path class="cls-5" d="m53.25,182.26h4.64v-15.97c0-2.43.17-5.38.17-7.81-.17-3.12-2.41-2.95-5.5-2.78-2.58,0-2.92,2.08-3.95,3.82-6.7,11.11-6.19,10.59,4.64,10.59v12.15Z"/>
      <path class="cls-1" d="m24.38,204.13h-4.98v31.07c0,3.3-.86,7.46,2.23,7.81h.69c2.92-.35,2.06-4.51,2.06-7.81v-31.07Z"/>
      <path class="cls-1" d="m58.06,204.13h-4.98v31.07c0,3.3-.86,7.46,2.06,7.81h.69c3.09-.35,2.23-4.51,2.23-7.81v-31.07Z"/>
      <path class="cls-2" d="m48.1,194.58c0,2.43-.17,5.03.69,6.77.34.87.86,1.39,1.55,2.08.86.69,1.37.69,2.75.69h4.98c4.64-.35,5.33-4.17,4.64-9.55-.86-.52-13.06-.35-14.61,0h0Z"/>
      <path class="cls-2" d="m19.4,204.13h4.98c1.37,0,1.89,0,2.75-.69.69-.52,1.37-1.22,1.72-2.08.69-1.74.52-4.34.52-6.77-1.55-.35-13.75-.52-14.61,0-.69,5.38,0,9.2,4.64,9.55h0Z"/>
      <path class="cls-8" d="m126.47,23.95c-41.76,0-70.98.17-72.52,1.04-1.03.52-2.06,1.74-2.75,2.6-.52.87-.69,1.22-.86,3.82-.17,4.17-.17,1.39,0,5.55.17,9.2,1.03,9.2,7.05,9.2,2.06,0,10.14-.87,9.28,3.82-.17.52-6.02,9.89-13.23,20.83q-13.23,19.79-15.12,19.79-2.06,0-15.12-19.79c-7.22-10.94-13.23-20.31-13.4-20.83-.69-4.69,7.22-3.82,9.28-3.82,5.84,0,6.87,0,7.22-9.2,0-4.51.17-2.26.34-6.6.34-6.94,1.03-8.85,3.09-13.02,3.95-7.98,11.34-14.06,20.11-16.49,2.92-.87,35.23-.87,76.65-.87v23.95Z"/>
      <path class="cls-8" d="m106.45,219.39c41.76,0,78.2,0,79.91-1.04.86-.52,2.06-1.74,2.58-2.6.52-.87.69-1.22.86-3.65.17-4.17.17-1.56,0-5.73,0-9.03-1.03-9.03-7.05-9.03-2.06,0-10.14.69-9.28-3.82.17-.69,6.19-10.07,13.4-20.83q13.06-19.96,14.95-19.96,2.06,0,15.12,19.96c7.22,10.76,13.23,20.14,13.4,20.83.86,4.51-7.22,3.82-9.28,3.82-5.84,0-6.87,0-7.22,9.2,0,4.51-.17,2.08-.34,6.6-.34,6.77-1.03,8.85-3.09,13.02-3.95,7.81-11.34,13.89-20.11,16.32-2.92.87-42.45.87-83.87.87v-23.95Z"/>
    </g>
  </g>
</svg>