<?xml version="1.0" encoding="UTF-8" standalone="no"?>
<!DOCTYPE svg PUBLIC "-//W3C//DTD SVG 1.1//EN" "http://www.w3.org/Graphics/SVG/1.1/DTD/svg11.dtd">
<svg xmlns="http://www.w3.org/2000/svg" version="1.1" viewBox="0.00 0.00 512.00 512.00">
<g stroke-width="2.00" fill="none" stroke-linecap="butt">
<path stroke="#e9ccba" vector-effect="non-scaling-stroke" d="
  M 250.22 125.07
  L 249.96 116.16"
/>
<path stroke="#aed197" vector-effect="non-scaling-stroke" d="
  M 249.96 116.16
  C 270.58 89.37 243.59 52.20 211.92 65.53
  C 191.23 74.25 186.01 99.85 200.07 116.86"
/>
<path stroke="#e9ccba" vector-effect="non-scaling-stroke" d="
  M 200.07 116.86
  L 200.08 127.00
  Q 200.08 127.52 199.58 127.69
  Q 199.05 127.87 198.23 127.76"
/>
<path stroke="#a2a2af" vector-effect="non-scaling-stroke" d="
  M 385.53 377.55
  L 184.62 377.50"
/>
<path stroke="#b7bd73" vector-effect="non-scaling-stroke" d="
  M 249.96 116.16
  C 249.47 108.50 249.88 98.58 248.24 92.46
  C 241.89 68.78 208.26 68.69 201.34 91.73
  C 199.26 98.67 200.36 108.87 200.07 116.86"
/>
</g>
<path fill="#dfdfde" d="
  M 250.22 125.07
  L 249.96 116.16
  C 270.58 89.37 243.59 52.20 211.92 65.53
  C 191.23 74.25 186.01 99.85 200.07 116.86
  L 200.08 127.00
  Q 200.08 127.52 199.58 127.69
  Q 199.05 127.87 198.23 127.76
  Q 173.23 127.74 148.20 127.76
  Q 139.05 127.76 134.45 126.37
  C 117.64 121.29 107.85 103.15 113.19 86.09
  C 117.80 71.36 130.04 63.22 145.50 63.24
  Q 173.58 63.27 201.31 63.24
  A 3.93 3.86 29.5 0 0 203.26 62.72
  C 245.78 38.23 285.60 92.04 250.22 125.07
  Z"
/>
<path fill="#7cc250" d="
  M 249.96 116.16
  C 249.47 108.50 249.88 98.58 248.24 92.46
  C 241.89 68.78 208.26 68.69 201.34 91.73
  C 199.26 98.67 200.36 108.87 200.07 116.86
  C 186.01 99.85 191.23 74.25 211.92 65.53
  C 243.59 52.20 270.58 89.37 249.96 116.16
  Z"
/>
<path fill="#f2b895" d="
  M 249.96 116.16
  L 250.22 125.07
  L 252.54 191.46
  Q 252.58 192.59 252.71 191.46
  C 253.10 187.94 253.19 184.11 254.30 180.97
  C 261.64 160.23 290.63 158.19 299.75 178.54
  C 302.34 184.32 302.33 192.77 302.74 199.72
  A 0.16 0.16 0.0 0 0 303.05 199.73
  C 303.84 192.80 303.84 184.41 306.43 178.57
  C 315.71 157.72 345.77 160.17 352.17 182.11
  C 353.47 186.56 353.54 192.80 353.95 197.89
  Q 354.35 202.83 355.06 197.92
  Q 355.19 197.00 355.53 194.65
  C 358.82 171.57 393.03 173.46 393.78 197.75
  Q 393.95 203.18 393.96 203.25
  Q 398.67 259.80 400.17 280.56
  C 400.96 291.52 399.75 301.24 397.51 313.35
  Q 391.57 345.46 385.53 377.55
  L 184.62 377.50
  C 174.08 361.83 162.45 346.87 155.02 328.96
  Q 142.64 299.12 130.37 269.24
  Q 124.99 256.13 124.61 253.65
  C 123.17 244.35 129.51 234.07 138.92 231.42
  C 146.62 229.25 155.69 231.55 161.98 236.41
  Q 165.33 238.99 171.07 246.95
  Q 183.35 263.97 191.79 275.21
  C 193.69 277.73 197.81 277.04 199.32 274.70
  Q 200.25 273.27 200.25 269.98
  Q 200.26 199.25 200.25 128.53
  Q 200.25 127.99 199.71 128.01
  Q 198.82 128.04 198.23 127.76
  Q 199.05 127.87 199.58 127.69
  Q 200.08 127.52 200.08 127.00
  L 200.07 116.86
  C 200.36 108.87 199.26 98.67 201.34 91.73
  C 208.26 68.69 241.89 68.78 248.24 92.46
  C 249.88 98.58 249.47 108.50 249.96 116.16
  Z"
/>
<path fill="#528bc9" d="
  M 184.62 377.50
  L 385.53 377.55
  Q 397.17 381.90 397.45 394.04
  Q 397.79 408.50 397.36 437.88
  C 397.20 449.33 391.22 455.50 379.68 455.50
  Q 284.39 455.50 189.10 455.50
  C 177.53 455.50 171.34 449.51 171.14 437.91
  Q 170.78 416.59 171.13 395.25
  C 171.29 385.91 175.03 379.57 184.62 377.50
  Z"
/>
</svg>
