<svg xmlns="http://www.w3.org/2000/svg" viewBox="0 0 39.7 40.08"><defs><style>.cls-1{fill:#e44a3b;}.cls-1,.cls-2,.cls-3,.cls-4,.cls-5,.cls-6,.cls-7{fill-rule:evenodd;}.cls-2{fill:#ef9b21;}.cls-3{fill:#c03a2b;}.cls-4{fill:#f09c1f;}.cls-5{fill:#eec318;}.cls-6{fill:#989898;}.cls-7{fill:#4d4d4d;}.cls-8{fill:#313130;}</style></defs><g id="Слой_2" data-name="Слой 2"><g id="Слой_1-2" data-name="Слой 1"><path class="cls-1" d="M33,0h.65a5.19,5.19,0,0,1,4.77,4.29A36.45,36.45,0,0,1,38.5,8.9v4.73h-2V11c0-.43,0-.88,0-1.31s-.4-.49-.91-.46-.48.34-.65.63c-1.11,1.83-1,1.77.76,1.77v2H31v-2c.51,0,.48-.2.71-.57s.31-.54.48-.83.48-.66.14-.92a3.47,3.47,0,0,0-1.24-.08c-1.08,0-.88,0-.88,1.77v2.64h-2V8.9c0-2.34-.31-4.58.74-6.32a3.35,3.35,0,0,1,.48-.72c.09-.11.17-.17.29-.31l.14-.15A5.21,5.21,0,0,1,33,0Z"/><path class="cls-2" d="M29.37,15.66a12.82,12.82,0,0,1,2.41,0h3.09a12.79,12.79,0,0,1,2.41,0h1.39c.51,0,1,.06,1-.43,0-.2,0-1.23,0-1.37-.14-.38-.62-.23-1.16-.23H28.15a3.41,3.41,0,0,0-1,0c-.34.14-.25,1.08-.2,1.57s.46.43.94.43Z"/><path class="cls-3" d="M30.17,13.63H31v-2c.51,0,.48-.2.71-.57s.31-.54.48-.83.48-.66.14-.92a3.47,3.47,0,0,0-1.24-.08c-1.08,0-.88,0-.88,1.77v2.64Z"/><path class="cls-3" d="M35.72,13.63h.77V11c0-.43,0-.88,0-1.31s-.4-.49-.91-.46-.48.34-.65.63c-1.11,1.83-1,1.77.76,1.77Z"/><path class="cls-4" d="M31,17.24h-.82v5.09c0,.57-.14,1.23.37,1.29h.14c.45-.06.31-.74.31-1.29Z"/><path class="cls-4" d="M36.52,17.24H35.7v5.09c0,.55-.15,1.23.34,1.29h.11c.51-.06.37-.72.37-1.29Z"/><path class="cls-5" d="M34.87,15.63A2.59,2.59,0,0,0,35,16.75a.72.72,0,0,0,.25.34.7.7,0,0,0,.46.15h.82c.76-.09.88-.72.76-1.58a12.79,12.79,0,0,0-2.41,0Z"/><path class="cls-5" d="M30.14,17.24H31c.23,0,.31,0,.45-.15a.8.8,0,0,0,.29-.34,3.58,3.58,0,0,0,.08-1.12,12.82,12.82,0,0,0-2.41,0c-.11.86,0,1.49.77,1.58Z"/><path class="cls-6" d="M6.07,16.46h.66a5.19,5.19,0,0,1,4.76,4.27,35.19,35.19,0,0,1,.08,4.64v4.69h-2V27.43c0-.4,0-.89,0-1.29s-.4-.49-.91-.46S8.2,26,8,26.31c-1.11,1.83-1,1.75.76,1.75v2H4v-2c.51,0,.48-.2.71-.55s.31-.54.48-.86.48-.63.14-.88c-.17-.15-.93-.09-1.24-.09-1.08,0-.88,0-.88,1.75v2.63h-2V25.37C1.23,23,.91,20.79,2,19a4.06,4.06,0,0,1,.48-.69A2.74,2.74,0,0,1,2.73,18l.14-.14a5,5,0,0,1,3.2-1.41Z"/><path class="cls-2" d="M2.44,32.09a14.9,14.9,0,0,1,2.41,0H7.94a14.9,14.9,0,0,1,2.41,0h1.39c.51,0,1,.09,1-.4,0-.2,0-1.23,0-1.37-.14-.37-.62-.26-1.16-.26H1.23a3.45,3.45,0,0,0-1,.06c-.34.14-.25,1.09-.2,1.57s.46.4.94.4Z"/><path class="cls-7" d="M3.24,30.06H4v-2c.51,0,.48-.2.71-.55s.31-.54.48-.86.48-.63.14-.88c-.17-.15-.93-.09-1.24-.09-1.08,0-.88,0-.88,1.75v2.63Z"/><path class="cls-7" d="M8.79,30.06h.77V27.43c0-.4,0-.89,0-1.29s-.4-.49-.91-.46S8.2,26,8,26.31c-1.11,1.83-1,1.75.76,1.75Z"/><path class="cls-4" d="M4,33.67H3.21v5.12c0,.55-.14,1.24.37,1.29h.11c.48,0,.34-.74.34-1.29Z"/><path class="cls-4" d="M9.59,33.67H8.77v5.12c0,.55-.15,1.24.34,1.29h.11c.51,0,.37-.74.37-1.29Z"/><path class="cls-5" d="M7.94,32.09a2.8,2.8,0,0,0,.12,1.12.91.91,0,0,0,.25.34c.14.12.23.12.46.12h.82c.76-.06.88-.69.76-1.58a14.9,14.9,0,0,0-2.41,0Z"/><path class="cls-5" d="M3.21,33.67H4a.58.58,0,0,0,.46-.12.86.86,0,0,0,.28-.34,3.56,3.56,0,0,0,.08-1.12,14.9,14.9,0,0,0-2.41,0c-.11.89,0,1.52.77,1.58Z"/><path class="cls-8" d="M19.25,4c-6.88,0-11.7,0-12,.17a1.68,1.68,0,0,0-.45.43c-.09.15-.11.2-.14.63a4.71,4.71,0,0,0,0,.92c0,1.52.17,1.52,1.16,1.52.34,0,1.67-.15,1.53.63,0,.08-1,1.63-2.18,3.43C5,15,5,15,4.71,15s-.34,0-2.49-3.27C1,9.88,0,8.33,0,8.25c-.12-.78,1.19-.63,1.53-.63,1,0,1.13,0,1.19-1.52,0-.75,0-.37,0-1.09A4.22,4.22,0,0,1,3.3,2.86,5.3,5.3,0,0,1,6.61.14C7.09,0,12.42,0,19.25,0Z"/><path class="cls-8" d="M19.25,36.13c6.89,0,12.9,0,13.19-.17a1.56,1.56,0,0,0,.42-.43c.09-.14.11-.2.14-.6a5,5,0,0,0,0-1c0-1.48-.17-1.48-1.16-1.48-.34,0-1.67.11-1.53-.63,0-.12,1-1.66,2.21-3.44,2.15-3.29,2.15-3.29,2.47-3.29s.34,0,2.49,3.29c1.19,1.78,2.18,3.32,2.21,3.44.14.74-1.19.63-1.53.63-1,0-1.13,0-1.19,1.51,0,.75,0,.35-.06,1.09a4.28,4.28,0,0,1-.51,2.15,5.32,5.32,0,0,1-3.31,2.69c-.48.14-7,.14-13.84.14Z"/></g></g></svg>