<svg xmlns="http://www.w3.org/2000/svg" viewBox="0 0 39.32 34.54"><defs><style>.cls-1{fill:#c3c4c4;}.cls-1,.cls-2,.cls-3,.cls-4,.cls-5{fill-rule:evenodd;}.cls-2{fill:#fefefe;}.cls-3{fill:#818181;}.cls-4{fill:#ebebeb;}.cls-5{fill:#4d4d4d;}</style></defs><g id="Слой_2" data-name="Слой 2"><g id="Слой_1-2" data-name="Слой 1"><path class="cls-1" d="M2.85,15.22c.65,1.06,3.23,1.91,4.71,2.12.82.14,20,.05,20.61.05,2.55,0,4.28.09,6-.77a8.78,8.78,0,0,0,5.11-8.79,8.11,8.11,0,0,0-.68-2.75,6.67,6.67,0,0,0-1.36-2.17c-.34-.18-.63-.43-1-.66a8.81,8.81,0,0,0-3.92-1.12c-2.18-.09-4.53,0-6.74,0H12.24c-2.19,0-4.14-.08-6,.8A8.87,8.87,0,0,0,1.69,13a15.16,15.16,0,0,0,1.16,2.18Z"/><path class="cls-2" d="M5.49,13.44a6,6,0,0,0,6.52.63,6.22,6.22,0,0,0,1.84-9.59,4.7,4.7,0,0,0-1.67-.94c-4.42-1.24-9.38,3.14-8,7.9a4,4,0,0,0,1.33,2Z"/><path class="cls-3" d="M3.11,15.56A15.66,15.66,0,0,1,2,13.36,8.84,8.84,0,0,1,6.54,2.22c1.81-.89,3.77-.8,6-.8H25.84c2.21,0,4.57-.06,6.75,0A8.6,8.6,0,0,1,36.5,2.56c.4.23.68.49,1,.66a6.75,6.75,0,0,0-1.87-1.77C32.73-.47,29.7.07,25.93.07,24.2.07,8.47,0,7.59.1A8.79,8.79,0,0,0,1,4.68,8.65,8.65,0,0,0,.13,7.46a8.76,8.76,0,0,0,2,7.18,3.66,3.66,0,0,0,1,.92Z"/><path class="cls-4" d="M5.55,13.47a9.18,9.18,0,0,1-.85-1.83,6.16,6.16,0,0,1,7.45-7.7c.79.23,1.36.63,2,.8l-.34-.49a6.3,6.3,0,0,0-8.93-.08,6.35,6.35,0,0,0-.94,7.5,5,5,0,0,0,1.65,1.8Z"/><path class="cls-5" d="M16.57,30.48V33H8.13V30.68c0-.58-1.14-1.86-1.54-2.38a7.67,7.67,0,0,1-1.81-4.72v-5.1c0-1.06,1.79-1.43,1.79.29v3.86c0,.49-.06,1.23.82,1.23a.69.69,0,0,0,.62-.4,14.36,14.36,0,0,0,.12-3.18v-11c0-.89,0-1.43,1-1.43s.76,1.66.76,2.26v6.13c0,1.6-.28,2.43.94,2.43.39,0,.59-.52.62-1,.09-1.86-.45-3.87.88-3.84a1,1,0,0,1,.88.69c.28,1.11-.54,4.12.71,4.12,1.92,0-.15-4,1.61-4,1.53,0,.88,1.54,1,3.26a.78.78,0,0,0,1.48.23c.17-.54-.15-1.49.2-2a.91.91,0,0,1,1.67.6V23a8.16,8.16,0,0,1-1.14,4.29L16.8,30a.67.67,0,0,0-.23.49ZM3.22,21.6v1.63c0,3.41,1.45,5,3.18,7.33.19.29.17.35.17.8a11,11,0,0,0,.11,2.78.61.61,0,0,0,.57.4H17.39A.7.7,0,0,0,18,34.2c.17-.23.12-.46.12-.83a11.56,11.56,0,0,1,.11-2.66l1.19-1.61a9.15,9.15,0,0,0,2-5.44v-7.1a2.43,2.43,0,0,0-3-2.23,3.74,3.74,0,0,1-.62.17,2.41,2.41,0,0,0-3.43-1,2.29,2.29,0,0,0-2.3-1.18,2,2,0,0,0-.62.15A28.21,28.21,0,0,0,11.33,8a2.44,2.44,0,0,0-4.76.49c-.06.68,0,1.43,0,2.75v4.89A2.47,2.47,0,0,0,4,16.71a2.25,2.25,0,0,0-.51.68c-.46.95-.29,3.12-.26,4.21Z"/><path class="cls-2" d="M16.57,30.48V33H8.13V30.68c0-.58-1.14-1.86-1.54-2.38a7.67,7.67,0,0,1-1.81-4.72v-5.1c0-1.06,1.79-1.43,1.79.29v3.86c0,.49-.06,1.23.82,1.23a.69.69,0,0,0,.62-.4,14.36,14.36,0,0,0,.12-3.18v-11c0-.89,0-1.43,1-1.43s.76,1.66.76,2.26v6.13c0,1.6-.28,2.43.94,2.43.39,0,.59-.52.62-1,.09-1.86-.45-3.87.88-3.84a.94.94,0,0,1,.85.69c.31,1.11-.51,4.12.74,4.12,1.92,0-.15-4,1.61-4,1.53,0,.88,1.54,1,3.26a.78.78,0,0,0,1.48.23c.17-.54-.15-1.49.2-2a.91.91,0,0,1,1.67.6V23a8.16,8.16,0,0,1-1.14,4.29L16.8,30a.67.67,0,0,0-.23.49Z"/></g></g></svg>