<?xml version="1.0" encoding="UTF-8" standalone="no"?>
<!DOCTYPE svg PUBLIC "-//W3C//DTD SVG 1.1//EN" "http://www.w3.org/Graphics/SVG/1.1/DTD/svg11.dtd">
<svg xmlns="http://www.w3.org/2000/svg" version="1.1" viewBox="0.00 0.00 512.00 512.00">
<g stroke-width="2.00" fill="none" stroke-linecap="butt">
<path stroke="#d5dee6" vector-effect="non-scaling-stroke" d="
  M 427.24 15.02
  Q 431.14 16.50 434.95 18.11
  C 445.53 22.58 453.20 30.77 456.52 41.62
  Q 458.24 47.23 458.40 59.54
  C 458.62 76.14 458.51 92.77 458.51 109.35
  C 458.51 219.34 458.78 329.36 458.29 439.36
  C 458.24 450.66 459.78 462.71 455.52 473.16
  Q 448.81 489.61 430.83 495.65
  Q 430.40 495.80 429.75 496.96"
/>
<path stroke="#99d7af" vector-effect="non-scaling-stroke" d="
  M 33.86 151.71
  C 34.93 151.90 35.70 152.25 36.73 152.25
  Q 88.10 152.26 139.47 152.24
  Q 149.78 152.24 154.24 150.75
  C 165.38 147.02 171.00 137.08 171.00 125.50
  Q 171.00 72.06 170.99 18.63
  C 170.99 17.62 170.62 16.44 170.39 15.43"
/>
<path stroke="#d5dee6" vector-effect="non-scaling-stroke" d="
  M 241.11 60.33
  A 7.95 7.95 0.0 0 0 233.16 52.38
  L 218.02 52.38
  A 7.95 7.95 0.0 0 0 210.07 60.33
  L 210.07 61.23
  A 7.95 7.95 0.0 0 0 218.02 69.18
  L 233.16 69.18
  A 7.95 7.95 0.0 0 0 241.11 61.23
  L 241.11 60.33"
/>
<path stroke="#d5dee6" vector-effect="non-scaling-stroke" d="
  M 353.75 60.59
  A 8.32 8.32 0.0 0 0 345.43 52.27
  L 266.83 52.27
  A 8.32 8.32 0.0 0 0 258.51 60.59
  L 258.51 60.93
  A 8.32 8.32 0.0 0 0 266.83 69.25
  L 345.43 69.25
  A 8.32 8.32 0.0 0 0 353.75 60.93
  L 353.75 60.59"
/>
<path stroke="#d5dee6" vector-effect="non-scaling-stroke" d="
  M 305.96 99.59
  A 8.32 8.32 0.0 0 0 297.64 91.27
  L 218.88 91.27
  A 8.32 8.32 0.0 0 0 210.56 99.59
  L 210.56 99.91
  A 8.32 8.32 0.0 0 0 218.88 108.23
  L 297.64 108.23
  A 8.32 8.32 0.0 0 0 305.96 99.91
  L 305.96 99.59"
/>
<path stroke="#94a3bc" vector-effect="non-scaling-stroke" d="
  M 190.68 312.13
  C 220.89 306.70 222.90 257.10 207.55 238.46
  C 195.87 224.27 172.62 224.54 161.31 237.87
  C 150.93 250.12 149.90 270.97 153.41 286.33
  C 157.61 304.70 171.65 315.55 190.68 312.13"
/>
<path stroke="#94a3bc" vector-effect="non-scaling-stroke" d="
  M 322.75 312.50
  C 340.57 313.18 351.75 302.62 355.43 285.94
  C 359.69 266.60 357.19 234.92 332.80 229.02
  Q 320.76 226.10 311.31 230.54
  C 292.29 239.48 289.97 265.76 293.17 283.51
  C 296.03 299.32 305.55 311.84 322.75 312.50"
/>
<path stroke="#94a3bc" vector-effect="non-scaling-stroke" d="
  M 109.04 247.06
  A 0.48 0.48 0.0 0 1 109.75 247.48
  L 109.75 296.79
  Q 109.75 297.46 109.09 297.47
  C 104.90 297.57 98.34 296.67 95.00 298.66
  C 88.68 302.42 91.72 311.50 99.41 311.59
  Q 115.68 311.79 131.95 311.46
  Q 135.45 311.39 137.18 310.30
  C 140.75 308.05 141.12 303.26 138.67 300.06
  C 135.93 296.48 129.08 297.54 125.02 297.48
  Q 124.50 297.48 124.50 296.95
  Q 124.51 267.72 124.48 238.49
  C 124.47 230.15 118.13 226.86 110.68 229.94
  C 108.20 230.96 94.01 237.27 91.64 241.33
  C 89.40 245.18 92.21 251.24 97.01 251.60
  C 100.60 251.87 105.78 248.86 109.04 247.06"
/>
<path stroke="#94a3bc" vector-effect="non-scaling-stroke" d="
  M 249.68 247.04
  A 0.22 0.22 0.0 0 1 250.00 247.24
  L 250.00 296.98
  Q 250.00 297.44 249.54 297.45
  C 244.04 297.56 233.78 295.66 232.29 303.02
  C 231.08 308.96 235.35 311.47 240.76 311.49
  Q 257.00 311.52 273.24 311.49
  C 280.58 311.48 283.31 303.53 277.56 298.96
  C 274.62 296.63 268.72 297.51 265.14 297.49
  A 0.40 0.40 0.0 0 1 264.75 297.09
  Q 264.76 267.87 264.74 238.72
  Q 264.74 234.22 263.34 232.23
  C 257.36 223.71 241.99 234.52 235.80 237.80
  C 229.56 241.09 229.91 250.84 237.49 251.53
  C 241.04 251.85 246.12 248.77 249.68 247.04"
/>
<path stroke="#94a3bc" vector-effect="non-scaling-stroke" d="
  M 389.81 247.07
  A 0.47 0.47 0.0 0 1 390.50 247.48
  L 390.50 296.80
  Q 390.50 297.47 389.83 297.48
  C 385.55 297.55 378.89 296.70 375.56 298.69
  C 371.66 301.02 371.47 307.98 375.57 310.49
  Q 377.26 311.52 380.66 311.52
  Q 397.21 311.53 413.78 311.47
  C 421.00 311.44 423.46 303.02 418.44 299.18
  C 415.30 296.78 409.77 297.42 405.80 297.52
  Q 405.25 297.53 405.25 296.99
  Q 405.26 267.58 405.24 238.17
  C 405.23 227.55 396.08 227.66 388.88 231.20
  Q 379.17 235.96 375.32 238.34
  C 370.63 241.23 370.46 247.65 375.03 250.58
  C 379.35 253.35 385.69 249.27 389.81 247.07"
/>
<path stroke="#94a3bc" vector-effect="non-scaling-stroke" d="
  M 127.20 350.84
  C 112.78 366.03 112.83 402.58 127.08 417.80
  C 135.90 427.21 151.36 428.99 162.57 423.75
  C 184.89 413.32 185.73 375.00 175.25 356.55
  C 165.30 339.04 140.31 337.03 127.20 350.84"
/>
<path stroke="#94a3bc" vector-effect="non-scaling-stroke" d="
  M 286.27 426.27
  C 321.52 428.95 326.92 388.30 318.85 363.48
  C 314.09 348.87 301.71 340.77 286.59 341.89
  C 254.20 344.31 251.23 390.70 263.24 411.77
  Q 270.84 425.09 286.27 426.27"
/>
<path stroke="#94a3bc" vector-effect="non-scaling-stroke" d="
  M 214.29 361.06
  A 0.48 0.48 0.0 0 1 215.00 361.48
  L 215.00 410.99
  Q 215.00 411.48 214.51 411.49
  C 210.57 411.52 203.49 410.70 200.30 412.48
  C 196.22 414.75 195.93 421.56 199.70 424.16
  Q 201.61 425.48 205.74 425.49
  Q 221.04 425.52 236.34 425.49
  Q 240.77 425.48 242.76 424.20
  C 246.77 421.64 246.28 414.25 241.77 412.24
  C 238.94 410.99 233.82 411.52 230.27 411.49
  Q 229.75 411.49 229.75 410.97
  Q 229.75 381.98 229.74 353.01
  C 229.74 348.04 228.26 343.60 222.99 343.02
  C 216.19 342.27 208.69 347.50 202.70 350.73
  Q 198.60 352.94 197.40 354.50
  C 194.59 358.17 196.92 364.80 201.81 365.49
  C 205.56 366.02 210.90 362.95 214.29 361.06"
/>
<path stroke="#94a3bc" vector-effect="non-scaling-stroke" d="
  M 354.90 360.99
  A 0.31 0.31 0.0 0 1 355.34 361.27
  L 355.22 411.13
  A 0.38 0.38 0.0 0 1 354.84 411.51
  C 350.57 411.48 343.37 410.59 340.04 412.95
  C 336.41 415.52 336.60 422.41 340.82 424.63
  Q 342.43 425.48 345.83 425.49
  Q 361.47 425.53 377.10 425.48
  Q 381.15 425.46 383.03 424.30
  C 387.25 421.69 386.72 414.37 382.29 412.31
  C 379.40 410.97 374.37 411.52 370.77 411.49
  Q 370.25 411.49 370.25 410.97
  Q 370.27 383.48 370.15 355.99
  C 370.14 353.18 370.51 350.17 369.27 347.47
  C 364.34 336.79 348.47 347.82 340.55 352.07
  C 333.81 355.69 336.37 366.49 344.43 365.48
  C 347.50 365.10 351.70 362.51 354.90 360.99"
/>
<path stroke="#94a3bc" vector-effect="non-scaling-stroke" d="
  M 174.79 245.16
  C 162.03 255.64 161.84 301.57 186.38 298.46
  C 205.58 296.03 204.74 258.99 196.43 247.99
  C 191.49 241.44 181.09 239.99 174.79 245.16"
/>
<path stroke="#94a3bc" vector-effect="non-scaling-stroke" d="
  M 325.42 242.13
  C 304.55 241.10 305.13 273.05 308.85 285.75
  C 314.24 304.13 336.24 302.44 340.71 284.00
  C 343.61 272.04 344.32 243.07 325.42 242.13"
/>
<path stroke="#94a3bc" vector-effect="non-scaling-stroke" d="
  M 146.01 412.20
  C 170.70 416.72 169.55 375.46 161.88 363.09
  C 156.75 354.82 144.85 353.56 138.51 360.01
  C 128.31 370.41 127.15 408.75 146.01 412.20"
/>
<path stroke="#94a3bc" vector-effect="non-scaling-stroke" d="
  M 301.62 406.55
  C 310.46 394.79 311.10 356.09 289.28 356.13
  C 267.11 356.17 267.63 399.98 280.28 409.52
  C 287.04 414.62 296.48 413.39 301.62 406.55"
/>
</g>
<path fill="#e5e8ef" d="
  M 427.24 15.02
  Q 431.14 16.50 434.95 18.11
  C 445.53 22.58 453.20 30.77 456.52 41.62
  Q 458.24 47.23 458.40 59.54
  C 458.62 76.14 458.51 92.77 458.51 109.35
  C 458.51 219.34 458.78 329.36 458.29 439.36
  C 458.24 450.66 459.78 462.71 455.52 473.16
  Q 448.81 489.61 430.83 495.65
  Q 430.40 495.80 429.75 496.96
  Q 251.37 497.04 73.00 497.00
  C 55.51 496.99 40.02 486.39 35.21 469.52
  Q 33.76 464.45 33.76 453.71
  Q 33.67 302.75 33.86 151.71
  C 34.93 151.90 35.70 152.25 36.73 152.25
  Q 88.10 152.26 139.47 152.24
  Q 149.78 152.24 154.24 150.75
  C 165.38 147.02 171.00 137.08 171.00 125.50
  Q 171.00 72.06 170.99 18.63
  C 170.99 17.62 170.62 16.44 170.39 15.43
  C 170.67 15.16 170.83 15.00 171.25 15.00
  Q 299.25 14.99 427.24 15.02
  Z
  M 241.11 60.33
  A 7.95 7.95 0.0 0 0 233.16 52.38
  L 218.02 52.38
  A 7.95 7.95 0.0 0 0 210.07 60.33
  L 210.07 61.23
  A 7.95 7.95 0.0 0 0 218.02 69.18
  L 233.16 69.18
  A 7.95 7.95 0.0 0 0 241.11 61.23
  L 241.11 60.33
  Z
  M 353.75 60.59
  A 8.32 8.32 0.0 0 0 345.43 52.27
  L 266.83 52.27
  A 8.32 8.32 0.0 0 0 258.51 60.59
  L 258.51 60.93
  A 8.32 8.32 0.0 0 0 266.83 69.25
  L 345.43 69.25
  A 8.32 8.32 0.0 0 0 353.75 60.93
  L 353.75 60.59
  Z
  M 305.96 99.59
  A 8.32 8.32 0.0 0 0 297.64 91.27
  L 218.88 91.27
  A 8.32 8.32 0.0 0 0 210.56 99.59
  L 210.56 99.91
  A 8.32 8.32 0.0 0 0 218.88 108.23
  L 297.64 108.23
  A 8.32 8.32 0.0 0 0 305.96 99.91
  L 305.96 99.59
  Z
  M 190.68 312.13
  C 220.89 306.70 222.90 257.10 207.55 238.46
  C 195.87 224.27 172.62 224.54 161.31 237.87
  C 150.93 250.12 149.90 270.97 153.41 286.33
  C 157.61 304.70 171.65 315.55 190.68 312.13
  Z
  M 322.75 312.50
  C 340.57 313.18 351.75 302.62 355.43 285.94
  C 359.69 266.60 357.19 234.92 332.80 229.02
  Q 320.76 226.10 311.31 230.54
  C 292.29 239.48 289.97 265.76 293.17 283.51
  C 296.03 299.32 305.55 311.84 322.75 312.50
  Z
  M 109.04 247.06
  A 0.48 0.48 0.0 0 1 109.75 247.48
  L 109.75 296.79
  Q 109.75 297.46 109.09 297.47
  C 104.90 297.57 98.34 296.67 95.00 298.66
  C 88.68 302.42 91.72 311.50 99.41 311.59
  Q 115.68 311.79 131.95 311.46
  Q 135.45 311.39 137.18 310.30
  C 140.75 308.05 141.12 303.26 138.67 300.06
  C 135.93 296.48 129.08 297.54 125.02 297.48
  Q 124.50 297.48 124.50 296.95
  Q 124.51 267.72 124.48 238.49
  C 124.47 230.15 118.13 226.86 110.68 229.94
  C 108.20 230.96 94.01 237.27 91.64 241.33
  C 89.40 245.18 92.21 251.24 97.01 251.60
  C 100.60 251.87 105.78 248.86 109.04 247.06
  Z
  M 249.68 247.04
  A 0.22 0.22 0.0 0 1 250.00 247.24
  L 250.00 296.98
  Q 250.00 297.44 249.54 297.45
  C 244.04 297.56 233.78 295.66 232.29 303.02
  C 231.08 308.96 235.35 311.47 240.76 311.49
  Q 257.00 311.52 273.24 311.49
  C 280.58 311.48 283.31 303.53 277.56 298.96
  C 274.62 296.63 268.72 297.51 265.14 297.49
  A 0.40 0.40 0.0 0 1 264.75 297.09
  Q 264.76 267.87 264.74 238.72
  Q 264.74 234.22 263.34 232.23
  C 257.36 223.71 241.99 234.52 235.80 237.80
  C 229.56 241.09 229.91 250.84 237.49 251.53
  C 241.04 251.85 246.12 248.77 249.68 247.04
  Z
  M 389.81 247.07
  A 0.47 0.47 0.0 0 1 390.50 247.48
  L 390.50 296.80
  Q 390.50 297.47 389.83 297.48
  C 385.55 297.55 378.89 296.70 375.56 298.69
  C 371.66 301.02 371.47 307.98 375.57 310.49
  Q 377.26 311.52 380.66 311.52
  Q 397.21 311.53 413.78 311.47
  C 421.00 311.44 423.46 303.02 418.44 299.18
  C 415.30 296.78 409.77 297.42 405.80 297.52
  Q 405.25 297.53 405.25 296.99
  Q 405.26 267.58 405.24 238.17
  C 405.23 227.55 396.08 227.66 388.88 231.20
  Q 379.17 235.96 375.32 238.34
  C 370.63 241.23 370.46 247.65 375.03 250.58
  C 379.35 253.35 385.69 249.27 389.81 247.07
  Z
  M 127.20 350.84
  C 112.78 366.03 112.83 402.58 127.08 417.80
  C 135.90 427.21 151.36 428.99 162.57 423.75
  C 184.89 413.32 185.73 375.00 175.25 356.55
  C 165.30 339.04 140.31 337.03 127.20 350.84
  Z
  M 286.27 426.27
  C 321.52 428.95 326.92 388.30 318.85 363.48
  C 314.09 348.87 301.71 340.77 286.59 341.89
  C 254.20 344.31 251.23 390.70 263.24 411.77
  Q 270.84 425.09 286.27 426.27
  Z
  M 214.29 361.06
  A 0.48 0.48 0.0 0 1 215.00 361.48
  L 215.00 410.99
  Q 215.00 411.48 214.51 411.49
  C 210.57 411.52 203.49 410.70 200.30 412.48
  C 196.22 414.75 195.93 421.56 199.70 424.16
  Q 201.61 425.48 205.74 425.49
  Q 221.04 425.52 236.34 425.49
  Q 240.77 425.48 242.76 424.20
  C 246.77 421.64 246.28 414.25 241.77 412.24
  C 238.94 410.99 233.82 411.52 230.27 411.49
  Q 229.75 411.49 229.75 410.97
  Q 229.75 381.98 229.74 353.01
  C 229.74 348.04 228.26 343.60 222.99 343.02
  C 216.19 342.27 208.69 347.50 202.70 350.73
  Q 198.60 352.94 197.40 354.50
  C 194.59 358.17 196.92 364.80 201.81 365.49
  C 205.56 366.02 210.90 362.95 214.29 361.06
  Z
  M 354.90 360.99
  A 0.31 0.31 0.0 0 1 355.34 361.27
  L 355.22 411.13
  A 0.38 0.38 0.0 0 1 354.84 411.51
  C 350.57 411.48 343.37 410.59 340.04 412.95
  C 336.41 415.52 336.60 422.41 340.82 424.63
  Q 342.43 425.48 345.83 425.49
  Q 361.47 425.53 377.10 425.48
  Q 381.15 425.46 383.03 424.30
  C 387.25 421.69 386.72 414.37 382.29 412.31
  C 379.40 410.97 374.37 411.52 370.77 411.49
  Q 370.25 411.49 370.25 410.97
  Q 370.27 383.48 370.15 355.99
  C 370.14 353.18 370.51 350.17 369.27 347.47
  C 364.34 336.79 348.47 347.82 340.55 352.07
  C 333.81 355.69 336.37 366.49 344.43 365.48
  C 347.50 365.10 351.70 362.51 354.90 360.99
  Z"
/>
<path fill="#c5d3dd" d="
  M 427.24 15.02
  C 435.00 14.99 443.81 14.13 451.26 16.46
  C 464.08 20.47 473.59 30.28 476.99 42.95
  Q 478.49 48.52 478.49 61.32
  Q 478.51 259.54 478.50 457.75
  C 478.50 478.01 463.81 495.48 443.69 496.93
  Q 440.61 497.15 429.75 496.96
  Q 430.40 495.80 430.83 495.65
  Q 448.81 489.61 455.52 473.16
  C 459.78 462.71 458.24 450.66 458.29 439.36
  C 458.78 329.36 458.51 219.34 458.51 109.35
  C 458.51 92.77 458.62 76.14 458.40 59.54
  Q 458.24 47.23 456.52 41.62
  C 453.20 30.77 445.53 22.58 434.95 18.11
  Q 431.14 16.50 427.24 15.02
  Z"
/>
<path fill="#4cc66e" d="
  M 170.39 15.43
  C 170.62 16.44 170.99 17.62 170.99 18.63
  Q 171.00 72.06 171.00 125.50
  C 171.00 137.08 165.38 147.02 154.24 150.75
  Q 149.78 152.24 139.47 152.24
  Q 88.10 152.26 36.73 152.25
  C 35.70 152.25 34.93 151.90 33.86 151.71
  L 170.39 15.43
  Z"
/>
<rect fill="#c5d3dd" x="210.07" y="52.38" width="31.04" height="16.80" rx="7.95"/>
<rect fill="#c5d3dd" x="258.51" y="52.27" width="95.24" height="16.98" rx="8.32"/>
<rect fill="#c5d3dd" x="210.56" y="91.27" width="95.40" height="16.96" rx="8.32"/>
<path fill="#435e88" d="
  M 190.68 312.13
  C 171.65 315.55 157.61 304.70 153.41 286.33
  C 149.90 270.97 150.93 250.12 161.31 237.87
  C 172.62 224.54 195.87 224.27 207.55 238.46
  C 222.90 257.10 220.89 306.70 190.68 312.13
  Z
  M 174.79 245.16
  C 162.03 255.64 161.84 301.57 186.38 298.46
  C 205.58 296.03 204.74 258.99 196.43 247.99
  C 191.49 241.44 181.09 239.99 174.79 245.16
  Z"
/>
<path fill="#435e88" d="
  M 322.75 312.50
  C 305.55 311.84 296.03 299.32 293.17 283.51
  C 289.97 265.76 292.29 239.48 311.31 230.54
  Q 320.76 226.10 332.80 229.02
  C 357.19 234.92 359.69 266.60 355.43 285.94
  C 351.75 302.62 340.57 313.18 322.75 312.50
  Z
  M 325.42 242.13
  C 304.55 241.10 305.13 273.05 308.85 285.75
  C 314.24 304.13 336.24 302.44 340.71 284.00
  C 343.61 272.04 344.32 243.07 325.42 242.13
  Z"
/>
<path fill="#435e88" d="
  M 109.04 247.06
  C 105.78 248.86 100.60 251.87 97.01 251.60
  C 92.21 251.24 89.40 245.18 91.64 241.33
  C 94.01 237.27 108.20 230.96 110.68 229.94
  C 118.13 226.86 124.47 230.15 124.48 238.49
  Q 124.51 267.72 124.50 296.95
  Q 124.50 297.48 125.02 297.48
  C 129.08 297.54 135.93 296.48 138.67 300.06
  C 141.12 303.26 140.75 308.05 137.18 310.30
  Q 135.45 311.39 131.95 311.46
  Q 115.68 311.79 99.41 311.59
  C 91.72 311.50 88.68 302.42 95.00 298.66
  C 98.34 296.67 104.90 297.57 109.09 297.47
  Q 109.75 297.46 109.75 296.79
  L 109.75 247.48
  A 0.48 0.48 0.0 0 0 109.04 247.06
  Z"
/>
<path fill="#435e88" d="
  M 249.68 247.04
  C 246.12 248.77 241.04 251.85 237.49 251.53
  C 229.91 250.84 229.56 241.09 235.80 237.80
  C 241.99 234.52 257.36 223.71 263.34 232.23
  Q 264.74 234.22 264.74 238.72
  Q 264.76 267.87 264.75 297.09
  A 0.40 0.40 0.0 0 0 265.14 297.49
  C 268.72 297.51 274.62 296.63 277.56 298.96
  C 283.31 303.53 280.58 311.48 273.24 311.49
  Q 257.00 311.52 240.76 311.49
  C 235.35 311.47 231.08 308.96 232.29 303.02
  C 233.78 295.66 244.04 297.56 249.54 297.45
  Q 250.00 297.44 250.00 296.98
  L 250.00 247.24
  A 0.22 0.22 0.0 0 0 249.68 247.04
  Z"
/>
<path fill="#435e88" d="
  M 389.81 247.07
  C 385.69 249.27 379.35 253.35 375.03 250.58
  C 370.46 247.65 370.63 241.23 375.32 238.34
  Q 379.17 235.96 388.88 231.20
  C 396.08 227.66 405.23 227.55 405.24 238.17
  Q 405.26 267.58 405.25 296.99
  Q 405.25 297.53 405.80 297.52
  C 409.77 297.42 415.30 296.78 418.44 299.18
  C 423.46 303.02 421.00 311.44 413.78 311.47
  Q 397.21 311.53 380.66 311.52
  Q 377.26 311.52 375.57 310.49
  C 371.47 307.98 371.66 301.02 375.56 298.69
  C 378.89 296.70 385.55 297.55 389.83 297.48
  Q 390.50 297.47 390.50 296.80
  L 390.50 247.48
  A 0.47 0.47 0.0 0 0 389.81 247.07
  Z"
/>
<path fill="#e5e8ef" d="
  M 186.38 298.46
  C 161.84 301.57 162.03 255.64 174.79 245.16
  C 181.09 239.99 191.49 241.44 196.43 247.99
  C 204.74 258.99 205.58 296.03 186.38 298.46
  Z"
/>
<path fill="#e5e8ef" d="
  M 308.85 285.75
  C 305.13 273.05 304.55 241.10 325.42 242.13
  C 344.32 243.07 343.61 272.04 340.71 284.00
  C 336.24 302.44 314.24 304.13 308.85 285.75
  Z"
/>
<path fill="#435e88" d="
  M 127.08 417.80
  C 112.83 402.58 112.78 366.03 127.20 350.84
  C 140.31 337.03 165.30 339.04 175.25 356.55
  C 185.73 375.00 184.89 413.32 162.57 423.75
  C 151.36 428.99 135.90 427.21 127.08 417.80
  Z
  M 146.01 412.20
  C 170.70 416.72 169.55 375.46 161.88 363.09
  C 156.75 354.82 144.85 353.56 138.51 360.01
  C 128.31 370.41 127.15 408.75 146.01 412.20
  Z"
/>
<path fill="#435e88" d="
  M 318.85 363.48
  C 326.92 388.30 321.52 428.95 286.27 426.27
  Q 270.84 425.09 263.24 411.77
  C 251.23 390.70 254.20 344.31 286.59 341.89
  C 301.71 340.77 314.09 348.87 318.85 363.48
  Z
  M 301.62 406.55
  C 310.46 394.79 311.10 356.09 289.28 356.13
  C 267.11 356.17 267.63 399.98 280.28 409.52
  C 287.04 414.62 296.48 413.39 301.62 406.55
  Z"
/>
<path fill="#435e88" d="
  M 214.29 361.06
  C 210.90 362.95 205.56 366.02 201.81 365.49
  C 196.92 364.80 194.59 358.17 197.40 354.50
  Q 198.60 352.94 202.70 350.73
  C 208.69 347.50 216.19 342.27 222.99 343.02
  C 228.26 343.60 229.74 348.04 229.74 353.01
  Q 229.75 381.98 229.75 410.97
  Q 229.75 411.49 230.27 411.49
  C 233.82 411.52 238.94 410.99 241.77 412.24
  C 246.28 414.25 246.77 421.64 242.76 424.20
  Q 240.77 425.48 236.34 425.49
  Q 221.04 425.52 205.74 425.49
  Q 201.61 425.48 199.70 424.16
  C 195.93 421.56 196.22 414.75 200.30 412.48
  C 203.49 410.70 210.57 411.52 214.51 411.49
  Q 215.00 411.48 215.00 410.99
  L 215.00 361.48
  A 0.48 0.48 0.0 0 0 214.29 361.06
  Z"
/>
<path fill="#435e88" d="
  M 354.90 360.99
  C 351.70 362.51 347.50 365.10 344.43 365.48
  C 336.37 366.49 333.81 355.69 340.55 352.07
  C 348.47 347.82 364.34 336.79 369.27 347.47
  C 370.51 350.17 370.14 353.18 370.15 355.99
  Q 370.27 383.48 370.25 410.97
  Q 370.25 411.49 370.77 411.49
  C 374.37 411.52 379.40 410.97 382.29 412.31
  C 386.72 414.37 387.25 421.69 383.03 424.30
  Q 381.15 425.46 377.10 425.48
  Q 361.47 425.53 345.83 425.49
  Q 342.43 425.48 340.82 424.63
  C 336.60 422.41 336.41 415.52 340.04 412.95
  C 343.37 410.59 350.57 411.48 354.84 411.51
  A 0.38 0.38 0.0 0 0 355.22 411.13
  L 355.34 361.27
  A 0.31 0.31 0.0 0 0 354.90 360.99
  Z"
/>
<path fill="#e5e8ef" d="
  M 161.88 363.09
  C 169.55 375.46 170.70 416.72 146.01 412.20
  C 127.15 408.75 128.31 370.41 138.51 360.01
  C 144.85 353.56 156.75 354.82 161.88 363.09
  Z"
/>
<path fill="#e5e8ef" d="
  M 289.28 356.13
  C 311.10 356.09 310.46 394.79 301.62 406.55
  C 296.48 413.39 287.04 414.62 280.28 409.52
  C 267.63 399.98 267.11 356.17 289.28 356.13
  Z"
/>
</svg>
