<?xml version="1.0" encoding="UTF-8" standalone="no"?>
<!DOCTYPE svg PUBLIC "-//W3C//DTD SVG 1.1//EN" "http://www.w3.org/Graphics/SVG/1.1/DTD/svg11.dtd">
<svg xmlns="http://www.w3.org/2000/svg" version="1.1" viewBox="0.00 0.00 512.00 512.00">
<g stroke-width="2.00" fill="none" stroke-linecap="butt">
<path stroke="#cc8331" vector-effect="non-scaling-stroke" d="
  M 353.19 70.60
  L 247.96 175.75"
/>
<path stroke="#c57434" vector-effect="non-scaling-stroke" d="
  M 247.96 175.75
  L 246.75 176.71"
/>
<path stroke="#935f3b" vector-effect="non-scaling-stroke" d="
  M 246.75 176.71
  Q 202.90 177.40 159.04 176.75"
/>
<path stroke="#c57434" vector-effect="non-scaling-stroke" d="
  M 159.04 176.75
  L 159.46 176.00"
/>
<path stroke="#cc8331" vector-effect="non-scaling-stroke" d="
  M 159.46 176.00
  L 263.62 71.71
  Q 263.92 71.42 263.99 71.00
  L 264.06 70.59"
/>
<path stroke="#ec8d22" vector-effect="non-scaling-stroke" d="
  M 159.46 176.00
  Q 158.77 176.50 158.25 176.50
  Q 88.81 176.49 19.37 176.51
  C 15.38 176.51 12.87 177.14 9.47 178.73
  Q 8.81 179.03 8.21 178.50"
/>
<path stroke="#cc8331" vector-effect="non-scaling-stroke" d="
  M 506.54 75.75
  L 400.96 181.50"
/>
<path stroke="#ec8d22" vector-effect="non-scaling-stroke" d="
  M 400.96 181.50
  Q 394.73 176.49 388.75 176.50
  Q 318.93 176.50 249.11 176.50
  C 248.52 176.50 248.22 176.23 247.96 175.75"
/>
<path stroke="#c57434" vector-effect="non-scaling-stroke" d="
  M 403.04 504.75
  Q 406.00 498.98 406.00 496.25
  Q 406.00 346.40 406.00 196.54
  C 406.00 190.13 404.77 186.16 400.96 181.50"
/>
<path stroke="#b3692c" vector-effect="non-scaling-stroke" d="
  M 159.04 176.75
  Q 158.96 236.92 159.01 297.09
  Q 159.01 301.63 160.12 303.72
  C 162.80 308.74 169.16 309.45 173.51 306.00
  Q 188.15 294.40 202.70 282.78
  A 0.56 0.55 44.5 0 1 203.39 282.78
  Q 216.59 293.25 229.69 303.80
  Q 234.21 307.43 237.06 307.99
  C 244.76 309.50 247.25 302.33 247.25 296.00
  Q 247.25 236.87 247.25 177.75
  Q 247.25 177.46 246.75 176.71"
/>
<path stroke="#dc6a26" vector-effect="non-scaling-stroke" d="
  M 362.10 446.37
  Q 362.30 445.47 362.96 446.12
  Q 367.16 450.31 371.66 449.83
  C 377.35 449.22 381.05 443.29 378.60 437.87
  Q 377.70 435.86 374.37 432.50
  Q 367.32 425.36 360.13 418.34
  C 354.39 412.74 349.89 414.56 344.60 419.80
  Q 336.73 427.58 328.96 435.46
  C 326.33 438.14 326.24 442.71 328.25 445.89
  C 332.51 452.63 338.90 450.16 343.58 445.56
  A 0.54 0.54 0.0 0 1 344.49 446.04
  C 342.30 459.04 357.54 464.04 361.36 452.89
  C 362.01 450.99 361.63 448.43 362.10 446.37"
/>
<path stroke="#f2bf92" vector-effect="non-scaling-stroke" d="
  M 194.24 432.90
  A 9.16 9.16 0.0 0 0 185.08 423.74
  L 44.42 423.74
  A 9.16 9.16 0.0 0 0 35.26 432.90
  L 35.26 467.58
  A 9.16 9.16 0.0 0 0 44.42 476.74
  L 185.08 476.74
  A 9.16 9.16 0.0 0 0 194.24 467.58
  L 194.24 432.90"
/>
<path stroke="#dc6a26" vector-effect="non-scaling-stroke" d="
  M 379.40 476.37
  A 8.48 8.48 0.0 0 0 370.92 467.89
  L 335.32 467.89
  A 8.48 8.48 0.0 0 0 326.84 476.37
  L 326.84 476.97
  A 8.48 8.48 0.0 0 0 335.32 485.45
  L 370.92 485.45
  A 8.48 8.48 0.0 0 0 379.40 476.97
  L 379.40 476.37"
/>
</g>
<path fill="#a56a43" d="
  M 353.19 70.60
  L 247.96 175.75
  L 246.75 176.71
  Q 202.90 177.40 159.04 176.75
  L 159.46 176.00
  L 263.62 71.71
  Q 263.92 71.42 263.99 71.00
  L 264.06 70.59
  Q 275.42 61.02 284.30 49.05
  Q 300.03 27.85 300.04 0.70
  A 0.39 0.39 0.0 0 1 300.67 0.39
  L 334.92 26.06
  Q 335.48 26.48 336.08 26.12
  L 378.90 0.44
  Q 379.57 0.04 379.54 0.81
  C 378.47 26.63 370.56 51.81 353.19 70.60
  Z"
/>
<path fill="#f29c1f" d="
  M 264.06 70.59
  L 263.99 71.00
  Q 263.92 71.42 263.62 71.71
  L 159.46 176.00
  Q 158.77 176.50 158.25 176.50
  Q 88.81 176.49 19.37 176.51
  C 15.38 176.51 12.87 177.14 9.47 178.73
  Q 8.81 179.03 8.21 178.50
  Q 54.22 127.38 100.31 76.31
  Q 105.56 70.49 114.31 70.48
  Q 189.11 70.40 264.06 70.59
  Z"
/>
<path fill="#f29c1f" d="
  M 506.54 75.75
  L 400.96 181.50
  Q 394.73 176.49 388.75 176.50
  Q 318.93 176.50 249.11 176.50
  C 248.52 176.50 248.22 176.23 247.96 175.75
  L 353.19 70.60
  Q 421.17 70.38 489.00 70.53
  C 495.53 70.55 501.34 70.53 506.54 75.75
  Z"
/>
<path fill="#a56a43" d="
  M 506.54 75.75
  Q 511.35 80.35 512.00 87.06
  L 512.00 400.31
  C 510.88 408.01 507.28 410.76 501.63 415.87
  Q 432.54 478.40 403.04 504.75
  Q 406.00 498.98 406.00 496.25
  Q 406.00 346.40 406.00 196.54
  C 406.00 190.13 404.77 186.16 400.96 181.50
  L 506.54 75.75
  Z"
/>
<path fill="#e57e25" d="
  M 247.96 175.75
  C 248.22 176.23 248.52 176.50 249.11 176.50
  Q 318.93 176.50 388.75 176.50
  Q 394.73 176.49 400.96 181.50
  C 404.77 186.16 406.00 190.13 406.00 196.54
  Q 406.00 346.40 406.00 496.25
  Q 406.00 498.98 403.04 504.75
  Q 397.69 510.78 389.69 512.00
  L 16.19 512.00
  Q 2.09 509.59 0.00 495.44
  L 0.00 192.44
  Q 1.63 184.03 8.21 178.50
  Q 8.81 179.03 9.47 178.73
  C 12.87 177.14 15.38 176.51 19.37 176.51
  Q 88.81 176.49 158.25 176.50
  Q 158.77 176.50 159.46 176.00
  L 159.04 176.75
  Q 158.96 236.92 159.01 297.09
  Q 159.01 301.63 160.12 303.72
  C 162.80 308.74 169.16 309.45 173.51 306.00
  Q 188.15 294.40 202.70 282.78
  A 0.56 0.55 44.5 0 1 203.39 282.78
  Q 216.59 293.25 229.69 303.80
  Q 234.21 307.43 237.06 307.99
  C 244.76 309.50 247.25 302.33 247.25 296.00
  Q 247.25 236.87 247.25 177.75
  Q 247.25 177.46 246.75 176.71
  L 247.96 175.75
  Z
  M 362.10 446.37
  Q 362.30 445.47 362.96 446.12
  Q 367.16 450.31 371.66 449.83
  C 377.35 449.22 381.05 443.29 378.60 437.87
  Q 377.70 435.86 374.37 432.50
  Q 367.32 425.36 360.13 418.34
  C 354.39 412.74 349.89 414.56 344.60 419.80
  Q 336.73 427.58 328.96 435.46
  C 326.33 438.14 326.24 442.71 328.25 445.89
  C 332.51 452.63 338.90 450.16 343.58 445.56
  A 0.54 0.54 0.0 0 1 344.49 446.04
  C 342.30 459.04 357.54 464.04 361.36 452.89
  C 362.01 450.99 361.63 448.43 362.10 446.37
  Z
  M 194.24 432.90
  A 9.16 9.16 0.0 0 0 185.08 423.74
  L 44.42 423.74
  A 9.16 9.16 0.0 0 0 35.26 432.90
  L 35.26 467.58
  A 9.16 9.16 0.0 0 0 44.42 476.74
  L 185.08 476.74
  A 9.16 9.16 0.0 0 0 194.24 467.58
  L 194.24 432.90
  Z
  M 379.40 476.37
  A 8.48 8.48 0.0 0 0 370.92 467.89
  L 335.32 467.89
  A 8.48 8.48 0.0 0 0 326.84 476.37
  L 326.84 476.97
  A 8.48 8.48 0.0 0 0 335.32 485.45
  L 370.92 485.45
  A 8.48 8.48 0.0 0 0 379.40 476.97
  L 379.40 476.37
  Z"
/>
<path fill="#805333" d="
  M 159.04 176.75
  Q 202.90 177.40 246.75 176.71
  Q 247.25 177.46 247.25 177.75
  Q 247.25 236.87 247.25 296.00
  C 247.25 302.33 244.76 309.50 237.06 307.99
  Q 234.21 307.43 229.69 303.80
  Q 216.59 293.25 203.39 282.78
  A 0.56 0.55 44.5 0 0 202.70 282.78
  Q 188.15 294.40 173.51 306.00
  C 169.16 309.45 162.80 308.74 160.12 303.72
  Q 159.01 301.63 159.01 297.09
  Q 158.96 236.92 159.04 176.75
  Z"
/>
<path fill="#d25627" d="
  M 362.10 446.37
  C 361.63 448.43 362.01 450.99 361.36 452.89
  C 357.54 464.04 342.30 459.04 344.49 446.04
  A 0.54 0.54 0.0 0 0 343.58 445.56
  C 338.90 450.16 332.51 452.63 328.25 445.89
  C 326.24 442.71 326.33 438.14 328.96 435.46
  Q 336.73 427.58 344.60 419.80
  C 349.89 414.56 354.39 412.74 360.13 418.34
  Q 367.32 425.36 374.37 432.50
  Q 377.70 435.86 378.60 437.87
  C 381.05 443.29 377.35 449.22 371.66 449.83
  Q 367.16 450.31 362.96 446.12
  Q 362.30 445.47 362.10 446.37
  Z"
/>
<rect fill="#ffffff" x="35.26" y="423.74" width="158.98" height="53.00" rx="9.16"/>
<rect fill="#d25627" x="326.84" y="467.89" width="52.56" height="17.56" rx="8.48"/>
</svg>
