<?xml version="1.0" encoding="UTF-8" standalone="no"?>
<!DOCTYPE svg PUBLIC "-//W3C//DTD SVG 1.1//EN" "http://www.w3.org/Graphics/SVG/1.1/DTD/svg11.dtd">
<svg xmlns="http://www.w3.org/2000/svg" version="1.1" viewBox="0.00 0.00 512.00 512.00">
<g stroke-width="2.00" fill="none" stroke-linecap="butt">
<path stroke="#ffd024" vector-effect="non-scaling-stroke" d="
  M 500.10 178.68
  Q 499.41 178.86 499.03 178.47
  Q 472.16 150.85 444.26 123.84"
/>
<path stroke="#e17031" vector-effect="non-scaling-stroke" d="
  M 444.26 123.84
  L 416.36 95.54"
/>
<path stroke="#ff713e" vector-effect="non-scaling-stroke" d="
  M 416.36 95.54
  Q 405.16 84.17 394.07 73.19
  C 381.87 61.10 364.28 61.43 352.12 73.38
  Q 335.25 89.96 318.54 106.92"
/>
<path stroke="#ffefa3" vector-effect="non-scaling-stroke" d="
  M 318.54 106.92
  L 297.54 128.13"
/>
<path stroke="#f3aa24" vector-effect="non-scaling-stroke" d="
  M 297.54 128.13
  L 130.64 294.74
  Q 130.47 294.91 130.51 295.14
  Q 130.54 295.31 130.44 295.43"
/>
<path stroke="#ffd25d" vector-effect="non-scaling-stroke" d="
  M 130.44 295.43
  L 104.54 369.50"
/>
<path stroke="#ab9a52" vector-effect="non-scaling-stroke" d="
  M 104.54 369.50
  L 84.93 425.98"
/>
<path stroke="#8b7b30" vector-effect="non-scaling-stroke" d="
  M 84.93 425.98
  Q 83.94 428.00 85.19 427.75"
/>
<path stroke="#ffd024" vector-effect="non-scaling-stroke" d="
  M 85.19 427.75
  L 85.37 428.22
  A 2.39 2.29 -79.0 0 0 85.90 429.04
  L 139.38 482.58
  Q 139.76 482.95 139.75 483.49
  L 139.74 484.16"
/>
<path stroke="#e10228" vector-effect="non-scaling-stroke" d="
  M 416.36 95.54
  L 363.39 148.50
  Q 363.06 148.82 363.03 149.27
  Q 363.00 149.82 362.42 150.24"
/>
<path stroke="#e46581" vector-effect="non-scaling-stroke" d="
  M 362.42 150.24
  L 362.04 150.25"
/>
<path stroke="#ff819a" vector-effect="non-scaling-stroke" d="
  M 362.04 150.25
  L 318.54 106.92"
/>
<path stroke="#e0600e" vector-effect="non-scaling-stroke" d="
  M 444.26 123.84
  Q 450.95 139.00 444.79 151.45
  Q 442.47 156.13 433.57 165.18
  Q 419.49 179.47 405.41 193.42"
/>
<path stroke="#c56374" vector-effect="non-scaling-stroke" d="
  M 405.41 193.42
  L 362.42 150.24"
/>
<path stroke="#e4e3e6" vector-effect="non-scaling-stroke" d="
  M 362.04 150.25
  L 340.49 171.11"
/>
<path stroke="#f3ba80" vector-effect="non-scaling-stroke" d="
  M 340.49 171.11
  L 297.54 128.13"
/>
<path stroke="#8b6c0d" vector-effect="non-scaling-stroke" d="
  M 85.19 427.75
  L 142.74 407.63"
/>
<path stroke="#ffb510" vector-effect="non-scaling-stroke" d="
  M 142.74 407.63
  Q 179.17 395.42 215.76 382.53
  Q 216.70 382.20 216.79 381.25"
/>
<path stroke="#cc8600" vector-effect="non-scaling-stroke" d="
  M 216.79 381.25
  Q 216.91 381.31 217.03 381.36
  Q 217.19 381.44 217.31 381.31
  L 384.09 214.57"
/>
<path stroke="#e3c366" vector-effect="non-scaling-stroke" d="
  M 384.09 214.57
  L 405.41 193.42"
/>
<path stroke="#d79e66" vector-effect="non-scaling-stroke" d="
  M 340.49 171.11
  Q 340.69 171.52 340.89 171.32"
/>
<path stroke="#c06100" vector-effect="non-scaling-stroke" d="
  M 340.89 171.32
  L 174.00 338.04"
/>
<path stroke="#f39010" vector-effect="non-scaling-stroke" d="
  M 174.00 338.04
  Q 173.90 338.02 173.79 338.00"
/>
<path stroke="#f39d3a" vector-effect="non-scaling-stroke" d="
  M 173.79 338.00
  L 130.44 295.43"
/>
<path stroke="#b18966" vector-effect="non-scaling-stroke" d="
  M 384.09 214.57
  L 340.89 171.32"
/>
<path stroke="#cd7b10" vector-effect="non-scaling-stroke" d="
  M 216.79 381.25
  L 174.00 338.04"
/>
<path stroke="#ffb74a" vector-effect="non-scaling-stroke" d="
  M 173.79 338.00
  L 123.50 388.04"
/>
<path stroke="#ab8d68" vector-effect="non-scaling-stroke" d="
  M 123.50 388.04
  L 104.54 369.50"
/>
<path stroke="#8b611d" vector-effect="non-scaling-stroke" d="
  M 142.74 407.63
  L 123.60 388.45"
/>
<path stroke="#ab803e" vector-effect="non-scaling-stroke" d="
  M 123.60 388.45
  Q 123.88 388.60 123.50 388.04"
/>
<path stroke="#37363b" vector-effect="non-scaling-stroke" d="
  M 123.60 388.45
  Q 105.25 407.10 86.44 425.44
  Q 86.06 425.80 84.93 425.98"
/>
</g>
<path fill="#ffdf47" d="
  M 252.32 0.00
  L 259.55 0.00
  C 370.99 2.71 465.63 72.80 500.10 178.68
  Q 499.41 178.86 499.03 178.47
  Q 472.16 150.85 444.26 123.84
  L 416.36 95.54
  Q 405.16 84.17 394.07 73.19
  C 381.87 61.10 364.28 61.43 352.12 73.38
  Q 335.25 89.96 318.54 106.92
  L 297.54 128.13
  L 130.64 294.74
  Q 130.47 294.91 130.51 295.14
  Q 130.54 295.31 130.44 295.43
  L 104.54 369.50
  L 84.93 425.98
  Q 83.94 428.00 85.19 427.75
  L 85.37 428.22
  A 2.39 2.29 -79.0 0 0 85.90 429.04
  L 139.38 482.58
  Q 139.76 482.95 139.75 483.49
  L 139.74 484.16
  C 54.70 439.98 1.31 354.48 0.00 258.43
  L 0.00 253.19
  C 2.55 113.61 112.59 3.05 252.32 0.00
  Z"
/>
<path fill="#ff0335" d="
  M 416.36 95.54
  L 363.39 148.50
  Q 363.06 148.82 363.03 149.27
  Q 363.00 149.82 362.42 150.24
  L 362.04 150.25
  L 318.54 106.92
  Q 335.25 89.96 352.12 73.38
  C 364.28 61.43 381.87 61.10 394.07 73.19
  Q 405.16 84.17 416.36 95.54
  Z"
/>
<path fill="#c2001b" d="
  M 416.36 95.54
  L 444.26 123.84
  Q 450.95 139.00 444.79 151.45
  Q 442.47 156.13 433.57 165.18
  Q 419.49 179.47 405.41 193.42
  L 362.42 150.24
  Q 363.00 149.82 363.03 149.27
  Q 363.06 148.82 363.39 148.50
  L 416.36 95.54
  Z"
/>
<path fill="#ffffff" d="
  M 318.54 106.92
  L 362.04 150.25
  L 340.49 171.11
  L 297.54 128.13
  L 318.54 106.92
  Z"
/>
<path fill="#fec000" d="
  M 500.10 178.68
  Q 510.50 211.64 512.00 246.33
  L 512.00 267.05
  C 508.51 330.74 483.55 390.12 438.83 435.22
  Q 368.44 506.20 266.45 512.00
  L 246.70 512.00
  Q 189.90 509.66 139.74 484.16
  L 139.75 483.49
  Q 139.76 482.95 139.38 482.58
  L 85.90 429.04
  A 2.39 2.29 -79.0 0 1 85.37 428.22
  L 85.19 427.75
  L 142.74 407.63
  Q 179.17 395.42 215.76 382.53
  Q 216.70 382.20 216.79 381.25
  Q 216.91 381.31 217.03 381.36
  Q 217.19 381.44 217.31 381.31
  L 384.09 214.57
  L 405.41 193.42
  Q 419.49 179.47 433.57 165.18
  Q 442.47 156.13 444.79 151.45
  Q 450.95 139.00 444.26 123.84
  Q 472.16 150.85 499.03 178.47
  Q 499.41 178.86 500.10 178.68
  Z"
/>
<path fill="#e67500" d="
  M 297.54 128.13
  L 340.49 171.11
  Q 340.69 171.52 340.89 171.32
  L 174.00 338.04
  Q 173.90 338.02 173.79 338.00
  L 130.44 295.43
  Q 130.54 295.31 130.51 295.14
  Q 130.47 294.91 130.64 294.74
  L 297.54 128.13
  Z"
/>
<path fill="#c8c6cc" d="
  M 362.04 150.25
  L 362.42 150.24
  L 405.41 193.42
  L 384.09 214.57
  L 340.89 171.32
  Q 340.69 171.52 340.49 171.11
  L 362.04 150.25
  Z"
/>
<path fill="#9a4c00" d="
  M 340.89 171.32
  L 384.09 214.57
  L 217.31 381.31
  Q 217.19 381.44 217.03 381.36
  Q 216.91 381.31 216.79 381.25
  L 174.00 338.04
  L 340.89 171.32
  Z"
/>
<path fill="#ffc473" d="
  M 130.44 295.43
  L 173.79 338.00
  L 123.50 388.04
  L 104.54 369.50
  L 130.44 295.43
  Z"
/>
<path fill="#ffaa20" d="
  M 173.79 338.00
  Q 173.90 338.02 174.00 338.04
  L 216.79 381.25
  Q 216.70 382.20 215.76 382.53
  Q 179.17 395.42 142.74 407.63
  L 123.60 388.45
  Q 123.88 388.60 123.50 388.04
  L 173.79 338.00
  Z"
/>
<path fill="#57555c" d="
  M 104.54 369.50
  L 123.50 388.04
  Q 123.88 388.60 123.60 388.45
  Q 105.25 407.10 86.44 425.44
  Q 86.06 425.80 84.93 425.98
  L 104.54 369.50
  Z"
/>
<path fill="#171719" d="
  M 123.60 388.45
  L 142.74 407.63
  L 85.19 427.75
  Q 83.94 428.00 84.93 425.98
  Q 86.06 425.80 86.44 425.44
  Q 105.25 407.10 123.60 388.45
  Z"
/>
</svg>
