<svg xmlns="http://www.w3.org/2000/svg" fill="#ff4c5b" viewBox="0 0 124.38 108.27"><path d="M22.86 2.46h78.65c11.22 0 20.4 9.18 20.4 20.4V85.4c0 11.22-9.18 20.4-20.4 20.4H22.86c-11.22 0-20.4-9.18-20.4-20.4V22.86c0-11.22 9.18-20.4 20.4-20.4h0z" fill="none" stroke="#ff4c5b" stroke-width="4.923" stroke-linecap="round" stroke-linejoin="round" stroke-miterlimit="2.613"/><path d="M2.42 83.67c.24-.54.6-.65 1.06-.47C1.74 79.95.75 76.18.75 72.18c0-1.02.77-1.84 1.71-1.84.95 0 1.71.83 1.71 1.84 0 5.11 1.94 9.75 5.06 13.12 3.12 3.36 7.42 5.45 12.16 5.45h81.59c.19 0 .38 0 .57-.01l1.16-.08c4.05-.44 7.69-2.41 10.43-5.35 3.12-3.36 5.06-8.01 5.06-13.12 0-1.02.77-1.84 1.71-1.84.95 0 1.71.83 1.71 1.84 0 3.96-.98 7.69-2.68 10.93.32.09.64.27.97.56-.6 16.23-7.28 22.7-20.14 22.57H25.16C9.05 106.2 1.84 99.42 2.42 83.67z" fill-rule="evenodd" clip-rule="evenodd"/><path d="M44.53 28.89h22.11c3.68 0 6.51.92 8.48 2.74 1.97 1.82 2.96 4.08 2.96 6.77 0 2.26-.7 4.2-2.12 5.81-.93 1.08-2.31 1.93-4.12 2.56 2.75.66 4.76 1.79 6.05 3.4 1.29 1.61 1.94 3.63 1.94 6.05 0 1.98-.46 3.76-1.38 5.34-.92 1.58-2.19 2.83-3.78 3.75-1 .57-2.49.99-4.49 1.24-2.66.35-4.42.52-5.29.52H44.53V28.89zm11.9 14.99h5.15c1.84 0 3.13-.32 3.85-.95.72-.64 1.08-1.56 1.08-2.76 0-1.11-.36-1.98-1.08-2.6-.72-.63-1.98-.94-3.77-.94h-5.23v7.25zm0 14.99h6.02c2.04 0 3.47-.36 4.3-1.08.84-.72 1.25-1.68 1.25-2.9 0-1.13-.41-2.04-1.24-2.72-.83-.68-2.28-1.03-4.35-1.03h-5.99v7.73h.01z"/></svg>