<?xml version="1.0" encoding="UTF-8"?>
<!DOCTYPE svg PUBLIC "-//W3C//DTD SVG 1.1//EN" "http://www.w3.org/Graphics/SVG/1.1/DTD/svg11.dtd">
<!-- Creator: CorelDRAW -->
<svg xmlns="http://www.w3.org/2000/svg" xml:space="preserve" width="14.9844mm" height="11.8559mm" version="1.1" style="shape-rendering:geometricPrecision; text-rendering:geometricPrecision; image-rendering:optimizeQuality; fill-rule:evenodd; clip-rule:evenodd"
viewBox="0 0 4871.6 3854.5"
 xmlns:xlink="http://www.w3.org/1999/xlink"
 xmlns:xodm="http://www.corel.com/coreldraw/odm/2003">
 <defs>
  <style type="text/css">
   <![CDATA[
    .str0 {stroke:#A8CF45;stroke-width:243.8;stroke-linejoin:round;stroke-miterlimit:22.9256}
    .fil0 {fill:none}
    .fil1 {fill:#42B7FF;fill-rule:nonzero}
   ]]>
  </style>
 </defs>
 <g id="Слой_x0020_1">
  <metadata id="CorelCorpID_0Corel-Layer"/>
  <g id="_1973808916496">
   <polyline class="fil0 str0" points="1865.7,2229.7 2183.6,2229.7 2703.9,668.9 2949.6,3732.6 3527.6,1651.6 3686.6,2518.7 3855.8,2028.2 4871.6,2028.2 "/>
   <path class="fil1" d="M1158.1 1363.8c465.4,0 825.3,97.4 1079.7,292.2 254.4,194.8 381.5,483.4 381.5,865.9 0,411.3 -131.6,717.1 -395,917.3 -263.4,200.2 -618.7,300.4 -1066.1,300.4l-1158.1 0 0 -3739.6 2197.2 0 -75.8 557.4 -1407.1 0 0 806.4 443.8 0zm-21.7 1840c234.5,0 414.9,-51.4 541.2,-154.2 126.3,-102.8 189.4,-275.1 189.4,-516.8 0,-223.7 -62.2,-387.9 -186.7,-492.5 -124.5,-104.6 -311.2,-156.9 -560.1,-156.9l-405.9 0 0 1320.5 422.1 0z"/>
  </g>
 </g>
</svg>
