<?xml version="1.0" encoding="utf-8"?>
<!-- Generator: Adobe Illustrator 26.1.0, SVG Export Plug-In . SVG Version: 6.00 Build 0)  -->
<svg version="1.1" id="Layer_1" xmlns="http://www.w3.org/2000/svg" xmlns:xlink="http://www.w3.org/1999/xlink" x="0px" y="0px"
	 viewBox="0 0 122.9 114.9" style="enable-background:new 0 0 122.9 114.9;" xml:space="preserve">
<style type="text/css">
	.st0{fill-rule:evenodd;clip-rule:evenodd;fill:#BF5A16;}
	.st1{fill-rule:evenodd;clip-rule:evenodd;fill:#FFFFFF;}
</style>
<g>
	<path class="st0" d="M-105,341.5h20.8c0.9,0,1.7,0.8,1.7,1.7v21.4c0,0.9-0.8,1.7-1.7,1.7H-105c-0.9,0-1.7-0.8-1.7-1.7v-21.4
		C-106.7,342.2-105.9,341.5-105,341.5L-105,341.5z M-104.8,431.6H-64c0.9,0,1.7,0.8,1.7,1.7v21.4c0,0.9-0.8,1.7-1.7,1.7h-40.8
		c-0.9,0-1.7-0.8-1.7-1.7v-21.4C-106.5,432.4-105.7,431.6-104.8,431.6L-104.8,431.6z M-6.2,431.6h20.5c0.9,0,1.7,0.8,1.7,1.7v21.4
		c0,0.9-0.8,1.7-1.7,1.7H-6.2c-0.9,0-1.7-0.8-1.7-1.7v-21.4C-7.9,432.4-7.1,431.6-6.2,431.6L-6.2,431.6z M-55.4,431.6h40.8
		c0.9,0,1.7,0.8,1.7,1.7v21.4c0,0.9-0.8,1.7-1.7,1.7h-40.8c-0.9,0-1.7-0.8-1.7-1.7v-21.4C-57.1,432.4-56.3,431.6-55.4,431.6
		L-55.4,431.6z M-26.3,401.6h40.8c0.9,0,1.7,0.8,1.7,1.7v21.4c0,0.9-0.8,1.7-1.7,1.7h-40.8c-0.9,0-1.7-0.8-1.7-1.7v-21.4
		C-28,402.3-27.2,401.6-26.3,401.6L-26.3,401.6z M-75.6,401.6h40.8c0.9,0,1.7,0.8,1.7,1.7v21.4c0,0.9-0.8,1.7-1.7,1.7h-40.8
		c-0.9,0-1.7-0.8-1.7-1.7v-21.4C-77.3,402.3-76.5,401.6-75.6,401.6L-75.6,401.6z M-105,401.6h20.8c0.9,0,1.7,0.8,1.7,1.7v21.4
		c0,0.9-0.8,1.7-1.7,1.7H-105c-0.9,0-1.7-0.8-1.7-1.7v-21.4C-106.7,402.3-105.9,401.6-105,401.6L-105,401.6z M-104.8,371.5H-64
		c0.9,0,1.7,0.8,1.7,1.7v21.4c0,0.9-0.8,1.7-1.7,1.7h-40.8c-0.9,0-1.7-0.8-1.7-1.7v-21.4C-106.5,372.3-105.7,371.5-104.8,371.5
		L-104.8,371.5z M-6.2,371.5h20.5c0.9,0,1.7,0.8,1.7,1.7v21.4c0,0.9-0.8,1.7-1.7,1.7H-6.2c-0.9,0-1.7-0.8-1.7-1.7v-21.4
		C-7.9,372.3-7.1,371.5-6.2,371.5L-6.2,371.5z M-55.4,371.5h40.8c0.9,0,1.7,0.8,1.7,1.7v21.4c0,0.9-0.8,1.7-1.7,1.7h-40.8
		c-0.9,0-1.7-0.8-1.7-1.7v-21.4C-57.1,372.3-56.3,371.5-55.4,371.5L-55.4,371.5z M-26.3,341.5h40.8c0.9,0,1.7,0.8,1.7,1.7v21.4
		c0,0.9-0.8,1.7-1.7,1.7h-40.8c-0.9,0-1.7-0.8-1.7-1.7v-21.4C-28,342.2-27.2,341.5-26.3,341.5L-26.3,341.5z M-75.6,341.5h40.8
		c0.9,0,1.7,0.8,1.7,1.7v21.4c0,0.9-0.8,1.7-1.7,1.7h-40.8c-0.9,0-1.7-0.8-1.7-1.7v-21.4C-77.3,342.2-76.5,341.5-75.6,341.5
		L-75.6,341.5z"/>
</g>
<g>
	<path class="st0" d="M91.8,200.8h20.8c0.9,0,1.7,0.8,1.7,1.7v21.4c0,0.9-0.8,1.7-1.7,1.7H91.8c-0.9,0-1.7-0.8-1.7-1.7v-21.4
		C90.1,201.6,90.9,200.8,91.8,200.8L91.8,200.8z M92.1,291h40.8c0.9,0,1.7,0.8,1.7,1.7v21.4c0,0.9-0.8,1.7-1.7,1.7H92.1
		c-0.9,0-1.7-0.8-1.7-1.7v-21.4C90.4,291.8,91.1,291,92.1,291L92.1,291z M190.6,291h20.5c0.9,0,1.7,0.8,1.7,1.7v21.4
		c0,0.9-0.8,1.7-1.7,1.7h-20.5c-0.9,0-1.7-0.8-1.7-1.7v-21.4C188.9,291.8,189.7,291,190.6,291L190.6,291z M141.5,291h40.8
		c0.9,0,1.7,0.8,1.7,1.7v21.4c0,0.9-0.8,1.7-1.7,1.7h-40.8c-0.9,0-1.7-0.8-1.7-1.7v-21.4C139.8,291.8,140.5,291,141.5,291L141.5,291
		z M170.5,260.9h40.8c0.9,0,1.7,0.8,1.7,1.7V284c0,0.9-0.8,1.7-1.7,1.7h-40.8c-0.9,0-1.7-0.8-1.7-1.7v-21.4
		C168.8,261.7,169.6,260.9,170.5,260.9L170.5,260.9z M121.3,260.9H162c0.9,0,1.7,0.8,1.7,1.7V284c0,0.9-0.8,1.7-1.7,1.7h-40.8
		c-0.9,0-1.7-0.8-1.7-1.7v-21.4C119.6,261.7,120.3,260.9,121.3,260.9L121.3,260.9z M91.8,260.9h20.8c0.9,0,1.7,0.8,1.7,1.7V284
		c0,0.9-0.8,1.7-1.7,1.7H91.8c-0.9,0-1.7-0.8-1.7-1.7v-21.4C90.1,261.7,90.9,260.9,91.8,260.9L91.8,260.9z M92.1,230.9h40.8
		c0.9,0,1.7,0.8,1.7,1.7V254c0,0.9-0.8,1.7-1.7,1.7H92.1c-0.9,0-1.7-0.8-1.7-1.7v-21.4C90.4,231.7,91.1,230.9,92.1,230.9L92.1,230.9
		z M190.6,230.9h20.5c0.9,0,1.7,0.8,1.7,1.7V254c0,0.9-0.8,1.7-1.7,1.7h-20.5c-0.9,0-1.7-0.8-1.7-1.7v-21.4
		C188.9,231.7,189.7,230.9,190.6,230.9L190.6,230.9z M141.5,230.9h40.8c0.9,0,1.7,0.8,1.7,1.7V254c0,0.9-0.8,1.7-1.7,1.7h-40.8
		c-0.9,0-1.7-0.8-1.7-1.7v-21.4C139.8,231.7,140.5,230.9,141.5,230.9L141.5,230.9z M170.5,200.8h40.8c0.9,0,1.7,0.8,1.7,1.7v21.4
		c0,0.9-0.8,1.7-1.7,1.7h-40.8c-0.9,0-1.7-0.8-1.7-1.7v-21.4C168.8,201.6,169.6,200.8,170.5,200.8L170.5,200.8z M121.3,200.8H162
		c0.9,0,1.7,0.8,1.7,1.7v21.4c0,0.9-0.8,1.7-1.7,1.7h-40.8c-0.9,0-1.7-0.8-1.7-1.7v-21.4C119.6,201.6,120.3,200.8,121.3,200.8
		L121.3,200.8z"/>
</g>
<polygon class="st1" points="-45.4,516.6 -59,540.5 -72.6,564.4 -52.4,564.4 -52.4,604.2 -38.3,604.2 -38.3,564.4 -18.1,564.4 
	-31.7,540.5 "/>
<g>
	<g>
		<path class="st0" d="M-168.8,685.2h20.8c0.9,0,1.7,0.8,1.7,1.7v21.4c0,0.9-0.8,1.7-1.7,1.7h-20.8c-0.9,0-1.7-0.8-1.7-1.7v-21.4
			C-170.5,686-169.7,685.2-168.8,685.2L-168.8,685.2z M-168.6,715.3h40.8c0.9,0,1.7,0.8,1.7,1.7v21.4c0,0.9-0.8,1.7-1.7,1.7h-40.8
			c-0.9,0-1.7-0.8-1.7-1.7V717C-170.3,716-169.5,715.3-168.6,715.3L-168.6,715.3z M-70,715.3h28.7c0.9,0,1.7,0.8,1.7,1.7v21.4
			c0,0.9-0.8,1.7-1.7,1.7H-70c-0.9,0-1.7-0.8-1.7-1.7V717C-71.7,716-70.9,715.3-70,715.3L-70,715.3z M-119.2,715.3h40.8
			c0.9,0,1.7,0.8,1.7,1.7v21.4c0,0.9-0.8,1.7-1.7,1.7h-40.8c-0.9,0-1.7-0.8-1.7-1.7V717C-120.9,716-120.1,715.3-119.2,715.3
			L-119.2,715.3z M-90.1,685.2h48.8c0.9,0,1.7,0.8,1.7,1.7v21.4c0,0.9-0.8,1.7-1.7,1.7h-48.8c-0.9,0-1.7-0.8-1.7-1.7v-21.4
			C-91.8,686-91,685.2-90.1,685.2L-90.1,685.2z M-139.4,685.2h40.8c0.9,0,1.7,0.8,1.7,1.7v21.4c0,0.9-0.8,1.7-1.7,1.7h-40.8
			c-0.9,0-1.7-0.8-1.7-1.7v-21.4C-141.1,686-140.3,685.2-139.4,685.2L-139.4,685.2z"/>
	</g>
	<polygon class="st1" points="-105,712.6 -118.6,736.5 -132.3,760.4 -112,760.4 -112,800.2 -98,800.2 -98,760.4 -77.8,760.4 
		-91.4,736.5 	"/>
</g>
<g>
	<g>
		<path class="st0" d="M130.3,740.1h-20.8c-0.9,0-1.7-0.8-1.7-1.7V717c0-0.9,0.8-1.7,1.7-1.7h20.8c0.9,0,1.7,0.8,1.7,1.7v21.4
			C132,739.3,131.3,740.1,130.3,740.1L130.3,740.1z M130.1,710H89.4c-0.9,0-1.7-0.8-1.7-1.7v-21.4c0-0.9,0.8-1.7,1.7-1.7h40.8
			c0.9,0,1.7,0.8,1.7,1.7v21.4C131.8,709.2,131.1,710,130.1,710L130.1,710z M31.5,710H2.8c-0.9,0-1.7-0.8-1.7-1.7v-21.4
			c0-0.9,0.8-1.7,1.7-1.7h28.7c0.9,0,1.7,0.8,1.7,1.7v21.4C33.2,709.2,32.5,710,31.5,710L31.5,710z M80.7,710H39.9
			c-0.9,0-1.7-0.8-1.7-1.7v-21.4c0-0.9,0.8-1.7,1.7-1.7h40.8c0.9,0,1.7,0.8,1.7,1.7v21.4C82.4,709.2,81.6,710,80.7,710L80.7,710z
			 M51.6,740.1H2.8c-0.9,0-1.7-0.8-1.7-1.7V717c0-0.9,0.8-1.7,1.7-1.7h48.8c0.9,0,1.7,0.8,1.7,1.7v21.4
			C53.3,739.3,52.6,740.1,51.6,740.1L51.6,740.1z M100.9,740.1H60.2c-0.9,0-1.7-0.8-1.7-1.7V717c0-0.9,0.8-1.7,1.7-1.7h40.8
			c0.9,0,1.7,0.8,1.7,1.7v21.4C102.6,739.3,101.9,740.1,100.9,740.1L100.9,740.1z"/>
	</g>
	<polygon class="st1" points="66.6,625 52.9,648.9 39.3,672.8 59.6,672.8 59.6,712.6 73.6,712.6 73.6,672.8 93.8,672.8 80.2,648.9 	
		"/>
</g>
<g>
	<path class="st0" d="M506.3,533.4h20.8c0.9,0,1.7,0.8,1.7,1.7v21.4c0,0.9-0.8,1.7-1.7,1.7h-20.8c-0.9,0-1.7-0.8-1.7-1.7v-21.4
		C504.6,534.1,505.4,533.4,506.3,533.4L506.3,533.4z M506.5,623.5h40.8c0.9,0,1.7,0.8,1.7,1.7v21.4c0,0.9-0.8,1.7-1.7,1.7h-40.8
		c-0.9,0-1.7-0.8-1.7-1.7v-21.4C504.8,624.3,505.6,623.5,506.5,623.5L506.5,623.5z M605.1,623.5h20.5c0.9,0,1.7,0.8,1.7,1.7v21.4
		c0,0.9-0.8,1.7-1.7,1.7h-20.5c-0.9,0-1.7-0.8-1.7-1.7v-21.4C603.4,624.3,604.2,623.5,605.1,623.5L605.1,623.5z M556,623.5h40.8
		c0.9,0,1.7,0.8,1.7,1.7v21.4c0,0.9-0.8,1.7-1.7,1.7H556c-0.9,0-1.7-0.8-1.7-1.7v-21.4C554.2,624.3,555,623.5,556,623.5L556,623.5z
		 M585,593.5h40.8c0.9,0,1.7,0.8,1.7,1.7v21.4c0,0.9-0.8,1.7-1.7,1.7H585c-0.9,0-1.7-0.8-1.7-1.7v-21.4
		C583.3,594.2,584.1,593.5,585,593.5L585,593.5z M535.7,593.5h40.8c0.9,0,1.7,0.8,1.7,1.7v21.4c0,0.9-0.8,1.7-1.7,1.7h-40.8
		c-0.9,0-1.7-0.8-1.7-1.7v-21.4C534,594.2,534.8,593.5,535.7,593.5L535.7,593.5z M506.3,593.5h20.8c0.9,0,1.7,0.8,1.7,1.7v21.4
		c0,0.9-0.8,1.7-1.7,1.7h-20.8c-0.9,0-1.7-0.8-1.7-1.7v-21.4C504.6,594.2,505.4,593.5,506.3,593.5L506.3,593.5z M506.5,563.4h40.8
		c0.9,0,1.7,0.8,1.7,1.7v21.4c0,0.9-0.8,1.7-1.7,1.7h-40.8c-0.9,0-1.7-0.8-1.7-1.7v-21.4C504.8,564.2,505.6,563.4,506.5,563.4
		L506.5,563.4z M605.1,563.4h20.5c0.9,0,1.7,0.8,1.7,1.7v21.4c0,0.9-0.8,1.7-1.7,1.7h-20.5c-0.9,0-1.7-0.8-1.7-1.7v-21.4
		C603.4,564.2,604.2,563.4,605.1,563.4L605.1,563.4z M556,563.4h40.8c0.9,0,1.7,0.8,1.7,1.7v21.4c0,0.9-0.8,1.7-1.7,1.7H556
		c-0.9,0-1.7-0.8-1.7-1.7v-21.4C554.2,564.2,555,563.4,556,563.4L556,563.4z M585,533.4h40.8c0.9,0,1.7,0.8,1.7,1.7v21.4
		c0,0.9-0.8,1.7-1.7,1.7H585c-0.9,0-1.7-0.8-1.7-1.7v-21.4C583.3,534.1,584.1,533.4,585,533.4L585,533.4z M535.7,533.4h40.8
		c0.9,0,1.7,0.8,1.7,1.7v21.4c0,0.9-0.8,1.7-1.7,1.7h-40.8c-0.9,0-1.7-0.8-1.7-1.7v-21.4C534,534.1,534.8,533.4,535.7,533.4
		L535.7,533.4z"/>
</g>
<path class="st1" d="M556.6,599.7c-1.7,0-3-1.4-3-3v-7.2l0.4-24.3c0-1.6-1.3-2.9-2.8-2.9h-57.9c-1.6,0-2.8,1.3-2.8,2.8v5.9h1.6
	c1.3,0,6.4-0.4,5.8,2.4c-0.1,0.4-4,6.3-8.4,13.4c-8.4,12.7-8.4,12.7-9.5,12.7c-1.3,0-1.3,0-9.5-12.7c-4.6-7-8.4-12.9-8.5-13.4
	c-0.4-2.9,4.6-2.4,5.8-2.4h1.4v-8.7v-11.5c0-5.6,4.6-10.1,10-10.1h11.4H554h11.4c5.6,0,10,4.5,10,10.1v11.5l-0.5,34.4
	c0,1.7-1.4,3-3,3H556.6z"/>
<g>
	<path class="st0" d="M-149.6,502.9h20.8c0.9,0,1.7,0.8,1.7,1.7V526c0,0.9-0.8,1.7-1.7,1.7h-20.8c-0.9,0-1.7-0.8-1.7-1.7v-21.4
		C-151.3,503.7-150.6,502.9-149.6,502.9L-149.6,502.9z M-149.4,593.1h40.8c0.9,0,1.7,0.8,1.7,1.7v21.4c0,0.9-0.8,1.7-1.7,1.7h-40.8
		c-0.9,0-1.7-0.8-1.7-1.7v-21.4C-151.1,593.8-150.4,593.1-149.4,593.1L-149.4,593.1z M-120.2,563h40.8c0.9,0,1.7,0.8,1.7,1.7v21.4
		c0,0.9-0.8,1.7-1.7,1.7h-40.8c-0.9,0-1.7-0.8-1.7-1.7v-21.4C-121.9,563.8-121.2,563-120.2,563L-120.2,563z M-149.6,563h20.8
		c0.9,0,1.7,0.8,1.7,1.7v21.4c0,0.9-0.8,1.7-1.7,1.7h-20.8c-0.9,0-1.7-0.8-1.7-1.7v-21.4C-151.3,563.8-150.6,563-149.6,563
		L-149.6,563z M-149.4,533h40.8c0.9,0,1.7,0.8,1.7,1.7v21.4c0,0.9-0.8,1.7-1.7,1.7h-40.8c-0.9,0-1.7-0.8-1.7-1.7v-21.4
		C-151.1,533.7-150.4,533-149.4,533L-149.4,533z M-120.2,502.9h40.8c0.9,0,1.7,0.8,1.7,1.7V526c0,0.9-0.8,1.7-1.7,1.7h-40.8
		c-0.9,0-1.7-0.8-1.7-1.7v-21.4C-121.9,503.7-121.2,502.9-120.2,502.9L-120.2,502.9z"/>
	<path class="st0" d="M-100.3,534.3h20.8c0.9,0,1.7,0.8,1.7,1.7v21.4c0,0.9-0.8,1.7-1.7,1.7h-20.8c-0.9,0-1.7-0.8-1.7-1.7V536
		C-102,535.1-101.3,534.3-100.3,534.3L-100.3,534.3z"/>
	<path class="st0" d="M-100.3,594.4h20.8c0.9,0,1.7,0.8,1.7,1.7v21.4c0,0.9-0.8,1.7-1.7,1.7h-20.8c-0.9,0-1.7-0.8-1.7-1.7v-21.4
		C-102,595.2-101.3,594.4-100.3,594.4L-100.3,594.4z"/>
</g>
<polygon class="st1" points="59.8,514.2 73.4,538.1 87.1,562 66.8,562 66.8,601.9 52.8,601.9 52.8,562 32.6,562 46.2,538.1 "/>
<polygon class="st1" points="77.1,364.4 90.7,388.2 104.4,412.1 84.1,412.1 84.1,452 70.1,452 70.1,412.1 49.9,412.1 63.5,388.2 "/>
<g>
	<polygon class="st1" points="3.4,398.9 -9.9,406.6 -18.8,411.4 -18.8,402.9 -45.5,402.9 -45.5,395 -18.8,395 -18.8,386.5 
		-9.9,391.3 	"/>
	<polygon class="st1" points="-93.9,398.9 -80.6,391.3 -71.7,386.5 -71.7,395 -45,395 -45,402.9 -71.7,402.9 -71.7,411.4 
		-80.6,406.6 	"/>
	<g>
		<polygon class="st1" points="-45.5,451.4 -53.1,438.1 -58,429.2 -49.4,429.2 -49.4,402.5 -41.6,402.5 -41.6,429.2 -33.1,429.2 
			-37.9,438.1 		"/>
		<polygon class="st1" points="-45.5,346.4 -37.9,359.8 -33.1,368.6 -41.6,368.6 -41.6,395.4 -49.4,395.4 -49.4,368.6 -58,368.6 
			-53.1,359.8 		"/>
	</g>
</g>
<g>
	<path class="st0" d="M164.1,500.6c0.9,0,1.7,0.8,1.7,1.7v21.4c0,0.9-0.8,1.7-1.7,1.7h-20.8c-0.9,0-1.7-0.8-1.7-1.7v-21.4
		c0-0.9,0.8-1.7,1.7-1.7H164.1L164.1,500.6z M163.9,590.7c0.9,0,1.7,0.8,1.7,1.7v21.4c0,0.9-0.8,1.7-1.7,1.7h-40.8
		c-0.9,0-1.7-0.8-1.7-1.7v-21.4c0-0.9,0.8-1.7,1.7-1.7H163.9L163.9,590.7z M134.7,560.7c0.9,0,1.7,0.8,1.7,1.7v21.4
		c0,0.9-0.8,1.7-1.7,1.7H93.9c-0.9,0-1.7-0.8-1.7-1.7v-21.4c0-0.9,0.8-1.7,1.7-1.7H134.7L134.7,560.7z M164.1,560.7
		c0.9,0,1.7,0.8,1.7,1.7v21.4c0,0.9-0.8,1.7-1.7,1.7h-20.8c-0.9,0-1.7-0.8-1.7-1.7v-21.4c0-0.9,0.8-1.7,1.7-1.7H164.1L164.1,560.7z
		 M163.9,530.6c0.9,0,1.7,0.8,1.7,1.7v21.4c0,0.9-0.8,1.7-1.7,1.7h-40.8c-0.9,0-1.7-0.8-1.7-1.7v-21.4c0-0.9,0.8-1.7,1.7-1.7H163.9
		L163.9,530.6z M134.7,500.6c0.9,0,1.7,0.8,1.7,1.7v21.4c0,0.9-0.8,1.7-1.7,1.7H93.9c-0.9,0-1.7-0.8-1.7-1.7v-21.4
		c0-0.9,0.8-1.7,1.7-1.7H134.7L134.7,500.6z"/>
	<path class="st0" d="M114.8,531.9c0.9,0,1.7,0.8,1.7,1.7V555c0,0.9-0.8,1.7-1.7,1.7H94c-0.9,0-1.7-0.8-1.7-1.7v-21.4
		c0-0.9,0.8-1.7,1.7-1.7H114.8L114.8,531.9z"/>
	<path class="st0" d="M114.8,592.1c0.9,0,1.7,0.8,1.7,1.7v21.4c0,0.9-0.8,1.7-1.7,1.7H94c-0.9,0-1.7-0.8-1.7-1.7v-21.4
		c0-0.9,0.8-1.7,1.7-1.7H114.8L114.8,592.1z"/>
</g>
</svg>
