<svg xmlns="http://www.w3.org/2000/svg" fill="#ff4c5b" viewBox="0 0 122.88 107.27"><path d="M22.48 0h77.92c6.15 0 11.75 2.53 15.82 6.6 4.11 4.11 6.67 9.8 6.67 16.06v61.96c0 6.26-2.55 11.94-6.67 16.06-4.07 4.07-9.67 6.6-15.82 6.6H22.48c-6.15 0-11.75-2.53-15.82-6.6C2.55 96.56 0 90.88 0 84.62V22.65C0 16.39 2.55 10.7 6.66 6.59 10.73 2.53 16.33 0 22.48 0zM69.6 50.97l10.25 3.09c-.69 2.87-1.77 5.28-3.26 7.2-1.48 1.93-3.31 3.38-5.51 4.36-2.19.98-4.99 1.47-8.38 1.47-4.12 0-7.48-.6-10.09-1.79-2.61-1.2-4.85-3.3-6.75-6.31-1.89-3-2.84-6.86-2.84-11.55 0-6.25 1.66-11.06 4.99-14.43 3.34-3.36 8.05-5.04 14.15-5.04 4.77 0 8.52.96 11.25 2.89 2.72 1.93 4.76 4.89 6.08 8.89l-10.31 2.28c-.36-1.14-.74-1.98-1.14-2.51-.66-.89-1.46-1.58-2.4-2.05-.95-.48-2.01-.72-3.18-.72-2.66 0-4.69 1.07-6.1 3.19-1.07 1.58-1.6 4.06-1.6 7.43 0 4.19.63 7.05 1.91 8.61 1.28 1.55 3.07 2.33 5.37 2.33 2.24 0 3.93-.63 5.07-1.88 1.15-1.25 1.97-3.07 2.49-5.46zM4.54 76.22c.79 3.18 2.34 6.02 4.44 8.29 3.09 3.33 7.35 5.4 12.05 5.4h80.83c.19 0 .38 0 .57-.01l1.15-.08c4.01-.44 7.62-2.39 10.33-5.31 2.1-2.26 3.65-5.1 4.44-8.28V22.65c0-4.85-2-9.28-5.21-12.49a17.95 17.95 0 00-12.73-5.28H22.48c-4.97 0-9.48 2.02-12.73 5.28-3.22 3.22-5.21 7.64-5.21 12.49v53.57z"/></svg>