<?xml version="1.0" encoding="UTF-8"?>
<!DOCTYPE svg PUBLIC "-//W3C//DTD SVG 1.1//EN" "http://www.w3.org/Graphics/SVG/1.1/DTD/svg11.dtd">
<!-- Creator: CorelDRAW -->
<svg xmlns="http://www.w3.org/2000/svg" xml:space="preserve" width="15.1925mm" height="11.8774mm" version="1.1" style="shape-rendering:geometricPrecision; text-rendering:geometricPrecision; image-rendering:optimizeQuality; fill-rule:evenodd; clip-rule:evenodd"
viewBox="0 0 4963 3880.1"
 xmlns:xlink="http://www.w3.org/1999/xlink"
 xmlns:xodm="http://www.corel.com/coreldraw/odm/2003">
 <defs>
  <style type="text/css">
   <![CDATA[
    .str0 {stroke:#A8CF45;stroke-width:245;stroke-linejoin:round;stroke-miterlimit:22.9256}
    .fil0 {fill:none}
    .fil1 {fill:#42B7FF;fill-rule:nonzero}
   ]]>
  </style>
 </defs>
 <g id="Слой_x0020_1">
  <metadata id="CorelCorpID_0Corel-Layer"/>
  <g id="_1974069354512">
   <polyline class="fil0 str0" points="1942.7,2247.4 2262.1,2247.4 2784.9,679.2 3031.7,3757.6 3612.6,1666.6 3772.3,2537.8 3942.4,2045 4963,2045 "/>
   <path class="fil1" d="M1843.5 1767.3c257.4,47.1 464.9,139.6 622.6,277.3 157.7,137.8 236.5,348 236.5,630.8 0,391.5 -137.7,669.8 -413.2,834.7 -275.5,164.9 -661.6,247.4 -1158.3,247.4l-1131.1 0 0 -3757.6 984.3 0c1036.8,0 1555.2,319 1555.2,957.1 0,221.1 -67.1,401.5 -201.2,541 -134.1,139.6 -299.1,229.3 -494.8,269.2zm-1125.7 -1239.8l0 1016.9 440.5 0c199.4,0 357.1,-44.4 473.1,-133.2 116,-88.8 174,-220.2 174,-394.2 0,-181.3 -60.7,-308.2 -182.2,-380.7 -121.5,-72.5 -310.9,-108.8 -568.3,-108.8l-337.2 0zm418.7 2691.7c264.6,0 466.8,-39.9 606.3,-119.6 139.6,-79.7 209.4,-230.2 209.4,-451.3 0,-213.9 -66.2,-368 -198.5,-462.2 -132.3,-94.3 -312.7,-141.4 -541.1,-141.4l-494.8 0 0 1174.6 418.7 0z"/>
  </g>
 </g>
</svg>
