<?xml version="1.0" encoding="UTF-8"?>
<svg id="_Слой_2" data-name="Слой 2" xmlns="http://www.w3.org/2000/svg" viewBox="0 0 48.8 41.81">
  <defs>
    <style>
      .cls-1 {
        fill: #272c2a;
        stroke-width: .15px;
      }

      .cls-1, .cls-2, .cls-3 {
        stroke: #272c2a;
      }

      .cls-1, .cls-3, .cls-4 {
        stroke-miterlimit: 10;
      }

      .cls-2 {
        stroke-width: 2.62px;
      }

      .cls-2, .cls-5 {
        fill: none;
        stroke-linecap: round;
        stroke-linejoin: round;
      }

      .cls-5 {
        stroke-width: 2.02px;
      }

      .cls-5, .cls-4 {
        stroke: #fff;
      }

      .cls-3 {
        fill: #eaf1f7;
        stroke-width: 1.46px;
      }

      .cls-4 {
        fill: #9bc765;
        stroke-width: .67px;
      }
    </style>
  </defs>
  <g id="byteReceived">
    <path class="cls-3" d="m.74,6.43h39.06v29.48c0,.82-.67,1.49-1.49,1.49H2.22c-.82,0-1.49-.67-1.49-1.49V6.43h0Z"/>
    <g>
      <g>
        <line class="cls-2" x1="7" y1="11.49" x2="7" y2="19.68"/>
        <path class="cls-1" d="m17.6,11.6c.63.94.94,2.26.94,3.97s-.31,3.05-.94,4c-.63.94-1.55,1.42-2.77,1.42s-2.14-.47-2.77-1.42c-.63-.94-.94-2.28-.94-4s.31-3.04.94-3.97c.63-.94,1.55-1.41,2.77-1.41s2.14.47,2.77,1.41Zm-3.86,1.15c-.23.57-.35,1.51-.35,2.83s.12,2.31.35,2.88c.23.56.6.85,1.09.85s.87-.28,1.09-.85c.22-.56.33-1.52.33-2.88s-.12-2.28-.35-2.84c-.23-.56-.59-.84-1.08-.84s-.86.28-1.09.85Z"/>
        <line class="cls-2" x1="23.06" y1="11.5" x2="23.06" y2="19.69"/>
        <path class="cls-1" d="m33.67,11.72c.63.94.94,2.26.94,3.97s-.31,3.05-.94,4c-.63.94-1.55,1.42-2.77,1.42s-2.14-.47-2.77-1.42c-.63-.94-.94-2.28-.94-4s.31-3.04.94-3.97c.63-.94,1.55-1.41,2.77-1.41s2.14.47,2.77,1.41Zm-3.86,1.15c-.23.57-.35,1.51-.35,2.83s.12,2.31.35,2.88c.23.56.6.85,1.09.85s.87-.28,1.09-.85c.22-.56.33-1.52.33-2.88s-.12-2.28-.35-2.84c-.23-.56-.59-.84-1.08-.84s-.86.28-1.09.85Z"/>
      </g>
      <g>
        <line class="cls-2" x1="33.36" y1="25.01" x2="33.36" y2="33.2"/>
        <path class="cls-1" d="m25.52,23.71c1.22,0,2.14.47,2.77,1.41.63.94.94,2.26.94,3.97s-.31,3.05-.94,4c-.63.94-1.55,1.42-2.77,1.42s-2.14-.47-2.77-1.42c-.63-.94-.94-2.28-.94-4s.31-3.04.94-3.97c.63-.94,1.55-1.41,2.77-1.41Zm0,1.71c-.48,0-.84.28-1.08.84-.23.56-.35,1.51-.35,2.84,0,1.35.11,2.31.33,2.88.22.56.59.85,1.09.85s.86-.28,1.09-.85c.23-.56.35-1.52.35-2.88s-.12-2.26-.35-2.83c-.23-.57-.6-.85-1.09-.85Z"/>
        <line class="cls-2" x1="17.29" y1="25.02" x2="17.29" y2="33.2"/>
        <path class="cls-1" d="m9.45,23.71c1.22,0,2.14.47,2.77,1.41.63.94.94,2.26.94,3.97s-.31,3.05-.94,4c-.63.94-1.55,1.42-2.77,1.42s-2.14-.47-2.77-1.42c-.63-.94-.94-2.28-.94-4s.31-3.04.94-3.97c.63-.94,1.55-1.41,2.77-1.41Zm0,1.71c-.48,0-.84.28-1.08.84-.23.56-.35,1.51-.35,2.84s.11,2.31.33,2.88c.22.56.59.85,1.09.85s.86-.28,1.09-.85c.23-.56.35-1.52.35-2.88,0-1.31-.12-2.26-.35-2.83-.23-.57-.6-.85-1.09-.85Z"/>
      </g>
    </g>
    <circle class="cls-4" cx="39.8" cy="32.81" r="8.66"/>
    <polyline class="cls-5" points="35.69 32.99 38.59 35.89 44.23 30.25"/>
    <path class="cls-3" d="m2.22.73h36.09c.82,0,1.49.67,1.49,1.49v4.12H.73V2.22c0-.82.67-1.49,1.49-1.49Z"/>
  </g>
</svg>