<svg id="Layer_1" data-name="Layer 1"
     xmlns="http://www.w3.org/2000/svg"
     viewBox="0 0 140 140"
     width="140" height="140">
  <title>compass</title>
  <!-- Внешний круг -->
  <circle cx="70" cy="70" r="61.44" fill="#f2f2f2" stroke="#666" stroke-width="4"/>

  <!-- Северная стрелка (красная) -->
  <path d="M85,65l-7.23,4.11a7.56,7.56,0,0,1-.25,1.57,8,8,0,0,1-9.75,5.63,8.19,8.19,0,0,1-1.58-.61l-7.66,4.36L89.43,103,85,65Z" 
        fill="#e53935" stroke="#222" stroke-width="1"/>

  <!-- Южная стрелка (синяя) -->
  <path d="M54.55,73.5l7.37-4.19A7.86,7.86,0,0,1,62.16,67a8,8,0,0,1,9.75-5.63,8.28,8.28,0,0,1,2.55,1.2L81,58l-30.86-23,4.41,38.5Z" 
        fill="#1e88e5" stroke="#222" stroke-width="1"/>

  <!-- Внутренний круг -->
  <circle cx="70" cy="70" r="48" fill="none" stroke="#444" stroke-width="2"/>
</svg>
