<?xml version="1.0" encoding="UTF-8"?>
<!DOCTYPE svg PUBLIC "-//W3C//DTD SVG 1.1//EN" "http://www.w3.org/Graphics/SVG/1.1/DTD/svg11.dtd">
<svg xmlns="http://www.w3.org/2000/svg" version="1.1" width="217px" height="221px" style="shape-rendering:geometricPrecision; text-rendering:geometricPrecision; image-rendering:optimizeQuality; fill-rule:evenodd; clip-rule:evenodd" xmlns:xlink="http://www.w3.org/1999/xlink">
<g><path style="opacity:0.798" fill="#fefffe" d="M 172.5,-0.5 C 175.5,-0.5 178.5,-0.5 181.5,-0.5C 194.218,1.14174 204.218,7.3084 211.5,18C 211.167,18.3333 210.833,18.6667 210.5,19C 213.03,23.7949 215.03,28.6282 216.5,33.5C 216.5,33.8333 216.5,34.1667 216.5,34.5C 215.167,34.8333 215.167,35.1667 216.5,35.5C 216.5,38.8333 216.5,42.1667 216.5,45.5C 215.167,45.8333 215.167,46.1667 216.5,46.5C 216.5,46.8333 216.5,47.1667 216.5,47.5C 209.573,66.4578 199.407,83.4578 186,98.5C 183.286,101.551 180.286,104.218 177,106.5C 159.63,91.1117 146.964,72.4451 139,50.5C 135.453,29.3294 142.286,13.3294 159.5,2.5C 163.939,1.40041 168.272,0.400415 172.5,-0.5 Z M 171.5,7.5 C 195.033,6.27014 207.367,17.4368 208.5,41C 207.988,47.8623 206.154,54.3623 203,60.5C 195.313,73.2069 186.646,85.2069 177,96.5C 164.85,83.5505 155.183,68.8838 148,52.5C 145.074,40.957 146.407,29.957 152,19.5C 157.187,13.104 163.687,9.10402 171.5,7.5 Z"/></g>
<g><path style="opacity:0.925" fill="#2bace9" d="M 175.5,21.5 C 191.565,24.3643 196.565,33.3643 190.5,48.5C 179.854,58.527 170.354,57.527 162,45.5C 159.111,33.2454 163.611,25.2454 175.5,21.5 Z"/></g>
<g><path style="opacity:0.957" fill="#4caf50" d="M 71.5,220.5 C 70.5,220.5 69.5,220.5 68.5,220.5C 45.7321,199.358 22.7321,178.358 -0.5,157.5C -0.5,155.833 -0.5,154.167 -0.5,152.5C 0.626561,151.878 1.62656,151.045 2.5,150C 12.828,149.5 23.1613,149.334 33.5,149.5C 33.3334,119.498 33.5,89.4981 34,59.5C 34.8333,58.6667 35.6667,57.8333 36.5,57C 58.1667,56.3333 79.8333,56.3333 101.5,57C 102.428,57.3879 103.095,58.0546 103.5,59C 104.488,89.1351 104.822,119.302 104.5,149.5C 114.839,149.334 125.172,149.5 135.5,150C 138.087,151.525 138.92,153.692 138,156.5C 115.831,177.698 93.6643,199.032 71.5,220.5 Z"/></g>
</svg>
