<?xml version="1.0" encoding="UTF-8"?>
<!DOCTYPE svg PUBLIC "-//W3C//DTD SVG 1.1//EN" "http://www.w3.org/Graphics/SVG/1.1/DTD/svg11.dtd">
<svg xmlns="http://www.w3.org/2000/svg" version="1.1" width="220px" height="219px" style="shape-rendering:geometricPrecision; text-rendering:geometricPrecision; image-rendering:optimizeQuality; fill-rule:evenodd; clip-rule:evenodd" xmlns:xlink="http://www.w3.org/1999/xlink">
<g><path style="opacity:0.785" fill="#fefffe" d="M 170.5,-0.5 C 176.833,-0.5 183.167,-0.5 189.5,-0.5C 193.249,1.53593 197.249,3.36926 201.5,5C 211.553,11.8625 217.553,21.6958 219.5,34.5C 219.5,38.5 219.5,42.5 219.5,46.5C 215.87,59.5258 209.87,71.5258 201.5,82.5C 195.514,90.4828 189.181,98.1494 182.5,105.5C 180.833,106.833 179.167,106.833 177.5,105.5C 164.454,91.7457 153.621,76.4124 145,59.5C 136.573,37.5372 141.406,19.2039 159.5,4.5C 163.551,3.38536 167.217,1.7187 170.5,-0.5 Z M 172.5,8.5 C 199.799,5.96231 212.632,18.629 211,46.5C 207.193,58.4463 201.527,69.4463 194,79.5C 189.572,85.3508 184.906,91.0174 180,96.5C 166.699,82.5384 156.699,66.5384 150,48.5C 147,32.8146 151.833,20.3146 164.5,11C 167.251,10.0572 169.917,9.22389 172.5,8.5 Z"/></g>
<g><path style="opacity:0.933" fill="#2babe9" d="M 175.5,22.5 C 187.984,21.1609 194.984,26.6609 196.5,39C 193.498,53.2209 185.165,57.8875 171.5,53C 162.391,45.5708 161.224,37.0708 168,27.5C 170.175,25.1749 172.675,23.5082 175.5,22.5 Z"/></g>
<g><path style="opacity:0.95" fill="#4caf50" d="M 67.5,218.5 C 65.8333,218.5 64.1667,218.5 62.5,218.5C 41.7239,195.269 20.7239,172.269 -0.5,149.5C -0.5,148.833 -0.5,148.167 -0.5,147.5C 20.3508,124.817 41.3508,102.317 62.5,80C 66.1661,78.729 68.6661,79.8956 70,83.5C 70.8181,93.4107 70.6515,103.244 69.5,113C 99.1667,113.333 128.833,113.667 158.5,114C 160.002,114.583 161.335,115.416 162.5,116.5C 163.655,137.79 163.822,159.123 163,180.5C 162.256,183.293 160.423,184.793 157.5,185C 128.595,185.828 99.7614,185.662 71,184.5C 70.6667,194.5 70.3333,204.5 70,214.5C 69.3378,215.984 68.5045,217.317 67.5,218.5 Z"/></g>
</svg>
