<?xml version="1.0" encoding="UTF-8"?>
<!DOCTYPE svg PUBLIC "-//W3C//DTD SVG 1.1//EN" "http://www.w3.org/Graphics/SVG/1.1/DTD/svg11.dtd">
<svg xmlns="http://www.w3.org/2000/svg" version="1.1" width="220px" height="220px" style="shape-rendering:geometricPrecision; text-rendering:geometricPrecision; image-rendering:optimizeQuality; fill-rule:evenodd; clip-rule:evenodd" xmlns:xlink="http://www.w3.org/1999/xlink">
<g><path style="opacity:0.793" fill="#fefffe" d="M 172.5,-0.5 C 172.833,-0.5 173.167,-0.5 173.5,-0.5C 173.833,0.833333 174.167,0.833333 174.5,-0.5C 178.5,-0.5 182.5,-0.5 186.5,-0.5C 205.434,3.45933 216.434,15.4593 219.5,35.5C 219.5,39.1667 219.5,42.8333 219.5,46.5C 217.451,54.4444 214.118,61.9444 209.5,69C 209.833,69.3333 210.167,69.6667 210.5,70C 203.352,81.1192 195.352,91.6192 186.5,101.5C 184.833,102.5 183.5,103.833 182.5,105.5C 181.277,106.614 179.944,106.781 178.5,106C 164.76,92.3541 153.594,76.8541 145,59.5C 136.175,36.9875 141.342,18.4875 160.5,4C 164.294,1.64498 168.294,0.144979 172.5,-0.5 Z M 174.5,7.5 C 200.891,7.0603 213.058,20.0603 211,46.5C 207.181,58.4718 201.514,69.4718 194,79.5C 189.572,85.3508 184.906,91.0174 180,96.5C 167.85,83.5505 158.183,68.8838 151,52.5C 148.074,40.957 149.407,29.957 155,19.5C 160.187,13.104 166.687,9.10402 174.5,7.5 Z"/></g>
<g><path style="opacity:0.935" fill="#2bace9" d="M 177.5,21.5 C 193.933,24.042 199.266,33.042 193.5,48.5C 183.997,58.035 174.83,57.7017 166,47.5C 161.23,34.9655 165.063,26.2988 177.5,21.5 Z"/></g>
<g><path style="opacity:0.952" fill="#4caf50" d="M 99.5,219.5 C 98.5,219.5 97.5,219.5 96.5,219.5C 95.4955,218.317 94.6622,216.984 94,215.5C 93.5002,205.172 93.3335,194.839 93.5,184.5C 64.1898,185.635 34.8565,185.801 5.5,185C 3.25279,183.723 1.25279,182.223 -0.5,180.5C -0.5,159.833 -0.5,139.167 -0.5,118.5C 0.833333,118.167 0.833333,117.833 -0.5,117.5C -0.5,117.167 -0.5,116.833 -0.5,116.5C 1.14011,115.68 2.80678,114.847 4.5,114C 34.1648,113.5 63.8315,113.333 93.5,113.5C 93.3335,102.828 93.5002,92.1615 94,81.5C 96.2989,79.4645 98.7989,79.1312 101.5,80.5C 119.206,100.036 137.039,119.369 155,138.5C 158.233,142.063 161.067,145.896 163.5,150C 160.384,153.725 157.384,157.558 154.5,161.5C 136.173,180.827 117.84,200.161 99.5,219.5 Z"/></g>
</svg>
