<svg xmlns="http://www.w3.org/2000/svg" viewBox="0 0 122.88 107.27">
  <path fill="#ff6f00" d="M22.48 0h77.92c6.15 0 11.75 2.53 15.82 6.6 4.11 4.11 6.67 9.8 6.67 16.06v61.96c0 6.26-2.55 11.94-6.67 16.06-4.07 4.07-9.67 6.6-15.82 6.6H22.48c-6.15 0-11.75-2.53-15.82-6.6C2.55 96.56 0 90.88 0 84.62V22.65C0 16.39 2.55 10.7 6.66 6.59 10.73 2.53 16.33 0 22.48 0zM44.4 28.62h31.28v8.09H56.13v6.02h18.13v7.72H56.13v7.45h20.13v8.56H44.4V28.62zM4.54 76.22c.79 3.18 2.34 6.02 4.44 8.29 3.09 3.33 7.35 5.4 12.05 5.4h80.83c.19 0 .38 0 .57-.01l1.15-.08c4.01-.44 7.62-2.39 10.33-5.31 2.1-2.26 3.65-5.1 4.44-8.28V22.65c0-4.85-2-9.28-5.21-12.49a17.95 17.95 0 00-12.73-5.28H22.48c-4.97 0-9.48 2.02-12.73 5.28-3.22 3.22-5.21 7.64-5.21 12.49v53.57z"/>
</svg>
