<svg xmlns="http://www.w3.org/2000/svg" shape-rendering="geometricPrecision" text-rendering="geometricPrecision" image-rendering="optimizeQuality" fill-rule="evenodd" clip-rule="evenodd" viewBox="0 0 512 491.943"><path fill="#157802" d="M43.476 454.99c7.929-7.028 15.943-14.003 24.185-20.723 52.899-37.765 114.611-55.188 170.051-5.937-60.566 102.312-150.47 6.501-194.236 26.66z"/><path fill="#4BA600" d="M45.342 453.34c2.5-2.211 5.012-4.414 7.535-6.604l184.276-18.891.559.485c-59.29 100.155-146.685 10.47-191.4 25.555l-.97-.545z"/><path fill="#157802" d="M103.65 367.773c7.929-7.028 15.943-14.004 24.184-20.724 52.9-37.764 114.612-55.187 170.052-5.936-60.566 102.312-150.47 6.5-194.236 26.66z"/><path fill="#4BA600" d="M103.65 367.774c2.208-1.957 4.422-3.91 6.645-5.854l187.576-20.819.014.012c-60.565 102.312-150.469 6.5-194.235 26.661z"/><path fill="#157802" d="M176.412 272.809c7.928-7.028 15.943-14.004 24.184-20.723 52.9-37.765 114.612-55.189 170.051-5.937-60.565 102.312-150.469 6.5-194.235 26.66z"/><path fill="#4BA600" d="M176.412 272.809a1291.06 1291.06 0 016.178-5.445l187.468-21.726.589.511c-60.565 102.312-150.469 6.5-194.235 26.66z"/><path fill="#157802" d="M267.774 196.445c7.928-7.028 15.942-14.004 24.184-20.723 52.899-37.765 114.611-55.188 170.051-5.937-60.566 102.312-150.469 6.5-194.235 26.66z"/><path fill="#4BA600" d="M270.65 193.901a995.541 995.541 0 018.014-6.999l182.631-17.736c.237.208.476.407.714.619-58.412 98.674-144.105 13.08-189.387 24.951l-1.972-.835z"/><path fill="#157802" d="M41.171 463.579c5.697-8.934 11.328-17.944 16.67-27.138 28.989-58.173 36.507-121.856-20.839-168.874-91.533 75.879 17.207 149.623 4.169 196.012z"/><path fill="#4BA600" d="M43.855 459.356c4.778-7.552 9.484-15.167 13.985-22.915 28.991-58.173 36.508-121.856-20.837-168.874l-.116.099 6.968 191.69z"/><path fill="#157802" d="M105.96 344.454c6.305-8.515 12.551-17.111 18.52-25.911 32.974-56.011 44.911-119.015-9.018-169.915-96.598 69.315 6.737 150.459-9.502 195.826z"/><path fill="#4BA600" d="M112.817 335.108c3.962-5.46 7.869-10.972 11.664-16.565 32.973-56.011 44.91-119.015-9.019-169.915l-.273.203-2.372 186.277z"/><path fill="#157802" d="M191.529 260.594c6.305-8.515 12.55-17.111 18.52-25.911 32.974-56.011 44.911-119.015-9.018-169.916-96.599 69.316 6.737 150.459-9.502 195.827z"/><path fill="#4BA600" d="M196.511 253.823c4.605-6.302 9.146-12.666 13.538-19.14 32.766-55.659 44.748-118.219-8.021-168.95l-5.517 188.09z"/><path fill="#157802" d="M268.393 196.533c7.028-7.928 14.004-15.943 20.724-24.184 37.764-52.9 55.188-114.612 5.936-170.051-102.312 60.565-6.5 150.469-26.66 194.235z"/><path fill="#4BA600" d="M274.342 189.779c5.006-5.728 9.956-11.521 14.774-17.43 37.765-52.9 55.189-114.612 5.937-170.051-.181.107-.347.217-.528.325l-20.183 187.156z"/><path fill="#157802" fill-rule="nonzero" d="M33.05 486.359c-3.556 5.607-10.985 7.269-16.592 3.713-5.606-3.557-7.269-10.986-3.712-16.593 49.408-77.724 103.178-150.182 164.849-217.133 61.706-66.99 131.272-128.386 212.221-183.919 5.476-3.737 12.947-2.327 16.685 3.149 3.737 5.477 2.327 12.948-3.149 16.685-79.35 54.436-147.562 114.641-208.085 180.347C134.706 338.354 81.78 409.702 33.05 486.359z"/><path fill="#157802" d="M347.125 117.885c14.524-72.03 85.716-147.301 164.029-106.254 11.083 83.743-89.111 119.692-164.029 106.254z"/><path fill="#4BA600" d="M511.16 11.687c9.971 75.67-70.93 112.29-141.89 108.699L511.16 11.687z"/></svg>