<?xml version="1.0" encoding="UTF-8" standalone="no"?>
<svg
   viewBox="0 0 39.69 40.08"
   version="1.1"
   id="svg4"
   sodipodi:docname="flower.svg"
   inkscape:version="1.3 (0e150ed6c4, 2023-07-21)"
   xmlns:inkscape="http://www.inkscape.org/namespaces/inkscape"
   xmlns:sodipodi="http://sodipodi.sourceforge.net/DTD/sodipodi-0.dtd"
   xmlns="http://www.w3.org/2000/svg"
   xmlns:svg="http://www.w3.org/2000/svg">
  <sodipodi:namedview
     id="namedview4"
     pagecolor="#505050"
     bordercolor="#eeeeee"
     borderopacity="1"
     inkscape:showpageshadow="0"
     inkscape:pageopacity="0"
     inkscape:pagecheckerboard="0"
     inkscape:deskcolor="#505050"
     inkscape:zoom="7.4288919"
     inkscape:cx="-17.095416"
     inkscape:cy="33.45048"
     inkscape:window-width="2560"
     inkscape:window-height="1387"
     inkscape:window-x="-8"
     inkscape:window-y="-8"
     inkscape:window-maximized="1"
     inkscape:current-layer="Слой_1-2" />
  <defs
     id="defs1">
    <style
       id="style1">.cls-1{fill:#9bcb64;}.cls-2{fill:#fff;}</style>
  </defs>
  <g
     id="Слой_1-2"
     data-name="Слой 1">
    <path
       d="m 25.37,0.8 a 20,20 0 0 1 14.32,18.38 v 1.75 a 20.09,20.09 0 0 1 -6,13.48 19.74,19.74 0 0 1 -13,5.67 H 19.05 A 19.44,19.44 0 0 1 10.83,37.91 20.15,20.15 0 0 1 0,20.53 V 19.64 A 20,20 0 0 1 19.33,0 h 1 a 20.1,20.1 0 0 1 5.07,0.8 z"
       id="path1"
       style="fill:#9bcb64;fill-opacity:0.72156864" />
    <g
       id="g2"
       transform="matrix(0.34136982,0,0,0.34136982,-10.878284,-19.280593)">
      <!-- Стебель -->
      <path
         d="m 90,110 c -2,20 -2,40 0,60"
         stroke="#2e7d32"
         stroke-width="5"
         fill="none"
         id="path1-3"
         style="stroke:#bfbfbf;stroke-opacity:1;fill:#000000;fill-opacity:0" />
      <!-- Большой лист вправо -->
      <ellipse
         cx="110"
         cy="120"
         rx="25"
         ry="12"
         fill="#43a047"
         transform="rotate(-20,110,120)"
         id="ellipse1"
         style="fill:#ffffff;fill-opacity:1" />
      <!-- Большой лист влево -->
      <ellipse
         cx="70"
         cy="120"
         rx="25"
         ry="12"
         fill="#43a047"
         transform="rotate(20,70,120)"
         id="ellipse2"
         style="fill:#ffffff;fill-opacity:1" />
    </g>
  </g>
</svg>
