<?xml version="1.0" encoding="UTF-8" standalone="no"?>
<svg
   id="_Слой_2"
   data-name="Слой 2"
   viewBox="0 0 48.8 41.81"
   version="1.1"
   sodipodi:docname="got_wall.svg"
   inkscape:version="1.3 (0e150ed6c4, 2023-07-21)"
   xmlns:inkscape="http://www.inkscape.org/namespaces/inkscape"
   xmlns:sodipodi="http://sodipodi.sourceforge.net/DTD/sodipodi-0.dtd"
   xmlns="http://www.w3.org/2000/svg"
   xmlns:svg="http://www.w3.org/2000/svg">
  <sodipodi:namedview
     id="namedview6"
     pagecolor="#505050"
     bordercolor="#eeeeee"
     borderopacity="1"
     inkscape:showpageshadow="0"
     inkscape:pageopacity="0"
     inkscape:pagecheckerboard="0"
     inkscape:deskcolor="#505050"
     inkscape:zoom="16"
     inkscape:cx="17.9375"
     inkscape:cy="29.09375"
     inkscape:window-width="2560"
     inkscape:window-height="1387"
     inkscape:window-x="-8"
     inkscape:window-y="-8"
     inkscape:window-maximized="1"
     inkscape:current-layer="byteReceived" />
  <defs
     id="defs1">
    <style
       id="style1">&#10;      .cls-1 {&#10;        fill: #272c2a;&#10;        stroke-width: .15px;&#10;      }&#10;&#10;      .cls-1, .cls-2, .cls-3 {&#10;        stroke: #272c2a;&#10;      }&#10;&#10;      .cls-1, .cls-3, .cls-4 {&#10;        stroke-miterlimit: 10;&#10;      }&#10;&#10;      .cls-2 {&#10;        stroke-width: 2.62px;&#10;      }&#10;&#10;      .cls-2, .cls-5 {&#10;        fill: none;&#10;        stroke-linecap: round;&#10;        stroke-linejoin: round;&#10;      }&#10;&#10;      .cls-5 {&#10;        stroke-width: 2.02px;&#10;      }&#10;&#10;      .cls-5, .cls-4 {&#10;        stroke: #fff;&#10;      }&#10;&#10;      .cls-3 {&#10;        fill: #eaf1f7;&#10;        stroke-width: 1.46px;&#10;      }&#10;&#10;      .cls-4 {&#10;        fill: #9bc765;&#10;        stroke-width: .67px;&#10;      }&#10;    </style>
  </defs>
  <g
     id="byteReceived">
    <path
       class="cls-3"
       d="m.74,6.43h39.06v29.48c0,.82-.67,1.49-1.49,1.49H2.22c-.82,0-1.49-.67-1.49-1.49V6.43h0Z"
       id="path1" />
    <path
       class="cls-3"
       d="m2.22.73h36.09c.82,0,1.49.67,1.49,1.49v4.12H.73V2.22c0-.82.67-1.49,1.49-1.49Z"
       id="path6" />
    <rect
       style="fill:#272c2a;fill-opacity:1;stroke:#272c2a;stroke-width:0.1;stroke-dasharray:none;stroke-opacity:1"
       id="rect1"
       width="26.161118"
       height="24.543924"
       x="7.00315"
       y="9.4627657"
       ry="0.42396069" />
    <g
       id="Слой_2"
       data-name="Слой 2"
       transform="matrix(0.21347737,0,0,0.21347737,6.99896,9.4588918)">
      <g
         id="Layer_1"
         data-name="Layer 1">
        <path
           class="cls-1"
           d="m 1.71,0 h 20.82 a 1.72,1.72 0 0 1 1.71,1.71 v 21.37 a 1.72,1.72 0 0 1 -1.71,1.71 H 1.71 A 1.72,1.72 0 0 1 0,23.08 V 1.71 A 1.72,1.72 0 0 1 1.71,0 Z m 0.21,90.16 h 40.76 a 1.72,1.72 0 0 1 1.71,1.71 v 21.37 A 1.72,1.72 0 0 1 42.68,115 H 1.92 A 1.72,1.72 0 0 1 0.21,113.29 V 91.86 a 1.71,1.71 0 0 1 1.71,-1.7 z m 98.59,0 H 121 a 1.72,1.72 0 0 1 1.71,1.71 v 21.37 A 1.72,1.72 0 0 1 121,115 H 100.51 A 1.72,1.72 0 0 1 98.8,113.29 V 91.86 a 1.71,1.71 0 0 1 1.71,-1.7 z m -49.17,0 H 92.1 a 1.72,1.72 0 0 1 1.71,1.71 v 21.37 A 1.72,1.72 0 0 1 92.1,115 H 51.34 a 1.72,1.72 0 0 1 -1.71,-1.71 V 91.86 a 1.71,1.71 0 0 1 1.71,-1.7 z M 80.41,60.1 h 40.76 a 1.72,1.72 0 0 1 1.71,1.71 v 21.37 a 1.72,1.72 0 0 1 -1.71,1.71 H 80.41 A 1.72,1.72 0 0 1 78.7,83.18 V 61.81 a 1.72,1.72 0 0 1 1.71,-1.71 z m -49.28,0 h 40.76 a 1.72,1.72 0 0 1 1.71,1.71 v 21.37 a 1.72,1.72 0 0 1 -1.71,1.71 H 31.13 A 1.72,1.72 0 0 1 29.42,83.18 V 61.81 a 1.72,1.72 0 0 1 1.71,-1.71 z m -29.42,0 h 20.82 a 1.72,1.72 0 0 1 1.71,1.71 v 21.37 a 1.72,1.72 0 0 1 -1.71,1.71 H 1.71 A 1.72,1.72 0 0 1 0,83.18 V 61.81 A 1.72,1.72 0 0 1 1.71,60.1 Z m 0.21,-30 h 40.76 a 1.72,1.72 0 0 1 1.71,1.71 v 21.32 a 1.72,1.72 0 0 1 -1.71,1.71 H 1.92 A 1.72,1.72 0 0 1 0.21,53.13 V 31.76 a 1.72,1.72 0 0 1 1.71,-1.71 z m 98.59,0 H 121 a 1.72,1.72 0 0 1 1.71,1.71 V 53.13 A 1.72,1.72 0 0 1 121,54.84 H 100.51 A 1.72,1.72 0 0 1 98.8,53.13 V 31.76 a 1.72,1.72 0 0 1 1.71,-1.71 z m -49.17,0 H 92.1 a 1.72,1.72 0 0 1 1.71,1.71 V 53.13 A 1.72,1.72 0 0 1 92.1,54.84 H 51.34 A 1.72,1.72 0 0 1 49.63,53.13 V 31.76 a 1.72,1.72 0 0 1 1.71,-1.71 z M 80.41,0 h 40.76 a 1.72,1.72 0 0 1 1.71,1.71 v 21.37 a 1.72,1.72 0 0 1 -1.71,1.71 H 80.41 A 1.72,1.72 0 0 1 78.7,23.08 V 1.71 A 1.72,1.72 0 0 1 80.41,0 Z M 31.13,0 h 40.76 a 1.72,1.72 0 0 1 1.71,1.71 v 21.37 a 1.72,1.72 0 0 1 -1.71,1.71 H 31.13 A 1.72,1.72 0 0 1 29.42,23.08 V 1.71 A 1.72,1.72 0 0 1 31.13,0 Z"
           id="path1-2"
           style="fill:#bf5a16;fill-rule:evenodd" />
      </g>
    </g>
    <circle
       class="cls-4"
       cx="39.8"
       cy="32.81"
       r="8.66"
       id="circle6"
       style="stroke:#272c2a;stroke-opacity:1;fill:#eaf1f7;fill-opacity:1" />
    <circle
       class="cls-4"
       cx="39.785843"
       cy="32.87508"
       r="4.1142302"
       id="circle6-6"
       style="fill:#bf5a16;fill-opacity:1;stroke:#272c2a;stroke-width:0.318307px;stroke-miterlimit:10;stroke-opacity:1" />
    <path
       fill-rule="nonzero"
       d="m 31.561632,32.518083 c 0.473582,-0.572149 0.963809,-1.088488 1.466766,-1.546729 1.963846,-1.787926 4.167583,-2.741617 6.443778,-2.788943 2.271952,-0.04766 4.602653,0.809104 6.825974,2.642071 0.602177,0.496428 1.194562,1.062049 1.772259,1.697191 0.124678,0.136755 0.131206,0.340091 0.02547,0.483373 -0.643954,0.910935 -1.370156,1.677608 -2.153149,2.302958 -1.748433,1.39594 -3.784737,2.085588 -5.848783,2.098316 -2.057844,0.01273 -4.139841,-0.648522 -5.987169,-1.952749 -0.92399,-0.652766 -1.79021,-1.466439 -2.564718,-2.437101 -0.119129,-0.14981 -0.107376,-0.362286 0.01959,-0.498387 z m 8.25292,-1.620818 c 1.047362,0 1.896286,0.848922 1.896286,1.896285 0,1.047363 -0.848924,1.896285 -1.896286,1.896285 -1.047362,0 -1.896285,-0.848922 -1.896285,-1.896285 0,-0.194851 0.02938,-0.383174 0.08388,-0.560073 0.138713,0.363917 0.49088,0.622412 0.903429,0.622412 0.533636,0 0.96642,-0.432783 0.96642,-0.96642 0,-0.414506 -0.260454,-0.767653 -0.626656,-0.90506 0.179511,-0.05647 0.370771,-0.08714 0.569211,-0.08714 z m 3.500131,-1.094036 a 4.6167851,4.6167851 0 0 1 0.753945,1.230464 c 0.225856,0.544081 0.350535,1.139077 0.350535,1.759857 0,0.621107 -0.124679,1.216103 -0.350209,1.760509 a 4.6176337,4.6176337 0 0 1 -0.998732,1.494835 l -0.06267,0.06169 c 0.861651,-0.320834 1.690339,-0.786255 2.459949,-1.400509 0.656683,-0.524497 1.271588,-1.158333 1.827418,-1.901832 -0.489573,-0.519933 -0.984368,-0.985029 -1.481123,-1.394639 -0.823138,-0.678878 -1.659331,-1.214145 -2.499115,-1.610374 z m -6.92193,6.067459 C 36.045155,35.48523 35.761854,35.040371 35.560476,34.554713 A 4.5862683,4.5862683 0 0 1 35.209942,32.79355 c 0,-0.620454 0.124351,-1.214798 0.349882,-1.758225 0.223572,-0.539184 0.546692,-1.026801 0.945205,-1.439349 -1.028107,0.435069 -2.022596,1.085224 -2.962251,1.940021 -0.414507,0.377624 -0.817264,0.793111 -1.205986,1.245803 0.676918,0.806492 1.421072,1.489612 2.209286,2.046748 0.593691,0.419075 1.212513,0.767001 1.846675,1.04214 z m 4.888891,-6.626879 c -0.449756,-0.186364 -0.945858,-0.289829 -1.466766,-0.289829 -0.520254,0 -1.015704,0.103468 -1.466438,0.290482 -0.468033,0.194197 -0.891679,0.480761 -1.247762,0.836845 -0.355106,0.355431 -0.641016,0.778424 -0.835541,1.246783 -0.186364,0.450082 -0.289827,0.945532 -0.289827,1.46546 0,0.520908 0.103467,1.017336 0.29048,1.468071 a 3.8400262,3.8400262 0 0 0 0.834888,1.246456 c 0.354451,0.353799 0.778096,0.639711 1.248088,0.834561 0.450408,0.186691 0.945858,0.289828 1.466112,0.289828 0.520581,0 1.016683,-0.103467 1.467418,-0.289828 0.468686,-0.193545 0.891678,-0.479782 1.246783,-0.834561 0.355105,-0.355105 0.641016,-0.778097 0.834562,-1.245476 0.186691,-0.452042 0.290154,-0.948143 0.290154,-1.469051 0,-0.520581 -0.103467,-1.016357 -0.290154,-1.467092 -0.193546,-0.469012 -0.479457,-0.892004 -0.834562,-1.247108 -0.354451,-0.354452 -0.778097,-0.640691 -1.247435,-0.835541 z"
       id="path1-3"
       style="fill:#272c2a;fill-opacity:1;stroke-width:0.0326384" />
  </g>
</svg>
