<?xml version="1.0" encoding="UTF-8"?>
<!DOCTYPE svg PUBLIC "-//W3C//DTD SVG 1.1//EN" "http://www.w3.org/Graphics/SVG/1.1/DTD/svg11.dtd">
<svg xmlns="http://www.w3.org/2000/svg" version="1.1" width="178px" height="176px"
     style="shape-rendering:geometricPrecision; text-rendering:geometricPrecision; image-rendering:optimizeQuality; fill-rule:evenodd; clip-rule:evenodd"
     xmlns:xlink="http://www.w3.org/1999/xlink">

  <!-- Первая дуга -->
  <g>
    <path style="opacity:0.979" fill="#2196f3" d="M 39.5,-0.5 C 66.1667,-0.5 92.8333,-0.5 119.5,-0.5C 138.599,28.0438 157.932,56.3772 177.5,84.5C 177.5,85.5 177.5,86.5 177.5,87.5C 157.72,116.29 138.72,145.623 120.5,175.5C 93.1667,175.5 65.8333,175.5 38.5,175.5C 38.3398,173.801 38.5065,172.134 39,170.5C 57.8729,142.59 76.3729,114.423 94.5,86C 75.5793,58.1553 56.9126,30.1553 38.5,2C 38.7432,1.09789 39.0766,0.264561 39.5,-0.5 Z"/>
  </g>

  <!-- Вторая дуга -->
  <g>
    <path style="opacity:0.916" fill="#4caf50" d="M -0.5,8.5 C -0.5,7.16667 -0.5,5.83333 -0.5,4.5C 2.38602,1.08662 5.55269,0.753288 9,3.5C 26.2755,29.7738 43.9422,55.7738 62,81.5C 63.4568,84.366 63.7901,87.366 63,90.5C 45.4181,116.662 28.0848,142.995 11,169.5C 7.98203,174.265 4.6487,174.598 1,170.5C 0.293701,168.029 0.627034,165.695 2,163.5C 18.8485,137.99 35.6819,112.49 52.5,87C 34.9854,60.6664 17.3187,34.4997 -0.5,8.5 Z"/>
  </g>

</svg>
