<?xml version="1.0" encoding="UTF-8"?>
<svg id="_Слой_2" data-name="Слой 2" xmlns="http://www.w3.org/2000/svg" viewBox="0 0 40.71 37.07">
  <defs>
    <style>
      .cls-1 {
        fill: #008dd1;
      }

      .cls-1, .cls-2, .cls-3 {
        fill-rule: evenodd;
      }

      .cls-2 {
        fill: #fefefe;
        stroke-width: .43px;
      }

      .cls-2, .cls-4, .cls-3 {
        stroke-miterlimit: 10;
      }

      .cls-2, .cls-3 {
        stroke: #fefefe;
      }

      .cls-5 {
        fill: #272c2a;
      }

      .cls-4 {
        fill: none;
        stroke: #008dd1;
        stroke-width: 1.52px;
      }

      .cls-3 {
        fill: #00aee7;
        stroke-width: 2px;
      }
    </style>
  </defs>
  <g id="_Слой_1-2" data-name="Слой 1">
    <path class="cls-3" d="m1.01,10.22c-.09.72.48.92.99,1.37l3,2.63c2.01,1.86,4.48,3.84,6.55,5.7.2.17.26.23.45.4.28.2.6.52.88.77l1.79,1.52,1.36,1.23c.85.74,3.94,3.49,4.25,3.52.48.06,1.79-1.23,2.18-1.6l2.1-1.8c.45-.37.99-1,1.47-1.2.09-.29.11-.23.34-.4l3.09-2.69c.6-.54,1.13-1.03,1.73-1.52l2.15-1.89c.2-.17.28-.2.45-.37.26-.23.62-.57.91-.77.99-.8,2.52-2.29,3.54-3.09.71-.6,1.53-1.12,1.45-1.8-.2-1.15-2.95-.86-4.17-.86H5.26c-1.3,0-4.08-.26-4.25.86h0Z"/>
    <path class="cls-3" d="m1.01,35.21c.09.57,1.02.83,1.59.83,5.81.06,11.96,0,17.77,0h17.66c.54,0,1.59-.2,1.67-.83.09-.69-.77-1.26-1.45-1.8-.2-.14-.26-.26-.45-.4l-8.33-7.24c-.6-.54-1.13-1-1.76-1.55l-1.67-1.46c-.48.2-1.02.83-1.47,1.2l-2.1,1.8c-.4.37-1.7,1.66-2.18,1.6-.31-.03-3.4-2.78-4.25-3.52l-1.36-1.23c-.03.26,0,.14-.14.29l-12.53,10.94c-.17.14-.31.2-.48.37-.31.29-.57.43-.51,1h0Z"/>
    <path class="cls-1" d="m1.01,35.21c-.06-.57.2-.72.51-1,.17-.17.31-.23.48-.37l12.53-10.94c.14-.14.16-.13.23-.2l-1.88-1.6c-.28-.26-.6-.57-.88-.77-.2-.17-.26-.23-.45-.4-2.07-1.86-4.54-3.84-6.55-5.7l-3-2.63c-.51-.46-1.08-.66-.99-1.37q-.23.14-.34.46c-.26.74-.11,11.14-.11,12.02v9.68c0,.86-.23,2.4.45,2.83h0Z"/>
    <path class="cls-1" d="m27.71,24.22c.62.54,1.16,1,1.76,1.55l8.33,7.24c.2.14.26.26.45.4.68.54,1.53,1.12,1.45,1.8.65-.43.45-1.89.45-2.75V13.05c0-.8.2-2.43-.45-2.83.09.69-.74,1.2-1.45,1.8-1.02.8-2.55,2.29-3.54,3.09-.28.2-.65.54-.91.77-.17.17-.26.2-.45.37l-2.15,1.89c-.6.49-1.13.97-1.73,1.52l-3.09,2.69c-.23.17-.17.12-.41.33"/>
    <path class="cls-2" d="m20.77,33.95c3.32,0,6.01-2.75,6.01-6.1s-2.69-6.1-6.01-6.1-6.04,2.75-6.04,6.1,2.69,6.1,6.04,6.1h0Z"/>
    <path class="cls-5" d="m20.17,24.33c1.08,0,1.9.26,2.55.74.62.49.96,1.4.96,2.75s-.34,2.23-.96,2.75c-.65.54-1.42.8-2.32.8h-1.67v-7.04h1.45Zm-.48.77v5.5h.77c.65,0,1.19-.2,1.59-.6s.62-1.12.62-2.18c0-.74-.11-1.32-.34-1.72-.2-.4-.45-.66-.79-.8-.31-.11-.71-.2-1.13-.2h-.71Z"/>
    <g>
      <polyline class="cls-4" points="23.09 7.77 23.09 4.05 40.15 4.05"/>
      <polyline class="cls-4" points="17.59 7.77 17.59 4.05 .53 4.05"/>
      <line class="cls-4" x1="40.13" y1=".76" x2=".53" y2=".76"/>
    </g>
  </g>
</svg>