<svg xmlns="http://www.w3.org/2000/svg" shape-rendering="geometricPrecision" text-rendering="geometricPrecision" image-rendering="optimizeQuality" fill-rule="evenodd" clip-rule="evenodd" viewBox="0 0 505 511.97"><path fill="#871308" fill-rule="nonzero" d="M29.41 342.3c-3.92-9.69-6.61-20-7.88-30.75l-1.46-2.93C6.36 281.25 0 253.55 0 227.29c0-29.24 7.84-56.79 22.15-80.31 14.29-23.49 35.06-42.89 60.91-55.84 8.78-4.4 18.15-8.06 28.02-10.86l2.58-3.88a172.19 172.19 0 0 1 61.89-56.16C199.67 7.33 227.19 0 256.33 0c27.93 0 54.33 6.7 77.66 18.57 24.14 12.28 45.03 30.19 60.94 52.01l.02.04c28.2 3.9 53.46 17.01 72.65 36.19 23.1 23.11 37.4 55.03 37.4 90.29 0 27.7-9.62 53.24-25.39 74.08-.76 1-1.53 1.99-2.32 2.96l.03.04c22.73 30.94 30.64 86 21.79 122.73-4.55 18.9-12.73 36.93-24.27 52.93-43.79 60.73-127.67 80.4-193.25 43.48-7.68-4.32-14.96-9.38-21.76-15.16-23.44 16.52-52.01 26.63-81.54 27.32l-3.27.08c-40.49 0-77.16-16.73-103.7-43.76-38.55-39.26-43.66-76.16-41.91-119.5z"/><path fill="#D03F3E" d="M21.49 283.21c-29.89-82.74 9.15-163.94 85.47-189.73l15.61 1.16c6.42.48 13.94.64 21.77.81 18.92.42 39.89.88 59.94 7.62a121.518 121.518 0 0 0-32.16 39.84c-24.41 5.94-45.46 20.48-59.75 40.23l-3.86.91c-26.46 6.22-48.45 20.59-63.85 40.54-12.61 16.35-20.74 36.36-23.17 58.62zm357.7-213.79c-29.3-35.23-73.46-57.66-122.86-57.66-55.45 0-104.3 28.26-132.94 71.17 26.76 1.99 60.42-1.5 92.4 11.92 18.42-11.58 40.13-18.28 63.37-18.28 13.62 0 26.72 2.3 38.92 6.52l7.26-3.72c9.13-4.7 17.15-7.19 25.66-8.52 8.37-1.31 16.45-1.44 26.31-1.44l1.88.01z"/><path fill="#D03F3E" d="M371.68 241.31c5.95-37.17 5.2-67.49-2.51-91.03-12.22-37.35-51.09-62.69-90.01-62.69-39.46 0-74.02 21.18-93.16 52.92 3.57-.37 7.2-.56 10.87-.56 9.4 0 18.63 1.29 27.5 3.71 7.93 2.17 15.46 5.22 22.44 9.03l4.46-.82c7.25-1.34 14.15-1.98 20.66-1.98 22.72 0 42.28 7.42 57.27 20.41 14.88 12.91 25.04 31.21 29.08 53.06 1.3 7.04 1.98 14.32 1.98 21.77 0 4.32-.29 8.57-.85 12.73 4.2-5.14 8.29-10.66 12.27-16.55z"/><path fill="#D03F3E" d="m244.3 163.92-.27 9.05-.36-.12-.07-.02-.29-.09-.36-.12-.36-.11-.36-.11-.73-.22-.37-.11-.26-.07-.1-.03-.37-.1-.36-.1-.09-.03-.28-.07-.37-.1-.27-.07-.1-.02-.37-.1-.37-.09-.09-.03-.28-.06-.37-.09-.37-.09-.38-.08-.37-.08-.38-.08-.37-.09-.3-.06-.07-.01-.38-.08-.38-.07-.38-.07-.37-.07-.31-.06-.07-.01-.38-.07-.38-.06-.13-.02-.25-.05-.38-.06-.32-.05-.06-.01-.39-.05-.38-.06-.39-.05-.38-.05-.34-.05h-.05l-.38-.05-.39-.05-.15-.02-.23-.02-.39-.04-.35-.04h-.04l-.39-.04-.39-.04-.16-.01-.22-.02-.4-.04-.36-.02-.03-.01-.39-.02-.39-.03-.17-.01-.22-.02-.39-.02-.38-.02h-.02l-.39-.02-.4-.01-.18-.01-.21-.01-.75-.02h-.06l-.77-.02h-.4l-.8-.01c-21.36 0-40.71 8.67-54.71 22.66-14 14.01-22.66 33.35-22.66 54.71 0 21.37 8.66 40.71 22.66 54.72l.6.58.06.07.54.52.13.12.47.45.2.19.42.38.27.25.35.31c11.64 10.44 26.49 17.35 42.05 19.19l1.6.19.11.01.77.07.21.02.67.06c-49.85 9.99-97.6-25.53-101.34-76.6-1.12-15.22 1.41-30.92 8.94-47.72 14.73-32.82 38-48.28 75.84-48.28 17.32 0 33.53 4.73 47.43 12.96zm248.94 33.18c0-64.03-51.9-115.93-115.93-115.93-19.05 0-30.79.48-46.64 8.62 46.45 22.23 63.77 69.71 54.08 143.2l5.37 5.76c9.97 10.7 17.97 23.28 23.43 37.15 2.95 7.51 5.16 15.38 6.52 23.53 43.04-21.16 73.17-51.11 73.17-102.33zM317.17 372.26l.04 1.95c0 27.47-9.83 52.96-26.05 74.04.63-.03 1.27-.06 1.91-.1 22.47-14.08 43.68-29.91 64.01-47.76 26.13-22.95 45.67-51.38 51.01-89.42l.9-6.42.68-.31c-3.07-22.26-13-42.33-27.6-58.01-9.16 13.86-18.94 25.81-29.28 36-4.27 10.14-10.25 19.39-17.56 27.4v.78c0 22.74-6.63 43.97-18.06 61.85zm-12.33 16.01c-8.16 59.48-67.09 105.88-129.82 105.88-74.32 0-131.96-60.02-135.05-131.66 4.54 6.97 9.79 13.44 15.65 19.3 21.56 21.56 51.36 34.9 84.27 34.9 4.98 0 10.11-.34 15.32-1.01 4.19-.54 8.26-1.28 12.19-2.21 15.65 7.87 33.33 12.31 52.04 12.31 31.93 0 60.87-12.91 81.83-33.79 1.22-1.21 2.4-2.46 3.57-3.72z"/><path fill="#D03F3E" d="M219.69 180.08c12.8 0 24.75 3.63 34.89 9.9l-70.1.21c10.2-6.4 22.27-10.11 35.21-10.11zm59.04 36.03c4.68 9.09 7.32 19.4 7.32 30.32 0 9.15-1.85 17.86-5.2 25.78l-11.63-31.26c5.02-7.42 8.2-15.88 9.49-24.74l.02-.1zm-16.16 80.96c-11.57 9.81-26.53 15.72-42.88 15.72-36.65 0-66.36-29.71-66.36-66.36 0-7.28 1.18-14.29 3.35-20.84l.02.09c2.7 12.16 11.5 22.02 21.67 28.74 8.2 5.42 18.05 9.36 27.97 11.32l.13.2c5.88 9.51 14.27 17.42 24.28 22.87a67.875 67.875 0 0 0 31.82 8.26z"/><path fill="#D03F3E" d="M220.94 267.12c10.11 11.57 25.33 18.94 42.36 18.94 3.64 0 7.19-.34 10.63-.97l-12.82-34.48c-10.45 10.04-24.58 16.29-40.17 16.51zm46.83-66.2c-31.8.09-63.61.19-95.41.28-19.75 29.85 17.7 54.91 47.72 54.91 26.62 0 48.19-21.57 48.19-48.19 0-2.37-.17-4.71-.5-7z"/><path fill="#D03F3E" d="M253.25 162.67c59.23 56.43 46.57 107.02-4.53 154.72 10.94 1.11 21.67.86 32.13-1.05 12.7-2.31 25.16-7.16 37.34-15.14l17.04-11.16v1.73c8.85-13.37 14.01-29.4 14.01-46.64 0-55.83-39.32-92.94-95.99-82.46zm14.13 307.08c44.04 35.45 107.19 41.36 158.15 10.12 65.01-39.87 85.54-125.12 45.85-190.42-2.12-3.49-1.15-5.1-3.53-8.34-15.03 13.54-31.16 23.76-48.13 31.47-11.6 82.53-84.08 122.76-152.34 157.17zm-114.36-64.86c-4.3.52-8.69.79-13.13.79-59.74 0-108.16-48.43-108.16-108.17 0-51.17 31.53-91.51 79.28-102.75-13.46 29.99-12.47 56.93-3.43 83.72l-2.05 11.38c-.6 3.34-1.07 6.76-1.38 10.24-.33 3.72-.5 7.16-.5 10.31 0 31.84 12.98 60.68 33.95 81.58 4.75 4.73 9.91 9.05 15.42 12.9z"/><path fill="#D03F3E" d="M239.31 327.23c29.57 4.63 58.08.75 84.9-16.82 0 57.63-46.91 104.36-104.77 104.36-57.87 0-104.78-46.73-104.78-104.36 0-6.35.58-12.57 1.67-18.61 33.94 45.67 75.65 54.04 122.98 35.43z"/></svg>