<?xml version="1.0" encoding="UTF-8" standalone="no"?>
<svg
   version="1.1"
   width="224px"
   height="204px"
   viewBox="0 0 224 204"
   id="svg2"
   sodipodi:docname="search_walls.svg"
   inkscape:version="1.3 (0e150ed6c4, 2023-07-21)"
   xmlns:inkscape="http://www.inkscape.org/namespaces/inkscape"
   xmlns:sodipodi="http://sodipodi.sourceforge.net/DTD/sodipodi-0.dtd"
   xmlns="http://www.w3.org/2000/svg"
   xmlns:svg="http://www.w3.org/2000/svg">
  <defs
     id="defs2" />
  <sodipodi:namedview
     id="namedview2"
     pagecolor="#505050"
     bordercolor="#eeeeee"
     borderopacity="1"
     inkscape:showpageshadow="0"
     inkscape:pageopacity="0"
     inkscape:pagecheckerboard="0"
     inkscape:deskcolor="#505050"
     inkscape:zoom="2.0641278"
     inkscape:cx="30.763598"
     inkscape:cy="163.99178"
     inkscape:window-width="2560"
     inkscape:window-height="1387"
     inkscape:window-x="-8"
     inkscape:window-y="-8"
     inkscape:window-maximized="1"
     inkscape:current-layer="svg2" />
  <rect
     style="fill:#272c2a;fill-opacity:1;stroke:#272c2a;stroke-width:0.410682;stroke-dasharray:none;stroke-opacity:1"
     id="rect1"
     width="107.439"
     height="100.79748"
     x="13.922132"
     y="57.024841"
     ry="1.7411301"
     transform="rotate(-12.327617)" />
  <g
     id="Слой_2"
     data-name="Слой 2"
     transform="matrix(0.85649853,-0.18717938,0.18717938,0.85649853,25.755779,52.725732)">
    <g
       id="Layer_1"
       data-name="Layer 1">
      <path
         class="cls-1"
         d="m 1.71,0 h 20.82 a 1.72,1.72 0 0 1 1.71,1.71 v 21.37 a 1.72,1.72 0 0 1 -1.71,1.71 H 1.71 A 1.72,1.72 0 0 1 0,23.08 V 1.71 A 1.72,1.72 0 0 1 1.71,0 Z m 0.21,90.16 h 40.76 a 1.72,1.72 0 0 1 1.71,1.71 v 21.37 A 1.72,1.72 0 0 1 42.68,115 H 1.92 A 1.72,1.72 0 0 1 0.21,113.29 V 91.86 a 1.71,1.71 0 0 1 1.71,-1.7 z m 98.59,0 H 121 a 1.72,1.72 0 0 1 1.71,1.71 v 21.37 A 1.72,1.72 0 0 1 121,115 H 100.51 A 1.72,1.72 0 0 1 98.8,113.29 V 91.86 a 1.71,1.71 0 0 1 1.71,-1.7 z m -49.17,0 H 92.1 a 1.72,1.72 0 0 1 1.71,1.71 v 21.37 A 1.72,1.72 0 0 1 92.1,115 H 51.34 a 1.72,1.72 0 0 1 -1.71,-1.71 V 91.86 a 1.71,1.71 0 0 1 1.71,-1.7 z M 80.41,60.1 h 40.76 a 1.72,1.72 0 0 1 1.71,1.71 v 21.37 a 1.72,1.72 0 0 1 -1.71,1.71 H 80.41 A 1.72,1.72 0 0 1 78.7,83.18 V 61.81 a 1.72,1.72 0 0 1 1.71,-1.71 z m -49.28,0 h 40.76 a 1.72,1.72 0 0 1 1.71,1.71 v 21.37 a 1.72,1.72 0 0 1 -1.71,1.71 H 31.13 A 1.72,1.72 0 0 1 29.42,83.18 V 61.81 a 1.72,1.72 0 0 1 1.71,-1.71 z m -29.42,0 h 20.82 a 1.72,1.72 0 0 1 1.71,1.71 v 21.37 a 1.72,1.72 0 0 1 -1.71,1.71 H 1.71 A 1.72,1.72 0 0 1 0,83.18 V 61.81 A 1.72,1.72 0 0 1 1.71,60.1 Z m 0.21,-30 h 40.76 a 1.72,1.72 0 0 1 1.71,1.71 v 21.32 a 1.72,1.72 0 0 1 -1.71,1.71 H 1.92 A 1.72,1.72 0 0 1 0.21,53.13 V 31.76 a 1.72,1.72 0 0 1 1.71,-1.71 z m 98.59,0 H 121 a 1.72,1.72 0 0 1 1.71,1.71 V 53.13 A 1.72,1.72 0 0 1 121,54.84 H 100.51 A 1.72,1.72 0 0 1 98.8,53.13 V 31.76 a 1.72,1.72 0 0 1 1.71,-1.71 z m -49.17,0 H 92.1 a 1.72,1.72 0 0 1 1.71,1.71 V 53.13 A 1.72,1.72 0 0 1 92.1,54.84 H 51.34 A 1.72,1.72 0 0 1 49.63,53.13 V 31.76 a 1.72,1.72 0 0 1 1.71,-1.71 z M 80.41,0 h 40.76 a 1.72,1.72 0 0 1 1.71,1.71 v 21.37 a 1.72,1.72 0 0 1 -1.71,1.71 H 80.41 A 1.72,1.72 0 0 1 78.7,23.08 V 1.71 A 1.72,1.72 0 0 1 80.41,0 Z M 31.13,0 h 40.76 a 1.72,1.72 0 0 1 1.71,1.71 v 21.37 a 1.72,1.72 0 0 1 -1.71,1.71 H 31.13 A 1.72,1.72 0 0 1 29.42,23.08 V 1.71 A 1.72,1.72 0 0 1 31.13,0 Z"
         id="path1-2"
         style="fill:#bf5a16;fill-rule:evenodd;stroke:#272c2a;stroke-width:0.15px;stroke-miterlimit:10" />
    </g>
  </g>
  <!-- Лупа -->
  <g
     id="g1">
    <line
       x1="144.48347"
       y1="142.15166"
       x2="212.81879"
       y2="192.30426"
       stroke="#fefffe"
       stroke-width="12"
       stroke-linecap="round"
       id="line1-8"
       style="fill:#000000;stroke:#000000;stroke-width:19.8044;stroke-dasharray:none" />
    <circle
       cx="89.806046"
       cy="90.030228"
       r="70.813316"
       fill="none"
       stroke="#fefffe"
       stroke-width="12.595"
       id="circle1-1"
       style="stroke:#000000;stroke-width:18.2769;stroke-dasharray:none" />
    <!-- Внешний круг (ободок) -->
    <circle
       cx="90"
       cy="90"
       r="70"
       fill="none"
       stroke="#fefffe"
       stroke-width="12"
       id="circle1" />
    <!-- Ручка -->
    <line
       x1="145.29427"
       y1="142.44482"
       x2="213.62956"
       y2="192.59744"
       stroke="#fefffe"
       stroke-width="13.2029"
       stroke-linecap="round"
       id="line1" />
  </g>
  <!-- Растение (большой росток внутри линзы) -->
</svg>
