<svg xmlns="http://www.w3.org/2000/svg" viewBox="0 0 130.95 115.01"><defs><style>.cls-1{fill:#bf5a16;}.cls-1,.cls-2{fill-rule:evenodd;}.cls-2{fill:#fff;}</style></defs><g id="Слой_2" data-name="Слой 2"><g id="Layer_1" data-name="Layer 1"><path class="cls-1" d="M1.71,0H22.53a1.72,1.72,0,0,1,1.71,1.71V23.08a1.72,1.72,0,0,1-1.71,1.71H1.71A1.72,1.72,0,0,1,0,23.08V1.71A1.72,1.72,0,0,1,1.71,0Zm.21,30.05H42.68a1.72,1.72,0,0,1,1.71,1.71V53.13a1.72,1.72,0,0,1-1.71,1.71H1.92A1.72,1.72,0,0,1,.21,53.13V31.76a1.72,1.72,0,0,1,1.71-1.71Zm98.59,0h28.73A1.72,1.72,0,0,1,131,31.76V53.13a1.72,1.72,0,0,1-1.71,1.71H100.51a1.72,1.72,0,0,1-1.71-1.71V31.76a1.72,1.72,0,0,1,1.71-1.71Zm-49.17,0H92.1a1.72,1.72,0,0,1,1.71,1.71V53.13a1.72,1.72,0,0,1-1.71,1.71H51.34a1.72,1.72,0,0,1-1.71-1.71V31.76a1.72,1.72,0,0,1,1.71-1.71ZM80.41,0h48.83A1.72,1.72,0,0,1,131,1.71V23.08a1.72,1.72,0,0,1-1.71,1.71H80.41a1.72,1.72,0,0,1-1.71-1.71V1.71A1.72,1.72,0,0,1,80.41,0ZM31.13,0H71.89A1.72,1.72,0,0,1,73.6,1.71V23.08a1.72,1.72,0,0,1-1.71,1.71H31.13a1.72,1.72,0,0,1-1.71-1.71V1.71A1.72,1.72,0,0,1,31.13,0Z"/><polygon class="cls-2" points="65.48 27.4 51.85 51.27 38.23 75.15 58.47 75.15 58.47 115.01 72.49 115.01 72.49 75.15 92.72 75.15 79.1 51.27 65.48 27.4"/></g></g></svg>