<svg xmlns="http://www.w3.org/2000/svg" viewBox="0 0 133.23 116.27"><defs><style>.cls-1{fill:#fff;}.cls-1,.cls-2{fill-rule:evenodd;}.cls-2{fill:#bf5a16;}</style></defs><g id="Слой_2" data-name="Слой 2"><g id="Layer_1" data-name="Layer 1"><polygon class="cls-1" points="27.25 13.67 40.87 37.54 54.49 61.42 34.26 61.42 34.26 101.28 20.23 101.28 20.23 61.42 0 61.42 13.62 37.54 27.25 13.67"/><path class="cls-2" d="M131.52,0a1.72,1.72,0,0,1,1.71,1.71V23.08a1.72,1.72,0,0,1-1.71,1.71H110.7A1.72,1.72,0,0,1,109,23.08V1.71A1.72,1.72,0,0,1,110.7,0Zm-.21,90.16a1.71,1.71,0,0,1,1.71,1.7v21.38a1.72,1.72,0,0,1-1.71,1.71H90.55a1.72,1.72,0,0,1-1.71-1.71V91.87a1.72,1.72,0,0,1,1.71-1.71ZM102.1,60.1a1.72,1.72,0,0,1,1.71,1.71V83.18a1.72,1.72,0,0,1-1.71,1.71H61.34a1.72,1.72,0,0,1-1.71-1.71V61.81a1.72,1.72,0,0,1,1.71-1.71Zm29.42,0a1.72,1.72,0,0,1,1.71,1.71V83.18a1.72,1.72,0,0,1-1.71,1.71H110.7A1.72,1.72,0,0,1,109,83.18V61.81a1.72,1.72,0,0,1,1.71-1.71Zm-.21-30A1.72,1.72,0,0,1,133,31.76V53.13a1.72,1.72,0,0,1-1.71,1.71H90.55a1.72,1.72,0,0,1-1.71-1.71V31.76a1.72,1.72,0,0,1,1.71-1.71ZM102.1,0a1.72,1.72,0,0,1,1.71,1.71V23.08a1.72,1.72,0,0,1-1.71,1.71H61.34a1.72,1.72,0,0,1-1.71-1.71V1.71A1.72,1.72,0,0,1,61.34,0Z"/><path class="cls-2" d="M82.2,31.37a1.72,1.72,0,0,1,1.71,1.71V54.45a1.72,1.72,0,0,1-1.71,1.71H61.38a1.72,1.72,0,0,1-1.71-1.71V33.08a1.72,1.72,0,0,1,1.71-1.71Z"/><path class="cls-2" d="M82.2,91.48a1.72,1.72,0,0,1,1.71,1.71v21.37a1.72,1.72,0,0,1-1.71,1.71H61.38a1.72,1.72,0,0,1-1.71-1.71V93.19a1.72,1.72,0,0,1,1.71-1.71Z"/></g></g></svg>