<?xml version="1.0" encoding="UTF-8"?>
<!DOCTYPE svg PUBLIC "-//W3C//DTD SVG 1.1//EN" "http://www.w3.org/Graphics/SVG/1.1/DTD/svg11.dtd">
<!-- Creator: CorelDRAW -->
<svg xmlns="http://www.w3.org/2000/svg" xml:space="preserve" width="18.5mm" height="18.3456mm" version="1.1" style="shape-rendering:geometricPrecision; text-rendering:geometricPrecision; image-rendering:optimizeQuality; fill-rule:evenodd; clip-rule:evenodd"
viewBox="0 0 5249.2 5205.4"
 xmlns:xlink="http://www.w3.org/1999/xlink"
 xmlns:xodm="http://www.corel.com/coreldraw/odm/2003">
 <defs>
  <style type="text/css">
   <![CDATA[
    .str0 {stroke:#FEFEFE;stroke-width:56.7;stroke-miterlimit:22.9256}
    .fil2 {fill:none}
    .fil4 {fill:#A6D15C}
    .fil1 {fill:#702F18;fill-rule:nonzero}
    .fil0 {fill:#873D22;fill-rule:nonzero}
    .fil3 {fill:#A6D15C;fill-rule:nonzero}
   ]]>
  </style>
 </defs>
 <g id="Слой_x0020_1">
  <metadata id="CorelCorpID_0Corel-Layer"/>
  <g id="_1974554375584">
   <g>
    <polygon class="fil0" points="5249.2,3385.8 5249.2,5205.4 -0,5205.4 -0,3385.8 "/>
    <polygon class="fil1" points="5249.2,3385.8 5249.2,3023.3 -0,3023.3 -0,3385.8 "/>
    <g>
     <line class="fil2 str0" x1="4478.1" y1="3385.8" x2="4478.1" y2= "5205.4" />
     <line class="fil2 str0" x1="3551.3" y1="3385.8" x2="3551.3" y2= "5205.4" />
     <line class="fil2 str0" x1="2624.6" y1="3385.8" x2="2624.6" y2= "5205.4" />
     <line class="fil2 str0" x1="1697.9" y1="3385.8" x2="1697.9" y2= "5205.4" />
     <line class="fil2 str0" x1="771.2" y1="3385.8" x2="771.2" y2= "5205.4" />
     <line class="fil2 str0" x1="4478.1" y1="4735.2" x2="3551.3" y2= "4735.2" />
     <line class="fil2 str0" x1="3551.3" y1="3916.8" x2="2624.6" y2= "3916.8" />
     <line class="fil2 str0" x1="2624.6" y1="4295.6" x2="1697.9" y2= "4295.6" />
     <line class="fil2 str0" x1="1697.9" y1="4898.5" x2="771.2" y2= "4898.5" />
    </g>
    <line class="fil2 str0" x1="5249.2" y1="4295.6" x2="4478.1" y2= "4295.6" />
    <line class="fil2 str0" x1="771.2" y1="3845.3" x2="-0" y2= "3845.3" />
   </g>
   <g>
    <g>
     <path class="fil3" d="M2908.4 2238.6c0,156.7 -127.1,283.7 -283.7,283.7 -156.7,0 -283.7,-127.1 -283.7,-283.7l567.5 0zm0 -787l0 787 -567.5 0 0 -787 567.5 0zm-283.7 -1451.6l735.5 1470.9 -1470.9 0 735.5 -1470.9zm-283.7 1451.6c0,-156.7 127.1,-283.7 283.7,-283.7 156.7,0 283.7,127.1 283.7,283.7l-567.5 0z"/>
    </g>
    <circle class="fil4" cx="2624.6" cy="2707.7" r="820.3"/>
   </g>
  </g>
 </g>
</svg>
