<svg xmlns="http://www.w3.org/2000/svg" viewBox="0 0 130.95 115.04"><defs><style>.cls-1{fill:#bf5a16;}.cls-1,.cls-2{fill-rule:evenodd;}.cls-2{fill:#fff;}</style></defs><g id="Слой_2" data-name="Слой 2"><g id="Layer_1" data-name="Layer 1"><path class="cls-1" d="M129.24,115H108.42a1.72,1.72,0,0,1-1.71-1.71V92a1.72,1.72,0,0,1,1.71-1.71h20.82A1.72,1.72,0,0,1,131,92v21.37a1.72,1.72,0,0,1-1.71,1.71ZM129,85H88.27a1.72,1.72,0,0,1-1.71-1.71V61.91a1.72,1.72,0,0,1,1.71-1.71H129a1.72,1.72,0,0,1,1.71,1.71V83.28A1.72,1.72,0,0,1,129,85ZM30.44,85H1.71A1.72,1.72,0,0,1,0,83.28V61.91A1.72,1.72,0,0,1,1.71,60.2H30.44a1.72,1.72,0,0,1,1.71,1.71V83.28A1.72,1.72,0,0,1,30.44,85Zm49.17,0H38.85a1.72,1.72,0,0,1-1.71-1.71V61.91a1.72,1.72,0,0,1,1.71-1.71H79.61a1.72,1.72,0,0,1,1.71,1.71V83.28A1.72,1.72,0,0,1,79.61,85ZM50.54,115H1.71A1.72,1.72,0,0,1,0,113.33V92a1.72,1.72,0,0,1,1.71-1.71H50.54A1.72,1.72,0,0,1,52.25,92v21.37A1.72,1.72,0,0,1,50.54,115Zm49.28,0H59.06a1.72,1.72,0,0,1-1.71-1.71V92a1.72,1.72,0,0,1,1.71-1.71H99.82A1.72,1.72,0,0,1,101.53,92v21.37A1.72,1.72,0,0,1,99.82,115Z"/><polygon class="cls-2" points="65.48 0 51.85 23.88 38.23 47.75 58.47 47.75 58.47 87.61 72.49 87.61 72.49 47.75 92.72 47.75 79.1 23.88 65.48 0"/></g></g></svg>