<svg xmlns="http://www.w3.org/2000/svg" viewBox="0 0 133.23 116.27"><defs><style>.cls-1{fill:#fff;}.cls-1,.cls-2{fill-rule:evenodd;}.cls-2{fill:#bf5a16;}</style></defs><g id="Слой_2" data-name="Слой 2"><g id="Layer_1" data-name="Layer 1"><polygon class="cls-1" points="105.99 13.67 92.36 37.54 78.74 61.42 98.97 61.42 98.97 101.28 113 101.28 113 61.42 133.23 61.42 119.61 37.54 105.99 13.67"/><path class="cls-2" d="M1.71,0H22.53a1.72,1.72,0,0,1,1.71,1.71V23.08a1.72,1.72,0,0,1-1.71,1.71H1.71A1.72,1.72,0,0,1,0,23.08V1.71A1.72,1.72,0,0,1,1.71,0Zm.21,90.16H42.68a1.72,1.72,0,0,1,1.71,1.71v21.37A1.72,1.72,0,0,1,42.68,115H1.92a1.72,1.72,0,0,1-1.71-1.71V91.86a1.71,1.71,0,0,1,1.71-1.7ZM31.13,60.1H71.89a1.72,1.72,0,0,1,1.71,1.71V83.18a1.72,1.72,0,0,1-1.71,1.71H31.13a1.72,1.72,0,0,1-1.71-1.71V61.81a1.72,1.72,0,0,1,1.71-1.71Zm-29.42,0H22.53a1.72,1.72,0,0,1,1.71,1.71V83.18a1.72,1.72,0,0,1-1.71,1.71H1.71A1.72,1.72,0,0,1,0,83.18V61.81A1.72,1.72,0,0,1,1.71,60.1Zm.21-30H42.68a1.72,1.72,0,0,1,1.71,1.71V53.13a1.72,1.72,0,0,1-1.71,1.71H1.92A1.72,1.72,0,0,1,.21,53.13V31.76a1.72,1.72,0,0,1,1.71-1.71ZM31.13,0H71.89A1.72,1.72,0,0,1,73.6,1.71V23.08a1.72,1.72,0,0,1-1.71,1.71H31.13a1.72,1.72,0,0,1-1.71-1.71V1.71A1.72,1.72,0,0,1,31.13,0Z"/><path class="cls-2" d="M51,31.37H71.85a1.72,1.72,0,0,1,1.71,1.71V54.45a1.72,1.72,0,0,1-1.71,1.71H51a1.72,1.72,0,0,1-1.71-1.71V33.08A1.72,1.72,0,0,1,51,31.37Z"/><path class="cls-2" d="M51,91.48H71.85a1.72,1.72,0,0,1,1.71,1.71v21.37a1.72,1.72,0,0,1-1.71,1.71H51a1.72,1.72,0,0,1-1.71-1.71V93.19A1.72,1.72,0,0,1,51,91.48Z"/></g></g></svg>