<svg xmlns="http://www.w3.org/2000/svg" viewBox="0 0 122.88 114.95"><defs><style>.cls-1{fill:#bf5a16;fill-rule:evenodd;}</style></defs><g id="Слой_2" data-name="Слой 2"><g id="Layer_1" data-name="Layer 1"><path class="cls-1" d="M1.71,0H22.53a1.72,1.72,0,0,1,1.71,1.71V23.08a1.72,1.72,0,0,1-1.71,1.71H1.71A1.72,1.72,0,0,1,0,23.08V1.71A1.72,1.72,0,0,1,1.71,0Zm.21,90.16H42.68a1.72,1.72,0,0,1,1.71,1.71v21.37A1.72,1.72,0,0,1,42.68,115H1.92a1.72,1.72,0,0,1-1.71-1.71V91.86a1.71,1.71,0,0,1,1.71-1.7Zm98.59,0H121a1.72,1.72,0,0,1,1.71,1.71v21.37A1.72,1.72,0,0,1,121,115H100.51a1.72,1.72,0,0,1-1.71-1.71V91.86a1.71,1.71,0,0,1,1.71-1.7Zm-49.17,0H92.1a1.72,1.72,0,0,1,1.71,1.71v21.37A1.72,1.72,0,0,1,92.1,115H51.34a1.72,1.72,0,0,1-1.71-1.71V91.86a1.71,1.71,0,0,1,1.71-1.7ZM80.41,60.1h40.76a1.72,1.72,0,0,1,1.71,1.71V83.18a1.72,1.72,0,0,1-1.71,1.71H80.41a1.72,1.72,0,0,1-1.71-1.71V61.81a1.72,1.72,0,0,1,1.71-1.71Zm-49.28,0H71.89a1.72,1.72,0,0,1,1.71,1.71V83.18a1.72,1.72,0,0,1-1.71,1.71H31.13a1.72,1.72,0,0,1-1.71-1.71V61.81a1.72,1.72,0,0,1,1.71-1.71Zm-29.42,0H22.53a1.72,1.72,0,0,1,1.71,1.71V83.18a1.72,1.72,0,0,1-1.71,1.71H1.71A1.72,1.72,0,0,1,0,83.18V61.81A1.72,1.72,0,0,1,1.71,60.1Zm.21-30H42.68a1.72,1.72,0,0,1,1.71,1.71V53.13a1.72,1.72,0,0,1-1.71,1.71H1.92A1.72,1.72,0,0,1,.21,53.13V31.76a1.72,1.72,0,0,1,1.71-1.71Zm98.59,0H121a1.72,1.72,0,0,1,1.71,1.71V53.13A1.72,1.72,0,0,1,121,54.84H100.51a1.72,1.72,0,0,1-1.71-1.71V31.76a1.72,1.72,0,0,1,1.71-1.71Zm-49.17,0H92.1a1.72,1.72,0,0,1,1.71,1.71V53.13a1.72,1.72,0,0,1-1.71,1.71H51.34a1.72,1.72,0,0,1-1.71-1.71V31.76a1.72,1.72,0,0,1,1.71-1.71ZM80.41,0h40.76a1.72,1.72,0,0,1,1.71,1.71V23.08a1.72,1.72,0,0,1-1.71,1.71H80.41a1.72,1.72,0,0,1-1.71-1.71V1.71A1.72,1.72,0,0,1,80.41,0ZM31.13,0H71.89A1.72,1.72,0,0,1,73.6,1.71V23.08a1.72,1.72,0,0,1-1.71,1.71H31.13a1.72,1.72,0,0,1-1.71-1.71V1.71A1.72,1.72,0,0,1,31.13,0Z"/></g></g></svg>