<?xml version="1.0" encoding="utf-8"?>
<svg version="1.1" xmlns="http://www.w3.org/2000/svg"
     viewBox="0 0 122.88 107.27">
  <g>
    <path fill="#2e7d32" d="M22.48,0h77.92c6.15,0,11.75,2.53,15.82,6.6c4.11,4.11,6.67,9.8,6.67,16.06v61.96
      c0,6.26-2.55,11.94-6.67,16.06c-4.07,4.07-9.67,6.6-15.82,6.6H22.48c-6.15,0-11.75-2.53-15.82-6.6C2.55,96.56,0,90.88,0,84.62V22.65
      c0-6.26,2.55-11.95,6.66-16.06C10.73,2.53,16.33,0,22.48,0L22.48,0z M40.86,28.62h12.98l7.65,12.74l7.62-12.74h12.91L67.33,50.61
      v15.85H55.6V50.61L40.86,28.62L40.86,28.62z M4.54,76.22c0.79,3.18,2.34,6.02,4.44,8.29c3.09,3.33,7.35,5.4,12.05,5.4h80.83
      c0.19,0,0.38,0,0.57-0.01l1.15-0.08c4.01-0.44,7.62-2.39,10.33-5.31c2.1-2.26,3.65-5.1,4.44-8.28V22.65c0-4.85-2-9.28-5.21-12.49
      c-3.26-3.26-7.76-5.28-12.73-5.28H22.48c-4.97,0-9.48,2.02-12.73,5.28c-3.22,3.22-5.21,7.64-5.21,12.49V76.22L4.54,76.22z"/>
  </g>
</svg>
