<svg width="512" height="512" viewBox="0 0 512 512" fill="none" xmlns="http://www.w3.org/2000/svg">
<path d="M133.126 64.1855C136.997 63.1309 144.475 61.6367 149.842 60.7578C155.208 59.8789 163.214 59.1758 175.795 59V400.016C175.795 460.572 176.258 500.938 175.818 500.85C175.378 500.674 144.739 462.77 108.757 417.594C72.7742 372.418 41.1906 332.428 38.4633 328.824C35.824 325.221 32.217 319.859 30.4575 316.959C28.6979 314.059 25.3548 307.73 22.8915 302.897C20.5161 298.063 16.9091 289.361 14.9736 283.561C12.9501 277.76 10.5748 269.234 9.60704 264.664C8.6393 260.094 7.40762 253.238 6.87977 249.459C6.43988 245.768 6 236.275 6 228.453C6 218.785 6.52786 210.699 7.67155 203.58C8.6393 197.779 10.1349 189.869 11.1906 186.002C12.1584 182.135 14.3578 175.191 15.9413 170.621C17.6129 166.051 20.868 158.492 23.1554 153.922C25.4428 149.352 29.2258 142.584 31.4252 138.98C33.7126 135.377 38.1114 129.049 41.1906 124.918C44.3578 120.787 50.868 113.492 55.7067 108.658C60.5455 103.824 67.8475 97.3203 71.9824 94.1563C76.1173 91.0801 82.4516 86.6856 86.0586 84.4004C89.6657 82.2031 96.4399 78.4238 101.015 76.1387C105.589 73.8535 113.155 70.6016 117.73 68.9316C122.305 67.3496 129.255 65.1523 133.126 64.1855Z" fill="#FF3501"/>
<path d="M303.361 268.619C306.528 267.74 312.07 266.598 315.677 265.895C320.164 265.104 327.202 264.84 337.672 265.104C347.437 265.279 355.355 265.895 359.226 266.861C362.657 267.564 368.551 269.234 372.422 270.465C376.293 271.695 383.067 274.42 387.378 276.529C391.689 278.639 398.111 282.33 401.631 284.615C405.062 286.9 411.132 291.559 415.091 294.986C419.05 298.414 424.504 303.863 427.232 307.115C430.047 310.455 434.182 315.992 436.469 319.42C438.845 322.936 442.452 329.352 444.475 333.658C446.587 337.965 449.314 344.732 450.545 348.6C451.777 352.467 453.537 358.795 454.416 362.662C455.648 368.111 456 373.473 456 386.393C456 399.312 455.648 404.762 454.416 410.562C453.537 414.693 451.777 421.197 450.545 425.064C449.314 428.932 446.411 436.051 444.035 440.885C441.66 445.719 437.173 453.277 434.006 457.584C430.927 461.891 425.296 468.658 421.513 472.438C417.73 476.217 411.66 481.666 408.053 484.391C404.446 487.115 399.079 490.719 396.176 492.477C393.273 494.146 387.73 496.959 383.859 498.717C379.988 500.475 373.478 502.848 369.343 503.99C365.208 505.221 358.258 506.803 353.947 507.594C349.372 508.385 341.015 509 334.153 509C327.378 509 318.669 508.385 313.918 507.594C309.343 506.891 300.809 504.693 295.003 502.76C289.197 500.826 281.103 497.486 276.968 495.201C272.833 493.004 266.411 488.961 262.54 486.236C258.757 483.512 252.422 478.15 248.463 474.283C244.504 470.416 239.49 464.879 237.202 461.979C235.003 459.078 231.484 453.98 229.46 450.553C227.349 447.125 224.182 440.797 222.422 436.49C220.575 432.184 218.199 425.855 217.232 422.428C216.176 419 214.68 413.287 213.977 409.684C213.273 406.08 212.393 397.73 212.129 391.227C211.777 383.756 212.041 376.549 212.657 371.891C213.273 367.76 214.504 361.256 215.472 357.389C216.44 353.521 218.199 347.809 219.255 344.645C220.399 341.48 222.422 336.734 223.742 334.098C225.062 331.461 227.525 326.891 229.284 323.99C231.044 321.09 234.211 316.344 236.411 313.443C238.61 310.543 243.009 305.445 246.176 302.105C249.343 298.854 255.062 293.668 258.933 290.68C262.804 287.604 268.346 283.736 271.249 282.066C274.153 280.309 278.727 277.848 281.367 276.529C284.006 275.211 288.757 273.189 291.924 272.047C295.091 270.992 300.194 269.41 303.361 268.619Z" fill="#006DF0"/>
<path d="M175.795 299.811V106.344V59.0591H183.009C187.056 59.0591 194.886 59.8501 200.428 60.729C205.971 61.6958 214.504 63.4536 219.343 64.6841C224.182 65.9146 232.1 68.4634 236.938 70.3091C241.777 72.2427 247.936 74.8794 250.575 76.1978C253.214 77.5161 258.757 80.5923 262.892 83.0533C267.026 85.5142 274.153 90.3482 278.727 93.7759C283.302 97.2915 291.044 103.971 295.795 108.805C300.633 113.551 307.32 121.286 310.839 125.856C314.27 130.426 319.109 137.545 321.572 141.676C324.035 145.807 327.378 151.96 329.138 155.299C330.809 158.639 333.449 165.055 335.032 169.362C336.616 173.668 338.903 180.876 340.047 185.182C341.279 189.489 342.95 198.014 343.918 204.079C344.974 211.374 345.589 219.635 345.589 228.688C345.501 236.159 345.15 245.299 344.71 248.903C344.182 252.506 343.478 257.604 342.07 264.723H333.273C328.434 264.723 321.572 265.163 318.053 265.69C314.622 266.217 308.551 267.448 304.68 268.327C300.809 269.293 295.091 271.051 291.924 272.106C288.757 273.249 284.006 275.27 281.367 276.588C278.727 277.907 274.153 280.368 271.249 282.126C268.346 283.795 262.804 287.663 258.933 290.739C255.062 293.727 249.343 298.913 246.176 302.165C243.009 305.504 238.61 310.602 236.411 313.502C234.211 316.403 231.044 321.149 229.285 324.049C227.525 326.95 225.062 331.52 223.742 334.157C222.422 336.793 220.399 341.54 219.255 344.704C218.199 347.868 216.44 353.581 215.472 357.448C214.504 361.315 213.273 367.819 212.657 371.95C212.041 376.608 211.777 383.815 212.129 391.286C212.393 397.79 213.273 406.139 213.977 409.743C214.68 413.346 216.264 419.499 217.496 423.366C218.727 427.233 220.751 432.77 224.27 440.944L220.927 445.075C219.079 447.36 208.522 460.631 197.349 474.694C186.176 488.756 176.27 500.762 175.83 500.85C175.479 500.85 175.795 455.182 175.795 400.075C175.795 317.828 174.98 301.883 175.795 299.811Z" fill="#CD2A00"/>
<path d="M175.795 299.381L175.971 226.52L176.059 153.658L182.305 154.186C185.736 154.537 191.543 155.592 195.15 156.559C198.757 157.613 204.563 159.811 207.906 161.48C211.337 163.15 216.792 166.578 220.135 169.127C223.566 171.588 228.581 176.51 231.396 179.85C234.299 183.277 238.522 189.869 240.897 194.791C243.273 199.625 245.824 206.129 246.616 209.293C247.32 212.457 248.199 217.994 248.463 221.598C248.815 225.465 248.639 231.266 247.936 235.66C247.408 239.791 245.912 246.119 244.768 249.723C243.625 253.326 240.897 259.391 238.698 263.17C236.499 266.861 231.836 272.926 228.405 276.617C224.886 280.309 219.431 284.967 216.264 287.076C213.097 289.098 207.818 291.998 204.387 293.492C201.044 294.898 195.238 296.656 191.631 297.447C188.023 298.238 182.921 298.941 175.795 299.381Z" fill="#D8D7DA"/>
<path d="M148.522 159.371C152.129 157.877 157.936 156.119 161.279 155.416C164.622 154.625 169.284 154.01 175.795 153.922V299.381L171.132 299.117C168.669 298.941 163.566 298.238 159.959 297.447C156.352 296.744 150.545 294.898 147.202 293.404C143.859 291.91 138.141 288.658 134.534 286.285C130.927 283.824 125.648 279.254 122.657 276.09C119.666 272.926 115.443 267.389 113.331 263.785C111.132 260.182 108.317 254.029 106.997 250.162C105.677 246.295 104.182 239.527 103.566 235.221C103.038 230.738 102.862 224.674 103.214 221.158C103.478 217.818 104.358 212.457 105.15 209.293C105.941 206.129 108.053 200.24 109.988 196.109C111.836 191.979 115.531 185.826 118.082 182.486C120.721 179.146 124.944 174.488 127.496 172.291C130.135 170.094 134.446 166.842 137.085 165.084C139.724 163.414 144.915 160.777 148.522 159.371Z" fill="white"/>
<path d="M352.628 347.281L352.716 325.221L352.804 303.16L355.531 303.775C357.114 304.127 361.337 305.533 364.944 306.939C368.551 308.346 373.918 310.895 376.821 312.564C379.724 314.322 384.211 317.398 386.85 319.42C389.49 321.441 394.153 325.836 397.32 329.264C400.399 332.691 404.886 338.58 407.261 342.447C409.636 346.314 412.716 352.467 414.123 356.07C415.531 359.674 416.938 363.98 417.73 368.375H373.742V405.289H417.73L417.202 408.189C416.938 409.684 415.531 413.99 414.123 417.594C412.716 421.197 409.548 427.525 406.997 431.656C404.182 436.227 399.255 442.203 394.416 447.037C389.578 451.871 383.595 456.793 379.021 459.605C374.886 462.154 368.551 465.318 364.944 466.725C361.337 468.131 357.026 469.537 352.628 470.328V426.383H334.152V347.281H352.628Z" fill="#D8D7DA"/>
<path d="M296.059 310.016C298.61 308.785 303.625 306.764 307.144 305.533H307.056C310.575 304.391 314.006 303.336 314.534 303.336C315.413 303.336 315.677 308.346 315.677 347.281H334.152V426.383H315.677V470.328L312.774 469.801C311.279 469.537 306.968 468.131 303.361 466.725C299.754 465.318 293.595 462.242 289.724 459.869C285.853 457.496 279.959 453.014 276.528 449.938C273.097 446.773 268.698 442.115 266.674 439.479C264.651 436.842 261.572 432.359 259.812 429.459C258.141 426.559 255.589 421.197 254.182 417.594C252.774 413.99 251.367 409.684 250.575 405.289L294.123 404.85L294.563 368.375H272.569C258.493 368.375 250.575 368.023 250.575 367.496C250.575 366.969 251.543 363.629 252.774 360.025C254.006 356.422 256.029 351.324 257.261 348.863C258.581 346.314 261.484 341.48 263.859 338.053C266.147 334.625 270.985 329.088 274.504 325.66C278.023 322.232 283.302 317.838 286.205 315.904C289.108 313.971 293.595 311.334 296.059 310.016Z" fill="white"/>
</svg>
