<svg width="512" height="512" viewBox="0 0 512 512" fill="none" xmlns="http://www.w3.org/2000/svg">
<path d="M213.473 36.1967C219.28 34.6994 227.639 33.0258 231.951 32.3212C236.262 31.7046 243.565 31.1762 256.148 31V127.888H252.892C251.044 127.888 246.997 128.328 243.829 128.857C240.662 129.385 235.734 130.618 232.83 131.587C229.927 132.556 225.351 134.494 222.712 135.903C220.072 137.224 215.936 139.691 213.473 141.452C211.097 143.214 206.698 146.913 203.882 149.644C201.066 152.462 196.843 157.571 194.643 160.918C192.355 164.265 189.276 170.078 187.78 173.689C186.284 177.301 184.348 183.642 183.468 187.782C182.412 193.331 182.148 197.911 182.412 205.398C182.764 212.268 183.556 217.641 184.876 222.133C185.932 225.745 188.22 231.558 189.892 234.905C191.563 238.252 194.995 243.889 197.635 247.236C200.186 250.583 204.41 255.251 206.962 257.453C209.601 259.655 214.089 263.002 216.992 264.94C219.896 266.79 225.087 269.432 228.431 270.753C231.775 272.163 237.494 273.836 240.926 274.541C244.445 275.245 249.285 275.862 256.148 275.862V378.475C256.148 441.1 256.481 482.037 256.041 481.949C255.602 481.773 224.295 442.597 187.34 396.091C150.384 349.585 118.62 309.332 116.596 306.69C114.661 304.048 110.789 298.234 108.149 293.918C105.422 289.602 102.254 284.053 101.022 281.587C99.7903 279.209 97.2386 273.22 95.3028 268.375C93.455 263.531 90.9913 256.837 90.0234 253.402C89.0556 250.055 87.3838 243.272 86.4159 238.428C85.448 233.584 84.2161 224.511 83.6002 218.17C83.0723 211.652 82.8083 202.139 83.1603 196.15C83.4242 190.336 84.3041 181.793 85.008 177.213C85.7999 172.632 87.3838 165.058 88.6156 160.477C89.8475 155.897 91.8712 149.291 93.0151 145.944C94.2469 142.597 97.0626 135.815 99.2623 130.971C101.55 126.126 105.51 118.639 108.149 114.235C110.789 109.831 115.364 103.137 118.268 99.2619C121.172 95.3864 128.387 87.4592 134.194 81.5578C140.089 75.7446 148.009 68.6101 151.88 65.7035C155.752 62.7968 162.263 58.3928 166.398 55.9266C170.534 53.4604 176.781 50.0252 180.301 48.2636C183.732 46.5021 190.332 43.6835 194.731 42.01C199.218 40.2484 207.665 37.6941 213.473 36.1967Z" fill="#FF3501"/>
<path d="M256.148 127.888V79.4439V31H263.187C267.058 31 274.449 31.6166 279.641 32.4093C284.92 33.1139 293.455 34.8755 298.823 36.2848C304.19 37.6941 311.669 39.9841 315.541 41.4815C319.412 42.8908 325.747 45.5332 329.619 47.2948C333.49 49.1444 340.002 52.5796 344.137 55.0458C348.273 57.512 355.576 62.5326 360.415 66.1439C365.255 69.7551 373.35 76.9777 378.453 82.0863C383.556 87.1949 390.332 94.6817 393.411 98.8215C396.491 102.961 400.89 109.303 403.178 112.914C405.378 116.526 409.249 123.484 411.625 128.328C414.089 133.173 417.696 141.893 419.632 147.706C421.568 153.519 424.208 162.856 425.44 168.405C426.671 173.954 428.079 183.907 428.695 190.424C429.487 199.321 429.487 205.574 428.695 215.263C428.167 222.486 426.935 232.527 425.879 237.723C424.912 243.008 422.448 251.992 420.6 257.806C418.664 263.619 415.057 272.691 412.417 278.064C409.865 283.437 405.554 291.364 402.826 295.68C400.099 299.996 393.059 309.861 387.076 317.436C381.093 325.099 349.504 364.999 316.86 406.132C284.216 447.353 256.504 481.958 256.152 481.958C255.712 482.046 256.148 434.934 256.148 275.862H260.547C263.011 275.862 267.85 275.245 271.282 274.541C274.801 273.836 280.433 272.163 283.864 270.753C287.296 269.432 292.399 266.79 295.303 264.94C298.207 263.002 302.694 259.655 305.334 257.453C307.885 255.251 312.109 250.583 314.661 247.236C317.3 243.889 320.732 238.252 322.404 234.905C324.076 231.558 326.363 225.745 327.419 222.133C328.739 217.641 329.531 212.268 329.883 205.398C330.147 197.911 329.883 193.331 328.827 187.782C327.947 183.642 326.011 177.301 324.515 173.689C323.02 170.078 319.94 164.265 317.652 160.918C315.453 157.571 311.229 152.462 308.413 149.644C305.598 146.913 301.286 143.214 298.823 141.452C296.447 139.691 292.223 137.224 289.584 135.903C286.944 134.494 282.369 132.556 279.465 131.587C276.561 130.618 271.634 129.385 268.466 128.857C265.299 128.328 261.251 127.888 256.148 127.888Z" fill="#CD2A00"/>
<path d="M233.27 131.499C236.438 130.442 240.925 129.209 243.389 128.857C245.765 128.416 249.636 128.064 256.148 127.888V275.862H251.748C249.284 275.862 244.445 275.245 241.013 274.541C237.494 273.836 231.775 272.163 228.431 270.753C225.087 269.432 219.896 266.79 216.992 264.94C214.089 263.002 209.601 259.655 206.962 257.453C204.41 255.251 200.186 250.583 197.635 247.236C194.995 243.889 191.563 238.252 189.892 234.905C188.22 231.558 185.932 225.745 184.876 222.133C183.556 217.641 182.764 212.268 182.412 205.398C182.148 197.911 182.412 193.331 183.468 187.782C184.348 183.642 186.284 177.301 187.78 173.689C189.276 170.078 192.355 164.265 194.643 160.918C196.843 157.571 201.066 152.462 203.882 149.644C206.698 146.913 211.009 143.214 213.473 141.452C215.848 139.691 220.072 137.224 222.712 135.815C225.351 134.494 230.103 132.556 233.27 131.499Z" fill="white"/>
<path d="M256.148 275.862V201.875V127.888H259.403C261.251 127.888 265.299 128.328 268.466 128.857C271.634 129.385 276.561 130.618 279.465 131.587C282.369 132.556 286.944 134.494 289.584 135.903C292.223 137.224 296.359 139.691 298.823 141.452C301.198 143.214 305.598 146.913 308.413 149.644C311.229 152.462 315.453 157.571 317.652 160.918C319.94 164.265 323.02 170.078 324.516 173.689C326.011 177.301 327.947 183.642 328.827 187.782C329.883 193.331 330.147 197.911 329.883 205.398C329.531 212.268 328.739 217.641 327.419 222.133C326.363 225.745 324.076 231.558 322.404 234.905C320.732 238.252 317.3 243.889 314.661 247.236C312.109 250.583 307.886 255.251 305.334 257.453C302.694 259.655 298.207 263.002 295.303 264.94C292.399 266.79 287.296 269.432 283.864 270.753C280.433 272.163 274.801 273.836 271.37 274.541C267.85 275.245 263.011 275.862 256.148 275.862Z" fill="#D8D7DA"/>
</svg>
