<?xml version="1.0" encoding="UTF-8"?>
<svg id="_Слой_2" data-name="Слой 2" xmlns="http://www.w3.org/2000/svg" viewBox="0 0 28.18 37.63">
  <defs>
    <style>
      .cls-1 {
        fill: #fff;
      }

      .cls-2 {
        fill: #f1a753;
      }

      .cls-2, .cls-3 {
        fill-rule: evenodd;
      }

      .cls-3 {
        fill: #f7be5d;
      }
    </style>
  </defs>
  <g id="alarmSet">
    <g>
      <path class="cls-3" d="m25.37,27.46c-.65-3.73.71-10.75-.77-14.54-.77-1.86-1.96-3.61-3.15-4.51-2.74-2.22-4.1-2.04-4.88-2.58-.83-.06-1.49-.18-2.5-.18s-1.61.12-2.5.18l-.06.12c-3.93,1.08-6.72,3.61-7.97,7.15-1.37,3.85-.36,10.03-.71,14.36h17.43s5.12,0,5.12,0Z"/>
      <path class="cls-3" d="m9.73,33.65c-.18,1.02.71,2.28,1.31,2.82,3.33,2.94,7.79-.36,7.38-2.82l.06-1.08h-8.8s.06,1.08.06,1.08Z"/>
      <path class="cls-2" d="m18.53,32.57c1.84,0,7.32.36,8.45-.42,2.14-1.44,1.31-4.75-1.61-4.69h-3.99s-18.56,0-18.56,0c-3.21.06-3.63,3.61-1.55,4.75,1.19.6,6.54.36,8.27.36h.12s8.8,0,8.8,0h.06Z"/>
      <path class="cls-2" d="m11.57,5.83c.89-.06,1.49-.18,2.5-.18s1.67.12,2.5.18c0-2.7.48-5.83-2.5-5.83-1.25,0-2.02.72-2.32,1.62-.36.9-.18,3.12-.18,4.21h0Z"/>
    </g>
    <g>
      <path class="cls-1" d="m15.59,22.07c.41.41.62.91.62,1.5s-.21,1.07-.62,1.49c-.41.42-.91.63-1.5.63s-1.09-.21-1.5-.63c-.41-.42-.61-.92-.61-1.49s.21-1.09.61-1.5c.41-.41.91-.61,1.5-.61s1.09.21,1.5.61Z"/>
      <path class="cls-1" d="m15.83,9.39l-.32,9.6c-.02.56-.48,1.01-1.04,1.01h-.78c-.56,0-1.02-.44-1.04-1.01l-.34-9.6c-.02-.59.45-1.08,1.04-1.08h1.45c.59,0,1.06.49,1.04,1.08Z"/>
    </g>
  </g>
</svg>