<svg width="512" height="512" viewBox="0 0 512 512" fill="none" xmlns="http://www.w3.org/2000/svg">
<path d="M31.4386 310.503V297.355V284.207H76.1754V310.503H31.4386Z" fill="#FF7F3B"/>
<path d="M256 151.851V122.926V94L435.386 94.4383L441.088 96.3666C444.246 97.4185 449.333 99.7851 452.404 101.626C455.561 103.467 460.649 107.586 463.807 110.742C466.965 113.897 470.912 118.631 472.404 121.26C473.982 123.89 476.351 128.974 477.579 132.567C478.807 136.161 480.123 142.034 481 151.851H256Z" fill="#0F0F4D"/>
<path d="M360.035 344.512C362.404 343.198 366.526 341.532 369.158 340.831C371.789 340.13 376.175 339.516 378.807 339.429C381.439 339.429 386 340.042 388.895 340.743C391.789 341.532 396.088 343.198 398.456 344.512C400.825 345.827 404.509 348.632 406.702 350.824C408.895 353.015 411.614 356.258 412.754 358.011C413.895 359.852 415.561 363.709 416.526 366.601C417.667 370.02 418.281 374.227 418.281 378.61C418.281 382.379 417.667 387.638 416.877 390.267C416.088 392.897 414.684 396.491 413.632 398.156C412.667 399.822 410.561 402.714 409.158 404.555C407.667 406.396 404.509 409.288 402.053 410.866C399.684 412.531 395.123 414.898 391.965 416.125C387.491 417.878 384.684 418.316 379.07 418.316C373.018 418.316 370.737 417.878 365.474 415.687C361.965 414.197 357.667 411.918 356 410.603C354.333 409.376 351.789 407.097 350.386 405.607C348.982 404.204 346.877 401.399 345.649 399.471C344.421 397.543 342.667 393.686 341.789 390.881C340.825 387.813 340.211 383.255 340.211 378.873C340.211 374.198 340.795 370.107 341.965 366.601C342.93 363.709 344.684 359.852 345.825 358.011C346.965 356.258 349.596 353.015 351.789 350.824C353.895 348.632 357.667 345.827 360.035 344.512Z" fill="#0F0F4D"/>
<path d="M31.4386 257.911V204.881V151.851H256V178.147H228.807V231.615H256V257.911H284.947V392.02H256V257.911H31.4386Z" fill="#45AFFF"/>
<path d="M381.439 338.99V298.495V257.911H480.561V284.207H435.825V310.503H480.561V392.02H448.544C418.456 392.02 416.526 391.933 417.14 390.53C417.404 389.654 417.842 385.184 418.105 380.626C418.368 373.789 418.105 371.334 416.614 366.776C415.561 363.796 413.807 359.852 412.667 358.099C411.614 356.258 408.719 352.84 406.351 350.561C403.982 348.194 399.684 345.126 396.789 343.724C393.895 342.321 389.246 340.656 381.439 338.99Z" fill="#45AFFF"/>
<path d="M256 231.615V204.881V178.147H284.947V231.615H256Z" fill="#ECE5F2"/>
<path d="M311.263 365.725V271.936V178.147H355.123L355.035 347.756L350.912 351.788C348.632 354.067 345.737 358.099 341.965 365.725H311.263Z" fill="#ECE5F2"/>
<path d="M256 178.147V164.999V151.851H480.561V257.911H381.439V339.429H378.193C376.351 339.429 372.491 340.042 369.596 340.743C366.702 341.532 362.579 343.11 360.386 344.337C358.193 345.477 356.175 346.441 355.825 346.441C355.386 346.441 355.123 308.575 355.123 178.147H311.263V365.725H341.965L341.351 368.091C340.912 369.494 340.649 374.315 340.649 378.873C340.649 383.43 340.912 388.251 341.965 392.02H284.947V257.911H256V231.615H284.947V178.147H256Z" fill="#1384EA"/>
<path d="M31.4386 284.207V271.059V257.911H256V392.021H213.018C172.491 392.021 170.035 391.933 170.649 390.443C170.912 389.654 171.351 385.184 171.614 380.626C171.877 373.789 171.614 371.334 170.123 366.776C169.07 363.796 167.316 359.852 166.175 358.099C165.123 356.258 162.404 353.015 160.211 350.824C158.018 348.632 154.246 345.827 151.965 344.513C149.596 343.198 145.298 341.532 142.404 340.831C139.509 340.042 135.211 339.429 132.754 339.429C130.386 339.429 126 340.042 123.105 340.831C120.211 341.532 116.088 343.11 113.895 344.337C111.702 345.477 108.105 348.194 105.825 350.385C103.456 352.577 100.649 355.907 99.4211 357.836C98.193 359.764 96.4386 363.796 95.386 366.776C93.8947 371.334 93.6316 373.789 93.8947 380.626C94.1579 385.184 94.5965 389.654 94.8597 390.443C95.4737 391.933 93.5439 392.021 31.4386 392.021V310.503H76.1754V284.207H31.4386Z" fill="#8DD4FF"/>
<path d="M435.825 310.503V297.355V284.207H480.561V310.503H435.825Z" fill="#F4C338"/>
<path d="M61.2632 101.1C64.4211 99.4345 69.6842 97.1555 73.1053 96.1037L79.2456 94.1753L256 94V151.851H31L31.5263 145.978C31.8772 142.647 33.193 137.038 34.4211 133.444C35.6491 129.85 38.0175 124.679 39.5965 122.049C41.0877 119.419 45.386 114.248 48.9825 110.654C53.0175 106.622 57.7544 102.941 61.2632 101.1Z" fill="#333373"/>
<path d="M113.895 344.25C116.088 343.11 120.035 341.532 122.667 340.831C125.298 340.13 129.684 339.516 132.316 339.429C134.947 339.429 139.509 340.042 142.404 340.743C145.298 341.532 149.596 343.198 151.965 344.512C154.246 345.827 158.018 348.632 160.211 350.824C162.404 352.927 165.123 356.258 166.175 358.011C167.316 359.852 169.07 363.709 170.035 366.601C171.175 370.02 171.789 374.227 171.789 378.61C171.789 382.905 171.175 387.55 170.123 391.144C169.158 394.212 166.789 398.945 164.947 401.662C163.018 404.292 159.947 407.71 158.105 409.201C156.175 410.691 153.105 412.707 151.175 413.671C149.246 414.723 145.912 416.125 143.719 416.914C141.439 417.703 136.877 418.229 132.754 418.316C127.228 418.316 124.421 417.79 119.596 415.95C116.263 414.635 111.702 412.356 109.509 410.778C107.316 409.288 103.719 405.694 101.439 402.714C98.6316 399.12 96.614 395.264 95.4737 391.319C94.3333 387.55 93.7193 382.992 93.7193 378.61C93.7193 374.227 94.3333 370.02 95.4737 366.601C96.4386 363.709 98.193 359.764 99.4211 357.836C100.649 355.907 103.456 352.577 105.737 350.385C108.105 348.194 111.702 345.477 113.895 344.25Z" fill="#333373"/>
<path d="M228.807 231.615V204.881V178.147H256V231.615H228.807Z" fill="#FFF4F4"/>
<path d="M381.439 231.615V204.881V178.147H454.246V231.615H381.439Z" fill="#ECE5F2"/>
<path d="M368.456 371.86C369.596 370.195 371.877 368.091 373.544 367.302C375.211 366.426 377.842 365.725 379.246 365.725C380.649 365.725 383.281 366.426 384.947 367.302C386.614 368.091 388.895 370.195 390.035 371.86C391.351 373.876 392.053 376.243 392.053 378.873C392.053 381.502 391.351 383.869 390.035 385.885C388.895 387.55 386.614 389.654 384.947 390.443C383.281 391.319 380.649 392.02 379.246 392.02C377.842 392.02 375.211 391.319 373.544 390.443C371.877 389.654 369.596 387.55 368.456 385.885C367.14 383.869 366.439 381.502 366.439 378.873C366.439 376.243 367.14 373.876 368.456 371.86Z" fill="#ECE5F2"/>
<path d="M57.7544 231.615V204.881V178.147H117.404V231.615H57.7544Z" fill="#FFF4F4"/>
<path d="M143.719 231.615V204.881V178.147H202.491V231.615H143.719Z" fill="#FFF4F4"/>
<path d="M121.965 371.86C123.105 370.195 125.386 368.091 127.053 367.302C128.719 366.426 131.263 365.725 132.754 365.725C134.246 365.725 136.789 366.426 138.456 367.302C140.123 368.091 142.404 370.195 143.544 371.86C144.86 373.876 145.561 376.243 145.561 378.873C145.561 381.502 144.86 383.869 143.544 385.885C142.404 387.55 140.123 389.654 138.456 390.443C136.789 391.319 134.246 392.02 132.754 392.02C131.263 392.02 128.719 391.319 127.053 390.443C125.386 389.654 123.105 387.55 121.965 385.885C120.649 383.869 119.947 381.502 119.947 378.873C119.947 376.243 120.649 373.876 121.965 371.86Z" fill="#FFF4F4"/>
</svg>
