<?xml version="1.0" encoding="UTF-8"?>
<svg id="_Слой_2" data-name="Слой 2" xmlns="http://www.w3.org/2000/svg" viewBox="0 0 40.71 37.21">
  <defs>
    <style>
      .cls-1, .cls-2, .cls-3, .cls-4 {
        stroke-miterlimit: 10;
      }

      .cls-1, .cls-3 {
        fill: #de6855;
        stroke-width: 2px;
      }

      .cls-1, .cls-3, .cls-4, .cls-5 {
        fill-rule: evenodd;
      }

      .cls-1, .cls-4 {
        stroke: #fefefe;
      }

      .cls-2 {
        fill: none;
        stroke: #c45944;
        stroke-width: 1.52px;
      }

      .cls-3 {
        stroke: #efeff3;
      }

      .cls-4 {
        fill: #fefefe;
        stroke-width: .43px;
      }

      .cls-5 {
        fill: #c45944;
      }

      .cls-6 {
        fill: #1d1d1b;
      }
    </style>
  </defs>
  <g id="_Слой_1-2" data-name="Слой 1">
    <g>
      <path class="cls-1" d="m1.01,1.89c-.09.72.48.92.99,1.37l3,2.61c2.01,1.89,4.48,3.87,6.55,5.73.2.17.26.23.45.4.28.2.6.52.88.77l1.79,1.52,1.36,1.23c.85.74,3.94,3.49,4.25,3.52.48.06,1.79-1.23,2.18-1.6l2.1-1.8c.45-.37.99-1,1.47-1.23.09-.26.11-.2.34-.37l3.09-2.69c.6-.54,1.13-1.03,1.73-1.52l2.15-1.89c.2-.17.28-.2.45-.37.26-.26.62-.57.88-.77,1.02-.8,2.55-2.29,3.54-3.09.74-.6,1.56-1.12,1.47-1.8-.2-1.15-2.98-.86-4.17-.86H5.26c-1.3,0-4.08-.26-4.25.86h0Z"/>
      <path class="cls-3" d="m1.01,26.89c.09.54,1.02.83,1.59.83,5.81.06,11.96,0,17.74,0h17.69c.54,0,1.56-.23,1.67-.83.09-.69-.77-1.26-1.45-1.8-.2-.14-.28-.26-.45-.4l-8.33-7.27c-.6-.52-1.16-.97-1.76-1.52l-1.67-1.49c-.48.23-1.02.86-1.47,1.23l-2.1,1.8c-.4.37-1.7,1.66-2.18,1.6-.31-.03-3.4-2.78-4.25-3.52l-1.28-1.13c-.17.14-.09.06-.23.19L1.97,25.51c-.17.14-.28.2-.45.37-.31.29-.57.43-.51,1h0Z"/>
      <path class="cls-5" d="m1.04,26.89c-.06-.57.2-.72.51-1,.17-.17.28-.23.45-.37l12.56-10.94c.14-.14.07-.07.23-.19l-1.87-1.62c-.28-.26-.6-.57-.88-.77-.2-.17-.26-.23-.45-.4-2.07-1.86-4.54-3.84-6.55-5.73l-3-2.61c-.51-.46-1.08-.66-.99-1.37-.23.11-.23.14-.34.46-.28.74-.11,11.14-.11,12.02v9.68c0,.86-.23,2.4.45,2.83h0Z"/>
      <path class="cls-5" d="m26.04,14.4l1.67,1.49c.6.54,1.16,1,1.76,1.52l8.33,7.27c.17.14.26.26.45.4.68.54,1.53,1.12,1.45,1.8.65-.43.45-1.89.45-2.75V4.7c0-.77.17-2.41-.45-2.81.09.69-.74,1.2-1.47,1.8-.99.8-2.52,2.29-3.54,3.09-.26.2-.62.52-.88.77-.17.17-.26.2-.45.37l-2.15,1.89c-.6.49-1.13.97-1.73,1.52l-3.09,2.69c-.23.17-.26.11-.34.37h0Z"/>
      <path class="cls-4" d="m20.74,25.63c3.34,0,6.04-2.75,6.04-6.1s-2.69-6.1-6.04-6.1-6.04,2.75-6.04,6.1,2.72,6.1,6.04,6.1h0Z"/>
      <polyline class="cls-2" points="17.59 29.35 17.59 33.04 .53 33.04"/>
      <polyline class="cls-2" points="23.09 29.35 23.09 33.04 40.15 33.04"/>
      <line class="cls-2" x1=".55" y1="36.45" x2="40.15" y2="36.45"/>
      <path class="cls-6" d="m22.25,15.61c.39.16.77.4,1.14.73l-.62.7c-.31-.25-.62-.43-.92-.55-.3-.12-.62-.17-.97-.17-.43,0-.79.1-1.07.3-.28.2-.42.49-.42.88,0,.24.05.44.14.61.1.16.27.31.53.45.26.14.64.28,1.13.43.52.16.95.33,1.3.52.34.18.62.44.83.76.21.32.32.73.32,1.23s-.12.9-.35,1.27c-.24.37-.58.66-1.02.86s-.97.31-1.58.31c-1.14,0-2.08-.36-2.81-1.07l.62-.7c.34.27.68.48,1.02.62.34.14.73.21,1.15.21.51,0,.94-.13,1.27-.38s.5-.62.5-1.1c0-.27-.05-.5-.16-.68-.1-.18-.28-.34-.53-.49s-.62-.29-1.1-.43c-.85-.26-1.47-.56-1.86-.92-.39-.36-.59-.85-.59-1.46,0-.42.11-.79.33-1.12.22-.33.53-.58.92-.77.4-.18.85-.28,1.35-.28.55,0,1.02.08,1.42.23Z"/>
    </g>
  </g>
</svg>