<svg width="512" height="512" viewBox="0 0 512 512" fill="none" xmlns="http://www.w3.org/2000/svg">
<path fill-rule="evenodd" clip-rule="evenodd" d="M256 154.926H342.133C414.555 154.926 429.32 155.102 435.121 156.244C439.076 156.947 444.789 158.969 448.92 160.99C452.787 162.924 457.797 166 459.994 167.846C462.191 169.691 465.883 173.383 468.168 176.02C470.365 178.656 473.441 183.051 474.848 185.688C476.254 188.324 478.188 193.686 479.242 197.553C480.209 201.42 481 206.43 481 212.934H256V239.301H226.117L226.557 292.475L256 292.914V319.281H382.123L413.764 335.98H481V364.105H431.781V390.473H481V454.633H448.92C418.773 454.633 416.84 454.545 417.455 453.051C417.719 452.26 418.158 447.777 418.422 443.207C418.686 436.352 418.422 433.891 416.928 429.32C415.873 426.332 414.115 422.289 412.885 420.355C411.654 418.422 408.93 415.17 406.82 413.061C404.711 411.039 401.02 408.314 398.734 406.996C396.361 405.678 392.055 404.008 389.154 403.305C386.254 402.514 381.859 401.898 379.486 401.898C377.025 401.898 372.719 402.514 369.818 403.305C366.918 404.008 362.611 405.678 360.238 406.996C357.953 408.314 354.262 411.039 352.152 413.061C350.043 415.17 347.318 418.422 346.088 420.355C344.857 422.289 343.1 426.332 342.045 429.32C340.551 433.891 340.287 436.352 340.551 443.207C340.814 447.777 341.254 452.26 341.518 453.051C342.133 454.545 339.672 454.633 256 454.633V319.281H31V212.934H256V154.926ZM31 346.527H75.8242V372.895H31V346.527Z" fill="#FF3044"/>
<path d="M256 57.3672V44.1836V31H481V57.3672H256Z" fill="#0F0F4D"/>
<path d="M255.824 129.174C255.736 114.936 256 103.07 256.439 102.807C256.879 102.455 270.326 102.191 286.498 102.191C302.582 102.191 315.766 102.367 315.766 102.631C315.766 102.895 317.523 113.881 319.721 126.977C321.918 140.16 323.852 151.85 324.555 154.926H256L255.824 129.174Z" fill="#0F0F4D"/>
<path d="M360.238 406.996C362.611 405.678 366.742 404.008 369.379 403.305C372.016 402.602 376.41 401.986 379.047 401.986C381.684 401.898 386.254 402.514 389.154 403.305C392.055 404.008 396.361 405.678 398.734 406.996C401.02 408.314 404.711 411.039 406.82 413.148C408.93 415.17 411.654 418.422 412.885 420.355C414.115 422.289 415.873 426.244 416.84 429.145C417.982 432.572 418.598 436.791 418.598 441.273C418.598 444.965 417.982 450.238 417.191 452.875C416.4 455.512 414.994 459.115 413.939 460.785C412.885 462.455 410.863 465.355 409.457 467.201C407.963 469.047 404.711 471.947 402.338 473.617C399.877 475.199 395.395 477.572 392.23 478.803C387.748 480.561 384.936 481 379.223 481C373.158 481 370.961 480.561 365.6 478.363C362.172 476.869 357.865 474.584 356.195 473.354C354.525 472.035 351.977 469.75 350.57 468.256C349.164 466.85 347.055 464.037 345.824 462.104C344.594 460.17 342.836 456.303 341.957 453.578C340.99 450.414 340.375 445.844 340.375 441.449C340.375 436.762 340.961 432.66 342.133 429.145C343.1 426.244 344.857 422.289 346.088 420.355C347.318 418.422 350.043 415.17 352.152 413.148C354.262 411.039 357.953 408.314 360.238 406.996Z" fill="#0F0F4D"/>
<path d="M206.518 80.4808C206.43 80.1279 210.033 74.7465 214.516 68.5711L222.69 57.3672H239.389C248.529 57.3672 256 57.5436 256 57.8083C256 58.0729 252.66 62.8368 248.529 68.3947C244.398 73.9525 240.883 79.0693 240.619 79.5986C240.443 80.2161 243.783 85.5093 248.002 91.3318C252.309 97.1543 255.648 102.183 255.473 102.536C255.297 102.977 248.09 103.241 239.477 103.241C230.951 103.241 223.481 102.889 222.953 102.536C222.426 102.183 218.559 97.2425 214.428 91.5083C210.209 85.8622 206.693 80.8337 206.518 80.4808Z" fill="#ECE5F2"/>
<path d="M256 292.914V266.448V239.253H270.502H285.004V292.914H256Z" fill="#ECE5F2"/>
<path d="M256 239.301V226.117V212.934H481V335.98H413.764L382.123 319.281H256V292.915H270.502L285.004 292.745V239.301H256Z" fill="#DE005F"/>
<path d="M431.781 390.473V377.289V364.105H481V390.473H431.781Z" fill="#F4C338"/>
<path d="M72.748 157.211C75.6484 156.508 79.252 155.717 80.6582 155.541C82.0645 155.365 99.291 155.102 118.891 155.102C138.49 155.014 177.338 155.189 256 156.244V212.934H31V208.363C31 205.814 31.6152 201.332 32.4062 198.432C33.1094 195.531 35.2188 190.17 36.9766 186.566C39.4375 181.557 41.9863 178.129 47.6992 172.416C52.8848 167.143 57.0156 163.979 61.3223 161.781C64.75 160.023 69.8477 158.002 72.748 157.211Z" fill="#FF7F3B"/>
<path d="M31 346.527V332.904V319.281H256V454.633H212.934C172.328 454.633 169.867 454.545 170.482 453.051C170.746 452.26 171.186 447.777 171.449 443.207C171.713 436.352 171.449 433.891 169.955 429.32C168.9 426.332 167.143 422.289 165.912 420.355C164.682 418.422 161.957 415.17 159.848 413.061C157.738 411.039 154.047 408.314 151.762 406.996C149.389 405.678 145.082 404.008 142.182 403.305C139.281 402.514 134.975 401.898 132.514 401.898C130.141 401.898 125.746 402.514 122.846 403.305C119.945 404.008 115.639 405.678 113.266 406.996C110.98 408.314 107.289 411.039 105.18 413.061C103.07 415.17 100.346 418.422 99.1152 420.355C97.8848 422.289 96.127 426.332 95.0723 429.32C93.5781 433.891 93.3144 436.352 93.5781 443.207C93.8418 447.777 94.2813 452.26 94.5449 453.051C95.1602 454.545 93.2266 454.633 31 454.633V372.895H75.8242V346.527H31Z" fill="#FF7F3B"/>
<path d="M31 57.3672V44.1836V31H256V57.3672H31Z" fill="#333373"/>
<path d="M192.279 129.438C194.652 115.375 196.762 103.51 196.938 102.982C197.201 102.455 207.309 102.191 256.439 102.631L256 155.805H222.338C203.881 155.805 188.588 155.629 188.324 155.453C188.061 155.189 189.818 143.5 192.279 129.438Z" fill="#333373"/>
<path d="M113.266 406.996C115.639 405.678 119.77 404.008 122.406 403.305C125.043 402.602 129.438 401.986 132.074 401.986C134.711 401.898 139.281 402.514 142.182 403.305C145.082 404.008 149.389 405.678 151.762 406.996C154.047 408.314 157.738 411.039 159.848 413.148C161.957 415.17 164.682 418.422 165.912 420.355C167.143 422.289 168.9 426.244 169.867 429.145C171.01 432.572 171.625 436.791 171.625 441.273C171.625 445.58 171.01 450.15 169.955 453.754C168.988 456.918 166.615 461.664 164.77 464.301C162.836 466.938 159.76 470.365 157.914 471.859C155.98 473.354 152.904 475.375 150.971 476.43C149.037 477.396 145.697 478.803 143.5 479.594C141.215 480.385 136.645 481 132.514 481C127.504 481 124.076 480.473 120.648 479.154C118.012 478.1 114.584 476.693 113.178 475.902C111.684 475.199 109.047 473.354 107.113 471.859C105.268 470.365 102.191 466.938 100.258 464.301C98.4121 461.664 96.0391 456.918 95.0723 453.754C94.0176 450.15 93.4023 445.58 93.4023 441.273C93.4023 436.791 94.0176 432.572 95.1602 429.145C96.127 426.244 97.8848 422.289 99.1152 420.355C100.346 418.422 103.07 415.17 105.18 413.148C107.289 411.039 110.98 408.314 113.266 406.996Z" fill="#333373"/>
<path d="M226.557 292.475L226.293 265.932L226.117 239.301H256V292.914L226.557 292.475Z" fill="#FFF4F4"/>
<path d="M312.25 292.035V265.668V239.301H371.137V292.035H312.25Z" fill="#ECE5F2"/>
<path d="M398.295 297.748L398.383 268.568V239.301H454.633V309.613H420.795L398.295 297.748Z" fill="#ECE5F2"/>
<path d="M368.764 434.418C369.818 432.748 372.104 430.727 373.861 429.848C375.531 428.969 378.08 428.354 379.486 428.354C380.98 428.354 383.529 428.969 385.199 429.848C386.869 430.727 389.154 432.748 390.297 434.418C391.615 436.527 392.318 438.812 392.318 441.449C392.318 444.174 391.615 446.459 390.297 448.48C389.154 450.238 386.869 452.26 385.199 453.139C383.529 454.018 380.98 454.633 379.486 454.633C378.08 454.633 375.531 454.018 373.861 453.139C372.104 452.26 369.818 450.238 368.764 448.48C367.357 446.459 366.742 444.174 366.742 441.449C366.742 438.812 367.357 436.527 368.764 434.418Z" fill="#ECE5F2"/>
<path d="M57.3672 292.914V266.107V239.301H115.375V292.914H57.3672Z" fill="#FFF4F4"/>
<path d="M141.742 292.914V266.107V239.301H200.541L200.189 292.475L141.742 292.914Z" fill="#FFF4F4"/>
<path d="M121.703 434.418C122.846 432.748 125.131 430.639 126.801 429.848C128.471 428.969 131.107 428.266 132.514 428.266C134.008 428.266 136.557 428.969 138.227 429.848C139.896 430.639 142.182 432.748 143.324 434.418C144.643 436.439 145.346 438.812 145.346 441.449C145.346 444.086 144.643 446.459 143.324 448.48C142.182 450.15 139.896 452.26 138.227 453.051C136.557 453.93 134.008 454.633 132.514 454.633C131.02 454.633 128.471 453.93 126.801 453.051C125.131 452.26 122.846 450.15 121.703 448.48C120.385 446.459 119.682 444.086 119.682 441.449C119.682 438.812 120.385 436.439 121.703 434.418Z" fill="#FFF4F4"/>
</svg>
