<svg xmlns="http://www.w3.org/2000/svg" viewBox="0 0 39.69 40.09"><defs><style>.cls-1{fill:#19a4aa;}</style></defs><g id="Слой_2" data-name="Слой 2"><g id="Слой_1-2" data-name="Слой 1"><path class="cls-1" d="M2.75.6A5.86,5.86,0,0,1,4.05.11C4.51.06,5.27,0,6.72,0c1.93,0,2,0,2.38.2a2.68,2.68,0,0,1,.54.46,2.13,2.13,0,0,1,.31.66,1.27,1.27,0,0,1,0,.77,2.28,2.28,0,0,1-.34.66,1.7,1.7,0,0,1-.54.46c-.31.17-.48.17-2.44.22a6.83,6.83,0,0,0-2.35.18A2.54,2.54,0,0,0,3.86,4a1.91,1.91,0,0,0-.29.4A12,12,0,0,0,3.4,6.7c0,2-.06,2.15-.2,2.46a1.68,1.68,0,0,1-.45.55,1.84,1.84,0,0,1-.65.34,1.13,1.13,0,0,1-.77,0,2,2,0,0,1-.65-.32,1.61,1.61,0,0,1-.45-.54C.06,8.85,0,8.73,0,6.9A16,16,0,0,1,.11,4.24,5.2,5.2,0,0,1,.57,2.81,4.46,4.46,0,0,1,1.5,1.52,4.39,4.39,0,0,1,2.75.6ZM15.42.49A1.33,1.33,0,0,1,16,.14,18.24,18.24,0,0,1,19.81,0a24.65,24.65,0,0,1,3.8.11,1.72,1.72,0,0,1,.68.41,1.86,1.86,0,0,1,.37.57,1.74,1.74,0,0,1,.14.69,1.17,1.17,0,0,1-.17.65,1.6,1.6,0,0,1-.42.58,1.78,1.78,0,0,1-.6.37c-.2.06-1.73.08-3.77.08s-3.57,0-3.77-.08A1.75,1.75,0,0,1,15.48,3,1.85,1.85,0,0,1,15,2.43a1.83,1.83,0,0,1-.14-.71A2.14,2.14,0,0,1,15,1a4.79,4.79,0,0,1,.4-.51ZM30.5.29A1.56,1.56,0,0,1,31,.09,19.82,19.82,0,0,1,33.05,0a23.15,23.15,0,0,1,2.52.11A5.18,5.18,0,0,1,36.91.6a4.34,4.34,0,0,1,1.27.92,5.14,5.14,0,0,1,.94,1.29,5.17,5.17,0,0,1,.45,1.43,14.63,14.63,0,0,1,.09,2.66c0,1.83,0,1.95-.2,2.29a2.08,2.08,0,0,1-.46.54,1.88,1.88,0,0,1-.65.32,1.1,1.1,0,0,1-.76,0,1.61,1.61,0,0,1-.65-.34,1.85,1.85,0,0,1-.46-.55c-.17-.31-.17-.48-.22-2.46a9.77,9.77,0,0,0-.15-2.35,4.21,4.21,0,0,0-.28-.4,2.66,2.66,0,0,0-.43-.31c-.19-.12-.59-.15-2.35-.18-1.95,0-2.12,0-2.44-.22a1.66,1.66,0,0,1-.53-.46,1.87,1.87,0,0,1-.34-.66,1.13,1.13,0,0,1,0-.77,1.76,1.76,0,0,1,.31-.66,1.68,1.68,0,0,1,.45-.4ZM.51,15.57a1.62,1.62,0,0,1,.51-.4A3.3,3.3,0,0,1,1.7,15a1.41,1.41,0,0,1,.71.17,3.28,3.28,0,0,1,.57.43,2.64,2.64,0,0,1,.36.6c0,.2.06,1.78.06,3.81s0,3.64-.06,3.81a2.61,2.61,0,0,1-.34.6,3,3,0,0,1-.59.46,1.76,1.76,0,0,1-.65.14,2.69,2.69,0,0,1-.68-.11,2.79,2.79,0,0,1-.57-.4,1.83,1.83,0,0,1-.4-.66A25.88,25.88,0,0,1,0,20a25,25,0,0,1,.11-3.81,1.67,1.67,0,0,1,.4-.66Zm36.2.06a2.76,2.76,0,0,1,.54-.46A2.68,2.68,0,0,1,37.9,15a2,2,0,0,1,.71.14,1.69,1.69,0,0,1,.56.38,1.78,1.78,0,0,1,.4.68A22.52,22.52,0,0,1,39.69,20a23.35,23.35,0,0,1-.12,3.84,1.7,1.7,0,0,1-.4.66,2.73,2.73,0,0,1-.56.4,2.93,2.93,0,0,1-.68.11,1.92,1.92,0,0,1-.68-.14,4.1,4.1,0,0,1-.57-.46,2.29,2.29,0,0,1-.34-.6c0-.17-.08-1.75-.08-3.81s.05-3.61.08-3.81a2.12,2.12,0,0,1,.37-.6ZM.68,30.38a2.21,2.21,0,0,1,.51-.29A1.24,1.24,0,0,1,1.67,30a2.15,2.15,0,0,1,.57.09,2.69,2.69,0,0,1,.65.43,1.48,1.48,0,0,1,.43.72,18.92,18.92,0,0,1,.08,2.29,6.15,6.15,0,0,0,.14,2.14,1.63,1.63,0,0,0,.32.46,1.63,1.63,0,0,0,.42.35,7.39,7.39,0,0,0,2.35.17c2,0,2.13.05,2.44.2a2.43,2.43,0,0,1,.54.46A2.7,2.7,0,0,1,10,38a1.3,1.3,0,0,1,0,.78,2.45,2.45,0,0,1-.31.65,1.86,1.86,0,0,1-.54.43c-.34.2-.48.2-2.27.23A12.16,12.16,0,0,1,4.2,40a4.54,4.54,0,0,1-1.45-.46,4.39,4.39,0,0,1-1.25-.92,4.86,4.86,0,0,1-.93-1.28,5.73,5.73,0,0,1-.46-1.44A16.65,16.65,0,0,1,0,33.18c0-1.8,0-1.94.2-2.26a1.36,1.36,0,0,1,.45-.54Zm36.11.14a2.14,2.14,0,0,1,.63-.43,1.61,1.61,0,0,1,.51-.09,1.36,1.36,0,0,1,.54.09,2.32,2.32,0,0,1,.53.29,1.68,1.68,0,0,1,.46.54c.17.32.2.46.2,2.26a15.18,15.18,0,0,1-.09,2.69,4.71,4.71,0,0,1-1.39,2.72,4.34,4.34,0,0,1-1.27.92,4.15,4.15,0,0,1-1.42.46,12.27,12.27,0,0,1-2.64.11c-1.78,0-1.92,0-2.26-.23a1.74,1.74,0,0,1-.54-.43,2,2,0,0,1-.31-.65,1.16,1.16,0,0,1,0-.78,2.17,2.17,0,0,1,.34-.68,2.37,2.37,0,0,1,.53-.46c.32-.15.49-.17,2.44-.2a7.28,7.28,0,0,0,2.35-.17,1.69,1.69,0,0,0,.43-.35,1.09,1.09,0,0,0,.31-.49,7.17,7.17,0,0,0,.12-2.23,13.26,13.26,0,0,1,.11-2.23,2.21,2.21,0,0,1,.42-.66Zm-21.4,6.64a1.75,1.75,0,0,1,.6-.4,23.22,23.22,0,0,1,3.82-.11c2.07,0,3.6,0,3.8.08a1.56,1.56,0,0,1,.6.35,1.87,1.87,0,0,1,.42.57,1.38,1.38,0,0,1,.17.69,1.48,1.48,0,0,1-.14.65,2.49,2.49,0,0,1-.37.61,1.78,1.78,0,0,1-.68.37,20.34,20.34,0,0,1-3.77.11A20.34,20.34,0,0,1,16.07,40a1.64,1.64,0,0,1-.68-.37A2.49,2.49,0,0,1,15,39a1.64,1.64,0,0,1-.14-.65,2.16,2.16,0,0,1,.12-.66,2.94,2.94,0,0,1,.39-.52Z"/></g></g></svg>