<svg width="512" height="512" viewBox="0 0 512 512" fill="none" xmlns="http://www.w3.org/2000/svg">
<path d="M97.2253 99.5319C98.3324 98.2181 100.546 96.4202 102.276 95.5904L105.32 94H385.878L388.438 95.5904C389.891 96.4894 392.105 98.4255 393.281 99.9468C394.527 101.399 395.841 103.957 396.256 105.617C396.741 107.553 396.948 157.617 396.948 256.5C396.948 355.383 396.741 405.447 396.256 407.452C395.841 409.043 394.527 411.601 393.281 413.053C392.105 414.574 389.891 416.511 385.878 419L103.867 418.654L100.962 416.787C99.3702 415.681 97.2253 413.537 94.2503 409.043L94.0427 257.952C93.9043 157.133 94.1119 105.963 94.527 104.372C94.9421 103.059 96.1183 100.846 97.2253 99.5319Z" fill="#4AC6B7"/>
<path d="M392.105 98.8404C390.375 97.1117 388.369 95.383 387.608 94.8989C386.501 94.2766 388.3 94.0691 396.741 94.0691C404.836 94 407.949 94.2766 409.956 95.1064C411.339 95.6596 413.415 96.9734 414.453 98.0106C415.56 99.0479 416.944 100.777 417.566 101.952C418.673 103.888 418.742 115.851 418.95 255.117C419.088 358.771 418.95 407.037 418.397 408.766C418.051 410.218 416.667 412.5 415.491 413.952C414.245 415.335 411.962 416.995 410.44 417.686C408.157 418.793 405.874 418.931 396.948 418.931C388.3 418.931 386.501 418.723 387.608 418.101C388.369 417.617 390.375 415.888 392.105 414.16C394.388 411.947 395.495 410.149 396.118 407.798C396.741 405.239 396.948 369.42 396.948 256.5C396.948 143.58 396.741 107.761 396.118 105.271C395.495 102.851 394.388 101.053 392.105 98.8404Z" fill="#37B7A4"/>
<path d="M62.3525 37.4726C67.1475 35.1669 72.8648 33.1379 77.1066 32.3078C82.0861 31.3855 90.6619 31.1089 107.076 31.2011C129.023 31.3855 130.314 31.4778 134.094 33.4146C136.215 34.6135 138.982 36.9193 140.18 38.4872C141.471 40.1473 143.039 43.4675 143.684 45.8654C144.699 49.5546 144.699 51.0302 143.684 54.6272C143.039 57.1173 141.379 60.4376 139.996 62.1899C138.613 63.9422 135.846 66.1557 133.818 67.2625C130.406 69.0148 128.285 69.1993 106.154 69.6604C86.1434 70.0293 81.7172 70.3983 79.4119 71.6894C77.9365 72.5195 75.7234 74.1796 74.709 75.3786C73.6025 76.4853 72.127 78.5144 71.4816 79.8056C70.4672 81.5579 70.0984 88.1984 69.7295 106.091C69.2684 128.226 69.084 130.347 67.332 133.759C66.2254 135.788 64.0123 138.555 62.2602 139.939C60.5082 141.322 57.1885 142.982 54.791 143.628C51.1025 144.642 49.627 144.642 46.0307 143.628C43.541 142.982 40.2213 141.414 38.6537 140.123C36.9939 138.924 34.6885 136.157 33.582 134.036C31.5533 130.347 31.4611 128.779 31.1844 108.396C30.9078 91.9797 31.1844 84.6937 32.291 78.4221C33.3053 72.5195 34.7807 67.9081 37.5471 62.2821C40.498 56.4717 43.1721 52.7826 47.9672 47.8945C52.8545 43.0986 56.543 40.424 62.3525 37.4726Z" fill="#00C7B8"/>
<path d="M205.928 36.1814C207.311 34.798 210.355 33.1379 212.66 32.4001C215.98 31.2933 224.648 31.0166 255.539 31.0166C286.984 30.9244 295.098 31.2011 298.879 32.2156C301.645 33.0457 304.689 34.798 306.441 36.6426C308.1 38.3027 310.037 41.254 310.775 43.0986C311.604 45.0354 312.25 48.4478 312.25 50.7536C312.25 53.0593 311.512 56.4717 310.498 58.3163C309.576 60.2531 307.27 63.2044 305.426 64.7723C303.582 66.4324 300.539 68.1848 298.695 68.7381C296.574 69.2915 279.053 69.6604 256 69.6604C232.947 69.6604 215.426 69.2915 213.398 68.7381C211.461 68.1848 208.418 66.4324 206.574 64.7723C204.729 63.2044 202.424 60.2531 201.502 58.3163C200.488 56.3795 199.75 52.967 199.75 50.2924C199.75 47.6178 200.488 44.2976 201.502 42.1763C202.516 40.3317 204.453 37.6571 205.928 36.1814Z" fill="#00C7B8"/>
<path d="M376.891 33.9679C378.367 33.1379 380.764 32.2156 382.148 31.7545C383.531 31.3855 394.227 31.0166 405.846 31.0166C420.324 31.0166 429.361 31.3855 434.432 32.3078C439.227 33.1379 444.576 34.9825 449.648 37.4726C455.457 40.424 459.145 43.0986 464.033 47.8945C468.828 52.7826 471.502 56.4717 474.453 62.2821C477.219 67.9081 478.695 72.5195 479.709 78.4221C480.816 84.6937 481.092 91.9797 480.816 108.396C480.539 128.779 480.447 130.347 478.418 133.944C477.311 136.157 475.006 138.924 473.346 140.123C471.779 141.414 468.459 142.982 465.969 143.628C462.373 144.642 460.898 144.642 457.209 143.628C454.811 142.982 451.492 141.322 449.74 139.939C447.988 138.555 445.775 135.788 444.668 133.759C442.916 130.347 442.732 128.226 442.27 106.091C441.902 88.1984 441.533 81.5579 440.518 79.8056C439.873 78.5144 438.398 76.4853 437.291 75.3786C436.277 74.1796 434.064 72.5195 432.588 71.6894C430.283 70.3983 425.857 70.0293 405.846 69.6604C383.715 69.1993 381.594 69.0148 378.182 67.2625C376.154 66.1557 373.387 63.9422 372.004 62.1899C370.621 60.4376 368.961 57.1173 368.316 54.6272C367.301 51.0302 367.301 49.5546 368.316 45.8654C368.961 43.4675 370.529 40.1473 371.82 38.4872C373.018 36.9193 375.324 34.8902 376.891 33.9679Z" fill="#00C7B8"/>
<path d="M36.7172 205.605C38.377 203.945 41.0512 202.008 42.5266 201.271C44.002 200.441 47.5061 199.795 50.1803 199.703C53.1311 199.703 56.3586 200.348 58.4795 201.455C60.3238 202.377 63.2746 204.683 64.8422 206.528C66.502 208.372 68.2541 211.416 68.8074 213.26C69.3607 215.382 69.7295 232.905 69.7295 255.962C69.7295 279.019 69.3607 296.543 68.8074 298.572C68.2541 300.509 66.502 303.552 64.9344 305.397C63.2746 307.241 60.3238 309.547 58.4795 310.469C56.543 311.484 53.1311 312.222 50.8258 312.222C48.5205 312.222 45.1086 311.576 43.2643 310.746C41.3279 310.008 38.377 308.071 36.7172 306.411C34.873 304.659 33.1209 301.615 32.291 298.849C31.2766 295.159 31 286.859 31 255.962C31 225.066 31.2766 216.765 32.291 213.076C33.1209 210.309 34.873 207.358 36.7172 205.605Z" fill="#00C7B8"/>
<path d="M447.25 206.343C448.91 204.499 451.676 202.193 453.428 201.363C455.18 200.441 458.5 199.703 460.898 199.703C463.387 199.703 466.891 200.348 468.736 201.178C470.672 201.916 473.623 203.853 475.283 205.513C477.127 207.266 478.879 210.309 479.709 213.076C480.723 216.765 481 225.066 481 255.962C481 286.859 480.723 295.159 479.709 298.849C478.879 301.615 477.127 304.659 475.283 306.411C473.623 308.071 470.672 310.008 468.736 310.746C466.891 311.576 463.479 312.222 461.174 312.222C458.869 312.222 455.457 311.484 453.52 310.469C451.676 309.547 448.725 307.241 447.066 305.397C445.498 303.552 443.746 300.509 443.193 298.572C442.639 296.543 442.27 279.019 442.27 255.962C442.27 232.905 442.639 215.382 443.193 213.26C443.746 211.416 445.498 208.28 447.25 206.343Z" fill="#00C7B8"/>
<path d="M38.6537 371.801C40.2213 370.602 42.8955 369.219 44.3709 368.666C45.8463 368.112 48.4283 367.651 49.9037 367.651C51.3791 367.651 54.3299 368.112 56.3586 368.666C58.3873 369.311 61.707 371.525 63.8279 373.554C66.3176 376.044 67.8852 378.626 68.6229 381.578C69.3607 384.437 69.7295 393.844 69.7295 407.217C69.7295 424.925 70.0061 428.891 71.2049 431.381C72.0348 433.041 73.6025 435.439 74.709 436.546C75.7234 437.745 77.9365 439.405 79.4119 440.235C81.7172 441.526 86.1434 441.895 106.154 442.264C128.285 442.725 130.406 442.91 133.818 444.662C135.846 445.769 138.613 447.982 139.996 449.735C141.379 451.487 143.039 454.807 143.684 457.297C144.699 460.894 144.699 462.37 143.684 466.059C143.039 468.457 141.471 471.777 140.18 473.345C138.982 475.005 136.215 477.311 134.094 478.418C130.406 480.447 128.838 480.539 108.459 480.816C92.0451 481.092 84.7602 480.816 78.4898 479.709C72.5881 478.694 67.9775 477.219 62.3525 474.452C56.543 471.5 52.8545 468.826 47.9672 464.03C43.1721 459.142 40.498 455.453 37.5471 449.642C34.7807 444.016 33.3053 439.405 32.291 433.502C31.1844 427.231 30.9078 419.945 31.1844 403.528C31.4611 383.145 31.5533 381.578 33.582 377.888C34.6885 375.767 36.9939 373 38.6537 371.801Z" fill="#00C7B8"/>
<path d="M448.264 373.554C450.293 371.525 453.428 369.311 455.18 368.758C456.932 368.204 459.699 367.743 461.174 367.651C462.65 367.559 465.416 368.02 467.168 368.573C468.92 369.219 471.779 370.602 473.439 371.801C475.006 373 477.311 375.767 478.51 377.888C480.447 381.578 480.539 383.145 480.816 403.528C481.092 419.945 480.816 427.231 479.709 433.502C478.695 439.405 477.219 444.016 474.453 449.642C471.502 455.453 468.828 459.142 464.033 464.03C459.145 468.826 455.457 471.5 449.648 474.452C444.023 477.219 439.412 478.694 433.51 479.709C427.24 480.816 419.955 481.092 403.541 480.816C383.162 480.539 381.594 480.447 377.998 478.418C375.785 477.311 373.018 475.005 371.82 473.345C370.529 471.777 368.961 468.457 368.316 466.059C367.301 462.37 367.301 460.894 368.316 457.297C368.961 454.807 370.621 451.487 372.004 449.735C373.387 447.982 376.154 445.769 378.182 444.662C381.594 442.91 383.715 442.725 405.846 442.264C425.857 441.895 430.283 441.526 432.588 440.235C434.064 439.405 436.277 437.745 437.383 436.546C438.49 435.439 440.057 432.857 440.795 430.92C441.994 428.153 442.27 423.357 442.27 406.018C442.27 391.907 442.639 383.33 443.377 380.932C444.023 378.903 446.236 375.583 448.264 373.554Z" fill="#00C7B8"/>
<path d="M205.467 447.982C207.127 446.414 210.17 444.385 212.199 443.647C215.242 442.633 223.264 442.356 255.539 442.264C279.053 442.264 296.574 442.633 298.695 443.186C300.539 443.74 303.582 445.492 305.426 447.06C307.27 448.72 309.576 451.671 310.498 453.516C311.512 455.453 312.25 458.865 312.25 461.171C312.25 463.477 311.604 466.889 310.775 468.734C310.037 470.67 308.1 473.622 306.441 475.282C304.689 477.126 301.645 478.879 298.879 479.709C295.191 480.723 286.891 481 256 481C225.109 481 216.809 480.723 213.121 479.709C210.355 478.879 207.311 477.126 205.559 475.282C203.9 473.622 201.963 470.67 201.225 468.734C200.395 466.889 199.75 463.477 199.75 461.171C199.75 458.865 200.395 455.637 201.133 453.977C201.871 452.409 203.807 449.642 205.467 447.982Z" fill="#00C7B8"/>
</svg>
