<svg width="512" height="512" viewBox="0 0 512 512" fill="none" xmlns="http://www.w3.org/2000/svg">
<path d="M286.85 232.66C303.812 212.094 318.578 194.252 319.809 192.846L321.918 190.473L444.437 190.912L462.279 235.297C472.035 259.73 480.033 280.561 480.121 283.637H334.662L308.295 336.371L256.439 335.932L256.002 270.099L286.85 232.66Z" fill="#FF9100"/>
<path d="M256.033 270.038C254.979 271.181 256 254.633 256 163.051V56H295.551V161.469L345.561 161.908L333.695 176.41C327.103 184.408 321.478 191.088 321.127 191.352C320.775 191.615 306.537 208.754 289.486 229.584C273.692 248.798 260.009 265.373 257.589 268.269C257.397 268.5 256.079 269.986 256.033 270.038Z" fill="#27B2EB"/>
<path d="M49.457 236.176C59.2129 211.742 67.3867 191.527 67.5625 191.176V191.088C67.8262 190.736 95.3359 190.473 128.822 190.473C162.309 190.473 190.333 190.824 190.86 191.176C191.475 191.527 206.22 209.423 256.054 270.067L256.439 335.932L308.295 336.371L334.662 283.637H407.436C475.902 283.637 480.121 283.549 480.473 282.055C480.648 281.264 480.824 319.848 481 455.023H256V402.289H190.082V375.922H256V336.371H203.266L176.898 283.637H103.949C34.9551 283.637 31 283.549 31.3516 282.055C31.5273 281.264 39.6133 260.609 49.457 236.176Z" fill="#FDBF00"/>
<path d="M216.449 161.469V108.734V56H256V162.963C256 224.311 256.235 270.29 255.796 269.763C255.724 269.677 254.785 268.517 254.024 267.597C250.116 262.871 237.753 247.899 223.48 230.463C206.43 209.633 192.016 192.318 191.4 191.791C190.785 191.264 184.984 184.408 166.439 161.908L216.449 161.469Z" fill="#5ECEF4"/>
<path d="M31 455.023V369.33V283.637H176.898L203.266 336.371H256V375.922H190.082V402.289H256V455.023H31Z" fill="#FBE000"/>
<path d="M256 402.289V389.105V375.922H321.918V402.289H256Z" fill="#FF9100"/>
</svg>
