<svg width="512" height="512" viewBox="0 0 512 512" fill="none" xmlns="http://www.w3.org/2000/svg">
<rect x="106.586" y="160.07" width="149.378" height="204.868" fill="#45E6D1"/>
<rect x="31" y="87.0912" width="225" height="277.846" fill="#F2F9FF"/>
<rect x="255.964" y="87.0912" width="225.036" height="277.846" fill="#DBECFF"/>
<path d="M31 422.969V393.953V364.938H256V422.969H219.086C190.17 422.969 182.172 423.233 182.084 424.024C182.084 424.903 181.996 424.903 181.645 424.112C181.381 423.233 165.473 422.969 31 422.969Z" fill="#B8C6E6"/>
<path d="M132.953 453.743L149.916 453.567H149.828C159.145 453.391 166.879 453.567 166.967 454.007C167.143 454.358 187.182 454.622 256 454.622V481H132.953V453.743Z" fill="#B8C6E6"/>
<path d="M381.244 36.3579C383.178 35.039 386.693 33.2805 389.154 32.4012C392.494 31.1703 395.395 30.8186 401.459 31.0824C407.699 31.2582 410.424 31.7858 414.203 33.5443C416.84 34.7752 420.355 36.9734 424.926 40.9301L348.549 117.25C306.625 159.191 271.908 193.482 271.381 193.482C270.853 193.482 265.316 188.206 247.387 170.181L312.514 104.413C348.373 68.2751 379.311 37.5889 381.244 36.3579Z" fill="#674CC3"/>
<path d="M271.381 194.361L347.846 117.865C389.945 75.8367 424.574 41.3697 424.926 41.3697C425.365 41.3697 427.035 43.4799 428.705 45.9418C430.375 48.4917 432.396 52.5363 433.1 54.9982C433.803 57.3722 434.418 61.9444 434.418 65.1097C434.418 68.6268 433.715 72.8472 432.572 76.1005C431.605 79.002 430.199 82.1674 429.496 83.1346C428.793 84.1018 398.295 114.876 295.111 218.101L271.381 194.361Z" fill="#68339F"/>
<path d="M106.586 364.938V262.504V160.07H257.23L238.861 178.446C223.92 193.394 219.701 197.087 216.889 197.966C214.955 198.494 210.385 200.34 206.781 202.011C203.178 203.681 197.816 206.759 194.916 208.781C192.016 210.891 186.918 215.463 183.666 219.068C179.447 223.552 176.459 227.949 173.734 233.488C171.537 237.797 169.252 244.215 168.549 247.556C167.846 250.898 167.23 257.668 167.23 262.504C167.23 267.603 167.934 274.55 168.9 279.21C169.779 283.518 172.152 291.343 177.777 306.027L181.908 304.181C184.281 303.214 189.115 301.631 192.719 300.664C196.322 299.696 205.463 298.114 212.934 297.147C220.404 296.179 228.93 294.861 231.83 294.245C234.73 293.542 239.477 291.959 242.289 290.552C245.189 289.145 249.408 286.332 256 280.529V364.938H106.586Z" fill="#45E6D1"/>
<path d="M269.359 244.039L311.195 202.099L353.119 160.07H405.414V364.938H256V322.293C256 294.773 256.352 279.473 256.879 279.21C257.406 278.946 259.34 276.308 261.273 273.231C263.295 270.241 265.58 265.405 266.459 262.504C267.338 259.602 268.393 254.239 269.359 244.039Z" fill="#29CCCC"/>
<path d="M220.844 196.559L233.764 183.634V183.546C240.883 176.424 246.947 170.621 247.211 170.621C247.475 170.621 253.012 175.984 271.381 194.361L245.014 220.739L220.844 196.559Z" fill="#BB99FF"/>
<path d="M245.014 220.739L258.197 207.55L271.381 194.361L295.111 218.101L268.744 244.479L245.014 220.739Z" fill="#8080FF"/>
<path d="M199.311 205.791C202.211 204.121 207.748 201.395 211.615 199.9C215.482 198.318 219.262 196.999 219.965 196.999C220.668 196.999 226.645 202.362 245.014 220.739L172.943 292.838L171.713 290.025C171.098 288.442 169.779 283.518 168.9 279.21C167.934 274.55 167.23 267.691 167.23 262.504C167.23 257.668 167.846 250.897 168.549 247.556C169.252 244.127 171.713 237.621 173.91 233.048C177.426 226.014 179.271 223.465 186.039 216.782C190.434 212.386 196.41 207.462 199.311 205.791Z" fill="#FFFEA1"/>
<path d="M172.68 293.278L208.891 257.052L245.014 220.739L269.271 244.918L268.656 251.073C268.393 254.414 267.338 259.602 266.459 262.504C265.58 265.405 263.383 270.153 261.449 273.055C259.604 275.956 255.736 280.528 252.836 283.166C249.936 285.804 245.189 289.145 242.377 290.552C239.477 291.959 234.73 293.542 231.83 294.245C228.93 294.86 220.404 296.179 212.934 297.147C205.463 298.114 196.322 299.696 192.719 300.664C189.115 301.631 184.369 303.213 178.217 305.851L172.68 293.278Z" fill="#FEEB1C"/>
<path d="M256 422.969V393.953V364.938H481V393.514C481 411.714 480.648 422.265 480.121 422.529C479.594 422.793 429.057 422.969 256 422.969V454.622H300.385C324.818 454.622 344.77 454.358 344.77 454.007C344.77 453.567 352.504 453.391 379.047 453.743V481H256V454.622H211.615C172.768 454.622 166.862 455.084 166.862 453.941C166.862 453.238 170.219 445.918 173.91 438.532C177.69 431.234 181.495 424.35 182.11 423.822C182.989 422.943 191.4 422.969 256 422.969Z" fill="#ADAECD"/>
<path d="M256 454.622V438.795V422.969H329.828L337.475 437.477C341.43 445.214 345.208 452.774 345.296 453.566C345.296 455.061 342.045 454.622 256 454.622Z" fill="#969BBD"/>
</svg>
