<svg xmlns="http://www.w3.org/2000/svg" viewBox="0 0 42.07 41.68"><defs><style>.cls-1{fill:#19a4aa;fill-rule:evenodd;}.cls-2{fill:#5997c5;}.cls-3{fill:#f4bd2b;}.cls-4{fill:#458abd;}</style></defs><g id="Слой_2" data-name="Слой 2"><g id="Слой_1-2" data-name="Слой 1"><path class="cls-1" d="M19.76,1.6c11,0,16.38,0,16.75.09A3.81,3.81,0,0,1,37.56,2a4.69,4.69,0,0,1,1,.75,4.32,4.32,0,0,1,.68,1,5,5,0,0,1,.34,1c.06.37.09,5.78.09,16.86s0,16.46-.09,16.84a5.4,5.4,0,0,1-.34,1,4,4,0,0,1-.71,1,3.47,3.47,0,0,1-1,.74,4.8,4.8,0,0,1-1.05.35c-.37,0-5.73.08-16.67.08s-16.33,0-16.67-.08a4.25,4.25,0,0,1-1-.35,3.27,3.27,0,0,1-1-.71,3.61,3.61,0,0,1-.73-1,4.5,4.5,0,0,1-.34-1.06C0,38.1,0,32.69,0,21.64S0,5.15.09,4.78A4.35,4.35,0,0,1,.43,3.72a3.47,3.47,0,0,1,.73-1,3.54,3.54,0,0,1,1-.72,3.46,3.46,0,0,1,1-.31c.25-.06,7.09-.09,16.67-.09ZM3,4.49a1.23,1.23,0,0,0-.31.4c-.11.18-.11,1-.11,4.7v4.49h9.75V4.21c-6.92,0-9,0-9,0A2.2,2.2,0,0,0,3,4.49ZM15,14.08h9.75V4.21H15Zm12.36,0h9.75l0-9a.6.6,0,0,0-.17-.4l-.28-.25a.57.57,0,0,0-.4-.18l-8.87,0ZM2.61,26.57h9.75V16.69H2.61Zm24.72,0h9.75V16.69H27.33ZM15,39.05h9.75V29.2H15Zm12.36,0c8.07,0,8.9,0,9.1-.12a1.24,1.24,0,0,0,.39-.34l.06-.06a.53.53,0,0,0,.17-.4l0-8.93H27.33Z"/><path class="cls-2" d="M29.88,16.55l-2.47,2.54L25.31,17,23.19,14.8l1.13-1.15h0c.62-.63,1.25-1.26,1.28-1.26s3.65,3.64,4.28,4.16Z"/><path class="cls-3" d="M18.85,23.13a7.69,7.69,0,0,1-.25-.94,8.09,8.09,0,0,1-.15-1.49,8.79,8.79,0,0,1,.12-1.35,5.77,5.77,0,0,1,.48-1.29A3.92,3.92,0,0,1,20.1,16.6a8.07,8.07,0,0,1,1.19-1c.25-.14.74-.37,1.08-.52a5.68,5.68,0,0,1,.82-.31s.51.54,2.12,2.18l2.13,2.14-.06.55a5.86,5.86,0,0,1-.2,1,3.09,3.09,0,0,1-.42.91,5.45,5.45,0,0,1-.77.92,5.84,5.84,0,0,1-.9.66,5.74,5.74,0,0,1-.94.31c-.25.06-1,.17-1.67.26a18.08,18.08,0,0,0-1.79.32,10.28,10.28,0,0,0-1.3.48Z"/><path class="cls-4" d="M27.64,14.63l-2.13-2.12,5.76-5.9C34.41,3.38,37.16.66,37.33.54c2.84-1.95,6,1.81,4.25,4.18-.08.09-2.75,2.81-11.84,12Z"/></g></g></svg>