<?xml version="1.0" encoding="UTF-8"?>
<svg id="_Слой_2" data-name="Слой 2" xmlns="http://www.w3.org/2000/svg" viewBox="0 0 318.72 316.48">
  <defs>
    <style>
      .cls-1 {
        stroke-width: 5px;
      }

      .cls-1, .cls-2 {
        stroke-miterlimit: 10;
      }

      .cls-1, .cls-2, .cls-3, .cls-4 {
        stroke: #35afb3;
      }

      .cls-1, .cls-3, .cls-4, .cls-5 {
        fill: none;
      }

      .cls-2 {
        fill: #35afb3;
      }

      .cls-3 {
        stroke-width: 16.53px;
      }

      .cls-3, .cls-4, .cls-5 {
        stroke-linecap: round;
        stroke-linejoin: round;
      }

      .cls-4, .cls-5 {
        stroke-width: 14.33px;
      }

      .cls-5 {
        stroke: #fff;
      }
    </style>
  </defs>
  <g id="fill">
    <g>
      <path class="cls-2" d="m98.77,218.52s-61.38-63.7,7.69-128.39c0,0,58.23-45.35,113.82,6.77l-120.32,121.62"/>
      <path class="cls-1" d="m245.51,157.74c0,47.47-38.48,85.96-85.96,85.96-23.74,0-45.23-9.62-60.78-25.18-15.56-15.56-25.18-37.04-25.18-60.78,0-47.47,38.48-85.96,85.96-85.96,23.71,0,45.18,9.6,60.73,25.12,15.59,15.56,25.23,37.07,25.23,60.84Z"/>
      <polyline class="cls-1" points="98.84 218.46 159.55 157.74 220.3 96.99"/>
      <line class="cls-4" x1="162.39" y1="186.84" x2="212.09" y2="186.84"/>
      <line class="cls-5" x1="113" y1="121.73" x2="162.7" y2="121.73"/>
      <line class="cls-5" x1="137.85" y1="146.58" x2="137.85" y2="96.88"/>
      <line class="cls-3" x1="159.57" y1="52.43" x2="159.57" y2="8.26"/>
      <line class="cls-3" x1="235.05" y1="82.67" x2="266.29" y2="51.43"/>
      <line class="cls-3" x1="266.29" y1="157.74" x2="310.46" y2="157.74"/>
      <line class="cls-3" x1="235.05" y1="232.81" x2="266.29" y2="264.05"/>
      <line class="cls-3" x1="53.93" y1="262.64" x2="85.16" y2="231.41"/>
      <line class="cls-3" x1="159.55" y1="264.05" x2="159.55" y2="308.22"/>
      <line class="cls-3" x1="8.26" y1="157.72" x2="52.43" y2="157.72"/>
      <line class="cls-3" x1="85.16" y1="82.67" x2="53.93" y2="51.43"/>
    </g>
  </g>
</svg>