<svg xmlns="http://www.w3.org/2000/svg" viewBox="0 0 39.69 40.08"><defs><style>.cls-1{fill:#35afb3;}.cls-2{fill:#2fa5a9;}</style></defs><g id="Слой_2" data-name="Слой 2"><g id="Слой_1-2" data-name="Слой 1"><path class="cls-1" d="M15.68,3.66c1-1.08,2-2.06,2.18-2.2a1.08,1.08,0,0,1,.74-.2.88.88,0,0,1,.76.23c.17.11,3.37,3.32,7.09,7.1s6.86,7,6.94,7.07a1.24,1.24,0,0,1,.12.63,1.11,1.11,0,0,1-.12.63c-.08.12-4,4.15-8.79,9s-8.81,8.88-9,9a1,1,0,0,1-.74.26,1,1,0,0,1-.74-.26c-.17-.11-3.34-3.32-7.08-7.1S.2,20.79.11,20.7A1.93,1.93,0,0,1,0,20.07a.92.92,0,0,1,.23-.74c.11-.18,1.24-1.38,4.82-5l.93,1c.54.54,1.31,1.23,1.7,1.54s1.05.77,1.42,1a13,13,0,0,0,1.56.86,18.59,18.59,0,0,0,1.78.75A17.72,17.72,0,0,0,14.2,20a8.62,8.62,0,0,0,1.7.08,5,5,0,0,0,1.5-.23,6.57,6.57,0,0,0,1.14-.51,5.59,5.59,0,0,0,.91-.69,1.1,1.1,0,0,0,.45-.72,1.81,1.81,0,0,0,0-.57,1.24,1.24,0,0,0-.34-.57,1.53,1.53,0,0,0-.6-.34,1.75,1.75,0,0,0-.56,0,1.3,1.3,0,0,0-.57.34c-.2.14-.48.34-.68.46a5.79,5.79,0,0,1-.77.25,4.16,4.16,0,0,1-.9.09,5.56,5.56,0,0,1-1-.09,6.06,6.06,0,0,1-1.22-.31,19.16,19.16,0,0,1-1.78-.77,16,16,0,0,1-1.82-1.06c-.39-.32-1.21-1-2.92-2.72l3.46-3.5,3.49-3.49s.91-.86,2-1.95Z"/><path class="cls-1" d="M30.61,22.5a7.78,7.78,0,0,1,1.05-1.06,2,2,0,0,1,.6-.14,2.77,2.77,0,0,1,.62.14,7.15,7.15,0,0,1,1,1.06c.43.49,1,1.18,1.33,1.55s.83,1,1.14,1.46.88,1.23,1.22,1.77.85,1.38,1.1,1.87a17.22,17.22,0,0,1,.71,1.66,4.29,4.29,0,0,1,.26,1.91,5.94,5.94,0,0,1-.18,1.84c-.11.37-.34.94-.48,1.29a10.44,10.44,0,0,1-.76,1.25,6.17,6.17,0,0,1-.94,1.06,6.69,6.69,0,0,1-1,.78,8.15,8.15,0,0,1-1.13.6c-.32.14-.83.31-1.11.4a6.93,6.93,0,0,1-1.84.14,6.58,6.58,0,0,1-1.93-.17A9.84,9.84,0,0,1,29,39.37a10.57,10.57,0,0,1-1.3-.83,6.76,6.76,0,0,1-1.05-1,8.35,8.35,0,0,1-.74-1c-.14-.26-.37-.71-.51-1s-.28-.77-.37-1.09a6.39,6.39,0,0,1-.14-1.72,4.46,4.46,0,0,1,.25-1.91c.15-.43.49-1.18.71-1.66s.77-1.35,1.11-1.87.91-1.34,1.22-1.77.82-1.09,1.13-1.46.91-1.06,1.33-1.55Z"/><path class="cls-2" d="M4,.6A10.54,10.54,0,0,1,5.19.14,8,8,0,0,1,6.8,0,11.93,11.93,0,0,1,8.62.14c.42.09,1.1.29,1.53.43s1.16.49,1.67.75,1.3.71,1.76,1,1.05.77,1.33,1a2.24,2.24,0,0,1,.54.55,11.94,11.94,0,0,1-.85.94,9.37,9.37,0,0,1-.91.86l-.42-.34a9.06,9.06,0,0,0-1-.81,15.1,15.1,0,0,0-1.48-.86c-.42-.22-1.05-.48-1.36-.6s-.85-.28-1.16-.37-.91-.11-1.33-.14a4.47,4.47,0,0,0-1.16.14,3.06,3.06,0,0,0-.8.37,3.12,3.12,0,0,0-.65.66,3.24,3.24,0,0,0-.37.83,4.2,4.2,0,0,0-.14,1.12A7.06,7.06,0,0,0,3.91,7c.09.35.26.92.37,1.26s.4,1,.57,1.32a12.24,12.24,0,0,0,.85,1.46c.28.4.68,1,.9,1.26s.86.95,1.39,1.49S9.3,15,9.69,15.32a16,16,0,0,0,1.82,1.06,19.16,19.16,0,0,0,1.78.77,6.06,6.06,0,0,0,1.22.31,5.56,5.56,0,0,0,1,.09,4.16,4.16,0,0,0,.9-.09,5.79,5.79,0,0,0,.77-.25c.2-.12.48-.32.68-.46a1.3,1.3,0,0,1,.57-.34,1.75,1.75,0,0,1,.56,0,1.53,1.53,0,0,1,.6.34,1.24,1.24,0,0,1,.34.57,1.81,1.81,0,0,1,0,.57,1.1,1.1,0,0,1-.45.72,5.59,5.59,0,0,1-.91.69,6.57,6.57,0,0,1-1.14.51,5,5,0,0,1-1.5.23A8.62,8.62,0,0,1,14.2,20a17.72,17.72,0,0,1-1.76-.46,18.59,18.59,0,0,1-1.78-.75,13,13,0,0,1-1.56-.86c-.37-.23-1-.68-1.42-1a23.76,23.76,0,0,1-1.78-1.6c-.57-.6-1.25-1.35-1.51-1.66s-.68-.92-.93-1.29a17,17,0,0,1-.91-1.63C2.3,10.16,2,9.42,1.81,9a14,14,0,0,1-.42-1.57,8.59,8.59,0,0,1-.17-1.75,7.87,7.87,0,0,1,.14-1.52,9,9,0,0,1,.45-1.32,4.78,4.78,0,0,1,.94-1.31A4.56,4.56,0,0,1,4,.6Z"/></g></g></svg>