<svg width="512" height="512" viewBox="0 0 512 512" fill="none" xmlns="http://www.w3.org/2000/svg">
<path d="M208.718 72.1016C220.595 59.9587 231.855 48.8717 233.703 47.4639C236.518 45.4401 238.102 45.0001 242.061 45.0001C246.107 44.9121 247.603 45.3521 250.506 47.5519C252.442 48.9597 288.687 84.8604 331.091 127.361C373.495 169.949 408.861 205.673 409.652 206.905C410.532 208.313 411.06 210.953 411.06 213.945C411.06 216.936 410.532 219.576 409.652 220.984C408.861 222.216 363.994 267.444 309.977 321.559C255.961 375.762 210.214 421.165 208.278 422.573C205.375 424.685 203.88 425.213 199.921 425.213C195.962 425.213 194.466 424.685 191.563 422.573C189.628 421.165 153.382 385.265 110.978 342.765C68.5743 300.177 33.2085 264.452 32.4167 263.22C31.5369 261.9 31.0091 259.172 31.0091 256.181C30.9211 252.221 31.449 250.725 33.5604 247.821C34.968 245.886 47.8123 232.599 88.1047 192.387L98.9256 203.386C104.908 209.457 113.529 217.2 118.104 220.72C122.679 224.152 129.981 229.255 134.379 231.983C138.69 234.711 146.608 239.11 151.974 241.662C157.341 244.214 166.402 247.909 172.209 249.933C178.015 251.869 186.9 254.157 192.003 254.949C198.425 255.917 204.319 256.269 211.357 256.005C219.011 255.653 223.146 254.949 228.512 253.277C232.383 251.957 238.102 249.493 241.269 247.645C244.348 245.798 249.011 242.366 251.474 239.902C254.993 236.558 256.224 234.623 256.664 231.983C257.016 230.047 257.016 227.055 256.664 225.384C256.312 223.624 254.641 220.984 252.793 219.136C250.682 216.966 248.453 215.675 246.107 215.264C244.172 214.912 241.269 214.912 239.685 215.176C238.19 215.44 235.199 217.112 233.087 218.872C231.064 220.632 227.633 223.008 225.433 224.064C223.234 225.12 219.363 226.527 216.812 227.055C214.349 227.583 209.774 228.023 206.695 228.023C203.704 228.023 198.689 227.583 195.522 227.055C192.355 226.615 186.197 225.032 181.886 223.536C177.575 222.128 168.426 218.168 161.652 214.824C154.878 211.481 145.552 206.025 140.978 202.77C136.403 199.426 127.078 191.331 107.987 172.5L147.136 133.168C168.69 111.522 186.461 93.9236 186.724 94.0116C186.988 94.1876 196.842 84.2445 208.718 72.1016Z" fill="#38C1BA"/>
<path d="M378.158 283.458C382.996 277.915 388.363 272.635 390.034 271.843C391.706 270.963 394.697 270.259 396.808 270.259C398.832 270.259 401.911 270.963 403.758 271.755C405.606 272.723 410.62 277.475 415.811 283.458C420.737 289.002 427.599 296.921 430.942 301.057C434.373 305.192 440.18 312.495 443.787 317.335C447.394 322.175 453.64 331.062 457.599 337.133C461.558 343.205 467.1 352.708 470.003 358.251C472.818 363.795 476.425 372.154 478.097 376.73C480.824 384.737 481 385.617 481 398.288C481 409.375 480.648 412.63 478.977 418.966C477.833 423.101 475.37 429.613 473.522 433.484C471.675 437.356 467.804 443.691 464.989 447.563C462.085 451.435 457.423 456.714 454.52 459.354C451.704 461.994 446.602 465.953 443.171 468.153C439.74 470.353 434.021 473.345 430.415 474.929C426.808 476.424 421.089 478.448 417.658 479.328C412.82 480.648 408.421 481 396.984 481C384.492 481 381.413 480.736 374.99 478.976C370.856 477.832 363.994 475.193 359.595 473.081C355.284 470.881 348.51 466.657 344.639 463.578C340.768 460.586 335.402 455.482 332.763 452.403C330.123 449.235 326.428 444.307 324.669 441.404C322.909 438.5 320.27 433.396 318.863 429.965C317.455 426.533 315.519 421.077 314.64 417.646C313.32 412.894 312.968 408.583 312.968 398.288C312.968 385.617 313.144 384.737 315.871 376.73C317.543 372.154 321.15 363.795 323.965 358.251C326.868 352.708 332.411 343.205 336.37 337.133C340.328 331.062 346.575 322.175 350.182 317.335C353.788 312.495 359.595 305.192 363.026 301.057C366.369 296.921 373.231 289.002 378.158 283.458Z" fill="#38C1BA"/>
<path d="M76.0521 37.8728C80.099 35.9369 86.3452 33.5612 89.9521 32.6812C94.6148 31.5373 99.9813 31.0094 108.163 31.0094C116.608 30.9214 122.327 31.4494 128.661 32.6812C133.5 33.6492 141.329 35.849 145.992 37.5208C150.743 39.2806 159.364 42.9763 165.171 45.792C170.977 48.6078 179.862 53.7113 184.965 57.143C190.067 60.5747 196.841 65.5902 200.097 68.23C203.44 70.9577 206.079 73.6855 206.079 74.3014C206.079 74.8294 201.768 79.7569 196.49 85.0364C191.211 90.3159 186.724 94.6275 186.372 94.5396C186.109 94.3636 183.997 92.6917 181.622 90.6679C179.334 88.6441 173.88 84.6845 169.569 81.7807C165.259 78.877 157.693 74.4774 152.854 72.1016C148.015 69.6378 141.065 66.5581 137.458 65.2382C133.852 63.9184 127.869 62.1585 124.262 61.2786C120.655 60.4867 113.881 59.7828 109.307 59.6948C104.028 59.6948 99.1895 60.2227 96.1104 61.1026C93.4711 61.8066 89.2483 63.8304 86.873 65.4142C84.4097 66.9981 81.1547 70.3418 79.5711 72.7176C77.9876 75.1813 76.0521 79.317 75.2603 81.9567C74.3806 84.7724 73.8528 90.052 73.8528 94.7155C73.8528 99.1151 74.5566 105.715 75.4363 109.674C76.2281 113.546 78.1635 119.881 79.5711 123.753C80.9787 127.625 83.9699 134.312 86.1692 138.711C88.2806 143.023 92.5914 150.414 95.6705 154.99C98.7496 159.566 103.324 165.901 105.876 169.069C108.427 172.236 115.553 179.716 121.623 185.787C127.693 191.859 136.403 199.426 140.977 202.77C145.552 206.025 154.878 211.481 161.652 214.824C168.426 218.168 177.575 222.128 181.886 223.536C186.197 225.032 192.355 226.615 195.522 227.055C198.689 227.583 203.703 228.023 206.695 228.023C209.774 228.023 214.348 227.583 216.812 227.055C219.363 226.527 223.234 225.12 225.433 224.064C227.633 223.008 231.064 220.632 233.087 218.872C235.198 217.112 238.19 215.44 239.685 215.176C241.269 214.912 244.172 214.912 246.107 215.264C248.453 215.675 250.682 216.966 252.793 219.136C254.641 220.984 256.312 223.624 256.664 225.384C257.016 227.055 257.016 230.047 256.664 231.983C256.224 234.623 254.993 236.558 251.474 239.902C249.01 242.366 244.348 245.798 241.269 247.645C238.102 249.493 232.383 251.957 228.512 253.277C223.146 254.949 219.011 255.653 211.357 256.005C204.319 256.269 198.425 255.917 192.003 254.949C186.9 254.157 178.015 251.869 172.209 249.933C166.402 247.909 157.341 244.214 151.974 241.662C146.608 239.11 138.778 234.711 134.379 231.983C129.981 229.255 122.679 224.152 118.104 220.72C113.529 217.2 104.468 209.017 98.0458 202.506C91.5357 195.994 83.8819 187.635 80.8907 184.027C77.9876 180.42 73.2369 173.82 70.3338 169.509C67.5186 165.197 62.8559 156.838 59.9527 151.03C57.1375 145.223 53.4426 136.6 51.6831 131.848C50.0116 127.185 47.8122 119.265 46.7565 114.338C45.5249 108.178 44.9091 101.931 44.9091 94.7155C44.9091 88.0281 45.4369 81.6927 46.4046 77.5571C47.1964 73.9494 49.6597 67.2621 51.7711 62.8625C54.8502 56.2631 56.9616 53.3593 62.2401 48.0798C67.1667 43.1523 70.5977 40.6005 76.0521 37.8728Z" fill="#2EA7AA"/>
</svg>
