<svg width="512" height="512" viewBox="0 0 512 512" fill="none" xmlns="http://www.w3.org/2000/svg">
<path fill-rule="evenodd" clip-rule="evenodd" d="M255.078 31.014C380.488 30.9218 440.979 31.2907 445.037 31.9363C448.357 32.4897 453.705 34.1498 457.025 35.7177C460.805 37.5623 464.955 40.6059 468.367 44.0183C471.502 47.1541 474.729 51.6734 476.297 55.1781C477.773 58.3139 479.432 63.5709 479.986 66.8912C480.631 70.9492 481 131.728 481 255.961C481 380.194 480.631 440.973 479.986 445.031C479.432 448.351 477.773 453.608 476.297 456.836C474.729 460.248 471.502 464.768 468.275 467.904C464.955 471.316 460.805 474.36 457.025 476.204C453.705 477.772 448.357 479.432 445.037 479.986C440.979 480.631 380.211 481 256 481C131.789 481 71.0205 480.631 66.9631 479.986C63.6434 479.432 58.3873 477.772 55.1598 476.296C51.748 474.728 47.2295 471.5 44.0943 468.365C40.6824 464.952 37.6393 460.802 35.7951 457.02C34.2275 453.7 32.5676 448.351 32.0143 445.031C31.3689 440.973 31 380.194 31 255.961C31 131.728 31.3689 70.9492 32.0143 66.8912C32.5676 63.5709 34.2275 58.2216 35.7951 54.9014C37.6393 51.12 40.6824 46.9697 44.0943 43.6494C47.2295 40.4214 51.8402 37.1934 55.1598 35.5333C58.3873 34.0576 63.2746 32.4897 66.041 32.0285C68.9918 31.4752 146.543 31.1063 255.078 31.014ZM65.3033 63.5709C64.1045 64.5854 62.5369 66.6145 61.7992 68.0901C60.6926 70.1192 60.5082 79.5266 60.5082 120.845V171.11H171.164V60.4351C92.875 60.5274 69.5451 60.804 68.8074 61.0807C68.0697 61.3574 66.4098 62.4642 65.3033 63.5709ZM200.672 171.11H311.328V60.4351H200.672V171.11ZM340.836 171.11H451.492L451.031 67.8135L444.115 60.8963L340.836 60.4351V171.11ZM60.5082 311.298H171.164V200.623H60.5082V311.298ZM200.672 311.298H311.328V200.623H200.672V311.298ZM340.836 311.298H451.492V200.623H340.836V311.298ZM60.5082 391.077C60.5082 432.395 60.7848 441.71 61.8914 443.832C62.5369 445.215 64.2889 447.429 65.5799 448.72L68.0697 451.026L171.164 451.487V340.812H60.5082V391.077ZM200.672 451.487H311.328V340.812H200.672V451.487ZM340.836 451.487C432.496 451.487 441.809 451.21 443.93 450.103C445.314 449.458 447.527 447.705 448.725 446.414L451.031 443.924L451.4 340.812H340.836V451.487Z" fill="#00C7B8"/>
</svg>
