<svg width="512" height="512" viewBox="0 0 512 512" fill="none" xmlns="http://www.w3.org/2000/svg">
<path d="M39.2661 40.8393C39.9896 39.3928 41.9793 37.4943 43.6071 36.7711H43.5167C46.049 35.6863 53.917 35.5054 144.626 35.8671L150.504 41.7433L150.776 89.9285C150.866 120.033 150.595 139.289 150.052 141.368C149.419 143.719 148.153 145.346 146.254 146.612C143.36 148.42 142.003 148.42 43.3358 147.968L38.3618 142.995L38.0904 93.2734C37.9096 50.6029 38.0904 43.1898 39.2661 40.8393Z" fill="#00C7B8"/>
<path d="M201.33 40.0256C202.144 38.9408 204.044 37.4039 205.671 36.6807C207.932 35.7767 217.971 35.5054 255.774 35.415C292.672 35.415 303.615 35.6863 305.967 36.5903C307.504 37.2231 309.584 38.76 310.489 40.0256C311.936 42.0145 312.026 45.9019 312.026 142.091L305.876 148.42H256.497C211.098 148.42 206.938 148.329 204.405 146.792C202.958 145.979 201.33 144.351 200.788 143.176C200.245 141.911 199.883 123.468 199.883 91.6461C199.883 47.5291 200.064 41.9241 201.33 40.0256Z" fill="#00C7B8"/>
<path d="M363.847 39.1216C365.203 37.6751 367.284 36.2287 368.369 36.0479C369.454 35.8671 391.611 35.5958 417.657 35.5054C457.812 35.415 465.318 35.5958 468.031 36.7711C469.84 37.4943 471.829 39.3024 472.553 40.8393C473.729 43.1898 473.91 50.6029 473.457 142.995L468.483 147.968L418.471 148.239C369.816 148.42 368.459 148.42 365.656 146.612C363.666 145.346 362.4 143.719 361.767 141.368C361.224 139.289 360.953 120.033 361.315 41.8337L363.847 39.1216Z" fill="#00C7B8"/>
<path d="M38.9948 205.193C39.5374 204.018 40.894 202.391 41.9793 201.577C43.6976 200.131 47.8577 199.95 94.0714 199.95C140.556 199.95 144.445 200.04 146.435 201.487C147.701 202.391 149.238 204.47 149.871 206.007C150.776 208.357 151.047 219.296 151.047 256C151.047 292.704 150.776 303.643 149.871 305.903C149.238 307.53 147.701 309.609 146.435 310.513C144.445 311.96 140.556 312.05 44.3306 312.05L38 305.722V256.452C38 222.008 38.2713 206.549 38.9948 205.193Z" fill="#00C7B8"/>
<path d="M362.038 206.007C362.671 204.47 364.209 202.391 365.475 201.487C367.464 200.04 371.353 199.95 417.838 199.95C464.052 199.95 468.212 200.131 469.93 201.577C471.016 202.391 472.372 204.018 472.915 205.193C473.638 206.549 473.91 221.827 473.91 256C473.91 300.84 473.819 304.999 472.282 307.53C471.468 308.977 469.84 310.604 468.664 311.146C467.398 311.689 448.949 312.05 417.115 312.05C371.353 312.05 367.464 311.96 365.475 310.513C364.209 309.609 362.671 307.53 362.038 305.993C361.134 303.643 360.862 292.704 360.862 256C360.862 219.296 361.134 208.357 362.038 206.007Z" fill="#00C7B8"/>
<path d="M38.4522 368.824L41.4366 366.202L44.3306 363.58H93.8905C141.732 363.58 143.45 363.671 146.254 365.388C148.244 366.594 149.57 368.342 150.233 370.632C150.866 372.802 151.047 390.159 150.595 470.257L144.716 476.133L95.8801 476.404C54.0979 476.585 46.5916 476.404 43.8784 475.229C42.0697 474.506 40.0801 472.698 39.3566 471.161C38.1809 468.81 38 461.397 38.4522 368.824Z" fill="#00C7B8"/>
<path d="M201.511 367.558C202.416 366.473 203.953 365.117 204.948 364.575C206.124 363.942 221.86 363.58 255.774 363.58C300.902 363.58 305.062 363.671 307.504 365.117C309.042 366.021 310.67 367.649 311.122 368.733C311.755 370.089 312.117 388.532 312.117 420.263C312.117 466.098 312.026 469.986 310.489 471.974C309.675 473.24 307.595 474.777 305.967 475.41C303.706 476.314 292.672 476.585 256.045 476.585C219.328 476.585 208.385 476.314 206.033 475.41C204.405 474.777 202.416 473.24 201.511 471.974C200.064 469.986 199.974 466.098 199.974 419.631C199.974 373.434 200.064 369.276 201.511 367.558Z" fill="#00C7B8"/>
<path d="M361.767 370.541C362.43 368.312 363.726 366.594 365.656 365.388C368.55 363.671 370.268 363.58 467.669 363.58L474 369.909V419.359C474 467.273 473.91 468.991 472.191 471.794C470.985 473.782 469.237 475.078 466.946 475.681C464.685 476.314 447.411 476.585 367.284 476.133L361.405 470.166L361.134 422.072C360.953 390.159 361.134 372.802 361.767 370.541Z" fill="#00C7B8"/>
<path d="M200.064 205.193L202.687 202.571L205.219 199.95H306.69L312.117 205.374V306.626L306.69 312.05H205.4L199.974 306.626L200.064 205.193Z" fill="#00C7B8"/>
</svg>
