<svg width="512" height="512" viewBox="0 0 512 512" fill="none" xmlns="http://www.w3.org/2000/svg">
<path d="M256.101 96.5378C256.007 71.0343 256.288 49.9376 256.757 49.6563C257.225 49.2813 295.257 49 341.439 49C411.414 49 426.496 49.2813 431.929 50.4064C435.582 51.1565 442.42 53.6881 447.104 56.0322C453.755 59.2202 457.315 61.7518 462.186 66.5337C465.652 70.0967 470.336 75.8162 472.396 79.473C474.551 83.036 477.267 89.0368 480.64 99.1632L480.921 208.866C481.108 316.318 481.108 318.756 479.235 326.07C478.204 330.195 476.331 335.727 475.113 338.259C473.801 340.79 470.804 345.666 468.275 348.948C465.839 352.323 461.436 356.918 458.626 359.168C455.816 361.418 450.757 364.606 447.385 366.388C444.013 368.075 438.767 370.232 435.676 371.17C430.336 372.857 425.184 372.951 256.757 372.951L256.288 281.532H361.204V255.279H256.288V225.274H361.204V199.021H256.288V169.017H361.204V142.763H256.288L256.101 96.5378Z" fill="#FFAA20"/>
<path d="M256.288 169.017V155.89V142.763H361.204V169.017H256.288Z" fill="#E1E1E3"/>
<path d="M256.288 225.274V212.148V199.021H361.204V225.274H256.288Z" fill="#E1E1E3"/>
<path d="M256.288 281.532V268.405V255.279H361.204V281.532H256.288Z" fill="#E1E1E3"/>
<path d="M151.372 169.017V155.89V142.763H256.288V169.017H151.372Z" fill="white"/>
<path d="M151.372 225.274V212.148V199.021H256.288V225.274H151.372Z" fill="white"/>
<path d="M151.372 281.532V268.405V255.279H256.288V281.532H151.372Z" fill="white"/>
<path d="M73.1537 52.3755C75.683 51.5316 79.711 50.5002 82.0529 50.0314C84.3947 49.5626 124.581 49.1875 256.757 49L256.288 142.763H151.372V169.017H256.288V199.021H151.372V225.274H256.288V255.279H151.372V281.532H256.288L256.757 373.42H223.034L158.398 418.426C122.801 443.086 93.4812 463.151 93.0128 462.964C92.6381 462.682 92.3571 442.523 92.3571 373.889L86.5492 373.139C83.2706 372.67 77.9312 371.451 74.5589 370.419C71.1866 369.388 65.9408 367.138 62.8495 365.45C59.7582 363.762 54.7934 360.106 51.7022 357.386C48.7046 354.574 44.8639 350.448 43.1777 348.104C41.3979 345.76 38.775 341.353 37.2762 338.259C35.6837 335.165 33.7166 329.914 32.6861 326.538C31.0937 320.819 31 314.537 31 211.679C31 122.416 31.1873 101.976 32.3114 97.7567C32.9672 94.9439 34.6533 90.0682 35.9648 86.974C37.1825 83.8798 39.8054 79.0042 41.7726 76.1913C43.6461 73.3784 47.9552 68.5965 51.2338 65.5023C54.5124 62.5019 59.7582 58.6576 62.8495 56.9699C65.9408 55.2821 70.5308 53.2193 73.1537 52.3755Z" fill="#FFDB2D"/>
</svg>
