<?xml version="1.0" encoding="UTF-8"?>
<!DOCTYPE svg PUBLIC "-//W3C//DTD SVG 1.1//EN" "http://www.w3.org/Graphics/SVG/1.1/DTD/svg11.dtd">
<!-- Creator: CorelDRAW -->
<svg xmlns="http://www.w3.org/2000/svg" xml:space="preserve" width="18.4674mm" height="18.4674mm" version="1.1" style="shape-rendering:geometricPrecision; text-rendering:geometricPrecision; image-rendering:optimizeQuality; fill-rule:evenodd; clip-rule:evenodd"
viewBox="0 0 7050.1 7050.1"
 xmlns:xlink="http://www.w3.org/1999/xlink"
 xmlns:xodm="http://www.corel.com/coreldraw/odm/2003">
 <defs>
  <style type="text/css">
   <![CDATA[
    .fil0 {fill:none}
    .fil4 {fill:#4FA7DA}
    .fil2 {fill:#9FDDFC}
    .fil3 {fill:white}
    .fil1 {fill:#72C1E9;fill-rule:nonzero}
   ]]>
  </style>
 </defs>
 <g id="Слой_x0020_1">
  <metadata id="CorelCorpID_0Corel-Layer"/>
  <g id="_2718167702880">
   <polygon class="fil0" points="-0,0 7050.1,0 7050.1,7050.1 -0,7050.1 "/>
   <g>
    <path class="fil1" d="M1009.6 6444l-13.5 -1036.7c0,0 -924.4,-52.8 -952.8,-889.2l14.9 -3355.2c0,0 94.7,-757.9 963.6,-735l4965.9 0c0,0 1002.9,-63.6 1019.1,900l0 3213.1c0,0 14.9,790.4 -963.6,868.9l-3031.7 0 -1717.5 1180.2c-56.8,39.3 -125.9,43.3 -186.8,12.2 -60.9,-31.1 -97.5,-90.7 -97.5,-158.4l-0.1 0z"/>
    <path class="fil2" d="M740.1 1404.2l5569.9 0c164.9,0 299.8,134.9 299.8,299.7l0 2383.9c0,164.8 -134.9,299.7 -299.8,299.7l-5569.9 0c-164.9,0 -299.8,-134.9 -299.8,-299.7l0 -2383.9c0,-164.8 134.9,-299.7 299.8,-299.7z"/>
    <g>
     <g>
      <path class="fil3" d="M869.2 1565.3l1314.9 0c103.3,0 187.8,84.5 187.8,187.8l0 2285.4c0,103.3 -84.5,187.8 -187.8,187.8l-1314.9 0c-103.3,0 -187.8,-84.5 -187.8,-187.8l0 -2285.4c0,-103.3 84.5,-187.8 187.8,-187.8z"/>
      <path class="fil4" d="M1364.7 1848.8c-589.8,157.2 -485.3,730.7 -485.3,1228.7 0,314.6 0,485 170.4,681.6 353.9,366.9 904.3,222.8 1074.7,-209.7 78.6,-183.6 52.5,-589.8 52.5,-812.7 0,-301.4 0,-511.1 -170.3,-694.6 -144.1,-131.1 -340.7,-275.2 -629.1,-196.6l0 0 -12.8 3.3zm78.3 258.7c183.6,-39.3 340.7,65.5 406.2,170.3 78.6,144.2 52.5,340.8 52.5,524.3 0,144.2 13.1,458.8 0,589.8 -65.5,340.7 -524.3,419.4 -694.6,131.1 -78.6,-131.1 -52.5,-353.9 -52.5,-524.3 0,-393.2 -78.6,-799.4 301.4,-891.2l0 0 -13.1 0z"/>
     </g>
     <g>
      <path class="fil3" d="M2870.5 1565.3l1314.9 0c103.3,0 187.8,84.5 187.8,187.8l0 2285.4c0,103.3 -84.5,187.8 -187.8,187.8l-1314.9 0c-103.3,0 -187.8,-84.5 -187.8,-187.8l0 -2285.4c0,-103.3 84.5,-187.8 187.8,-187.8z"/>
      <path class="fil4" d="M3496.6 2140.2c26.2,458.7 -26.2,1323.7 0,1651.4 13.1,183.6 262.2,196.6 262.2,-39.3l0 -1703.8c0,-222.8 -118,-183.5 -471.8,-183.5 -209.7,0 -170.3,170.3 -144.1,222.8 52.5,78.6 249.1,52.5 353.9,52.5l0 0 -0.1 -0.1z"/>
     </g>
     <g>
      <path class="fil3" d="M4866 1565.3l1314.9 0c103.3,0 187.8,84.5 187.8,187.8l0 2285.4c0,103.3 -84.5,187.8 -187.8,187.8l-1314.9 0c-103.3,0 -187.8,-84.5 -187.8,-187.8l0 -2285.4c0,-103.3 84.5,-187.8 187.8,-187.8z"/>
      <g>
       <path class="fil4" d="M6049.7 4226.4c-47.6,-71 -156.7,-156.7 -180.8,-216.8 131.1,-91.8 249.1,-314.6 209.7,-563.6 -104.8,-563.6 -865,-668.4 -1114.1,-157.3 -157.3,327.7 131.1,432.5 222.8,170.4 118,-353.9 602.9,-275.2 642.2,52.5 39.3,367 -327.7,367 -380,393.2 -104.8,39.3 -104.8,196.6 -13.1,235.9 104.8,52.5 149.3,-6.1 267.2,85.7l346.1 0z"/>
       <path class="fil4" d="M4990.7 2043.8c-183.5,314.6 340.8,249.1 537.3,249.1 144.2,0 498,26.2 563.6,-39.3 39.3,-52.5 52.5,-118 13.1,-170.4 -65.5,-118 -589.8,-39.3 -760.2,-65.5 52.5,-91.8 250,-321.2 328.6,-452.3l-320.4 0c-100.1,50 -318.8,437.2 -361.9,478.4z"/>
      </g>
     </g>
    </g>
   </g>
  </g>
 </g>
</svg>
