<?xml version="1.0" encoding="UTF-8"?>
<!DOCTYPE svg PUBLIC "-//W3C//DTD SVG 1.1//EN" "http://www.w3.org/Graphics/SVG/1.1/DTD/svg11.dtd">
<!-- Creator: CorelDRAW -->
<svg xmlns="http://www.w3.org/2000/svg" xml:space="preserve" width="18.4674mm" height="18.4674mm" version="1.1" style="shape-rendering:geometricPrecision; text-rendering:geometricPrecision; image-rendering:optimizeQuality; fill-rule:evenodd; clip-rule:evenodd"
viewBox="0 0 1808.9 1808.9"
 xmlns:xlink="http://www.w3.org/1999/xlink"
 xmlns:xodm="http://www.corel.com/coreldraw/odm/2003">
 <defs>
  <style type="text/css">
   <![CDATA[
    .str1 {stroke:#999999;stroke-width:25.9;stroke-miterlimit:22.9256}
    .str0 {stroke:white;stroke-width:49;stroke-linecap:round;stroke-miterlimit:22.9256}
    .fil0 {fill:none}
    .fil5 {fill:#494949}
    .fil2 {fill:#A6D15C}
    .fil8 {fill:#EDA935}
    .fil6 {fill:#EEA933}
    .fil7 {fill:#F2C61F}
    .fil1 {fill:white}
    .fil3 {fill:#494949;fill-rule:nonzero}
    .fil4 {fill:url(#id0)}
   ]]>
  </style>
  <linearGradient id="id0" gradientUnits="userSpaceOnUse" x1="520.2" y1="731.4" x2="1003.8" y2="732.2">
   <stop offset="0" style="stop-opacity:1; stop-color:#9E9E9E"/>
   <stop offset="0.341176" style="stop-opacity:1; stop-color:#CECECE"/>
   <stop offset="1" style="stop-opacity:1; stop-color:white"/>
  </linearGradient>
 </defs>
 <g id="Слой_x0020_1">
  <metadata id="CorelCorpID_0Corel-Layer"/>
  <g id="_2681409978016">
   <rect class="fil0" width="1808.9" height="1808.9"/>
   <g>
    <g>
     <line class="fil0 str0" x1="850.1" y1="30.6" x2="850.1" y2= "156.4" />
     <line class="fil0 str0" x1="1122.1" y1="96.4" x2="1058.5" y2= "211.9" />
     <line class="fil0 str0" x1="1191.4" y1="344.8" x2="1299.8" y2= "281.2" />
     <line class="fil0 str0" x1="1239.9" y1="529.6" x2="1362.2" y2= "529.6" />
    </g>
    <g>
     <rect class="fil1" x="459" y="1534" width="782.1" height="263.9" rx="118.1" ry="132"/>
     <circle class="fil2" cx="1105.7" cy="1666" r="122.1"/>
     <path class="fil3" d="M659.4 1740.5c-19,0 -33.7,-5.5 -44.1,-16.5 -10.4,-11.1 -15.6,-26.5 -15.6,-46.6l0 -23.6c0,-19.8 5.2,-35.2 15.6,-46.1 10.4,-10.9 25.1,-16.3 44.1,-16.3 19,0 33.7,5.4 44.1,16.3 10.4,10.9 15.6,26.3 15.6,46.1l0 24c0,19.9 -5.2,35.3 -15.6,46.3 -10.4,10.9 -25.2,16.4 -44.1,16.4zm0 -27.1c10,0 17.6,-3.1 23.1,-9.4 5.4,-6.2 8.1,-15 8.1,-26.2l0 -24c0,-11.3 -2.7,-20 -8.1,-26.1 -5.5,-6.2 -13.2,-9.2 -23.1,-9.2 -9.9,0 -17.5,3.1 -23.1,9.2 -5.5,6.1 -8.2,14.8 -8.2,26.1l0 24c0,11.2 2.7,20 8.2,26.2 5.5,6.2 13.2,9.4 23.1,9.4z"/>
     <path id="_1" class="fil3" d="M759.7 1738.4l0 -144.9 28.4 0 0 144.9 -28.4 0zm87.9 0l0 -87.8c0,-10.2 -2.6,-18.2 -7.9,-23.7 -5.2,-5.6 -12.7,-8.4 -22.4,-8.4 -9.3,0 -16.5,2.5 -21.6,7.4 -5,4.9 -7.6,11.9 -7.6,20.8l-2.9 -27.9c4.5,-8.7 10.3,-15.5 17.5,-20.3 7.2,-4.7 15.2,-7.1 23.9,-7.1 15.7,0 27.9,5.2 36.5,15.4 8.6,10.3 12.9,24.8 12.9,43.6l0 88 -28.5 0z"/>
    </g>
    <g id="принято">
     <path class="fil4 str1" d="M1177 1171.2l-654.1 0c0,-97.9 0,-218.7 0,-318.5 0,-148 -19.6,-289.3 47.7,-401.5 8.4,-15.5 18.5,-30.1 30.1,-43.4 5.6,-6.9 11.7,-13.5 18.1,-19.6l9.1 -9.1c54.5,-53 126.5,-84.6 202.4,-88.8l41 -0c150.7,10.2 274.9,122.4 300.3,271.2 5,62 7.7,124.5 7.7,186.7 0,35.2 -0.8,71 -2.5,105.9l0 318.5m-0 -1.4l0 0 0 0z"/>
     <g>
      <path class="fil5" d="M650.4 1154.9l47.8 0 0 -131.8c32.5,0 30.6,-12.9 44.9,-34.4 14.3,-21.5 20,-34.4 30.5,-54.4 10.5,-20.1 30.6,-39.6 9.1,-55.9 -17.9,-4.7 -36.3,-7.1 -54.8,-7.1 -8,0 -16,0.5 -24,1.3 -68.3,0 -55.9,0 -55.9,110.3l2.4 171.9zm0 0l0 0 0 0z"/>
     </g>
     <path class="fil5" d="M1001.3 1154.9l47.8 0c0,-54 0,-115.5 0,-171.9 0,-25.3 0,-55.9 0,-81.2 0,-25.3 -25.3,-31 -57.3,-29.1 -32,1.9 -30.6,22 -41.5,39.6 -69.7,116 -64.5,110.8 47.7,110.8l3.3 131.8z"/>
     <path class="fil6" d="M700.5 1377.4l-51.6 0 0 43.5c0,34.4 -9.1,77.8 22.9,81.6l7.2 0c30.6,-3.8 21.5,-47.8 21.5,-81.6l0 -43.5z"/>
     <path class="fil6" d="M1051.9 1377.4l-53.9 0 0 43.5c0,34.4 -9.1,77.8 21.5,81.6l7.2 0c32.5,-3.8 23.4,-47.8 23.4,-81.6l1.9 -43.5z"/>
     <path class="fil7" d="M950.2 1277.6c-0.6,6 -1,12.1 -1,18.2 0,17.8 2.7,35.5 8.1,52.5 3.8,8.2 9.4,15.6 16.3,21.5 6.4,5 14.3,7.7 22.5,7.7 2.1,0 4.1,-0.2 6.2,-0.5l52.1 0c47.7,-3.3 55.4,-43.5 47.7,-99.3 -25.2,-2.3 -50.6,-3.4 -75.9,-3.4 -25.3,0 -50.7,1.1 -75.9,3.3l0 0z"/>
     <path class="fil7" d="M648.9 1377.4l51.6 0c14.8,0 20.1,0 29.1,-7.2 7.9,-5.3 14.1,-12.8 17.7,-21.5 4.1,-16.8 6.1,-34.1 6.1,-51.4 0,-6.6 -0.3,-13.1 -0.9,-19.7 -25.3,-2.2 -50.7,-3.4 -76.1,-3.4 -25.4,0 -50.8,1.2 -76.1,3.4 -7.2,55.9 0,95.5 47.7,99.3l0.9 0.5z"/>
     <path class="fil8" d="M1188.9 1277.6c32,0 60.6,5.3 64.5,-25.3 0,-12.9 0,-77.8 0,-86.9 -9.1,-23.4 -39.2,-16.2 -73.5,-16.2l-656.5 0c-5.9,-0.5 -11.8,-0.7 -17.7,-0.7 -14.4,0 -28.8,1.4 -42.9,4 -21.5,9.1 -16.2,68.8 -12.9,99.8 3.3,31 28.7,25.3 59.2,25.3l679.9 0z"/>
    </g>
   </g>
  </g>
 </g>
</svg>
