<?xml version="1.0" encoding="UTF-8"?>
<!DOCTYPE svg PUBLIC "-//W3C//DTD SVG 1.1//EN" "http://www.w3.org/Graphics/SVG/1.1/DTD/svg11.dtd">
<!-- Creator: CorelDRAW -->
<svg xmlns="http://www.w3.org/2000/svg" xml:space="preserve" width="18.4674mm" height="18.4674mm" version="1.1" style="shape-rendering:geometricPrecision; text-rendering:geometricPrecision; image-rendering:optimizeQuality; fill-rule:evenodd; clip-rule:evenodd"
viewBox="0 0 1968.7 1968.7"
 xmlns:xlink="http://www.w3.org/1999/xlink"
 xmlns:xodm="http://www.corel.com/coreldraw/odm/2003">
 <defs>
  <style type="text/css">
   <![CDATA[
    .str1 {stroke:#999999;stroke-width:28.2;stroke-miterlimit:22.9256}
    .str0 {stroke:white;stroke-width:53.3;stroke-linecap:round;stroke-miterlimit:22.9256}
    .fil0 {fill:none}
    .fil3 {fill:#E6736E}
    .fil5 {fill:#494949}
    .fil8 {fill:#EDA935}
    .fil6 {fill:#EEA933}
    .fil7 {fill:#F2C61F}
    .fil1 {fill:white}
    .fil2 {fill:#494949;fill-rule:nonzero}
    .fil4 {fill:url(#id0)}
   ]]>
  </style>
  <linearGradient id="id0" gradientUnits="userSpaceOnUse" x1="685.5" y1="796" x2="1211.7" y2="796.9">
   <stop offset="0" style="stop-opacity:1; stop-color:#9E9E9E"/>
   <stop offset="0.341176" style="stop-opacity:1; stop-color:#CECECE"/>
   <stop offset="1" style="stop-opacity:1; stop-color:white"/>
  </linearGradient>
 </defs>
 <g id="Слой_x0020_1">
  <metadata id="CorelCorpID_0Corel-Layer"/>
  <g id="_2716979859360">
   <rect class="fil0" width="1968.7" height="1968.7"/>
   <g>
    <g>
     <line class="fil0 str0" x1="1043.1" y1="33.3" x2="1043.1" y2= "170.2" />
     <line class="fil0 str0" x1="747.1" y1="104.9" x2="816.3" y2= "230.6" />
     <line class="fil0 str0" x1="671.6" y1="375.2" x2="553.7" y2= "306" />
     <line class="fil0 str0" x1="618.8" y1="576.4" x2="485.8" y2= "576.4" />
    </g>
    <g>
     <rect class="fil1" x="618.4" y="1669.5" width="851.2" height="287.2" rx="128.6" ry="143.6"/>
     <path class="fil2" d="M1027.2 1925.7c-20.9,0 -37,-6.1 -48.5,-18.2 -11.5,-12.1 -17.2,-29.2 -17.2,-51.1l0 -25.9c0,-21.8 5.7,-38.7 17.2,-50.6 11.5,-12 27.6,-18 48.5,-18 20.8,0 37,6 48.5,18 11.4,11.9 17.2,28.8 17.2,50.6l0 26.4c0,21.8 -5.8,38.8 -17.2,50.8 -11.5,12 -27.6,18 -48.5,18zm0 -29.7c10.9,0 19.4,-3.5 25.4,-10.3 6,-6.9 8.9,-16.4 8.9,-28.8l0 -26.4c0,-12.4 -3,-21.9 -8.9,-28.7 -6,-6.8 -14.5,-10.2 -25.4,-10.2 -10.8,0 -19.3,3.4 -25.3,10.2 -6,6.7 -9,16.3 -9,28.7l0 26.4c0,12.4 3,21.9 9,28.8 6.1,6.9 14.5,10.3 25.3,10.3z"/>
     <path id="_1" class="fil2" d="M1141.9 1923.4l0 -180.8c0,-14 3.2,-24.6 9.6,-31.6 6.4,-7 16.5,-10.6 30.1,-10.6l23 0 0 29.8 -22.4 0c-3.1,0 -5.4,1.2 -6.9,3.5 -1.4,2.4 -2.2,5.3 -2.2,8.5l0 181.1 -31.2 0zm-16.9 -132.5l0 -26.7 79.6 0 0 26.7 -79.6 0z"/>
     <path id="_2" class="fil2" d="M1241.4 1923.4l0 -180.8c0,-14 3.2,-24.6 9.6,-31.6 6.4,-7 16.5,-10.6 30.1,-10.6l23 0 0 29.8 -22.4 0c-3.1,0 -5.4,1.2 -6.9,3.5 -1.4,2.4 -2.2,5.3 -2.2,8.5l0 181.1 -31.2 0zm-16.9 -132.5l0 -26.7 79.6 0 0 26.7 -79.6 0z"/>
     <circle class="fil3" cx="766.4" cy="1813.1" r="132.9"/>
    </g>
    <g id="принято">
     <path class="fil4 str1" d="M688.2 1274.6l711.8 0c0,-106.5 0,-238 0,-346.6 0,-161.1 21.3,-314.9 -52,-437 -9.1,-16.9 -20.1,-32.8 -32.8,-47.3 -6.1,-7.5 -12.8,-14.6 -19.7,-21.3l-9.9 -9.9c-59.4,-57.7 -137.6,-92.1 -220.3,-96.6l-44.7 -0c-164,11.1 -299.2,133.2 -326.8,295.2 -5.4,67.5 -8.4,135.5 -8.4,203.1 0,38.3 0.9,77.3 2.7,115.3l0 346.6m0 -1.5l0 0 0 0z"/>
     <g>
      <path class="fil5" d="M1261.3 1256.9l-52 0 0 -143.4c-35.3,0 -33.2,-14 -48.8,-37.4 -15.6,-23.4 -21.8,-37.4 -33.2,-59.2 -11.4,-21.8 -33.2,-43.1 -9.9,-60.8 19.4,-5.1 39.5,-7.7 59.6,-7.7 8.7,0 17.5,0.5 26.1,1.4 74.3,0 60.8,0 60.8,120l-2.6 187.1zm0 0l0 0 0 0z"/>
     </g>
     <path class="fil5" d="M879.4 1256.9l-52 0c0,-58.7 0,-125.7 0,-187.1 0,-27.5 0,-60.8 0,-88.3 0,-27.5 27.5,-33.8 62.4,-31.7 34.8,2.1 33.2,23.9 45.2,43.1 75.9,126.3 70.1,120.5 -52,120.5l-3.6 143.4z"/>
     <path class="fil6" d="M1206.8 1499l56.1 0 0 47.3c0,37.4 9.9,84.7 -24.9,88.8l-7.8 0c-33.2,-4.2 -23.4,-52 -23.4,-88.8l0 -47.3z"/>
     <path class="fil6" d="M824.4 1499l58.7 0 0 47.3c0,37.4 9.9,84.7 -23.4,88.8l-7.8 0c-35.3,-4.2 -25.5,-52 -25.5,-88.8l-2.1 -47.3z"/>
     <path class="fil7" d="M935 1390.5c0.7,6.5 1,13.2 1,19.8 0,19.4 -3,38.7 -8.8,57.1 -4.2,8.9 -10.2,16.9 -17.7,23.4 -7,5.4 -15.6,8.3 -24.4,8.3 -2.2,0 -4.5,-0.2 -6.7,-0.6l-56.7 0c-52,-3.6 -60.3,-47.3 -52,-108.1 27.4,-2.5 55.1,-3.7 82.6,-3.7 27.6,0 55.2,1.2 82.6,3.6l-0 0.1z"/>
     <path class="fil7" d="M1262.9 1499l-56.1 0c-16.1,0 -21.8,0 -31.7,-7.8 -8.6,-5.7 -15.3,-13.9 -19.2,-23.4 -4.4,-18.3 -6.7,-37.1 -6.7,-56 0,-7.2 0.3,-14.3 1,-21.4 27.6,-2.4 55.2,-3.7 82.9,-3.7 27.7,0 55.3,1.4 82.9,3.7 7.8,60.8 0,103.9 -52,108.1l-1 0.5z"/>
     <path class="fil8" d="M675.2 1390.5c-34.8,0 -66,5.7 -70.1,-27.5 0,-14 0,-84.7 0,-94.6 9.9,-25.5 42.6,-17.7 80,-17.7l714.4 0c6.4,-0.5 12.8,-0.8 19.3,-0.8 15.6,0 31.3,1.5 46.7,4.4 23.4,9.9 17.7,74.8 14,108.6 -3.7,33.8 -31.2,27.5 -64.4,27.5l-739.9 0z"/>
    </g>
   </g>
  </g>
 </g>
</svg>
