<?xml version="1.0" encoding="UTF-8"?>
<!DOCTYPE svg PUBLIC "-//W3C//DTD SVG 1.1//EN" "http://www.w3.org/Graphics/SVG/1.1/DTD/svg11.dtd">
<!-- Creator: CorelDRAW -->
<svg xmlns="http://www.w3.org/2000/svg" xml:space="preserve" width="18.4674mm" height="18.4674mm" version="1.1" style="shape-rendering:geometricPrecision; text-rendering:geometricPrecision; image-rendering:optimizeQuality; fill-rule:evenodd; clip-rule:evenodd"
viewBox="0 0 13376.8 13376.8"
 xmlns:xlink="http://www.w3.org/1999/xlink"
 xmlns:xodm="http://www.corel.com/coreldraw/odm/2003">
 <defs>
  <style type="text/css">
   <![CDATA[
    .str0 {stroke:#F7ADE0;stroke-width:191.7;stroke-miterlimit:22.9256}
    .str1 {stroke:#E5C688;stroke-width:253.5;stroke-linecap:round;stroke-miterlimit:22.9256}
    .fil0 {fill:none}
    .fil7 {fill:#AD883E}
    .fil8 {fill:#BF9A4F}
    .fil6 {fill:#C75C99}
    .fil2 {fill:#D9B162}
    .fil3 {fill:#D9B162}
    .fil1 {fill:#E5C688}
    .fil4 {fill:#E5C688}
    .fil5 {fill:#ED79BC}
   ]]>
  </style>
 </defs>
 <g id="Слой_x0020_1">
  <metadata id="CorelCorpID_0Corel-Layer"/>
  <polygon class="fil0" points="-0,0 13376.8,0 13376.8,13376.8 -0,13376.8 "/>
  <g id="_2716580430096">
   <g>
    <rect class="fil1" x="941.6" y="3751.4" width="7199.8" height="7226.7"/>
    <rect class="fil2" x="8141.4" y="3751.4" width="4292.1" height="7226.7"/>
    <rect class="fil3" transform="matrix(0.213054 -0 -0.118563 0.213054 941.603 3751.45)" width="33793.2" height="6807"/>
    <rect class="fil4" transform="matrix(-0.126443 -0 0.120843 0.198734 4391.94 2398.66)" width="33793.2" height="6807"/>
    <rect class="fil4" transform="matrix(0.12696 -0 -0.121338 0.198734 8967.33 2398.66)" width="33793.2" height="6807"/>
   </g>
   <g id="принято">
    <g>
     <path class="fil5" d="M5876.1 9143.4l-2731.6 0c0,-408.8 0,-913.3 0,-1330 0,-618.2 -81.8,-1208.4 199.4,-1676.9 35,-64.9 77.2,-126 125.7,-181.4 23.5,-28.7 49,-56.3 75.8,-81.8l37.9 -38c227.8,-221.4 528.2,-353.3 845.4,-370.8l171.4 -0.1c629.2,42.4 1148,511 1254.2,1132.7 20.9,259 32.4,519.8 32.4,779.5 0,147 -3.5,296.4 -10.4,442.4l0 1330 -0.1 -5.8zm0 0l0 0 0 0z"/>
     <path id="_1" class="fil0 str0" d="M5876.1 9143.4l-2731.6 0c0,-408.8 0,-913.3 0,-1330 0,-618.2 -81.8,-1208.4 199.4,-1676.9 35,-64.9 77.2,-126 125.7,-181.4 23.5,-28.7 49,-56.3 75.8,-81.8l37.9 -38c227.8,-221.4 528.2,-353.3 845.4,-370.8l171.4 -0.1c629.2,42.4 1148,511 1254.2,1132.7 20.9,259 32.4,519.8 32.4,779.5 0,147 -3.5,296.4 -10.4,442.4l0 1330m-0.1 -5.8l0 0 0 0z"/>
    </g>
    <g>
     <path class="fil6" d="M3676.8 9075.5l199.4 0 0 -550.3c135.6,0 127.6,-53.8 187.5,-143.6 59.8,-89.7 83.7,-143.6 127.6,-227.3 43.8,-83.7 127.6,-165.4 37.9,-233.3 -74.6,-19.5 -151.6,-29.5 -228.7,-29.5 -33.5,0 -67,2 -100.2,5.6 -285.2,0 -233.3,0 -233.3,460.5l9.9 717.8zm0 0l0 0 0 0z"/>
    </g>
    <path class="fil6" d="M5142.4 9075.5l199.4 0c0,-225.3 0,-482.5 0,-717.8 0,-105.6 0,-233.3 0,-338.9 0,-105.7 -105.7,-129.7 -239.3,-121.6 -133.6,8 -127.6,91.7 -173.5,165.4 -291.1,484.5 -269.2,462.6 199.4,462.6l14 550.4z"/>
    <path class="fil7" d="M3886.1 10004.7l-215.3 0 0 181.5c0,143.5 -37.9,325 95.7,340.9l29.8 0c127.6,-15.9 89.7,-199.4 89.7,-340.9l0 -181.5z"/>
    <path class="fil7" d="M5353.7 10004.7l-225.3 0 0 181.5c0,143.5 -37.9,325 89.7,340.9l29.8 0c135.6,-15.9 97.7,-199.4 97.7,-340.9l8 -181.5z"/>
    <path class="fil8" d="M4929 9588c-2.5,25.1 -4,50.6 -4,75.9 0,74.3 11.4,148.3 33.8,219.2 16.1,34.3 39.2,65 67.9,89.7 26.7,20.7 59.8,32 93.8,32 8.6,0 17.2,-0.7 25.7,-2.2l217.4 0.1c199.4,-13.9 231.3,-181.4 199.4,-414.7 -105.2,-9.5 -211.3,-14.3 -317,-14.3 -105.7,0 -211.8,4.8 -317.1,14l0.1 0.2z"/>
    <path class="fil8" d="M3670.9 10004.7l215.3 0c61.9,0 83.7,0 121.7,-29.9 33,-22 58.7,-53.2 73.8,-89.8 16.9,-70.3 25.6,-142.5 25.6,-214.8 0,-27.5 -1.2,-54.9 -3.7,-82.1 -105.8,-9.1 -211.9,-14.3 -318.1,-14.3 -106,0 -212.2,5.2 -318,14.3 -29.9,233.3 0,398.8 199.4,414.7l3.9 2z"/>
    <path class="fil7" d="M5926 9588c133.6,0 253.2,21.9 269.2,-105.7 0,-53.8 0,-325 0,-362.8 -37.9,-97.7 -163.6,-67.9 -307.1,-67.9l-2741.6 0c-24.5,-2 -49.3,-2.9 -74,-2.9 -60,0 -120.1,5.6 -179.2,16.8 -89.7,37.9 -67.8,287.1 -53.8,416.7 14.1,129.7 119.7,105.7 247.3,105.7l2839.3 0.1z"/>
   </g>
   <g>
    <line class="fil0 str1" x1="10303" y1="9168.4" x2="11791.9" y2= "9168.4" />
    <line class="fil0 str1" x1="9318.7" y1="9684.5" x2="11791.9" y2= "9684.5" />
    <line class="fil0 str1" x1="9318.7" y1="10168.3" x2="11791.9" y2= "10168.3" />
   </g>
  </g>
 </g>
</svg>
