<?xml version="1.0" encoding="UTF-8"?>
<!DOCTYPE svg PUBLIC "-//W3C//DTD SVG 1.1//EN" "http://www.w3.org/Graphics/SVG/1.1/DTD/svg11.dtd">
<!-- Creator: CorelDRAW -->
<svg xmlns="http://www.w3.org/2000/svg" xml:space="preserve" width="18.4674mm" height="18.4674mm" version="1.1" style="shape-rendering:geometricPrecision; text-rendering:geometricPrecision; image-rendering:optimizeQuality; fill-rule:evenodd; clip-rule:evenodd"
viewBox="0 0 2142.5 2142.5"
 xmlns:xlink="http://www.w3.org/1999/xlink"
 xmlns:xodm="http://www.corel.com/coreldraw/odm/2003">
 <defs>
  <style type="text/css">
   <![CDATA[
    .str0 {stroke:#CCCCCC;stroke-width:23.2;stroke-miterlimit:22.9256}
    .fil0 {fill:none}
    .fil2 {fill:#5B6B70}
    .fil1 {fill:#999999}
    .fil5 {fill:#EDA935}
    .fil3 {fill:#EEA933}
    .fil4 {fill:#F5C345}
    .fil6 {fill:white;fill-rule:nonzero}
   ]]>
  </style>
 </defs>
 <g id="Слой_x0020_1">
  <metadata id="CorelCorpID_0Corel-Layer"/>
  <g id="_2716351425456">
   <polygon class="fil0" points="-0,0 2142.5,0 2142.5,2142.5 -0,2142.5 "/>
   <g>
    <g>
     <path class="fil1 str0" d="M1070.5 303.3l0 0c272.2,0 494.8,222.7 494.8,494.8l0 899.4 -989.7 0 0 -899.4c0,-272.2 222.7,-494.8 494.8,-494.8z"/>
     <g>
      <path class="fil2" d="M772.9 1597.9l75.1 0 0 -198c48.6,0 45.8,-19.3 67.2,-51.5 16.4,-27.2 29.3,-51.5 45.8,-81.5 13.6,-21.5 45.8,-60.1 13.6,-84.4 -16.4,-13.6 -88.6,-8.6 -118.7,-8.6 -102.2,0 -83.6,0 -83.6,165.8l0 258.1 0.7 -0zm0 0l0 0 0 0z"/>
     </g>
     <path class="fil3" d="M848 1932.5l-77.9 0 0 154.2c0,16.3 -13.6,36.9 35,38.7l10.7 0c45.8,-1.6 32.2,-22.4 32.2,-38.7l0 -154.2z"/>
     <path class="fil3" d="M1375.6 1932.5l-77.9 0 0 154.2c0,16.3 -13.6,36.9 32.2,38.7l10.7 0c48.6,-1.6 35,-22.4 35,-38.7l0 -154.2z"/>
     <path class="fil4" d="M1219.7 1783.1c0,37.9 -2.9,78.6 10.7,106.5 5,13.6 13.6,21.5 24.3,32.9 13.6,10.7 21.5,10.7 42.9,10.7l77.9 0c72.9,-5 83.6,-65.1 72.9,-149.4 -13.6,-8.6 -204.5,-5 -228.8,0l0 0 0.7 -0.7 -0.7 0z"/>
     <path class="fil4" d="M770.1 1932.5l77.9 0c21.5,0 29.3,0 42.9,-10.7 10.7,-8.6 21.5,-19.3 27.2,-32.9 10.7,-27.2 7.9,-67.9 7.9,-106.5 -24.3,-5 -215.9,-8.6 -228.8,0 -10.7,84.4 0,144.4 72.9,149.4l0 0 0.7 0.7 -0.7 0z"/>
     <path class="fil2" d="M1299.1 1597.9l72.9 0c0,-81.5 0.7,-174.4 0.7,-258.1 0,-37.9 2.9,-84.4 2.9,-122.3 -2.9,-48.6 -37.9,-46.5 -86.5,-43.6 -40.8,0 -45.8,32.9 -62.2,60.1 -105.1,174.4 -96.5,165.9 72.9,165.9l-0.7 198 0.7 0.7 -0.7 -0.7z"/>
     <path class="fil5" d="M1580.7 1783.1c48.6,0 91.5,8.6 96.5,-37.9 0,-19.3 0,-116.5 -2.9,-130.1 -13.6,-35 -59.3,-25 -110.8,-25l-982.9 0c-18.6,0 -75.1,-2.9 -91.5,5 -32.2,13.6 -24.3,103 -18.6,149.4 2.9,46.5 42.9,37.9 88.6,37.9l1020.8 0 0.7 0.7 0 0z"/>
    </g>
    <g>
     <path class="fil6" d="M1035.7 40.3c0,-19.2 15.6,-34.8 34.8,-34.8 19.2,0 34.8,15.6 34.8,34.8l-69.6 0zm0 758.6l0 -758.6 69.6 0 0 758.6 -69.6 0zm5.6 73l58.4 -37.9 -58.4 0 178.1 -274.7 58.4 37.9 -178.1 274.7 -58.4 0zm0 0l58.4 -0 -29.2 45 -29.2 -45zm-149 -293.6l29.2 -18.9 178.2 274.7 -58.4 37.9 -178.2 -274.7 29.2 -18.9zm213 220.7c0,19.2 -15.6,34.8 -34.8,34.8 -19.2,0 -34.8,-15.6 -34.8,-34.8l69.6 0z"/>
    </g>
   </g>
  </g>
 </g>
</svg>
