<?xml version="1.0" encoding="UTF-8"?>
<!DOCTYPE svg PUBLIC "-//W3C//DTD SVG 1.1//EN" "http://www.w3.org/Graphics/SVG/1.1/DTD/svg11.dtd">
<!-- Creator: CorelDRAW -->
<svg xmlns="http://www.w3.org/2000/svg" xml:space="preserve" width="18.4674mm" height="18.4674mm" version="1.1" style="shape-rendering:geometricPrecision; text-rendering:geometricPrecision; image-rendering:optimizeQuality; fill-rule:evenodd; clip-rule:evenodd"
viewBox="0 0 1739 1739"
 xmlns:xlink="http://www.w3.org/1999/xlink"
 xmlns:xodm="http://www.corel.com/coreldraw/odm/2003">
 <defs>
  <style type="text/css">
   <![CDATA[
    .str0 {stroke:#F7ADE0;stroke-width:24.9;stroke-miterlimit:22.9256}
    .str1 {stroke:#F7ADE0;stroke-width:74.7;stroke-linecap:round;stroke-linejoin:round;stroke-miterlimit:22.9256}
    .fil0 {fill:none}
    .fil2 {fill:#C75C99}
    .fil1 {fill:#ED79BC}
    .fil5 {fill:#EDA935}
    .fil3 {fill:#EEA933}
    .fil4 {fill:#F2C61F}
   ]]>
  </style>
 </defs>
 <g id="Слой_x0020_1">
  <metadata id="CorelCorpID_0Corel-Layer"/>
  <g id="_2716349832704">
   <polygon class="fil0" points="-0,0 1739,0 1739,1739 -0,1739 "/>
   <g id="irLed">
    <g id="принято">
     <g>
      <path class="fil1" d="M1176.3 1378.2l-612.6 0c0,-91.7 0,-204.8 0,-298.3 0,-138.6 -18.3,-271 44.7,-376.1 7.9,-14.5 17.3,-28.2 28.2,-40.7 5.3,-6.4 11,-12.6 17,-18.3l8.5 -8.5c51.1,-49.7 118.5,-79.3 189.6,-83.2l38.4 -0c141.1,9.5 257.5,114.6 281.3,254 4.7,58.1 7.3,116.6 7.3,174.8 0,33 -0.8,66.5 -2.3,99.2l0 298.3 -0 -1.3zm0 0l0 0 0 0z"/>
      <path id="_1" class="fil0 str0" d="M1176.3 1378.2l-612.6 0c0,-91.7 0,-204.8 0,-298.3 0,-138.6 -18.3,-271 44.7,-376.1 7.9,-14.5 17.3,-28.2 28.2,-40.7 5.3,-6.4 11,-12.6 17,-18.3l8.5 -8.5c51.1,-49.7 118.5,-79.3 189.6,-83.2l38.4 -0c141.1,9.5 257.5,114.6 281.3,254 4.7,58.1 7.3,116.6 7.3,174.8 0,33 -0.8,66.5 -2.3,99.2l0 298.3m-0 -1.3l0 0 0 0z"/>
     </g>
     <g>
      <path class="fil2" d="M683 1363l44.7 0 0 -123.4c30.4,0 28.6,-12.1 42,-32.2 13.4,-20.1 18.8,-32.2 28.6,-51 9.8,-18.8 28.6,-37.1 8.5,-52.3 -16.7,-4.4 -34,-6.6 -51.3,-6.6 -7.5,0 -15,0.4 -22.5,1.3 -63.9,0 -52.3,0 -52.3,103.3l2.2 161zm0 0l0 0 0 0z"/>
     </g>
     <path class="fil2" d="M1011.7 1363l44.7 0c0,-50.5 0,-108.2 0,-161 0,-23.7 0,-52.3 0,-76 0,-23.7 -23.7,-29.1 -53.7,-27.3 -30,1.8 -28.6,20.6 -38.9,37.1 -65.3,108.6 -60.4,103.7 44.7,103.7l3.1 123.4z"/>
     <path class="fil3" d="M730 1571.4l-48.3 0 0 40.7c0,32.2 -8.5,72.9 21.5,76.5l6.7 0c28.6,-3.6 20.1,-44.7 20.1,-76.5l0 -40.7z"/>
     <path class="fil3" d="M1059.1 1571.4l-50.5 0 0 40.7c0,32.2 -8.5,72.9 20.1,76.5l6.7 0c30.4,-3.6 21.9,-44.7 21.9,-76.5l1.8 -40.7z"/>
     <path class="fil4" d="M963.9 1477.9c-0.6,5.6 -0.9,11.3 -0.9,17 0,16.7 2.6,33.3 7.6,49.2 3.6,7.7 8.8,14.6 15.2,20.1 6,4.7 13.4,7.2 21,7.2 1.9,0 3.9,-0.2 5.8,-0.5l48.8 0c44.7,-3.1 51.9,-40.7 44.7,-93 -23.6,-2.1 -47.4,-3.2 -71.1,-3.2 -23.7,0 -47.5,1.1 -71.1,3.1l0 0z"/>
     <path class="fil4" d="M681.7 1571.4l48.3 0c13.9,0 18.8,0 27.3,-6.7 7.4,-4.9 13.2,-11.9 16.6,-20.1 3.8,-15.8 5.7,-32 5.7,-48.2 0,-6.2 -0.3,-12.3 -0.8,-18.4 -23.7,-2 -47.5,-3.2 -71.3,-3.2 -23.8,0 -47.6,1.2 -71.3,3.2 -6.7,52.3 0,89.4 44.7,93l0.9 0.4z"/>
     <path class="fil5" d="M1187.5 1477.9c30,0 56.8,4.9 60.4,-23.7 0,-12.1 0,-72.9 0,-81.4 -8.5,-21.9 -36.7,-15.2 -68.9,-15.2l-614.9 0c-5.5,-0.5 -11.1,-0.7 -16.6,-0.7 -13.5,0 -26.9,1.3 -40.2,3.8 -20.1,8.5 -15.2,64.4 -12.1,93.5 3.1,29.1 26.8,23.7 55.4,23.7l636.8 0z"/>
    </g>
    <line class="fil0 str1" x1="870.8" y1="309.9" x2="870.8" y2= "69.3" />
    <line class="fil0 str1" x1="1281.4" y1="474.5" x2="1451.7" y2= "304.1" />
    <line class="fil0 str1" x1="1451.7" y1="882.7" x2="1691.9" y2= "882.7" />
    <line class="fil0 str1" x1="47.2" y1="882.7" x2="287.7" y2= "882.7" />
    <line class="fil0 str1" x1="465.7" y1="474.5" x2="295.8" y2= "304.1" />
   </g>
  </g>
 </g>
</svg>
