<?xml version="1.0" encoding="UTF-8"?>
<!DOCTYPE svg PUBLIC "-//W3C//DTD SVG 1.1//EN" "http://www.w3.org/Graphics/SVG/1.1/DTD/svg11.dtd">
<!-- Creator: CorelDRAW -->
<svg xmlns="http://www.w3.org/2000/svg" xml:space="preserve" width="18.4674mm" height="18.4674mm" version="1.1" style="shape-rendering:geometricPrecision; text-rendering:geometricPrecision; image-rendering:optimizeQuality; fill-rule:evenodd; clip-rule:evenodd"
viewBox="0 0 3997.8 3997.8"
 xmlns:xlink="http://www.w3.org/1999/xlink"
 xmlns:xodm="http://www.corel.com/coreldraw/odm/2003">
 <defs>
  <style type="text/css">
   <![CDATA[
    .fil0 {fill:none}
    .fil6 {fill:#B3B3B3}
    .fil1 {fill:#E6E6E6}
    .fil2 {fill:white}
    .fil4 {fill:#72C1E9;fill-rule:nonzero}
    .fil5 {fill:#A6D15C;fill-rule:nonzero}
    .fil3 {fill:#FF6600;fill-rule:nonzero}
   ]]>
  </style>
 </defs>
 <g id="Слой_x0020_1">
  <metadata id="CorelCorpID_0Corel-Layer"/>
  <g id="_2718180674736">
   <polygon class="fil0" points="-0,0 3997.8,0 3997.8,3997.8 -0,3997.8 "/>
   <g>
    <rect class="fil1" x="29.2" y="928.6" width="3939.4" height="2173.4" rx="125.1" ry="125.1"/>
    <rect class="fil2" x="215.2" y="1104.2" width="3567.4" height="1822.3" rx="113.3" ry="104.9"/>
    <polygon class="fil3" points="969.9,1382.3 969.9,2642.8 733.9,2642.8 733.9,1623.9 453,1794.3 348.1,1633.2 758.3,1382.3 "/>
    <path id="_1" class="fil4" d="M1584.3 1359.8c84.9,0 158.3,15.6 220.1,46.8 61.8,31.2 109,73.7 141.4,127.4 32.5,53.7 48.7,113.6 48.7,179.8 0,71.2 -15.3,139.5 -45.9,205.1 -30.6,65.6 -81.5,138.3 -152.6,218.2 -71.2,79.9 -175.5,185.4 -312.8,316.5l539.4 0 -26.2 189.2 -784.8 0 0 -176.1c159.8,-162.3 274.4,-282.5 343.7,-360.6 69.3,-78 118.6,-144.8 148,-200.4 29.3,-55.6 44,-113.3 44,-173.3 0,-57.4 -16.5,-102.4 -49.6,-134.8 -33.1,-32.5 -77.1,-48.7 -132.1,-48.7 -48.7,0 -91.5,10.3 -128.3,30.9 -36.8,20.6 -75.2,54.6 -115.2,102.1l-146.1 -116.1c106.1,-137.4 242.2,-206 408.3,-206z"/>
    <path id="_2" class="fil5" d="M2522.6 1359.8c83.7,0 155.8,14.4 216.3,43.1 60.6,28.7 106.1,67.4 136.7,116.1 30.6,48.7 45.9,102.4 45.9,161.1 0,76.2 -21.8,139.5 -65.5,190.1 -43.7,50.6 -103.6,85.8 -179.8,105.8 83.7,7.5 152.3,37.5 206,89.9 53.7,52.5 80.6,124.9 80.6,217.3 0,72.4 -18.4,138 -55.3,196.7 -36.8,58.7 -89.6,105.2 -158.3,139.5 -68.7,34.4 -149.8,51.5 -243.5,51.5 -172.3,0 -308.4,-60.6 -408.3,-181.7l133 -127.4c42.5,42.5 84.3,73.3 125.5,92.7 41.2,19.4 86.8,29 136.7,29 67.4,0 121.4,-19 162,-57.1 40.6,-38.1 60.9,-89.6 60.9,-154.5 0,-72.4 -19,-124.3 -57.1,-155.5 -38.1,-31.2 -94.6,-46.8 -169.5,-46.8l-99.3 0 28.1 -170.4 67.4 0c61.2,0 110.2,-16.9 147,-50.6 36.8,-33.7 55.2,-80.6 55.2,-140.5 0,-51.2 -16.9,-91.5 -50.6,-120.8 -33.7,-29.4 -78.7,-44 -134.9,-44 -48.7,0 -93,9 -133,27.1 -40,18.1 -79.9,45.9 -119.9,83.3l-121.7 -133c113.6,-107.4 245.4,-161.1 395.2,-161.1z"/>
    <polygon class="fil6" points="2840.4,282.3 3697.9,282.3 3697.9,609.9 3432.9,609.9 3432.9,3387.9 3697.9,3387.9 3697.9,3715.4 2840.4,3715.4 2840.4,3387.9 3105.4,3387.9 3105.4,609.9 2840.4,609.9 "/>
   </g>
  </g>
 </g>
</svg>
