<?xml version="1.0" encoding="UTF-8"?>
<!DOCTYPE svg PUBLIC "-//W3C//DTD SVG 1.1//EN" "http://www.w3.org/Graphics/SVG/1.1/DTD/svg11.dtd">
<!-- Creator: CorelDRAW -->
<svg xmlns="http://www.w3.org/2000/svg" xml:space="preserve" width="18.4674mm" height="18.4674mm" version="1.1" style="shape-rendering:geometricPrecision; text-rendering:geometricPrecision; image-rendering:optimizeQuality; fill-rule:evenodd; clip-rule:evenodd"
viewBox="0 0 1311.8 1311.8"
 xmlns:xlink="http://www.w3.org/1999/xlink"
 xmlns:xodm="http://www.corel.com/coreldraw/odm/2003">
 <defs>
  <style type="text/css">
   <![CDATA[
    .str0 {stroke:#999999;stroke-width:18.8;stroke-miterlimit:22.9256}
    .str1 {stroke:white;stroke-width:53.3;stroke-linecap:round;stroke-linejoin:round;stroke-miterlimit:22.9256}
    .fil0 {fill:none}
    .fil2 {fill:#494949}
    .fil6 {fill:#A6D15C}
    .fil5 {fill:#EDA935}
    .fil3 {fill:#EEA933}
    .fil4 {fill:#F2C61F}
    .fil1 {fill:white}
   ]]>
  </style>
 </defs>
 <g id="Слой_x0020_1">
  <metadata id="CorelCorpID_0Corel-Layer"/>
  <rect class="fil0" width="1311.8" height="1311.8"/>
  <g id="_2681409990976">
   <g id="принято">
    <g>
     <path class="fil1" d="M960.3 944.4l-686.8 0c0,-102.8 0,-229.6 0,-334.4 0,-155.4 -20.6,-303.8 50.1,-421.6 8.8,-16.3 19.4,-31.7 31.6,-45.6 5.9,-7.2 12.3,-14.1 19,-20.6l9.5 -9.5c57.3,-55.7 132.8,-88.8 212.6,-93.2l43.1 -0c158.2,10.7 288.7,128.5 315.4,284.8 5.2,65.1 8.1,130.7 8.1,196 0,37 -0.9,74.5 -2.6,111.3l0 334.4 -0 -1.5zm0 0l0 0 0 0z"/>
     <path id="_1" class="fil0 str0" d="M960.3 944.4l-686.8 0c0,-102.8 0,-229.6 0,-334.4 0,-155.4 -20.6,-303.8 50.1,-421.6 8.8,-16.3 19.4,-31.7 31.6,-45.6 5.9,-7.2 12.3,-14.1 19,-20.6l9.5 -9.5c57.3,-55.7 132.8,-88.8 212.6,-93.2l43.1 -0c158.2,10.7 288.7,128.5 315.4,284.8 5.2,65.1 8.1,130.7 8.1,196 0,37 -0.9,74.5 -2.6,111.3l0 334.4m-0 -1.5l0 0 0 0z"/>
    </g>
    <g>
     <path class="fil2" d="M407.3 927.4l50.1 0 0 -138.4c34.1,0 32.1,-13.5 47.1,-36.1 15,-22.6 21.1,-36.1 32.1,-57.1 11,-21.1 32.1,-41.6 9.5,-58.7 -18.8,-4.9 -38.1,-7.4 -57.5,-7.4 -8.4,0 -16.8,0.5 -25.2,1.4 -71.7,0 -58.7,0 -58.7,115.8l2.5 180.5zm0 0l0 0 0 0z"/>
    </g>
    <path class="fil2" d="M775.8 927.4l50.1 0c0,-56.7 0,-121.3 0,-180.5 0,-26.6 0,-58.7 0,-85.2 0,-26.6 -26.6,-32.6 -60.2,-30.6 -33.6,2 -32.1,23.1 -43.6,41.6 -73.2,121.8 -67.7,116.3 50.1,116.3l3.5 138.4z"/>
    <path class="fil3" d="M460 1161l-54.1 0 0 45.6c0,36.1 -9.5,81.7 24.1,85.7l7.5 0c32.1,-4 22.6,-50.1 22.6,-85.7l0 -45.6z"/>
    <path class="fil3" d="M829 1161l-56.6 0 0 45.6c0,36.1 -9.5,81.7 22.6,85.7l7.5 0c34.1,-4 24.6,-50.1 24.6,-85.7l2 -45.6z"/>
    <path class="fil4" d="M722.2 1056.2c-0.6,6.3 -1,12.7 -1,19.1 0,18.7 2.9,37.3 8.5,55.1 4,8.6 9.9,16.3 17.1,22.5 6.7,5.2 15,8.1 23.6,8.1 2.2,0 4.3,-0.2 6.5,-0.6l54.7 0c50.1,-3.5 58.1,-45.6 50.1,-104.3 -26.5,-2.4 -53.1,-3.6 -79.7,-3.6 -26.6,0 -53.3,1.2 -79.7,3.5l0 0.1z"/>
    <path class="fil4" d="M405.9 1161l54.1 0c15.5,0 21,0 30.6,-7.5 8.3,-5.5 14.8,-13.4 18.6,-22.6 4.3,-17.7 6.4,-35.8 6.4,-54 0,-6.9 -0.3,-13.8 -0.9,-20.7 -26.6,-2.3 -53.3,-3.6 -80,-3.6 -26.7,0 -53.4,1.3 -80,3.6 -7.5,58.7 0,100.3 50.1,104.3l1 0.5z"/>
    <path class="fil5" d="M972.9 1056.2c33.6,0 63.7,5.5 67.7,-26.6 0,-13.5 0,-81.7 0,-91.2 -9.5,-24.6 -41.1,-17 -77.2,-17l-689.3 0c-6.2,-0.5 -12.4,-0.7 -18.6,-0.7 -15.1,0 -30.2,1.4 -45.1,4.2 -22.6,9.5 -17,72.2 -13.5,104.8 3.5,32.6 30.1,26.6 62.2,26.6l713.9 0z"/>
   </g>
   <path class="fil6" d="M938.7 54.1c103.1,30.2 174.3,122.5 179.6,230.6l0 21.9c-3.9,66.8 -29.2,123.2 -75.4,169.2 -44.1,43.8 -101.7,67.9 -163.6,71.1l-19.9 -0c-36.6,-1.4 -71.1,-10.8 -103.1,-27.3 -81.8,-43.1 -133,-124.6 -135.8,-218l0 -11.1c3.6,-135.1 109.2,-242.1 242.5,-246.4l12.1 0c21.7,0.7 43,3.9 63.7,10.1l0 0z"/>
   <polyline class="fil0 str1" points="750.8,303.4 839,444.9 969.5,169.2 "/>
  </g>
 </g>
</svg>
