<?xml version="1.0" encoding="UTF-8"?>
<!DOCTYPE svg PUBLIC "-//W3C//DTD SVG 1.1//EN" "http://www.w3.org/Graphics/SVG/1.1/DTD/svg11.dtd">
<!-- Creator: CorelDRAW -->
<svg xmlns="http://www.w3.org/2000/svg" xml:space="preserve" width="18.4674mm" height="18.4674mm" version="1.1" style="shape-rendering:geometricPrecision; text-rendering:geometricPrecision; image-rendering:optimizeQuality; fill-rule:evenodd; clip-rule:evenodd"
viewBox="0 0 2789.9 2789.9"
 xmlns:xlink="http://www.w3.org/1999/xlink"
 xmlns:xodm="http://www.corel.com/coreldraw/odm/2003">
 <defs>
  <style type="text/css">
   <![CDATA[
    .fil0 {fill:none}
    .fil6 {fill:#72C1E9}
    .fil5 {fill:#A6D15C}
    .fil2 {fill:#B3B3B3}
    .fil1 {fill:#E6E6E6}
    .fil4 {fill:#FF6600}
    .fil3 {fill:yellow}
   ]]>
  </style>
 </defs>
 <g id="Слой_x0020_1">
  <metadata id="CorelCorpID_0Corel-Layer"/>
  <polygon class="fil0" points="-0,0 2789.9,0 2789.9,2789.9 -0,2789.9 "/>
  <g id="_2718170266640">
   <rect class="fil1" x="21.1" y="249.8" width="2747.7" height="818.5"/>
   <rect class="fil1" x="21.1" y="1721.5" width="2747.7" height="818.5"/>
   <rect class="fil2" x="244.5" y="552.1" width="346.9" height="276.5" rx="74.2" ry="74.2"/>
   <rect class="fil2" x="1233.9" y="552.1" width="346.9" height="276.5" rx="74.2" ry="74.2"/>
   <rect class="fil2" x="2223.2" y="552.1" width="346.9" height="276.5" rx="74.2" ry="74.2"/>
   <rect class="fil2" x="244.5" y="2023.8" width="346.9" height="276.5" rx="74.2" ry="74.2"/>
   <rect class="fil2" x="1233.9" y="2023.8" width="346.9" height="276.5" rx="74.2" ry="74.2"/>
   <rect class="fil2" x="2223.2" y="2023.8" width="346.9" height="276.5" rx="74.2" ry="74.2"/>
   <rect class="fil3" x="244.5" y="520.8" width="346.9" height="276.5" rx="74.2" ry="74.2"/>
   <rect class="fil4" x="1233.9" y="520.8" width="346.9" height="276.5" rx="74.2" ry="74.2"/>
   <rect class="fil5" x="2223.2" y="520.8" width="346.9" height="276.5" rx="74.2" ry="74.2"/>
   <rect class="fil6" x="244.5" y="1992.5" width="346.9" height="276.5" rx="74.2" ry="74.2"/>
   <rect class="fil3" x="1233.9" y="1992.5" width="346.9" height="276.5" rx="74.2" ry="74.2"/>
   <rect class="fil4" x="2223.2" y="1992.5" width="346.9" height="276.5" rx="74.2" ry="74.2"/>
   <g>
    <rect class="fil2" x="879.5" y="325.1" width="66.3" height="238.7" rx="28.7" ry="28.7"/>
    <rect class="fil2" x="879.5" y="756" width="66.3" height="238.7" rx="28.7" ry="28.7"/>
   </g>
   <g>
    <rect class="fil2" x="1868.9" y="323.5" width="66.3" height="238.7" rx="28.7" ry="28.7"/>
    <rect class="fil2" x="1868.9" y="754.5" width="66.3" height="238.7" rx="28.7" ry="28.7"/>
   </g>
   <g>
    <rect class="fil2" x="879.5" y="1795.2" width="66.3" height="238.7" rx="28.7" ry="28.7"/>
    <rect class="fil2" x="879.5" y="2226.2" width="66.3" height="238.7" rx="28.7" ry="28.7"/>
   </g>
   <g>
    <rect class="fil2" x="1868.9" y="1795.2" width="66.3" height="238.7" rx="28.7" ry="28.7"/>
    <rect class="fil2" x="1868.9" y="2226.2" width="66.3" height="238.7" rx="28.7" ry="28.7"/>
   </g>
  </g>
 </g>
</svg>
