<?xml version="1.0" encoding="UTF-8"?>
<!DOCTYPE svg PUBLIC "-//W3C//DTD SVG 1.1//EN" "http://www.w3.org/Graphics/SVG/1.1/DTD/svg11.dtd">
<!-- Creator: CorelDRAW -->
<svg xmlns="http://www.w3.org/2000/svg" xml:space="preserve" width="18.4674mm" height="18.4674mm" version="1.1" style="shape-rendering:geometricPrecision; text-rendering:geometricPrecision; image-rendering:optimizeQuality; fill-rule:evenodd; clip-rule:evenodd"
viewBox="0 0 1463.4 1463.4"
 xmlns:xlink="http://www.w3.org/1999/xlink"
 xmlns:xodm="http://www.corel.com/coreldraw/odm/2003">
 <defs>
  <style type="text/css">
   <![CDATA[
    .str0 {stroke:white;stroke-width:43.6;stroke-linecap:round;stroke-miterlimit:22.9256}
    .str1 {stroke:white;stroke-width:43.6;stroke-linecap:round;stroke-linejoin:round;stroke-miterlimit:22.9256}
    .fil0 {fill:none}
    .fil1 {fill:#72C1E9;fill-rule:nonzero}
    .fil3 {fill:#AFCB80;fill-rule:nonzero}
    .fil4 {fill:#FEFEFE;fill-rule:nonzero}
    .fil2 {fill:white;fill-rule:nonzero}
   ]]>
  </style>
 </defs>
 <g id="Слой_x0020_1">
  <metadata id="CorelCorpID_0Corel-Layer"/>
  <polygon class="fil0" points="-0,0 1463.4,0 1463.4,1463.4 -0,1463.4 "/>
  <path class="fil1" d="M187.2 1293.6l-2.6 -200.7c0,0 -178.9,-10.2 -184.4,-172.1l2.9 -649.4c0,0 18.3,-146.7 186.5,-142.2l961.1 0c0,0 194.1,-12.3 197.3,174.2l0 621.9c0,0 2.9,153 -186.5,168.2l-586.8 0 -332.4 228.4c-11,7.6 -24.4,8.4 -36.2,2.4 -11.8,-6 -18.9,-17.6 -18.9,-30.7l-0 0z"/>
  <path class="fil2" d="M239.3 281.4c0,-17 13.9,-30.9 30.9,-30.9 17,0 30.9,13.9 30.9,30.9l-62.1 0 0.3 0zm0 251.5l0 -251.5 62.1 0 0 251.5 -62.1 0zm62.1 0c0,17 -13.9,30.9 -30.9,30.9 -17,0 -30.9,-13.9 -30.9,-30.9l62.1 0 -0.3 0z"/>
  <path class="fil2" d="M595.6 284.8c19.1,28.8 29.1,69.4 29.1,122.1 0,52.7 -9.7,93.8 -29.1,122.6 -19.1,29.1 -47.7,43.5 -84.9,43.5 -37.5,0 -65.5,-14.4 -84.9,-43.5 -19.1,-29.1 -29.1,-69.7 -29.1,-122.6 0,-52.4 9.7,-93 29.1,-122.1 19.1,-28.8 47.7,-43.5 84.9,-43.5 37.5,0 65.7,14.7 84.9,43.5zm-118.1 35.4c-7.1,17.3 -10.7,46.4 -10.7,86.7 0,41.6 3.7,71 10.7,88.3 7.1,17.3 18.3,25.9 33.5,25.9 15.5,0 26.7,-8.7 33.5,-25.9 6.8,-17.3 10.2,-46.6 10.2,-88.3 0,-41.1 -3.7,-69.9 -10.7,-87 -7.1,-17 -18.3,-25.7 -33,-25.7 -15.2,0 -26.5,8.7 -33.5,25.9l-0 0z"/>
  <path class="fil2" d="M732.6 281.7c0,-17 13.9,-30.9 30.9,-30.9 17,0 30.9,13.9 30.9,30.9l-62.1 0 0.3 0zm0 251.5l0 -251.5 62.1 0 0 251.5 -62.1 0zm62.1 0c0,17 -13.9,30.9 -30.9,30.9 -17,0 -30.9,-13.9 -30.9,-30.9l62.1 0 -0.3 0z"/>
  <path class="fil2" d="M1089.1 288.3c19.1,28.8 29.1,69.4 29.1,122.1 0,52.7 -9.7,93.8 -29.1,122.6 -19.1,29.1 -47.7,43.5 -84.9,43.5 -37.5,0 -65.5,-14.4 -84.9,-43.5 -19.1,-29.1 -29.1,-69.7 -29.1,-122.6 0,-52.4 9.7,-93 29.1,-122.1 19.1,-28.8 47.7,-43.5 84.9,-43.5 37.5,0.3 65.5,14.7 84.9,43.5zm-118.4 35.4c-7.1,17.3 -10.7,46.4 -10.7,86.7 0,41.6 3.7,71 10.7,88.3 7.1,17.3 18.3,25.9 33.5,25.9 15.5,0 26.7,-8.7 33.5,-25.9 6.8,-17.3 10.2,-46.6 10.2,-88.3 0,-41.1 -3.7,-69.9 -10.7,-87 -7.1,-17 -18.3,-25.7 -33,-25.7 -15.2,0 -26.5,8.6 -33.5,25.9l-0 0z"/>
  <path class="fil2" d="M1048.5 696.6c0,-17 13.9,-30.9 30.9,-30.9 17,0 30.9,13.9 30.9,30.9l-62.1 0 0.3 0zm0 251.5l0 -251.5 62.1 0 0 251.5 -62.1 0zm62.1 0c0,17 -13.9,30.9 -30.9,30.9 -17,0 -30.9,-13.9 -30.9,-30.9l62.1 0 -0.3 0z"/>
  <path class="fil2" d="M838.9 656.6c37.5,0 65.5,14.4 84.9,43.5 19.1,28.8 29.1,69.4 29.1,122.1 0,52.7 -9.7,93.8 -29.1,122.6 -19.1,29.1 -47.7,43.5 -84.9,43.5 -37.5,0 -65.5,-14.4 -84.9,-43.5 -19.1,-29.1 -29.1,-69.7 -29.1,-122.6 0,-52.4 9.7,-93 29.1,-122.1 19.4,-29.1 47.7,-43.5 84.9,-43.5zm0 52.4c-14.9,0 -25.7,8.7 -33,25.7 -7.1,17 -10.7,46.1 -10.7,87 0,41.6 3.4,71 10.2,88.3 6.8,17.3 18.1,25.9 33.5,25.9 15.2,0 26.5,-8.7 33.5,-25.9 7.1,-17.3 10.7,-46.6 10.7,-88.3 0,-40.3 -3.7,-69.1 -10.7,-86.7 -7.1,-17.3 -18.3,-25.9 -33.5,-25.9l-0 0z"/>
  <path class="fil2" d="M555.5 696.6c0,-17 13.9,-30.9 30.9,-30.9 17,0 30.9,13.9 30.9,30.9l-62.1 0 0.3 0zm0 251.5l0 -251.5 62.1 0 0 251.5 -62.1 0zm62.1 0c0,17 -13.9,30.9 -30.9,30.9 -17,0 -30.9,-13.9 -30.9,-30.9l62.1 0 -0.3 0z"/>
  <path class="fil2" d="M345.7 656.8c37.5,0 65.5,14.4 84.9,43.5 19.1,28.8 29.1,69.4 29.1,122.1 0,52.7 -9.7,93.8 -29.1,122.6 -19.1,29.1 -47.7,43.5 -84.9,43.5 -37.5,0 -65.5,-14.4 -84.9,-43.5 -19.1,-29.1 -29.1,-69.7 -29.1,-122.6 0,-52.4 9.7,-93 29.1,-122.1 19.4,-29.1 47.7,-43.5 84.9,-43.5zm0 52.4c-14.9,0 -25.7,8.7 -33,25.7 -7.1,17 -10.7,46.1 -10.7,87 0,41.6 3.4,71 10.2,88.3 6.8,17.3 18.1,25.9 33.5,25.9 15.2,0 26.5,-8.7 33.5,-25.9 7.1,-17.3 10.7,-46.6 10.7,-88.3 0,-40.3 -3.7,-69.1 -10.7,-86.7 -7.1,-17.3 -18.3,-25.9 -33.5,-25.9l-0 0z"/>
  <g id="_2717410573680">
   <g>
    <path class="fil3" d="M1447.7 1053.5c0,146.6 -118.7,265.2 -265.2,265.2 -146.6,0 -265.2,-118.7 -265.2,-265.2 0,-146.6 118.7,-265.2 265.2,-265.2 146.6,0 265.2,118.7 265.2,265.2z"/>
    <path id="_1" class="fil4" d="M1182.5 1334.1l0 -31 0 0 12.8 -0.3 12.8 -1 12.5 -1.5 12.3 -2.3 12 -2.8 11.8 -3.3 11.5 -3.8 11.3 -4.3 11 -5.1 10.7 -5.6 10.5 -6.1 10.2 -6.4 9.7 -6.9 9.5 -7.4 9 -7.9 8.7 -8.2 8.2 -8.7 7.9 -9 7.4 -9.5 6.9 -9.7 6.4 -10.2 6.1 -10.5 5.6 -10.7 5.1 -11 4.3 -11.3 3.8 -11.5 3.3 -11.8 2.8 -12 2.3 -12.3 1.5 -12.5 1 -12.8 0.3 -12.8 31 0 -0.3 14.3 -1 14.3 -1.8 14.1 -2.6 13.8 -3.1 13.6 -3.8 13.3 -4.3 13 -5.1 12.8 -5.6 12.5 -6.1 12 -6.6 11.8 -7.4 11.5 -7.9 11 -8.4 10.5 -8.7 10.2 -9.2 9.7 -9.7 9.2 -10.2 8.7 -10.5 8.4 -11 7.9 -11.5 7.4 -11.8 6.6 -12 6.1 -12.5 5.6 -12.8 5.1 -13 4.3 -13.3 3.8 -13.6 3.1 -13.8 2.6 -14.1 1.8 -14.3 1 -14.3 0.3 0 0 0.2 -0.2zm0 0c-8.7,0 -15.6,-6.9 -15.6,-15.6 0,-8.7 6.9,-15.6 15.6,-15.6l0 31 0 0.3zm-280.8 -280.6l31 0 0 0 0.3 12.8 1 12.8 1.5 12.5 2.3 12.3 2.8 12 3.3 11.8 3.8 11.5 4.3 11.3 5.1 11 5.6 10.7 6.1 10.5 6.4 10.2 6.9 9.7 7.4 9.5 7.9 9 8.2 8.7 8.7 8.2 9 7.9 9.5 7.4 9.7 6.9 10.2 6.4 10.5 6.1 10.7 5.6 11 5.1 11.3 4.3 11.5 3.8 11.8 3.3 12 2.8 12.3 2.3 12.5 1.5 12.8 1 12.8 0.3 0 31 -14.3 -0.3 -14.3 -1 -14.1 -1.8 -13.8 -2.5 -13.6 -3.1 -13.3 -3.8 -13 -4.3 -12.8 -5.1 -12.5 -5.6 -12 -6.1 -11.8 -6.6 -11.5 -7.4 -11 -7.9 -10.5 -8.4 -10.2 -8.7 -9.7 -9.2 -9.2 -9.7 -8.7 -10.2 -8.4 -10.5 -7.9 -11 -7.4 -11.5 -6.6 -11.8 -6.1 -12 -5.6 -12.5 -5.1 -12.8 -4.3 -13 -3.8 -13.3 -3.1 -13.6 -2.6 -13.8 -1.8 -14.1 -1 -14.3 -0.3 -14.3 0 0 0.2 0.2zm0 0c0,-8.7 6.9,-15.6 15.6,-15.6 8.7,0 15.6,6.9 15.6,15.6l-31 0 -0.3 0zm280.8 -280.8l0 30.9 0 0 -12.8 0.3 -12.8 1 -12.5 1.5 -12.3 2.3 -12 2.8 -11.8 3.3 -11.5 3.8 -11.3 4.3 -11 5.1 -10.7 5.6 -10.5 6.1 -10.2 6.4 -9.7 6.9 -9.5 7.4 -9 7.9 -8.7 8.2 -8.2 8.7 -7.9 9 -7.4 9.5 -6.9 9.7 -6.4 10.2 -6.1 10.5 -5.6 10.7 -5.1 11 -4.3 11.3 -3.8 11.5 -3.3 11.8 -2.8 12 -2.3 12.3 -1.5 12.5 -1 12.8 -0.3 12.8 -31 0 0.3 -14.3 1 -14.3 1.8 -14.1 2.6 -13.8 3.1 -13.5 3.8 -13.3 4.3 -13 5.1 -12.8 5.6 -12.5 6.1 -12 6.6 -11.8 7.4 -11.5 7.9 -11 8.4 -10.5 8.7 -10.2 9.2 -9.7 9.7 -9.2 10.2 -8.7 10.5 -8.4 11 -7.9 11.5 -7.4 11.8 -6.6 12 -6.1 12.5 -5.6 12.8 -5.1 13 -4.3 13.3 -3.8 13.6 -3.1 13.8 -2.6 14.1 -1.8 14.3 -1 14.3 -0.3 0 0 -0.2 0.2zm0 0c8.7,0 15.6,6.9 15.6,15.6 0,8.7 -6.9,15.6 -15.6,15.6l0 -31 0 -0.3zm280.6 280.8l-31 0 0 0 -0.3 -12.8 -1 -12.8 -1.5 -12.5 -2.3 -12.3 -2.8 -12 -3.3 -11.8 -3.8 -11.5 -4.3 -11.3 -5.1 -11 -5.6 -10.7 -6.1 -10.5 -6.4 -10.2 -6.9 -9.7 -7.4 -9.5 -7.9 -9 -8.2 -8.7 -8.7 -8.2 -9 -7.9 -9.5 -7.4 -9.7 -6.9 -10.2 -6.4 -10.5 -6.1 -10.7 -5.6 -11 -5.1 -11.3 -4.3 -11.5 -3.8 -11.8 -3.3 -12 -2.8 -12.3 -2.3 -12.5 -1.5 -12.8 -1 -12.8 -0.3 0 -31 14.3 0.3 14.3 1 14.1 1.8 13.8 2.6 13.6 3.1 13.3 3.8 13 4.3 12.8 5.1 12.5 5.6 12 6.1 11.8 6.6 11.5 7.4 11 7.9 10.5 8.4 10.2 8.7 9.7 9.2 9.2 9.7 8.7 10.2 8.4 10.5 7.9 11 7.4 11.5 6.7 11.8 6.1 12 5.6 12.5 5.1 12.8 4.3 13 3.8 13.3 3.1 13.5 2.6 13.8 1.8 14.1 1 14.3 0.3 14.3 0 0 -0.2 -0.2zm0 0c0,8.7 -6.9,15.6 -15.6,15.6 -8.7,0 -15.6,-6.9 -15.6,-15.6l31 0 0.3 0z"/>
   </g>
   <g>
    <path class="fil0 str0" d="M1164.1 1199.4c-18.6,-0.7 -37.4,-5.5 -55,-14.7 -64.1,-33.4 -89.1,-112.4 -55.7,-176.5 33.4,-64.1 112.4,-89.1 176.5,-55.7 39.1,20.3 63.6,57.6 69.2,98.2"/>
    <polyline class="fil0 str1" points="1229.3,1019.6 1307.4,1059.3 1321.7,972 "/>
   </g>
  </g>
 </g>
</svg>
