<?xml version="1.0" encoding="UTF-8"?>
<!DOCTYPE svg PUBLIC "-//W3C//DTD SVG 1.1//EN" "http://www.w3.org/Graphics/SVG/1.1/DTD/svg11.dtd">
<!-- Creator: CorelDRAW -->
<svg xmlns="http://www.w3.org/2000/svg" xml:space="preserve" width="18.4674mm" height="18.4674mm" version="1.1" style="shape-rendering:geometricPrecision; text-rendering:geometricPrecision; image-rendering:optimizeQuality; fill-rule:evenodd; clip-rule:evenodd"
viewBox="0 0 3432.3 3432.3"
 xmlns:xlink="http://www.w3.org/1999/xlink"
 xmlns:xodm="http://www.corel.com/coreldraw/odm/2003">
 <defs>
  <style type="text/css">
   <![CDATA[
    .fil0 {fill:none}
    .fil2 {fill:#EF7E12}
    .fil3 {fill:black;fill-rule:nonzero}
    .fil1 {fill:#FEFEFE;fill-rule:nonzero}
   ]]>
  </style>
 </defs>
 <g id="Слой_x0020_1">
  <metadata id="CorelCorpID_0Corel-Layer"/>
  <g id="_2681397743984">
   <polygon class="fil0" points="-0,0 3432.3,0 3432.3,3432.3 -0,3432.3 "/>
   <g>
    <polygon class="fil1" points="239.2,3155.7 3194.8,3155.7 3194.8,327 239.2,327 "/>
    <path class="fil2" d="M239.1 1046.8l2955.7 0 0 2108.9 -2955.7 0 0 -2108.9zm1146.1 -719.8c0.3,0 0.6,0 0.9,0 101.7,0 184.1,82.5 184.1,184.1 0,101.7 -82.5,184.1 -184.1,184.1 -101,0 -183.2,-81.4 -184.1,-182.5 0,-0.3 0,-0.6 0,-0.9 0,-101.5 81.8,-184.1 183.3,-185l-0 0zm-481 0c0.3,0 0.6,0 0.9,0 101.7,0 184.1,82.5 184.1,184.1 0,101.7 -82.5,184.1 -184.1,184.1 -101,0 -183.2,-81.4 -184.1,-182.5 0,-1.1 0,-2.3 0,-3.4 0,-100.7 81.7,-182.5 182.5,-182.5 0.6,0 1.2,0 1.7,0l-0.9 0zm-484.4 0c101.7,0 184.2,82.5 184.2,184.1 0,101.7 -82.5,184.1 -184.1,184.1 -101.7,0 -184.1,-82.5 -184.1,-184.1 0,-101.7 82.5,-184.1 184.1,-184.1l-0 0zm-203.5 -296l2999.4 0c92.8,0 168.1,75.3 168.1,168.2l0 3033.9c-0,92.8 -75.3,168.1 -168.2,168.1l-2999.4 0c-92.8,-0 -168.1,-75.3 -168.1,-168.2l-0 -3033.8c0,-92.9 75.3,-168.2 168.2,-168.2l-0 0z"/>
    <path class="fil3" d="M1110.6 1955.4c-21.4,15.3 -45.3,26.8 -71.7,34.4 -26.4,7.6 -53.4,11.5 -80.9,11.5 -59.7,-0.8 -105,-17.8 -136,-51.1 -31,-33.3 -46.5,-82.4 -46.5,-147.5l0 -320.2 -95.3 0 0 -105.6 95.3 0 0 -134.3 146.9 -17.2 0 151.5 141.2 0 -14.9 105.6 -126.3 0 0 316.7c0,29.8 5.2,51.3 15.5,64.3 10.3,13 26.6,19.5 48.8,19.5 22.2,0 46.3,-7.3 72.3,-21.8l51.6 94.1zm561.2 -289.2c0,7.7 -1.2,27.5 -3.5,59.7l-381 0c4.6,58.9 19.9,101 45.9,126.2 26,25.3 60.4,37.9 103.3,37.9 26.8,0 52,-4.4 75.7,-13.2 23.7,-8.8 49,-22.4 75.7,-40.7l60.8 83.8c-67.3,54.3 -142.3,81.5 -224.9,81.5 -92.6,0 -163.9,-28.3 -214,-84.9 -50.1,-56.6 -75.2,-133.9 -75.2,-231.8 0,-62 10.7,-117.6 32.1,-167 21.4,-49.3 52.4,-88 93,-115.9 40.5,-27.9 88.7,-41.9 144.6,-41.9 84.9,0 150.7,27 197.4,80.9 46.7,53.9 70,129.1 70,225.5zm-145.7 -42.5c0,-106.3 -39.4,-159.5 -118.2,-159.5 -36,0 -64.1,13.2 -84.3,39.6 -20.3,26.4 -32.3,68.7 -36.2,126.8l238.7 0 0 -6.9zm550.9 35.6l203.1 324.8 -169.9 0 -125.1 -241 -123.9 241 -161.8 0 202 -320.2 -181.3 -286.9 167.5 0 103.3 206.6 102.1 -206.6 159.5 0 -175.6 282.3zm635.8 296.1c-21.4,15.3 -45.3,26.8 -71.7,34.4 -26.4,7.6 -53.4,11.5 -80.9,11.5 -59.7,-0.8 -105,-17.8 -136,-51.1 -31,-33.3 -46.5,-82.4 -46.5,-147.5l0 -320.2 -95.3 0 0 -105.6 95.3 0 0 -134.3 146.9 -17.2 0 151.5 141.2 0 -14.9 105.6 -126.3 0 0 316.7c0,29.8 5.2,51.3 15.5,64.3 10.3,13 26.6,19.5 48.8,19.5 22.2,0 46.3,-7.3 72.3,-21.8l51.6 94.1zm-1775.3 220.3l0 772.3 -144.6 0 0 -624.3 -172.1 104.4 -64.3 -98.7 251.3 -153.8 129.7 0zm437.2 -13.8c90.3,0 158.9,34.4 206,103.3 47.1,68.8 70.6,167.9 70.6,297.2 0,130.1 -23.5,229.7 -70.6,298.9 -47,69.2 -115.7,103.9 -206,103.9 -90.3,0 -158.9,-34.6 -206,-103.9 -47.1,-69.2 -70.6,-168.9 -70.6,-298.9 0,-129.3 23.5,-228.4 70.6,-297.2 47.1,-68.9 115.7,-103.3 206,-103.3zm0 111.3c-43.6,0 -75.4,22 -95.3,66 -19.9,44 -29.8,118.4 -29.8,223.2 0,105.6 9.9,180.6 29.8,224.9 19.9,44.4 51.6,66.6 95.3,66.6 43.6,0 75.3,-22 95.3,-66 19.9,-44 29.8,-119.2 29.8,-225.5 0,-105.6 -9.9,-180.2 -29.8,-223.8 -19.9,-43.6 -51.6,-65.4 -95.3,-65.4zm710.4 -97.6l0 772.3 -144.6 0 0 -624.3 -172.1 104.4 -64.3 -98.7 251.3 -153.8 129.7 0zm437.2 -13.8c90.3,0 158.9,34.4 206,103.3 47.1,68.8 70.6,167.9 70.6,297.2 0,130.1 -23.5,229.7 -70.6,298.9 -47,69.2 -115.7,103.9 -206,103.9 -90.3,0 -158.9,-34.6 -206,-103.9 -47.1,-69.2 -70.6,-168.9 -70.6,-298.9 0,-129.3 23.5,-228.4 70.6,-297.2 47.1,-68.9 115.7,-103.3 206,-103.3zm0 111.3c-43.6,0 -75.4,22 -95.3,66 -19.9,44 -29.8,118.4 -29.8,223.2 0,105.6 9.9,180.6 29.8,224.9 19.9,44.4 51.6,66.6 95.3,66.6 43.6,0 75.3,-22 95.3,-66 19.9,-44 29.8,-119.2 29.8,-225.5 0,-105.6 -9.9,-180.2 -29.8,-223.8 -19.9,-43.6 -51.6,-65.4 -95.3,-65.4z"/>
   </g>
  </g>
 </g>
</svg>
