<?xml version="1.0" encoding="UTF-8"?>
<!DOCTYPE svg PUBLIC "-//W3C//DTD SVG 1.1//EN" "http://www.w3.org/Graphics/SVG/1.1/DTD/svg11.dtd">
<!-- Creator: CorelDRAW -->
<svg xmlns="http://www.w3.org/2000/svg" xml:space="preserve" width="18.4674mm" height="18.4675mm" version="1.1" style="shape-rendering:geometricPrecision; text-rendering:geometricPrecision; image-rendering:optimizeQuality; fill-rule:evenodd; clip-rule:evenodd"
viewBox="0 0 1463.4 1463.4"
 xmlns:xlink="http://www.w3.org/1999/xlink"
 xmlns:xodm="http://www.corel.com/coreldraw/odm/2003">
 <defs>
  <style type="text/css">
   <![CDATA[
    .str0 {stroke:white;stroke-width:19.8;stroke-linecap:round;stroke-miterlimit:22.9256}
    .str1 {stroke:white;stroke-width:19.8;stroke-linecap:round;stroke-linejoin:round;stroke-miterlimit:22.9256}
    .fil0 {fill:none}
    .fil2 {fill:#EF7E12}
    .fil3 {fill:#72C1E9;fill-rule:nonzero}
    .fil5 {fill:#AFCB80;fill-rule:nonzero}
    .fil1 {fill:#FEFEFE;fill-rule:nonzero}
    .fil4 {fill:white;fill-rule:nonzero}
   ]]>
  </style>
 </defs>
 <g id="Слой_x0020_1">
  <metadata id="CorelCorpID_0Corel-Layer"/>
  <g id="_2717401023536">
   <polygon class="fil0" points="-0,0 1463.4,0 1463.4,1463.4 -0,1463.4 "/>
   <g>
    <polygon class="fil1" points="90.4,1356.8 1373.8,1356.8 1373.8,128.5 90.4,128.5 "/>
    <path class="fil2" d="M90.4 441.1l1283.4 0 0 915.7 -1283.4 0 0 -915.7zm497.7 -312.5c0.1,0 0.3,0 0.4,0 44.1,0 80,35.8 80,80 0,44.1 -35.8,80 -80,80 -43.9,0 -79.6,-35.4 -80,-79.2 0,-0.1 0,-0.2 0,-0.4 0,-44.1 35.5,-79.9 79.6,-80.3l-0 0zm-208.9 0c0.1,0 0.3,0 0.4,0 44.1,0 80,35.8 80,80 0,44.1 -35.8,80 -80,80 -43.9,0 -79.6,-35.4 -80,-79.2 0,-0.5 0,-1 0,-1.5 0,-43.7 35.5,-79.2 79.2,-79.2 0.2,0 0.5,0 0.7,0l-0.4 0zm-210.3 0c44.2,0 80,35.8 80,80 0,44.1 -35.8,80 -80,80 -44.1,0 -80,-35.8 -80,-80 0,-44.1 35.8,-80 80,-80l-0 0zm-88.4 -128.5l1302.4 0c40.3,0 73,32.7 73,73l0 1317.4c-0,40.3 -32.7,73 -73,73l-1302.4 0c-40.3,-0 -73,-32.7 -73,-73l-0 -1317.3c0,-40.3 32.7,-73 73,-73l-0 0z"/>
    <path class="fil3" d="M366 1283.2l-1.8 -134.9c0,0 -120.3,-6.9 -124,-115.7l1.9 -436.6c0,0 12.3,-98.6 125.4,-95.6l646.2 0c0,0 130.5,-8.3 132.6,117.1l0 418.1c0,0 1.9,102.9 -125.4,113.1l-394.5 0 -223.5 153.6c-7.4,5.1 -16.4,5.6 -24.3,1.6 -7.9,-4 -12.7,-11.8 -12.7,-20.6l-0 0z"/>
    <path class="fil4" d="M401 602.7c0,-11.5 9.3,-20.8 20.8,-20.8 11.5,0 20.8,9.3 20.8,20.8l-41.7 0 0.2 0zm0 169.1l0 -169.1 41.7 0 0 169.1 -41.7 0zm41.7 0c0,11.5 -9.3,20.8 -20.8,20.8 -11.5,0 -20.8,-9.3 -20.8,-20.8l41.7 0 -0.2 0z"/>
    <path class="fil4" d="M640.6 605c12.9,19.4 19.5,46.7 19.5,82.1 0,35.4 -6.5,63.1 -19.5,82.4 -12.9,19.5 -32.1,29.2 -57.1,29.2 -25.2,0 -44,-9.7 -57.1,-29.2 -12.9,-19.5 -19.5,-46.8 -19.5,-82.4 0,-35.2 6.5,-62.5 19.5,-82.1 12.9,-19.4 32.1,-29.2 57.1,-29.2 25.2,0 44.2,9.9 57.1,29.2zm-79.4 23.8c-4.7,11.6 -7.2,31.2 -7.2,58.3 0,28 2.5,47.7 7.2,59.3 4.7,11.6 12.3,17.4 22.5,17.4 10.4,0 18,-5.8 22.6,-17.4 4.6,-11.6 6.9,-31.3 6.9,-59.3 0,-27.6 -2.5,-47 -7.2,-58.5 -4.8,-11.5 -12.3,-17.3 -22.2,-17.3 -10.2,0 -17.8,5.8 -22.6,17.4l-0 0z"/>
    <path class="fil4" d="M732.7 602.9c0,-11.5 9.3,-20.8 20.8,-20.8 11.5,0 20.8,9.3 20.8,20.8l-41.7 0 0.2 0zm0 169.1l0 -169.1 41.7 0 0 169.1 -41.7 0zm41.7 0c0,11.5 -9.3,20.8 -20.8,20.8 -11.5,0 -20.8,-9.3 -20.8,-20.8l41.7 0 -0.2 0z"/>
    <path class="fil4" d="M972.4 607.3c12.9,19.4 19.5,46.7 19.5,82.1 0,35.4 -6.5,63.1 -19.5,82.4 -12.9,19.5 -32,29.2 -57.1,29.2 -25.2,0 -44,-9.7 -57.1,-29.2 -12.9,-19.5 -19.5,-46.8 -19.5,-82.4 0,-35.2 6.5,-62.5 19.5,-82.1 12.9,-19.4 32,-29.2 57.1,-29.2 25.2,0.2 44,9.9 57.1,29.2zm-79.6 23.8c-4.8,11.6 -7.2,31.2 -7.2,58.3 0,28 2.5,47.7 7.2,59.3 4.7,11.6 12.3,17.4 22.5,17.4 10.4,0 18,-5.8 22.6,-17.4 4.6,-11.6 6.9,-31.3 6.9,-59.3 0,-27.6 -2.5,-47 -7.2,-58.5 -4.7,-11.5 -12.3,-17.3 -22.2,-17.3 -10.2,0 -17.8,5.8 -22.6,17.4l-0 0z"/>
    <path class="fil4" d="M945.1 881.9c0,-11.5 9.3,-20.8 20.8,-20.8 11.5,0 20.8,9.3 20.8,20.8l-41.7 0 0.2 0zm0 169.1l0 -169.1 41.7 0 0 169.1 -41.7 0zm41.7 0c0,11.5 -9.3,20.8 -20.8,20.8 -11.5,0 -20.8,-9.3 -20.8,-20.8l41.7 0 -0.2 0z"/>
    <path class="fil4" d="M804.2 854.9c25.2,0 44,9.7 57.1,29.2 12.9,19.4 19.5,46.7 19.5,82.1 0,35.4 -6.5,63.1 -19.5,82.4 -12.9,19.5 -32,29.2 -57.1,29.2 -25.2,0 -44,-9.7 -57.1,-29.2 -12.9,-19.5 -19.5,-46.8 -19.5,-82.4 0,-35.2 6.5,-62.5 19.5,-82.1 13,-19.5 32,-29.2 57.1,-29.2zm0 35.2c-10,0 -17.3,5.8 -22.2,17.3 -4.8,11.5 -7.2,31 -7.2,58.5 0,28 2.3,47.7 6.9,59.3 4.6,11.6 12.2,17.4 22.6,17.4 10.2,0 17.8,-5.8 22.5,-17.4 4.8,-11.6 7.2,-31.3 7.2,-59.3 0,-27.1 -2.5,-46.5 -7.2,-58.3 -4.7,-11.6 -12.3,-17.4 -22.5,-17.4l-0 0z"/>
    <path class="fil4" d="M613.6 881.9c0,-11.5 9.3,-20.8 20.8,-20.8 11.5,0 20.8,9.3 20.8,20.8l-41.7 0 0.2 0zm0 169.1l0 -169.1 41.7 0 0 169.1 -41.7 0zm41.7 0c0,11.5 -9.3,20.8 -20.8,20.8 -11.5,0 -20.8,-9.3 -20.8,-20.8l41.7 0 -0.2 0z"/>
    <path class="fil4" d="M472.5 855.1c25.2,0 44,9.7 57.1,29.2 12.9,19.4 19.5,46.7 19.5,82.1 0,35.4 -6.5,63.1 -19.5,82.4 -12.9,19.5 -32,29.2 -57.1,29.2 -25.2,0 -44,-9.7 -57.1,-29.2 -12.9,-19.5 -19.5,-46.8 -19.5,-82.4 0,-35.2 6.5,-62.5 19.5,-82.1 13,-19.5 32,-29.2 57.1,-29.2zm0 35.2c-10,0 -17.3,5.8 -22.2,17.3 -4.7,11.5 -7.2,31 -7.2,58.5 0,28 2.3,47.7 6.9,59.3 4.6,11.6 12.1,17.4 22.5,17.4 10.2,0 17.8,-5.8 22.6,-17.4 4.7,-11.6 7.2,-31.3 7.2,-59.3 0,-27.1 -2.5,-46.5 -7.2,-58.3 -4.8,-11.6 -12.3,-17.4 -22.6,-17.4l-0 0z"/>
    <g>
     <g>
      <path class="fil5" d="M1213.4 1121.8c0,98.5 -79.8,178.3 -178.3,178.3 -98.5,0 -178.3,-79.8 -178.3,-178.3 0,-98.5 79.8,-178.3 178.3,-178.3 98.5,0 178.3,79.8 178.3,178.3z"/>
      <path id="_1" class="fil1" d="M1035.1 1310.4l0 -20.8 0 0 8.6 -0.2 8.6 -0.7 8.4 -1 8.3 -1.5 8.1 -1.9 7.9 -2.2 7.7 -2.6 7.6 -2.9 7.4 -3.4 7.2 -3.8 7.1 -4.1 6.9 -4.3 6.5 -4.6 6.4 -5 6 -5.3 5.8 -5.5 5.5 -5.8 5.3 -6 5 -6.4 4.6 -6.5 4.3 -6.9 4.1 -7.1 3.8 -7.2 3.4 -7.4 2.9 -7.6 2.6 -7.7 2.2 -7.9 1.9 -8.1 1.6 -8.3 1 -8.4 0.7 -8.6 0.2 -8.6 20.8 0 -0.2 9.6 -0.7 9.6 -1.2 9.5 -1.7 9.3 -2.1 9.1 -2.6 8.9 -2.9 8.8 -3.4 8.6 -3.8 8.4 -4.1 8.1 -4.5 7.9 -5 7.7 -5.3 7.4 -5.7 7.1 -5.8 6.9 -6.2 6.5 -6.5 6.2 -6.9 5.8 -7.1 5.7 -7.4 5.3 -7.7 5 -7.9 4.5 -8.1 4.1 -8.4 3.8 -8.6 3.4 -8.8 2.9 -8.9 2.6 -9.1 2.1 -9.3 1.7 -9.5 1.2 -9.6 0.7 -9.6 0.2 0 0 0.2 -0.2zm0 0c-5.8,0 -10.5,-4.6 -10.5,-10.5 0,-5.8 4.6,-10.5 10.5,-10.5l0 20.8 0 0.2zm-188.8 -188.6l20.8 0 0 0 0.2 8.6 0.7 8.6 1 8.4 1.6 8.3 1.9 8.1 2.2 7.9 2.6 7.7 2.9 7.6 3.4 7.4 3.8 7.2 4.1 7.1 4.3 6.9 4.6 6.5 5 6.4 5.3 6 5.5 5.8 5.8 5.5 6 5.3 6.4 5 6.5 4.6 6.9 4.3 7.1 4.1 7.2 3.8 7.4 3.4 7.6 2.9 7.7 2.6 7.9 2.2 8.1 1.9 8.3 1.5 8.4 1 8.6 0.7 8.6 0.2 0 20.8 -9.6 -0.2 -9.6 -0.7 -9.5 -1.2 -9.3 -1.7 -9.1 -2.1 -8.9 -2.6 -8.8 -2.9 -8.6 -3.4 -8.4 -3.8 -8.1 -4.1 -7.9 -4.5 -7.7 -5 -7.4 -5.3 -7.1 -5.7 -6.9 -5.8 -6.5 -6.2 -6.2 -6.5 -5.8 -6.9 -5.7 -7 -5.3 -7.4 -5 -7.7 -4.5 -7.9 -4.1 -8.1 -3.8 -8.4 -3.4 -8.6 -2.9 -8.8 -2.6 -8.9 -2.1 -9.1 -1.7 -9.3 -1.2 -9.5 -0.7 -9.6 -0.2 -9.6 0 0 0.2 0.2zm0 0c0,-5.8 4.6,-10.5 10.5,-10.5 5.8,0 10.5,4.6 10.5,10.5l-20.8 0 -0.2 0zm188.8 -188.8l0 20.8 0 0 -8.6 0.2 -8.6 0.7 -8.4 1 -8.3 1.5 -8.1 1.9 -7.9 2.2 -7.7 2.6 -7.6 2.9 -7.4 3.4 -7.2 3.8 -7 4.1 -6.9 4.3 -6.5 4.6 -6.4 5 -6 5.3 -5.8 5.5 -5.5 5.8 -5.3 6 -5 6.4 -4.6 6.5 -4.3 6.9 -4.1 7.1 -3.8 7.2 -3.4 7.4 -2.9 7.6 -2.6 7.7 -2.2 7.9 -1.9 8.1 -1.6 8.3 -1 8.4 -0.7 8.6 -0.2 8.6 -20.8 0 0.2 -9.6 0.7 -9.6 1.2 -9.5 1.7 -9.3 2.1 -9.1 2.6 -8.9 2.9 -8.8 3.4 -8.6 3.8 -8.4 4.1 -8.1 4.5 -7.9 5 -7.7 5.3 -7.4 5.7 -7.1 5.8 -6.9 6.2 -6.5 6.5 -6.2 6.9 -5.8 7.1 -5.7 7.4 -5.3 7.7 -5 7.9 -4.5 8.1 -4.1 8.4 -3.8 8.6 -3.4 8.8 -2.9 8.9 -2.6 9.1 -2.1 9.3 -1.7 9.5 -1.2 9.6 -0.7 9.6 -0.2 0 0 -0.2 0.2zm0 0c5.8,0 10.5,4.6 10.5,10.5 0,5.8 -4.6,10.5 -10.5,10.5l0 -20.8 0 -0.2zm188.6 188.8l-20.8 0 0 0 -0.2 -8.6 -0.7 -8.6 -1 -8.4 -1.5 -8.3 -1.9 -8.1 -2.2 -7.9 -2.6 -7.7 -2.9 -7.6 -3.4 -7.4 -3.8 -7.2 -4.1 -7.1 -4.3 -6.9 -4.6 -6.5 -5 -6.4 -5.3 -6 -5.5 -5.8 -5.8 -5.5 -6 -5.3 -6.4 -5 -6.5 -4.6 -6.9 -4.3 -7.1 -4.1 -7.2 -3.8 -7.4 -3.4 -7.6 -2.9 -7.7 -2.6 -7.9 -2.2 -8.1 -1.9 -8.3 -1.5 -8.4 -1 -8.6 -0.7 -8.6 -0.2 0 -20.8 9.6 0.2 9.6 0.7 9.5 1.2 9.3 1.7 9.1 2.1 8.9 2.6 8.8 2.9 8.6 3.4 8.4 3.8 8.1 4.1 7.9 4.5 7.7 5 7.4 5.3 7.1 5.7 6.9 5.8 6.5 6.2 6.2 6.5 5.8 6.9 5.7 7 5.3 7.4 5 7.7 4.5 7.9 4.1 8.1 3.8 8.4 3.4 8.6 2.9 8.8 2.6 8.9 2.1 9.1 1.7 9.3 1.2 9.4 0.7 9.6 0.2 9.6 0 0 -0.2 -0.2zm0 0c0,5.8 -4.6,10.5 -10.5,10.5 -5.8,0 -10.5,-4.6 -10.5,-10.5l20.8 0 0.2 0z"/>
     </g>
     <g>
      <path class="fil0 str0" d="M1022.8 1219.9c-12.5,-0.5 -25.1,-3.7 -37,-9.9 -43.1,-22.4 -59.9,-75.6 -37.4,-118.7 22.4,-43.1 75.6,-59.9 118.7,-37.4 26.3,13.7 42.8,38.8 46.6,66"/>
      <polyline class="fil0 str1" points="1066.6,1099 1119.1,1125.7 1128.8,1067 "/>
     </g>
    </g>
   </g>
  </g>
 </g>
</svg>
