<?xml version="1.0" encoding="UTF-8"?>
<!DOCTYPE svg PUBLIC "-//W3C//DTD SVG 1.1//EN" "http://www.w3.org/Graphics/SVG/1.1/DTD/svg11.dtd">
<!-- Creator: CorelDRAW -->
<svg xmlns="http://www.w3.org/2000/svg" xml:space="preserve" width="18.4674mm" height="18.4674mm" version="1.1" style="shape-rendering:geometricPrecision; text-rendering:geometricPrecision; image-rendering:optimizeQuality; fill-rule:evenodd; clip-rule:evenodd"
viewBox="0 0 2514 2514"
 xmlns:xlink="http://www.w3.org/1999/xlink"
 xmlns:xodm="http://www.corel.com/coreldraw/odm/2003">
 <defs>
  <style type="text/css">
   <![CDATA[
    .fil0 {fill:none}
    .fil2 {fill:#C75C99}
    .fil1 {fill:#ED79BC}
    .fil3 {fill:white}
    .fil4 {fill:#ED79BC;fill-rule:nonzero}
   ]]>
  </style>
 </defs>
 <g id="Слой_x0020_1">
  <metadata id="CorelCorpID_0Corel-Layer"/>
  <g id="_2122393921424">
   <polygon class="fil0" points="-0,0 2514,0 2514,2514 -0,2514 "/>
   <g>
    <path class="fil1" d="M1598.4 68.6c507.8,148.5 857.9,603.1 884.2,1135.4l0 107.8c-19.2,329 -143.6,606.6 -371.2,833 -217.1,215.8 -500.8,334.3 -805.5,350.2l-98 -0c-180.4,-7.1 -350.2,-53 -507.8,-134.4 -402.7,-212.2 -654.9,-613.7 -668.9,-1073.5l0 -54.8c17.5,-665 537.5,-1192 1194.2,-1213.2l59.5 -0c106.7,3.6 211.8,19.5 313.4,49.5l0 0z"/>
    <path class="fil2" d="M1352.1 478.5c453.1,0 820.4,367.3 820.4,820.4 0,453.1 -367.3,820.4 -820.4,820.4 -159.2,0 -307.9,-45.4 -433.7,-123.9l-285.6 169.9 34.3 -414.7c-85.6,-129.5 -135.5,-284.8 -135.5,-451.6 0,-453.1 367.3,-820.4 820.4,-820.4z"/>
    <path class="fil3" d="M1257 437c453.1,0 820.4,367.3 820.4,820.4 0,453.1 -367.3,820.4 -820.4,820.4 -159.2,0 -307.9,-45.4 -433.7,-123.9l-285.6 169.9 34.3 -414.7c-85.6,-129.5 -135.5,-284.8 -135.5,-451.6 0,-453.1 367.3,-820.4 820.4,-820.4z"/>
    <path class="fil4" d="M762.8 1023.4c31.5,0 59,4.5 82.3,13.6 23.3,9.1 45.2,22.9 65.5,41.5l-42.1 48.6c-16,-13.4 -32.1,-23.1 -48.3,-29.2 -16.2,-6 -33.6,-9.1 -52.2,-9.1 -20.7,0 -37.5,4.6 -50.2,13.9 -12.7,9.3 -19.1,22.4 -19.1,39.2 0,11.2 2.5,20.5 7.5,27.9 5,7.4 13.9,14.3 26.9,20.7 13,6.5 32.2,13.6 57.7,21.4 44.1,13.8 77.2,31 99.5,51.5 22.3,20.5 33.4,50.4 33.4,89.8 0,26.8 -6.8,50.5 -20.4,71.3 -13.6,20.7 -33.2,36.9 -58.6,48.6 -25.5,11.7 -55.7,17.5 -90.7,17.5 -34.1,0 -64.7,-5.5 -91.7,-16.5 -27,-11 -50.2,-26 -69.7,-45l44.1 -49.3c17.3,14.7 35.2,25.8 53.8,33.4 18.6,7.6 39.1,11.3 61.6,11.3 24.6,0 44.5,-5.8 59.6,-17.5 15.1,-11.7 22.7,-28.1 22.7,-49.3 0,-13 -2.6,-23.7 -7.8,-32.1 -5.2,-8.4 -14,-16 -26.6,-22.7 -12.5,-6.7 -30.7,-13.7 -54.5,-21.1 -47.5,-14.7 -81.9,-32.4 -103.1,-53.1 -21.2,-20.7 -31.8,-48 -31.8,-81.7 0,-24.6 6.5,-46.2 19.5,-64.8 13,-18.6 31,-33.1 54.1,-43.4 23.1,-10.4 49.4,-15.6 78.8,-15.6zm493.9 9.7l-9.1 63.5 -165.3 0 0 125.1 143.9 0 0 63.5 -143.9 0 0 131.6 176.9 0 0 64.2 -262.5 0 0 -447.9 259.9 0zm169.2 0l0 377.9 179.5 0 -9.7 70 -255.4 0 0 -447.9 85.6 0zm242.4 447.9l0 -447.9 253.4 0 -9.1 63.5 -158.8 0 0 134.2 138.1 0 0 63.5 -138.1 0 0 186.7 -85.6 0z"/>
   </g>
  </g>
 </g>
</svg>
