<svg xmlns="http://www.w3.org/2000/svg" viewBox="0 0 40.71 35.6"><defs><style>.cls-1,.cls-2,.cls-3{fill:#9bcb64;}.cls-1,.cls-4{stroke:#fefefe;}.cls-1,.cls-2,.cls-4,.cls-6{stroke-miterlimit:10;}.cls-1,.cls-2{stroke-width:2px;}.cls-1,.cls-2,.cls-3,.cls-4{fill-rule:evenodd;}.cls-2{stroke:#fff;}.cls-4{fill:#fefefe;stroke-width:0.43px;}.cls-5{font-size:10.57px;fill:#141515;font-family:FiraSans-Regular, Fira Sans;}.cls-6{fill:none;stroke:#9bcb64;stroke-width:1.52px;}</style></defs><g id="Слой_2" data-name="Слой 2"><g id="Слой_1-2" data-name="Слой 1"><path class="cls-1" d="M1,8.75c-.09.72.48.92,1,1.37l3,2.61c2,1.89,4.47,3.86,6.54,5.73l.46.4c.28.2.59.51.88.77l1.78,1.52L16,22.38a49.5,49.5,0,0,0,4.25,3.52c.49.06,1.79-1.23,2.19-1.6l2.09-1.81A10.26,10.26,0,0,1,26,21.26c.08-.26.11-.2.34-.37l3.09-2.69c.59-.55,1.13-1,1.73-1.52l2.15-1.89c.2-.17.29-.2.46-.37a10,10,0,0,1,.87-.77c1-.81,2.56-2.29,3.55-3.1.73-.6,1.56-1.11,1.47-1.8-.2-1.15-3-.86-4.17-.86H5.26C4,7.89,1.18,7.63,1,8.75Z"/><path class="cls-2" d="M1,33.74c.08.55,1,.83,1.59.83,5.81.06,12,0,17.74,0H38c.54,0,1.56-.22,1.67-.83s-.76-1.26-1.44-1.8c-.2-.14-.29-.26-.46-.4l-8.33-7.27c-.6-.52-1.16-1-1.76-1.52L26,21.26a10.26,10.26,0,0,0-1.48,1.23L22.47,24.3c-.4.37-1.7,1.66-2.19,1.6A49.5,49.5,0,0,1,16,22.38l-1.36-1.23c0,.25,0,.14-.14.28L2,32.37a4.88,4.88,0,0,0-.45.37c-.31.29-.57.43-.51,1Z"/><path class="cls-3" d="M1,33.74c-.06-.57.2-.71.51-1A4.88,4.88,0,0,1,2,32.37L14.53,21.43c.14-.14.11,0,.14-.28l-1.78-1.52c-.29-.26-.6-.57-.88-.77l-.46-.4C9.48,16.59,7,14.62,5,12.73L2,10.12C1.49,9.67.92,9.47,1,8.75c-.23.11-.23.14-.34.46-.29.74-.12,11.14-.12,12v9.68c0,.86-.22,2.4.46,2.83Z"/><path class="cls-3" d="M26,21.26l1.67,1.49c.6.54,1.16,1,1.76,1.52l8.33,7.27c.17.14.26.26.46.4.68.54,1.53,1.12,1.44,1.8.65-.43.45-1.89.45-2.74V11.56c0-.78.18-2.41-.45-2.81.09.69-.74,1.2-1.47,1.8-1,.81-2.53,2.29-3.55,3.1a10,10,0,0,0-.87.77c-.17.17-.26.2-.46.37L31.2,16.68c-.6.49-1.14,1-1.73,1.52l-3.09,2.69c-.23.17-.26.11-.34.37Z"/><path class="cls-4" d="M20.74,32.48a6.1,6.1,0,1,0-6-6.09,6.07,6.07,0,0,0,6,6.09Z"/><text class="cls-5" transform="translate(16.87 30.02) scale(0.99 1)">Q</text><polyline class="cls-6" points="17.62 7.86 17.62 4.17 0.55 4.17"/><polyline class="cls-6" points="23.12 7.86 23.12 4.17 40.18 4.17"/><line class="cls-6" x1="0.58" y1="0.76" x2="40.18" y2="0.76"/></g></g></svg>