<?xml version="1.0" encoding="UTF-8"?>
<!DOCTYPE svg PUBLIC "-//W3C//DTD SVG 1.1//EN" "http://www.w3.org/Graphics/SVG/1.1/DTD/svg11.dtd">
<!-- Creator: CorelDRAW -->
<svg xmlns="http://www.w3.org/2000/svg" xml:space="preserve" width="18.4674mm" height="18.4674mm" version="1.1" style="shape-rendering:geometricPrecision; text-rendering:geometricPrecision; image-rendering:optimizeQuality; fill-rule:evenodd; clip-rule:evenodd"
viewBox="0 0 5462.8 5462.8"
 xmlns:xlink="http://www.w3.org/1999/xlink"
 xmlns:xodm="http://www.corel.com/coreldraw/odm/2003">
 <defs>
  <style type="text/css">
   <![CDATA[
    .fil0 {fill:none}
    .fil1 {fill:#DD6854}
    .fil3 {fill:#F8C6C3;fill-rule:nonzero}
    .fil2 {fill:#80403D;fill-rule:nonzero}
   ]]>
  </style>
 </defs>
 <g id="Слой_x0020_1">
  <metadata id="CorelCorpID_0Corel-Layer"/>
  <g id="_2751893268128">
   <polygon class="fil0" points="-0,0 5462.8,0 5462.8,5462.8 -0,5462.8 "/>
   <g>
    <path class="fil1" d="M3474.7 144.4c1105.4,323.3 1867.7,1312.8 1924.9,2471.6l0 234.8c-41.9,716.2 -312.5,1320.5 -808.1,1813.3 -472.6,469.7 -1090.1,727.7 -1753.4,762.3l-213.4 -0.1c-392.6,-15.3 -762.4,-115.4 -1105.4,-292.5 -876.6,-462 -1425.7,-1335.8 -1456,-2336.8l0 -119.3c38.1,-1447.6 1170.1,-2594.9 2599.5,-2641l129.6 -0.1c232.4,7.8 461.1,42.4 682.3,107.9l0 0z"/>
    <g>
     <path class="fil2" d="M1869 2811.4c-51.5,21.6 -106,32.4 -163.6,32.4 -71.9,0 -127,-20.7 -165.4,-62 -38.4,-41.4 -57.5,-101.6 -57.5,-180.7l0 -943.7c-55.1,-16.8 -112.1,-25.1 -170.8,-25.1 -52.7,0 -89.3,10.2 -109.7,30.6 -20.4,20.4 -30.6,53.9 -30.6,100.7l0 102.4 203.1 0 -25.2 165.4 -178 0 0 785.5 -230.1 0 0 -785.5 -149.2 0 0 -165.4 149.2 0 0 -104.2c0,-89.9 29.4,-162.7 88.1,-218.4 58.7,-55.7 143.8,-83.6 255.3,-83.6 65.9,0 137.2,11.4 213.9,34.1l213.9 -23.3 0 1114.5c0,26.4 4.2,45.2 12.6,56.6 8.4,11.4 22.2,17.1 41.3,17.1 18,0 36,-3 53.9,-9l48.5 161.8z"/>
     <path id="_1" class="fil2" d="M2401.1 1838.9c140.2,0 249.5,44.6 328.1,133.9 78.5,89.3 117.7,211.8 117.7,367.6 0,99.5 -18,187.2 -53.9,263.3 -35.9,76.1 -87.5,135.1 -154.6,177.1 -67.1,41.9 -146.8,62.9 -239.1,62.9 -140.2,0 -249.9,-44.7 -328.9,-133.9 -79.1,-89.3 -118.6,-212.4 -118.6,-369.4 0,-99.5 18,-187 53.9,-262.4 35.9,-75.5 87.8,-134.2 155.5,-176.2 67.7,-41.9 147.7,-62.9 240,-62.9zm0 174.4c-137.8,0 -206.7,109.1 -206.7,327.2 0,112.6 17.1,195.6 51.2,249 34.2,53.3 85.4,80 153.7,80 68.3,0 119.5,-26.9 153.7,-80.9 34.1,-53.9 51.2,-136.6 51.2,-248.1 0,-111.5 -17.1,-193.8 -51.2,-247.2 -34.2,-53.3 -84.8,-80 -151.9,-80z"/>
     <path id="_2" class="fil2" d="M3747.4 2565.1c0,37.1 5.7,64.4 17.1,81.8 11.4,17.4 29.7,30.9 54.8,40.4l-48.5 152.8c-53.9,-4.8 -98,-18 -132.1,-39.5 -34.2,-21.6 -60.2,-54.5 -78.2,-98.9 -32.4,47.9 -72.8,83.6 -121.3,107 -48.5,23.4 -102.7,35.1 -162.7,35.1 -94.7,0 -169.6,-27 -224.7,-80.9 -55.1,-53.9 -82.7,-124.6 -82.7,-212.1 0,-103 37.4,-181.8 112.3,-236.4 74.9,-54.5 181.8,-81.8 320.9,-81.8l118.6 0 0 -53.9c0,-61.1 -14.1,-104 -42.2,-128.5 -28.2,-24.6 -73.4,-36.9 -135.7,-36.9 -69.5,0 -153.4,16.8 -251.6,50.3l-53.9 -156.4c118.6,-45.6 233.7,-68.3 345.1,-68.3 243.3,0 364.9,109 364.9,327.1l0 399.1zm-409.8 111.4c77.9,0 139,-38.9 183.3,-116.8l0 -192.3 -95.3 0c-148.6,0 -222.9,55.1 -222.9,165.4 0,45.5 11.4,80.9 34.1,106 22.8,25.2 56.3,37.7 100.7,37.7z"/>
     <path id="_3" class="fil2" d="M4570.7 2771.9c-33.5,24 -71,41.9 -112.3,53.9 -41.4,12 -83.6,18 -126.8,18 -93.4,-1.2 -164.5,-27.9 -213,-80 -48.5,-52.1 -72.8,-129.1 -72.8,-231l0 -501.5 -149.2 0 0 -165.4 149.2 0 0 -210.3 230.1 -27 0 237.3 221.1 0 -23.4 165.4 -197.7 0 0 496.1c0,46.7 8.1,80.3 24.3,100.6 16.2,20.4 41.7,30.6 76.4,30.6 34.7,0 72.5,-11.4 113.2,-34.2l80.9 147.4z"/>
     <path id="_4" class="fil2" d="M1965.2 3095.4c141.4,0 249,53.9 322.7,161.8 73.7,107.9 110.5,263 110.5,465.5 0,203.7 -36.9,359.8 -110.5,468.3 -73.7,108.4 -181.2,162.7 -322.7,162.7 -141.4,0 -249,-54.3 -322.6,-162.7 -73.7,-108.4 -110.5,-264.5 -110.5,-468.3 0,-202.5 36.8,-357.7 110.5,-465.5 73.7,-107.9 181.2,-161.8 322.6,-161.8zm0 174.4c-68.3,0 -118,34.5 -149.2,103.4 -31.2,68.9 -46.7,185.4 -46.7,349.6 0,165.4 15.6,282.8 46.7,352.3 31.1,69.5 80.9,104.2 149.2,104.2 68.3,0 118.1,-34.5 149.2,-103.4 31.1,-68.9 46.7,-186.7 46.7,-353.2 0,-165.4 -15.6,-282.2 -46.7,-350.5 -31.1,-68.3 -80.9,-102.5 -149.2,-102.5z"/>
     <polygon id="_5" class="fil2" points="2574.5,3855.8 2574.5,3672.4 3117.4,3672.4 3117.4,3855.8 "/>
     <polygon id="_6" class="fil2" points="3721.3,3117 3721.3,4326.7 3494.9,4326.7 3494.9,3348.9 3225.2,3512.4 3124.6,3357.9 3518.2,3117 "/>
     <path class="fil3" d="M1968.9 2721.5c-51.5,21.6 -106,32.4 -163.6,32.4 -71.9,0 -127,-20.7 -165.4,-62 -38.4,-41.4 -57.5,-101.6 -57.5,-180.7l0 -943.7c-55.1,-16.8 -112.1,-25.1 -170.8,-25.1 -52.7,0 -89.3,10.2 -109.7,30.6 -20.4,20.4 -30.6,53.9 -30.6,100.7l0 102.4 203.1 0 -25.2 165.4 -178 0 0 785.5 -230.1 0 0 -785.5 -149.2 0 0 -165.4 149.2 0 0 -104.2c0,-89.9 29.4,-162.7 88.1,-218.4 58.7,-55.7 143.8,-83.6 255.3,-83.6 65.9,0 137.2,11.4 213.9,34.1l213.9 -23.3 0 1114.5c0,26.4 4.2,45.2 12.6,56.6 8.4,11.4 22.2,17.1 41.3,17.1 18,0 36,-3 53.9,-9l48.5 161.8z"/>
     <path id="_1_4" class="fil3" d="M2501 1749c140.2,0 249.5,44.6 328.1,133.9 78.5,89.3 117.7,211.8 117.7,367.6 0,99.5 -18,187.2 -53.9,263.3 -35.9,76.1 -87.5,135.1 -154.6,177.1 -67.1,41.9 -146.8,62.9 -239.1,62.9 -140.2,0 -249.9,-44.7 -328.9,-133.9 -79.1,-89.3 -118.6,-212.4 -118.6,-369.4 0,-99.5 18,-187 53.9,-262.4 35.9,-75.5 87.8,-134.2 155.5,-176.2 67.7,-41.9 147.7,-62.9 240,-62.9zm0 174.4c-137.8,0 -206.7,109.1 -206.7,327.2 0,112.6 17.1,195.6 51.2,249 34.2,53.3 85.4,80 153.7,80 68.3,0 119.5,-26.9 153.7,-80.9 34.1,-53.9 51.2,-136.6 51.2,-248.1 0,-111.5 -17.1,-193.8 -51.2,-247.2 -34.2,-53.3 -84.8,-80 -151.9,-80z"/>
     <path id="_2_5" class="fil3" d="M3847.3 2475.2c0,37.1 5.7,64.4 17.1,81.8 11.4,17.4 29.7,30.9 54.8,40.4l-48.5 152.8c-53.9,-4.8 -98,-18 -132.1,-39.5 -34.2,-21.6 -60.2,-54.5 -78.2,-98.9 -32.4,47.9 -72.8,83.6 -121.3,107 -48.5,23.4 -102.7,35.1 -162.7,35.1 -94.7,0 -169.6,-27 -224.7,-80.9 -55.1,-53.9 -82.7,-124.6 -82.7,-212.1 0,-103 37.4,-181.8 112.3,-236.4 74.9,-54.5 181.8,-81.8 320.9,-81.8l118.6 0 0 -53.9c0,-61.1 -14.1,-104 -42.2,-128.5 -28.2,-24.6 -73.4,-36.9 -135.7,-36.9 -69.5,0 -153.4,16.8 -251.6,50.3l-53.9 -156.4c118.6,-45.6 233.7,-68.3 345.1,-68.3 243.3,0 364.9,109 364.9,327.1l0 399.1zm-409.8 111.4c77.9,0 139,-38.9 183.3,-116.8l0 -192.3 -95.3 0c-148.6,0 -222.9,55.1 -222.9,165.4 0,45.5 11.4,80.9 34.1,106 22.8,25.2 56.3,37.7 100.7,37.7z"/>
     <path id="_3_6" class="fil3" d="M4670.6 2682c-33.5,24 -71,41.9 -112.3,53.9 -41.4,12 -83.6,18 -126.8,18 -93.4,-1.2 -164.5,-27.9 -213,-80 -48.5,-52.1 -72.8,-129.1 -72.8,-231l0 -501.5 -149.2 0 0 -165.4 149.2 0 0 -210.3 230.1 -27 0 237.3 221.1 0 -23.4 165.4 -197.7 0 0 496.1c0,46.7 8.1,80.3 24.3,100.6 16.2,20.4 41.7,30.6 76.4,30.6 34.7,0 72.5,-11.4 113.2,-34.2l80.9 147.4z"/>
     <path id="_4_7" class="fil3" d="M2065 3005.5c141.4,0 249,53.9 322.7,161.8 73.7,107.9 110.5,263 110.5,465.5 0,203.7 -36.9,359.8 -110.5,468.3 -73.7,108.4 -181.2,162.7 -322.7,162.7 -141.4,0 -249,-54.3 -322.6,-162.7 -73.7,-108.4 -110.5,-264.5 -110.5,-468.3 0,-202.5 36.8,-357.7 110.5,-465.5 73.7,-107.9 181.2,-161.8 322.6,-161.8zm0 174.4c-68.3,0 -118,34.5 -149.2,103.4 -31.2,68.9 -46.7,185.4 -46.7,349.6 0,165.4 15.6,282.8 46.7,352.3 31.1,69.5 80.9,104.2 149.2,104.2 68.3,0 118.1,-34.5 149.2,-103.4 31.1,-68.9 46.7,-186.7 46.7,-353.2 0,-165.4 -15.6,-282.2 -46.7,-350.5 -31.1,-68.3 -80.9,-102.5 -149.2,-102.5z"/>
     <polygon id="_5_8" class="fil3" points="2674.4,3765.9 2674.4,3582.5 3217.3,3582.5 3217.3,3765.9 "/>
     <polygon id="_6_9" class="fil3" points="3821.2,3027.1 3821.2,4236.8 3594.8,4236.8 3594.8,3259 3325.1,3422.5 3224.5,3268 3618.1,3027.1 "/>
    </g>
   </g>
  </g>
 </g>
</svg>
