<?xml version="1.0" encoding="UTF-8"?>
<!DOCTYPE svg PUBLIC "-//W3C//DTD SVG 1.1//EN" "http://www.w3.org/Graphics/SVG/1.1/DTD/svg11.dtd">
<!-- Creator: CorelDRAW -->
<svg xmlns="http://www.w3.org/2000/svg" xml:space="preserve" width="18.4674mm" height="18.4674mm" version="1.1" style="shape-rendering:geometricPrecision; text-rendering:geometricPrecision; image-rendering:optimizeQuality; fill-rule:evenodd; clip-rule:evenodd"
viewBox="0 0 13376.8 13376.8"
 xmlns:xlink="http://www.w3.org/1999/xlink"
 xmlns:xodm="http://www.corel.com/coreldraw/odm/2003">
 <defs>
  <style type="text/css">
   <![CDATA[
    .fil0 {fill:none}
    .fil1 {fill:#DD6854}
    .fil3 {fill:#F8C6C3;fill-rule:nonzero}
    .fil2 {fill:#80403D;fill-rule:nonzero}
   ]]>
  </style>
 </defs>
 <g id="Слой_x0020_1">
  <metadata id="CorelCorpID_0Corel-Layer"/>
  <g id="_2751901846384">
   <polygon class="fil0" points="-0,0 13376.8,0 13376.8,13376.8 -0,13376.8 "/>
   <g>
    <path class="fil1" d="M8514.5 332c2716.1,794.5 4588.8,3225.5 4729.4,6072.7l0 576.8c-103,1759.6 -767.9,3244.6 -1985.4,4455.2 -1161.2,1154 -2678.3,1787.8 -4308.1,1872.9l-524.3 -0.1c-964.6,-37.7 -1873.2,-283.5 -2716,-718.8 -2153.8,-1135.1 -3502.8,-3282.1 -3577.4,-5741.5l0 -293.2c93.7,-3556.8 2874.9,-6375.6 6387,-6488.9l318.5 -0.1c570.9,19 1133,104.1 1676.3,265l0 0z"/>
    <path class="fil2" d="M2490.4 5142.6c347.5,0 611.7,132.6 792.8,397.5 181.1,265 271.6,646.3 271.6,1143.9 0,500.5 -90.5,884.1 -271.6,1150.6 -181.1,266.4 -445.3,399.7 -792.8,399.7 -347.4,0 -611.6,-133.3 -792.7,-399.7 -181.1,-266.5 -271.6,-650 -271.6,-1150.6 0,-497.6 90.5,-878.9 271.6,-1143.9 181.1,-265 445.3,-397.5 792.7,-397.5zm0 428.5c-167.8,0 -290,84.7 -366.5,254 -76.6,169.3 -114.9,455.6 -114.9,859 0,406.4 38.3,694.9 114.9,865.7 76.5,170.7 198.7,256.1 366.5,256.1 167.8,0 290,-84.6 366.6,-254 76.6,-169.3 114.8,-458.6 114.8,-867.8 0,-406.3 -38.2,-693.4 -114.8,-861.2 -76.6,-167.8 -198.8,-251.7 -366.6,-251.7z"/>
    <polygon id="_1" class="fil2" points="3987.7,7010.8 3987.7,6560.3 5321.4,6560.3 5321.4,7010.8 "/>
    <path id="_2" class="fil2" d="M6337.3 5142.6c200.2,0 373.2,36.9 518.9,110.5 145.7,73.6 256.9,173.7 333.4,300.3 76.6,126.6 114.9,267.9 114.9,424 0,167.8 -36.1,329.1 -108.2,483.6 -72.1,154.6 -192.1,326.1 -359.9,514.5 -167.8,188.5 -413.7,437.3 -737.6,746.4l1272 0 -61.8 446.1 -1850.6 0 0 -415.1c376.9,-382.8 647.1,-666.2 810.5,-850.2 163.4,-184 279.7,-341.5 348.8,-472.6 69.2,-131 103.8,-267.2 103.8,-408.5 0,-135.5 -39,-241.4 -117,-318 -78.1,-76.6 -181.8,-114.8 -311.4,-114.8 -114.8,0 -215.7,24.3 -302.6,72.9 -86.8,48.6 -177.4,128.8 -271.6,240.7l-344.4 -273.8c250.3,-323.9 571.1,-485.9 962.8,-485.9z"/>
    <path id="_3" class="fil2" d="M9486.3 5615.2l-1113 0 0 737.5c147.2,-73.6 297.3,-110.4 450.5,-110.4 164.9,0 312.1,38.2 441.6,114.8 129.6,76.6 230.4,187 302.6,331.2 72.1,144.3 108.2,315 108.2,512.3 0,203.2 -45.6,382.7 -136.9,538.8 -91.3,156 -220.9,277.5 -388.7,364.3 -167.8,86.8 -362.2,130.3 -583,130.3 -197.3,0 -371.7,-36.1 -523.4,-108.2 -151.6,-72.1 -289.2,-175.9 -413,-311.4l322.5 -300.3c170.7,188.5 370.9,282.6 600.6,282.6 167.8,0 299.6,-51.5 395.3,-154.6 95.7,-103 143.6,-250.3 143.6,-441.6 0,-368 -159,-552.1 -477.1,-552.1 -67.7,0 -131,8.1 -189.9,24.3 -58.9,16.2 -123.7,41.9 -194.3,77.3l-401.9 0 0 -1554.7 1722.5 0 -66.3 419.6z"/>
    <path id="_4" class="fil2" d="M11760.8 5615.2l-1113 0 0 737.5c147.2,-73.6 297.3,-110.4 450.5,-110.4 164.9,0 312.1,38.2 441.6,114.8 129.6,76.6 230.4,187 302.6,331.2 72.1,144.3 108.2,315 108.2,512.3 0,203.2 -45.6,382.7 -136.9,538.8 -91.3,156 -220.9,277.5 -388.7,364.3 -167.8,86.8 -362.2,130.3 -583,130.3 -197.3,0 -371.7,-36.1 -523.4,-108.2 -151.6,-72.1 -289.2,-175.9 -413,-311.4l322.5 -300.3c170.7,188.5 370.9,282.6 600.6,282.6 167.8,0 299.6,-51.5 395.3,-154.6 95.7,-103 143.6,-250.3 143.6,-441.6 0,-368 -159,-552.1 -477.1,-552.1 -67.7,0 -131,8.1 -189.9,24.3 -58.9,16.2 -123.7,41.9 -194.3,77.3l-401.9 0 0 -1554.7 1722.5 0 -66.3 419.6z"/>
    <path class="fil3" d="M2699.9 4810.8c347.5,0 611.7,132.6 792.8,397.5 181.1,265 271.6,646.3 271.6,1143.9 0,500.5 -90.5,884.1 -271.6,1150.6 -181.1,266.4 -445.3,399.7 -792.8,399.7 -347.4,0 -611.6,-133.3 -792.7,-399.7 -181.1,-266.5 -271.6,-650 -271.6,-1150.6 0,-497.6 90.5,-878.9 271.6,-1143.9 181.1,-265 445.3,-397.5 792.7,-397.5zm0 428.5c-167.8,0 -290,84.7 -366.5,254 -76.6,169.3 -114.9,455.6 -114.9,859 0,406.4 38.3,694.9 114.9,865.7 76.5,170.7 198.7,256.1 366.5,256.1 167.8,0 290,-84.6 366.6,-254 76.6,-169.3 114.8,-458.6 114.8,-867.8 0,-406.3 -38.2,-693.4 -114.8,-861.2 -76.6,-167.8 -198.8,-251.7 -366.6,-251.7z"/>
    <polygon id="_1_0" class="fil3" points="4197.2,6679 4197.2,6228.5 5530.9,6228.5 5530.9,6679 "/>
    <path id="_2_1" class="fil3" d="M6546.8 4810.8c200.2,0 373.2,36.9 518.9,110.5 145.7,73.6 256.9,173.7 333.4,300.3 76.6,126.6 114.9,267.9 114.9,424 0,167.8 -36.1,329.1 -108.2,483.6 -72.1,154.6 -192.1,326.1 -359.9,514.5 -167.8,188.5 -413.7,437.3 -737.6,746.4l1272 0 -61.8 446.1 -1850.6 0 0 -415.1c376.9,-382.8 647.1,-666.2 810.5,-850.2 163.4,-184 279.7,-341.5 348.8,-472.6 69.2,-131 103.8,-267.2 103.8,-408.5 0,-135.5 -39,-241.4 -117,-318 -78.1,-76.6 -181.8,-114.8 -311.4,-114.8 -114.8,0 -215.7,24.3 -302.6,72.9 -86.8,48.6 -177.4,128.8 -271.6,240.7l-344.4 -273.8c250.3,-323.9 571.1,-485.9 962.8,-485.9z"/>
    <path id="_3_2" class="fil3" d="M9695.8 5283.4l-1113 0 0 737.5c147.2,-73.6 297.3,-110.4 450.5,-110.4 164.9,0 312.1,38.2 441.6,114.8 129.6,76.6 230.4,187 302.6,331.2 72.1,144.3 108.2,315 108.2,512.3 0,203.2 -45.6,382.7 -136.9,538.8 -91.3,156 -220.9,277.5 -388.7,364.3 -167.8,86.8 -362.2,130.3 -583,130.3 -197.3,0 -371.7,-36.1 -523.4,-108.2 -151.6,-72.1 -289.2,-175.9 -413,-311.4l322.5 -300.3c170.7,188.5 370.9,282.6 600.6,282.6 167.8,0 299.6,-51.5 395.3,-154.6 95.7,-103 143.6,-250.3 143.6,-441.6 0,-368 -159,-552.1 -477.1,-552.1 -67.7,0 -131,8.1 -189.9,24.3 -58.9,16.2 -123.7,41.9 -194.3,77.3l-401.9 0 0 -1554.7 1722.5 0 -66.3 419.6z"/>
    <path id="_4_3" class="fil3" d="M11970.3 5283.4l-1113 0 0 737.5c147.2,-73.6 297.3,-110.4 450.5,-110.4 164.9,0 312.1,38.2 441.6,114.8 129.6,76.6 230.4,187 302.6,331.2 72.1,144.3 108.2,315 108.2,512.3 0,203.2 -45.6,382.7 -136.9,538.8 -91.3,156 -220.9,277.5 -388.7,364.3 -167.8,86.8 -362.2,130.3 -583,130.3 -197.3,0 -371.7,-36.1 -523.4,-108.2 -151.6,-72.1 -289.2,-175.9 -413,-311.4l322.5 -300.3c170.7,188.5 370.9,282.6 600.6,282.6 167.8,0 299.6,-51.5 395.3,-154.6 95.7,-103 143.6,-250.3 143.6,-441.6 0,-368 -159,-552.1 -477.1,-552.1 -67.7,0 -131,8.1 -189.9,24.3 -58.9,16.2 -123.7,41.9 -194.3,77.3l-401.9 0 0 -1554.7 1722.5 0 -66.3 419.6z"/>
   </g>
  </g>
 </g>
</svg>
