<?xml version="1.0" encoding="UTF-8"?>
<!DOCTYPE svg PUBLIC "-//W3C//DTD SVG 1.1//EN" "http://www.w3.org/Graphics/SVG/1.1/DTD/svg11.dtd">
<!-- Creator: CorelDRAW -->
<svg xmlns="http://www.w3.org/2000/svg" xml:space="preserve" width="18.4674mm" height="18.4674mm" version="1.1" style="shape-rendering:geometricPrecision; text-rendering:geometricPrecision; image-rendering:optimizeQuality; fill-rule:evenodd; clip-rule:evenodd"
viewBox="0 0 2142.5 2142.5"
 xmlns:xlink="http://www.w3.org/1999/xlink"
 xmlns:xodm="http://www.corel.com/coreldraw/odm/2003">
 <defs>
  <style type="text/css">
   <![CDATA[
    .str2 {stroke:white;stroke-width:34.8;stroke-linecap:round;stroke-linejoin:round;stroke-miterlimit:22.9256}
    .str0 {stroke:#C75C99;stroke-width:23.2;stroke-linecap:round;stroke-linejoin:round;stroke-miterlimit:22.9256}
    .str1 {stroke:#F7ADE0;stroke-width:23.2;stroke-linecap:round;stroke-linejoin:round;stroke-miterlimit:22.9256}
    .fil0 {fill:none}
    .fil2 {fill:#C75C99}
    .fil1 {fill:#ED79BC}
    .fil3 {fill:#F7ADE0}
   ]]>
  </style>
 </defs>
 <g id="Слой_x0020_1">
  <metadata id="CorelCorpID_0Corel-Layer"/>
  <g id="_2717387376048">
   <polygon class="fil0" points="-0,0 2142.5,0 2142.5,2142.5 -0,2142.5 "/>
   <g>
    <path class="fil1" d="M1365.1 48.4c437.1,127.9 738.5,519.1 761.1,977.3l0 92.8c-16.6,283.2 -123.6,522.1 -319.5,717 -186.9,185.7 -431,287.7 -693.3,301.4l-84.4 -0c-155.2,-6.1 -301.4,-45.6 -437.1,-115.7 -346.6,-182.7 -563.7,-528.2 -575.7,-923.9l0 -47.2c15.1,-572.4 462.6,-1026 1027.8,-1044.2l51.3 -0c91.9,3.1 182.3,16.8 269.8,42.6l0 0z"/>
    <g>
     <polygon class="fil2 str0" points="854.9,978.2 956.6,212 472.4,1329.7 975.1,1264.4 829.1,2077.6 1454.2,915.8 "/>
     <polygon class="fil3 str1" points="1070.8,831.1 1172.5,64.9 688.3,1182.6 1191,1117.3 1045,1930.5 1670.1,768.7 "/>
     <polyline class="fil0 str2" points="941.4,723.2 778.5,1107.6 908.1,1085 "/>
     <polyline class="fil0 str2" points="1408.5,848.1 1567.6,829.6 1230.7,1481.1 "/>
    </g>
   </g>
  </g>
 </g>
</svg>
