<?xml version="1.0" encoding="UTF-8"?>
<!DOCTYPE svg PUBLIC "-//W3C//DTD SVG 1.1//EN" "http://www.w3.org/Graphics/SVG/1.1/DTD/svg11.dtd">
<!-- Creator: CorelDRAW -->
<svg xmlns="http://www.w3.org/2000/svg" xml:space="preserve" width="18.4674mm" height="18.4674mm" version="1.1" style="shape-rendering:geometricPrecision; text-rendering:geometricPrecision; image-rendering:optimizeQuality; fill-rule:evenodd; clip-rule:evenodd"
viewBox="0 0 2789.9 2789.9"
 xmlns:xlink="http://www.w3.org/1999/xlink"
 xmlns:xodm="http://www.corel.com/coreldraw/odm/2003">
 <defs>
  <style type="text/css">
   <![CDATA[
    .str0 {stroke:white;stroke-width:113.3;stroke-linecap:round;stroke-miterlimit:22.9256}
    .fil0 {fill:none}
    .fil2 {fill:#C75C99}
    .fil1 {fill:#ED79BC}
    .fil3 {fill:#F7ADE0}
   ]]>
  </style>
 </defs>
 <g id="Слой_x0020_1">
  <metadata id="CorelCorpID_0Corel-Layer"/>
  <g id="_2718178319568">
   <polygon class="fil0" points="-0,0 2789.9,0 2789.9,2789.9 -0,2789.9 "/>
   <g>
    <path class="fil1" d="M1773.8 76.1c563.5,164.8 952.1,669.2 981.2,1260l0 119.7c-21.4,365.1 -159.3,673.2 -411.9,924.4 -240.9,239.4 -555.7,370.9 -893.8,388.6l-108.8 -0c-200.1,-7.8 -388.6,-58.8 -563.5,-149.1 -446.9,-235.5 -726.8,-681 -742.2,-1191.2l0 -60.9c19.4,-737.9 596.5,-1322.8 1325.2,-1346.3l66.1 -0c118.5,3.9 235.1,21.6 347.8,55l0 0z"/>
    <path class="fil2" d="M797.5 801l923.5 0c94.3,0 171.5,77.2 171.5,171.5l0 1174.1c0,94.3 -77.2,171.5 -171.5,171.5l-923.5 0c-94.3,0 -171.5,-77.2 -171.5,-171.5l0 -1174.1c0,-94.3 77.2,-171.5 171.5,-171.5z"/>
    <path class="fil3" d="M1090.8 474.7l923.5 0c94.3,0 171.5,77.2 171.5,171.5l0 1174.1c0,94.3 -77.2,171.5 -171.5,171.5l-923.5 0c-94.3,0 -171.5,-77.2 -171.5,-171.5l0 -1174.1c0,-94.3 77.2,-171.5 171.5,-171.5z"/>
    <path class="fil0 str0" d="M1552.6 783l0 900.6m450.3 -450.3l-900.6 0"/>
   </g>
  </g>
 </g>
</svg>
