<?xml version="1.0" encoding="UTF-8"?>
<!DOCTYPE svg PUBLIC "-//W3C//DTD SVG 1.1//EN" "http://www.w3.org/Graphics/SVG/1.1/DTD/svg11.dtd">
<!-- Creator: CorelDRAW -->
<svg xmlns="http://www.w3.org/2000/svg" xml:space="preserve" width="18.4842mm" height="18.4674mm" version="1.1" style="shape-rendering:geometricPrecision; text-rendering:geometricPrecision; image-rendering:optimizeQuality; fill-rule:evenodd; clip-rule:evenodd"
viewBox="0 0 4005.8 4002.2"
 xmlns:xlink="http://www.w3.org/1999/xlink"
 xmlns:xodm="http://www.corel.com/coreldraw/odm/2003">
 <defs>
  <style type="text/css">
   <![CDATA[
    .fil0 {fill:none}
    .fil1 {fill:#72C1E9;fill-rule:nonzero}
    .fil2 {fill:#AFCB80;fill-rule:nonzero}
    .fil3 {fill:#FEFEFE;fill-rule:nonzero}
    .fil4 {fill:white;fill-rule:nonzero}
   ]]>
  </style>
 </defs>
 <g id="Слой_x0020_1">
  <metadata id="CorelCorpID_0Corel-Layer"/>
  <g id="_2717735997232">
   <polygon class="fil0" points="1.8,0 4004,0 4004,4002.2 1.8,4002.2 "/>
   <path class="fil1" d="M499.4 3467.4l-7 -535.8c0,0 -477.7,-27.3 -492.4,-459.6l7.7 -1734c0,0 49,-391.7 498,-379.8l2566.4 0c0,0 518.3,-32.9 526.7,465.2l0 1660.5c0,0 7.7,408.5 -498,449.1l-1566.8 0 -887.6 609.9c-29.4,20.3 -65.1,22.4 -96.5,6.3 -31.5,-16.1 -50.4,-46.9 -50.4,-81.9l-0.1 0z"/>
   <g>
    <path class="fil2" d="M3963.2 2876.4c0,400.8 -324.5,725.3 -725.3,725.3 -400.8,0 -725.3,-324.5 -725.3,-725.3 0,-400.8 324.5,-725.3 725.3,-725.3 400.8,0 725.3,324.5 725.3,725.3z"/>
    <path id="_1" class="fil3" d="M3237.9 3643.7l0 -84.6 0 0 35 -0.7 35 -2.8 34.3 -4.2 33.6 -6.3 32.9 -7.7 32.2 -9.1 31.5 -10.5 30.8 -11.9 30.1 -14 29.3 -15.4 28.7 -16.8 28 -17.5 26.6 -18.9 25.9 -20.3 24.5 -21.7 23.8 -22.4 22.4 -23.8 21.7 -24.5 20.3 -25.9 18.9 -26.6 17.5 -28 16.8 -28.7 15.4 -29.3 14 -30.1 11.9 -30.8 10.5 -31.5 9.1 -32.2 7.7 -32.9 6.3 -33.6 4.2 -34.3 2.8 -35 0.7 -35 84.6 0 -0.7 39.2 -2.8 39.2 -4.9 38.4 -7 37.8 -8.4 37.1 -10.5 36.4 -11.9 35.6 -14 35 -15.4 34.3 -16.8 32.9 -18.2 32.2 -20.3 31.5 -21.7 30.1 -23.1 28.7 -23.8 28 -25.2 26.6 -26.6 25.2 -28 23.8 -28.7 23.1 -30.1 21.7 -31.5 20.3 -32.2 18.2 -32.9 16.8 -34.3 15.4 -35 14 -35.6 11.9 -36.4 10.5 -37.1 8.4 -37.8 7 -38.4 4.9 -39.2 2.8 -39.2 0.7 0 0 0.6 -0.6zm0 0c-23.8,0 -42.7,-18.9 -42.7,-42.7 0,-23.8 18.9,-42.7 42.7,-42.7l0 84.6 0 0.7zm-768 -767.3l84.6 0 0 0 0.7 35 2.8 35 4.2 34.3 6.3 33.6 7.7 32.9 9.1 32.2 10.5 31.5 11.9 30.8 14 30.1 15.4 29.3 16.8 28.7 17.5 28 18.9 26.5 20.3 25.9 21.7 24.5 22.4 23.8 23.8 22.4 24.5 21.7 25.9 20.3 26.6 18.9 28 17.5 28.7 16.8 29.3 15.4 30.1 14 30.8 11.9 31.5 10.5 32.2 9.1 32.9 7.7 33.6 6.3 34.3 4.2 35 2.8 35 0.7 0 84.6 -39.2 -0.7 -39.2 -2.8 -38.4 -4.9 -37.8 -7 -37.1 -8.4 -36.4 -10.5 -35.6 -11.9 -35 -14 -34.3 -15.4 -32.9 -16.8 -32.2 -18.2 -31.5 -20.3 -30.1 -21.7 -28.7 -23.1 -28 -23.8 -26.6 -25.2 -25.2 -26.6 -23.8 -28 -23.1 -28.7 -21.7 -30.1 -20.3 -31.5 -18.2 -32.2 -16.8 -32.9 -15.4 -34.3 -14 -35 -11.9 -35.6 -10.5 -36.4 -8.4 -37.1 -7 -37.8 -4.9 -38.4 -2.8 -39.2 -0.7 -39.2 0 0 0.6 0.6zm0 0c0,-23.8 18.9,-42.7 42.7,-42.7 23.8,0 42.7,18.9 42.7,42.7l-84.6 0 -0.7 0zm768 -768l0 84.6 0 0 -35 0.7 -35 2.8 -34.3 4.2 -33.6 6.3 -32.9 7.7 -32.2 9.1 -31.5 10.5 -30.8 11.9 -30.1 14 -29.3 15.4 -28.7 16.8 -28 17.5 -26.6 18.9 -25.9 20.3 -24.5 21.7 -23.8 22.4 -22.4 23.8 -21.7 24.5 -20.3 25.9 -18.9 26.6 -17.5 28 -16.8 28.7 -15.4 29.4 -14 30.1 -11.9 30.8 -10.5 31.5 -9.1 32.2 -7.7 32.9 -6.3 33.6 -4.2 34.3 -2.8 35 -0.7 35 -84.6 0 0.7 -39.2 2.8 -39.2 4.9 -38.4 7 -37.8 8.4 -37 10.5 -36.4 11.9 -35.6 14 -35 15.4 -34.3 16.8 -32.9 18.2 -32.2 20.3 -31.5 21.7 -30.1 23.1 -28.7 23.8 -28 25.2 -26.6 26.6 -25.2 28 -23.8 28.7 -23.1 30.1 -21.7 31.5 -20.3 32.2 -18.2 32.9 -16.8 34.3 -15.4 35 -14 35.6 -11.9 36.4 -10.5 37.1 -8.4 37.8 -7 38.4 -4.9 39.2 -2.8 39.2 -0.7 0 0 -0.6 0.6zm0 0c23.8,0 42.7,18.9 42.7,42.7 0,23.8 -18.9,42.7 -42.7,42.7l0 -84.6 0 -0.7zm767.3 768l-84.6 0 0 0 -0.7 -35 -2.8 -35 -4.2 -34.3 -6.3 -33.6 -7.7 -32.9 -9.1 -32.2 -10.5 -31.5 -11.9 -30.8 -14 -30.1 -15.4 -29.3 -16.8 -28.7 -17.5 -28 -18.9 -26.6 -20.3 -25.9 -21.7 -24.5 -22.4 -23.8 -23.8 -22.4 -24.5 -21.7 -25.9 -20.3 -26.6 -18.9 -28 -17.5 -28.7 -16.8 -29.3 -15.4 -30.1 -14 -30.8 -11.9 -31.5 -10.5 -32.2 -9.1 -32.9 -7.7 -33.6 -6.3 -34.3 -4.2 -35 -2.8 -35 -0.7 0 -84.6 39.2 0.7 39.2 2.8 38.4 4.9 37.8 7 37.1 8.4 36.4 10.5 35.6 11.9 35 14 34.3 15.4 32.9 16.8 32.2 18.2 31.5 20.3 30.1 21.7 28.7 23.1 28 23.8 26.6 25.2 25.2 26.6 23.8 28 23.1 28.7 21.7 30.1 20.3 31.5 18.2 32.2 16.8 32.9 15.4 34.3 14 35 11.9 35.6 10.5 36.4 8.4 37 7 37.8 4.9 38.4 2.8 39.2 0.7 39.2 0 0 -0.6 -0.6zm0 0c0,23.8 -18.9,42.7 -42.7,42.7 -23.8,0 -42.7,-18.9 -42.7,-42.7l84.6 0 0.7 0z"/>
   </g>
   <path class="fil3" d="M2836.4 2950.5c-32.9,-32.9 -32.9,-86.7 0,-119.6 32.9,-32.9 86.7,-32.9 119.6,0l-119.6 119.6zm243.5 243.4l-243.4 -243.4 119.6 -119.6 243.4 243.4 0 119.6 -119.6 0zm119.6 -119.6c32.9,32.9 32.9,86.7 0,119.6 -32.9,32.9 -86.7,32.9 -119.6,0l119.6 -119.6zm472.2 -352.5l-472.1 472.1 -119.6 -119.6 472.1 -472.1 119.6 119.6zm-119.6 -119.6c32.9,-32.9 86.7,-32.9 119.6,0 32.9,32.9 32.9,86.7 0,119.6l-119.6 -119.6z"/>
   <path class="fil4" d="M724.9 1251.6l0 807 -151.1 0 0 -652.3 -179.9 109.1 -67.1 -103.1 262.6 -160.7 135.5 0zm507.2 269.8c42.4,0 80.9,10.2 115.7,30.6 34.8,20.4 62.2,50.4 82.1,89.9 20,39.6 30,86.9 30,142.1 0,56 -11.6,106.1 -34.8,150.5 -23.2,44.4 -55.8,79.1 -97.7,104.3 -42,25.2 -89.7,37.8 -143.3,37.8 -99.1,0 -172.5,-34.8 -220,-104.3 -47.6,-69.5 -71.3,-165.1 -71.3,-286.6 0,-89.5 13.4,-168.1 40.2,-235.6 26.8,-67.6 65.2,-119.9 115.1,-157.1 50,-37.2 108.5,-55.7 175.7,-55.7 66.3,0 125.1,17.2 176.3,51.6l-57.6 94.7c-36.8,-21.6 -75.5,-32.4 -116.3,-32.4 -51.1,0 -92.1,23 -122.9,68.9 -30.8,46 -48.2,109.3 -52.2,190.1 48.8,-59.2 109.1,-88.7 181.1,-88.7zm-48 441.3c40,0 70.1,-15.8 90.5,-47.4 20.4,-31.6 30.6,-74.5 30.6,-128.9 0,-55.2 -9.4,-94.5 -28.2,-118.1 -18.8,-23.6 -46.2,-35.4 -82.1,-35.4 -27.2,0 -53,7.4 -77.3,22.2 -24.4,14.8 -46.2,35 -65.3,60.6 1.6,87.1 12.6,150.1 33,188.8 20.4,38.8 53.4,58.2 98.9,58.2zm1034.8 -556.4c73.6,0 131.1,29.4 172.7,88.1 41.6,58.8 62.3,140.9 62.3,246.4 0,65.5 -10.2,123.7 -30.6,174.5 -20.4,50.8 -49.4,90.3 -86.9,118.7 -37.6,28.4 -81.9,42.6 -133.1,42.6 -34.4,0 -65.8,-7.2 -94.1,-21.6 -28.4,-14.4 -53,-34.8 -73.7,-61.2l-9.6 64.8 -135.5 0 0 -888.5 153.5 -16.8 0 342.9c20.8,-28.8 46.2,-51 76.2,-66.6 30,-15.6 63,-23.4 98.9,-23.4zm-57.5 555.2c41.6,0 73.9,-17.8 97.1,-53.4 23.2,-35.6 34.8,-91.3 34.8,-167.3 0,-79.9 -10.8,-136.5 -32.4,-169.7 -21.6,-33.2 -52,-49.8 -91.1,-49.8 -48.8,0 -90.7,28.8 -125.9,86.3l0 280.6c13.6,23.2 30.6,41.2 51,54 20.4,12.8 42.6,19.2 66.6,19.2zm597.1 -537.2l0 634.3 -153.5 0 0 -634.3 153.5 0zm-77.9 -321.3c28.8,0 52.2,9 70.2,27 18,18 27,40.2 27,66.5 0,26.4 -9,48.4 -27,66 -18,17.6 -41.4,26.4 -70.2,26.4 -28,0 -50.9,-8.8 -68.9,-26.4 -18,-17.6 -27,-39.6 -27,-66 0,-26.4 9,-48.5 27,-66.5 18,-18 41,-27 68.9,-27zm625.9 925.7c-22.4,16 -47.4,28 -74.9,36 -27.6,8 -55.8,12 -84.5,12 -62.3,-0.8 -109.7,-18.6 -142.1,-53.4 -32.4,-34.8 -48.6,-86.1 -48.6,-154.1l0 -334.5 -99.5 0 0 -110.3 99.5 0 0 -140.3 153.5 -18 0 158.3 147.5 0 -15.6 110.3 -131.9 0 0 330.9c0,31.2 5.4,53.6 16.2,67.1 10.8,13.6 27.8,20.4 50.9,20.4 23.2,0 48.4,-7.6 75.5,-22.8l54 98.3z"/>
  </g>
 </g>
</svg>
