<?xml version="1.0" encoding="UTF-8"?>
<!DOCTYPE svg PUBLIC "-//W3C//DTD SVG 1.1//EN" "http://www.w3.org/Graphics/SVG/1.1/DTD/svg11.dtd">
<!-- Creator: CorelDRAW -->
<svg xmlns="http://www.w3.org/2000/svg" xml:space="preserve" width="18.4674mm" height="18.4674mm" version="1.1" style="shape-rendering:geometricPrecision; text-rendering:geometricPrecision; image-rendering:optimizeQuality; fill-rule:evenodd; clip-rule:evenodd"
viewBox="0 0 1739 1739"
 xmlns:xlink="http://www.w3.org/1999/xlink"
 xmlns:xodm="http://www.corel.com/coreldraw/odm/2003">
 <defs>
  <style type="text/css">
   <![CDATA[
    .str0 {stroke:#CCCCCC;stroke-width:18.8;stroke-miterlimit:22.9256}
    .fil0 {fill:none}
    .fil6 {fill:#E63C24}
    .fil2 {fill:#5B6B70}
    .fil1 {fill:#999999}
    .fil5 {fill:#EDA935}
    .fil3 {fill:#EEA933}
    .fil4 {fill:#F5C345}
   ]]>
  </style>
 </defs>
 <g id="Слой_x0020_1">
  <metadata id="CorelCorpID_0Corel-Layer"/>
  <polygon class="fil0" points="-0,0 1739,0 1739,1739 -0,1739 "/>
  <g id="_2717403617024">
   <path class="fil1 str0" d="M869 523.6l0 0c179.5,0 326.4,146.9 326.4,326.4l0 593.3 -652.9 0 0 -593.3c0,-179.5 146.9,-326.4 326.4,-326.4z"/>
   <path class="fil2" d="M672.7 1377.6l49.5 0 0 -130.6c32.1,0 30.2,-12.7 44.3,-33.9 10.8,-17.9 19.3,-33.9 30.2,-53.8 9,-14.2 30.2,-39.6 9,-55.6 -10.8,-9 -58.5,-5.7 -78.3,-5.7 -67.4,0 -55.2,0 -55.2,109.4l0 170.2 0.5 -0zm0 0l0 0 0 0z"/>
   <path class="fil3" d="M722.2 1598.3l-51.4 0 0 101.7c0,10.8 -9,24.4 23.1,25.5l7.1 0c30.2,-1 21.2,-14.8 21.2,-25.5l0 -101.7z"/>
   <path class="fil3" d="M1070.2 1598.3l-51.4 0 0 101.7c0,10.8 -9,24.4 21.2,25.5l7.1 0c32.1,-1 23.1,-14.8 23.1,-25.5l0 -101.7z"/>
   <path class="fil4" d="M967.4 1499.7c0,25 -1.9,51.9 7.1,70.3 3.3,9 9,14.2 16,21.7 9,7.1 14.2,7.1 28.3,7.1l51.4 0c48.1,-3.3 55.2,-42.9 48.1,-98.6 -9,-5.7 -134.9,-3.3 -150.9,0l0 0 0.5 -0.5 -0.5 0z"/>
   <path class="fil4" d="M670.8 1598.3l51.4 0c14.2,0 19.4,0 28.3,-7.1 7.1,-5.7 14.2,-12.7 17.9,-21.7 7.1,-17.9 5.2,-44.8 5.2,-70.3 -16,-3.3 -142.4,-5.7 -150.9,0 -7.1,55.7 0,95.3 48.1,98.6l0 0 0.5 0.5 -0.5 0z"/>
   <path class="fil2" d="M1019.8 1377.6l48.1 0c0,-53.8 0.5,-115.1 0.5,-170.2 0,-25 1.9,-55.7 1.9,-80.7 -1.9,-32.1 -25,-30.7 -57.1,-28.8 -26.9,0 -30.2,21.7 -41,39.6 -69.3,115.1 -63.7,109.4 48.1,109.4l-0.5 130.6 0.5 0.5 -0.5 -0.5z"/>
   <path class="fil5" d="M1205.6 1499.7c32.1,0 60.4,5.7 63.7,-25 0,-12.7 0,-76.9 -1.9,-85.8 -9,-23.1 -39.1,-16.5 -73.1,-16.5l-648.4 0c-12.3,0 -49.5,-1.9 -60.4,3.3 -21.2,9 -16,67.9 -12.3,98.6 1.9,30.7 28.3,25 58.5,25l673.4 0 0.5 0.5 0 0z"/>
  </g>
  <path class="fil6" d="M791.6 14.6l-7.1 0.2c-25.7,2.5 -40.1,37.5 -18.1,59.6 11.8,11.8 61.4,24.8 78.1,26.4l29.8 2.5c2.4,0 4.1,-0.1 6.6,-0.4 4.4,-0.5 7.9,-0.3 12.1,-0.4 2.7,-0 5.6,-0.6 8.3,-0.8 20.7,-2.1 65.8,-12.9 82.4,-25 14.4,-10.5 21,-36 7.8,-49.3 -9.3,-9.3 -12.2,-12.3 -25.4,-13.7 -9.5,-1 -18.2,3.8 -26.7,7.3 -21.6,8.9 -40.7,12.4 -64.1,12.4 -20.8,-0 -38.6,-2.8 -57.9,-10.6 -8.4,-3.4 -16.5,-7.7 -25.7,-8.1z"/>
  <path class="fil6" d="M1120.4 156.9c-30.6,-30.7 -59.7,6.7 -91.4,21.4 -27.3,12.6 -55.4,23.1 -85,28.8 -10.9,2.1 -21.9,3.4 -32.9,4.8 -2.6,0.3 -5.2,0.3 -7.8,0.6l-0.9 0.1 -25.4 1.5 -0.5 0c-5.4,0 -10.6,-0.9 -15.9,-0.9 -35.7,0.1 -86.2,-12.1 -118.9,-26.3 -5.3,-2.3 -10.5,-4.7 -15.8,-7 -17.9,-7.9 -34.1,-19.4 -50.6,-29.8 -11.9,-7.5 -29.4,-5.8 -39.5,4.2l-4.2 4.1c-12.3,12.3 -11.3,33.8 0.7,45.9 4.2,4.2 10.9,7.7 15.8,11.2 35.3,25.4 97.2,49.6 139.9,58.3 16.7,3.4 35.8,6.6 52.8,7.6 2.7,0.2 5.6,0.8 8.3,0.8 22.3,0.4 40.3,1.1 62.7,-0.8 48.1,-4 97.2,-16.9 140.8,-37.7 12.8,-6.1 58.4,-29.8 66.5,-39.2 11.2,-14.1 14.9,-33.9 1.2,-47.7z"/>
  <path class="fil6" d="M781.1 455.9l94.9 7.9 70.2 -4.5c15.9,-1.8 31.2,-5 46.9,-7.3 46.8,-7 121.1,-34.6 162.5,-57.8 26.5,-14.9 72,-41 92.9,-61.7 6.4,-6.3 9,-14.6 9.5,-23.2 -0.1,-1.8 -0.5,-4.1 -0.7,-6.2 -0.2,-1.8 -0.6,-3.3 -1.2,-5 -1,-3 -3.6,-8.5 -5.8,-10.7 -9.9,-9.9 -20.1,-16 -34.3,-12.5 -14,3.5 -29.8,18.8 -41.8,27 -31.5,21.5 -64.6,39.6 -100.1,53.7 -25.3,10 -47.4,17.1 -73.8,23.8 -4.1,1 -8.2,1.7 -12.6,2.7l-37.2 6.8c-91.6,13 -189.2,1.5 -274.3,-34 -37.2,-15.6 -65,-30.9 -98.5,-53.3 -11.4,-7.6 -28.5,-23.7 -41.5,-26.8 -29.9,-6.9 -57.5,32.5 -32.4,57.7 11.5,11.5 31.3,24.2 45,33.4 64.9,43.6 154.7,78.9 232.2,90z"/>
 </g>
</svg>
