<?xml version="1.0" encoding="UTF-8"?>
<!DOCTYPE svg PUBLIC "-//W3C//DTD SVG 1.1//EN" "http://www.w3.org/Graphics/SVG/1.1/DTD/svg11.dtd">
<!-- Creator: CorelDRAW -->
<svg xmlns="http://www.w3.org/2000/svg" xml:space="preserve" width="18.4674mm" height="18.4674mm" version="1.1" style="shape-rendering:geometricPrecision; text-rendering:geometricPrecision; image-rendering:optimizeQuality; fill-rule:evenodd; clip-rule:evenodd"
viewBox="0 0 2502.2 2502.2"
 xmlns:xlink="http://www.w3.org/1999/xlink"
 xmlns:xodm="http://www.corel.com/coreldraw/odm/2003">
 <defs>
  <style type="text/css">
   <![CDATA[
    .fil0 {fill:none}
    .fil4 {fill:#EFAC04}
    .fil3 {fill:#F5C345}
    .fil1 {fill:#72C1E9}
    .fil2 {fill:#73C0EA}
    .fil5 {fill:#494949;fill-rule:nonzero}
   ]]>
  </style>
 </defs>
 <g id="Слой_x0020_1">
  <metadata id="CorelCorpID_0Corel-Layer"/>
  <g id="_2681413711296">
   <rect class="fil0" width="2502.2" height="2502.2"/>
   <g>
    <g>
     <path class="fil1" d="M198.4 1874c14.1,17.8 67,89.1 79.4,96.2 24.7,10.7 49.4,-1.8 52.9,-25 5.3,-28.5 -15.9,-41 -30,-57 -178.1,-203.1 -255.8,-523.7 -195.8,-801.6 28.2,-131.8 88.2,-260.1 164.1,-361.6 15.9,-21.4 77.6,-82 60,-110.5 -35.3,-28.5 -49.4,-19.6 -75.9,12.4 -17.6,21.4 -35.3,42.8 -52.9,67.7 -235.6,352.1 -243,828.7 -1.7,1179.3z"/>
     <path class="fil2" d="M2443.7 1010c-37.1,-131.8 -119.9,-288.6 -208.1,-388.3 -18.9,-20.2 -30.6,-27.8 -45.9,-23 -20.3,6.2 -31.2,29.3 -23.8,49.2 5.2,13.9 15.2,23.5 23.8,34.4 98.8,115.8 165.8,256.5 199.3,411.5 42.3,201.3 12.3,427.5 -70.6,591.4 -38.8,80.2 -82.9,155 -135.8,212 -56.4,58.8 8.8,98 42.3,64.2l75.9 -99.8c176.4,-245.8 159.7,-457.8 180.9,-518.4 0,-110.9 -6.9,-226.2 -38,-333.1z"/>
     <path class="fil1" d="M2046.8 1790.2c-38.8,41 8.8,105.1 67,33.9 213.4,-263.6 259.3,-596.8 97,-931.7 -15.9,-35.6 -100.5,-165.7 -128.8,-176.3 -28.2,-10.7 -54.7,8.9 -49.4,41 3.5,14.2 33.5,46.3 44.1,58.8 14.1,19.6 26.5,35.6 40.6,60.6 90,140.7 132.3,311.7 114.7,486.3 -15.9,158.5 -86.4,320.6 -185.2,427.5l0 0z"/>
     <path class="fil1" d="M455.9 767.7c15.9,-30.3 -7,-58.8 -38.8,-53.5 -17.6,1.8 -40.6,35.6 -52.9,49.9 -248.7,324.2 -234.6,732.2 7.1,1051.1 67,87.3 107.6,16 79.4,-19.6l-45.9 -57c-74.1,-101.5 -125.2,-220.9 -142.9,-361.6 -14.1,-122.9 1.8,-251.2 42.3,-358 63.5,-167.5 135.8,-224.5 151.7,-251.2l0 0z"/>
     <path class="fil1" d="M586.4 888.8c21.2,-33.8 -26.5,-89.1 -68.8,-30.3 -24.7,32.1 -44.1,57 -67,94.4 -142.9,240.5 -107.6,530.9 49.4,737.5 7,8.9 31.7,39.2 40.6,44.5 22.9,8.9 47.6,-5.4 51.1,-28.5 5.3,-46.3 -114.6,-101.5 -151.7,-331.3 -14.1,-96.2 -3.5,-197.7 26.5,-285 14.1,-41 33.5,-76.6 51.1,-108.7 26.5,-46.3 49.4,-64.1 68.8,-92.6l0 0z"/>
     <path class="fil1" d="M2052.1 1368.1c-30,215.5 -148.2,295.7 -149.9,329.6 -3.5,24.9 17.7,44.5 42.3,39.2 44.1,-8.9 216.9,-260.1 181.7,-538 -19.4,-142.5 -68.8,-231.6 -146.4,-334.9 -51.1,-65.9 -84.6,-12.5 -77.6,16l68.8 96.2c70.5,112.2 102.3,252.9 81.1,391.9l0 0z"/>
     <path class="fil3" d="M1668.4 1572.2c-10.8,-138.5 64,-390.6 22.9,-534.2 -21.7,-70.8 -59.1,-138.7 -99.4,-175.9 -92.2,-90.9 -142.8,-89.1 -169.2,-111.6 -30.2,-5.1 -53.7,-11.8 -90.7,-15.4 -36.9,-3.6 -59.1,-1.3 -92,-2.2l-2.6 4.2c-147.3,25.7 -258.4,108.1 -316.6,233.3 -63.5,135.7 -48.4,365.5 -76.6,522.4l637.2 61.4 187 18z"/>
     <path class="fil3" d="M1074.6 1743.3c-10.1,36.7 18.1,86 37.9,107.8 111.4,119.4 286.2,14.3 279.6,-77.2l6 -39.3 -321.8 -31 -1.6 39.7z"/>
     <path class="fil4" d="M1400.3 1734.8c67.4,6.5 266.2,38.9 310.3,14.4 83.4,-45.2 64.5,-168.9 -42.2,-177l-145.7 -14 0 0 -678.5 -65.4c-117.7,-9.1 -145.4,119 -73.3,168.1 41.4,26.1 237.9,36.2 301,42.3l4.4 0.4 321.8 31 2.2 0.2z"/>
     <path class="fil4" d="M1240 732.9c32.8,0.9 55,-1.3 92,2.2 37,3.6 60.5,10.3 90.7,15.4 9.5,-98.9 38,-211.4 -70.8,-221.9 -45.7,-4.4 -76.5,19.2 -90.5,51.1 -16.2,31.7 -17.5,113.6 -21.3,153.1l0 0z"/>
    </g>
    <polygon class="fil5" points="1390,880 1340.8,1429.4 1214.9,1418.1 1252.8,993.9 1128.5,1055.6 1080.1,965.3 1275.4,869.7 "/>
   </g>
  </g>
 </g>
</svg>
