<?xml version="1.0" encoding="UTF-8"?>
<!DOCTYPE svg PUBLIC "-//W3C//DTD SVG 1.1//EN" "http://www.w3.org/Graphics/SVG/1.1/DTD/svg11.dtd">
<!-- Creator: CorelDRAW -->
<svg xmlns="http://www.w3.org/2000/svg" xml:space="preserve" width="18.4674mm" height="18.4674mm" version="1.1" style="shape-rendering:geometricPrecision; text-rendering:geometricPrecision; image-rendering:optimizeQuality; fill-rule:evenodd; clip-rule:evenodd"
viewBox="0 0 29812.7 29812.7"
 xmlns:xlink="http://www.w3.org/1999/xlink"
 xmlns:xodm="http://www.corel.com/coreldraw/odm/2003">
 <defs>
  <style type="text/css">
   <![CDATA[
    .fil0 {fill:none}
    .fil1 {fill:#72C1E9;fill-rule:nonzero}
    .fil2 {fill:white;fill-rule:nonzero}
   ]]>
  </style>
 </defs>
 <g id="Слой_x0020_1">
  <metadata id="CorelCorpID_0Corel-Layer"/>
  <polygon class="fil0" points="-0,0 29812.7,0 29812.7,29812.7 -0,29812.7 "/>
  <path class="fil1" d="M4270.7 27248l-57.1 -4383.4c0,0 -3908.5,-223.1 -4028.6,-3759.8l63 -14186c0,0 400.4,-3204.6 4074.4,-3107.4l20996.1 0c0,0 4240.5,-268.8 4309,3805.5l0 13585.3c0,0 63,3342 -4074.4,3673.9l-12818.3 0 -7261.6 4990.1c-240.2,166.1 -532.2,183.1 -789.7,51.7 -257.5,-131.6 -412.3,-383.6 -412.3,-669.8l-0.3 0z"/>
  <path class="fil2" d="M5934.8 9153l0 6631.5 -1241.4 0 0 -5360.4 -1478.1 896.8 -551.8 -847.4 2157.9 -1320.5 1113.4 0zm4168.1 2217.1c348.2,0 665.3,83.8 951,251.2 285.7,167.6 510.6,413.9 675,739 164.2,325.3 246.3,714.5 246.3,1167.7 0,459.9 -95.2,872.1 -285.7,1236.7 -190.5,364.5 -458.3,650.3 -803.1,857.2 -344.8,207 -737.4,310.4 -1177.5,310.4 -814.6,0 -1417.2,-285.9 -1808.2,-857.4 -390.8,-571.5 -586.2,-1356.5 -586.2,-2355 0,-735.7 109.9,-1381.1 330,-1936.2 220.2,-555 535.5,-985.4 946,-1290.8 410.5,-305.4 891.8,-458.1 1443.5,-458.1 545.3,0 1028,141.3 1448.5,423.8l-473 778.4c-302.2,-177.4 -620.7,-266 -955.9,-266 -420.4,0 -757,188.7 -1009.9,566.5 -253,377.8 -395.8,898.4 -428.6,1561.9 400.7,-486.1 896.6,-729.2 1487.8,-729.2zm-394.1 3626.1c328.5,0 576.5,-129.8 743.9,-389.2 167.6,-259.4 251.4,-612.6 251.4,-1059.3 0,-453.1 -77.2,-776.7 -231.7,-970.5 -154.3,-193.7 -379.4,-290.6 -675,-290.6 -223.3,0 -435.2,60.7 -635.6,182.3 -200.3,121.6 -379.4,287.4 -536.9,497.5 13.1,716.1 103.5,1233.4 270.9,1552 167.6,318.5 438.5,477.8 813,477.8zm8503.5 -4572.1c604.4,0 1077.4,241.5 1419,724.4 341.6,482.7 512.4,1157.8 512.4,2024.9 0,538.7 -83.8,1016.5 -251.4,1433.7 -167.4,417.1 -405.5,742.3 -714.3,975.5 -308.7,233.1 -673.3,349.8 -1093.7,349.8 -282.5,0 -540.3,-59.2 -773.6,-177.4 -233.1,-118.3 -435.1,-285.7 -605.9,-502.5l-78.9 532.1 -1113.4 0 0 -7301.5 1261.3 -138 0 2818.2c170.8,-236.5 379.4,-418.8 625.7,-546.8 246.3,-128.2 517.2,-192.3 812.8,-192.3zm-472.8 4562.3c341.4,0 607.6,-146.1 798.1,-438.5 190.5,-292.4 285.7,-750.5 285.7,-1374.6 0,-656.9 -88.8,-1121.6 -266,-1394.3 -177.4,-272.7 -427,-408.9 -748.9,-408.9 -400.7,0 -745.7,236.5 -1034.6,709.5l0 2305.8c111.7,190.5 251.2,338.2 418.8,443.3 167.6,105.1 349.8,157.7 546.9,157.7zm4907.1 -4414.4l0 5212.5 -1261.3 0 0 -5212.5 1261.3 0zm-640.6 -2640.7c236.5,0 428.6,73.8 576.5,221.6 147.9,147.9 221.6,330.1 221.6,546.9 0,216.8 -73.8,397.5 -221.6,541.9 -147.9,144.5 -340,216.8 -576.5,216.8 -229.9,0 -418.8,-72.3 -566.5,-216.8 -147.9,-144.5 -221.8,-325.1 -221.8,-541.9 0,-216.8 73.9,-399.1 221.8,-546.9 147.7,-147.9 336.6,-221.6 566.5,-221.6zm5143.6 7606.9c-183.9,131.4 -389.2,229.9 -615.7,295.6 -226.7,65.7 -458.3,98.6 -694.8,98.6 -512.4,-6.6 -901.6,-152.9 -1167.7,-438.6 -266,-285.7 -399.1,-707.7 -399.1,-1266.1l0 -2749.2 -817.8 0 0 -906.5 817.8 0 0 -1153 1261.3 -147.7 0 1300.7 1212 0 -128.2 906.5 -1083.9 0 0 2719.7c0,256.2 44.4,440.1 133,551.8 88.8,111.7 228.3,167.6 418.8,167.6 190.5,0 397.5,-62.5 620.9,-187.3l443.3 808z"/>
 </g>
</svg>
