<?xml version="1.0" encoding="UTF-8"?>
<svg id="_Слой_2" data-name="Слой 2" xmlns="http://www.w3.org/2000/svg" viewBox="0 0 39.69 35.06">
  <defs>
    <style>
      .cls-1 {
        fill: #e5716a;
      }

      .cls-1, .cls-2, .cls-3, .cls-4, .cls-5 {
        fill-rule: evenodd;
      }

      .cls-2, .cls-5 {
        fill: #2b98d5;
      }

      .cls-3 {
        fill: #dc574d;
      }

      .cls-4 {
        fill: #53a4db;
      }

      .cls-5 {
        stroke: #2b98d5;
        stroke-miterlimit: 10;
        stroke-width: 2px;
      }
    </style>
  </defs>
  <g id="_Слой_1-2" data-name="Слой 1">
    <polygon class="cls-3" points="19.84 28.33 28.32 28.33 28.32 21.43 19.87 21.4 11.37 21.46 11.34 28.36 19.84 28.33"/>
    <polygon class="cls-2" points="6.32 32.88 19.81 32.88 19.81 32.88 33.36 32.88 33.42 28.21 28.23 28.18 19.64 28.18 19.64 28.18 11.34 28.18 6.35 28.18 6.32 32.88"/>
    <path class="cls-4" d="m0,32.68v2.32l19.64.06h20.04v-2.4c-6.66,0-13.41.03-20.07.03H0Z"/>
    <path class="cls-1" d="m11.37,26.01h19.36c.14-1.32-.06-3.44-.45-4.55-.43-1.2-1.28-2.2-2.07-2.81-2.38-1.78-4.99-1.29-8.33-1.29-3.86,0-8.67-.72-10.46,4.15-.34.94-.51,3.44-.34,4.47l2.3.03Z"/>
    <polygon class="cls-5" points="19.84 2.02 17.91 5.4 15.99 8.77 18.85 8.77 18.85 14.41 20.83 14.41 20.83 8.77 23.7 8.77 21.77 5.4 19.84 2.02"/>
  </g>
</svg>