<?xml version="1.0" encoding="UTF-8"?>
<svg id="_Слой_2" data-name="Слой 2" xmlns="http://www.w3.org/2000/svg" viewBox="0 0 37.96 38.34">
  <defs>
    <style>
      .cls-1, .cls-2, .cls-3 {
        fill: #fff;
      }

      .cls-2 {
        stroke-width: 2.38px;
      }

      .cls-2, .cls-3 {
        stroke: #fff;
        stroke-linecap: round;
        stroke-linejoin: round;
      }

      .cls-3 {
        stroke-width: 1.71px;
      }

      .cls-4 {
        fill: #f2c61e;
      }
    </style>
  </defs>
  <g id="_131" data-name="131">
    <g>
      <path class="cls-4" d="m24.27.77c7.86,2.3,13.29,9.34,13.69,17.58v1.67c-.3,5.09-2.22,9.39-5.75,12.9-3.36,3.34-7.75,5.18-12.47,5.42h-1.52c-2.79-.11-5.42-.82-7.86-2.08C4.12,32.97.22,26.75,0,19.63v-.85C.27,8.49,8.32.33,18.49,0h.92c1.65.05,3.28.3,4.85.77h0Zm-12.55,10.32c.3-.96-.62-1.89-1.57-1.48-.16.08-.38.25-.62.49-2.14,2.3-3.44,5.29-3.55,8.46-.14,3.83,1.11,7.12,3.74,9.89.95.96,2.49-.05,1.98-1.26-.14-.27-.33-.47-.54-.68-3.66-3.97-3.8-10.13-.33-14.27.27-.33.76-.77.89-1.15h0Zm14.56,16.13c-.38.9.52,1.89,1.46,1.56.38-.14.65-.47.92-.77,4.61-5.23,4.45-13.12-.41-18.13-1.11-1.1-2.79.38-1.74,1.67.14.14.24.27.38.41,3.8,4.27,3.61,10.57-.27,14.73-.19.19-.3.36-.35.52h0Z"/>
      <circle class="cls-1" cx="20.27" cy="12.34" r="1.64"/>
      <path class="cls-2" d="m19.61,16.06s-1.82,10.28-1.15,11.28"/>
      <line class="cls-3" x1="16.05" y1="17.21" x2="19.56" y2="15.73"/>
      <path class="cls-3" d="m21.77,25.1s-.93,2.17-3.11,2.55"/>
    </g>
  </g>
</svg>