<?xml version="1.0" encoding="UTF-8" standalone="no"?>
<!DOCTYPE svg PUBLIC "-//W3C//DTD SVG 1.1//EN" "http://www.w3.org/Graphics/SVG/1.1/DTD/svg11.dtd">
<svg xmlns="http://www.w3.org/2000/svg" version="1.1" viewBox="0.00 0.00 512.00 512.00">
<path fill="#2a92fa" d="
  M 429.50 428.63
  L 429.50 82.91
  A 0.41 0.41 0.0 0 0 429.09 82.50
  L 221.99 82.50
  Q 221.19 82.50 221.20 83.30
  Q 221.41 105.29 221.11 127.50
  C 220.98 137.03 216.54 141.47 207.06 141.48
  Q 188.40 141.51 169.76 141.51
  C 158.42 141.51 154.52 136.95 154.51 125.93
  Q 154.49 86.72 154.57 47.50
  C 154.60 33.30 162.71 21.43 176.24 17.41
  Q 181.02 16.00 190.90 16.00
  Q 328.58 16.00 466.25 16.00
  C 478.41 16.00 490.73 25.00 494.47 36.87
  Q 495.99 41.71 495.99 53.42
  Q 496.01 259.21 495.95 465.00
  C 495.95 478.19 487.77 490.51 475.01 494.49
  Q 470.23 495.99 459.21 495.99
  Q 322.36 496.01 185.50 495.88
  C 171.62 495.86 159.50 487.28 155.74 473.97
  Q 154.53 469.68 154.52 459.27
  Q 154.48 423.73 154.50 388.18
  C 154.51 376.52 156.75 370.49 169.19 370.49
  Q 187.81 370.49 206.43 370.51
  C 215.94 370.53 220.97 374.36 221.10 384.06
  Q 221.40 406.27 221.20 428.71
  Q 221.19 429.50 221.98 429.50
  L 428.62 429.50
  Q 429.50 429.50 429.50 428.63
  Z"
/>
<path fill="#2a92fa" d="
  M 17.58 228.63
  C 19.98 224.04 24.20 222.76 29.50 222.76
  Q 150.25 222.74 270.93 222.75
  A 0.57 0.57 0.0 0 0 271.50 222.18
  Q 271.51 205.94 271.50 189.48
  C 271.50 184.20 274.41 179.54 280.14 180.44
  Q 282.82 180.86 286.60 183.87
  Q 327.54 216.45 368.47 249.02
  C 376.77 255.63 371.05 260.91 364.99 265.74
  Q 325.37 297.31 285.71 328.82
  C 278.42 334.62 271.48 331.23 271.49 322.00
  Q 271.51 305.88 271.49 289.82
  A 0.57 0.56 90.0 0 0 270.93 289.25
  Q 151.47 289.25 31.76 289.25
  C 20.81 289.25 16.12 286.13 16.03 275.07
  Q 15.86 256.52 16.12 237.97
  Q 16.21 231.27 17.58 228.63
  Z"
/>
</svg>
