<?xml version="1.0" encoding="UTF-8"?>
<svg id="_Слой_2" data-name="Слой 2" xmlns="http://www.w3.org/2000/svg" viewBox="0 0 42.11 37.8">
  <defs>
    <style>
      .cls-1 {
        fill: #a8acb3;
        stroke-width: 1.33px;
      }

      .cls-1, .cls-2 {
        stroke-miterlimit: 10;
      }

      .cls-1, .cls-3 {
        stroke: #a8acb3;
      }

      .cls-2 {
        fill: #53a4db;
        stroke: #2b98d5;
        stroke-width: .56px;
      }

      .cls-3 {
        stroke-width: 1.69px;
      }

      .cls-3, .cls-4 {
        fill: none;
        stroke-linecap: round;
        stroke-linejoin: round;
      }

      .cls-4 {
        stroke: #e5c688;
        stroke-width: 1.69px;
      }
    </style>
  </defs>
  <g id="_129" data-name="129">
    <g>
      <g>
        <circle class="cls-1" cx="4.07" cy="4.07" r="3.41"/>
        <path class="cls-3" d="m34.97,36.36c-2.02.57-3.15.6-4.58.6h-5.06"/>
        <path class="cls-3" d="m41.26,29.22c-.33,1.5-.56,2.83-1.92,4.3-.2.22-.83.77-1.01.92"/>
        <path class="cls-3" d="m19.85,17.47h12.3s3.03-.3,5.32,1.45c1.8,1.38,3.35,3.6,3.79,6.33"/>
        <path class="cls-3" d="m6.28,14.84c1.43,1.61,3.32,2.52,5.3,2.6.09,0,.92,0,1.01,0"/>
        <path class="cls-3" d="m4.49,3.7s-1.82,5.22-.09,8"/>
      </g>
      <g>
        <g>
          <line class="cls-4" x1="31.37" y1="11.41" x2="16.61" y2="36.96"/>
          <path class="cls-2" d="m30.55,12.34c1.01.4,3.31,1.24,4.84,3.54.35.52.65.92,1.08,1.27,1.02.83,2.47,1.7,4.35,1.8.05,0,.08.05.06.1-.45.76-3.56,6.03-4.28,7.24-.09.15-.24.23-.41.23-.9,0-3.15-.12-5.04-2.82-.23-.33-.4-.69-.66-1-.68-.81-2.11-2.12-4.34-2.38-.27-.03-.42-.33-.28-.57.89-1.53,3.46-5.99,4.19-7.25.1-.17.3-.24.48-.17Z"/>
        </g>
        <g>
          <line class="cls-4" x1="17.14" y1="11.41" x2="31.9" y2="36.96"/>
          <path class="cls-2" d="m17.95,12.34c-1.01.4-3.31,1.24-4.84,3.54-.35.52-.65.92-1.08,1.27-1.02.83-2.47,1.7-4.35,1.8-.05,0-.08.05-.06.1.45.76,3.56,6.03,4.28,7.24.09.15.24.23.41.23.9,0,3.15-.12,5.04-2.82.23-.33.4-.69.66-1,.68-.81,2.11-2.12,4.34-2.38.27-.03.42-.33.28-.57-.89-1.53-3.46-5.99-4.19-7.25-.1-.17-.3-.24-.48-.17Z"/>
        </g>
      </g>
    </g>
  </g>
</svg>