<?xml version="1.0" encoding="UTF-8" standalone="no"?>
<!DOCTYPE svg PUBLIC "-//W3C//DTD SVG 1.1//EN" "http://www.w3.org/Graphics/SVG/1.1/DTD/svg11.dtd">
<svg xmlns="http://www.w3.org/2000/svg" version="1.1" viewBox="0.00 0.00 512.00 512.00">
<g stroke-width="2.00" fill="none" stroke-linecap="butt">
<path stroke="#00a0f4" vector-effect="non-scaling-stroke" d="
  M 255.94 29.99
  Q 256.04 74.10 256.01 118.08
  C 256.01 119.08 256.42 119.59 257.29 119.96"
/>
<path stroke="#0079a4" vector-effect="non-scaling-stroke" d="
  M 254.08 119.74
  Q 238.56 118.92 226.33 108.61"
/>
<path stroke="#00619e" vector-effect="non-scaling-stroke" d="
  M 285.95 108.68
  Q 273.69 119.02 257.79 119.94"
/>
<path stroke="#00394e" vector-effect="non-scaling-stroke" d="
  M 255.93 180.03
  L 255.97 210.10"
/>
<path stroke="#00394e" vector-effect="non-scaling-stroke" d="
  M 255.91 240.02
  L 256.02 270.11"
/>
<path stroke="#00394e" vector-effect="non-scaling-stroke" d="
  M 255.88 331.82
  L 256.07 369.01"
/>
<path stroke="#80553d" vector-effect="non-scaling-stroke" d="
  M 137.02 481.98
  L 105.50 481.85"
/>
<path stroke="#78321e" vector-effect="non-scaling-stroke" d="
  M 406.69 481.82
  L 374.90 481.97"
/>
<path stroke="#f84e0d" vector-effect="non-scaling-stroke" d="
  M 255.92 481.99
  L 256.11 512.00"
/>
</g>
<path fill="#00c0f1" d="
  M 104.05 0.00
  L 104.52 0.00
  L 130.80 11.31
  A 0.97 0.97 0.0 0 1 131.32 12.55
  Q 110.87 64.50 131.57 116.35
  A 0.29 0.29 0.0 0 1 131.42 116.72
  L 104.58 128.09
  Q 104.05 128.31 103.84 127.78
  Q 78.41 63.87 104.05 0.00
  Z"
/>
<path fill="#00abe9" d="
  M 380.64 115.52
  C 394.29 82.56 394.09 45.30 380.50 12.32
  A 0.63 0.62 67.4 0 1 380.83 11.51
  L 407.27 0.30
  A 0.58 0.57 -22.6 0 1 408.03 0.61
  C 425.11 41.28 424.84 87.13 408.07 127.77
  Q 407.86 128.27 407.36 128.06
  L 381.26 117.03
  A 1.16 1.16 0.0 0 1 380.64 115.52
  Z"
/>
<path fill="#00c0f1" d="
  M 186.44 34.83
  A 0.57 0.56 -68.3 0 1 186.75 35.56
  Q 175.45 64.16 186.75 92.80
  A 0.53 0.53 0.0 0 1 186.47 93.48
  L 159.76 104.81
  A 0.47 0.46 -21.7 0 1 159.15 104.55
  Q 143.14 64.14 159.17 23.73
  A 0.43 0.42 22.4 0 1 159.73 23.50
  L 186.44 34.83
  Z"
/>
<path fill="#00abe9" d="
  M 325.30 92.60
  C 332.70 74.39 332.72 53.97 325.32 35.78
  A 0.82 0.81 -23.1 0 1 325.75 34.72
  L 352.28 23.51
  A 0.42 0.41 67.3 0 1 352.83 23.74
  Q 368.84 64.12 352.85 104.54
  A 0.46 0.45 -68.1 0 1 352.25 104.80
  L 325.71 93.58
  A 0.76 0.76 0.0 0 1 325.30 92.60
  Z"
/>
<path fill="#00abe9" d="
  M 255.94 29.99
  Q 256.04 74.10 256.01 118.08
  C 256.01 119.08 256.42 119.59 257.29 119.96
  L 254.08 119.74
  Q 238.56 118.92 226.33 108.61
  C 208.85 92.76 206.09 66.99 220.24 48.02
  Q 232.82 31.16 255.94 29.99
  Z"
/>
<path fill="#0095ff" d="
  M 255.94 29.99
  C 277.24 30.07 295.71 44.78 299.92 65.78
  Q 304.83 90.25 285.95 108.68
  Q 273.69 119.02 257.79 119.94
  Q 257.78 120.13 257.29 119.96
  C 256.42 119.59 256.01 119.08 256.01 118.08
  Q 256.04 74.10 255.94 29.99
  Z"
/>
<path fill="#00465f" d="
  M 226.33 108.61
  Q 238.56 118.92 254.08 119.74
  L 234.72 179.59
  A 0.55 0.54 8.7 0 0 235.25 180.30
  L 255.93 180.03
  L 255.97 210.10
  L 225.59 210.02
  A 1.04 1.03 8.8 0 0 224.60 210.74
  L 215.31 239.52
  Q 215.14 240.06 215.71 240.06
  L 255.91 240.02
  L 256.02 270.11
  L 205.96 270.03
  A 0.74 0.73 8.6 0 0 205.26 270.54
  L 198.81 290.50
  Q 198.67 290.96 199.06 291.24
  L 255.88 331.82
  L 256.07 369.01
  L 149.21 445.03
  A 1.55 1.46 83.1 0 0 148.65 445.79
  L 137.02 481.98
  L 105.50 481.85
  L 226.33 108.61
  Z
  M 229.93 350.15
  L 189.44 321.22
  A 0.40 0.39 26.7 0 0 188.84 321.41
  L 164.47 396.80
  Q 164.25 397.48 164.83 397.06
  L 229.93 350.51
  A 0.22 0.22 0.0 0 0 229.93 350.15
  Z"
/>
<path fill="#002c3c" d="
  M 285.95 108.68
  L 406.69 481.82
  L 374.90 481.97
  L 363.16 445.85
  Q 363.01 445.37 362.60 445.07
  L 256.07 369.01
  L 255.88 331.82
  L 312.78 291.15
  A 0.56 0.56 0.0 0 0 312.98 290.52
  L 306.66 270.85
  A 0.95 0.94 -8.9 0 0 305.76 270.20
  L 256.02 270.11
  L 255.91 240.02
  L 295.92 240.01
  A 0.56 0.56 0.0 0 0 296.45 239.28
  L 287.23 210.77
  A 0.91 0.90 -8.5 0 0 286.38 210.15
  L 255.97 210.10
  L 255.93 180.03
  L 276.55 179.94
  Q 277.20 179.93 277.00 179.32
  L 257.79 119.94
  Q 273.69 119.02 285.95 108.68
  Z
  M 322.96 321.34
  A 0.32 0.32 0.0 0 0 322.47 321.18
  L 282.63 350.23
  A 0.32 0.32 0.0 0 0 282.63 350.75
  L 346.53 396.53
  A 0.32 0.32 0.0 0 0 347.02 396.18
  L 322.96 321.34
  Z"
/>
<path fill="#ff641a" d="
  M 105.50 481.85
  L 137.02 481.98
  L 255.92 481.99
  L 256.11 512.00
  L 46.12 512.00
  L 46.09 482.66
  Q 46.09 482.04 46.71 482.04
  L 105.50 481.85
  Z"
/>
<path fill="#f03800" d="
  M 374.90 481.97
  L 406.69 481.82
  Q 406.81 481.58 406.97 481.85
  A 0.36 0.33 -15.8 0 0 407.26 482.00
  L 465.48 482.00
  Q 465.94 482.00 465.94 482.46
  L 465.85 512.00
  L 256.11 512.00
  L 255.92 481.99
  L 374.90 481.97
  Z"
/>
</svg>
