<?xml version="1.0" encoding="UTF-8" standalone="no"?>
<!DOCTYPE svg PUBLIC "-//W3C//DTD SVG 1.1//EN" "http://www.w3.org/Graphics/SVG/1.1/DTD/svg11.dtd">
<svg xmlns="http://www.w3.org/2000/svg" version="1.1" viewBox="0.00 0.00 512.00 512.00">
<path fill="#2dd62d" d="
  M 204.73 58.00
  Q 204.80 40.87 204.74 23.75
  Q 204.72 19.72 208.75 17.29
  C 212.76 14.87 215.54 16.12 219.12 18.95
  Q 260.65 51.88 302.05 84.95
  C 308.27 89.91 309.33 95.00 302.84 100.17
  Q 260.35 134.03 217.82 167.83
  C 213.88 170.96 208.20 169.92 205.81 165.56
  Q 204.77 163.66 204.76 159.62
  Q 204.74 143.63 204.75 127.97
  A 0.52 0.52 0.0 0 0 204.04 127.48
  Q 142.75 150.64 115.07 208.40
  C 89.45 261.87 98.19 326.10 134.80 371.70
  C 164.99 409.30 210.87 430.54 259.00 429.76
  C 334.74 428.52 398.20 372.12 409.76 297.93
  C 416.77 253.02 403.59 208.60 374.93 173.91
  C 369.25 167.02 369.20 161.27 375.44 154.85
  Q 388.63 141.27 402.18 128.07
  C 410.01 120.44 416.56 120.91 423.59 129.08
  C 506.69 225.66 492.36 372.46 391.01 450.06
  C 294.47 523.97 154.50 506.82 80.08 409.11
  C -17.83 280.54 48.63 97.55 204.20 58.66
  Q 204.72 58.53 204.73 58.00
  Z"
/>
</svg>
