<?xml version="1.0" encoding="UTF-8"?>
<svg id="_Слой_2" data-name="Слой 2" xmlns="http://www.w3.org/2000/svg" viewBox="0 0 37.14 37.51">
  <defs>
    <style>
      .cls-1 {
        stroke-width: 1.4px;
      }

      .cls-1, .cls-2, .cls-3 {
        stroke: #fff;
        stroke-linecap: round;
        stroke-linejoin: round;
      }

      .cls-1, .cls-3 {
        fill: none;
      }

      .cls-4 {
        fill: #9bc765;
      }

      .cls-2 {
        fill: #fff;
        stroke-width: .79px;
      }

      .cls-3 {
        stroke-width: 2.07px;
      }
    </style>
  </defs>
  <g id="randomSeed">
    <path class="cls-4" d="m18.12,0h.95c9.97.32,17.8,8.33,18.07,18.38v.7c-.21,10.1-8.17,18.17-18.2,18.43h-.85C8.14,37.16.29,29.2,0,19.16v-.8C.29,8.31,8.09.29,18.12,0h0Z"/>
    <g>
      <g>
        <polyline class="cls-3" points="13.73 9.86 9.19 9.86 9.19 5.35"/>
        <path class="cls-3" d="m31.22,23.4s3.92-10.51-5.58-16.15c0,0-8.79-5.17-16.45,2.61"/>
      </g>
      <g>
        <polyline class="cls-3" points="24.07 26.91 28.61 26.91 28.61 31.43"/>
        <path class="cls-3" d="m6.58,13.38s-3.92,10.51,5.58,16.15c0,0,8.79,5.17,16.45-2.61"/>
      </g>
    </g>
    <g>
      <path class="cls-2" d="m13.29,13.06s-.15,1.37.37,2.79c.32.87.81,1.75,1.54,2.23s2.46,1.05,3.82,1c0,0,.38-1.77-.92-3.98s-4.81-2.04-4.81-2.04Z"/>
      <path class="cls-2" d="m23.75,15.24s.23,2.41-1.03,3.64c0,0-.85.93-3.65,1.16,0,0-.32-1.97,1.32-3.61,0,0,1.02-1.32,3.37-1.18Z"/>
      <line class="cls-1" x1="19.04" y1="24.51" x2="19.04" y2="19.4"/>
    </g>
  </g>
</svg>