<svg xmlns="http://www.w3.org/2000/svg" viewBox="0 0 39.69 40.24"><defs><style>.cls-1{fill:#ed5451;}.cls-1,.cls-2{fill-rule:evenodd;}.cls-2{fill:#9bcb64;}</style></defs><g id="Слой_2" data-name="Слой 2"><g id="Слой_1-2" data-name="Слой 1"><path class="cls-1" d="M12.53,23.84a3.07,3.07,0,0,1,3.71,2.35,3.1,3.1,0,1,1-3.71-2.35Z"/><path class="cls-2" d="M21.34,2.8,36.68,9.7a.5.5,0,0,1,.22.66L30.07,25.82a.48.48,0,0,1-.65.26l-15.31-6.9a.5.5,0,0,1-.25-.66L20.72,3.06a.45.45,0,0,1,.62-.26Zm.71,22.62L12.24,21a2,2,0,0,1-1-2.58l.17-.37L3,20a.49.49,0,0,0-.37.57L6.4,37.21a.51.51,0,0,0,.6.38l16.44-3.81a.53.53,0,0,0,.37-.6Zm2.78,1.26,1.56,6.93A2,2,0,0,1,24.94,36L6.57,40.19A1.94,1.94,0,0,1,4.25,38.7L.05,20.18A2,2,0,0,1,1.5,17.83l11.17-2.58L18.88,1.17a2,2,0,0,1,2.58-1l17.09,7.7a1.94,1.94,0,0,1,1,2.57L31.89,27.71a1.93,1.93,0,0,1-2.55,1Z"/><path class="cls-1" d="M24.23,8.73a1.63,1.63,0,1,1-2.12.83,1.57,1.57,0,0,1,2.12-.83Z"/><path class="cls-1" d="M21.71,14.4a1.62,1.62,0,0,1,.82,2.14,1.59,1.59,0,0,1-2.12.83,1.62,1.62,0,0,1,1.3-3Z"/><path class="cls-1" d="M30.38,11.5a1.63,1.63,0,0,1,.8,2.15,1.61,1.61,0,0,1-2.13.83,1.7,1.7,0,0,1-.82-2.17,1.63,1.63,0,0,1,2.15-.81Z"/><path class="cls-1" d="M27.86,17.17a1.62,1.62,0,0,1,.82,2.15,1.59,1.59,0,0,1-2.12.83A1.63,1.63,0,0,1,25.74,18a1.59,1.59,0,0,1,2.12-.83Z"/></g></g></svg>