<svg xmlns="http://www.w3.org/2000/svg" viewBox="0 0 39.69 40.24"><defs><style>.cls-1{fill:#ed5451;}.cls-2{fill:#9bcb64;fill-rule:evenodd;}.cls-3{fill:#458abd;stroke:#458abd;stroke-miterlimit:10;stroke-width:1.03px;}</style></defs><g id="Слой_2" data-name="Слой 2"><g id="Слой_1-2" data-name="Слой 1"><path class="cls-1" d="M10.26,33.23a1,1,0,0,1-.8-.83.9.9,0,0,1,0-.6,1.11,1.11,0,0,1,.66-.63c.28-.08.28-.08,1-1.92.39-1,.71-1.86.71-1.91a14.35,14.35,0,0,0-.94-1.46c-.91-1.35-.91-1.35-1.5-1.24s-.88.06-1.22-.37a1,1,0,0,1-.09-1.14c.23-.4.46-.52,1.39-.72,1.39-.31,1.48-.26,2.53,1.26a11.68,11.68,0,0,0,.82,1.15s.28-.66.59-1.43c.6-1.52.74-1.78,1.34-2.07a3.94,3.94,0,0,1,1.55-.25,1,1,0,0,1,.71.83,1,1,0,0,1-.82,1.26c-.45.14-.45.14-.79,1-.2.48-.51,1.34-.71,1.89-.37,1-.37,1,.54,2.29s1,1.49,1.16,1.46A5.87,5.87,0,0,0,17,29c.37-.6.54-.83.74-.92a1.07,1.07,0,0,1,1.59.92,6.27,6.27,0,0,1-1.25,2.2,2.33,2.33,0,0,1-3.09.32,4.52,4.52,0,0,1-1-1.18c-.31-.45-.59-.83-.62-.77s-.29.69-.57,1.46c-.57,1.46-.76,1.72-1.27,2a2.08,2.08,0,0,1-1.25.23Z"/><path class="cls-2" d="M21.34,2.8,36.68,9.7a.5.5,0,0,1,.22.66L30.07,25.82a.48.48,0,0,1-.65.26l-15.31-6.9a.5.5,0,0,1-.25-.66L20.72,3.06a.45.45,0,0,1,.62-.26Zm.71,22.62L12.24,21a2,2,0,0,1-1-2.58l.17-.37L3,20a.49.49,0,0,0-.37.57L6.4,37.21a.51.51,0,0,0,.6.38l16.44-3.81a.53.53,0,0,0,.37-.6Zm2.78,1.26,1.56,6.93A2,2,0,0,1,24.94,36L6.57,40.19A1.94,1.94,0,0,1,4.25,38.7L.05,20.18A2,2,0,0,1,1.5,17.83l11.17-2.58L18.88,1.17a2,2,0,0,1,2.58-1l17.09,7.7a1.94,1.94,0,0,1,1,2.57L31.89,27.71a1.93,1.93,0,0,1-2.55,1Z"/><path class="cls-3" d="M24.89,17.63a9.75,9.75,0,0,1-1.51,1.15,2.91,2.91,0,0,1-1.27.48,2.16,2.16,0,0,1-1.25-.2,7.58,7.58,0,0,1-.68-.37.36.36,0,0,1-.11-.43l.42-.94a.35.35,0,0,1,.46-.18l.14.09a.31.31,0,0,1,.2.31,1,1,0,0,0,.05.32.74.74,0,0,0,.34.31,1.14,1.14,0,0,0,.46.09,1.51,1.51,0,0,0,.51-.14,4.7,4.7,0,0,0,.73-.43c.31-.23.68-.49,1.11-.86L25,10.1a5.42,5.42,0,0,0,0-.94,1.15,1.15,0,0,0-.11-.46h0a.3.3,0,0,1,.05-.4.26.26,0,0,1,.37-.06L27.1,9a.37.37,0,0,1,.17.37.27.27,0,0,1-.29.26,1,1,0,0,0-.25.12.67.67,0,0,0-.2.28,2.29,2.29,0,0,0-.17.46,3.37,3.37,0,0,0-.06.6l-.39,4.44,3.17-3a4.8,4.8,0,0,0,.45-.49,1.63,1.63,0,0,0,.29-.43.76.76,0,0,0,.05-.6.63.63,0,0,1-.08-.11.38.38,0,0,1,0-.4.33.33,0,0,1,.39-.09l1.56.72a.34.34,0,0,1-.08.63h0a1.17,1.17,0,0,0-.48.25,4.79,4.79,0,0,0-.74.58Z"/></g></g></svg>