<?xml version="1.0" encoding="UTF-8" standalone="no"?>
<!DOCTYPE svg PUBLIC "-//W3C//DTD SVG 1.1//EN" "http://www.w3.org/Graphics/SVG/1.1/DTD/svg11.dtd">
<svg xmlns="http://www.w3.org/2000/svg" version="1.1" viewBox="0.00 0.00 512.00 512.00">
<g stroke-width="2.00" fill="none" stroke-linecap="butt">
<path stroke="#a5be73" vector-effect="non-scaling-stroke" d="
  M 329.64 141.15
  Q 328.99 141.51 328.77 141.78
  Q 308.81 166.32 288.84 190.83
  C 283.83 196.97 278.54 193.90 274.56 188.95
  Q 255.21 164.91 235.59 141.15"
/>
<path stroke="#f0a04e" vector-effect="non-scaling-stroke" d="
  M 141.50 141.29
  L 141.25 229.46"
/>
<path stroke="#ec8d22" vector-effect="non-scaling-stroke" d="
  M 141.25 229.46
  L 44.29 229.50"
/>
<path stroke="#d0965d" vector-effect="non-scaling-stroke" d="
  M 473.29 144.25
  L 397.46 229.25"
/>
<path stroke="#f6af4b" vector-effect="non-scaling-stroke" d="
  M 397.46 229.25
  L 141.25 229.46"
/>
<path stroke="#935f3b" vector-effect="non-scaling-stroke" d="
  M 476.73 147.00
  L 476.79 247.25"
/>
<path stroke="#c57434" vector-effect="non-scaling-stroke" d="
  M 393.79 505.00
  Q 397.18 499.05 397.19 495.44
  Q 397.33 363.34 397.21 231.25"
/>
<path stroke="#cc8331" vector-effect="non-scaling-stroke" d="
  M 397.21 231.25
  L 397.46 229.25"
/>
<path stroke="#ec8d22" vector-effect="non-scaling-stroke" d="
  M 397.21 231.25
  C 395.40 233.10 395.25 235.17 394.53 237.20
  Q 378.56 281.73 362.63 326.28
  C 360.56 332.07 358.60 335.43 352.25 335.43
  Q 193.57 335.53 35.08 335.47"
/>
<path stroke="#dc6a26" vector-effect="non-scaling-stroke" d="
  M 344.80 445.52
  Q 350.20 450.67 355.45 455.97
  C 363.88 464.48 376.35 452.40 367.42 443.33
  Q 359.39 435.16 351.21 427.17
  C 346.92 422.98 342.18 422.40 337.74 426.75
  C 333.18 431.20 319.51 442.69 318.13 448.34
  C 316.68 454.25 323.13 460.54 329.05 458.54
  C 333.54 457.02 340.08 449.08 343.92 445.51
  Q 344.37 445.10 344.80 445.52"
/>
<path stroke="#f2bf92" vector-effect="non-scaling-stroke" d="
  M 194.23 441.56
  A 9.06 9.06 0.0 0 0 185.17 432.50
  L 79.79 432.50
  A 9.06 9.06 0.0 0 0 70.73 441.56
  L 70.73 467.68
  A 9.06 9.06 0.0 0 0 79.79 476.74
  L 185.17 476.74
  A 9.06 9.06 0.0 0 0 194.23 467.68
  L 194.23 441.56"
/>
<path stroke="#dc6a26" vector-effect="non-scaling-stroke" d="
  M 370.46 476.37
  A 8.46 8.46 0.0 0 0 362.00 467.91
  L 326.50 467.91
  A 8.46 8.46 0.0 0 0 318.04 476.37
  L 318.04 477.01
  A 8.46 8.46 0.0 0 0 326.50 485.47
  L 362.00 485.47
  A 8.46 8.46 0.0 0 0 370.46 477.01
  L 370.46 476.37"
/>
</g>
<path fill="#4fba6f" d="
  M 255.06 0.00
  L 310.06 0.00
  C 316.35 1.42 317.75 5.45 317.75 11.69
  Q 317.75 44.29 317.75 76.89
  C 317.75 85.59 321.22 88.26 329.95 88.25
  Q 340.51 88.25 351.06 88.24
  C 361.16 88.24 365.30 96.97 358.79 104.85
  Q 343.99 122.79 329.64 141.15
  Q 328.99 141.51 328.77 141.78
  Q 308.81 166.32 288.84 190.83
  C 283.83 196.97 278.54 193.90 274.56 188.95
  Q 255.21 164.91 235.59 141.15
  Q 221.00 122.98 206.26 104.96
  C 199.68 96.92 203.66 88.23 214.02 88.24
  Q 224.77 88.26 235.52 88.24
  C 241.86 88.23 247.23 86.12 247.23 79.19
  Q 247.26 45.14 247.25 11.10
  C 247.25 5.02 248.98 1.22 255.06 0.00
  Z"
/>
<path fill="#e57e25" d="
  M 141.50 141.29
  L 141.25 229.46
  L 44.29 229.50
  Q 85.39 188.11 126.69 146.94
  Q 132.78 140.86 141.50 141.29
  Z"
/>
<path fill="#fac176" d="
  M 141.50 141.29
  L 235.59 141.15
  Q 255.21 164.91 274.56 188.95
  C 278.54 193.90 283.83 196.97 288.84 190.83
  Q 308.81 166.32 328.77 141.78
  Q 328.99 141.51 329.64 141.15
  Q 396.96 141.32 464.00 141.30
  Q 469.15 141.30 473.29 144.25
  L 397.46 229.25
  L 141.25 229.46
  L 141.50 141.29
  Z"
/>
<path fill="#a56a43" d="
  M 473.29 144.25
  Q 475.44 145.15 476.73 147.00
  L 476.79 247.25
  Q 476.71 331.38 476.70 415.50
  C 476.70 422.17 474.42 425.95 469.47 430.85
  Q 431.83 468.13 393.79 505.00
  Q 397.18 499.05 397.19 495.44
  Q 397.33 363.34 397.21 231.25
  L 397.46 229.25
  L 473.29 144.25
  Z"
/>
<path fill="#805333" d="
  M 476.73 147.00
  Q 479.45 149.63 480.01 151.29
  Q 493.89 192.62 507.60 234.02
  C 510.86 243.84 504.43 247.20 495.95 247.23
  Q 486.38 247.27 476.79 247.25
  L 476.73 147.00
  Z"
/>
<path fill="#f29c1f" d="
  M 397.46 229.25
  L 397.21 231.25
  C 395.40 233.10 395.25 235.17 394.53 237.20
  Q 378.56 281.73 362.63 326.28
  C 360.56 332.07 358.60 335.43 352.25 335.43
  Q 193.57 335.53 35.08 335.47
  Q 24.56 335.53 14.25 335.55
  C 9.08 335.57 4.54 331.95 4.55 326.71
  Q 4.55 324.72 6.56 319.86
  Q 25.25 274.61 44.29 229.50
  L 141.25 229.46
  L 397.46 229.25
  Z"
/>
<path fill="#e57e25" d="
  M 397.21 231.25
  Q 397.33 363.34 397.19 495.44
  Q 397.18 499.05 393.79 505.00
  Q 388.69 510.87 380.94 512.00
  L 51.44 512.00
  Q 40.30 510.01 36.73 500.92
  Q 35.23 497.10 35.25 487.90
  Q 35.38 411.67 35.08 335.47
  Q 193.57 335.53 352.25 335.43
  C 358.60 335.43 360.56 332.07 362.63 326.28
  Q 378.56 281.73 394.53 237.20
  C 395.25 235.17 395.40 233.10 397.21 231.25
  Z
  M 344.80 445.52
  Q 350.20 450.67 355.45 455.97
  C 363.88 464.48 376.35 452.40 367.42 443.33
  Q 359.39 435.16 351.21 427.17
  C 346.92 422.98 342.18 422.40 337.74 426.75
  C 333.18 431.20 319.51 442.69 318.13 448.34
  C 316.68 454.25 323.13 460.54 329.05 458.54
  C 333.54 457.02 340.08 449.08 343.92 445.51
  Q 344.37 445.10 344.80 445.52
  Z
  M 194.23 441.56
  A 9.06 9.06 0.0 0 0 185.17 432.50
  L 79.79 432.50
  A 9.06 9.06 0.0 0 0 70.73 441.56
  L 70.73 467.68
  A 9.06 9.06 0.0 0 0 79.79 476.74
  L 185.17 476.74
  A 9.06 9.06 0.0 0 0 194.23 467.68
  L 194.23 441.56
  Z
  M 370.46 476.37
  A 8.46 8.46 0.0 0 0 362.00 467.91
  L 326.50 467.91
  A 8.46 8.46 0.0 0 0 318.04 476.37
  L 318.04 477.01
  A 8.46 8.46 0.0 0 0 326.50 485.47
  L 362.00 485.47
  A 8.46 8.46 0.0 0 0 370.46 477.01
  L 370.46 476.37
  Z"
/>
<path fill="#d25627" d="
  M 343.92 445.51
  C 340.08 449.08 333.54 457.02 329.05 458.54
  C 323.13 460.54 316.68 454.25 318.13 448.34
  C 319.51 442.69 333.18 431.20 337.74 426.75
  C 342.18 422.40 346.92 422.98 351.21 427.17
  Q 359.39 435.16 367.42 443.33
  C 376.35 452.40 363.88 464.48 355.45 455.97
  Q 350.20 450.67 344.80 445.52
  Q 344.37 445.10 343.92 445.51
  Z"
/>
<rect fill="#ffffff" x="70.73" y="432.50" width="123.50" height="44.24" rx="9.06"/>
<rect fill="#d25627" x="318.04" y="467.91" width="52.42" height="17.56" rx="8.46"/>
</svg>
