<?xml version="1.0" encoding="UTF-8" standalone="no"?>
<svg style="transform-origin: 50% 50%; cursor: move; transition: none;" width="512" height="512" viewBox="0 0 5120 5120"
   version="1.1" id="svg12" sodipodi:docname="set.svg" inkscape:version="1.3 (0e150ed6c4, 2023-07-21)"
   xmlns:inkscape="http://www.inkscape.org/namespaces/inkscape"
   xmlns:sodipodi="http://sodipodi.sourceforge.net/DTD/sodipodi-0.dtd" xmlns="http://www.w3.org/2000/svg"
   xmlns:svg="http://www.w3.org/2000/svg">
   <defs id="defs12" />
   <sodipodi:namedview id="namedview12" pagecolor="#505050" bordercolor="#eeeeee" borderopacity="1"
      inkscape:showpageshadow="0" inkscape:pageopacity="0" inkscape:pagecheckerboard="0" inkscape:deskcolor="#505050"
      inkscape:zoom="1.1591797" inkscape:cx="348.52232" inkscape:cy="182.02527" inkscape:window-width="2560"
      inkscape:window-height="1340" inkscape:window-x="-12" inkscape:window-y="-12" inkscape:window-maximized="1"
      inkscape:current-layer="g11" />
   <g id="g11" transform="translate(603.87531,-86.267901)">
      <g id="g12" transform="translate(-302.8753,248.26884)">
         <path
            d="m 1081.0991,4382.8615 c -86.40269,-7.935 -217.7701,-37.9114 -295.35623,-67.0062 -88.16604,-33.5031 -193.9653,-90.811 -193.9653,-105.7993 0,-14.9882 10.57993,-14.9882 182.50372,6.1716 148.11896,18.5149 342.96591,-12.3432 510.48141,-79.3494 445.2385,-178.0954 747.6481,-617.1623 747.6481,-1084.4424 0,-301.5279 -126.0775,-597.7658 -348.2559,-819.0625 -41.438,-42.3198 -103.1543,-95.2194 -138.4207,-119.9059 -44.083,-30.8581 -62.5979,-49.373 -63.4796,-63.4795 0,-18.5149 1.7634,-18.5149 42.3197,-7.0533 188.6754,49.373 385.2857,167.5155 532.523,320.0427 68.7695,70.5329 172.8054,208.9536 195.7286,258.3266 4.4083,9.6982 6.1716,9.6982 10.5799,1.7633 17.6332,-39.6747 59.0713,31.7398 109.3259,189.557 37.0298,114.6158 52.8996,229.2317 52.8996,380.8773 0,203.6636 -29.9764,351.7825 -103.1542,514.0081 -29.9765,64.3612 -47.6097,81.9944 -59.0713,57.3079 -4.4083,-8.8166 -6.1716,-8.8166 -10.5799,0.8816 -22.9232,49.373 -126.9591,187.7937 -195.7286,258.3266 -202.7819,208.9535 -454.0552,329.741 -750.2931,359.7174 -99.6276,9.6983 -121.6691,9.6983 -225.7051,-0.8816 z"
            id="path1" style="fill:#68ca44;stroke-width:0.88166" />
         <path
            d="m 728.43494,4242.6775 c -29.09479,-4.4083 -70.53283,-9.6983 -91.69269,-12.3433 C 544.16791,4219.7543 321.10781,4025.789 210.01859,3858.2735 72.479554,3651.0833 9,3443.0114 9,3193.5015 9,2867.2871 128.02416,2581.6291 358.13755,2351.5158 586.48761,2122.284 873.02726,2003.2599 1196.5967,2002.3782 c 114.6158,0 270.6697,18.5149 305.9361,37.0297 92.5744,47.6097 253.0366,199.2553 340.321,321.8061 144.5923,203.6636 216.0068,432.0136 216.0068,691.2218 0,147.2373 -13.2249,235.4034 -53.7813,365.0075 -129.6041,413.4987 -485.7949,727.3698 -919.5719,812.0093 -89.04767,16.7515 -282.13132,23.8048 -357.07246,13.2249 z"
            id="path2" sodipodi:nodetypes="cccsccccsccc" style="fill:#80d261;stroke-width:0.88166" />
         <path
            d="m 3086.8767,2029.7097 c 0,-4.4083 4.4083,-8.8166 8.8166,-8.8166 3.8588,0 6.3389,-89.9614 7.6559,-265.3585 0.7893,-105.1238 1.1607,-240.9375 1.1607,-406.4668 0,-409.62611 -0.3438,-342.529 -4.6814,-406.4722 -2.6085,-38.45233 -6.6612,-44.73473 -12.9518,-55.32954 -9.6983,-15.86988 -29.9765,-36.14807 -45.8463,-45.84634 -28.2132,-16.75155 -45.8464,-17.63321 -782.9145,-17.63321 -737.0682,0 -754.7014,0.88166 -782.9145,17.63321 -15.8699,9.69827 -36.1481,29.97646 -45.8464,45.84634 -9.1848,14.98584 -13.5987,21.04342 -15.7122,64.87727 -3.3478,72.60507 -2.4967,25.50123 -1.4283,98.19327 2.6425,159.4288 19.4583,159.4288 126.4664,159.4288 127.8408,0 127.8408,0 146.3557,23.8049 10.5799,13.2249 17.6332,32.6214 15.8698,42.3197 -2.6449,9.6982 -107.5625,173.6871 -234.5216,364.1258 -230.9951,345.6109 -230.9951,345.6109 -266.2615,345.6109 -35.2664,0 -35.2664,0 -266.26147,-345.6109 -126.9591,-190.4387 -231.8767,-354.4276 -234.52168,-364.1258 -1.76332,-9.6983 5.28996,-29.0948 15.86989,-42.3197 18.51487,-23.8049 18.51487,-23.8049 145.47397,-23.8049 103.31399,0 121.96748,0 127.76108,-161.0662 1.81591,-78.38072 3.75375,-36.6641 7.83758,-114.93935 5.66763,-120.11324 18.00753,-154.72326 53.95833,-227.23418 69.6512,-138.4207 198.3736,-243.33829 354.4275,-286.53965 51.1363,-14.10657 122.5508,-14.98823 853.4474,-14.98823 885.1871,0 838.4591,-2.64498 967.1815,59.07125 82.8761,39.67472 199.2553,156.0539 238.93,238.92999 35.9159,74.43438 49.7056,84.43106 55.7022,238.52048 4.1604,106.90829 4.5695,63.17799 6.014,378.45349 0.6977,204.7678 1.6714,356.6734 3.085,465.8197 2.1591,166.7126 5.3445,233.6667 10.1399,236.8637 24.6865,14.9882 -9.6982,16.7515 -119.0241,7.0533 -90.8111,-8.8166 -136.6574,-8.8166 -202.7819,-1.7633 -104.036,13.2249 -130.4858,13.2249 -130.4858,1.7633 z"
            id="path4" style="fill:#01c0fa;stroke-width:0.88166"
            sodipodi:nodetypes="sssssccsccssscccscccsssccsccscscccs" />
         <path
            d="m 3201.4926,4383.7431 c -186.0304,-18.5148 -386.1673,-88.166 -535.1679,-187.7936 -95.2194,-63.4796 -73.1779,-70.5329 116.3791,-37.9114 254.7999,44.9646 558.9728,-25.5682 797.0211,-183.3854 331.5043,-221.2968 533.4046,-592.4759 531.6413,-979.5248 -0.8817,-299.7646 -124.3142,-584.5409 -352.6642,-814.6543 -65.2429,-66.1245 -98.746,-105.7992 -96.9827,-116.3792 2.645,-14.9882 6.1717,-14.1065 59.9529,4.4083 275.9598,97.8644 527.233,320.0428 661.2454,587.1859 87.2844,173.6871 125.1958,335.031 126.0774,528.9963 0.8817,328.8594 -115.4975,616.2807 -344.7292,849.039 -200.1369,201.9003 -450.5285,320.0428 -741.4765,350.0192 -98.7459,9.6983 -121.6691,9.6983 -221.2967,0 z"
            id="path6" style="fill:#feb237;stroke-width:0.88166" />
         <path
            d="m 2747.4374,4184.4879 c -38.793,-7.0533 -83.7577,-14.1066 -99.6276,-16.7516 -63.4796,-7.0533 -225.7051,-166.6338 -328.8594,-320.0427 -59.9529,-91.6927 -59.9529,-91.6927 -33.5031,-144.5923 149.8823,-296.238 150.764,-706.2101 3.5267,-1014.7912 -28.2132,-59.953 -28.2132,-59.953 33.5031,-154.2906 78.4678,-119.0242 208.9535,-250.3916 322.6877,-327.0961 138.4207,-91.6927 233.64,-134.0124 408.2088,-178.977 100.5093,-25.5682 119.0242,-28.2132 258.3265,-28.2132 134.8941,-0.8816 160.4622,1.7633 253.9182,23.8049 118.1425,29.0948 148.119,48.4913 260.9715,170.1604 147.2373,160.4622 245.9833,355.3092 292.7113,579.251 24.6865,117.2608 26.4498,316.5161 4.4083,438.1852 -89.9294,499.0198 -484.0316,889.5954 -983.0514,973.3532 -102.2726,17.6332 -296.2379,16.7515 -393.2206,0 z"
            id="path8" sodipodi:nodetypes="ccccccccccccccc" style="fill:#ffc344;stroke-width:0.88166" />
         <path
            d="m 648.20384,3882.0783 c -52.89963,-23.8048 -77.58612,-63.4795 -78.46778,-125.1958 0,-37.9114 4.4083,-57.3079 18.51487,-74.9411 28.21313,-38.7931 59.95291,-58.1896 101.39095,-62.5979 38.79306,-4.4083 38.79306,-4.4083 179.85874,-216.0068 77.58612,-116.3792 142.82898,-217.7701 143.71068,-224.8234 1.7633,-7.0533 -33.50312,-101.391 -78.46781,-209.8352 -81.99442,-196.6103 -81.99442,-196.6103 -158.69888,-200.137 -90.81103,-3.5266 -115.49752,-16.7515 -147.2373,-80.2311 -28.21314,-54.6629 -21.15985,-100.5092 22.04151,-148.1189 39.67472,-43.2014 71.4145,-52.018 196.61028,-52.018 187.7937,0 194.847,6.1716 287.4213,229.2317 38.7931,91.6927 72.2962,167.5155 74.9412,167.5155 2.6449,0 53.7812,-74.0594 114.6158,-163.9888 119.0242,-178.0954 145.474,-204.5452 230.1134,-223.9418 54.6629,-13.2249 171.0421,-7.0533 206.3085,11.4616 45.8464,23.8048 69.6512,66.1245 69.6512,122.5508 -0.8816,85.5211 -49.373,132.2491 -143.7106,139.3024 -59.0713,4.4083 -59.0713,4.4083 -127.8408,105.7992 -37.9114,55.5446 -102.2726,153.4089 -143.7107,216.8885 -74.9411,116.3792 -74.9411,116.3792 5.29,308.5812 82.8761,199.2552 90.811,215.1251 111.0892,215.1251 7.0533,0 51.1363,-39.6747 98.746,-87.2844 65.2429,-67.0062 93.456,-89.9293 119.9058,-96.9826 104.036,-27.3315 196.6103,57.3079 176.3321,162.2255 -7.0533,39.6747 -150.7639,202.7819 -217.7701,246.8649 -132.2491,87.2844 -298.0013,67.8879 -405.5638,-48.4913 -38.7931,-41.438 -54.663,-70.5328 -97.8643,-175.4504 -28.2132,-68.7695 -54.663,-122.5508 -58.1896,-118.1425 -3.5267,3.5266 -55.5446,80.2311 -115.4976,169.2788 -113.73416,170.1605 -143.71061,200.1369 -219.53341,221.2968 -49.37299,14.1065 -124.31413,9.6982 -163.98885,-7.935 z"
            id="path10" style="display:inline;fill:#ffffff;stroke-width:0.88166" />
         <path
            d="m 2704.9945,3882.0783 c -52.8997,-23.8048 -77.5862,-63.4795 -78.4678,-125.1958 0,-37.9114 4.4083,-57.3079 18.5148,-74.9411 28.2132,-38.7931 59.953,-58.1896 101.391,-62.5979 38.7931,-4.4083 38.7931,-4.4083 179.8587,-216.0068 77.5862,-116.3792 142.829,-217.7701 143.7107,-224.8234 1.7633,-7.0533 -33.5031,-101.391 -78.4678,-209.8352 -81.9944,-196.6103 -81.9944,-196.6103 -158.6989,-200.137 -90.811,-3.5266 -115.4975,-16.7515 -147.2373,-80.2311 -28.2131,-54.6629 -21.1598,-100.5092 22.0415,-148.1189 39.6748,-43.2014 71.4145,-52.018 196.6103,-52.018 187.7937,0 194.847,6.1716 287.4213,229.2317 38.7931,91.6927 72.2962,167.5155 74.9412,167.5155 2.645,0 53.7813,-74.0594 114.6158,-163.9888 119.0242,-178.0954 145.474,-204.5452 230.1134,-223.9418 54.663,-13.2249 171.0421,-7.0533 206.3086,11.4616 45.8463,23.8048 69.6511,66.1245 69.6511,122.5508 -0.8816,85.5211 -49.3729,132.2491 -143.7106,139.3024 -59.0713,4.4083 -59.0713,4.4083 -127.8408,105.7992 -37.9114,55.5446 -102.2726,153.4089 -143.7106,216.8885 -74.9412,116.3792 -74.9412,116.3792 5.2899,308.5812 82.8761,199.2552 90.8111,215.1251 111.0892,215.1251 7.0533,0 51.1364,-39.6747 98.746,-87.2844 65.2429,-67.0062 93.456,-89.9293 119.9058,-96.9826 104.036,-27.3315 196.6103,57.3079 176.3321,162.2255 -7.0533,39.6747 -150.7639,202.7819 -217.7701,246.8649 -132.2491,87.2844 -298.0012,67.8879 -405.5638,-48.4913 -38.7931,-41.438 -54.663,-70.5328 -97.8643,-175.4504 -28.2132,-68.7695 -54.663,-122.5508 -58.1896,-118.1425 -3.5267,3.5266 -55.5446,80.2311 -115.4975,169.2788 -113.7342,170.1605 -143.7107,200.1369 -219.5335,221.2968 -49.373,14.1065 -124.3141,9.6982 -163.9888,-7.935 z"
            id="path10-7" style="display:inline;fill:#ffffff;stroke-width:0.88166" />
      </g>
   </g>
</svg>