<svg xmlns="http://www.w3.org/2000/svg" viewBox="0 0 42.09 37.68"><defs><style>.cls-1{fill:#9bcb64;}.cls-2{fill:#313130;}.cls-3{fill:#72bcd4;}.cls-4{fill:#fff;}</style></defs><g id="Слой_2" data-name="Слой 2"><g id="Слой_1-2" data-name="Слой 1"><path class="cls-1" d="M10,37.59A11.11,11.11,0,0,1,7.26,37a5.3,5.3,0,0,1-1.82-1c0-.14.09-.14,1.7.06a10.42,10.42,0,0,0,4.79-.75,11.23,11.23,0,0,0,7-10.25,11,11,0,0,0-3.26-7.73,11.21,11.21,0,0,0-1.28-1.14c-.42-.29-.59-.46-.59-.6s0-.18.39-.06a10.8,10.8,0,0,1,5,3A12.62,12.62,0,0,1,21,21c.05.08.05.08.11,0,.14-.37.54.31,1,1.8a11.61,11.61,0,0,1,.48,3.61,11,11,0,0,1-1,4.84c-.29.63-.46.77-.54.54-.06-.08-.06-.08-.11,0a12.37,12.37,0,0,1-1.85,2.46,10.72,10.72,0,0,1-7,3.38,6.28,6.28,0,0,1-2.12,0Z"/><path class="cls-1" d="M6.72,36.27c-.29-.05-.65-.08-.85-.11-.88-.11-2.95-1.95-4-3.52A11,11,0,0,1,0,26.37a11,11,0,0,1,3.26-8,10.68,10.68,0,0,1,7.85-3.29,10.36,10.36,0,0,1,2.84.34,11.57,11.57,0,0,1,3.2,3,11.16,11.16,0,0,1,2,6.52,9.79,9.79,0,0,1-.51,3.47,11.27,11.27,0,0,1-8.59,7.67,16.55,16.55,0,0,1-3.34.11Z"/><path class="cls-2" d="M28.77,15.37s.06-.08.09-.08a22.09,22.09,0,0,0,.08-2.52V8.93c0-3.86,0-3.23,0-3.83,0-.38-.08-.43-.14-.52a1.67,1.67,0,0,0-.42-.46C28.09,4,27.92,4,21,4S14,4,13.69,4.12a2.32,2.32,0,0,0-.42.46c-.09.12-.12.17-.15.6a7.06,7.06,0,0,0,0,.92c0,1.52.17,1.52,1.17,1.52.34,0,1.67-.15,1.53.63,0,.08-1,1.63-2.19,3.43C11.45,15,11.45,15,11.14,15s-.34,0-2.49-3.27C7.46,9.88,6.46,8.33,6.43,8.25c-.11-.78,1.2-.63,1.54-.63,1,0,1.13,0,1.19-1.52,0-.75,0-.35.05-1.09a4.33,4.33,0,0,1,.51-2.15A5.39,5.39,0,0,1,13,.14C13.52,0,14.2,0,21,0c8.28,0,7.86,0,9,.57a5.84,5.84,0,0,1,2.23,2.26,3.83,3.83,0,0,1,.52,2.24c.05,1,.05.6.05,3.58,0,1.94,0,3.37,0,4.41A12.75,12.75,0,0,0,33,15.29c.23.14-.11.17-1.13.08a8.7,8.7,0,0,0-1.9,0c-1,.11-1.22.11-1.22,0Z"/><path class="cls-3" d="M29.85,37.59a11.29,11.29,0,0,1-5-1.77c-.91-.58-.71-.66,1.08-.35a10.51,10.51,0,0,0,7.45-1.74,11.17,11.17,0,0,0,5-9.25,10.93,10.93,0,0,0-3.29-7.7c-.59-.63-.93-1-.9-1.09s.05-.14.56,0a11.49,11.49,0,0,1,6.18,5.55,10.75,10.75,0,0,1,1.19,5,11.12,11.12,0,0,1-3.23,8,10.9,10.9,0,0,1-6.94,3.29,6,6,0,0,1-2.07,0Z"/><path class="cls-3" d="M25.6,35.73c-.34-.09-.77-.14-.94-.17-.59-.06-2.1-1.58-3.06-3-.57-.88-.57-.88-.31-1.37a11.55,11.55,0,0,0,0-9.59c-.26-.58-.26-.58.31-1.46a11.88,11.88,0,0,1,3-3.09,11,11,0,0,1,3.8-1.69,7.46,7.46,0,0,1,2.44-.26,6.31,6.31,0,0,1,2.35.23,3.75,3.75,0,0,1,2.44,1.6,11.29,11.29,0,0,1,2.75,5.47,12.94,12.94,0,0,1,0,4.12,11.3,11.3,0,0,1-9.19,9.22,16.17,16.17,0,0,1-3.68,0Z"/><path class="cls-4" d="M6,32.87a1.16,1.16,0,0,1-.74-1.18A1,1,0,0,1,5.41,31a1.32,1.32,0,0,1,.94-.6c.37,0,.37,0,1.7-2,.71-1.11,1.33-2.06,1.33-2.11a13,13,0,0,0-.73-2c-.77-1.83-.77-1.83-1.48-1.89s-1.08-.14-1.39-.74A1.16,1.16,0,0,1,6,20.18c.37-.4.68-.48,1.84-.48,1.76,0,1.85.05,2.7,2.17.37.86.68,1.58.71,1.58s.51-.72,1.07-1.55c1.11-1.69,1.36-1.94,2.16-2.12a3.58,3.58,0,0,1,1.92.12A1.17,1.17,0,0,1,17,21a1.28,1.28,0,0,1-1.36,1.32c-.54,0-.54,0-1.19,1-.35.52-1,1.46-1.34,2-.71,1.11-.71,1.11,0,2.92s.85,2,1.05,2a5.71,5.71,0,0,0,.94-.83,3.19,3.19,0,0,1,1.1-.92,1.3,1.3,0,0,1,1.64,1.55,7.51,7.51,0,0,1-2,2.32A2.85,2.85,0,0,1,12.1,32a4.61,4.61,0,0,1-.93-1.63,3.92,3.92,0,0,0-.54-1.12s-.51.74-1.08,1.57c-1.05,1.64-1.33,1.92-2,2.09A2.47,2.47,0,0,1,6,32.87Z"/><path class="cls-4" d="M25.2,32.87a1.25,1.25,0,0,1-.74-1.18,1,1,0,0,1,.2-.71,1.26,1.26,0,0,1,.94-.6c.37,0,.37,0,1.67-2,.74-1.11,1.33-2.06,1.36-2.11a16.91,16.91,0,0,0-.74-2c-.76-1.83-.76-1.83-1.5-1.89s-1.08-.14-1.36-.74a1.15,1.15,0,0,1,.2-1.41c.37-.4.68-.48,1.84-.48,1.76,0,1.82.05,2.69,2.17.37.86.68,1.58.71,1.58s.48-.72,1.05-1.55c1.14-1.69,1.36-1.94,2.16-2.12a3.56,3.56,0,0,1,1.92.12A1.12,1.12,0,0,1,36.26,21c0,.8-.46,1.26-1.34,1.32-.54,0-.54,0-1.19,1-.37.52-1,1.46-1.36,2-.68,1.11-.68,1.11.06,2.92s.85,2,1,2a5,5,0,0,0,.9-.83c.63-.63.88-.83,1.14-.92a1.31,1.31,0,0,1,1.64,1.55,7.8,7.8,0,0,1-2,2.32,2.86,2.86,0,0,1-3.8-.46,4.51,4.51,0,0,1-.9-1.63,3.92,3.92,0,0,0-.54-1.12s-.51.74-1.08,1.57c-1.08,1.64-1.36,1.92-2.07,2.09a2.48,2.48,0,0,1-1.53-.05Z"/></g></g></svg>