<?xml version="1.0" encoding="UTF-8"?>
<svg id="_Слой_2" data-name="Слой 2" xmlns="http://www.w3.org/2000/svg" viewBox="0 0 19.38 37.79">
  <defs>
    <style>
      .cls-1 {
        fill: #fff;
      }

      .cls-1, .cls-2, .cls-3, .cls-4 {
        fill-rule: evenodd;
      }

      .cls-2 {
        fill: #82c9e8;
      }

      .cls-3 {
        fill: #72c0ea;
      }

      .cls-4 {
        fill: #a8acb3;
      }
    </style>
  </defs>
  <g id="_132" data-name="132">
    <g>
      <g>
        <path class="cls-4" d="m14.69,33.85v2.47H6.51v-2.27c0-.55-1.1-1.8-1.48-2.3-.93-1.28-1.76-2.63-1.76-4.58v-4.94c0-1.03,1.73-1.39,1.73.28v3.74c0,.47-.05,1.19.8,1.19.27,0,.49-.17.6-.39.22-.39.11-2.55.11-3.08v-10.62c0-.86-.03-1.39.99-1.39.96,0,.74,1.61.74,2.19v5.93c0,1.55-.27,2.36.91,2.36.38,0,.58-.5.6-.94.08-1.8-.44-3.74.85-3.72.38,0,.74.33.85.67.27,1.08-.52,3.99.69,3.99,1.87,0-.14-3.83,1.56-3.83,1.48,0,.85,1.5.99,3.16.08.8,1.21.86,1.43.22.16-.53-.14-1.44.19-1.94.49-.8,1.62-.42,1.62.58v5.93c0,1.64-.44,3.13-1.1,4.16l-1.92,2.63c-.11.14-.22.22-.22.47h0ZM1.76,25.25v1.58c0,3.3,1.4,4.85,3.07,7.1.19.28.16.33.16.78,0,.47-.11,2.33.11,2.69.11.22.27.39.55.39h9.83c.25,0,.44-.17.55-.33.16-.22.11-.44.11-.8,0-.44-.08-2.25.11-2.58l1.15-1.55c1.1-1.47,1.98-3.24,1.98-5.27v-6.88c0-1.36-1.4-2.5-2.88-2.16-.25.06-.33.14-.6.17-.69-1.28-2.06-1.61-3.32-.94-.47-.89-1.24-1.14-2.22-1.14-.3,0-.36.08-.6.14,0-.92.08-3.6-.14-4.33-.71-2.33-4.09-2.27-4.61.47-.05.67,0,1.39,0,2.66v4.74c-.6-.06-1.48-.47-2.5.53-.22.22-.36.39-.49.67-.44.92-.27,3.02-.25,4.08h0Z"/>
        <path class="cls-1" d="m14.69,33.85v2.47H6.51v-2.27c0-.55-1.1-1.8-1.48-2.3-.93-1.28-1.76-2.63-1.76-4.58v-4.94c0-1.03,1.73-1.39,1.73.28v3.74c0,.47-.05,1.19.8,1.19.27,0,.49-.17.6-.39.22-.39.11-2.55.11-3.08v-10.62c0-.86-.03-1.39.99-1.39.96,0,.74,1.61.74,2.19v5.93c0,1.55-.27,2.36.91,2.36.38,0,.58-.5.6-.94.08-1.8-.44-3.74.85-3.72.38,0,.74.33.82.67.3,1.08-.49,3.99.71,3.99,1.87,0-.14-3.83,1.56-3.83,1.48,0,.85,1.5.99,3.16.08.8,1.21.86,1.43.22.16-.53-.14-1.44.19-1.94.49-.8,1.62-.42,1.62.58v5.93c0,1.64-.44,3.13-1.1,4.16l-1.92,2.63c-.11.14-.22.22-.22.47h0Z"/>
      </g>
      <g>
        <path class="cls-2" d="m5.66,1.33c0,.4.17,1.45.25,1.9.07.53.65,4.89.74,5.11.12.2.82.6.94-.43l.4-2.81c.07-.53.52-3.31.52-3.78,0-.63-.67-1.33-1.27-1.33h-.32c-.6,0-1.27.7-1.27,1.33h0Z"/>
        <path class="cls-3" d="m0,5.21c0,.9.35,1.08,1.14,1.8l.6.53c.15.1.17.15.3.28.12.1.17.1.27.23.12.1.15.15.3.28l1.17,1.05c.4.38.5.45.84.45.1,0,.52-.25.3-.75l-.42-.8c-.35-.68-1.89-3.66-2.23-3.96-.87-.85-2.26-.1-2.26.9h0Z"/>
        <path class="cls-3" d="m9.55,9.82c.3,0,.32,0,.5-.18l2.9-2.58c.47-.38,1.22-1,1.22-1.6,0-.43-.02-.65-.3-1-.52-.6-1.34-.7-1.91-.2-.3.25-.35.4-.52.75-.15.25-.3.5-.45.78l-.65,1.23c-.1.15-.12.25-.22.4l-.87,1.63c-.25.53.2.78.3.78h0Z"/>
      </g>
    </g>
  </g>
</svg>