<!-- icon666.com - MILLIONS vector ICONS FREE --><svg enable-background="new 0 0 32 32" viewBox="0 0 32 32" xmlns="http://www.w3.org/2000/svg"><g id="_x31_0"><path d="m7 21c-2.7568 0-5-2.2432-5-5s2.2432-5 5-5 5 2.2432 5 5-2.2432 5-5 5zm0-8c-1.6543 0-3 1.3457-3 3s1.3457 3 3 3 3-1.3457 3-3-1.3457-3-3-3z"></path><path d="m10 17h-6c-.5527 0-1-.4478-1-1s.4473-1 1-1h6c.5527 0 1 .4478 1 1s-.4473 1-1 1z"></path><path d="m25 21c-2.7568 0-5-2.2432-5-5s2.2432-5 5-5 5 2.2432 5 5-2.2432 5-5 5zm0-8c-1.6543 0-3 1.3457-3 3s1.3457 3 3 3 3-1.3457 3-3-1.3457-3-3-3z"></path><path d="m28 17h-6c-.5527 0-1-.4478-1-1s.4473-1 1-1h6c.5527 0 1 .4478 1 1s-.4473 1-1 1z"></path><path d="m21.001 11c-.3154 0-.625-.1484-.8203-.4263l-.418-.5967c-.8799-1.2563-2.252-1.977-3.7627-1.977s-2.8828.7207-3.7627 1.9771l-.418.5967c-.3184.4521-.9424.5635-1.3926.2451-.4531-.3169-.5625-.9404-.2461-1.3926l.418-.5967c1.2608-1.7983 3.2295-2.8296 5.4014-2.8296s4.1406 1.0313 5.4014 2.8296l.418.5967c.3164.4521.207 1.0757-.2461 1.3926-.1739.1225-.3741.1811-.5723.1811z"></path><path d="m21 11h-2c-.5527 0-1-.4478-1-1s.4473-1 1-1h1v-1c0-.5522.4473-1 1-1s1 .4478 1 1v2c0 .5522-.4473 1-1 1z"></path><path d="m16 26c-2.1719 0-4.1406-1.0313-5.4014-2.8296l-.418-.5967c-.3164-.4521-.207-1.0757.2461-1.3926.4502-.3174 1.0742-.207 1.3926.2451l.418.5967c.8799 1.2564 2.252 1.9771 3.7627 1.9771s2.8828-.7207 3.7627-1.9771l.418-.5967c.3174-.4521.9414-.5625 1.3926-.2451.4531.3169.5625.9404.2461 1.3926l-.418.5967c-1.2608 1.7984-3.2295 2.8296-5.4014 2.8296z"></path><path d="m11 25c-.5527 0-1-.4478-1-1v-2c0-.5522.4473-1 1-1h2c.5527 0 1 .4478 1 1s-.4473 1-1 1h-1v1c0 .5522-.4473 1-1 1z"></path></g></svg>