<?xml version="1.0" encoding="UTF-8"?>
<svg id="_Слой_2" data-name="Слой 2" xmlns="http://www.w3.org/2000/svg" viewBox="0 0 37.49 37.87">
  <defs>
    <style>
      .cls-1 {
        fill: #fff;
      }

      .cls-2 {
        fill: none;
        stroke: #fff;
        stroke-linecap: round;
        stroke-linejoin: round;
        stroke-width: 1.9px;
      }

      .cls-3 {
        fill: #9bc765;
      }
    </style>
  </defs>
  <g id="valueSigned">
    <path class="cls-3" d="m23.97.76c7.77,2.27,13.12,9.22,13.52,17.37v1.65c-.29,5.03-2.2,9.28-5.68,12.74-3.32,3.3-7.66,5.11-12.32,5.36h-1.5c-2.76-.11-5.36-.81-7.77-2.06C4.07,32.57.21,26.43,0,19.39v-.84C.27,8.39,8.22.32,18.26,0h.91c1.63.05,3.24.3,4.79.76h0Z"/>
    <g>
      <path class="cls-1" d="m20.18,23.97c-.51.73-1.5,1.08-2.36.84-1.18-.35-1.1-2.11.13-2.3.11-.03.21-.03.32-.03.03,0,.05-.03.08-.05l2.38-3.6v-.05l-1.34-3.25c-.03-.08-.08-.11-.16-.11-.4,0-.86.03-1.21-.11-.96-.43-.88-1.84.11-2.19.13-.05.37-.08.7-.08h1.34c.56,0,.88.41,1.12.95.29.73.59,1.43.88,2.14.03.08.08.11.16.11.05,0,.11-.03.13-.08.46-.65.88-1.33,1.34-1.97.54-.81.96-1.11,1.96-1.14.27,0,.59-.03.83.05,1.29.32,1.15,2.19-.21,2.3-.16.03-.35.03-.51.03-.05,0-.11.03-.13.05l-2.3,3.52c-.03.05-.03.11-.03.16.43,1.03.88,2.08,1.31,3.14.11.27.37.19.56.03.29-.32.59-.65.91-.97.16-.16.29-.27.4-.32.94-.49,1.96.43,1.66,1.38-.05.16-.21.38-.43.65-1.02,1.08-1.93,2.16-3.59,1.68-1.42-.38-1.79-1.73-2.28-2.98t-.03-.05c-.08-.08-.19-.08-.27-.03,0,.03-.03.03-.03.05-.51.73-.99,1.49-1.47,2.25h0Z"/>
      <g>
        <polyline class="cls-2" points="7.9 17.7 10.82 17.7 13.74 17.7"/>
        <polyline class="cls-2" points="10.82 20.62 10.82 17.7 10.82 14.79"/>
        <polyline class="cls-2" points="7.8 23.13 10.72 23.13 13.64 23.13"/>
      </g>
    </g>
  </g>
</svg>