<?xml version="1.0" encoding="UTF-8" standalone="no"?>
<!DOCTYPE svg PUBLIC "-//W3C//DTD SVG 1.1//EN" "http://www.w3.org/Graphics/SVG/1.1/DTD/svg11.dtd">
<svg xmlns="http://www.w3.org/2000/svg" version="1.1" viewBox="0.00 0.00 512.00 512.00">
<g stroke-width="2.00" fill="none" stroke-linecap="butt">
<path stroke="#74ce53" vector-effect="non-scaling-stroke" d="
  M 327.51 10.03
  L 327.77 10.87
  Q 327.92 11.33 328.35 11.53
  Q 330.26 12.39 332.06 13.45
  Q 403.45 55.40 437.70 129.87
  C 479.48 220.74 462.51 330.38 396.43 404.69
  C 332.45 476.65 237.43 505.90 143.41 484.12
  C 142.20 483.84 140.93 482.44 139.75 484.21"
/>
<path stroke="#c0e9b0" vector-effect="non-scaling-stroke" d="
  M 157.90 148.04
  C 162.23 135.31 149.55 122.77 136.97 128.12
  Q 133.28 129.68 128.32 134.96
  C 99.58 165.54 81.86 205.49 80.35 247.74
  Q 77.63 324.40 131.15 379.87
  C 143.62 392.80 164.48 379.25 157.55 362.91
  C 156.04 359.36 153.20 356.84 150.29 353.71
  C 101.12 300.74 99.24 218.64 146.01 163.48
  C 149.81 159.00 156.12 153.24 157.90 148.04"
/>
<path stroke="#c0e9b0" vector-effect="non-scaling-stroke" d="
  M 354.29 363.42
  C 349.39 375.62 361.47 388.71 374.08 384.28
  C 379.21 382.48 382.83 378.08 386.60 373.85
  C 448.98 303.98 446.62 198.82 380.98 132.02
  C 366.33 117.10 343.38 137.03 357.90 154.19
  Q 360.34 157.07 362.86 159.87
  C 414.14 216.77 411.45 300.87 359.32 356.30
  Q 355.53 360.33 354.29 363.42"
/>
<path stroke="#c0e9b0" vector-effect="non-scaling-stroke" d="
  M 190.32 335.07
  C 201.89 338.39 215.56 333.82 222.28 323.75
  Q 232.34 308.68 242.44 293.42
  A 2.47 2.46 -39.3 0 1 246.78 293.85
  C 253.57 310.60 258.70 328.88 277.99 334.29
  C 300.72 340.66 313.28 326.23 326.95 311.29
  Q 331.62 306.18 332.73 302.77
  C 336.92 289.79 322.86 277.55 310.33 283.94
  Q 307.88 285.19 304.56 288.59
  Q 298.34 294.96 292.20 301.42
  C 289.86 303.89 286.13 305.00 284.54 301.20
  Q 275.59 279.83 266.85 258.71
  A 2.30 2.29 -39.6 0 1 267.06 256.54
  L 298.63 209.18
  A 2.09 2.08 17.3 0 1 300.40 208.26
  Q 303.67 208.32 307.42 208.01
  C 325.87 206.49 327.87 181.14 310.37 176.75
  C 307.02 175.91 302.48 176.23 298.70 176.26
  C 285.33 176.36 279.44 180.44 272.05 191.39
  Q 262.91 204.91 254.05 218.32
  A 2.41 2.41 0.0 0 1 249.81 217.91
  Q 243.94 203.74 237.71 189.00
  C 234.62 181.66 230.25 176.25 222.26 176.25
  Q 213.20 176.25 204.15 176.25
  Q 197.45 176.25 194.50 177.32
  C 181.06 182.16 180.12 200.85 193.13 206.70
  C 197.79 208.80 204.00 208.37 209.48 208.21
  Q 211.09 208.16 211.70 209.64
  L 230.01 253.64
  Q 230.19 254.09 229.93 254.49
  L 197.51 303.11
  Q 197.17 303.62 196.56 303.64
  Q 194.31 303.73 192.10 304.07
  C 175.11 306.75 174.03 330.40 190.32 335.07"
/>
</g>
<path fill="#80d261" d="
  M 249.59 0.00
  L 262.05 0.00
  Q 295.40 1.07 327.51 10.03
  L 327.77 10.87
  Q 327.92 11.33 328.35 11.53
  Q 330.26 12.39 332.06 13.45
  Q 403.45 55.40 437.70 129.87
  C 479.48 220.74 462.51 330.38 396.43 404.69
  C 332.45 476.65 237.43 505.90 143.41 484.12
  C 142.20 483.84 140.93 482.44 139.75 484.21
  C 55.54 440.29 2.96 357.08 0.00 261.93
  L 0.00 250.71
  C 3.60 113.31 112.26 4.33 249.59 0.00
  Z
  M 157.90 148.04
  C 162.23 135.31 149.55 122.77 136.97 128.12
  Q 133.28 129.68 128.32 134.96
  C 99.58 165.54 81.86 205.49 80.35 247.74
  Q 77.63 324.40 131.15 379.87
  C 143.62 392.80 164.48 379.25 157.55 362.91
  C 156.04 359.36 153.20 356.84 150.29 353.71
  C 101.12 300.74 99.24 218.64 146.01 163.48
  C 149.81 159.00 156.12 153.24 157.90 148.04
  Z
  M 354.29 363.42
  C 349.39 375.62 361.47 388.71 374.08 384.28
  C 379.21 382.48 382.83 378.08 386.60 373.85
  C 448.98 303.98 446.62 198.82 380.98 132.02
  C 366.33 117.10 343.38 137.03 357.90 154.19
  Q 360.34 157.07 362.86 159.87
  C 414.14 216.77 411.45 300.87 359.32 356.30
  Q 355.53 360.33 354.29 363.42
  Z
  M 190.32 335.07
  C 201.89 338.39 215.56 333.82 222.28 323.75
  Q 232.34 308.68 242.44 293.42
  A 2.47 2.46 -39.3 0 1 246.78 293.85
  C 253.57 310.60 258.70 328.88 277.99 334.29
  C 300.72 340.66 313.28 326.23 326.95 311.29
  Q 331.62 306.18 332.73 302.77
  C 336.92 289.79 322.86 277.55 310.33 283.94
  Q 307.88 285.19 304.56 288.59
  Q 298.34 294.96 292.20 301.42
  C 289.86 303.89 286.13 305.00 284.54 301.20
  Q 275.59 279.83 266.85 258.71
  A 2.30 2.29 -39.6 0 1 267.06 256.54
  L 298.63 209.18
  A 2.09 2.08 17.3 0 1 300.40 208.26
  Q 303.67 208.32 307.42 208.01
  C 325.87 206.49 327.87 181.14 310.37 176.75
  C 307.02 175.91 302.48 176.23 298.70 176.26
  C 285.33 176.36 279.44 180.44 272.05 191.39
  Q 262.91 204.91 254.05 218.32
  A 2.41 2.41 0.0 0 1 249.81 217.91
  Q 243.94 203.74 237.71 189.00
  C 234.62 181.66 230.25 176.25 222.26 176.25
  Q 213.20 176.25 204.15 176.25
  Q 197.45 176.25 194.50 177.32
  C 181.06 182.16 180.12 200.85 193.13 206.70
  C 197.79 208.80 204.00 208.37 209.48 208.21
  Q 211.09 208.16 211.70 209.64
  L 230.01 253.64
  Q 230.19 254.09 229.93 254.49
  L 197.51 303.11
  Q 197.17 303.62 196.56 303.64
  Q 194.31 303.73 192.10 304.07
  C 175.11 306.75 174.03 330.40 190.32 335.07
  Z"
/>
<path fill="#68ca44" d="
  M 327.51 10.03
  C 433.32 40.97 506.46 134.91 512.00 244.83
  L 512.00 267.09
  Q 505.92 369.31 434.44 439.55
  C 389.17 484.03 330.11 508.74 266.44 512.00
  L 245.72 512.00
  Q 189.42 509.46 139.75 484.21
  C 140.93 482.44 142.20 483.84 143.41 484.12
  C 237.43 505.90 332.45 476.65 396.43 404.69
  C 462.51 330.38 479.48 220.74 437.70 129.87
  Q 403.45 55.40 332.06 13.45
  Q 330.26 12.39 328.35 11.53
  Q 327.92 11.33 327.77 10.87
  L 327.51 10.03
  Z"
/>
<path fill="#ffffff" d="
  M 136.97 128.12
  C 149.55 122.77 162.23 135.31 157.90 148.04
  C 156.12 153.24 149.81 159.00 146.01 163.48
  C 99.24 218.64 101.12 300.74 150.29 353.71
  C 153.20 356.84 156.04 359.36 157.55 362.91
  C 164.48 379.25 143.62 392.80 131.15 379.87
  Q 77.63 324.40 80.35 247.74
  C 81.86 205.49 99.58 165.54 128.32 134.96
  Q 133.28 129.68 136.97 128.12
  Z"
/>
<path fill="#ffffff" d="
  M 374.08 384.28
  C 361.47 388.71 349.39 375.62 354.29 363.42
  Q 355.53 360.33 359.32 356.30
  C 411.45 300.87 414.14 216.77 362.86 159.87
  Q 360.34 157.07 357.90 154.19
  C 343.38 137.03 366.33 117.10 380.98 132.02
  C 446.62 198.82 448.98 303.98 386.60 373.85
  C 382.83 378.08 379.21 382.48 374.08 384.28
  Z"
/>
<path fill="#ffffff" d="
  M 222.28 323.75
  C 215.56 333.82 201.89 338.39 190.32 335.07
  C 174.03 330.40 175.11 306.75 192.10 304.07
  Q 194.31 303.73 196.56 303.64
  Q 197.17 303.62 197.51 303.11
  L 229.93 254.49
  Q 230.19 254.09 230.01 253.64
  L 211.70 209.64
  Q 211.09 208.16 209.48 208.21
  C 204.00 208.37 197.79 208.80 193.13 206.70
  C 180.12 200.85 181.06 182.16 194.50 177.32
  Q 197.45 176.25 204.15 176.25
  Q 213.20 176.25 222.26 176.25
  C 230.25 176.25 234.62 181.66 237.71 189.00
  Q 243.94 203.74 249.81 217.91
  A 2.41 2.41 0.0 0 0 254.05 218.32
  Q 262.91 204.91 272.05 191.39
  C 279.44 180.44 285.33 176.36 298.70 176.26
  C 302.48 176.23 307.02 175.91 310.37 176.75
  C 327.87 181.14 325.87 206.49 307.42 208.01
  Q 303.67 208.32 300.40 208.26
  A 2.09 2.08 17.3 0 0 298.63 209.18
  L 267.06 256.54
  A 2.30 2.29 -39.6 0 0 266.85 258.71
  Q 275.59 279.83 284.54 301.20
  C 286.13 305.00 289.86 303.89 292.20 301.42
  Q 298.34 294.96 304.56 288.59
  Q 307.88 285.19 310.33 283.94
  C 322.86 277.55 336.92 289.79 332.73 302.77
  Q 331.62 306.18 326.95 311.29
  C 313.28 326.23 300.72 340.66 277.99 334.29
  C 258.70 328.88 253.57 310.60 246.78 293.85
  A 2.47 2.46 -39.3 0 0 242.44 293.42
  Q 232.34 308.68 222.28 323.75
  Z"
/>
</svg>
