<?xml version="1.0" encoding="UTF-8"?>
<svg id="_Слой_2" data-name="Слой 2" xmlns="http://www.w3.org/2000/svg" viewBox="0 0 500.38 512.32">
  <defs>
    <style>
      .cls-1, .cls-2, .cls-3, .cls-4 {
        fill-rule: evenodd;
      }

      .cls-1, .cls-5, .cls-6 {
        fill: #fff;
      }

      .cls-2, .cls-7 {
        fill: #f6c340;
      }

      .cls-3 {
        fill: #e5716a;
      }

      .cls-5 {
        stroke-width: 11.44px;
      }

      .cls-5, .cls-6, .cls-8 {
        stroke: #796a65;
        stroke-miterlimit: 10;
      }

      .cls-6 {
        stroke-width: 11.44px;
      }

      .cls-4, .cls-8 {
        fill: #796a65;
      }

      .cls-8 {
        stroke-width: 5.12px;
      }
    </style>
  </defs>
  <g id="_Слой_1-2" data-name="Слой 1">
    <g id="alarmGet">
      <g id="_Слой_3" data-name="Слой 3">
        <g id="_Слой_2-2" data-name="Слой 2">
          <path class="cls-3" d="m244.48,114.32c89.9,0,162.7,72.9,162.7,162.7s-72.9,162.7-162.7,162.7-162.7-72.9-162.7-162.7c0-89.9,72.8-162.7,162.7-162.7h0Z"/>
          <path class="cls-1" d="m244.48,216.82c16.6,0,31.7,6.8,42.6,17.6s17.6,26,17.6,42.6-6.7,31.7-17.6,42.6-26,17.6-42.6,17.6-31.7-6.8-42.6-17.6c-10.9-10.9-17.6-26-17.6-42.6s6.7-31.7,17.6-42.6c10.9-10.9,26-17.6,42.6-17.6h0Z"/>
          <path class="cls-3" d="m268.18,253.32c-6.3-6.3-14.8-9.8-23.7-9.8s-17.7,3.8-23.7,9.8c-6.1,6.1-9.8,14.5-9.8,23.7s3.8,17.7,9.8,23.7,14.5,9.8,23.7,9.8,17.7-3.8,23.7-9.8,9.8-14.5,9.8-23.7-3.7-17.6-9.8-23.7Z"/>
        </g>
        <g id="_Слой_1-3" data-name="Слой 1" image-rendering="optimizeQuality" shape-rendering="geometricPrecision" text-rendering="geometricPrecision">
          <path class="cls-2" d="m31.78,133.52c-5,8.1-15.5,10.6-23.6,5.6s-10.6-15.6-5.6-23.6c15.8-25.7,35.9-48.6,59.4-67.6C85.28,29.02,111.68,14.02,140.28,3.72c8.9-3.2,18.8,1.5,22,10.4,3.2,8.9-1.5,18.8-10.4,22-24.8,8.9-47.9,21.9-68.3,38.4-20.5,16.6-38,36.6-51.8,59h0Zm290-40.3c-8.9-3.3-13.5-13.2-10.2-22.1s13.1-13.5,22-10.2c23.8,8.8,45.8,21.5,65.2,37.4,19.5,16,36.2,35.2,49.4,56.8,4.9,8.1,2.4,18.7-5.7,23.6s-18.7,2.4-23.6-5.7c-11.2-18.3-25.4-34.5-41.9-48.2-16.5-13.5-35.1-24.2-55.2-31.6h0Z"/>
          <path class="cls-7" d="m349.48,33.32c-8.9-3.2-13.5-13.1-10.3-22s13.1-13.5,22-10.3c28.5,10.4,54.8,25.6,77.8,44.5,23.2,19.1,43.2,42,58.9,67.8,4.9,8.1,2.4,18.7-5.7,23.6-8.1,4.9-18.7,2.4-23.6-5.7-13.7-22.4-31-42.4-51.3-59.1s-43.2-29.8-67.8-38.8h0ZM81.38,174.62c-4.9,8.1-15.5,10.8-23.6,5.9-8.1-4.9-10.8-15.5-5.8-23.6,13-21.6,29.6-40.9,49-57,19.2-16,41.1-28.8,64.8-37.8,8.9-3.3,18.8,1.1,22.1,10,3.3,8.9-1.1,18.8-10,22.1-20,7.5-38.6,18.3-55,32-16.3,13.6-30.4,29.9-41.5,48.4Z"/>
          <path class="cls-4" d="m420.18,492.82c0,10.7-8.8,19.5-19.5,19.5H101.18c-10.7,0-19.5-8.8-19.5-19.5v-71.8c.1-10.7,23.8-20,31.1-12.2h0c75.5,80.2,196.1,78.7,273.8-.4,7.5-7.6,33.6,1.9,33.6,12.6"/>
        </g>
      </g>
      <g id="_Слой_4" data-name="Слой 4">
        <g>
          <path class="cls-5" d="m295.68,176.22c-4.5-4.7-4.5-12,.1-16.6,14.2-14.4,47.7-42.2,93.8-41.7,0,0,39.8-1.1,82.1,42.3,4.3,4.5,4.8,11.4.7,16.1-11.6,13.3-38.5,38.5-80.2,43.9-.5.1-.9.1-1.3.1-6.3.2-52.3.6-95.2-44.1Z"/>
          <circle class="cls-6" cx="384.58" cy="167.92" r="43.3"/>
          <circle class="cls-8" cx="384.58" cy="167.92" r="19.4"/>
        </g>
      </g>
    </g>
  </g>
</svg>