<svg xmlns="http://www.w3.org/2000/svg" viewBox="0 0 39.69 40.08"><defs><style>.cls-1{fill:#47b6b1;}</style></defs><g id="Слой_2" data-name="Слой 2"><g id="Слой_1-2" data-name="Слой 1"><path class="cls-1" d="M32.26,5.61a2.8,2.8,0,0,1,1.16.12.87.87,0,0,1,.4.25,2,2,0,0,1,.28.35c.09.17.09,1.23.11,13.63,0,9.24,0,13.54-.05,13.68a1.38,1.38,0,0,1-.26.49,1.89,1.89,0,0,1-.42.31c-.23.12-.43.12-1.19.12l-25.69,0a.56.56,0,0,1-.31-.09l-.11-.08a1.77,1.77,0,0,1-.48-.52.52.52,0,0,1-.12-.34l0-13.29q0-12.45,0-13.57c0-.08,0-.14.06-.23s.14-.23.2-.31a1.8,1.8,0,0,1,.45-.35l.14-.08a.82.82,0,0,1,.26-.06H32.26ZM2.78.57A6.77,6.77,0,0,1,4.08.11,15.17,15.17,0,0,1,6.72,0c1.93,0,2,0,2.38.2a2.55,2.55,0,0,1,.54.43,3.07,3.07,0,0,1,.31.66,1.36,1.36,0,0,1,0,.8,2.74,2.74,0,0,1-.34.66,2.19,2.19,0,0,1-.54.46c-.31.14-.48.17-2.44.2a7.07,7.07,0,0,0-2.35.2A1.1,1.1,0,0,0,3.86,4a4.41,4.41,0,0,0-.29.4A10.65,10.65,0,0,0,3.43,6.7c-.06,2-.06,2.15-.23,2.46a1.68,1.68,0,0,1-.45.55,2.21,2.21,0,0,1-.65.34,1.13,1.13,0,0,1-.77,0,2,2,0,0,1-.65-.32,2.69,2.69,0,0,1-.45-.54C.06,8.85.06,8.7,0,6.9A16,16,0,0,1,.11,4.24,5.39,5.39,0,0,1,.57,2.78,5,5,0,0,1,1.5,1.52,4.63,4.63,0,0,1,2.78.57ZM15.42.46A2.87,2.87,0,0,1,16,.11,24.77,24.77,0,0,1,19.81,0a24.65,24.65,0,0,1,3.8.11,1.3,1.3,0,0,1,.68.41,1.86,1.86,0,0,1,.37.57,1.67,1.67,0,0,1,.14.69,1.58,1.58,0,0,1-.14.65,2,2,0,0,1-.45.58,2.44,2.44,0,0,1-.6.37c-.2,0-1.73.06-3.77.06s-3.57,0-3.74-.06A2.54,2.54,0,0,1,15.48,3a2.13,2.13,0,0,1-.43-.58,1.49,1.49,0,0,1-.17-.71A1.53,1.53,0,0,1,15.05,1a4.27,4.27,0,0,1,.37-.54ZM30.5.26,31,.06C31.1,0,32,0,33.05,0a17.19,17.19,0,0,1,2.52.11,7.36,7.36,0,0,1,1.37.46,4.32,4.32,0,0,1,1.24,1,4.37,4.37,0,0,1,.94,1.26,5.37,5.37,0,0,1,.45,1.46,13.71,13.71,0,0,1,.12,2.66c0,1.8-.06,1.95-.23,2.26a1.75,1.75,0,0,1-.46.57,1.88,1.88,0,0,1-.65.32,1.1,1.1,0,0,1-.76,0,2.5,2.5,0,0,1-.65-.34,1.85,1.85,0,0,1-.46-.55c-.14-.31-.17-.49-.2-2.46a10.06,10.06,0,0,0-.17-2.35,1.83,1.83,0,0,0-.28-.4,1.13,1.13,0,0,0-.43-.31c-.19-.12-.56-.15-2.35-.2-1.95,0-2.12-.06-2.44-.2a2.14,2.14,0,0,1-.53-.46,2.38,2.38,0,0,1-.32-.66,1,1,0,0,1,0-.8,2.6,2.6,0,0,1,.29-.66,2.43,2.43,0,0,1,.45-.4ZM.51,15.55A1.87,1.87,0,0,1,1,15.17,1.6,1.6,0,0,1,1.7,15a2.12,2.12,0,0,1,.74.14,3.08,3.08,0,0,1,.54.46,1.6,1.6,0,0,1,.36.6c0,.2.09,1.75.09,3.81s-.06,3.61-.09,3.81a1.83,1.83,0,0,1-.34.6,4.08,4.08,0,0,1-.56.46,1.92,1.92,0,0,1-.68.14,1.92,1.92,0,0,1-.68-.14,1.86,1.86,0,0,1-.57-.37,2,2,0,0,1-.4-.69A25,25,0,0,1,0,20a25,25,0,0,1,.11-3.81,1.91,1.91,0,0,1,.4-.68Zm36.2.08a2.76,2.76,0,0,1,.54-.46,1.79,1.79,0,0,1,.68-.14,1.92,1.92,0,0,1,.68.14,1.69,1.69,0,0,1,.56.38,1.58,1.58,0,0,1,.4.68A22.52,22.52,0,0,1,39.69,20a22.52,22.52,0,0,1-.12,3.81,1.72,1.72,0,0,1-1.64,1.2,1.76,1.76,0,0,1-.65-.14,2.22,2.22,0,0,1-.57-.46,2.44,2.44,0,0,1-.37-.6c0-.2-.06-1.75-.06-3.81s0-3.61.06-3.81a2.44,2.44,0,0,1,.37-.6ZM.68,30.35a2.05,2.05,0,0,1,.51-.26A1.25,1.25,0,0,1,1.67,30a2.27,2.27,0,0,1,.57.11,2.22,2.22,0,0,1,.65.43,1.48,1.48,0,0,1,.43.72,16.49,16.49,0,0,1,.11,2.29,6.76,6.76,0,0,0,.11,2.14,4.58,4.58,0,0,0,.32.46,1.12,1.12,0,0,0,.42.32,7.83,7.83,0,0,0,2.35.2c2,0,2.13.05,2.44.2a1.84,1.84,0,0,1,.54.46A2.5,2.5,0,0,1,10,38a1.4,1.4,0,0,1,0,.81,2.47,2.47,0,0,1-.31.63,2.12,2.12,0,0,1-.54.45c-.34.18-.48.2-2.27.23A14.61,14.61,0,0,1,4.2,40a4.92,4.92,0,0,1-1.42-.46,4.8,4.8,0,0,1-1.28-.94,5.13,5.13,0,0,1-.93-1.26,5.62,5.62,0,0,1-.46-1.46A16.24,16.24,0,0,1,0,33.18c0-1.8,0-1.94.2-2.29a2.69,2.69,0,0,1,.45-.54Zm36.11.17A1.67,1.67,0,0,1,37.93,30a3.53,3.53,0,0,1,.54.08c.14.06.39.2.56.29a2.62,2.62,0,0,1,.43.54c.17.35.2.49.23,2.29a13.9,13.9,0,0,1-.12,2.67,5.6,5.6,0,0,1-.45,1.46,5.58,5.58,0,0,1-2.18,2.2,5.44,5.44,0,0,1-1.45.46,14.74,14.74,0,0,1-2.64.11c-1.78,0-1.92,0-2.24-.23a1.79,1.79,0,0,1-.56-.45,2.14,2.14,0,0,1-.29-.63,1,1,0,0,1,0-.81,2.19,2.19,0,0,1,.32-.65,1.8,1.8,0,0,1,.53-.46c.32-.15.49-.17,2.44-.2a7.5,7.5,0,0,0,2.35-.2,1.16,1.16,0,0,0,.43-.32,1.45,1.45,0,0,0,.31-.51,6.52,6.52,0,0,0,.14-2.21,14.15,14.15,0,0,1,.09-2.23,1.89,1.89,0,0,1,.42-.66Zm-21.4,6.61a2.25,2.25,0,0,1,.6-.37,23.22,23.22,0,0,1,3.82-.11c2.07,0,3.6,0,3.8.05a2.22,2.22,0,0,1,.6.38,2,2,0,0,1,.45.57,1.67,1.67,0,0,1,0,1.34,1.9,1.9,0,0,1-.37.58,1.36,1.36,0,0,1-.68.4,24.37,24.37,0,0,1-3.77.11A24.37,24.37,0,0,1,16.07,40a1.56,1.56,0,0,1-.68-.4A1.9,1.9,0,0,1,15,39a1.79,1.79,0,0,1-.14-.68,2,2,0,0,1,.12-.63,4.78,4.78,0,0,1,.39-.55Z"/></g></g></svg>