<?xml version="1.0" encoding="UTF-8"?>
<!DOCTYPE svg PUBLIC "-//W3C//DTD SVG 1.1//EN" "http://www.w3.org/Graphics/SVG/1.1/DTD/svg11.dtd">
<!-- Creator: CorelDRAW -->
<svg xmlns="http://www.w3.org/2000/svg" xml:space="preserve" width="132.108mm" height="77.604mm" version="1.1" style="shape-rendering:geometricPrecision; text-rendering:geometricPrecision; image-rendering:optimizeQuality; fill-rule:evenodd; clip-rule:evenodd"
viewBox="0 0 11984.08 7039.78"
 xmlns:xlink="http://www.w3.org/1999/xlink"
 xmlns:xodm="http://www.corel.com/coreldraw/odm/2003">
 <defs>
  <style type="text/css">
   <![CDATA[
    .fil1 {fill:#027C63}
    .fil4 {fill:#027C63}
    .fil0 {fill:#34A889}
    .fil3 {fill:#FF6600;fill-rule:nonzero}
    .fil2 {fill:white;fill-rule:nonzero}
   ]]>
  </style>
 </defs>
 <g id="Слой_x0020_1">
  <metadata id="CorelCorpID_0Corel-Layer"/>
  <rect class="fil0" x="3079.05" width="7039.78" height="7039.78" rx="744.54" ry="744.54"/>
  <path class="fil1" d="M3823.59 0l5550.7 0c214.27,0 408.15,91.74 544.31,237.85l-6637.07 6566.49c-125.4,-133.4 -202.48,-312.69 -202.48,-509.11l0 -5550.7c0,-409.5 335.03,-744.54 744.54,-744.54z"/>
  <path class="fil2" d="M6642.6 3983.42l0 -740.32 1902.83 0 0 1747.82c-184.59,180.49 -452.77,338.56 -804.57,476.22 -350.79,136.64 -706.67,204.96 -1067.66,204.96 -457.87,0 -856.58,-95.85 -1197.17,-288.58 -339.57,-192.73 -595.52,-469.07 -766.83,-827 -171.32,-357.92 -256.97,-748.48 -256.97,-1169.63 0,-456.85 95.86,-862.69 286.55,-1218.58 191.71,-354.86 471.11,-628.15 839.24,-817.82 281.44,-145.82 630.19,-218.22 1048.28,-218.22 543.5,0 968.74,114.21 1274.66,342.63 304.9,229.44 501.71,544.54 589.41,948.35l-881.04 165.2c-61.2,-215.17 -177.44,-385.46 -347.73,-510.88 -169.28,-124.41 -381.37,-186.62 -636.31,-186.62 -385.46,0 -692.39,122.37 -919.8,368.13 -227.4,245.75 -341.61,609.8 -341.61,1092.13 0,521.08 115.23,911.63 345.69,1171.66 231.48,260.03 533.32,390.56 907.56,390.56 184.57,0 370.17,-36.71 555.75,-109.11 186.61,-72.4 345.68,-161.12 479.28,-265.13l0 -555.76 -1009.54 0z"/>
  <path class="fil3" d="M3079.05 4472.88l-1255.07 0 0 952.98 -1823.98 -1905.97 1823.98 -1905.97 0 952.98 1255.07 0 0 1905.98zm-627.53 0m-627.54 476.48m-911.99 -476.48m0 -1905.98m911.99 -476.49m627.54 476.49m627.53 952.99"/>
  <rect class="fil4" x="10118.84" y="2566.9" width="1865.24" height="1905.98"/>
 </g>
</svg>
