<?xml version="1.0" encoding="UTF-8"?>
<svg id="_Слой_2" data-name="Слой 2" xmlns="http://www.w3.org/2000/svg" viewBox="0 0 152.15 131.77">
  <defs>
    <style>
      .cls-1 {
        fill: #fff;
      }

      .cls-2 {
        fill: #90b657;
      }

      .cls-3 {
        fill: #de6855;
        stroke: #de6855;
        stroke-miterlimit: 10;
        stroke-width: 2px;
      }

      .cls-4 {
        fill: #272c2a;
      }
    </style>
  </defs>
  <g id="last_symbol2">
    <circle class="cls-1" cx="65.45" cy="67.53" r="59.86"/>
    <path class="cls-2" d="m118.06,78.12c.2-1.5.55-4.87.81-6.97.15-1.24.27-2.47.3-3.72.35-16.21-5.28-29.22-15.85-39.83-21.39-20.32-55.2-19.45-75.52,1.94-16.16,17.01-19.33,42.59-7.8,63.03,14.74,25.27,47.17,33.81,72.44,19.07,2.33-1.36,4.56-2.9,6.65-4.6,1.4-1.29,2.99-2.38,4.7-3.22,0,0,0,0,0,0,3.35-1.02,6.89.88,7.9,4.23.4,1.3.36,2.7-.1,3.98,0,0,0,0,0,0-.77,1.19-1.76,2.21-2.92,3.02-2.08,1.83-4.48,3.48-6.66,4.94-13.24,9.2-29.4,13.22-45.41,11.31C20.93,126.58-4.15,93.85.57,58.19c1.32-9.96,4.92-19.48,10.54-27.82C30.81-.33,71.67-9.23,102.36,10.48c19.41,12.47,30.91,34.16,30.33,57.23h0l8.51-7.46c3.18-2.72,8.2-1.9,10.25,2.1.58,1.13.81,2.42.65,3.68-.28,2.17-1.51,3.94-3.22,4.95l-20.08,17.61c-3.26,2.86-5.72,3.49-8.15,2.32-2.13-1.03-3.31-2.75-3.59-5.29-.1-.92-.02-1.86.15-2.77l.84-4.72Z"/>
    <path class="cls-4" d="m45.84,77.03c.29.47.79.82,1.5,1.04l-1.26,3.69c-2.69-.32-4.45-1.5-5.29-3.54-.94,1.17-2.11,2.05-3.52,2.65-1.41.6-2.95.9-4.63.9-2.59,0-4.64-.73-6.16-2.18-1.52-1.46-2.28-3.38-2.28-5.78,0-2.68,1.06-4.75,3.18-6.21,2.12-1.46,5.12-2.18,9-2.18h3.64v-1.65c0-1.62-.49-2.8-1.46-3.54-.97-.74-2.38-1.12-4.22-1.12-.91,0-1.96.11-3.15.34-1.2.23-2.41.55-3.64.97l-1.36-3.83c3.07-1.17,6.07-1.75,8.98-1.75,3.4,0,5.95.74,7.67,2.23,1.71,1.49,2.57,3.61,2.57,6.36v11.45c0,.97.15,1.69.44,2.16Zm-8.32-.12c1.05-.58,1.88-1.39,2.5-2.43v-5.68h-3.01c-2.46,0-4.25.41-5.39,1.24-1.13.83-1.7,2.01-1.7,3.57,0,1.36.36,2.39,1.09,3.11.73.71,1.8,1.07,3.23,1.07,1.13,0,2.22-.29,3.28-.87Z"/>
    <path class="cls-4" d="m63.48,55.8c1.21-.65,2.52-.97,3.91-.97,3.27,0,5.68,1.18,7.23,3.54,1.55,2.36,2.33,5.66,2.33,9.9,0,4.01-.9,7.26-2.69,9.75s-4.31,3.74-7.55,3.74c-2.85,0-5.08-1.05-6.7-3.15l-.29,2.52h-4.8v-35.91l5.44-.63v13.98c.87-1.2,1.92-2.12,3.13-2.77Zm6.21,19.53c.99-1.54,1.48-3.87,1.48-7.01s-.44-5.6-1.33-7.08c-.89-1.49-2.21-2.23-3.96-2.23-1.1,0-2.13.34-3.08,1.02-.95.68-1.77,1.57-2.45,2.67v11.99c1.29,1.97,2.98,2.96,5.05,2.96,1.88,0,3.31-.77,4.29-2.3Z"/>
    <path class="cls-3" d="m102.72,75.11l2.47,3.49c-1.13.97-2.49,1.74-4.08,2.3-1.59.57-3.22.85-4.9.85-3.92,0-6.97-1.21-9.17-3.62-2.2-2.41-3.3-5.64-3.3-9.68,0-2.62.5-4.96,1.5-7.01,1-2.05,2.45-3.67,4.34-4.85,1.89-1.18,4.13-1.77,6.72-1.77,3.4,0,6.36,1.04,8.88,3.11l-2.52,3.4c-2.07-1.42-4.16-2.13-6.26-2.13s-3.82.77-5.05,2.3c-1.23,1.54-1.84,3.86-1.84,6.96s.61,5.27,1.84,6.7,2.91,2.13,5.05,2.13,4.14-.73,6.31-2.18Z"/>
  </g>
</svg>