<?xml version="1.0" encoding="UTF-8"?>
<svg id="_Слой_2" data-name="Слой 2" xmlns="http://www.w3.org/2000/svg" viewBox="0 0 152.15 131.77">
  <defs>
    <style>
      .cls-1 {
        fill: #fff;
      }

      .cls-2 {
        fill: #90b657;
      }

      .cls-3 {
        stroke-linecap: round;
        stroke-linejoin: round;
        stroke-width: 6.4px;
      }

      .cls-3, .cls-4 {
        fill: #de6855;
        stroke: #de6855;
      }

      .cls-4 {
        stroke-miterlimit: 10;
        stroke-width: .36px;
      }
    </style>
  </defs>
  <g id="lastByte">
    <circle class="cls-1" cx="65.45" cy="67.53" r="59.86"/>
    <path class="cls-2" d="m118.06,78.12c.2-1.5.55-4.87.81-6.97.15-1.24.27-2.47.3-3.72.35-16.21-5.28-29.22-15.85-39.83-21.39-20.32-55.2-19.45-75.52,1.94-16.16,17.01-19.33,42.59-7.8,63.03,14.74,25.27,47.17,33.81,72.44,19.07,2.33-1.36,4.56-2.9,6.65-4.6,1.4-1.29,2.99-2.38,4.7-3.22,0,0,0,0,0,0,3.35-1.02,6.89.88,7.9,4.23.4,1.3.36,2.7-.1,3.98,0,0,0,0,0,0-.77,1.19-1.76,2.21-2.92,3.02-2.08,1.83-4.48,3.48-6.66,4.94-13.24,9.2-29.4,13.22-45.41,11.31C20.93,126.58-4.15,93.85.57,58.19c1.32-9.96,4.92-19.48,10.54-27.82C30.81-.33,71.67-9.23,102.36,10.48c19.41,12.47,30.91,34.16,30.33,57.23h0l8.51-7.46c3.18-2.72,8.2-1.9,10.25,2.1.58,1.13.81,2.42.65,3.68-.28,2.17-1.51,3.94-3.22,4.95l-20.08,17.61c-3.26,2.86-5.72,3.49-8.15,2.32-2.13-1.03-3.31-2.75-3.59-5.29-.1-.92-.02-1.86.15-2.77l.84-4.72Z"/>
    <g id="_байт" data-name="байт">
      <g>
        <g>
          <line class="cls-3" x1="33.32" y1="40.59" x2="33.32" y2="60.55"/>
          <path class="cls-4" d="m59.15,40.85c1.52,2.28,2.3,5.51,2.3,9.69s-.76,7.44-2.3,9.74c-1.52,2.3-3.78,3.45-6.75,3.45s-5.2-1.14-6.75-3.45c-1.52-2.3-2.3-5.54-2.3-9.74s.76-7.39,2.3-9.69c1.52-2.28,3.78-3.45,6.75-3.45s5.23,1.16,6.75,3.45Zm-9.38,2.8c-.57,1.38-.86,3.68-.86,6.89s.29,5.63.86,7.01c.57,1.38,1.45,2.07,2.66,2.07s2.11-.69,2.66-2.07.81-3.71.81-7.01-.29-5.56-.86-6.91c-.57-1.35-1.45-2.04-2.61-2.04-1.21,0-2.09.69-2.66,2.07Z"/>
          <line class="cls-3" x1="72.48" y1="40.62" x2="72.48" y2="60.57"/>
          <path class="cls-4" d="m98.33,41.14c1.52,2.28,2.3,5.51,2.3,9.69s-.76,7.44-2.3,9.74c-1.52,2.3-3.78,3.45-6.75,3.45s-5.2-1.14-6.75-3.45c-1.52-2.3-2.3-5.54-2.3-9.74s.76-7.39,2.3-9.69c1.52-2.28,3.78-3.45,6.75-3.45,2.97.02,5.2,1.16,6.75,3.45Zm-9.41,2.8c-.57,1.38-.86,3.68-.86,6.89s.29,5.63.86,7.01,1.45,2.07,2.66,2.07,2.11-.69,2.66-2.07c.55-1.38.81-3.71.81-7.01s-.29-5.56-.86-6.91-1.45-2.04-2.61-2.04c-1.21,0-2.09.69-2.66,2.07Z"/>
        </g>
        <g>
          <line class="cls-3" x1="97.57" y1="73.55" x2="97.57" y2="93.5"/>
          <path class="cls-4" d="m78.47,70.36c2.97,0,5.2,1.14,6.75,3.45,1.52,2.28,2.3,5.51,2.3,9.69s-.76,7.44-2.3,9.74c-1.52,2.3-3.78,3.45-6.75,3.45s-5.2-1.14-6.75-3.45c-1.52-2.3-2.3-5.54-2.3-9.74s.76-7.39,2.3-9.69c1.54-2.3,3.78-3.45,6.75-3.45Zm0,4.16c-1.19,0-2.04.69-2.61,2.04s-.86,3.66-.86,6.91.26,5.63.81,7.01,1.43,2.07,2.66,2.07,2.09-.69,2.66-2.07c.57-1.38.86-3.71.86-7.01s-.29-5.49-.86-6.89c-.57-1.38-1.45-2.07-2.66-2.07Z"/>
          <line class="cls-3" x1="58.41" y1="73.55" x2="58.41" y2="93.5"/>
          <path class="cls-4" d="m39.31,70.39c2.97,0,5.2,1.14,6.75,3.45,1.52,2.28,2.3,5.51,2.3,9.69s-.76,7.44-2.3,9.74c-1.52,2.3-3.78,3.45-6.75,3.45s-5.2-1.14-6.75-3.45c-1.52-2.3-2.3-5.54-2.3-9.74s.76-7.39,2.3-9.69,3.78-3.45,6.75-3.45Zm0,4.16c-1.19,0-2.04.69-2.61,2.04s-.86,3.66-.86,6.91.26,5.63.81,7.01c.55,1.38,1.43,2.07,2.66,2.07s2.09-.69,2.66-2.07c.57-1.38.86-3.71.86-7.01s-.29-5.49-.86-6.89c-.57-1.38-1.45-2.07-2.66-2.07Z"/>
        </g>
      </g>
    </g>
  </g>
</svg>