<svg xmlns="http://www.w3.org/2000/svg" viewBox="0 0 35.59 35.95"><defs><style>.cls-1{fill:#22a0a8;}.cls-1,.cls-2,.cls-3{fill-rule:evenodd;}.cls-2{fill:#71bbd1;stroke:#c35845;}.cls-2,.cls-3{stroke-linejoin:bevel;stroke-width:1px;}.cls-3{fill:#fefefe;stroke:#f1bd29;}.cls-4{fill:#141515;}.cls-5{fill:none;stroke:#141515;stroke-miterlimit:10;stroke-width:0.2px;}</style></defs><g id="Слой_2" data-name="Слой 2"><g id="Слой_1-2" data-name="Слой 1"><path class="cls-1" d="M20.83,33.91c6.18,0,6.81,0,7-.08a.79.79,0,0,0,.31-.26l.06-.06a.37.37,0,0,0,.11-.28l0-6.9H20.83v7.58Zm-9.41,0h7.43V26.33H11.42v7.58Zm9.41-9.62h7.46V16.68H20.83v7.61ZM2,24.29H9.41V16.68H2v7.61ZM15.08,5.05c8.42,0,12.5,0,12.78.06a3.1,3.1,0,0,1,.8.26,3.26,3.26,0,0,1,.79.57,3.68,3.68,0,0,1,.51.77,4,4,0,0,1,.26.78c.05.28.05,4.46.05,13s0,12.71-.05,13a3.93,3.93,0,0,1-.26.8,4.06,4.06,0,0,1-.54.78,3.36,3.36,0,0,1-.76.57c-.23.09-.6.2-.8.26S23.5,36,15.14,36s-12.48,0-12.73-.06a7.3,7.3,0,0,1-.79-.26,2.23,2.23,0,0,1-.74-.57,2.5,2.5,0,0,1-.57-.78,2.76,2.76,0,0,1-.25-.8C0,33.2,0,29,0,20.49s0-12.72.06-13a3.33,3.33,0,0,1,.25-.8,3.46,3.46,0,0,1,.57-.78,2,2,0,0,1,.74-.54,2.57,2.57,0,0,1,.73-.26c.2,0,5.42-.06,12.73-.06Zm-3.6,19.24h7.43V16.68H11.48v7.61ZM9.41,33.94c-6.15,0-6.77,0-6.92-.08a1.08,1.08,0,0,1-.31-.26l-.08-.06A.38.38,0,0,1,2,33.23l0-6.9H9.41v7.61Zm0-26.83c-6.15,0-6.77,0-6.94.12a.79.79,0,0,0-.29.26l-.05,0A.41.41,0,0,0,2,7.83l0,6.9H9.41V7.11Zm9.44,0H11.42v7.62h7.43V7.11Zm2,0c6.18,0,6.81,0,7,.06a1.7,1.7,0,0,1,.31.29l.09.06a.35.35,0,0,1,.08.28l0,6.93H20.83V7.11Z"/><polygon class="cls-2" points="11.42 33.94 18.85 33.94 18.85 26.33 11.42 26.33 11.42 33.94 11.42 33.94"/><polygon class="cls-2" points="20.78 33.94 28.23 33.94 28.23 26.33 20.78 26.33 20.78 33.94 20.78 33.94"/><polygon class="cls-2" points="1.93 33.94 9.35 33.94 9.35 26.33 1.93 26.33 1.93 33.94 1.93 33.94"/><path class="cls-3" d="M27.44.5h.4a7.67,7.67,0,0,1,7.25,7.39v.66A7.68,7.68,0,0,1,27.81,16h-.4A7.62,7.62,0,0,1,20,8.32V8.15a7.6,7.6,0,0,1,2-5.13A7.51,7.51,0,0,1,27.44.5Z"/><path class="cls-4" d="M23.81,4.19a1,1,0,0,1,.91.49A2.62,2.62,0,0,1,25,6.08a2.59,2.59,0,0,1-.31,1.38,1.1,1.1,0,0,1-1.82,0,2.68,2.68,0,0,1-.31-1.38,2.71,2.71,0,0,1,.31-1.4,1,1,0,0,1,.91-.49Zm0,.41a.53.53,0,0,0-.51.34,2.79,2.79,0,0,0-.17,1.14A2.75,2.75,0,0,0,23.3,7.2a.55.55,0,0,0,1,0,2.75,2.75,0,0,0,.17-1.12,2.79,2.79,0,0,0-.17-1.14.53.53,0,0,0-.51-.34Z"/><polygon class="cls-4" points="26.9 4.25 26.9 7.89 26.42 7.89 26.42 4.8 25.57 5.31 25.37 4.94 26.48 4.25 26.9 4.25"/><path class="cls-4" d="M29,4.19a1,1,0,0,1,.91.49,2.71,2.71,0,0,1,.31,1.4,2.68,2.68,0,0,1-.31,1.38,1.1,1.1,0,0,1-1.82,0,2.59,2.59,0,0,1-.31-1.38,2.62,2.62,0,0,1,.31-1.4A1,1,0,0,1,29,4.19Zm0,.41a.53.53,0,0,0-.51.34,2.63,2.63,0,0,0-.17,1.14,2.59,2.59,0,0,0,.17,1.12.55.55,0,0,0,1,0,2.75,2.75,0,0,0,.17-1.12,2.79,2.79,0,0,0-.17-1.14A.53.53,0,0,0,29,4.6Z"/><polygon class="cls-4" points="32.12 4.25 32.12 7.89 31.64 7.89 31.64 4.8 30.78 5.31 30.59 4.94 31.69 4.25 32.12 4.25"/><polygon class="cls-4" points="24.04 8.57 24.04 12.21 23.56 12.21 23.56 9.12 22.71 9.63 22.51 9.26 23.61 8.57 24.04 8.57"/><path class="cls-4" d="M26.14,8.52A1,1,0,0,1,27,9a2.66,2.66,0,0,1,.31,1.41A2.55,2.55,0,0,1,27,11.78a1.08,1.08,0,0,1-1.81,0,2.55,2.55,0,0,1-.31-1.37A2.66,2.66,0,0,1,25.23,9a1,1,0,0,1,.91-.48Zm0,.4a.53.53,0,0,0-.51.34,2.65,2.65,0,0,0-.17,1.15,2.56,2.56,0,0,0,.17,1.11.54.54,0,0,0,.51.35.56.56,0,0,0,.51-.35,2.73,2.73,0,0,0,.17-1.11,2.82,2.82,0,0,0-.17-1.15.55.55,0,0,0-.51-.34Z"/><polygon class="cls-4" points="29.23 8.57 29.23 12.21 28.74 12.21 28.74 9.12 27.89 9.63 27.69 9.26 28.8 8.57 29.23 8.57"/><path class="cls-4" d="M31.35,8.52a1,1,0,0,1,.91.48,2.66,2.66,0,0,1,.31,1.41,2.55,2.55,0,0,1-.31,1.37,1.09,1.09,0,0,1-1.82,0,2.64,2.64,0,0,1-.31-1.37A2.75,2.75,0,0,1,30.44,9a1,1,0,0,1,.91-.48Zm0,.4a.53.53,0,0,0-.51.34,2.82,2.82,0,0,0-.17,1.15,2.73,2.73,0,0,0,.17,1.11.55.55,0,0,0,1,0A2.73,2.73,0,0,0,32,10.41a2.82,2.82,0,0,0-.17-1.15.53.53,0,0,0-.51-.34Z"/><path class="cls-5" d="M23.81,4.19a1,1,0,0,1,.91.49A2.62,2.62,0,0,1,25,6.08a2.59,2.59,0,0,1-.31,1.38,1.1,1.1,0,0,1-1.82,0,2.68,2.68,0,0,1-.31-1.38,2.71,2.71,0,0,1,.31-1.4,1,1,0,0,1,.91-.49Zm0,.41a.53.53,0,0,0-.51.34,2.79,2.79,0,0,0-.17,1.14A2.75,2.75,0,0,0,23.3,7.2a.55.55,0,0,0,1,0,2.75,2.75,0,0,0,.17-1.12,2.79,2.79,0,0,0-.17-1.14.53.53,0,0,0-.51-.34Z"/><polygon class="cls-5" points="26.9 4.25 26.9 7.89 26.42 7.89 26.42 4.8 25.57 5.31 25.37 4.94 26.48 4.25 26.9 4.25"/><path class="cls-5" d="M29,4.19a1,1,0,0,1,.91.49,2.71,2.71,0,0,1,.31,1.4,2.68,2.68,0,0,1-.31,1.38,1.1,1.1,0,0,1-1.82,0,2.59,2.59,0,0,1-.31-1.38,2.62,2.62,0,0,1,.31-1.4A1,1,0,0,1,29,4.19Zm0,.41a.53.53,0,0,0-.51.34,2.63,2.63,0,0,0-.17,1.14,2.59,2.59,0,0,0,.17,1.12.55.55,0,0,0,1,0,2.75,2.75,0,0,0,.17-1.12,2.79,2.79,0,0,0-.17-1.14A.53.53,0,0,0,29,4.6Z"/><polygon class="cls-5" points="32.12 4.25 32.12 7.89 31.64 7.89 31.64 4.8 30.78 5.31 30.59 4.94 31.69 4.25 32.12 4.25"/><polygon class="cls-5" points="24.04 8.57 24.04 12.21 23.56 12.21 23.56 9.12 22.71 9.63 22.51 9.26 23.61 8.57 24.04 8.57"/><path class="cls-5" d="M26.14,8.52A1,1,0,0,1,27,9a2.66,2.66,0,0,1,.31,1.41A2.55,2.55,0,0,1,27,11.78a1.08,1.08,0,0,1-1.81,0,2.55,2.55,0,0,1-.31-1.37A2.66,2.66,0,0,1,25.23,9a1,1,0,0,1,.91-.48Zm0,.4a.53.53,0,0,0-.51.34,2.65,2.65,0,0,0-.17,1.15,2.56,2.56,0,0,0,.17,1.11.54.54,0,0,0,.51.35.56.56,0,0,0,.51-.35,2.73,2.73,0,0,0,.17-1.11,2.82,2.82,0,0,0-.17-1.15.55.55,0,0,0-.51-.34Z"/><polygon class="cls-5" points="29.23 8.57 29.23 12.21 28.74 12.21 28.74 9.12 27.89 9.63 27.69 9.26 28.8 8.57 29.23 8.57"/><path class="cls-5" d="M31.35,8.52a1,1,0,0,1,.91.48,2.66,2.66,0,0,1,.31,1.41,2.55,2.55,0,0,1-.31,1.37,1.09,1.09,0,0,1-1.82,0,2.64,2.64,0,0,1-.31-1.37A2.75,2.75,0,0,1,30.44,9a1,1,0,0,1,.91-.48Zm0,.4a.53.53,0,0,0-.51.34,2.82,2.82,0,0,0-.17,1.15,2.73,2.73,0,0,0,.17,1.11.55.55,0,0,0,1,0A2.73,2.73,0,0,0,32,10.41a2.82,2.82,0,0,0-.17-1.15.53.53,0,0,0-.51-.34Z"/></g></g></svg>