<svg xmlns="http://www.w3.org/2000/svg" viewBox="0 0 35.59 35.95"><defs><style>.cls-1{fill:#22a0a8;}.cls-1,.cls-2,.cls-3{fill-rule:evenodd;}.cls-2{fill:#71bbd1;stroke:#c35845;}.cls-2,.cls-3{stroke-linejoin:bevel;stroke-width:1px;}.cls-3{fill:#fefefe;stroke:#f1bd29;}.cls-4{fill:#141515;}.cls-5{fill:none;stroke:#141515;stroke-miterlimit:10;stroke-width:0.2px;}</style></defs><g id="Слой_2" data-name="Слой 2"><g id="Слой_1-2" data-name="Слой 1"><path class="cls-1" d="M20.86,33.94c6.15,0,6.81,0,7-.11a1.71,1.71,0,0,0,.31-.26l0,0a.49.49,0,0,0,.14-.31v-6.9H20.86v7.61Zm-9.44,0h7.46V26.33H11.42v7.61Zm9.44-9.65h7.43V16.68H20.86v7.61ZM2,24.29H9.44V16.68H2v7.61Zm18.88-9.62h7.43V7.74a.49.49,0,0,0-.14-.31l-.2-.2a.45.45,0,0,0-.31-.12l-6.78-.05v7.61Zm-9.44,0h7.46V7.06H11.42v7.61Zm3.66-9.62c8.45,0,12.5,0,12.78.06a2.5,2.5,0,0,1,.8.26,3,3,0,0,1,.79.57,3.32,3.32,0,0,1,.51.77,2.83,2.83,0,0,1,.26.81c.05.28.08,4.43.08,13s0,12.69-.08,13a2.68,2.68,0,0,1-.26.8,3.05,3.05,0,0,1-.54.78,2.41,2.41,0,0,1-.76.57,2.78,2.78,0,0,1-.8.26c-.28.06-4.36.06-12.72.06s-12.45,0-12.7-.06a2.81,2.81,0,0,1-.82-.26,3.11,3.11,0,0,1-.74-.54,2.61,2.61,0,0,1-.54-.78,4.51,4.51,0,0,1-.28-.83C0,33.2,0,29,0,20.51S0,7.8.06,7.52a4.27,4.27,0,0,1,.28-.83,2.61,2.61,0,0,1,.54-.78,2.89,2.89,0,0,1,.74-.54,2.57,2.57,0,0,1,.73-.26c.2,0,5.42-.06,12.73-.06Z"/><path class="cls-2" d="M9.44,33.94c-6.18,0-6.8,0-6.95-.11a1.08,1.08,0,0,1-.31-.26l0,0A.49.49,0,0,1,2,33.23l0-6.9H9.44v7.61Z"/><path class="cls-2" d="M2.32,7.29a1,1,0,0,0-.25.31A19.12,19.12,0,0,0,2,11.21v3.46H9.44V7.06c-5.27,0-6.83,0-6.92.05l-.2.18Zm9.16,17h7.46V16.68H11.48v7.61Z"/><path class="cls-3" d="M27.47.5h.37a7.65,7.65,0,0,1,7.25,7.42v.63A7.64,7.64,0,0,1,27.81,16h-.37A7.67,7.67,0,0,1,20,8.32V8.15a7.8,7.8,0,0,1,2-5.13A7.58,7.58,0,0,1,27.47.5Z"/><path class="cls-4" d="M23.81,4.19a1,1,0,0,1,.91.49A2.62,2.62,0,0,1,25,6.08a2.59,2.59,0,0,1-.31,1.38,1.1,1.1,0,0,1-1.82,0,2.68,2.68,0,0,1-.31-1.38,2.71,2.71,0,0,1,.31-1.4,1,1,0,0,1,.91-.49Zm0,.41a.53.53,0,0,0-.51.34,2.79,2.79,0,0,0-.17,1.14A2.75,2.75,0,0,0,23.3,7.2a.55.55,0,0,0,1,0,2.75,2.75,0,0,0,.17-1.12,2.79,2.79,0,0,0-.17-1.14.53.53,0,0,0-.51-.34Z"/><polygon class="cls-4" points="26.9 4.25 26.9 7.89 26.42 7.89 26.42 4.8 25.57 5.31 25.37 4.94 26.48 4.25 26.9 4.25"/><path class="cls-4" d="M29,4.19a1,1,0,0,1,.9.49,2.61,2.61,0,0,1,.32,1.4,2.58,2.58,0,0,1-.32,1.38,1,1,0,0,1-.9.48,1,1,0,0,1-.91-.48,2.59,2.59,0,0,1-.31-1.38,2.62,2.62,0,0,1,.31-1.4A1,1,0,0,1,29,4.19Zm0,.41a.53.53,0,0,0-.51.34,2.63,2.63,0,0,0-.17,1.14,2.59,2.59,0,0,0,.17,1.12.53.53,0,0,0,.51.34.55.55,0,0,0,.51-.34,2.75,2.75,0,0,0,.17-1.12,2.79,2.79,0,0,0-.17-1.14A.55.55,0,0,0,29,4.6Z"/><polygon class="cls-4" points="32.12 4.25 32.12 7.89 31.64 7.89 31.64 4.8 30.78 5.31 30.59 4.94 31.69 4.25 32.12 4.25"/><polygon class="cls-4" points="24.04 8.57 24.04 12.21 23.56 12.21 23.56 9.12 22.71 9.63 22.51 9.26 23.61 8.57 24.04 8.57"/><path class="cls-4" d="M26.14,8.52A1,1,0,0,1,27,9a2.66,2.66,0,0,1,.31,1.41A2.55,2.55,0,0,1,27,11.78a1.08,1.08,0,0,1-1.81,0,2.55,2.55,0,0,1-.31-1.37A2.66,2.66,0,0,1,25.23,9a1,1,0,0,1,.91-.48Zm0,.4a.53.53,0,0,0-.51.34,2.65,2.65,0,0,0-.17,1.15,2.56,2.56,0,0,0,.17,1.11.54.54,0,0,0,.51.35.56.56,0,0,0,.51-.35,2.73,2.73,0,0,0,.17-1.11,2.82,2.82,0,0,0-.17-1.15.55.55,0,0,0-.51-.34Z"/><polygon class="cls-4" points="29.25 8.57 29.25 12.21 28.77 12.21 28.77 9.12 27.92 9.63 27.72 9.26 28.83 8.57 29.25 8.57"/><path class="cls-4" d="M31.35,8.52a1,1,0,0,1,.91.48,2.66,2.66,0,0,1,.31,1.41,2.55,2.55,0,0,1-.31,1.37,1.09,1.09,0,0,1-1.82,0,2.64,2.64,0,0,1-.31-1.37A2.75,2.75,0,0,1,30.44,9a1,1,0,0,1,.91-.48Zm0,.4a.53.53,0,0,0-.51.34,2.82,2.82,0,0,0-.17,1.15,2.73,2.73,0,0,0,.17,1.11.55.55,0,0,0,1,0A2.73,2.73,0,0,0,32,10.41a2.82,2.82,0,0,0-.17-1.15.53.53,0,0,0-.51-.34Z"/><path class="cls-5" d="M23.81,4.19a1,1,0,0,1,.91.49A2.62,2.62,0,0,1,25,6.08a2.59,2.59,0,0,1-.31,1.38,1.1,1.1,0,0,1-1.82,0,2.68,2.68,0,0,1-.31-1.38,2.71,2.71,0,0,1,.31-1.4,1,1,0,0,1,.91-.49Zm0,.41a.53.53,0,0,0-.51.34,2.79,2.79,0,0,0-.17,1.14A2.75,2.75,0,0,0,23.3,7.2a.55.55,0,0,0,1,0,2.75,2.75,0,0,0,.17-1.12,2.79,2.79,0,0,0-.17-1.14.53.53,0,0,0-.51-.34Z"/><polygon class="cls-5" points="26.9 4.25 26.9 7.89 26.42 7.89 26.42 4.8 25.57 5.31 25.37 4.94 26.48 4.25 26.9 4.25"/><path class="cls-5" d="M29,4.19a1,1,0,0,1,.9.49,2.61,2.61,0,0,1,.32,1.4,2.58,2.58,0,0,1-.32,1.38,1,1,0,0,1-.9.48,1,1,0,0,1-.91-.48,2.59,2.59,0,0,1-.31-1.38,2.62,2.62,0,0,1,.31-1.4A1,1,0,0,1,29,4.19Zm0,.41a.53.53,0,0,0-.51.34,2.63,2.63,0,0,0-.17,1.14,2.59,2.59,0,0,0,.17,1.12.53.53,0,0,0,.51.34.55.55,0,0,0,.51-.34,2.75,2.75,0,0,0,.17-1.12,2.79,2.79,0,0,0-.17-1.14A.55.55,0,0,0,29,4.6Z"/><polygon class="cls-5" points="32.12 4.25 32.12 7.89 31.64 7.89 31.64 4.8 30.78 5.31 30.59 4.94 31.69 4.25 32.12 4.25"/><polygon class="cls-5" points="24.04 8.57 24.04 12.21 23.56 12.21 23.56 9.12 22.71 9.63 22.51 9.26 23.61 8.57 24.04 8.57"/><path class="cls-5" d="M26.14,8.52A1,1,0,0,1,27,9a2.66,2.66,0,0,1,.31,1.41A2.55,2.55,0,0,1,27,11.78a1.08,1.08,0,0,1-1.81,0,2.55,2.55,0,0,1-.31-1.37A2.66,2.66,0,0,1,25.23,9a1,1,0,0,1,.91-.48Zm0,.4a.53.53,0,0,0-.51.34,2.65,2.65,0,0,0-.17,1.15,2.56,2.56,0,0,0,.17,1.11.54.54,0,0,0,.51.35.56.56,0,0,0,.51-.35,2.73,2.73,0,0,0,.17-1.11,2.82,2.82,0,0,0-.17-1.15.55.55,0,0,0-.51-.34Z"/><polygon class="cls-5" points="29.25 8.57 29.25 12.21 28.77 12.21 28.77 9.12 27.92 9.63 27.72 9.26 28.83 8.57 29.25 8.57"/><path class="cls-5" d="M31.35,8.52a1,1,0,0,1,.91.48,2.66,2.66,0,0,1,.31,1.41,2.55,2.55,0,0,1-.31,1.37,1.09,1.09,0,0,1-1.82,0,2.64,2.64,0,0,1-.31-1.37A2.75,2.75,0,0,1,30.44,9a1,1,0,0,1,.91-.48Zm0,.4a.53.53,0,0,0-.51.34,2.82,2.82,0,0,0-.17,1.15,2.73,2.73,0,0,0,.17,1.11.55.55,0,0,0,1,0A2.73,2.73,0,0,0,32,10.41a2.82,2.82,0,0,0-.17-1.15.53.53,0,0,0-.51-.34Z"/></g></g></svg>