<svg xmlns="http://www.w3.org/2000/svg" viewBox="0 0 39.69 40.57"><defs><style>.cls-1{fill:#19a4aa;}</style></defs><g id="Слой_2" data-name="Слой 2"><g id="Слой_1-2" data-name="Слой 1"><path class="cls-1" d="M.11.52A1.12,1.12,0,0,1,.51.11h0C.74,0,1.45,0,9.69.06l.54.51,0,4.44c0,2.78,0,4.55-.06,4.72a.74.74,0,0,1-.34.49c-.28.17-.39.17-9.38.14L0,9.91,0,5.33C0,1.4,0,.72.11.52ZM14.88.43a1.07,1.07,0,0,1,.37-.32A32,32,0,0,1,19.81,0a33.54,33.54,0,0,1,4.6.11,1.31,1.31,0,0,1,.39.32c.14.17.14.54.14,9.39l-.56.57H19.9c-4.14,0-4.51,0-4.76-.14a1.09,1.09,0,0,1-.31-.34c-.06-.12-.09-1.81-.09-4.73,0-4.06,0-4.58.14-4.75ZM29.65.34a1.08,1.08,0,0,1,.43-.28L34.55,0a30.4,30.4,0,0,1,4.6.11.85.85,0,0,1,.39.41c.12.2.15.88.09,9.39l-.46.45H34.64c-4.42,0-4.56,0-4.82-.14a.78.78,0,0,1-.34-.49c-.06-.17-.08-1.94-.06-9.13ZM.09,15.6a1,1,0,0,1,.28-.31c.14-.14.54-.17,4.73-.17s4.59,0,4.76.14a1.24,1.24,0,0,1,.32.43,33.08,33.08,0,0,1,.11,4.58,33.77,33.77,0,0,1-.11,4.61.92.92,0,0,1-.32.4c-.17.14-.53.14-9.29.14L0,24.85V20.33c0-3.18,0-4.58.09-4.73Zm29.42.09a1.35,1.35,0,0,1,.31-.43c.17-.11.54-.14,4.76-.14s4.59,0,4.74.17a1.16,1.16,0,0,1,.28.31c.06.15.09,1.55.09,4.67,0,4.12,0,4.52-.15,4.75a.65.65,0,0,1-.34.32c-.11.06-1.78.08-4.7.08-4.14,0-4.51,0-4.68-.14a1,1,0,0,1-.31-.4,31.73,31.73,0,0,1-.11-4.61,31.09,31.09,0,0,1,.11-4.58ZM.06,30.66l.25-.25.26-.23H5.1c4.34,0,4.51,0,4.76.17a.74.74,0,0,1,.34.48c.09.18.09,1.78.06,9.14l-.54.54-4.45,0c-3.8,0-4.48,0-4.73-.11a.93.93,0,0,1-.43-.38c-.08-.2-.11-.88,0-9.39Zm14.82-.11a1.62,1.62,0,0,1,.31-.29c.12-.05,1.53-.08,4.62-.08,4.11,0,4.51,0,4.71.14a1,1,0,0,1,.34.31c.06.15.08,1.84.08,4.76,0,4.21,0,4.58-.14,4.75a1,1,0,0,1-.39.31,30,30,0,0,1-4.57.12,28.94,28.94,0,0,1-4.53-.12,1,1,0,0,1-.43-.31c-.14-.17-.14-.54-.14-4.81s0-4.64.14-4.78Zm14.6.26a.79.79,0,0,1,.34-.46c.28-.17.43-.17,9.3-.17l.57.57V35.3c0,4.41,0,4.55-.18,4.81a.67.67,0,0,1-.48.37c-.2.06-1.75.09-9.07,0L29.45,40l0-4.41c0-3,0-4.55.06-4.75ZM14.74,15.6l.26-.23.22-.25h9.24l.48.51v9.31l-.48.48H15.25l-.51-.48Z"/></g></g></svg>