<?xml version="1.0" encoding="utf-8"?>
<!-- Generator: Adobe Illustrator 27.3.1, SVG Export Plug-In . SVG Version: 6.00 Build 0)  -->
<svg version="1.1" xmlns="http://www.w3.org/2000/svg" xmlns:xlink="http://www.w3.org/1999/xlink" x="0px" y="0px"
	 viewBox="0 0 512 512" style="enable-background:new 0 0 512 512;" xml:space="preserve">
<style type="text/css">
	.st0{display:none;}
	.st1{display:inline;fill:#F2C620;}
	.st2{fill:#F2C620;stroke:#FFFFFF;stroke-width:10;stroke-miterlimit:10;}
	.st3{display:inline;}
	.st4{fill:#FFFFFF;stroke:#FFFFFF;stroke-width:26.9185;stroke-linecap:round;stroke-linejoin:round;stroke-miterlimit:10;}
	.st5{fill:#FFFFFF;stroke:#FFFFFF;stroke-width:1.4955;stroke-miterlimit:10;}
	.st6{fill:#FFFFFF;}
</style>
<g id="старый" class="st0">
	<path class="st1" d="M256.1,96.5c-0.1-25.5-0.2-47,0.3-47.3c1.3-1,40.8-0.3,85.1-0.3c70,0,85.1,0.3,90.5,1.4
		c3.7,0.8,10.9,3,15.2,5.6c6.7,3.2,10.2,5.7,15.1,10.5c3.5,3.6,8.1,9.3,10.2,12.9c1.8,2.9,3.9,7.4,6.3,14.3c1.2,3.4,1.9,7,1.9,10.7
		l0.3,104.5c0.2,107.5,0.2,109.9-1.7,117.2c-1,4.1-2.9,9.7-4.1,12.2c-1.3,2.5-4.3,7.4-6.8,10.7c-2.4,3.4-6.8,8-9.6,10.2
		s-7.9,5.4-11.2,7.2c-3.4,1.7-8.6,3.8-11.7,4.8c-5.3,1.7-10.5,1.8-178.9,1.8l-0.5-91.4h104.9v-26.3l-105.1,0.3v-30.3h104.9V199
		H256.3l-0.1-30.2h104.9l0.1-26.1l-104.9,0.2L256.1,96.5z"/>
	<path class="st1" d="M73.2,52.4c2.5-0.8,6.6-1.9,8.9-2.3c2.3-0.5,44.6-1,176.8-1.2l-0.5,93.8l-107,0.2V169l105.9-0.2v30L151.4,199
		v26.3h107v30h-107v26.3l107.2-0.1l-1.6,91.3h-33.8l-64.8,45.7C122.8,443.1,93.5,463.2,93,463c-0.4-0.3-0.7-20.4-0.7-89.1l-5.8-0.8
		c-3.3-0.5-8.6-1.7-12-2.7s-8.6-3.3-11.7-5c-3.1-1.7-8.1-5.3-11.1-8.1c-3-2.8-6.8-6.9-8.5-9.3c-1.8-2.3-4.4-6.8-5.9-9.8
		c-1.6-3.1-3.6-8.3-4.6-11.7c-1.6-5.7-1.7-12-1.7-114.9c0-89.3,0.4-109.6,1.3-113.9C33,94.9,34.7,90.1,36,87c1.2-3.1,3.8-8,5.8-10.8
		c1.9-2.8,6.2-7.6,9.5-10.7c3.3-3,8.5-6.8,11.6-8.5C65.9,55.3,70.5,53.2,73.2,52.4z"/>
</g>
<g id="сообщение">
	<g id="форма">
		<path class="st2" d="M93.8,461.4l-1.2-89c0,0-59.8-3.4-61.6-57.5l1-217c0,0,6.1-49,62.3-47.5h321.2c0,0,64.9-4.1,65.9,58.2v207.8
			c0,0,1,51.1-62.3,56.2H223L93.8,461.4z"/>
	</g>
	<g id="байт" class="st0">
		<g class="st3">
			<g>
				<line class="st4" x1="121.3" y1="101.2" x2="121.3" y2="185.2"/>
				<g>
					<path class="st5" d="M230,102.3c6.4,9.6,9.7,23.2,9.7,40.8c0,17.6-3.2,31.3-9.7,41c-6.4,9.7-15.9,14.5-28.4,14.5
						s-21.9-4.8-28.4-14.5c-6.4-9.7-9.7-23.3-9.7-41c0-17.5,3.2-31.1,9.7-40.8c6.4-9.6,15.9-14.5,28.4-14.5S223.6,92.7,230,102.3z
						 M190.5,114.1c-2.4,5.8-3.6,15.5-3.6,29c0,13.9,1.2,23.7,3.6,29.5c2.4,5.8,6.1,8.7,11.2,8.7c5.2,0,8.9-2.9,11.2-8.7
						c2.3-5.8,3.4-15.6,3.4-29.5c0-13.7-1.2-23.4-3.6-29.1c-2.4-5.7-6.1-8.6-11-8.6C196.6,105.4,192.9,108.3,190.5,114.1z"/>
				</g>
				<line class="st4" x1="286.1" y1="101.3" x2="286.1" y2="185.3"/>
				<g>
					<path class="st5" d="M394.9,103.5c6.4,9.6,9.7,23.2,9.7,40.8c0,17.6-3.2,31.3-9.7,41c-6.4,9.7-15.9,14.5-28.4,14.5
						c-12.5,0-21.9-4.8-28.4-14.5c-6.4-9.7-9.7-23.3-9.7-41c0-17.5,3.2-31.1,9.7-40.8c6.4-9.6,15.9-14.5,28.4-14.5
						C379,89.1,388.4,93.9,394.9,103.5z M355.3,115.3c-2.4,5.8-3.6,15.5-3.6,29c0,13.9,1.2,23.7,3.6,29.5c2.4,5.8,6.1,8.7,11.2,8.7
						c5.2,0,8.9-2.9,11.2-8.7c2.3-5.8,3.4-15.6,3.4-29.5c0-13.7-1.2-23.4-3.6-29.1c-2.4-5.7-6.1-8.6-11-8.6
						C361.4,106.6,357.7,109.5,355.3,115.3z"/>
				</g>
			</g>
			<g>
				<line class="st4" x1="391.7" y1="239.9" x2="391.7" y2="323.9"/>
				<g>
					<path class="st5" d="M311.3,226.5c12.5,0,21.9,4.8,28.4,14.5c6.4,9.6,9.7,23.2,9.7,40.8c0,17.6-3.2,31.3-9.7,41
						c-6.4,9.7-15.9,14.5-28.4,14.5s-21.9-4.8-28.4-14.5c-6.4-9.7-9.7-23.3-9.7-41c0-17.5,3.2-31.1,9.7-40.8
						C289.4,231.3,298.8,226.5,311.3,226.5z M311.3,244c-5,0-8.6,2.9-11,8.6c-2.4,5.7-3.6,15.4-3.6,29.1c0,13.9,1.1,23.7,3.4,29.5
						c2.3,5.8,6,8.7,11.2,8.7c5.1,0,8.8-2.9,11.2-8.7c2.4-5.8,3.6-15.6,3.6-29.5c0-13.5-1.2-23.1-3.6-29
						C320.1,246.9,316.4,244,311.3,244z"/>
				</g>
				<line class="st4" x1="226.9" y1="239.9" x2="226.9" y2="323.9"/>
				<g>
					<path class="st5" d="M146.5,226.6c12.5,0,21.9,4.8,28.4,14.5c6.4,9.6,9.7,23.2,9.7,40.8c0,17.6-3.2,31.3-9.7,41
						c-6.4,9.7-15.9,14.5-28.4,14.5c-12.5,0-21.9-4.8-28.4-14.5c-6.4-9.7-9.7-23.3-9.7-41c0-17.5,3.2-31.1,9.7-40.8
						C124.6,231.4,134,226.6,146.5,226.6z M146.5,244.1c-5,0-8.6,2.9-11,8.6c-2.4,5.7-3.6,15.4-3.6,29.1c0,13.9,1.1,23.7,3.4,29.5
						c2.3,5.8,6,8.7,11.2,8.7c5.1,0,8.8-2.9,11.2-8.7c2.4-5.8,3.6-15.6,3.6-29.5c0-13.5-1.2-23.1-3.6-29
						C155.3,247,151.6,244.1,146.5,244.1z"/>
				</g>
			</g>
		</g>
	</g>
	<g id="греч.а">
		<g>
			<path class="st6" d="M277.5,132.9c9.1,8.5,15.3,22.7,18.7,42.6l8.8-51.3h28.5l-18.7,94.1l8.8,45.5c0.9,4.8,2.5,8.5,4.8,11.2
				c2.3,2.7,5.9,5,10.9,6.8l-10.9,25.8c-7.9-1.4-14.9-4.8-20.9-10.2c-6-5.4-9.7-12.8-11-22.1l-3.1-19c-11.1,34-29.7,51-55.7,51
				c-20.8,0-36.9-7.8-48.2-23.3c-11.3-15.5-17-38.4-17-68.8c0-28.5,5.9-51.5,17.7-69c11.8-17.4,28.6-26.2,50.6-26.2
				C256.2,120.1,268.4,124.4,277.5,132.9z M215.3,162.9c-6.3,12-9.5,29.4-9.5,52.3c0,22.9,2.9,39.8,8.8,50.8
				c5.9,11,14.7,16.5,26.5,16.5c9.7,0,18.7-5,26.8-14.9c8.2-10,14.7-28.3,19.7-55c-4.3-25.6-10-43.3-17.2-53
				c-7.1-9.7-16.5-14.6-28-14.6C230.7,144.9,221.7,150.9,215.3,162.9z"/>
		</g>
	</g>
</g>
</svg>
