<?xml version="1.0" encoding="UTF-8"?>
<!DOCTYPE svg PUBLIC "-//W3C//DTD SVG 1.1//EN" "http://www.w3.org/Graphics/SVG/1.1/DTD/svg11.dtd">
<svg xmlns="http://www.w3.org/2000/svg" version="1.1" width="146px" height="160px" style="shape-rendering:geometricPrecision; text-rendering:geometricPrecision; image-rendering:optimizeQuality; fill-rule:evenodd; clip-rule:evenodd" xmlns:xlink="http://www.w3.org/1999/xlink">
<g><path style="opacity:0.91" fill="#fffbfb" d="M 70.5,-0.5 C 71.8333,-0.5 73.1667,-0.5 74.5,-0.5C 75.1217,0.626561 75.955,1.62656 77,2.5C 77.6667,21.8333 77.6667,41.1667 77,60.5C 74,64.5 71,64.5 68,60.5C 67.3333,41.1667 67.3333,21.8333 68,2.5C 69.045,1.62656 69.8783,0.626561 70.5,-0.5 Z"/></g>
<g><path style="opacity:0.928" fill="#fffafc" d="M 145.5,73.5 C 145.5,81.5 145.5,89.5 145.5,97.5C 136.987,131.346 115.653,152.013 81.5,159.5C 75.5,159.5 69.5,159.5 63.5,159.5C 29.3467,152.013 8.0134,131.346 -0.5,97.5C -0.5,89.5 -0.5,81.5 -0.5,73.5C 5.28931,46.0333 21.2893,27.0333 47.5,16.5C 53.2444,19.0548 53.9111,22.5548 49.5,27C 20.5456,40.054 7.37898,62.554 10,94.5C 17.0416,128.37 37.8749,146.37 72.5,148.5C 96.8382,147.754 115.338,137.087 128,116.5C 139.885,91.0693 137.552,67.0693 121,44.5C 113.22,36.9444 104.554,30.6111 95,25.5C 93.2369,21.5056 94.5702,18.8389 99,17.5C 124.567,27.8926 140.067,46.5593 145.5,73.5 Z"/></g>
</svg>
