<?xml version="1.0" encoding="UTF-8" standalone="no"?>
<svg
   version="1.1"
   viewBox="0 0 222 222"
   id="svg453"
   sodipodi:docname="base_info.svg"
   inkscape:version="1.2.2 (b0a8486541, 2022-12-01)"
   xmlns:inkscape="http://www.inkscape.org/namespaces/inkscape"
   xmlns:sodipodi="http://sodipodi.sourceforge.net/DTD/sodipodi-0.dtd"
   xmlns="http://www.w3.org/2000/svg"
   xmlns:svg="http://www.w3.org/2000/svg">
  <defs
     id="defs457" />
  <sodipodi:namedview
     id="namedview455"
     pagecolor="#505050"
     bordercolor="#eeeeee"
     borderopacity="1"
     inkscape:showpageshadow="0"
     inkscape:pageopacity="0"
     inkscape:pagecheckerboard="0"
     inkscape:deskcolor="#505050"
     showgrid="false"
     inkscape:zoom="4.7432432"
     inkscape:cx="110.89459"
     inkscape:cy="110.89459"
     inkscape:window-width="2560"
     inkscape:window-height="1440"
     inkscape:window-x="0"
     inkscape:window-y="2160"
     inkscape:window-maximized="1"
     inkscape:current-layer="svg453" />
  <path
     fill="#ffffff"
     d="   M 221.60 111.00   A 110.60 110.60 0.0 0 1 111.00 221.60   A 110.60 110.60 0.0 0 1 0.40 111.00   A 110.60 110.60 0.0 0 1 111.00 0.40   A 110.60 110.60 0.0 0 1 221.60 111.00   Z   M 212.04 111.00   A 101.04 101.04 0.0 0 0 111.00 9.96   A 101.04 101.04 0.0 0 0 9.96 111.00   A 101.04 101.04 0.0 0 0 111.00 212.04   A 101.04 101.04 0.0 0 0 212.04 111.00   Z"
     id="path435" />
  <g
     stroke-width="2.00"
     fill="none"
     stroke-linecap="butt"
     id="g445">
    <path
       stroke="#e7e7e7"
       stroke-opacity="0.557"
       vector-effect="non-scaling-stroke"
       d="   M 57.30 75.49   L 65.48 75.73   C 65.84 75.74 66.00 75.92 65.96 76.28   L 61.16 116.05   A 0.63 0.62 -86.7 0 0 61.78 116.75   L 75.21 116.75   C 75.55 116.75 75.72 116.58 75.72 116.24   C 75.77 109.87 75.79 103.51 75.76 97.15   C 75.71 83.89 93.18 84.73 93.23 95.89   C 93.26 102.56 93.26 109.23 93.25 115.91   C 93.24 116.24 93.38 116.49 93.66 116.67   L 94.25 117.04"
       id="path437" />
    <path
       stroke="#487690"
       stroke-opacity="0.557"
       vector-effect="non-scaling-stroke"
       d="   M 94.25 117.04   C 103.31 140.34 137.66 125.07 126.79 103.21   C 122.74 95.07 115.57 92.00 105.29 94.00"
       id="path439" />
    <path
       stroke="#e7e7e7"
       stroke-opacity="0.557"
       vector-effect="non-scaling-stroke"
       d="   M 105.29 94.00   L 103.04 76.28   C 102.99 75.93 103.15 75.75 103.50 75.75   L 110.75 75.75   C 111.25 75.75 111.50 75.50 111.50 75.00   L 111.50 51.50   C 111.50 51.00 111.25 50.75 110.75 50.75   L 103.25 50.75   C 102.75 50.75 102.50 51.00 102.50 51.50   L 102.50 58.75   C 102.50 59.08 102.33 59.25 102.00 59.25   L 92.24 59.25   C 91.80 59.25 91.60 59.03 91.65 58.59   C 91.96 55.88 91.82 53.28 91.25 50.79"
       id="path441" />
    <path
       stroke="#a7c0cf"
       vector-effect="non-scaling-stroke"
       d="   M 105.29 94.00   L 107.81 115.83   C 107.88 116.48 107.59 116.82 106.94 116.83   L 94.25 117.04"
       id="path443" />
  </g>
  <path
     fill="#ffffff"
     d="   M 91.25 50.79   C 91.82 53.28 91.96 55.88 91.65 58.59   C 91.60 59.03 91.80 59.25 92.24 59.25   L 102.00 59.25   C 102.33 59.25 102.50 59.08 102.50 58.75   L 102.50 51.50   C 102.50 51.00 102.75 50.75 103.25 50.75   L 110.75 50.75   C 111.25 50.75 111.50 51.00 111.50 51.50   L 111.50 75.00   C 111.50 75.50 111.25 75.75 110.75 75.75   L 103.50 75.75   C 103.15 75.75 102.99 75.93 103.04 76.28   L 105.29 94.00   L 107.81 115.83   C 107.88 116.48 107.59 116.82 106.94 116.83   L 94.25 117.04   L 93.66 116.67   C 93.38 116.49 93.24 116.24 93.25 115.91   C 93.26 109.23 93.26 102.56 93.23 95.89   C 93.18 84.73 75.71 83.89 75.76 97.15   C 75.79 103.51 75.77 109.87 75.72 116.24   C 75.72 116.58 75.55 116.75 75.21 116.75   L 61.78 116.75   A 0.63 0.62 -86.7 0 1 61.16 116.05   L 65.96 76.28   C 66.00 75.92 65.84 75.74 65.48 75.73   L 57.30 75.49   L 57.45 51.34   C 57.46 51.00 57.63 50.83 57.96 50.83   L 65.96 50.82   C 66.21 50.82 66.34 50.95 66.33 51.20   L 66.22 58.61   C 66.21 59.04 66.43 59.25 66.86 59.25   L 76.94 59.24   A 0.55 0.55 0.0 0 0 77.49 58.69   L 77.50 51.26   C 77.50 50.95 77.66 50.80 77.97 50.80   L 91.25 50.79   Z"
     id="path447" />
  <path
     fill="white"
     fill-opacity="0.110"
     d="   M 57.30 75.49   L 65.48 75.73   C 65.84 75.74 66.00 75.92 65.96 76.28   L 61.16 116.05   A 0.63 0.62 -86.7 0 0 61.78 116.75   L 75.21 116.75   C 75.55 116.75 75.72 116.58 75.72 116.24   C 75.77 109.87 75.79 103.51 75.76 97.15   C 75.71 83.89 93.18 84.73 93.23 95.89   C 93.26 102.56 93.26 109.23 93.25 115.91   C 93.24 116.24 93.38 116.49 93.66 116.67   L 94.25 117.04   C 103.31 140.34 137.66 125.07 126.79 103.21   C 122.74 95.07 115.57 92.00 105.29 94.00   L 103.04 76.28   C 102.99 75.93 103.15 75.75 103.50 75.75   L 110.75 75.75   C 111.25 75.75 111.50 75.50 111.50 75.00   L 111.50 51.50   C 111.50 51.00 111.25 50.75 110.75 50.75   L 103.25 50.75   C 102.75 50.75 102.50 51.00 102.50 51.50   L 102.50 58.75   C 102.50 59.08 102.33 59.25 102.00 59.25   L 92.24 59.25   C 91.80 59.25 91.60 59.03 91.65 58.59   C 91.96 55.88 91.82 53.28 91.25 50.79   C 92.06 50.49 92.27 49.89 91.89 48.99   C 91.74 48.64 91.85 48.41 92.22 48.31   C 104.03 45.08 115.88 44.90 127.78 47.78   C 128.08 47.85 128.36 47.98 128.61 48.17   C 129.04 48.51 129.56 48.62 130.15 48.50   C 130.50 48.43 130.82 48.49 131.13 48.67   C 132.84 49.72 134.68 50.39 136.63 50.70   C 136.94 50.75 137.19 50.89 137.40 51.12   C 138.61 52.44 140.18 52.30 141.45 53.04   C 143.01 53.94 144.24 55.05 145.92 55.78   C 148.77 57.02 150.55 58.91 153.00 60.70   C 156.19 63.02 158.93 66.68 161.67 69.56   C 163.90 71.90 166.16 75.14 168.47 79.27   C 169.92 81.86 171.55 86.02 173.36 91.75   C 176.69 102.24 177.35 112.69 175.36 123.10   C 174.14 129.48 171.88 135.73 168.58 141.84   C 160.32 157.13 144.08 171.39 126.02 174.47   C 123.72 174.86 121.51 175.68 119.28 175.92   C 110.45 176.84 102.70 176.44 96.01 174.73   C 94.14 174.25 89.99 172.88 83.57 170.62   C 83.32 170.53 83.13 170.37 83.02 170.12   C 82.86 169.77 73.11 164.23 70.98 162.76   C 68.77 161.25 64.94 157.42 59.49 151.29   C 59.36 151.14 59.29 150.97 59.27 150.78   C 59.26 150.67 59.25 150.57 59.25 150.47   C 59.25 150.30 59.18 150.16 59.04 150.05   C 57.69 149.02 56.63 147.79 55.84 146.36   C 54.41 143.75 53.62 142.34 53.47 142.12   C 51.59 139.24 51.12 136.01 49.46 133.52   C 49.27 133.24 49.21 132.94 49.26 132.61   C 49.37 131.93 49.17 131.35 48.64 130.86   C 48.42 130.65 48.29 130.40 48.24 130.10   C 48.09 129.07 47.84 127.87 47.47 126.48   C 44.92 116.72 44.85 106.86 47.24 96.91   C 47.82 94.50 48.22 90.88 49.72 87.87   C 50.45 86.40 51.11 84.87 51.69 83.28   C 52.81 80.20 54.68 77.60 57.30 75.49   Z"
     id="path449" />
  <path
     fill="#4e819e"
     d="   M 94.25 117.04   L 106.94 116.83   C 107.59 116.82 107.88 116.48 107.81 115.83   L 105.29 94.00   C 115.57 92.00 122.74 95.07 126.79 103.21   C 137.66 125.07 103.31 140.34 94.25 117.04   Z"
     id="path451" />
</svg>
