<?xml version="1.0" encoding="UTF-8"?>
<!DOCTYPE svg PUBLIC "-//W3C//DTD SVG 1.1//EN" "http://www.w3.org/Graphics/SVG/1.1/DTD/svg11.dtd">
<svg xmlns="http://www.w3.org/2000/svg" version="1.1" width="180px" height="200px" style="shape-rendering:geometricPrecision; text-rendering:geometricPrecision; image-rendering:optimizeQuality; fill-rule:evenodd; clip-rule:evenodd" xmlns:xlink="http://www.w3.org/1999/xlink">
<g><path style="opacity:0.988" fill="#319fe7" d="M 66.5,-0.5 C 67.5,-0.5 68.5,-0.5 69.5,-0.5C 69.6775,0.69484 70.0109,1.86151 70.5,3C 68.7439,11.1145 67.2439,19.2811 66,27.5C 64.7178,33.1135 61.5512,37.2801 56.5,40C 35.0338,45.465 20.5338,58.6316 13,79.5C 4.04029,111.709 13.207,137.209 40.5,156C 46.2873,158.894 52.2873,161.227 58.5,163C 60.3333,164.833 62.1667,166.667 64,168.5C 66.7003,177.697 68.8669,187.03 70.5,196.5C 69.8728,197.417 69.5394,198.417 69.5,199.5C 68.5,199.5 67.5,199.5 66.5,199.5C 44.689,186.089 22.3557,173.423 -0.5,161.5C -0.5,120.167 -0.5,78.8333 -0.5,37.5C 22.3557,25.5773 44.689,12.9106 66.5,-0.5 Z"/></g>
<g><path style="opacity:0.973" fill="#31a0e7" d="M 99.5,4.5 C 105.019,10.5295 110.019,17.0295 114.5,24C 103.306,27.4666 91.973,30.6333 80.5,33.5C 79.4173,32.635 79.2506,31.635 80,30.5C 86.7167,21.9563 93.2167,13.2896 99.5,4.5 Z"/></g>
<g><path style="opacity:0.878" fill="#fcfefe" d="M 179.5,91.5 C 179.5,96.8333 179.5,102.167 179.5,107.5C 177.815,123.054 172.815,137.554 164.5,151C 162.913,151.862 161.246,152.529 159.5,153C 147.5,153.667 135.5,153.667 123.5,153C 120.804,152.31 118.637,150.81 117,148.5C 102.675,120.77 100.675,92.1036 111,62.5C 112.623,58.2896 114.623,54.2896 117,50.5C 118.637,48.1898 120.804,46.6898 123.5,46C 135.5,45.3333 147.5,45.3333 159.5,46C 161.246,46.4709 162.913,47.1376 164.5,48C 172.815,61.4462 177.815,75.9462 179.5,91.5 Z"/></g>
<g><path style="opacity:0.89" fill="#fdfefe" d="M 68.5,46.5 C 81.1711,46.3334 93.8377,46.5001 106.5,47C 107.894,47.956 108.561,49.2894 108.5,51C 106.787,57.8255 104.12,64.1588 100.5,70C 89.5,70.6667 78.5,70.6667 67.5,70C 66.3544,62.9138 66.1877,55.7471 67,48.5C 67.7172,47.9558 68.2172,47.2891 68.5,46.5 Z"/></g>
<g><path style="opacity:0.876" fill="#fefefe" d="M 54.5,47.5 C 57.0444,47.1043 59.2111,47.771 61,49.5C 61.6667,55.5 61.6667,61.5 61,67.5C 60.3005,69.032 59.1338,70.032 57.5,70.5C 50.7924,67.7641 44.1258,64.9308 37.5,62C 34.9199,59.8797 34.9199,57.713 37.5,55.5C 43.3783,53.0583 49.045,50.3917 54.5,47.5 Z"/></g>
<g><path style="opacity:1" fill="#9ef3fb" d="M 122.5,51.5 C 135.171,51.3334 147.838,51.5001 160.5,52C 167.26,61.3709 171.427,71.8709 173,83.5C 174.516,99.7533 173.182,115.753 169,131.5C 166.548,136.907 163.714,142.074 160.5,147C 147.833,147.667 135.167,147.667 122.5,147C 105.186,115.142 105.186,83.3087 122.5,51.5 Z"/></g>
<g><path style="opacity:1" fill="#9ef4f7" d="M 53.5,54.5 C 54.7647,55.5145 55.4313,57.0145 55.5,59C 55.4915,60.7067 55.1582,62.2067 54.5,63.5C 50.6678,62.2852 47.0011,60.6186 43.5,58.5C 46.6471,56.6824 49.9804,55.3491 53.5,54.5 Z"/></g>
<g><path style="opacity:1" fill="#d3fafb" d="M 53.5,54.5 C 54.209,53.596 55.209,53.2627 56.5,53.5C 56.8226,57.226 56.4892,60.8927 55.5,64.5C 54.8933,64.3764 54.56,64.0431 54.5,63.5C 55.1582,62.2067 55.4915,60.7067 55.5,59C 55.4313,57.0145 54.7647,55.5145 53.5,54.5 Z"/></g>
<g><path style="opacity:1" fill="#a2f4fb" d="M 71.5,52.5 C 81.6742,51.1768 92.0075,51.1768 102.5,52.5C 101.392,56.5216 99.7251,60.1882 97.5,63.5C 95.8762,63.6399 94.7096,62.9733 94,61.5C 90.767,62.7864 87.267,63.453 83.5,63.5C 80.1667,63.1667 76.8333,62.8333 73.5,62.5C 74.4066,59.5788 74.7399,56.5788 74.5,53.5C 82.5069,53.6664 90.5069,53.4997 98.5,53C 89.5062,52.5002 80.5062,52.3336 71.5,52.5 Z"/></g>
<g><path style="opacity:1" fill="#8bf3f7" d="M 71.5,53.5 C 71.5,53.1667 71.5,52.8333 71.5,52.5C 80.5062,52.3336 89.5062,52.5002 98.5,53C 90.5069,53.4997 82.5069,53.6664 74.5,53.5C 74.7399,56.5788 74.4066,59.5788 73.5,62.5C 76.8333,62.8333 80.1667,63.1667 83.5,63.5C 87.267,63.453 90.767,62.7864 94,61.5C 94.7096,62.9733 95.8762,63.6399 97.5,63.5C 97.6716,64.4916 97.3382,65.1583 96.5,65.5C 88.6841,64.5076 80.6841,64.1743 72.5,64.5C 72.815,60.6286 72.4816,56.9619 71.5,53.5 Z"/></g>
<g><path style="opacity:1" fill="#aef6fc" d="M 71.5,53.5 C 72.4816,56.9619 72.815,60.6286 72.5,64.5C 80.6841,64.1743 88.6841,64.5076 96.5,65.5C 88.1667,65.5 79.8333,65.5 71.5,65.5C 71.5,61.5 71.5,57.5 71.5,53.5 Z"/></g>
<g><path style="opacity:0.89" fill="#fafefe" d="M 58.5,73.5 C 71.1711,73.3334 83.8377,73.5001 96.5,74C 97,74.5 97.5,75 98,75.5C 98.6667,82.5 98.6667,89.5 98,96.5C 84.5752,97.6557 71.0752,97.8223 57.5,97C 57,96.5 56.5,96 56,95.5C 55.3333,89.1667 55.3333,82.8333 56,76.5C 57.045,75.6266 57.8783,74.6266 58.5,73.5 Z"/></g>
<g><path style="opacity:0.903" fill="#fefefe" d="M 44.5,74.5 C 46.7224,74.178 48.5557,74.8446 50,76.5C 50.6667,82.8333 50.6667,89.1667 50,95.5C 48.5341,97.3249 46.7008,97.8249 44.5,97C 38.2582,94.2953 32.0916,91.4619 26,88.5C 25.2571,86.5594 25.4238,84.7261 26.5,83C 32.7119,80.3917 38.7119,77.5583 44.5,74.5 Z"/></g>
<g><path style="opacity:1" fill="#a2f4f8" d="M 43.5,80.5 C 44.7868,81.8714 45.4535,83.7047 45.5,86C 45.1667,87.8333 44.8333,89.6667 44.5,91.5C 40.6403,90.1125 36.9736,88.2791 33.5,86C 36.7667,83.8703 40.1,82.037 43.5,80.5 Z"/></g>
<g><path style="opacity:1" fill="#9af3fd" d="M 61.5,79.5 C 72.1667,79.5 82.8333,79.5 93.5,79.5C 93.5,83.8333 93.5,88.1667 93.5,92.5C 82.8333,92.5 72.1667,92.5 61.5,92.5C 61.5,88.1667 61.5,83.8333 61.5,79.5 Z"/></g>
<g><path style="opacity:0.903" fill="#fefefe" d="M 44.5,101.5 C 46.7224,101.178 48.5557,101.845 50,103.5C 50.6667,109.833 50.6667,116.167 50,122.5C 48.5341,124.325 46.7008,124.825 44.5,124C 38.2315,121.356 32.0648,118.523 26,115.5C 25.2571,113.559 25.4238,111.726 26.5,110C 32.7119,107.392 38.7119,104.558 44.5,101.5 Z"/></g>
<g><path style="opacity:0.89" fill="#fafefe" d="M 57.5,101.5 C 70.8375,101.333 84.1708,101.5 97.5,102C 98.6456,109.086 98.8123,116.253 98,123.5C 97.5,124 97,124.5 96.5,125C 83.8333,125.667 71.1667,125.667 58.5,125C 57.6667,124.167 56.8333,123.333 56,122.5C 55.3333,116.167 55.3333,109.833 56,103.5C 56.7172,102.956 57.2172,102.289 57.5,101.5 Z"/></g>
<g><path style="opacity:1" fill="#9af3fd" d="M 61.5,106.5 C 72.1667,106.5 82.8333,106.5 93.5,106.5C 93.5,110.833 93.5,115.167 93.5,119.5C 82.8333,119.5 72.1667,119.5 61.5,119.5C 61.5,115.167 61.5,110.833 61.5,106.5 Z"/></g>
<g><path style="opacity:1" fill="#a3f4f8" d="M 43.5,107.5 C 44.7868,108.871 45.4535,110.705 45.5,113C 45.1667,114.833 44.8333,116.667 44.5,118.5C 40.7056,117.103 37.0389,115.436 33.5,113.5C 36.5623,110.972 39.8956,108.972 43.5,107.5 Z"/></g>
<g><path style="opacity:0.878" fill="#fefefe" d="M 56.5,128.5 C 58.5816,128.624 60.0816,129.624 61,131.5C 61.6667,137.5 61.6667,143.5 61,149.5C 59.1917,151.396 57.025,151.896 54.5,151C 48.3369,148.449 42.3369,145.616 36.5,142.5C 35.0465,140.356 35.3799,138.523 37.5,137C 43.9767,134.24 50.3101,131.407 56.5,128.5 Z"/></g>
<g><path style="opacity:0.89" fill="#fdfefe" d="M 67.5,128.5 C 78.8846,128.188 90.2179,128.522 101.5,129.5C 105.004,136.173 107.171,143.173 108,150.5C 107.5,151 107,151.5 106.5,152C 93.8333,152.667 81.1667,152.667 68.5,152C 68,151.5 67.5,151 67,150.5C 66.2036,143.087 66.3703,135.754 67.5,128.5 Z"/></g>
<g><path style="opacity:1" fill="#a3f4fb" d="M 97.5,135.5 C 100.107,138.619 101.774,142.286 102.5,146.5C 92.0075,147.823 81.6742,147.823 71.5,146.5C 80.5062,146.666 89.5062,146.5 98.5,146C 90.5069,145.5 82.5069,145.334 74.5,145.5C 74.7399,142.421 74.4066,139.421 73.5,136.5C 76.8333,136.167 80.1667,135.833 83.5,135.5C 87.267,135.547 90.767,136.214 94,137.5C 94.7096,136.027 95.8762,135.36 97.5,135.5 Z"/></g>
<g><path style="opacity:1" fill="#9ff4f7" d="M 54.5,135.5 C 55.1582,136.793 55.4915,138.293 55.5,140C 55.4313,141.986 54.7647,143.486 53.5,144.5C 49.9804,143.651 46.6471,142.318 43.5,140.5C 47.0011,138.381 50.6678,136.715 54.5,135.5 Z"/></g>
<g><path style="opacity:1" fill="#d3fafb" d="M 54.5,135.5 C 54.56,134.957 54.8933,134.624 55.5,134.5C 56.4892,138.107 56.8226,141.774 56.5,145.5C 55.209,145.737 54.209,145.404 53.5,144.5C 54.7647,143.486 55.4313,141.986 55.5,140C 55.4915,138.293 55.1582,136.793 54.5,135.5 Z"/></g>
<g><path style="opacity:1" fill="#b1f6fb" d="M 96.5,133.5 C 88.6841,134.492 80.6841,134.826 72.5,134.5C 72.815,138.371 72.4816,142.038 71.5,145.5C 71.5,141.5 71.5,137.5 71.5,133.5C 79.8333,133.5 88.1667,133.5 96.5,133.5 Z"/></g>
<g><path style="opacity:1" fill="#89f3f7" d="M 96.5,133.5 C 97.3382,133.842 97.6716,134.508 97.5,135.5C 95.8762,135.36 94.7096,136.027 94,137.5C 90.767,136.214 87.267,135.547 83.5,135.5C 80.1667,135.833 76.8333,136.167 73.5,136.5C 74.4066,139.421 74.7399,142.421 74.5,145.5C 82.5069,145.334 90.5069,145.5 98.5,146C 89.5062,146.5 80.5062,146.666 71.5,146.5C 71.5,146.167 71.5,145.833 71.5,145.5C 72.4816,142.038 72.815,138.371 72.5,134.5C 80.6841,134.826 88.6841,134.492 96.5,133.5 Z"/></g>
<g><path style="opacity:0.973" fill="#31a0e7" d="M 79.5,165.5 C 91.3362,168.208 103.003,171.375 114.5,175C 110.052,181.782 105.219,188.282 100,194.5C 94.2414,186.652 88.2414,178.985 82,171.5C 80.4412,169.783 79.6079,167.783 79.5,165.5 Z"/></g>
</svg>
