<?xml version="1.0" encoding="UTF-8"?>
<!DOCTYPE svg PUBLIC "-//W3C//DTD SVG 1.1//EN" "http://www.w3.org/Graphics/SVG/1.1/DTD/svg11.dtd">
<svg xmlns="http://www.w3.org/2000/svg" version="1.1" width="230px" height="168px" style="shape-rendering:geometricPrecision; text-rendering:geometricPrecision; image-rendering:optimizeQuality; fill-rule:evenodd; clip-rule:evenodd" xmlns:xlink="http://www.w3.org/1999/xlink">
<g><path style="opacity:0.914" fill="#fefffe" d="M 37.5,-0.5 C 39.1667,-0.5 40.8333,-0.5 42.5,-0.5C 45.225,2.06457 45.8916,5.06457 44.5,8.5C 11.2448,41.2002 2.74476,79.5336 19,123.5C 25.4073,137.224 34.0739,149.224 45,159.5C 46.2199,163.293 45.0532,165.96 41.5,167.5C 40.1667,167.5 38.8333,167.5 37.5,167.5C 16.9869,148.477 4.32022,125.144 -0.5,97.5C -0.5,88.1667 -0.5,78.8333 -0.5,69.5C 4.33669,41.8206 17.0034,18.4873 37.5,-0.5 Z"/></g>
<g><path style="opacity:0.913" fill="#fefffe" d="M 186.5,-0.5 C 188.167,-0.5 189.833,-0.5 191.5,-0.5C 211.997,18.4873 224.663,41.8206 229.5,69.5C 229.5,78.8333 229.5,88.1667 229.5,97.5C 224.683,125.137 212.016,148.47 191.5,167.5C 190.167,167.5 188.833,167.5 187.5,167.5C 183.947,165.96 182.78,163.293 184,159.5C 216.023,128.397 225.357,91.3972 212,48.5C 206.042,32.9028 196.875,19.5695 184.5,8.5C 183.108,5.06457 183.775,2.06457 186.5,-0.5 Z"/></g>
<g><path style="opacity:0.906" fill="#fefffe" d="M 57.5,24.5 C 61.8558,24.1834 64.5225,26.1834 65.5,30.5C 58.4281,38.3036 52.5947,46.9703 48,56.5C 39.6861,77.7907 41.0194,98.4574 52,118.5C 56.3832,124.773 60.8832,130.939 65.5,137C 63.7327,142.216 60.3993,143.55 55.5,141C 30.6794,114.587 24.846,84.4201 38,50.5C 42.8296,40.474 49.3296,31.8073 57.5,24.5 Z"/></g>
<g><path style="opacity:0.91" fill="#fefffe" d="M 167.5,24.5 C 172.064,24.55 175.564,26.55 178,30.5C 199.003,56.525 203.336,85.1917 191,116.5C 186.331,125.502 180.497,133.669 173.5,141C 168.601,143.55 165.267,142.216 163.5,137C 168.117,130.939 172.617,124.773 177,118.5C 190.698,92.3396 189.365,67.0063 173,42.5C 169.643,38.6438 166.476,34.6438 163.5,30.5C 164.361,28.0894 165.694,26.0894 167.5,24.5 Z"/></g>
<g><path style="opacity:0.942" fill="#fefffe" d="M 132.5,29.5 C 133.649,29.7911 134.316,30.6244 134.5,32C 130.063,46.5857 125.396,61.0857 120.5,75.5C 129.833,80.1667 139.167,84.8333 148.5,89.5C 129.483,105.847 110.15,121.847 90.5,137.5C 89.3861,136.277 89.2195,134.944 90,133.5C 96.3316,119.331 102.165,104.998 107.5,90.5C 99.4196,87.6298 91.4196,84.4632 83.5,81C 82.09,80.6322 81.09,79.7989 80.5,78.5C 97.8537,62.145 115.187,45.8117 132.5,29.5 Z"/></g>
</svg>
