<?xml version="1.0" encoding="UTF-8"?>
<!DOCTYPE svg PUBLIC "-//W3C//DTD SVG 1.1//EN" "http://www.w3.org/Graphics/SVG/1.1/DTD/svg11.dtd">
<svg xmlns="http://www.w3.org/2000/svg" version="1.1" width="182px" height="206px" style="shape-rendering:geometricPrecision; text-rendering:geometricPrecision; image-rendering:optimizeQuality; fill-rule:evenodd; clip-rule:evenodd" xmlns:xlink="http://www.w3.org/1999/xlink">
<g><path style="opacity:0.87" fill="#fefffe" d="M 64.5,-0.5 C 81.5,-0.5 98.5,-0.5 115.5,-0.5C 117.2,1.20994 118.533,3.20994 119.5,5.5C 118.968,7.74108 117.635,9.24108 115.5,10C 98.5,10.6667 81.5,10.6667 64.5,10C 60.5503,6.55058 60.5503,3.05058 64.5,-0.5 Z"/></g>
<g><path style="opacity:0.903" fill="#fefffe" d="M 181.5,105.5 C 181.5,111.833 181.5,118.167 181.5,124.5C 172.026,169.641 144.693,196.641 99.5,205.5C 93.5,205.5 87.5,205.5 81.5,205.5C 36.2801,196.613 8.94676,169.613 -0.5,124.5C -0.5,117.833 -0.5,111.167 -0.5,104.5C 7.37487,63.1222 31.7082,36.9555 72.5,26C 119.2,19.7637 153.034,37.597 174,79.5C 177.083,88.1389 179.583,96.8055 181.5,105.5 Z M 76.5,35.5 C 117.838,31.5772 147.338,48.2439 165,85.5C 176.803,122.073 168.303,152.906 139.5,178C 111.072,197.548 81.4056,199.548 50.5,184C 14.9833,159.791 3.48334,126.958 16,85.5C 27.6488,58.3368 47.8155,41.6701 76.5,35.5 Z"/></g>
<g><path style="opacity:0.906" fill="#fefffe" d="M 88.5,51.5 C 90.9363,51.317 93.103,51.9837 95,53.5C 95.4999,72.1637 95.6666,90.8304 95.5,109.5C 109.837,109.333 124.171,109.5 138.5,110C 142.928,114.953 141.928,118.287 135.5,120C 120.5,120.667 105.5,120.667 90.5,120C 88.6711,119.727 87.1711,118.893 86,117.5C 85.3333,96.1667 85.3333,74.8333 86,53.5C 86.9947,52.9341 87.828,52.2674 88.5,51.5 Z"/></g>
</svg>
