<?xml version="1.0" encoding="UTF-8"?>
<!DOCTYPE svg PUBLIC "-//W3C//DTD SVG 1.1//EN" "http://www.w3.org/Graphics/SVG/1.1/DTD/svg11.dtd">
<svg xmlns="http://www.w3.org/2000/svg" version="1.1" width="144px" height="166px" style="shape-rendering:geometricPrecision; text-rendering:geometricPrecision; image-rendering:optimizeQuality; fill-rule:evenodd; clip-rule:evenodd" xmlns:xlink="http://www.w3.org/1999/xlink">
<g><path style="opacity:0.957" fill="#fefffe" d="M 128.5,-0.5 C 130.5,-0.5 132.5,-0.5 134.5,-0.5C 138.12,1.45279 141.12,4.11945 143.5,7.5C 143.5,9.83333 143.5,12.1667 143.5,14.5C 140.971,18.1888 137.638,21.0221 133.5,23C 99.8413,41.494 66.508,60.494 33.5,80C 67.5,101 101.5,122 135.5,143C 138.692,145.028 141.359,147.528 143.5,150.5C 143.5,152.833 143.5,155.167 143.5,157.5C 141.12,160.881 138.12,163.547 134.5,165.5C 132.5,165.5 130.5,165.5 128.5,165.5C 87.8999,139.524 46.8999,114.024 5.5,89C 3.58366,86.91 1.58366,85.0767 -0.5,83.5C -0.5,80.8333 -0.5,78.1667 -0.5,75.5C 1.50007,73.0284 3.8334,70.8617 6.5,69C 47.3919,46.0591 88.0586,22.8925 128.5,-0.5 Z"/></g>
</svg>
