<?xml version="1.0" encoding="UTF-8" standalone="no"?>
<svg
   version="1.1"
   viewBox="0 0 196 208"
   id="svg52"
   sodipodi:docname="count_foe_in_blast.svg"
   inkscape:version="1.2.2 (b0a8486541, 2022-12-01)"
   xml:space="preserve"
   xmlns:inkscape="http://www.inkscape.org/namespaces/inkscape"
   xmlns:sodipodi="http://sodipodi.sourceforge.net/DTD/sodipodi-0.dtd"
   xmlns="http://www.w3.org/2000/svg"
   xmlns:svg="http://www.w3.org/2000/svg"><defs
     id="defs56" /><sodipodi:namedview
     id="namedview54"
     pagecolor="#505050"
     bordercolor="#eeeeee"
     borderopacity="1"
     inkscape:showpageshadow="0"
     inkscape:pageopacity="0"
     inkscape:pagecheckerboard="0"
     inkscape:deskcolor="#505050"
     showgrid="false"
     inkscape:zoom="4.2099482"
     inkscape:cx="-8.5511742"
     inkscape:cy="164.84764"
     inkscape:window-width="3840"
     inkscape:window-height="2160"
     inkscape:window-x="0"
     inkscape:window-y="0"
     inkscape:window-maximized="1"
     inkscape:current-layer="svg52" /><g
     fill="#c63221"
     id="g20"><path
       d="   M 57.21 132.50   L 55.55 129.69   L 46.21 113.50   L 43.65 109.22   C 43.46 108.87 43.36 108.57 43.37 108.30   C 43.38 107.93 43.57 107.75 43.94 107.75   L 91.32 107.75   C 91.72 107.75 91.82 107.92 91.62 108.26   L 67.91 149.39   C 67.62 149.88 67.34 149.88 67.05 149.39   L 57.21 132.50   Z"
       id="path16" /><path
       d="   M 152.50 147.04   L 152.54 147.75   L 140.46 168.75   L 136.54 175.50   L 129.20 188.14   C 128.71 188.97 128.23 188.97 127.76 188.12   L 125.24 183.64   L 121.29 176.75   L 104.38 147.48   A 0.34 0.34 0.0 0 1 104.68 146.97   L 152.50 147.04   Z"
       id="path18" /></g><g
     fill="#ffffff"
     id="g42"><path
       d="m 100.11449,127.32471 a 2.12,2.12 0 0 1 -2.134799,2.1051 l -0.2399,-0.002 a 2.12,2.12 0 0 1 -2.1052,-2.1347 l 0.0451,-6.4599 a 2.12,2.12 0 0 1 2.1348,-2.1051 l 0.2399,0.002 a 2.12,2.12 0 0 1 2.105199,2.1347 z"
       id="path36-3" /><path
       d="   M 77.15 0.28   A 0.62 0.62 0.0 0 1 77.76 0.90   L 77.79 18.78   A 0.27 0.27 0.0 0 1 77.28 18.91   L 67.21 0.92   C 66.96 0.46 67.09 0.23 67.61 0.24   L 77.15 0.28   Z"
       id="path22" /><path
       d="   M 114.36 7.29   A 0.71 0.71 0.0 0 1 113.65 8.00   L 82.31 8.00   A 0.71 0.71 0.0 0 1 81.60 7.29   L 81.60 0.97   A 0.71 0.71 0.0 0 1 82.31 0.26   L 113.65 0.26   A 0.71 0.71 0.0 0 1 114.36 0.97   L 114.36 7.29   Z"
       id="path24" /><path
       d="   M 118.54 0.25   L 128.61 0.25   A 0.31 0.31 0.0 0 1 128.88 0.71   L 118.79 18.80   A 0.31 0.31 0.0 0 1 118.21 18.65   L 118.23 0.56   A 0.31 0.31 0.0 0 1 118.54 0.25   Z"
       id="path26" /><path
       d="   M 112.92 39.82   C 107.10 53.24 87.55 52.68 82.63 38.81   C 82.05 37.17 81.76 34.41 81.77 30.53   C 81.78 24.11 81.74 17.63 81.67 11.09   C 81.66 10.70 81.86 10.50 82.25 10.50   L 113.74 10.50   C 114.13 10.50 114.32 10.69 114.31 11.08   C 114.26 17.87 114.24 24.62 114.23 31.32   C 114.22 34.99 113.79 37.83 112.92 39.82   Z"
       id="path28" /><path
       d="   M 100.2331 64.6717   A 2.13 2.13 0.0 0 1 98.0920 66.7906   L 97.8520 66.7893   A 2.13 2.13 0.0 0 1 95.7332 64.6482   L 95.7669 58.2083   A 2.13 2.13 0.0 0 1 97.9080 56.0894   L 98.1480 56.0907   A 2.13 2.13 0.0 0 1 100.2668 58.2318   L 100.2331 64.6717   Z"
       id="path30" /><path
       d="   M 100.1553 80.5229   A 2.10 2.10 0.0 0 1 98.0334 82.6008   L 97.8335 82.5987   A 2.10 2.10 0.0 0 1 95.7556 80.4768   L 95.8247 73.8771   A 2.10 2.10 0.0 0 1 97.9466 71.7992   L 98.1465 71.8013   A 2.10 2.10 0.0 0 1 100.2244 73.9232   L 100.1553 80.5229   Z"
       id="path32" /><path
       d="   M 100.21 96.05   A 2.12 2.12 0.0 0 1 98.09 98.17   L 97.91 98.17   A 2.12 2.12 0.0 0 1 95.79 96.05   L 95.79 89.45   A 2.12 2.12 0.0 0 1 97.91 87.33   L 98.09 87.33   A 2.12 2.12 0.0 0 1 100.21 89.45   L 100.21 96.05   Z"
       id="path34" /><path
       d="   M 100.2074 111.6256   A 2.12 2.12 0.0 0 1 98.0726 113.7307   L 97.8327 113.7290   A 2.12 2.12 0.0 0 1 95.7275 111.5943   L 95.7726 105.1344   A 2.12 2.12 0.0 0 1 97.9074 103.0293   L 98.1473 103.0310   A 2.12 2.12 0.0 0 1 100.2525 105.1657   L 100.2074 111.6256   Z"
       id="path36" /><path
       d="   M 100.21 143.03   A 2.12 2.12 0.0 0 1 98.09 145.15   L 97.91 145.15   A 2.12 2.12 0.0 0 1 95.79 143.03   L 95.79 136.43   A 2.12 2.12 0.0 0 1 97.91 134.31   L 98.09 134.31   A 2.12 2.12 0.0 0 1 100.21 136.43   L 100.21 143.03   Z"
       id="path40" /></g><g
     fill="white"
     fill-opacity="0.11"
     id="g50"
     transform="translate(0.04991155,-0.16306308)"><path
       d="m 43.65,109.22 c 1.866604,2.95989 2.703952,4.34431 3.958138,6.50543 0.17,0.43 -2.008138,1.03457 -2.428138,1.22457 -4.31,1.87 -7.47,3.63 -12.63,6.24 -14.18,7.16 -29.18,22.83 -21.87,39.58 2.26,5.17 5.89,9.74 10.9,13.71 3.52,2.79 6.28,5.17 9.67,7 15.33,8.31 31.66,13.25 48.97,14.8 25.55,2.29 51.42,-0.01 75.16,-10.08 6.5,-2.75 12.53,-6.32 18.09,-10.71 4.65,-3.67 8.49,-8.4 11.52,-14.19 2.55,-4.89 3,-9.81 1.35,-14.75 -1.37857,-3.87853 -1.58738,-3.77151 -2.99,-7.34 -1.6,-4.55 -9.18,-11.68 -14.14,-14.61 -2.23,-1.31 -4.4,-2.93 -6.62,-4.04 -13.21,-6.59 -27.14,-10.8 -41.77,-12.62 -4.99,-0.62 -11.83,-1.74 -17.93,-1.67 -0.36,0 -2.63894,0.0947 -2.64894,-0.26531 -0.254324,-3.49031 0.68954,-3.32495 -1.440454,-4.91495 -0.02297,-0.0169 -0.535605,-0.33202 -1.729051,0.10929 -1.345524,0.49755 -1.289591,1.60341 -1.278776,2.34485 0.03549,2.43302 0.15864,2.42155 -0.696506,2.42165 -20.10181,0.002 -39.272167,-0.1513 -45.538829,-0.21167 -1.334183,-0.0129 -2.652658,0.0854 -2.648123,0.0508 0.06477,-0.49398 22.406761,-4.29461 29.826438,-5.45254 9.373426,-1.08584 23.586001,-1.74748 28.568431,-1.59896 12.51,0.65 24.79581,1.7268 36.94581,4.7768 1.99,0.5 4.71,1.73 7.12,2.44 11.87,3.53 20.07,8.37 30.42,15.85 2.05983,1.50367 2.42304,1.76628 4.01,3.78 2.95,3.22 5.6668,6.66756 7.8768,10.41756 1.01,1.72 1.03885,2.54616 2.38,6.02 2.77471,7.00043 0.3332,19.03244 -2.7268,25.52244 -0.13,0.29 -0.34,0.53 -0.61,0.7 -0.49,0.31 -0.73,0.76 -0.72,1.36 0.01,0.33 -0.09,0.63 -0.29,0.89 -7.54,9.83 -17.01,17.27 -28.4,22.32 -16.16,7.18 -30.16,9.83 -48.31,12.23 -4.85,0.64 -14.01,0.69 -27.48,0.15 -2.47,-0.1 -4.97,-0.78 -7.01,-0.96 -8.9,-0.79 -17.65,-2.38 -26.25,-4.76 -9.17,-2.53 -18.62,-6.67 -28.35,-12.41 -1.89,-1.11 -3.17,-1.99 -3.86,-2.62 -3.11,-2.87 -6.91,-5.61 -9.44,-8.55 -8.13,-9.46 -11.58,-20.54 -8.74,-32.88 0.56,-2.44 1.98,-4.84 3.07,-7.27 0.49,-1.08 1.01,-2 1.54,-2.77 8.4,-11.94 19.1,-18.5 32.29,-24.22 2.18,-0.95 3.81,-1.46 4.88,-1.55 z"
       id="path44"
       sodipodi:nodetypes="cccccccccccccccccccssssscccccccccccccccccccccccccc" /><path
       d="m 136.54,175.5 3.01077,-5.19003 C 140.58758,169.68281 140.71,169.61 140.95,169.44 c 3.5,-2.41 6.7,-5.15 9.6,-8.22 1.29,-1.36 1.54,-3.12 2.48,-4.77 0.16,-0.29 0.24,-0.6 0.23,-0.93 0.39253,-4.05942 0.2447,-4.88116 -0.72,-7.77 l -0.04,-0.71 c -2.1488,-2.89593 -4.25779,-4.4532 -7.11638,-6.18506 C 141.60358,138.62122 132.66,134.27 128.9,133.18 c -8.81,-2.54 -17.02,-4.15 -25.89,-4.1 -0.94712,0.0536 -3.059202,0.20736 -4.001502,0.27552 -0.08185,0.006 0.4085,-0.54388 0.864981,-0.97667 0.320381,-0.30376 0.173141,-5.75196 0.222421,-6.01183 l 0.009,-1.12877 c 1.13023,-0.28814 1.67201,-0.32817 2.71426,-0.40825 3.52,-0.31 6.15,0.5 9.35,0.63 7.07,0.28 14.21,2.29 20.96,4.34 1.19,0.36 1.99744,0.87446 4.45,1.81 3.34,0.47 10.43,4.99 13,7.27 1.29,1.14 2.99,1.86 4.09,3.01 15.59,16.3 2.42,33.63 -13.9,40.62 -1.6,0.69 -2.41701,0.94364 -5.29,1.98 -2.11365,0.57272 -1.51881,0.3554 -2.17445,0.57023 1.08736,-2.01932 1.99928,-3.36304 3.23445,-5.56023 z"
       id="path46"
       sodipodi:nodetypes="cccccccccccssccccccccccccc" /><path
       d="m 90.669939,130.02759 c -0.721381,0.0872 -1.941888,0.22534 -3.985984,0.49481 -3.520992,0.46416 -8.154464,1.58466 -8.75065,1.62778 3.307991,-5.95115 3.320329,-5.78216 5.712882,-9.95443 1.30008,-0.24849 3.349957,-0.44582 5.327997,-0.72742 6.22097,-0.23927 1.047737,-0.10861 5.564258,-0.19545 1.020039,-0.037 1.112768,-0.30524 1.102002,0.36934 -0.01702,1.06675 -0.04674,4.29837 -0.0651,5.74546 -0.0044,0.34472 0.07459,0.65864 0.202012,0.93988 0.139831,0.30864 0.294149,0.51657 0.504577,0.74403 0.277945,0.30044 1.534582,0.7229 1.107484,0.50272 -1.123672,-0.0611 -3.836005,-0.0149 -6.719478,0.45328 z"
       id="path46-6"
       sodipodi:nodetypes="csccccsssscc" /><path
       d="m 55.55,129.69 c 2.320622,3.92824 2.703204,4.5962 3.796058,6.53951 0.201589,0.35847 -1.713219,1.03179 -2.466058,1.33049 -5.21,2.27 -9.25,5.5 -12.12,9.7 -6.14,8.95 2.78,17.84 10.21,21.74 6.99,3.66 14.32,6.34 22,8.04 13.637673,2.02615 28.75431,1.32626 40.86,0.17 2.51259,-0.20045 -0.60679,0.11287 3.46,-0.46 l 3.95,6.89 c -3.5309,0.8712 -6.6907,1.54799 -10.25,2.08 -10.29,1.61 -21.36,1.7 -33.23,0.27 -13.75,-1.66 -25.58,-5.81 -35.5,-12.45 -4.47,-3 -8.1,-7.63 -10.89,-13.88 -0.982919,-1.94685 -0.847591,-2.21483 -1.14,-3.83 0.11,-4.37 0.76,-7.83 1.97,-10.38 3.74,-7.89 10.19,-13.15 19.35,-15.76 z"
       id="path48"
       sodipodi:nodetypes="cscccccccccccccc" /></g></svg>
