<?xml version="1.0" encoding="UTF-8"?>
<!DOCTYPE svg PUBLIC "-//W3C//DTD SVG 1.1//EN" "http://www.w3.org/Graphics/SVG/1.1/DTD/svg11.dtd">
<svg xmlns="http://www.w3.org/2000/svg" version="1.1" width="200px" height="200px" style="shape-rendering:geometricPrecision; text-rendering:geometricPrecision; image-rendering:optimizeQuality; fill-rule:evenodd; clip-rule:evenodd" xmlns:xlink="http://www.w3.org/1999/xlink">
<g><path style="opacity:0.843" fill="#4d7f9f" d="M 66.5,-0.5 C 67.5,-0.5 68.5,-0.5 69.5,-0.5C 70.4553,5.40926 70.7886,11.4093 70.5,17.5C 68.8333,18.8333 67.1667,18.8333 65.5,17.5C 65.2114,11.4093 65.5447,5.40926 66.5,-0.5 Z"/></g>
<g><path style="opacity:0.843" fill="#4d7f9f" d="M 129.5,-0.5 C 130.5,-0.5 131.5,-0.5 132.5,-0.5C 133.455,5.40926 133.789,11.4093 133.5,17.5C 131.833,18.8333 130.167,18.8333 128.5,17.5C 128.211,11.4093 128.545,5.40926 129.5,-0.5 Z"/></g>
<g><path style="opacity:0.902" fill="#fefefe" d="M 65.5,17.5 C 67.1667,18.8333 68.8333,18.8333 70.5,17.5C 89.8333,17.5 109.167,17.5 128.5,17.5C 130.167,18.8333 131.833,18.8333 133.5,17.5C 147.171,17.3334 160.837,17.5001 174.5,18C 175.308,18.3076 175.975,18.8076 176.5,19.5C 177.484,34.7851 177.817,50.1185 177.5,65.5C 177.5,67.1667 177.5,68.8333 177.5,70.5C 177.5,89.8333 177.5,109.167 177.5,128.5C 177.5,130.167 177.5,131.833 177.5,133.5C 177.667,147.504 177.5,161.504 177,175.5C 176.25,176.126 175.416,176.626 174.5,177C 160.837,177.5 147.171,177.667 133.5,177.5C 131.833,176.167 130.167,176.167 128.5,177.5C 109.167,177.5 89.8333,177.5 70.5,177.5C 68.8333,176.167 67.1667,176.167 65.5,177.5C 50.0704,177.968 34.7371,177.468 19.5,176C 18.5098,161.912 18.1765,147.745 18.5,133.5C 18.5,131.833 18.5,130.167 18.5,128.5C 18.5,109.167 18.5,89.8333 18.5,70.5C 18.5,68.8333 18.5,67.1667 18.5,65.5C 18.3334,50.4963 18.5001,35.4963 19,20.5C 19.8333,19.6667 20.6667,18.8333 21.5,18C 36.1629,17.5001 50.8295,17.3334 65.5,17.5 Z M 65.5,27.5 C 65.5,36.1667 65.5,44.8333 65.5,53.5C 57.1401,53.1688 48.8068,53.5021 40.5,54.5C 42.2583,58.3538 44.2583,62.0205 46.5,65.5C 40.1667,65.5 33.8333,65.5 27.5,65.5C 27.5,52.8333 27.5,40.1667 27.5,27.5C 40.1667,27.5 52.8333,27.5 65.5,27.5 Z M 70.5,27.5 C 89.8333,27.5 109.167,27.5 128.5,27.5C 128.5,36.1667 128.5,44.8333 128.5,53.5C 121.137,53.1694 113.803,53.5027 106.5,54.5C 108.779,58.0608 110.779,61.7274 112.5,65.5C 102.833,65.5 93.1667,65.5 83.5,65.5C 85.2212,61.7274 87.2212,58.0608 89.5,54.5C 83.2015,53.5037 76.8682,53.1703 70.5,53.5C 70.5,44.8333 70.5,36.1667 70.5,27.5 Z M 133.5,27.5 C 145.167,27.5 156.833,27.5 168.5,27.5C 168.5,40.1667 168.5,52.8333 168.5,65.5C 162.167,65.5 155.833,65.5 149.5,65.5C 151.697,61.6112 154.03,57.7779 156.5,54C 148.841,53.5003 141.174,53.3336 133.5,53.5C 133.5,44.8333 133.5,36.1667 133.5,27.5 Z M 27.5,70.5 C 34.8333,70.5 42.1667,70.5 49.5,70.5C 54.346,79.5372 59.6793,88.2038 65.5,96.5C 65.5,107.167 65.5,117.833 65.5,128.5C 52.8333,128.5 40.1667,128.5 27.5,128.5C 27.5,109.167 27.5,89.8333 27.5,70.5 Z M 79.5,70.5 C 91.8333,70.5 104.167,70.5 116.5,70.5C 120.488,77.8063 124.488,85.1396 128.5,92.5C 128.5,104.5 128.5,116.5 128.5,128.5C 123.5,128.5 118.5,128.5 113.5,128.5C 117.033,122.768 120.033,116.768 122.5,110.5C 106.167,110.5 89.8333,110.5 73.5,110.5C 76.4789,116.458 79.4789,122.458 82.5,128.5C 78.5,128.5 74.5,128.5 70.5,128.5C 70.5,114.833 70.5,101.167 70.5,87.5C 73.7674,81.9647 76.7674,76.2981 79.5,70.5 Z M 146.5,70.5 C 153.833,70.5 161.167,70.5 168.5,70.5C 168.5,89.8333 168.5,109.167 168.5,128.5C 156.833,128.5 145.167,128.5 133.5,128.5C 133.5,116.833 133.5,105.167 133.5,93.5C 138.087,85.9955 142.42,78.3288 146.5,70.5 Z M 27.5,133.5 C 40.1667,133.5 52.8333,133.5 65.5,133.5C 65.5,144.833 65.5,156.167 65.5,167.5C 52.8333,167.5 40.1667,167.5 27.5,167.5C 27.5,156.167 27.5,144.833 27.5,133.5 Z M 86.5,133.5 C 89.4858,140.81 93.4858,147.477 98.5,153.5C 102.526,146.77 106.526,140.103 110.5,133.5C 116.5,133.5 122.5,133.5 128.5,133.5C 128.5,144.833 128.5,156.167 128.5,167.5C 109.167,167.5 89.8333,167.5 70.5,167.5C 70.5,156.167 70.5,144.833 70.5,133.5C 75.8333,133.5 81.1667,133.5 86.5,133.5 Z M 168.5,133.5 C 168.5,144.833 168.5,156.167 168.5,167.5C 156.833,167.5 145.167,167.5 133.5,167.5C 133.5,156.167 133.5,144.833 133.5,133.5C 145.167,133.5 156.833,133.5 168.5,133.5 Z"/></g>
<g><path style="opacity:0.857" fill="#4c7f9e" d="M 70.5,27.5 C 70.5,36.1667 70.5,44.8333 70.5,53.5C 68.8333,53.5 67.1667,53.5 65.5,53.5C 65.5,44.8333 65.5,36.1667 65.5,27.5C 67.2837,26.2801 68.9504,26.2801 70.5,27.5 Z"/></g>
<g><path style="opacity:0.857" fill="#4d7f9f" d="M 133.5,27.5 C 133.5,36.1667 133.5,44.8333 133.5,53.5C 131.833,53.5 130.167,53.5 128.5,53.5C 128.5,44.8333 128.5,36.1667 128.5,27.5C 130.167,26.1667 131.833,26.1667 133.5,27.5 Z"/></g>
<g><path style="opacity:0.988" fill="#c63121" d="M 65.5,53.5 C 67.1667,53.5 68.8333,53.5 70.5,53.5C 76.8682,53.1703 83.2015,53.5037 89.5,54.5C 87.2212,58.0608 85.2212,61.7274 83.5,65.5C 81.9373,66.9448 80.604,68.6115 79.5,70.5C 76.7674,76.2981 73.7674,81.9647 70.5,87.5C 67.5947,89.756 65.928,92.756 65.5,96.5C 59.6793,88.2038 54.346,79.5372 49.5,70.5C 48.8897,68.5659 47.8897,66.8993 46.5,65.5C 44.2583,62.0205 42.2583,58.3538 40.5,54.5C 48.8068,53.5021 57.1401,53.1688 65.5,53.5 Z"/></g>
<g><path style="opacity:0.982" fill="#c63121" d="M 128.5,53.5 C 130.167,53.5 131.833,53.5 133.5,53.5C 141.174,53.3336 148.841,53.5003 156.5,54C 154.03,57.7779 151.697,61.6112 149.5,65.5C 147.75,66.6594 146.75,68.326 146.5,70.5C 142.42,78.3288 138.087,85.9955 133.5,93.5C 132.849,94.0906 132.182,94.7573 131.5,95.5C 130.712,94.2299 129.712,93.2299 128.5,92.5C 124.488,85.1396 120.488,77.8063 116.5,70.5C 115.876,68.246 114.543,66.5794 112.5,65.5C 110.779,61.7274 108.779,58.0608 106.5,54.5C 113.803,53.5027 121.137,53.1694 128.5,53.5 Z"/></g>
<g><path style="opacity:0.842" fill="#4b7d9d" d="M 18.5,65.5 C 18.5,67.1667 18.5,68.8333 18.5,70.5C 12.077,70.7912 5.74365,70.4578 -0.5,69.5C -0.5,68.5 -0.5,67.5 -0.5,66.5C 5.74365,65.5422 12.077,65.2088 18.5,65.5 Z"/></g>
<g><path style="opacity:0.856" fill="#4c7e9d" d="M 27.5,65.5 C 33.8333,65.5 40.1667,65.5 46.5,65.5C 47.8897,66.8993 48.8897,68.5659 49.5,70.5C 42.1667,70.5 34.8333,70.5 27.5,70.5C 27.5,68.8333 27.5,67.1667 27.5,65.5 Z"/></g>
<g><path style="opacity:0.857" fill="#4d7e9d" d="M 83.5,65.5 C 93.1667,65.5 102.833,65.5 112.5,65.5C 114.543,66.5794 115.876,68.246 116.5,70.5C 104.167,70.5 91.8333,70.5 79.5,70.5C 80.604,68.6115 81.9373,66.9448 83.5,65.5 Z"/></g>
<g><path style="opacity:0.845" fill="#4c7e9e" d="M 177.5,65.5 C 184.92,65.2027 192.254,65.536 199.5,66.5C 199.5,67.5 199.5,68.5 199.5,69.5C 192.254,70.464 184.92,70.7973 177.5,70.5C 177.5,68.8333 177.5,67.1667 177.5,65.5 Z"/></g>
<g><path style="opacity:0.857" fill="#4c7d9c" d="M 149.5,65.5 C 155.833,65.5 162.167,65.5 168.5,65.5C 168.5,67.1667 168.5,68.8333 168.5,70.5C 161.167,70.5 153.833,70.5 146.5,70.5C 146.75,68.326 147.75,66.6594 149.5,65.5 Z"/></g>
<g><path style="opacity:0.865" fill="#4d7e9e" d="M 70.5,87.5 C 70.5,101.167 70.5,114.833 70.5,128.5C 74.5,128.5 78.5,128.5 82.5,128.5C 84.1795,129.782 85.5129,131.449 86.5,133.5C 81.1667,133.5 75.8333,133.5 70.5,133.5C 70.5,144.833 70.5,156.167 70.5,167.5C 68.8333,168.833 67.1667,168.833 65.5,167.5C 65.5,156.167 65.5,144.833 65.5,133.5C 52.8333,133.5 40.1667,133.5 27.5,133.5C 27.5,131.833 27.5,130.167 27.5,128.5C 40.1667,128.5 52.8333,128.5 65.5,128.5C 65.5,117.833 65.5,107.167 65.5,96.5C 65.928,92.756 67.5947,89.756 70.5,87.5 Z"/></g>
<g><path style="opacity:0.867" fill="#4d7e9e" d="M 128.5,92.5 C 129.712,93.2299 130.712,94.2299 131.5,95.5C 132.182,94.7573 132.849,94.0906 133.5,93.5C 133.5,105.167 133.5,116.833 133.5,128.5C 145.167,128.5 156.833,128.5 168.5,128.5C 168.5,130.167 168.5,131.833 168.5,133.5C 156.833,133.5 145.167,133.5 133.5,133.5C 133.5,144.833 133.5,156.167 133.5,167.5C 131.833,168.833 130.167,168.833 128.5,167.5C 128.5,156.167 128.5,144.833 128.5,133.5C 122.5,133.5 116.5,133.5 110.5,133.5C 110.273,131.067 111.273,129.401 113.5,128.5C 118.5,128.5 123.5,128.5 128.5,128.5C 128.5,116.5 128.5,104.5 128.5,92.5 Z"/></g>
<g><path style="opacity:0.943" fill="#c63120" d="M 113.5,128.5 C 111.273,129.401 110.273,131.067 110.5,133.5C 106.526,140.103 102.526,146.77 98.5,153.5C 93.4858,147.477 89.4858,140.81 86.5,133.5C 85.5129,131.449 84.1795,129.782 82.5,128.5C 79.4789,122.458 76.4789,116.458 73.5,110.5C 89.8333,110.5 106.167,110.5 122.5,110.5C 120.033,116.768 117.033,122.768 113.5,128.5 Z"/></g>
<g><path style="opacity:0.842" fill="#4a7e9e" d="M 18.5,128.5 C 18.5,130.167 18.5,131.833 18.5,133.5C 12.077,133.791 5.74365,133.458 -0.5,132.5C -0.5,131.5 -0.5,130.5 -0.5,129.5C 5.74365,128.542 12.077,128.209 18.5,128.5 Z"/></g>
<g><path style="opacity:0.846" fill="#4c7e9e" d="M 177.5,128.5 C 184.92,128.203 192.254,128.536 199.5,129.5C 199.5,130.5 199.5,131.5 199.5,132.5C 192.254,133.464 184.92,133.797 177.5,133.5C 177.5,131.833 177.5,130.167 177.5,128.5 Z"/></g>
<g><path style="opacity:0.852" fill="#4c7f9e" d="M 70.5,177.5 C 70.7973,184.92 70.464,192.254 69.5,199.5C 68.5,199.5 67.5,199.5 66.5,199.5C 65.536,192.254 65.2027,184.92 65.5,177.5C 67.1667,176.167 68.8333,176.167 70.5,177.5 Z"/></g>
<g><path style="opacity:0.852" fill="#4c7f9e" d="M 133.5,177.5 C 133.797,184.92 133.464,192.254 132.5,199.5C 131.5,199.5 130.5,199.5 129.5,199.5C 128.536,192.254 128.203,184.92 128.5,177.5C 130.167,176.167 131.833,176.167 133.5,177.5 Z"/></g>
</svg>
