<?xml version="1.0" encoding="UTF-8"?>
<!DOCTYPE svg PUBLIC "-//W3C//DTD SVG 1.1//EN" "http://www.w3.org/Graphics/SVG/1.1/DTD/svg11.dtd">
<svg xmlns="http://www.w3.org/2000/svg" version="1.1" width="68px" height="172px" style="shape-rendering:geometricPrecision; text-rendering:geometricPrecision; image-rendering:optimizeQuality; fill-rule:evenodd; clip-rule:evenodd" xmlns:xlink="http://www.w3.org/1999/xlink">
<g><path style="opacity:0.982" fill="#c63220" d="M 4.5,-0.5 C 23.5,-0.5 42.5,-0.5 61.5,-0.5C 64.2467,1.24275 66.2467,3.57608 67.5,6.5C 67.5,9.5 67.5,12.5 67.5,15.5C 64.9616,45.3462 62.4616,75.3462 60,105.5C 58.4423,107.768 56.2756,108.934 53.5,109C 40.1667,109.667 26.8333,109.667 13.5,109C 8.66667,108.833 6.16667,106.333 6,101.5C 4.20223,73.6497 2.03556,45.983 -0.5,18.5C -0.5,14.1667 -0.5,9.83333 -0.5,5.5C 1.13696,3.52483 2.80363,1.52483 4.5,-0.5 Z"/></g>
<g><path style="opacity:0.969" fill="#c63120" d="M 51.5,171.5 C 39.5,171.5 27.5,171.5 15.5,171.5C 12.3932,168.96 10.5599,165.627 10,161.5C 9.36949,152.634 8.53616,143.8 7.5,135C 7.73495,131.601 9.40162,129.268 12.5,128C 26.5,127.333 40.5,127.333 54.5,128C 56.3333,128.5 57.5,129.667 58,131.5C 58.4402,142.888 57.7735,154.221 56,165.5C 54.668,167.66 53.168,169.66 51.5,171.5 Z"/></g>
</svg>
