<?xml version="1.0" encoding="UTF-8"?>
<!DOCTYPE svg PUBLIC "-//W3C//DTD SVG 1.1//EN" "http://www.w3.org/Graphics/SVG/1.1/DTD/svg11.dtd">
<svg xmlns="http://www.w3.org/2000/svg" version="1.1" width="230px" height="208px" style="shape-rendering:geometricPrecision; text-rendering:geometricPrecision; image-rendering:optimizeQuality; fill-rule:evenodd; clip-rule:evenodd" xmlns:xlink="http://www.w3.org/1999/xlink">
<g><path style="opacity:0.941" fill="#fefffe" d="M 226.5,-0.5 C 227.167,-0.5 227.833,-0.5 228.5,-0.5C 223.319,9.35914 217.985,19.1925 212.5,29C 217.91,32.3716 223.577,35.2049 229.5,37.5C 229.5,38.1667 229.5,38.8333 229.5,39.5C 222.551,41.0384 215.885,43.3717 209.5,46.5C 213.885,55.2221 217.551,63.8887 220.5,72.5C 213.086,67.376 205.586,62.376 198,57.5C 195.068,62.3768 191.901,67.0435 188.5,71.5C 185.179,66.871 181.846,62.2043 178.5,57.5C 170.084,60.9723 161.75,64.639 153.5,68.5C 153.167,68.1667 152.833,67.8333 152.5,67.5C 157.71,59.58 163.043,51.7467 168.5,44C 162.377,41.7709 156.377,39.2709 150.5,36.5C 156.641,32.9282 162.974,29.5949 169.5,26.5C 164.667,18.8333 159.833,11.1667 155,3.5C 154.312,2.66828 154.479,2.00161 155.5,1.5C 163.418,6.37519 171.251,11.3752 179,16.5C 181.231,11.0373 183.731,5.70399 186.5,0.5C 190.48,5.11268 193.98,10.1127 197,15.5C 207.103,10.5341 216.936,5.20075 226.5,-0.5 Z"/></g>
<g><path style="opacity:0.925" fill="#fefffe" d="M 165.5,207.5 C 163.5,207.5 161.5,207.5 159.5,207.5C 157.981,206.59 156.315,205.757 154.5,205C 140.986,191.319 127.319,177.819 113.5,164.5C 76.751,183.292 44.251,177.625 16,147.5C 7.66698,135.98 2.16698,123.314 -0.5,109.5C -0.5,103.167 -0.5,96.8333 -0.5,90.5C 10.3448,44.853 39.3448,23.353 86.5,26C 125.648,35.4499 146.648,60.2832 149.5,100.5C 149.183,116.952 144.183,131.785 134.5,145C 148.363,158.529 161.863,172.362 175,186.5C 178.27,196.554 175.103,203.554 165.5,207.5 Z M 65.5,35.5 C 101.6,33.4606 125.433,49.4606 137,83.5C 143.816,120.706 129.982,146.873 95.5,162C 57.8443,171.087 30.6777,158.253 14,123.5C 3.53737,84.5059 16.3707,56.3393 52.5,39C 56.9191,37.6476 61.2524,36.481 65.5,35.5 Z"/></g>
<g><path style="opacity:0.482" fill="#c63121" d="M 126.5,72.5 C 93.0557,70.5178 59.389,69.8511 25.5,70.5C 25.5,72.5 25.5,74.5 25.5,76.5C 23.8338,74.8132 22.5005,72.8132 21.5,70.5C 56.8333,69.1667 92.1667,69.1667 127.5,70.5C 127.137,71.1835 126.804,71.8501 126.5,72.5 Z"/></g>
<g><path style="opacity:0.988" fill="#c63121" d="M 126.5,72.5 C 109.416,102.339 92.0823,132.005 74.5,161.5C 57.3851,133.602 41.0518,105.268 25.5,76.5C 25.5,74.5 25.5,72.5 25.5,70.5C 59.389,69.8511 93.0557,70.5178 126.5,72.5 Z"/></g>
</svg>
