<?xml version="1.0" encoding="UTF-8"?>
<!DOCTYPE svg PUBLIC "-//W3C//DTD SVG 1.1//EN" "http://www.w3.org/Graphics/SVG/1.1/DTD/svg11.dtd">
<svg xmlns="http://www.w3.org/2000/svg" version="1.1" width="228px" height="201px" style="shape-rendering:geometricPrecision; text-rendering:geometricPrecision; image-rendering:optimizeQuality; fill-rule:evenodd; clip-rule:evenodd" xmlns:xlink="http://www.w3.org/1999/xlink">
<g><path style="opacity:0.935" fill="#fefffe" d="M 224.5,-0.5 C 225.5,-0.5 226.5,-0.5 227.5,-0.5C 227.5,0.166667 227.5,0.833333 227.5,1.5C 221.357,10.4367 215.69,19.7701 210.5,29.5C 215.806,32.9871 221.473,35.6538 227.5,37.5C 227.5,38.1667 227.5,38.8333 227.5,39.5C 220.718,41.7048 214.052,44.2048 207.5,47C 211.628,55.4242 215.628,63.9242 219.5,72.5C 219.167,72.8333 218.833,73.1667 218.5,73.5C 211.167,68.5 203.833,63.5 196.5,58.5C 193.167,63.1667 189.833,67.8333 186.5,72.5C 183.5,67.3503 180,62.6837 176,58.5C 167.59,61.6895 159.423,65.3562 151.5,69.5C 151.167,69.1667 150.833,68.8333 150.5,68.5C 155.71,60.58 161.043,52.7467 166.5,45C 160.093,42.8199 154.093,39.9865 148.5,36.5C 154.902,33.4246 161.236,30.2579 167.5,27C 162.75,18.8318 157.75,10.8318 152.5,3C 153.908,2.68475 155.241,3.01809 156.5,4C 162.998,8.41697 169.665,12.5836 176.5,16.5C 179.394,11.716 182.061,6.71601 184.5,1.5C 188.167,6.16667 191.833,10.8333 195.5,15.5C 204.833,10.8333 214.167,6.16667 223.5,1.5C 224.298,1.04311 224.631,0.376442 224.5,-0.5 Z"/></g>
<g><path style="opacity:0.919" fill="#fefffe" d="M 166.5,200.5 C 163.833,200.5 161.167,200.5 158.5,200.5C 143.244,186.581 128.244,172.247 113.5,157.5C 88.4865,171.618 63.1532,172.118 37.5,159C 17.6763,146.677 5.00965,129.177 -0.5,106.5C -0.5,98.1667 -0.5,89.8333 -0.5,81.5C 14.2771,32.2756 46.9438,12.4423 97.5,22C 135.629,37.82 152.463,66.32 148,107.5C 145.809,118.758 141.309,128.925 134.5,138C 148.363,151.529 161.863,165.362 175,179.5C 178.237,189.018 175.404,196.018 166.5,200.5 Z M 73.5,28.5 C 113.549,32.0491 135.549,53.8824 139.5,94C 137.198,126.953 120.198,147.953 88.5,157C 55.0339,161.851 30.5339,149.351 15,119.5C 4.16803,88.3219 11.3347,62.1552 36.5,41C 47.7449,33.3076 60.0783,29.1409 73.5,28.5 Z"/></g>
<g><path style="opacity:0.981" fill="#2aabe8" d="M 117.5,48.5 C 117.157,50.4832 117.824,51.8166 119.5,52.5C 119.5,81.1667 119.5,109.833 119.5,138.5C 89.5,138.5 59.5,138.5 29.5,138.5C 29.5,108.5 29.5,78.5 29.5,48.5C 58.8333,48.5 88.1667,48.5 117.5,48.5 Z"/></g>
<g><path style="opacity:0.857" fill="#3cb4eb" d="M 117.5,48.5 C 119.176,49.1834 119.843,50.5168 119.5,52.5C 117.824,51.8166 117.157,50.4832 117.5,48.5 Z"/></g>
</svg>
