<?xml version="1.0" encoding="UTF-8"?>
<!DOCTYPE svg PUBLIC "-//W3C//DTD SVG 1.1//EN" "http://www.w3.org/Graphics/SVG/1.1/DTD/svg11.dtd">
<svg xmlns="http://www.w3.org/2000/svg" version="1.1" width="228px" height="200px" style="shape-rendering:geometricPrecision; text-rendering:geometricPrecision; image-rendering:optimizeQuality; fill-rule:evenodd; clip-rule:evenodd" xmlns:xlink="http://www.w3.org/1999/xlink">
<g><path style="opacity:0.961" fill="#fefffe" d="M 172.5,-0.5 C 173.167,-0.5 173.833,-0.5 174.5,-0.5C 180.955,1.39404 186.955,4.39404 192.5,8.5C 197.132,4.69253 202.132,1.69253 207.5,-0.5C 209.5,-0.5 211.5,-0.5 213.5,-0.5C 215.598,0.934959 217.931,2.10163 220.5,3C 223.21,5.62776 225.544,8.46109 227.5,11.5C 227.5,14.8333 227.5,18.1667 227.5,21.5C 219.102,37.2417 207.436,50.2417 192.5,60.5C 178.333,50.8358 167.167,38.5025 159,23.5C 155.474,10.8793 159.974,2.87929 172.5,-0.5 Z"/></g>
<g><path style="opacity:0.922" fill="#fefeff" d="M 163.5,199.5 C 162.833,199.5 162.167,199.5 161.5,199.5C 159.115,197.737 156.448,196.237 153.5,195C 140.333,181.833 127.167,168.667 114,155.5C 83.3491,171.978 54.1824,169.811 26.5,149C 12.3826,135.591 3.38258,119.424 -0.5,100.5C -0.5,94.1667 -0.5,87.8333 -0.5,81.5C 10.5537,37.2998 38.887,15.7998 84.5,17C 120.198,23.6982 141.698,44.8648 149,80.5C 151.569,100.223 147.235,118.223 136,134.5C 135.333,135.5 135.333,136.5 136,137.5C 150.063,150.894 163.397,164.894 176,179.5C 177.007,184.111 176.34,188.445 174,192.5C 170.957,195.754 167.457,198.087 163.5,199.5 Z M 28.5,136.5 C 58.5,136.5 88.5,136.5 118.5,136.5C 118.5,106.5 118.5,76.5 118.5,46.5C 88.5,46.5 58.5,46.5 28.5,46.5C 48.5162,27.1666 71.8495,22 98.5,31C 131.242,47.3175 144.075,73.4841 137,109.5C 123.902,144.473 98.735,159.64 61.5,155C 48.6336,151.907 37.6336,145.74 28.5,136.5 Z M 28.5,46.5 C 28.5,76.5 28.5,106.5 28.5,136.5C 10.2382,116.019 5.73817,92.6859 15,66.5C 18.2853,58.9032 22.7853,52.2365 28.5,46.5 Z"/></g>
<g><path style="opacity:0.984" fill="#2aabe8" d="M 28.5,46.5 C 58.5,46.5 88.5,46.5 118.5,46.5C 118.5,76.5 118.5,106.5 118.5,136.5C 88.5,136.5 58.5,136.5 28.5,136.5C 28.5,106.5 28.5,76.5 28.5,46.5 Z"/></g>
</svg>
