<?xml version="1.0" encoding="UTF-8" standalone="no"?>
<!DOCTYPE svg PUBLIC "-//W3C//DTD SVG 1.1//EN" "http://www.w3.org/Graphics/SVG/1.1/DTD/svg11.dtd">
<svg xmlns="http://www.w3.org/2000/svg" version="1.1" viewBox="0 0 196 172">
<path fill="#ffffff" d="
  M 98.19 172.00
  L 97.44 172.00
  C 97.42 171.27 97.18 170.66 96.55 170.20
  C 82.78 160.15 67.89 147.63 51.87 132.64
  C 28.56 110.83 -2.88 75.18 0.90 40.84
  C 4.42 8.82 32.12 -3.80 61.17 3.37
  C 74.77 6.72 86.84 13.18 97.39 22.74
  C 97.67 22.99 97.95 22.99 98.22 22.72
  C 109.83 11.28 123.73 4.23 139.90 1.58
  C 140.23 1.53 140.47 1.36 140.63 1.07
  C 141.37 -0.26 155.67 -0.14 156.92 1.16
  C 157.15 1.40 157.42 1.54 157.75 1.59
  C 189.85 6.37 201.87 37.90 192.35 66.09
  C 185.28 87.00 169.63 106.73 154.15 122.65
  C 137.12 140.17 119.01 155.91 99.83 169.88
  C 99.07 170.43 98.78 171.28 98.19 172.00
  Z
  M 97.86 34.99
  C 82.90 19.64 61.00 7.04 38.56 10.50
  C 8.89 15.08 3.18 46.54 14.04 69.72
  C 19.81 82.04 27.64 93.80 37.51 104.99
  C 55.60 125.48 75.61 143.88 97.54 160.18
  C 97.80 160.37 98.06 160.38 98.31 160.19
  C 122.08 142.62 142.94 123.35 160.89 102.38
  C 174.62 86.33 190.33 61.87 186.30 39.36
  C 183.71 24.86 175.17 14.46 160.71 10.86
  C 137.41 5.07 113.43 16.89 98.69 34.95
  C 98.43 35.27 98.15 35.28 97.86 34.99
  Z"
/>
<g fill="#2bace9">
<path d="
  M 114.38 42.06
  L 120.26 41.88
  A 0.31 0.31 0.0 0 1 120.54 42.35
  L 71.63 119.36
  A 0.31 0.31 0.0 0 1 71.37 119.50
  L 65.48 119.50
  A 0.31 0.31 0.0 0 1 65.22 119.02
  L 114.13 42.21
  A 0.31 0.31 0.0 0 1 114.38 42.06
  Z"
/>
<path d="
  M 62.06 42.09
  C 69.99 41.78 82.96 39.50 85.10 49.31
  C 85.19 49.68 85.31 51.78 85.46 55.59
  C 85.85 65.41 85.72 72.88 85.05 78.00
  C 83.79 87.70 70.78 85.25 64.16 85.25
  C 57.19 85.25 53.60 82.48 53.54 75.50
  C 53.47 68.43 53.47 61.34 53.52 54.25
  C 53.56 47.77 54.77 42.38 62.06 42.09
  Z
  M 79.7598 52.2981
  A 4.74 4.74 0.0 0 0 75.0281 47.5498
  L 63.7881 47.5302
  A 4.74 4.74 0.0 0 0 59.0399 52.2619
  L 59.0002 75.0219
  A 4.74 4.74 0.0 0 0 63.7319 79.7702
  L 74.9719 79.7898
  A 4.74 4.74 0.0 0 0 79.7201 75.0581
  L 79.7598 52.2981
  Z"
/>
<path d="
  M 133.7075 110.7877
  A 8.75 8.75 0.0 0 1 124.9423 119.5224
  L 110.7023 119.4975
  A 8.75 8.75 0.0 0 1 101.9676 110.7323
  L 102.0125 85.0123
  A 8.75 8.75 0.0 0 1 110.7777 76.2776
  L 125.0177 76.3025
  A 8.75 8.75 0.0 0 1 133.7524 85.0677
  L 133.7075 110.7877
  Z
  M 128.23 86.95
  A 5.19 5.19 0.0 0 0 123.04 81.76
  L 112.68 81.76
  A 5.19 5.19 0.0 0 0 107.49 86.95
  L 107.49 109.05
  A 5.19 5.19 0.0 0 0 112.68 114.24
  L 123.04 114.24
  A 5.19 5.19 0.0 0 0 128.23 109.05
  L 128.23 86.95
  Z"
/>
</g>
</svg>
