<?xml version="1.0" encoding="UTF-8" standalone="no"?>
<svg
   version="1.1"
   viewBox="0 0 190 113"
   id="svg28"
   sodipodi:docname="out_of_zone.svg"
   inkscape:version="1.2.2 (b0a8486541, 2022-12-01)"
   xmlns:inkscape="http://www.inkscape.org/namespaces/inkscape"
   xmlns:sodipodi="http://sodipodi.sourceforge.net/DTD/sodipodi-0.dtd"
   xmlns="http://www.w3.org/2000/svg"
   xmlns:svg="http://www.w3.org/2000/svg">
  <defs
     id="defs32" />
  <sodipodi:namedview
     id="namedview30"
     pagecolor="#505050"
     bordercolor="#eeeeee"
     borderopacity="1"
     inkscape:showpageshadow="0"
     inkscape:pageopacity="0"
     inkscape:pagecheckerboard="0"
     inkscape:deskcolor="#505050"
     showgrid="false"
     inkscape:zoom="8.0845785"
     inkscape:cx="79.286755"
     inkscape:cy="12.245536"
     inkscape:window-width="3840"
     inkscape:window-height="2160"
     inkscape:window-x="0"
     inkscape:window-y="0"
     inkscape:window-maximized="1"
     inkscape:current-layer="svg28" />
  <path
     fill="#ffffff"
     fill-opacity="0.11"
     d="m 154.21716,12.737121 c 4.76405,1.682817 16.83273,7.533546 20.78218,10.924195 0.22056,0.189352 -1.69014,3.929513 -1.56013,4.199513 -2.62462,2.73425 -1.04052,1.082711 -4.87574,4.996293 -24.15767,23.26218 -28.26417,28.27044 -70.520412,70.338608 -3.95209,2.97213 1.36376,2.39417 -3.20491,-0.0116 C 45.761293,54.314662 38.973722,47.752932 17.605039,26.435204 c -0.27,-0.27 -0.34,-0.58 -0.22,-0.94 l -3.40432,-3.474412 C 18.109814,19.246337 29.565543,14.226007 35.406218,11.876552 78.393216,-5.4152876 117.19938,-0.33875849 154.21716,12.737121 Z"
     id="path14-6"
     sodipodi:nodetypes="sscccccccss" />
  <path
     fill="#ffffff"
     d="m 15,23.04 24.93,24.99 c 0.541448,0.540517 1.371096,0.662524 2.04,0.3 11.604537,-6.216368 24.319829,-10.201735 38.155125,-11.956099 0.364182,-0.04618 1.445675,-0.162392 1.811409,-0.20548 C 83.876534,36.978421 84.75,38.36 86,40.17 c 0.23,0.33 0.19,0.63 -0.11,0.9 l -3.669629,3.888123 c -0.209648,0.02369 -1.439441,0.249866 -1.648638,0.274774 C 69.036217,46.606387 58.185289,49.832088 48,54.91 c -0.54,0.27 -0.6,0.61 -0.17,1.04 l 46.3,46.29 c 0.824689,0.82802 2.165311,0.82802 2.99,0 l 45.42,-45.67 c 0.19161,-0.194891 0.13568,-0.520267 -0.11,-0.64 -9.85123,-4.762581 -20.27849,-8.060687 -31.28177,-9.903965 -0.13266,-0.02222 -1.32064,-0.197316 -1.45347,-0.219106 -2.29,-1.27 -3.15476,-2.796924 -4.70476,-4.876924 -0.22,-0.3 -0.22,-0.6 0,-0.89 1.09,-1.47 1.88347,-2.704059 3.37347,-3.534059 0.0586,0.0094 0.62368,0.09292 0.68224,0.102399 14.06564,2.27702 27.43698,6.527493 40.09429,12.731664 0.29,0.14 0.54,0.1 0.77,-0.13 l 23.79,-23.9 c 3.01,-3.01 6.02,-5.95 9.03,-8.82 1.42,-1.36 3.71,-1.05 5.22,0.15 3.37,2.7 1.28,5.5 -1.15,7.94 -27.04,27.03 -54.08,54.07 -81.12,81.119991 -5.72,5.72 -12.04,8.64 -18.5,2.12 C 59.63,80.05 32,52.36 4.29,24.76 1.45,21.93 -0.55,19 3.73,16.19 7.31,13.84 12.78,20.82 15,23.04 Z"
     id="path18"
     sodipodi:nodetypes="cccsccccsccccccsccccsccccccccccc" />
  <path
     fill="#c73121"
     d="m 108.58883,36.403045 c -2.13065,2.128951 -0.4365,0.480684 -3.59883,3.636955 -0.22,0.29 -0.22,0.59 0,0.89 3.26285,2.992039 1.95105,2.061322 5.77061,5.486478 6.13697,6.358549 5.63806,5.81752 10.25939,10.563522 6.92,6.35 -1.96,16.03 -8.83,9.33 C 106.71,60.96 101.31,55.49 96,49.92 c -0.300103,-0.317765 -0.804221,-0.322307 -1.11,-0.01 -4.76,4.91 -9.61,9.82 -14.55,14.73 -4.47,4.44 -9.5,6.61 -12.49,-0.97 -0.76,-1.92 -0.71,-3.31 0.16,-4.17 5.473173,-5.628099 5.622378,-5.763226 13.646539,-14.139586 L 85.89,41.07 C 86.19,40.8 86.23,40.5 86,40.17 82.027089,36.535438 85.274362,39.333129 81.659466,36.007182 73.553306,27.330682 76.205669,30.291725 69.13,23.11 c -0.9,-0.78 -1.43,-1.95 -1.6,-3.5 -0.5,-4.57 3.36,-7.32 7.73,-7.12 2.65,0.12 17.03,15.88 19.65,18.54 0.322042,0.331062 0.852393,0.335556 1.18,0.01 4.07,-4.07 15.63,-17.58 20.23,-18.46 4.02,-0.77 8.7,3.95 7.05,8.2 -0.35,0.89 -1.28,2.05 -2.8,3.49 -11.29469,11.355867 -7.54455,7.639925 -11.98117,12.133045 z"
     id="path20"
     sodipodi:nodetypes="cccccccccccccccccccccccc" />
</svg>
