<?xml version="1.0" encoding="UTF-8"?>
<!DOCTYPE svg PUBLIC "-//W3C//DTD SVG 1.1//EN" "http://www.w3.org/Graphics/SVG/1.1/DTD/svg11.dtd">
<svg xmlns="http://www.w3.org/2000/svg" version="1.1" width="214px" height="158px" style="shape-rendering:geometricPrecision; text-rendering:geometricPrecision; image-rendering:optimizeQuality; fill-rule:evenodd; clip-rule:evenodd" xmlns:xlink="http://www.w3.org/1999/xlink">
<g><path style="opacity:0.889" fill="#fefffe" d="M 75.5,-0.5 C 76.8333,-0.5 78.1667,-0.5 79.5,-0.5C 79.6854,1.19578 80.5187,2.52912 82,3.5C 82.499,7.82056 82.6657,12.1539 82.5,16.5C 115.125,21.7917 134.125,40.7917 139.5,73.5C 143.846,73.3343 148.179,73.501 152.5,74C 156.482,76.9515 156.482,79.9515 152.5,83C 148.179,83.499 143.846,83.6657 139.5,83.5C 134.125,116.208 115.125,135.208 82.5,140.5C 82.6657,144.846 82.499,149.179 82,153.5C 80.5187,154.471 79.6854,155.804 79.5,157.5C 78.1667,157.5 76.8333,157.5 75.5,157.5C 74.9181,156.069 74.0848,154.736 73,153.5C 72.501,149.179 72.3343,144.846 72.5,140.5C 39.132,135.799 20.132,116.799 15.5,83.5C 11.1539,83.6657 6.82056,83.499 2.5,83C 1.62656,81.955 0.626561,81.1217 -0.5,80.5C -0.5,79.1667 -0.5,77.8333 -0.5,76.5C 0.626561,75.8783 1.62656,75.045 2.5,74C 6.82056,73.501 11.1539,73.3343 15.5,73.5C 20.1259,40.2074 39.1259,21.2074 72.5,16.5C 72.3343,12.1539 72.501,7.82056 73,3.5C 74.4813,2.52912 75.3146,1.19578 75.5,-0.5 Z M 71.5,25.5 C 72.3283,31.9874 72.8283,38.654 73,45.5C 74.6658,48.3788 77.1658,49.2121 80.5,48C 81.1258,47.2496 81.6258,46.4162 82,45.5C 82.4995,39.1754 82.6662,32.8421 82.5,26.5C 109.788,30.455 125.455,46.1217 129.5,73.5C 123.158,73.3338 116.825,73.5005 110.5,74C 107.621,75.6658 106.788,78.1658 108,81.5C 108.75,82.1258 109.584,82.6258 110.5,83C 116.825,83.4995 123.158,83.6662 129.5,83.5C 125.455,110.878 109.788,126.545 82.5,130.5C 82.6662,124.491 82.4995,118.491 82,112.5C 79,107.167 76,107.167 73,112.5C 72.5005,118.491 72.3338,124.491 72.5,130.5C 44.9968,126.664 28.9968,110.997 24.5,83.5C 30.8421,83.6662 37.1754,83.4995 43.5,83C 48.8333,80 48.8333,77 43.5,74C 37.1754,73.5005 30.8421,73.3338 24.5,73.5C 29.1046,46.563 44.7712,30.563 71.5,25.5 Z"/></g>
<g><path style="opacity:0.949" fill="#fbfdfe" d="M 213.5,20.5 C 213.5,23.5 213.5,26.5 213.5,29.5C 206.11,44.2344 195.443,56.2344 181.5,65.5C 169.432,57.2661 159.599,46.9327 152,34.5C 147.293,24.6341 149.46,16.8008 158.5,11C 167.241,9.41433 174.908,11.581 181.5,17.5C 190.349,9.52781 199.849,8.52781 210,14.5C 211.459,16.4319 212.625,18.4319 213.5,20.5 Z"/></g>
<g><path style="opacity:1" fill="#44afea" d="M 165.5,21.5 C 169.167,21.5 172.833,21.5 176.5,21.5C 176.666,26.1785 176.499,30.8452 176,35.5C 172.929,37.768 169.596,38.1014 166,36.5C 165.501,31.5111 165.334,26.5111 165.5,21.5 Z"/></g>
<g><path style="opacity:1" fill="#f9fcfe" d="M 167.5,23.5 C 169.833,23.5 172.167,23.5 174.5,23.5C 174.5,27.5 174.5,31.5 174.5,35.5C 172.167,35.5 169.833,35.5 167.5,35.5C 167.5,31.5 167.5,27.5 167.5,23.5 Z"/></g>
<g><path style="opacity:1" fill="#3eacea" d="M 186.5,21.5 C 187.552,21.3505 188.552,21.5172 189.5,22C 183.33,31.6589 176.996,41.1589 170.5,50.5C 169.592,49.21 169.759,47.8767 171,46.5C 176.703,38.4132 181.869,30.0799 186.5,21.5 Z"/></g>
<g><path style="opacity:1" fill="#45aeeb" d="M 184.5,33.5 C 187.777,33.2161 190.943,33.5495 194,34.5C 194.499,39.4889 194.666,44.4889 194.5,49.5C 190.833,49.5 187.167,49.5 183.5,49.5C 183.267,44.1053 183.6,38.772 184.5,33.5 Z"/></g>
<g><path style="opacity:1" fill="#fafcfe" d="M 185.5,36.5 C 187.833,36.5 190.167,36.5 192.5,36.5C 192.665,40.1817 192.499,43.8484 192,47.5C 190,48.8333 188,48.8333 186,47.5C 185.501,43.8484 185.335,40.1817 185.5,36.5 Z"/></g>
</svg>
