<?xml version="1.0" encoding="UTF-8" standalone="no"?>
<svg
   version="1.1"
   viewBox="0 0 186 122"
   id="svg20"
   sodipodi:docname="target_in_zone.svg"
   inkscape:version="1.2.2 (b0a8486541, 2022-12-01)"
   xmlns:inkscape="http://www.inkscape.org/namespaces/inkscape"
   xmlns:sodipodi="http://sodipodi.sourceforge.net/DTD/sodipodi-0.dtd"
   xmlns="http://www.w3.org/2000/svg"
   xmlns:svg="http://www.w3.org/2000/svg">
  <defs
     id="defs24" />
  <sodipodi:namedview
     id="namedview22"
     pagecolor="#505050"
     bordercolor="#eeeeee"
     borderopacity="1"
     inkscape:showpageshadow="0"
     inkscape:pageopacity="0"
     inkscape:pagecheckerboard="0"
     inkscape:deskcolor="#505050"
     showgrid="false"
     inkscape:zoom="10.258448"
     inkscape:cx="107.03374"
     inkscape:cy="34.020741"
     inkscape:window-width="3840"
     inkscape:window-height="2128"
     inkscape:window-x="0"
     inkscape:window-y="32"
     inkscape:window-maximized="1"
     inkscape:current-layer="svg20" />
  <path
     fill="#ffffff"
     fill-opacity="0.11"
     d="m 146.68947,24.044824 c 4.6,2.09 17.12187,7.293248 21.07188,10.683248 0.22,0.19 2.23276,1.697446 2.36277,1.967446 -2.62462,2.73425 -1.04052,1.082711 -4.87574,4.99629 -24.15767,23.262186 -28.26417,28.270443 -70.520414,70.338612 -3.952088,2.97213 1.363762,2.39417 -3.204903,-0.0116 C 42.446204,63.14935 35.658633,56.587621 14.28995,35.269893 c -0.27,-0.27 -0.34,-0.58 -0.22,-0.94 l 0.28,-0.86 C 18.479045,30.695438 23.960482,28.4802 28.738122,26.41528 86.999386,6.2042647 92.678443,8.1670505 146.68947,24.044824 Z"
     id="path14-6"
     sodipodi:nodetypes="ccccccccccc" />
  <g
     fill="#ffffff"
     id="g12">
    <path
       d="m 92.56,0 h 0.75 c 2.76644,-0.44658178 1.87,6.04 1.98,8.73 0.02,0.36 0.21,0.57 0.56,0.62 14.12,1.93 23.6,9.57 28.44,22.9 l 1.46,7.45 c 0.07,0.35 0.28,0.51 0.64,0.48 2.55,-0.22 7.64,-1.33 8.16,2.32 0.12544,0.89633 -0.55534,1.703009 -1.46,1.73 l -6.75,0.21 c -0.35,0.01 -0.58,0.18 -0.68,0.53 -0.43,1.47 -0.46,3.5 -0.74,4.59 -3.45,13.22 -14.7,24.49 -29.01,25.25 -0.35,0.02 -0.55,0.2 -0.58,0.55 -0.23,2.7 1.1,7.42 -2.42,8.17 -1.091701,0.234773 -2.123236,-0.59336 -2.13,-1.71 L 90.73,75.5 C 90.73,75.2 90.58,75.03 90.27,75 74.14,73.44 61.7,61.35 60.15,45.13 c -0.04,-0.37 -0.24,-0.57 -0.61,-0.58 -2.17,-0.08 -9.05,0.8 -7.63,-3.38 0.250825,-0.747818 0.961583,-1.243318 1.75,-1.22 l 5.68,0.18 c 0.39,0.01 0.6,-0.17 0.65,-0.56 0.7,-5.55 2,-10.45 5.51,-15.78 C 71.49,15.28 79.76,10.47 90.29,9.38 90.69886,9.3383653 90.992783,8.9675712 90.94,8.56 90.6,5.88 89.998523,-0.15563907 92.56,0 Z M 75.25,44.21 64.97,44.35 c -0.33,0 -0.48,0.17 -0.45,0.5 1.39,13.95 11.95,23.66 25.46,25.71 0.56,0.09 0.84,-0.16 0.84,-0.73 l -0.09,-9.15 c -0.0117,-1.048687 0.812137,-1.916818 1.86,-1.96 4.07,-0.16 2.67,8.61 2.66,11.05 -0.0046,0.540693 0.490217,0.948162 1.02,0.84 14.15,-2.84 22.5,-11.37 25.07,-25.59 0.07,-0.39 -0.09,-0.59 -0.49,-0.6 l -10.6,-0.21 c -1.26,-1.34 -1.34,-2.63 -0.24,-3.86 0.21,-0.23 0.46,-0.35 0.77,-0.35 h 9.99 c 0.43,0 0.6,-0.21 0.53,-0.64 -2.53,-14.43 -10.98,-22.99 -25.33,-25.69 -0.385078,-0.06952 -0.737485,0.224958 -0.73,0.61 0.02,2.69 1.44,11.54 -2.54,11.72 -1.058341,0.04556 -1.94098,-0.800679 -1.94,-1.86 l -0.01,-10.1 c 0,-0.33 -0.17,-0.47 -0.5,-0.42 -14.39,2.45 -23,10.79 -25.83,25.02 -0.18,0.91 0.19,1.36 1.12,1.36 h 9.23 c 1.233285,-0.0029 2.095719,1.218889 1.68,2.38 -0.25,0.71 -0.65,1.32 -1.2,1.83 z"
       id="path8"
       sodipodi:nodetypes="cccccccccccccccccccccccccccccccccccccccccssccccccccsccc" />
    <path
       d="m 117.04,89.75 0.71,-0.96 c 0.23,-0.01 0.37,-0.04 0.54,-0.21 19.88,-19.89 39.76,-39.77 59.64,-59.65 2.76,-2.75 7.32,0.43 7.7,3.69 0.04,0.36 -0.07,0.67 -0.32,0.92 -28.37,28.4 -56.74,56.78 -85.12,85.14 -1.937192,1.47764 -1.882768,1.67873 -3.51,2.38 -2.040727,1.43631 -5.13,0.69 -5.79,0.68 -2.049629,-1.15239 -4.692382,-2.7155 -6.12,-4.09 C 57.2,90.08 29.63,62.51 2.07,34.94 1.35,34.22 0.75,33.33 0.26,32.26 0.11,31.93 0.16,31.64 0.41,31.38 l 2.86,-2.97 c 0.25,-0.26 0.56,-0.42 0.93,-0.47 1.68,-0.24 2.85,-0.04 3.5,0.61 26.07,26.01 52.12,52.05 78.15,78.1 2.01,2.01 4.02,3.91 6.05,5.7 0.724482,0.64095 1.819759,0.61029 2.5,-0.07 z"
       id="path10"
       sodipodi:nodetypes="cccccccccccccccccccc" />
  </g>
</svg>
