<svg xmlns:xlink="http://www.w3.org/1999/xlink" xmlns="http://www.w3.org/2000/svg" stroke-width="0.501" stroke-linejoin="bevel" fill-rule="evenodd" version="1.1" width="300" height="300" viewBox="0 0 75 75" x="0px" y="0px"><g fill="none" stroke="white" transform="scale(1 -1) translate(0 -75)"><path d="M 43.447,10.896 L 43.199,11.128 L 42.548,10.841 C 37.896,9.486 34.695,18.761 32.532,21.847 C 31.714,23.015 30.549,23.925 29.462,24.764 C 23.357,29.288 20.562,33.641 19.942,38.597 L 19.823,40.487 L 19.716,40.611 L 19.704,40.637 L 12.563,47.14 C 10.185,49.386 7.874,51.701 5.764,54.109 C 3.991,56.136 -1.315,63.594 1.616,66.655 C 4.006,69.15 7.567,67.184 6.291,64.875 C 6.043,64.424 5.693,63.418 5.755,63.042 C 6.09,61.04 8.823,58.033 10.977,55.655 C 12.632,53.826 15.039,51.799 16.637,50.755 C 17.82,49.982 18.754,49.345 19.636,48.745 L 22.027,47.16 L 22.069,47.205 L 22.08,47.233 C 22.108,47.313 22.161,47.383 22.23,47.432 C 22.523,47.643 22.702,47.947 22.828,48.287 C 23.786,50.887 27.462,55.663 33.515,57.359 C 39.073,58.917 44.624,57.774 47.58,55.536 L 48.264,54.903 L 48.424,55.169 C 49.386,57.009 50.401,60.448 51.656,61.559 C 53.523,63.217 55.8,58.907 56.761,57.484 L 57.052,57.118 L 57.404,57.08 C 58.643,56.995 62.044,56.964 63.587,56.936 L 63.975,56.927 L 64.248,57.262 C 65.203,58.619 66.784,61.778 68.647,61.222 C 68.703,61.205 68.755,61.178 68.8,61.14 C 70.703,59.54 71.386,55.244 71.904,53.375 C 71.913,53.342 71.918,53.31 71.92,53.278 C 71.953,52.433 73.447,50.052 73.743,48.523 C 74.596,44.103 74.501,41.487 72.064,38.111 C 72.501,37.941 72.956,37.694 73.361,37.465 C 73.863,37.18 74.378,36.866 74.74,36.712 C 74.955,36.62 75.057,36.37 74.965,36.154 C 74.873,35.938 74.622,35.836 74.406,35.928 C 74.19,36.02 73.95,36.149 73.706,36.285 C 73.464,36.421 73.201,36.577 72.939,36.725 C 72.428,37.015 71.938,37.272 71.523,37.398 C 71.439,37.293 71.353,37.187 71.266,37.079 C 71.287,37.069 71.308,37.055 71.33,37.04 C 72.163,36.429 73.079,35.683 73.819,35.164 C 74.012,35.028 74.058,34.762 73.922,34.571 C 73.787,34.378 73.522,34.332 73.329,34.467 C 72.572,35.001 71.639,35.757 70.826,36.354 C 70.789,36.382 70.757,36.413 70.731,36.448 C 68.61,34.018 67.264,33.269 65.101,32.247 C 64.209,31.824 63.079,31.59 62.158,31.437 L 61.44,31.325 L 58.286,28.69 C 55.296,26.185 50.962,20.378 50.865,16.96 C 50.833,15.8 52.177,13.342 51.663,12.138 C 51.205,11.059 49.244,10.367 47.966,11.062 L 47.794,11.194 C 46.7,10.383 44.66,10.075 43.447,10.896 Z M 48.078,11.439 L 47.746,11.232 L 47.791,11.196 L 47.794,11.194 C 47.898,11.271 47.993,11.353 48.078,11.439 Z M 47.018,11.698 C 47.017,11.777 47.038,11.858 47.084,11.931 C 47.367,12.375 47.466,12.711 47.481,12.974 C 47.497,13.236 47.434,13.467 47.329,13.71 C 47.103,14.23 46.66,14.809 46.773,15.602 C 47.029,17.408 47.113,18.977 47.569,20.642 C 48.031,22.329 48.869,24.087 50.604,26.272 C 50.752,26.456 51.02,26.486 51.203,26.34 C 51.388,26.194 51.418,25.926 51.273,25.742 C 49.597,23.635 48.818,21.978 48.391,20.416 C 47.955,18.826 47.87,17.288 47.616,15.483 C 47.585,15.269 47.629,15.073 47.725,14.846 C 47.832,14.592 47.982,14.346 48.111,14.048 C 48.35,13.494 48.464,12.862 48.083,12.034 C 48.085,12.033 48.086,12.032 48.088,12.03 C 48.812,11.254 50.572,11.745 50.88,12.47 C 51.243,13.325 49.967,15.281 50.013,16.983 C 50.12,20.792 54.716,26.809 57.739,29.345 L 60.155,31.36 C 59.462,31.387 58.793,31.458 58.197,31.547 C 57.205,31.693 56.397,31.884 55.988,31.994 C 55.76,32.055 55.627,32.289 55.687,32.516 C 55.748,32.743 55.982,32.878 56.209,32.818 C 56.592,32.715 57.366,32.53 58.32,32.389 C 59.274,32.249 60.397,32.155 61.48,32.228 C 61.528,32.232 61.577,32.226 61.621,32.213 C 62.595,32.364 63.825,32.583 64.738,33.017 C 66.879,34.029 68.132,34.725 70.255,37.2 C 73.602,41.104 73.843,43.515 72.906,48.361 C 72.724,49.303 71.485,51.567 71.15,52.79 L 71.084,53.146 C 70.564,55.021 70.038,58.183 68.818,59.865 L 68.33,60.401 L 67.898,60.376 C 66.694,59.929 65.35,57.03 64.463,56.189 C 64.381,56.11 64.269,56.068 64.157,56.072 C 63.23,56.103 57.435,56.135 56.776,56.3 L 56.751,56.307 L 56.719,56.317 C 56.675,56.331 56.634,56.353 56.597,56.38 L 56.577,56.394 C 55.579,57.157 53.394,61.965 52.22,60.922 C 50.964,59.809 50.307,56.486 48.949,54.351 C 48.958,54.259 48.935,54.164 48.882,54.082 C 48.225,53.077 47.883,51.899 47.422,50.765 C 47.333,50.548 47.084,50.444 46.867,50.533 C 46.649,50.621 46.544,50.869 46.634,51.087 C 47.025,52.05 47.352,53.122 47.904,54.109 C 45.617,56.573 39.773,58.229 33.745,56.539 C 27.981,54.924 24.5,50.363 23.628,47.993 C 23.549,47.779 23.443,47.552 23.298,47.336 L 22.854,46.872 L 22.837,46.834 C 22.745,46.647 22.56,46.454 22.379,46.291 C 22.237,46.162 22.026,46.144 21.865,46.247 C 19.939,47.472 18.471,48.541 16.17,50.044 C 14.51,51.128 12.048,53.204 10.347,55.083 C 8.297,57.346 5.303,60.585 4.916,62.903 C 4.8,63.592 5.296,64.832 5.546,65.287 C 6.206,66.483 4.261,68.183 2.231,66.067 C -0.041,63.694 4.35,57.017 6.406,54.67 C 10.583,49.9 15.565,45.498 20.334,41.216 L 20.405,41.12 L 20.548,41.048 C 20.615,40.972 20.657,40.873 20.657,40.764 C 20.682,35.229 23.139,30.51 29.976,25.443 C 31.055,24.61 32.325,23.626 33.23,22.336 C 35.294,19.389 38.562,10.125 42.643,11.782 C 41.434,13.467 41.118,15.994 41.308,18.389 C 41.327,18.627 41.35,18.865 41.38,19.101 C 39.72,20.426 38.903,23.149 38.54,24.786 C 38.49,25.015 38.634,25.241 38.864,25.293 C 39.094,25.343 39.32,25.199 39.372,24.969 C 39.708,23.449 40.378,21.326 41.532,20.114 C 41.926,22.305 42.717,24.325 43.712,25.46 C 43.866,25.636 44.136,25.653 44.312,25.499 C 44.488,25.343 44.506,25.075 44.352,24.898 C 43.273,23.669 42.373,21.045 42.157,18.323 C 41.941,15.59 42.432,12.971 43.901,11.642 C 43.918,11.625 43.934,11.609 43.948,11.591 C 44.713,11.107 46.113,11.184 47.018,11.698 Z M 48.444,34.478 C 48.29,34.657 48.31,34.925 48.486,35.08 C 48.781,35.333 49.372,35.795 49.953,36.211 C 50.244,36.421 50.539,36.623 50.796,36.785 C 51.038,36.937 51.287,37.082 51.477,37.144 C 51.699,37.218 51.94,37.095 52.014,36.873 C 52.088,36.65 51.967,36.408 51.743,36.335 C 51.713,36.325 51.655,36.3 51.563,36.249 C 51.475,36.202 51.369,36.14 51.25,36.065 C 51.012,35.914 50.734,35.723 50.449,35.52 C 49.879,35.111 49.31,34.667 49.044,34.436 C 48.867,34.282 48.598,34.302 48.444,34.478 Z M 47.339,36.684 C 47.277,36.91 47.411,37.144 47.638,37.206 C 48.639,37.48 49.498,37.995 50.501,38.271 C 50.728,38.333 50.962,38.199 51.025,37.974 C 51.088,37.747 50.954,37.512 50.727,37.45 C 49.802,37.195 48.929,36.677 47.862,36.385 C 47.635,36.322 47.401,36.456 47.339,36.684 Z M 59.079,42.099 C 58.943,42.291 58.99,42.557 59.182,42.692 C 59.8,43.127 60.053,43.966 60.675,44.419 C 60.788,44.502 60.933,44.523 61.065,44.477 C 61.313,44.391 61.495,44.215 61.631,44.054 C 61.767,43.894 61.895,43.7 62.008,43.537 C 62.262,43.172 62.468,42.923 62.744,42.816 C 62.964,42.731 63.072,42.483 62.986,42.264 C 62.901,42.044 62.654,41.937 62.435,42.023 C 61.879,42.24 61.537,42.724 61.308,43.051 C 61.207,43.198 61.087,43.379 60.981,43.504 L 60.963,43.525 L 60.898,43.447 C 60.799,43.319 60.704,43.176 60.589,43.007 C 60.369,42.685 60.09,42.289 59.672,41.996 C 59.479,41.86 59.214,41.907 59.079,42.099 Z M 52.021,44.489 C 52.021,45.674 52.748,46.636 53.644,46.636 C 54.54,46.636 55.266,45.674 55.266,44.489 C 55.266,43.306 54.54,42.343 53.644,42.343 C 52.748,42.343 52.021,43.306 52.021,44.489 Z M 65.752,44.489 C 65.752,45.674 66.479,46.636 67.374,46.636 C 68.271,46.636 68.998,45.674 68.998,44.489 C 68.998,43.306 68.271,42.343 67.374,42.343 C 66.479,42.343 65.752,43.306 65.752,44.489 Z" fill-rule="evenodd" stroke="none" fill="white" stroke-width="0.5" marker-start="none" marker-end="none" stroke-miterlimit="79.8403193612775"/></g></svg>