<svg version="1.1" id="Capa_1" xmlns="http://www.w3.org/2000/svg" fill="#737373" xmlns:xlink="http://www.w3.org/1999/xlink" viewBox="-40 -0 430 430" style="enable-background:new 0 0 345.088 345.088;" xml:space="preserve">
    <g>
        <g>
            <g>
                <path d="M30.72,30.72h104.96V0H15.36C6.99,0.266,0.266,6.99,0,15.36v120.32h30.72V30.72z"></path>
                <path d="M329.728,0h-120.32v30.72h104.96v104.96h30.72V15.36C344.822,6.99,338.098,0.266,329.728,0z"></path>
                <path d="M314.368,314.368h-104.96v30.72h120.32c8.37-0.266,15.094-6.99,15.36-15.36v-120.32h-30.72V314.368z"></path>
                <path d="M30.72,209.408H0v120.32c0.266,8.37,6.99,15.094,15.36,15.36h120.32v-30.72H30.72V209.408z"></path>
                <path d="M112.64,128v89.344c0,8.483,6.877,15.36,15.36,15.36h89.088c8.483,0,15.36-6.877,15.36-15.36V128 c0-8.483-6.877-15.36-15.36-15.36H128C119.517,112.64,112.64,119.517,112.64,128z"></path>
            </g>
        </g>
    </g>
</svg>