<svg id="Layer_2" enable-background="new 0 0 32 32" viewBox="0 0 32 32" fill="#737373" xmlns="http://www.w3.org/2000/svg">
    <g>
        <path d="m5.33333 32h21.33333c.58906 0 1.06667-.4776 1.06667-1.06667v-23.34948c.00061-.27702-.11638-.55916-.31283-.75449 0 0-6.51653-6.51654-6.51653-6.51654-.09831-.09844-.21634-.17637-.34688-.23047-.1304-.05396-.26868-.08235-.40761-.08235h-14.81615c-.58906 0-1.06666.4776-1.06666 1.06667v29.86666c0 .58907.4776 1.06667 1.06666 1.06667zm15.88281-28.35833 2.87552 2.87552h-2.87552zm-14.81614-1.50834h12.68281v5.45052c0 .58906.4776 1.06667 1.06667 1.06667h5.45052v21.21614h-19.2z"></path>
        <path d="m12.93594 12.68385c-.45208-.37552-1.12552-.31354-1.50208.13958l-3.25052 3.91458c-.3276.39479-.3276.96771 0 1.3625l3.25052 3.91406c.37783.45519 1.0516.51403 1.50208.13958.45365-.37656.51563-1.04896.13958-1.50208l-2.6849-3.23281 2.6849-3.23333c.37604-.45312.31406-1.12551-.13958-1.50208z"></path>
        <path d="m20.56614 12.82344c-.89417-1.0669-2.5289.28348-1.64162 1.36255-.00005-.00005 2.68485 3.23328 2.68485 3.23328l-2.68489 3.23281c-.88479 1.0732.74269 2.43413 1.64171 1.36245-.00004.00006 3.25048-3.91401 3.25048-3.91401.3276-.39479.3276-.96771 0-1.3625z"></path>
        <path d="m16.80573 12.45156c-.58021-.0901-1.12969.30104-1.22396.88229l-1.26979 7.82865c-.09427.58177.30104 1.12917.88229 1.22396.56835.0952 1.13222-.29733 1.22395-.88229 0 0 1.26979-7.82864 1.26979-7.82864.09428-.58178-.30103-1.12918-.88228-1.22397z"></path>
    </g>
</svg>