<?xml version="1.0" encoding="utf-8"?>
<!DOCTYPE svg PUBLIC "-//W3C//DTD SVG 1.0//EN" "http://www.w3.org/TR/2001/REC-SVG-20010904/DTD/svg10.dtd">
<svg version="1.0" xmlns="http://www.w3.org/2000/svg" viewBox="0 0 512 512" preserveAspectRatio="xMidYMid meet">
  <path d="M91 482 l0 -30 14.5 0 14.5 0 0 30 0 30 -14.5 0 -14.5 0 0 -30z"/>
  <path d="M151 482 l0 -30 14.5 0 14.5 0 0 30 0 30 -14.5 0 -14.5 0 0 -30z"/>
  <path d="M211 482 l0 -30 15 0 15 0 0 30 0 30 -15 0 -15 0 0 -30z"/>
  <path d="M271 482 l0 -30 15 0 15 0 0 30 0 30 -15 0 -15 0 0 -30z"/>
  <path d="M332 482 l0 -30 14.5 0 14.5 0 0 30 0 30 -14.5 0 -14.5 0 0 -30z"/>
  <path d="M392 482 l0 -30 14.5 0 14.5 0 0 30 0 30 -14.5 0 -14.5 0 0 -30z"/>
  <path d="M0 406.5 l0 -14.5 30 0 30 0 0 14.5 0 14.5 -30 0 -30 0 0 -14.5z"/>
  <path d="M91 256 l0 -165 165 0 165 0 0 165 0 165 -165 0 -165 0 0 -165z m248 0 l0 -83 -83 0 -83 0 0 83 0 83 83 0 83 0 0 -83z"/>
  <path d="M203 256 l0 -53 53 0 53 0 0 53 0 53 -53 0 -53 0 0 -53z"/>
  <path d="M452 406.5 l0 -14.5 30 0 30 0 0 14.5 0 14.5 -30 0 -30 0 0 -14.5z"/>
  <path d="M0 346.5 l0 -14.5 30 0 30 0 0 14.5 0 14.5 -30 0 -30 0 0 -14.5z"/>
  <path d="M452 346.5 l0 -14.5 30 0 30 0 0 14.5 0 14.5 -30 0 -30 0 0 -14.5z"/>
  <path d="M0 286 l0 -15 30 0 30 0 0 15 0 15 -30 0 -30 0 0 -15z"/>
  <path d="M452 286 l0 -15 30 0 30 0 0 15 0 15 -30 0 -30 0 0 -15z"/>
  <path d="M0 226 l0 -15 30 0 30 0 0 15 0 15 -30 0 -30 0 0 -15z"/>
  <path d="M452 226 l0 -15 30 0 30 0 0 15 0 15 -30 0 -30 0 0 -15z"/>
  <path d="M0 165.5 l0 -14.5 30 0 30 0 0 14.5 0 14.5 -30 0 -30 0 0 -14.5z"/>
  <path d="M452 165.5 l0 -14.5 30 0 30 0 0 14.5 0 14.5 -30 0 -30 0 0 -14.5z"/>
  <path d="M0 105.5 l0 -14.5 30 0 30 0 0 14.5 0 14.5 -30 0 -30 0 0 -14.5z"/>
  <path d="M452 105.5 l0 -14.5 30 0 30 0 0 14.5 0 14.5 -30 0 -30 0 0 -14.5z"/>
  <path d="M91 30 l0 -30 14.5 0 14.5 0 0 30 0 30 -14.5 0 -14.5 0 0 -30z"/>
  <path d="M151 30 l0 -30 14.5 0 14.5 0 0 30 0 30 -14.5 0 -14.5 0 0 -30z"/>
  <path d="M211 30 l0 -30 15 0 15 0 0 30 0 30 -15 0 -15 0 0 -30z"/>
  <path d="M271 30 l0 -30 15 0 15 0 0 30 0 30 -15 0 -15 0 0 -30z"/>
  <path d="M332 30 l0 -30 14.5 0 14.5 0 0 30 0 30 -14.5 0 -14.5 0 0 -30z"/>
  <path d="M392 30 l0 -30 14.5 0 14.5 0 0 30 0 30 -14.5 0 -14.5 0 0 -30z"/>
</svg>