<?xml version="1.0" encoding="UTF-8"?>
<!DOCTYPE svg PUBLIC "-//W3C//DTD SVG 1.1//EN" "http://www.w3.org/Graphics/SVG/1.1/DTD/svg11.dtd">
<!-- Creator: CorelDRAW 2021 (64-Bit) -->
<svg xmlns="http://www.w3.org/2000/svg" xml:space="preserve" version="1.1" shape-rendering="geometricPrecision" text-rendering="geometricPrecision" image-rendering="optimizeQuality" fill-rule="evenodd" clip-rule="evenodd"
viewBox="0 0 8035 8035"
 xmlns:xlink="http://www.w3.org/1999/xlink"
 xmlns:xodm="http://www.corel.com/coreldraw/odm/2003">
 <g id="Слой_x0020_1">
  <metadata id="CorelCorpID_0Corel-Layer"/>
  <g id="_1459083716688">
   <g>
    <path fill="currentColor" d="M4017 0c1110,0 2114,450 2841,1177 727,727 1177,1731 1177,2840 0,1110 -450,2114 -1177,2841 -727,727 -1731,1177 -2841,1177 -1109,0 -2113,-450 -2840,-1177 -727,-727 -1177,-1731 -1177,-2841 0,-1109 450,-2113 1177,-2840 727,-727 1731,-1177 2840,-1177zm3617 4017c0,1998 -1619,3617 -3617,3617 -1997,0 -3617,-1619 -3617,-3617 0,-1997 1620,-3617 3617,-3617 1998,0 3617,1620 3617,3617zm-1345 -1271l95 43c80,35 129,110 129,198l0 2403c0,120 -98,217 -217,217l-1989 0c-193,124 -386,108 -579,0l-1989 0c-120,0 -217,-97 -217,-217l0 -2403c0,-88 49,-163 129,-198l94 -43c23,-10 48,-8 69,6 21,14 33,35 33,61l0 2476 1881 0c193,108 386,124 579,0l1880 0 0 -2476c0,-26 12,-47 33,-61 22,-14 46,-16 69,-6z"/>
   </g>
   <g>
    <path fill="currentColor" d="M4304 2343c270,0 478,-48 686,-96 231,-53 463,-106 775,-106l200 0 0 200 0 2379 0 200 -200 0c-270,0 -478,48 -686,96 -232,53 -464,106 -775,106l-200 0 0 -200 0 -2379 0 -200 200 0zm0 200c581,0 879,-202 1461,-202l0 2379c-582,0 -880,202 -1461,202l0 -2379zm-2034 -202c581,0 879,202 1461,202l0 2379c-582,0 -880,-202 -1461,-202l0 -2379zm0 -200c312,0 543,53 775,106 208,48 416,96 686,96l200 0 0 200 0 2379 0 200 -200 0c-312,0 -544,-53 -775,-106 -208,-48 -416,-96 -686,-96l-200 0 0 -200 0 -2379 0 -200 200 0z"/>
   </g>
  </g>
 </g>
</svg>
