<?xml version="1.0" encoding="UTF-8"?>
<!DOCTYPE svg PUBLIC "-//W3C//DTD SVG 1.1//EN" "http://www.w3.org/Graphics/SVG/1.1/DTD/svg11.dtd">
<!-- Creator: CorelDRAW 2021 (64-Bit) -->
<svg xmlns="http://www.w3.org/2000/svg" xml:space="preserve" version="1.1" shape-rendering="geometricPrecision" text-rendering="geometricPrecision" image-rendering="optimizeQuality" fill-rule="evenodd" clip-rule="evenodd"
viewBox="0 0 9754 9754"
 xmlns:xlink="http://www.w3.org/1999/xlink"
 xmlns:xodm="http://www.corel.com/coreldraw/odm/2003">
 <g id="Слой_x0020_1">
  <metadata id="CorelCorpID_0Corel-Layer"/>
  <path fill="currentColor" d="M4877 0c2694,0 4877,2184 4877,4877 0,2694 -2183,4877 -4877,4877 -2693,0 -4877,-2183 -4877,-4877 0,-2693 2184,-4877 4877,-4877zm195 2890c784,0 1569,-274 2353,-274l0 3400c-784,0 -1569,273 -2353,273l0 -3399zm-2742 -274c784,0 1568,274 2352,274l0 3399c-784,0 -1568,-273 -2352,-273l0 -3400zm5611 548l127 56c108,49 174,150 174,268l0 3240c0,161 -131,293 -293,293l-2682 0c-260,167 -520,145 -780,0l-2682 0c-161,0 -293,-132 -293,-293l0 -3240c0,-118 66,-219 174,-268l128 -56c31,-14 64,-12 92,7 29,19 45,48 45,82l0 3340 2536 0c260,145 520,167 780,0l2537 0 0 -3340c0,-34 15,-63 44,-82 29,-19 62,-21 93,-7z"/>
 </g>
</svg>
