<?xml version="1.0" encoding="UTF-8"?>
<svg version="1.1" viewBox="0 0 102.5 122.88" xml:space="preserve" xmlns="http://www.w3.org/2000/svg">
    <path fill='currentColor'
        d="m67.22 0.57055c-3.3872 0.11214-6.7872 0.017397-10.18 0.048724-16.518 0.00876-33.036-0.017511-49.554 0.013118-3.7048 0.16093-7.0047 3.2971-7.2936 7.005-0.084266 4.3075-0.011016 8.62-0.035606 12.929 0.006246 31.46-0.012498 62.92 0.009374 94.379 0.12478 3.7562 3.3439 7.0841 7.0931 7.3351 5.5271 0.0699 11.058 0.01 16.587 0.0297 23.699-9e-3 47.398 0.0175 71.097-0.0131 3.7352-0.15781 7.032-3.3674 7.2746-7.1006 0.0667-5.9719 9e-3 -11.948 0.0283-17.921v-60.517c0.42046-1.7926-0.54154-3.5868-1.8813-4.7325-9.9848-10.089-19.938-20.211-29.943-30.279-0.93586-0.67301-2.0184-1.2017-3.2026-1.1769zm-4.5144 9.1338c0.01623 7.1934-0.03234 14.389 0.02402 21.581 0.20412 4.0966 3.2596 7.8379 7.2316 8.8599 2.2224 0.60389 4.5503 0.25561 6.8214 0.34874h16.3v72.739h-83.878v-103.53c17.834 1e-7 35.667 0 53.501 0zm24.126 21.705c-4.8051-0.01253-9.6134 0.02504-14.417-0.01874-0.92398-0.22635-0.56347-1.3524-0.63153-2.0325v-13.192c5.016 5.081 10.032 10.162 15.048 15.243zm-35.683 13.463c-2.418-0.02434-4.5605 2.1725-4.447 4.5935v29.088c-3.08-2.6608-6.1074-5.3877-9.22-8.0076-1.9926-1.4479-5.0769-0.83025-6.3512 1.2818-1.3042 1.8951-0.73716 4.6816 1.1064 6.0188 5.4623 4.7538 10.892 9.5477 16.374 14.277 1.7528 1.3294 4.4051 1.0626 5.9186-0.51292 5.4534-4.7828 10.95-9.5194 16.376-14.331 1.7229-1.7715 1.511-4.9283-0.42051-6.4628-1.7322-1.5354-4.5828-1.3402-6.1652 0.3212-2.847 2.4857-5.6941 4.9714-8.5411 7.4572-0.01252-9.8657 0.02502-19.733-0.01874-29.598-0.15543-2.3294-2.2873-4.2057-4.6119-4.1246z"
        stroke-width=".95948" />
</svg>