<svg id="Layer_1" viewBox="-2 -2 30 30" xmlns="http://www.w3.org/2000/svg" data-name="Layer 1">
<g fill="currentColor">
<path d="m3.5 24h15a3.51 3.51 0 0 0 3.5-3.513v-7.537a1 1 0 0 0 -2 0v7.537a1.508 1.508 0 0 1 -1.5 1.513h-15a1.508 1.508 0 0 1 -1.5-1.513v-14.974a1.508 1.508 0 0 1 1.5-1.513h7.5a1 1 0 0 0 0-2h-7.5a3.51 3.51 0 0 0 -3.5 3.513v14.974a3.51 3.51 0 0 0 3.5 3.513z"></path>
<path d="m9.455 10.544-.789 3.614a1 1 0 0 0 .271.921 1.038 1.038 0 0 0 .92.269l3.606-.791a1 1 0 0 0 .494-.271l9.114-9.114a3 3 0 0 0 0-4.243 3.07 3.07 0 0 0 -4.242 0l-9.1 9.123a1 1 0 0 0 -.274.492zm10.788-8.2a1.022 1.022 0 0 1 1.414 0 1.009 1.009 0 0 1 0 1.413l-.707.707-1.414-1.414zm-8.9 8.914 6.774-6.791 1.4 1.407-6.777 6.793-1.795.394z"></path>
</g>
</svg>