<svg clip-rule="evenodd" fill-rule="evenodd" stroke-linejoin="round" fill="#737373" stroke-miterlimit="2" viewBox="0 0 100 100" xmlns="http://www.w3.org/2000/svg">
    <g id="Layer2">
        <path d="m68.377 37.5v-21.875c0-2.486-.987-4.871-2.746-6.629-1.758-1.758-4.142-2.746-6.629-2.746-11.337 0-35.165 0-46.502 0-5.178 0-9.375 4.197-9.375 9.375v46.502c0 2.487.988 4.871 2.746 6.629 1.758 1.759 4.143 2.746 6.629 2.746h21.875c1.725 0 3.125-1.4 3.125-3.125 0-1.724-1.4-3.125-3.125-3.125 0 0-13.588 0-21.875 0-.829 0-1.624-.329-2.21-.915s-.915-1.381-.915-2.21v-46.502c0-1.726 1.399-3.125 3.125-3.125h46.502c.829 0 1.624.329 2.21.915s.915 1.381.915 2.21v21.875c0 1.725 1.401 3.125 3.125 3.125 1.725 0 3.125-1.4 3.125-3.125z"></path>
        <path d="m60.937 34.375c-16.384 0-29.687 13.303-29.687 29.688 0 16.384 13.303 29.687 29.687 29.687 16.385 0 29.688-13.303 29.688-29.687 0-16.385-13.303-29.688-29.688-29.688zm0 6.25c12.936 0 23.438 10.502 23.438 23.438 0 12.935-10.502 23.437-23.438 23.437-12.935 0-23.437-10.502-23.437-23.437 0-12.936 10.502-23.438 23.437-23.438z"></path>
        <path d="m49.831 67.546h23.21c1.725 0 3.125-1.4 3.125-3.125s-1.4-3.125-3.125-3.125h-23.21c-1.724 0-3.125 1.4-3.125 3.125s1.401 3.125 3.125 3.125z"></path>
        <path d="m58.311 52.816v23.21c0 1.725 1.4 3.125 3.125 3.125s3.125-1.4 3.125-3.125v-23.21c0-1.725-1.4-3.125-3.125-3.125s-3.125 1.4-3.125 3.125z"></path>
    </g>
</svg>