<svg version="1.1" id="Capa_1" xmlns="http://www.w3.org/2000/svg" xmlns:xlink="http://www.w3.org/1999/xlink" x="0px" y="0px" width="25" height="25" viewBox="0 0 512 512" fill="currentColor" style="enable-background:new 0 0 512 512;" xml:space="preserve">
    <g>
        <g>
            <path d="M458.499,0H53.501c-9.532,0-17.258,7.726-17.258,17.258v73.061c0,4.297,1.605,8.439,4.499,11.621l153.704,168.799v224.003 c0,6.15,3.273,11.839,8.595,14.929c2.675,1.553,5.672,2.33,8.664,2.33c2.951,0,5.908-0.759,8.56-2.278l88.593-50.625 c5.379-3.072,8.698-8.79,8.698-14.98V270.739L471.259,101.94c2.899-3.181,4.499-7.323,4.499-11.621V17.258 C475.757,7.726,468.031,0,458.499,0z M441.24,83.64L287.537,252.433c-2.899,3.176-4.499,7.323-4.499,11.621v170.047 l-54.076,30.904V264.054c0-4.297-1.605-8.445-4.499-11.621L70.76,83.64V34.517H441.24V83.64z"></path>
        </g>
    </g>
</svg>