<?xml version="1.0" encoding="UTF-8" standalone="no"?>
<svg version="1.1" id="Layer_1" x="0px" y="0px" viewBox="0 0 501.334 501.334"
   style="enable-background:new 0 0 501.334 501.334;" xml:space="preserve" xmlns="http://www.w3.org/2000/svg"
   xmlns:svg="http://www.w3.org/2000/svg">
   <path fill="currentColor"
      d="M480,272c11.733,0,21.333-9.6,21.333-21.333c0-11.733-9.6-21.333-21.333-21.333h-39.467v-65.067H480 c11.733,0,21.333-9.6,21.333-21.333S491.734,121.6,480,121.6h-39.467V82.133c0-11.733-9.6-21.333-21.333-21.333h-40.533V21.333 C378.667,9.6,369.067,0,357.333,0S336,9.6,336,21.333V60.8h-64V21.333C272,9.6,262.4,0,250.667,0 c-11.733,0-21.333,9.6-21.333,21.333V60.8h-64V21.333C165.333,9.6,155.734,0,144,0s-21.333,9.6-21.333,21.333V60.8H82.134 C70.4,60.8,60.8,70.4,60.8,82.133V121.6H21.333C9.6,121.6,0,131.2,0,142.934s9.6,21.333,21.333,21.333H60.8v65.067H21.333 C9.6,229.334,0,238.934,0,250.667C0,262.4,9.6,272,21.333,272H60.8v64H21.333C9.6,336,0,345.6,0,357.334s9.6,21.333,21.333,21.333 H60.8V419.2c0,11.733,9.6,21.333,21.333,21.333h40.533V480c0,11.733,9.6,21.333,21.333,21.333c10.667,0,20.267-9.6,21.333-21.333 v-39.467h64V480c0,11.733,9.6,21.333,21.333,21.333c11.733,0,21.333-9.6,21.333-21.333v-39.467h64V480 c0,11.733,9.6,21.333,21.333,21.333s21.333-9.6,21.333-21.333v-39.467H419.2c11.733,0,21.333-9.6,21.333-21.333v-40.533H480 c11.733,0,21.333-9.6,21.333-21.333S491.734,336,480,336h-39.467v-64H480z M397.867,398.934H102.4V102.4h295.467V398.934z" />
   <path fill="currentColor"
      d="m 105.71133,188.79528 -41.711911,-0.31552 v 124.37447 l 41.711911,-0.31549 h 30.93586 v 55.96293 l 163.23307,-81.60878 c 13.79742,-6.89868 22.38211,-20.78888 22.38211,-36.22588 0,-15.437 -8.58469,-29.32722 -22.38211,-36.22589 L 136.64719,132.83234 v 55.96294 z m -9.597271,30.93586 h 71.468981 v -36.84456 l 118.45345,59.22667 c 6.52747,3.26374 6.52747,13.84377 0,17.09209 l -118.45345,59.2421 V 281.60287 H 95.998529 Z"
      style="stroke-width:15.4679" />
</svg>