<?xml version="1.0" encoding="utf-8"?>
<svg version="1.1" id="Layer_1" xmlns="http://www.w3.org/2000/svg" xmlns:xlink="http://www.w3.org/1999/xlink" x="0px"
    y="0px" viewBox="0 0 122.88 121.86" style="enable-background:new 0 0 122.88 121.86" xml:space="preserve">
    <style type="text/css">
        .st0 {
            fill-rule: evenodd;
            clip-rule: evenodd;
        }
    </style>
    <path fill="currentColor" class="st0"
        d="M61.44,0.01c3.27-0.14,5.85,1,8.45,2.65c3.3,2.09,7.02,6.23,11.61,8.85c6.45,3.69,18.41-1.4,24.53,7.7 c3.57,5.3,3.74,9.46,4,13.57c0.29,4.43,1.06,8.51,5.6,14.51c7.51,9.93,9.07,16.54,5.2,23.43c-2.64,4.7-8.19,7.31-9.48,10.28 c-2.73,6.33,0.29,11.1-3.45,18.48c-2.6,5.12-6.61,8.49-11.95,10.21c-4.5,1.45-9.03-0.65-12.63,0.87 c-6.34,2.66-11.01,8.85-16.06,10.42c-1.95,0.6-3.89,0.9-5.82,0.89c-1.94,0.01-3.88-0.28-5.82-0.89 c-5.04-1.57-9.72-7.75-16.06-10.42c-3.61-1.52-8.13,0.58-12.63-0.87c-5.34-1.72-9.35-5.09-11.95-10.21 C11.23,92.1,14.26,87.33,11.52,81c-1.29-2.97-6.84-5.58-9.48-10.28c-3.87-6.89-2.3-13.5,5.2-23.43c4.54-6,5.31-10.08,5.6-14.51 c0.27-4.11,0.43-8.27,4-13.57c6.12-9.1,18.08-4.01,24.53-7.7c4.59-2.62,8.3-6.76,11.61-8.85C55.59,1.01,58.17-0.13,61.44,0.01 L61.44,0.01z M50.83,53.9l7.86,7.48l13.53-13.75c1.34-1.36,2.18-2.45,3.83-0.75l5.36,5.49c1.76,1.74,1.67,2.76,0.01,4.38 L61.75,76.06c-3.5,3.43-2.89,3.64-6.44,0.12L41.81,62.75c-0.74-0.8-0.66-1.61,0.15-2.41l6.22-6.45 C49.11,52.91,49.86,52.97,50.83,53.9L50.83,53.9z M61.26,27.57c18.95,0,34.3,15.36,34.3,34.3c0,18.95-15.36,34.3-34.3,34.3 c-18.95,0-34.3-15.36-34.3-34.3C26.96,42.92,42.32,27.57,61.26,27.57L61.26,27.57z" />
</svg>