<svg id="Layer_1" enable-background="new 0 0 512 512" viewBox="0 0 512 512" xmlns="http://www.w3.org/2000/svg">
    <g>
        <g fill="#ffffff">
            <path d="m125.78 17.84c0 9.84-8.01 17.84-17.84 17.84h-58.34c-7.67 0-13.92 6.24-13.92 13.91v58.33c0 9.84-8 17.84-17.84 17.84h-.01c-9.84-.01-17.83-8-17.83-17.84v-58.33c0-27.34 22.25-49.59 49.6-49.59h58.34c9.83 0 17.84 8 17.84 17.84z" fill="#354c5b" style="fill: rgb(255, 255, 255);"></path>
            <path d="m512 49.59v58.33c0 9.84-8 17.84-17.84 17.84s-17.84-8-17.84-17.84v-58.33c0-7.67-6.25-13.91-13.92-13.91h-58.34c-9.83 0-17.84-8-17.84-17.84s8.01-17.84 17.84-17.84h58.34c27.35 0 49.6 22.25 49.6 49.59z" fill="#354c5b" style="fill: rgb(255, 255, 255);"></path>
            <path d="m125.78 494.16c0 9.84-8.01 17.84-17.84 17.84h-58.34c-27.35 0-49.6-22.25-49.6-49.59v-58.33c0-9.84 7.99-17.83 17.83-17.84h.01c9.84 0 17.84 8 17.84 17.84v58.33c0 7.67 6.25 13.91 13.92 13.91h58.34c9.83 0 17.84 8 17.84 17.84z" fill="#354c5b" style="fill: rgb(255, 255, 255);"></path>
            <path d="m512 404.08v58.33c0 27.34-22.25 49.59-49.6 49.59h-58.34c-9.83 0-17.84-8-17.84-17.84s8.01-17.84 17.84-17.84h58.34c7.67 0 13.92-6.24 13.92-13.91v-58.33c0-9.84 8-17.84 17.84-17.84s17.84 8 17.84 17.84z" fill="#354c5b" style="fill: rgb(255, 255, 255);"></path>
        </g>
        <g fill="#ffffff">
            <path d="m125.78 494.16h-75.49c-17.93 0-32.46-14.53-32.46-32.45v-75.47h.01c9.84 0 17.84 8 17.84 17.84v58.33c0 7.67 6.25 13.91 13.92 13.91h58.34c9.83 0 17.84 8 17.84 17.84z" fill="#51697a" style="fill: rgb(255, 255, 255);"></path>
            <path d="m50.29 17.84h75.49c0 9.84-8.01 17.84-17.84 17.84h-58.34c-7.67 0-13.92 6.24-13.92 13.91v58.33c0 9.84-8 17.84-17.84 17.84h-.01v-75.47c0-17.92 14.53-32.45 32.46-32.45z" fill="#51697a" style="fill: rgb(255, 255, 255);"></path>
            <path d="m494.16 50.29v75.47c-9.84 0-17.84-8-17.84-17.84v-58.33c0-7.67-6.25-13.91-13.92-13.91h-58.34c-9.83 0-17.84-8-17.84-17.84h75.48c17.93 0 32.46 14.53 32.46 32.45z" fill="#51697a" style="fill: rgb(255, 255, 255);"></path>
            <path d="m494.16 386.24v75.47c0 17.92-14.53 32.45-32.46 32.45h-75.48c0-9.84 8.01-17.84 17.84-17.84h58.34c7.67 0 13.92-6.24 13.92-13.91v-58.33c0-9.84 8-17.84 17.84-17.84z" fill="#51697a" style="fill: rgb(255, 255, 255);"></path>
        </g>
        <path d="m427.64 338.12h-53.6v-162.42h54.51c10.2 0 18.5-8.3 18.5-18.5s-8.3-18.5-18.5-18.5h-54.51v-54.51c0-10.2-8.3-18.5-18.5-18.5-3.27 0-6.34.85-9 2.35-5.66 3.16-9.5 9.22-9.5 16.15v54.51h-162.42v-55.42c0-10.2-8.3-18.5-18.5-18.5s-18.5 8.3-18.5 18.5v55.42h-53.6c-10.2 0-18.5 8.3-18.5 18.5s8.3 18.5 18.5 18.5h53.6v162.42h-54.51c-10.21 0-18.5 8.3-18.5 18.5s8.29 18.5 18.5 18.5h54.51v52.69c0 10.2 8.3 18.5 18.5 18.5s18.5-8.3 18.5-18.5v-52.69h162.42v53.6c0 6.93 3.84 12.99 9.5 16.15 2.66 1.5 5.73 2.35 9 2.35 10.2 0 18.5-8.3 18.5-18.5v-53.6h53.6c10.2 0 18.5-8.3 18.5-18.5s-8.3-18.5-18.5-18.5zm-90.6 0h-162.42v-162.42h162.42z" fill="#51697a" style="fill: rgb(255, 255, 255);"></path>
        <g fill="#ffffff">
            <path d="m374.04 84.19v344.53c0 10.2-8.3 18.5-18.5 18.5-3.27 0-6.34-.85-9-2.35 5.66-3.16 9.5-9.22 9.5-16.15v-344.53c0-6.93-3.84-12.99-9.5-16.15 2.66-1.5 5.73-2.35 9-2.35 10.2 0 18.5 8.3 18.5 18.5z" fill="#354c5b" style="fill: rgb(255, 255, 255);"></path>
            <path d="m174.62 83.28v344.53c0 10.2-8.3 18.5-18.5 18.5-3.27 0-6.34-.85-9-2.35 5.66-3.16 9.5-9.22 9.5-16.15v-344.53c0-6.93-3.84-12.99-9.5-16.15 2.66-1.5 5.73-2.35 9-2.35 10.2 0 18.5 8.3 18.5 18.5z" fill="#354c5b" style="fill: rgb(255, 255, 255);"></path>
        </g>
    </g>
</svg>