<?xml version="1.0" encoding="UTF-8"?>
<!DOCTYPE svg PUBLIC "-//W3C//DTD SVG 1.1//EN" "http://www.w3.org/Graphics/SVG/1.1/DTD/svg11.dtd">
<!-- Creator: CorelDRAW 2021 (64-Bit) -->
<svg xmlns="http://www.w3.org/2000/svg" xml:space="preserve" version="1.1" shape-rendering="geometricPrecision" text-rendering="geometricPrecision" image-rendering="optimizeQuality" fill-rule="evenodd" clip-rule="evenodd"
viewBox="0 0 9370 9370"
 xmlns:xlink="http://www.w3.org/1999/xlink"
 xmlns:xodm="http://www.corel.com/coreldraw/odm/2003">
 <g id="Слой_x0020_1">
  <metadata id="CorelCorpID_0Corel-Layer"/>
  <line fill="none" stroke="#2B2A29" stroke-width="38" stroke-miterlimit="22.9256" x1="9269" y1="3665" x2="8706" y2= "3790" />
  <path fill="currentColor" d="M4369 4867l0 -2905c0,-52 43,-94 94,-94l444 0c51,0 94,42 94,94l0 2541 1833 1833c36,36 36,96 0,133l-365 365c-37,36 -97,36 -133,0l-1967 -1967zm3407 -2903l-311 202 696 356 696 355 -40 -780 -40 -781 -521 337c-857,-1011 -2135,-1653 -3571,-1653 -2587,0 -4685,2098 -4685,4685 0,2588 2098,4685 4685,4685 2588,0 4685,-2097 4685,-4685 0,-348 -38,-688 -110,-1015 -10,-42 -544,161 -554,120 63,288 97,588 97,895 0,2274 -1844,4118 -4118,4118 -2274,0 -4118,-1844 -4118,-4118 0,-2274 1844,-4118 4118,-4118 1230,0 2334,539 3088,1394 1,1 4,4 3,3z"/>
 </g>
</svg>
