<!-- icon666.com - MILLIONS vector ICONS FREE --><svg id="Layer_1" viewBox="0 0 24 24" xmlns="http://www.w3.org/2000/svg" data-name="Layer 1"><g fill="currentColor"><path d="m23.018 16.018a1 1 0 0 0 -1 1v3.582l-6.311-6.311a1 1 0 0 0 -1.414 1.414l6.307 6.315h-3.582a1 1 0 0 0 0 2h6a1 1 0 0 0 1-1v-6a1 1 0 0 0 -1-1z"></path><path d="m.982 24.018h6a1 1 0 0 0 0-2h-3.582l6.311-6.311a1 1 0 0 0 -1.414-1.414l-6.315 6.307v-3.582a1 1 0 0 0 -2 0v6a1 1 0 0 0 1 1z"></path><path d="m.982 7.982a1 1 0 0 0 1-1v-3.582l6.311 6.307a1.023 1.023 0 0 0 1.414 0 1 1 0 0 0 0-1.414l-6.307-6.311h3.582a1 1 0 0 0 0-2h-6a1 1 0 0 0 -1 1v6a1 1 0 0 0 1 1z"></path><path d="m23.018-.018h-6a1 1 0 0 0 0 2h3.582l-6.307 6.311a1 1 0 0 0 0 1.414 1.013 1.013 0 0 0 1.414 0l6.311-6.307v3.582a1 1 0 0 0 2 0v-6a1 1 0 0 0 -1-1z"></path></g></svg>