<?xml version="1.0" encoding="UTF-8"?>
<svg fill="currentColor" data-name="Layer 1" version="1.1" viewBox="0 0 121.7 122.88"
    xmlns="http://www.w3.org/2000/svg">
    <path
        d="m53.61 0c19.698-0.0025963 37.813 10.794 47.182 28.121 9.3694 17.327 8.4855 38.397-2.3021 54.879l23.21 25.29-16 14.63-22.39-24.66c-29.943 19.925-70.625 5.3019-81.031-29.126-10.406-34.428 15.365-69.137 51.331-69.134zm29.6 24c-14.117-14.085-36.217-16.239-52.786-5.1463-16.569 11.092-22.992 32.342-15.351 50.761 7.6414 18.419 27.221 28.881 46.776 24.987 19.555-3.8941 33.64-21.06 33.641-41.002 0.004884-11.107-4.4141-21.758-12.28-29.6z" />
    <path
        d="m74.014 30.832 4.27 4.5c1.1161 1.1936 1.0716 3.0609-0.1 4.2l-3.63 3.44c0.92771 1.8718 1.6004 3.8595 2 5.91l4.58 0.11c1.6373 0.05436 2.9282 1.4121 2.9 3.05l-0.16 6.21c-0.0592 1.6137-1.3852 2.8911-3 2.89l-5-0.13c-0.65804 1.9874-1.5796 3.8775-2.74 5.62l3.16 3.32c1.1134 1.1963 1.0645 3.0637-0.11 4.2l-4.5 4.28c-1.1963 1.1134-3.0636 1.0645-4.2-0.11l-3.48-3.59c-1.8718 0.92771-3.8595 1.6004-5.91 2l-0.11 4.58c-0.0539 1.6177-1.3814 2.9009-3 2.9l-6.23-0.12c-1.6137-0.0592-2.8911-1.3852-2.89-3l0.13-5c-1.9848-0.66437-3.8742-1.5855-5.62-2.74l-3.32 3.16c-1.1963 1.1134-3.0637 1.0645-4.2-0.11l-4.28-4.5c-1.1134-1.1963-1.0645-3.0637 0.11-4.2l3.62-3.44c-0.92301-1.8737-1.5954-3.8608-2-5.91l-4.65-0.16c-1.6177-0.05395-2.9009-1.3814-2.9-3l0.16-6.21c0.0597-1.6333 1.4158-2.9183 3.05-2.89l5 0.12c0.64915-2.008 1.5675-3.9187 2.73-5.68l-3.16-3.3c-1.1134-1.1963-1.0645-3.0637 0.11-4.2l4.5-4.27c1.1936-1.1161 3.0609-1.0717 4.2 0.1l3.41 3.67c1.8699-0.94354 3.8575-1.633 5.91-2.05l0.12-4.57c0.0539-1.6177 1.3814-2.9009 3-2.9l6.21 0.16c1.6138 0.05921 2.8911 1.3852 2.89 3l-0.12 5c1.9834 0.66009 3.87 1.5815 5.61 2.74l3.38-3.16c1.1976-1.12 3.0726-1.071 4.21 0.11zm-20.26 10.58c10.851 0.32371 15.905 13.592 8.0229 21.054-7.8824 7.462-20.854 1.6882-20.583-9.1639 0.16879-6.7589 5.802-12.092 12.56-11.89z"
        fill-rule="evenodd" />
</svg>