<!-- icon666.com - MILLIONS vector ICONS FREE --><svg id="Layer_1" viewBox="0 0 24 24" xmlns="http://www.w3.org/2000/svg" data-name="Layer 1"><g fill="currentColor"><path d="m14.3 9.7a1 1 0 0 0 .7.3h6a1 1 0 0 0 0-2h-3.586l6.293-6.293a1 1 0 0 0 -1.414-1.414l-6.293 6.293v-3.586a1 1 0 0 0 -2 0v6a1 1 0 0 0 .3.7z"></path><path d="m1 24a1 1 0 0 0 .707-.293l6.293-6.293v3.586a1 1 0 0 0 2 0v-6a1.015 1.015 0 0 0 -1-1h-6a1 1 0 0 0 0 2h3.586l-6.293 6.293a1 1 0 0 0 .707 1.707z"></path><path d="m6.586 8h-3.586a1 1 0 0 0 0 2h6a1.015 1.015 0 0 0 1-1v-6a1 1 0 0 0 -2 0v3.586l-6.293-6.293a1 1 0 0 0 -1.414 1.414z"></path><path d="m15 22a1 1 0 0 0 1-1v-3.586l6.293 6.293a1 1 0 0 0 1.414-1.414l-6.293-6.293h3.586a1 1 0 0 0 0-2h-6a1.02 1.02 0 0 0 -1 1v6a1 1 0 0 0 1 1z"></path></g></svg>