<?xml version="1.0" ?>
<svg viewBox="0 0 32 32" fill="#737373" xmlns="http://www.w3.org/2000/svg"><title/>
    <g data-name="Layer 40" id="Layer_40">
    <path d="M3,23.74V3.95a.89.89,0,0,1,.89-.89H17.71a.89.89,0,0,1,.89.89v.56h2V3.95a2.89,2.89,0,0,0-2.89-2.89H3.9A2.89,2.89,0,0,0,1,3.95V23.74A2.89,2.89,0,0,0,3.9,26.63h6.6v-2H3.9A.89.89,0,0,1,3,23.74Z"/><path d="M30.74,13.65,24.07,5.44A1,1,0,0,0,23.45,5a.88.88,0,0,0-.25,0H13.86A2.93,2.93,0,0,0,11,8V28a2.93,2.93,0,0,0,2.86,3H28.14A2.93,2.93,0,0,0,31,28V14.33A1,1,0,0,0,30.74,13.65ZM24.25,8.83l3.65,4.5H25.11a.94.94,0,0,1-.86-1ZM29,28a.94.94,0,0,1-.86,1H13.86A.94.94,0,0,1,13,28V8a.94.94,0,0,1,.86-1h8.39v5.32a2.93,2.93,0,0,0,2.86,3H29Z"/>
    <path d="M15.08,18a1,1,0,0,0,1,1h9.83a1,1,0,1,0,0-2H16.08A1,1,0,0,0,15.08,18Z"/>
    <path d="M25.92,21.42H16.08a1,1,0,0,0,0,2h9.83a1,1,0,0,0,0-2Z"/>
    </g>
</svg>