<svg xmlns="http://www.w3.org/2000/svg" width="16" height="16" viewBox="0 0 16 16" fill="none">
  <g clip-path="url(#clip0_323_2)">
    <path d="M15.5461 2.88058L13.1197 0.454198C12.8268 0.161288 12.4374 0 12.0232 0C11.609 0 11.2196 0.161288 10.9267 0.454188L0.769836 10.611C0.67343 10.7075 0.611285 10.8328 0.592966 10.9679L0.00590917 15.2929C-0.0202581 15.4858 0.0451601 15.6798 0.182807 15.8174C0.300466 15.9351 0.459319 16 0.623463 16C0.65131 16 0.679335 15.9981 0.707333 15.9943L5.03228 15.4073C5.1674 15.3889 5.29277 15.3268 5.38918 15.2304L15.5461 5.07357C15.839 4.78069 16.0002 4.39127 16.0002 3.97709C16.0002 3.56287 15.839 3.17346 15.5461 2.88058ZM4.65638 14.2004L1.35121 14.649L1.79985 11.3438L8.99731 4.14641L11.8538 7.00296L4.65638 14.2004ZM14.6646 4.19214L12.7352 6.12153L9.87871 3.265L11.8081 1.33561C11.8856 1.25809 11.9761 1.24651 12.0232 1.24651C12.0702 1.24651 12.1607 1.25809 12.2383 1.33561L14.6647 3.76199C14.7422 3.83951 14.7538 3.93002 14.7538 3.97706C14.7538 4.0241 14.7422 4.11462 14.6646 4.19214Z" fill="white"/>
  </g>
  <defs>
    <clipPath id="clip0_323_2">
      <rect width="16" height="16" fill="white"/>
    </clipPath>
  </defs>
</svg>