<svg id="Layer_1" data-name="Layer 1" xmlns="http://www.w3.org/2000/svg" viewBox="0 0 109.22 122.88">
    <path style="fill-rule: evenodd;" fill="currentColor"
        d="M41.83,97.57c0-.13,0-.26,0-.38a17,17,0,0,1,4.31-11.57L32.39,71.88a5.76,5.76,0,0,0-8.13,0h0a5.76,5.76,0,0,0,0,8.12L41.83,97.57Zm-8.13,11.5a4.08,4.08,0,1,1-2.27,7.84,47.87,47.87,0,0,1-19.92-11A44.75,44.75,0,0,1,.23,88.11a4.09,4.09,0,0,1,7.71-2.72A36.71,36.71,0,0,0,17.14,100a39.73,39.73,0,0,0,16.56,9.12ZM63.88,22.38A4.08,4.08,0,1,1,67.36,15a44.74,44.74,0,0,1,10.19,6.55,41.61,41.61,0,0,1,7.63,8.63,4.09,4.09,0,1,1-6.82,4.51,33.56,33.56,0,0,0-6.12-6.93,36.66,36.66,0,0,0-8.36-5.37ZM68.05,8A4.08,4.08,0,1,1,70.32.16a48,48,0,0,1,19.93,11A44.84,44.84,0,0,1,101.52,29a4.09,4.09,0,0,1-7.71,2.72,36.71,36.71,0,0,0-9.2-14.56A39.73,39.73,0,0,0,68.05,8ZM92.51,71.35A29.16,29.16,0,0,0,84,76.83a14.41,14.41,0,0,0-4.16,6.78,11,11,0,0,0,.56,7A16.51,16.51,0,0,0,84,95.8L82,97.65C71.69,86.59,77.13,76,90.11,69.4l-3.85-3.66a12.25,12.25,0,0,0-1-.9,1.85,1.85,0,0,1-.56-.32,11.5,11.5,0,0,0-7.35-1.74,11.34,11.34,0,0,0-7,3.28l-.75.75-.06,0,0,0L48.89,87.56a1.83,1.83,0,0,1-.54.38l-.37.38a11.37,11.37,0,0,0-3.28,6.89,12,12,0,0,0,.21,3.73,11.77,11.77,0,0,0,3,5.12l12.42,12.42a21.7,21.7,0,0,0,15.24,6.4,21.06,21.06,0,0,0,15.1-6.21l9.42-9.42a21.85,21.85,0,0,0,7.12-16.71v-.11h0v0l-.14-29.23a1.5,1.5,0,0,1,0-.3l2.13.13-2.12-.13c.28-4.55-1.33-7.49-3.47-8.8a5.16,5.16,0,0,0-2.47-.78,4.64,4.64,0,0,0-2.4.52c-1.89,1-3.32,3.33-3.32,7.16,0,.88,0,3.21-.06,5.42a27,27,0,0,1-.53,5.27,2.13,2.13,0,0,1-.58,1.08,2.1,2.1,0,0,1-1.76.62ZM47.89,83.61,56,75.48l-22-22A5.78,5.78,0,0,0,30,51.84a5.72,5.72,0,0,0-4.07,1.67h0a5.79,5.79,0,0,0,0,8.14l22,22Zm10.3-10.3,8.13-8.13-29-29a5.79,5.79,0,0,0-8.14,0h0a5.79,5.79,0,0,0,0,8.14l29,29Zm10.74-9.49a17.55,17.55,0,0,1,11.63-4.34h.28L55.14,33.77a5.77,5.77,0,0,0-8.13,0h0a5.77,5.77,0,0,0,0,8.13L68.92,63.83Z" />
</svg>