<svg width="20" height="20" viewBox="0 0 20 20" fill="none" xmlns="http://www.w3.org/2000/svg">
<path d="M5.04883 5.4502L5.05762 5.48828L7.30273 14.4883L7.31836 14.5498H6.43848L6.42969 14.5117L5.82422 12.001H3.43066L2.8252 14.5117L2.81543 14.5498H1.93555L1.95117 14.4883L4.19629 5.48828L4.20605 5.4502H5.04883ZM11.9473 5.4502V6.5166H8.99707V9.22949H10.5C10.9459 9.22954 11.3254 9.33694 11.6357 9.55469C11.9471 9.77175 12.1814 10.0773 12.3398 10.4688C12.5001 10.8599 12.5801 11.3193 12.5801 11.8457C12.5801 12.3721 12.5008 12.8387 12.3408 13.2441C12.1826 13.65 11.9477 13.9703 11.6367 14.2021C11.3263 14.4349 10.9464 14.5498 10.5 14.5498H8.15723V5.4502H11.9473ZM15.8867 5.4502C16.3209 5.45027 16.6837 5.56044 16.9707 5.78516C17.2555 6.00534 17.4672 6.30279 17.6055 6.67383H17.6045C17.7422 7.04046 17.8115 7.44612 17.8115 7.89062C17.8115 8.2809 17.7643 8.60682 17.668 8.86621C17.5746 9.12312 17.4488 9.32855 17.291 9.48145L17.292 9.48242C17.1477 9.62401 16.9897 9.72967 16.8203 9.80273V9.81543C17.0061 9.84475 17.1887 9.94642 17.3682 10.1133C17.5642 10.2956 17.7264 10.5543 17.8555 10.8867C17.9857 11.2222 18.0498 11.6306 18.0498 12.1094C18.0498 12.5657 17.9798 12.9778 17.8379 13.3447C17.6952 13.7138 17.4692 14.0077 17.1602 14.2246C16.8489 14.443 16.4467 14.5498 15.958 14.5498H13.6982V5.4502H15.8867ZM8.99707 13.501H10.5C10.7679 13.5009 10.9918 13.4221 11.1748 13.2666L11.3076 13.1377C11.4317 12.9997 11.5299 12.8357 11.6025 12.6455L11.668 12.4492C11.7238 12.2505 11.751 12.0434 11.751 11.8281C11.751 11.4068 11.6416 11.047 11.4238 10.7461V10.7451C11.2092 10.446 10.9033 10.296 10.5 10.2959H8.99707V13.501ZM14.5391 13.4834H15.958C16.4325 13.4834 16.7571 13.3484 16.9473 13.0908C17.1451 12.8223 17.2451 12.4958 17.2451 12.1094C17.2451 11.8106 17.1936 11.5354 17.0908 11.2842C17.0139 11.094 16.9127 10.9339 16.7881 10.8027L16.6553 10.6807C16.4698 10.5302 16.25 10.4542 15.9941 10.4541H14.5391V13.4834ZM3.6875 10.9346H5.56738L4.62695 7.03809L3.6875 10.9346ZM14.5391 9.40527H15.8623C16.0749 9.40527 16.266 9.34342 16.4365 9.2207L16.5596 9.11914C16.6761 9.00762 16.7728 8.86693 16.8496 8.69629L16.918 8.51855C16.9767 8.33296 17.0068 8.12387 17.0068 7.89062C17.0068 7.50322 16.9148 7.17775 16.7344 6.91211C16.5587 6.65079 16.2798 6.5167 15.8867 6.5166H14.5391V9.40527Z" fill="#6B6B6B" stroke="#6B6B6B" stroke-width="0.1"/>
</svg>
