<?xml version="1.0" encoding="UTF-8"?>
<!DOCTYPE svg PUBLIC "-//W3C//DTD SVG 1.1//EN" "http://www.w3.org/Graphics/SVG/1.1/DTD/svg11.dtd">
<!-- Creator: CorelDRAW 2021 (64-Bit) -->
<svg xmlns="http://www.w3.org/2000/svg" xml:space="preserve" version="1.1" shape-rendering="geometricPrecision" text-rendering="geometricPrecision" image-rendering="optimizeQuality" fill-rule="evenodd" clip-rule="evenodd"
viewBox="0 0 271 335"
 xmlns:xlink="http://www.w3.org/1999/xlink"
 xmlns:xodm="http://www.corel.com/coreldraw/odm/2003">
 <g id="Слой_x0020_1">
  <metadata id="CorelCorpID_0Corel-Layer"/>
  <path fill="currentColor" d="M271 75c0,6 -5,9 -9,12l-75 61c-12,10 -26,-7 -13,-17l56 -45c-27,0 -54,0 -80,0 -40,0 -65,6 -91,29 -62,55 -47,164 42,194 23,8 57,5 87,5l70 0c5,0 7,0 9,3 8,7 2,18 -6,18l-129 0c-20,0 -40,-6 -54,-12 -26,-12 -47,-32 -61,-56l-5 -12c-14,-29 -15,-63 -6,-94 6,-21 19,-41 34,-57 27,-27 60,-39 98,-39 31,0 61,0 92,0 -1,-2 -7,-5 -8,-7l-48 -38c-10,-9 -4,-20 5,-20l1 0c2,0 5,1 7,3l75 60c4,3 9,6 9,12z"/>
 </g>
</svg>
