<svg version="1.1" id="Artwork" xmlns="http://www.w3.org/2000/svg" xmlns:xlink="http://www.w3.org/1999/xlink" x="0px" y="0px" fill="#737373" viewBox="0 0 512 512" enable-background="new 0 0 512 512" xml:space="preserve">
    <g>
        <path d="M49.2,58.6c-20.3,0-36.9,16.5-36.9,36.8v321.1c0,20.3,16.5,36.8,36.9,36.8h413.7c20.3,0,36.8-16.5,36.8-36.8V95.5 c0-20.3-16.5-36.8-36.8-36.8H49.2z M462.8,428.9H49.2c-6.8,0-12.4-5.5-12.4-12.3V175.7h438.3v240.9 C475.2,423.4,469.6,428.9,462.8,428.9z M475.2,95.5v55.7H36.8V95.5c0-6.8,5.5-12.3,12.4-12.3h413.7 C469.6,83.1,475.2,88.6,475.2,95.5z"></path>
        <path d="M313.8,284.6h-45.5v-45.5c0-6.8-5.5-12.3-12.3-12.3s-12.3,5.5-12.3,12.3v45.5h-45.5c-6.8,0-12.3,5.5-12.3,12.3 s5.5,12.3,12.3,12.3h45.5v45.5c0,6.8,5.5,12.3,12.3,12.3s12.3-5.5,12.3-12.3v-45.5h45.5c6.8,0,12.3-5.5,12.3-12.3 S320.5,284.6,313.8,284.6z"></path>
    </g>
</svg>