<?xml version="1.0" encoding="UTF-8"?>
<!DOCTYPE svg PUBLIC "-//W3C//DTD SVG 1.1//EN" "http://www.w3.org/Graphics/SVG/1.1/DTD/svg11.dtd">
<!-- Creator: CorelDRAW 2021 (64-Bit) -->
<svg xmlns="http://www.w3.org/2000/svg" xml:space="preserve" version="1.1" shape-rendering="geometricPrecision" text-rendering="geometricPrecision" image-rendering="optimizeQuality" fill-rule="evenodd" clip-rule="evenodd"
viewBox="0 0 46656 46656"
 xmlns:xlink="http://www.w3.org/1999/xlink"
 xmlns:xodm="http://www.corel.com/coreldraw/odm/2003">
 <g id="Слой_x0020_1">
  <metadata id="CorelCorpID_0Corel-Layer"/>
  <path fill="currentColor" d="M2706 15583l0 28087c0,152 126,280 280,280l40684 0c154,0 280,-126 280,-280l0 -28087c0,-154 -128,-280 -280,-280l-40684 0c-152,0 -280,131 -280,280zm-1306 -15583l43857 0c770,0 1399,629 1399,1400l0 43857c0,770 -629,1399 -1399,1399l-43857 0c-771,0 -1400,-629 -1400,-1399l0 -43857c0,-771 629,-1400 1400,-1400z"/>
 </g>
</svg>
