<?xml version="1.0" encoding="UTF-8"?>
<!DOCTYPE svg PUBLIC "-//W3C//DTD SVG 1.1//EN" "http://www.w3.org/Graphics/SVG/1.1/DTD/svg11.dtd">
<!-- Creator: CorelDRAW 2021 (64-Bit) -->
<svg xmlns="http://www.w3.org/2000/svg" xml:space="preserve" version="1.1" shape-rendering="geometricPrecision" text-rendering="geometricPrecision" image-rendering="optimizeQuality" fill-rule="evenodd" clip-rule="evenodd"
viewBox="0 0 9418 9418"
 xmlns:xlink="http://www.w3.org/1999/xlink"
 xmlns:xodm="http://www.corel.com/coreldraw/odm/2003">
 <g id="Слой_x0020_1">
  <metadata id="CorelCorpID_0Corel-Layer"/>
  <path fill="currentColor" d="M3491 1102l0 1714c0,10 9,19 19,19l2398 0c11,0 19,-9 19,-19l0 -1714c0,-10 -8,-19 -19,-19l-2398 0c-10,0 -19,9 -19,19zm1218 3817c-41,24 -90,38 -141,38l-2667 0c-31,0 -57,25 -57,56l0 1172 1292 0c54,0 97,44 97,97l0 3039c0,54 -43,97 -97,97l-3039 0c-53,0 -97,-43 -97,-97l0 -3039c0,-53 44,-97 97,-97l1239 0 0 -1454c0,-156 127,-283 282,-283l2743 0c31,0 56,-25 56,-56l0 -1159 -1227 0c-54,0 -97,-43 -97,-97l0 -3039c0,-53 43,-97 97,-97l3039 0c53,0 97,44 97,97l0 3039c0,54 -44,97 -97,97l-1228 0 0 1159c0,31 26,56 57,56l2742 0c156,0 283,127 283,283l0 1454 1238 0c54,0 97,44 97,97l0 3039c0,54 -43,97 -97,97l-3039 0c-53,0 -97,-43 -97,-97l0 -3039c0,-53 44,-97 97,-97l1292 0 0 -1172c0,-31 -25,-56 -56,-56l-2668 0c-51,0 -99,-14 -141,-38zm-4311 2368l0 1714c0,10 9,19 20,19l2398 0c10,0 19,-9 19,-19l0 -1714c0,-10 -9,-19 -19,-19l-2398 0c-11,0 -20,9 -20,19zm6185 0l0 1714c0,10 9,19 20,19l2398 0c10,0 19,-9 19,-19l0 -1714c0,-10 -9,-19 -19,-19l-2398 0c-11,0 -20,9 -20,19z"/>
 </g>
</svg>
