<?xml version="1.0" encoding="UTF-8" standalone="no"?>
<svg
   version="1.1"
   width="238px"
   height="207px"
   style="shape-rendering:geometricPrecision; text-rendering:geometricPrecision; image-rendering:optimizeQuality; fill-rule:evenodd; clip-rule:evenodd"
   id="svg14"
   sodipodi:docname="unknown.svg"
   inkscape:version="1.2.2 (b0a8486541, 2022-12-01)"
   xmlns:inkscape="http://www.inkscape.org/namespaces/inkscape"
   xmlns:sodipodi="http://sodipodi.sourceforge.net/DTD/sodipodi-0.dtd"
   xmlns="http://www.w3.org/2000/svg"
   xmlns:svg="http://www.w3.org/2000/svg">
  <defs
     id="defs18">
    <rect
       x="62.625701"
       y="46.898054"
       width="116.13761"
       height="104.02001"
       id="rect714" />
  </defs>
  <sodipodi:namedview
     id="namedview16"
     pagecolor="#505050"
     bordercolor="#eeeeee"
     borderopacity="1"
     inkscape:showpageshadow="0"
     inkscape:pageopacity="0"
     inkscape:pagecheckerboard="0"
     inkscape:deskcolor="#505050"
     showgrid="false"
     inkscape:zoom="3.6219438"
     inkscape:cx="131.42114"
     inkscape:cy="101.05071"
     inkscape:window-width="2560"
     inkscape:window-height="1440"
     inkscape:window-x="0"
     inkscape:window-y="2160"
     inkscape:window-maximized="1"
     inkscape:current-layer="svg14" />
  <g
     id="g4"
     transform="matrix(0.77867806,0,0,0.7770697,26.226651,22.961821)">
    <path
       style="opacity:0.951"
       fill="#fefcfb"
       d="m 59.5,-0.5 c 39.3333,0 78.667,0 118,0 19.763,33.8674 39.763,67.5341 60,101 0,1.333 0,2.667 0,4 -20.391,33.735 -40.391,67.735 -60,102 -39.333,0 -78.6667,0 -118,0 -19.6093,-34.265 -39.6093,-68.265 -60,-102 0,-1.333 0,-2.667 0,-4 20.2371,-33.4659 40.2371,-67.1326 60,-101 z"
       id="path2" />
  </g>
  <g
     id="g8"
     transform="matrix(0.77867806,0,0,0.7770697,26.226651,22.961821)">
    <path
       style="opacity:1"
       fill="#c63221"
       d="m 64.5,10.5 c 36.006,-0.3332 72.006,10e-5 108,1 17.878,30.0727 35.545,60.406 53,91 -17.621,31.079 -35.621,61.913 -54,92.5 -35.333,0.667 -70.667,0.667 -106,0 -18.3513,-30.523 -36.3513,-61.356 -54,-92.5 17.6896,-30.6809 35.3563,-61.3475 53,-92 z"
       id="path6" />
  </g>
  <g
     aria-label="???"
     transform="matrix(1.4078999,0,0,1.315595,-21.027094,-1.1243448)"
     id="text712"
     style="font-size:53.3333px;font-family:'Fira Sans';-inkscape-font-specification:'Fira Sans';white-space:pre;fill:#ffffff">
    <path
       d="m 75.318326,57.733987 c -4.426664,0 -8.053329,1.706665 -11.093327,5.279996 l 3.359998,2.613332 c 2.186665,-2.666665 4.746664,-3.839997 7.413329,-3.839997 3.306665,0 5.386663,1.653332 5.386663,4.586663 0,5.759997 -9.386661,4.853331 -9.386661,13.813326 v 2.666665 h 4.853331 v -2.399999 c 0,-6.986662 9.653327,-5.866663 9.653327,-14.399991 0,-4.266664 -3.466664,-8.319995 -10.18666,-8.319995 z m -1.759999,30.613315 c -2.079999,0 -3.679998,1.653332 -3.679998,3.679997 0,2.079999 1.599999,3.733332 3.679998,3.733332 2.133332,0 3.733331,-1.653333 3.733331,-3.733332 0,-2.026665 -1.599999,-3.679997 -3.733331,-3.679997 z"
       id="path742" />
    <path
       d="m 99.798291,57.733987 c -4.426664,0 -8.053329,1.706665 -11.093327,5.279996 l 3.359998,2.613332 c 2.186666,-2.666665 4.746664,-3.839997 7.413329,-3.839997 3.306669,0 5.386659,1.653332 5.386659,4.586663 0,5.759997 -9.386656,4.853331 -9.386656,13.813326 v 2.666665 h 4.853326 v -2.399999 c 0,-6.986662 9.65333,-5.866663 9.65333,-14.399991 0,-4.266664 -3.46666,-8.319995 -10.186659,-8.319995 z m -1.759999,30.613315 c -2.079999,0 -3.679998,1.653332 -3.679998,3.679997 0,2.079999 1.599999,3.733332 3.679998,3.733332 2.133328,0 3.733328,-1.653333 3.733328,-3.733332 0,-2.026665 -1.6,-3.679997 -3.733328,-3.679997 z"
       id="path744" />
    <path
       d="m 124.27826,57.733987 c -4.42667,0 -8.05333,1.706665 -11.09333,5.279996 l 3.36,2.613332 c 2.18666,-2.666665 4.74666,-3.839997 7.41333,-3.839997 3.30666,0 5.38666,1.653332 5.38666,4.586663 0,5.759997 -9.38666,4.853331 -9.38666,13.813326 v 2.666665 h 4.85333 v -2.399999 c 0,-6.986662 9.65333,-5.866663 9.65333,-14.399991 0,-4.266664 -3.46667,-8.319995 -10.18666,-8.319995 z m -1.76,30.613315 c -2.08,0 -3.68,1.653332 -3.68,3.679997 0,2.079999 1.6,3.733332 3.68,3.733332 2.13333,0 3.73333,-1.653333 3.73333,-3.733332 0,-2.026665 -1.6,-3.679997 -3.73333,-3.679997 z"
       id="path746" />
  </g>
</svg>
