<?xml version="1.0" encoding="UTF-8" standalone="no"?>
<!DOCTYPE svg PUBLIC "-//W3C//DTD SVG 1.1//EN" "http://www.w3.org/Graphics/SVG/1.1/DTD/svg11.dtd">
<svg xmlns="http://www.w3.org/2000/svg" version="1.1" viewBox="0.00 0.00 512.00 512.00">
<g stroke-width="2.00" fill="none" stroke-linecap="butt">
<path stroke="#ed9247" vector-effect="non-scaling-stroke" d="
  M 358.54 21.50
  Q 358.33 22.00 358.00 22.00
  Q 256.21 22.00 154.43 22.00
  A 1.05 1.04 65.7 0 1 153.73 21.73
  L 153.46 21.50"
/>
<path stroke="#e5999c" vector-effect="non-scaling-stroke" d="
  M 78.84 21.86
  L 48.36 52.22"
/>
<path stroke="#e5999c" vector-effect="non-scaling-stroke" d="
  M 463.61 52.37
  L 433.18 21.88"
/>
<path stroke="#ed9247" vector-effect="non-scaling-stroke" d="
  M 463.49 106.04
  L 463.52 405.81"
/>
<path stroke="#ed9247" vector-effect="non-scaling-stroke" d="
  M 48.49 405.84
  Q 48.50 257.31 48.50 108.90
  C 48.50 108.11 49.04 107.07 48.37 106.27"
/>
<path stroke="#dd9195" vector-effect="non-scaling-stroke" d="
  M 87.69 354.55
  L 190.26 354.76"
/>
<path stroke="#e5999c" vector-effect="non-scaling-stroke" d="
  M 190.26 354.76
  L 423.75 354.66"
/>
<path stroke="#ad9679" vector-effect="non-scaling-stroke" d="
  M 423.75 354.66
  L 431.00 354.50
  Q 431.50 354.49 431.50 353.99
  L 431.50 55.75
  A 0.50 0.50 0.0 0 0 431.00 55.25
  L 81.00 55.25
  Q 80.50 55.25 80.50 55.75
  L 80.50 353.99
  Q 80.50 354.48 80.99 354.48
  L 87.69 354.55"
/>
<path stroke="#b8e5c1" vector-effect="non-scaling-stroke" d="
  M 423.75 354.66
  Q 424.06 353.84 424.01 353.50
  Q 414.60 284.38 405.04 215.28
  Q 404.77 213.34 404.50 211.98"
/>
<path stroke="#8ebc99" vector-effect="non-scaling-stroke" d="
  M 404.50 211.98
  Q 402.58 195.30 398.12 163.57
  Q 393.66 131.85 384.81 104.32
  C 382.24 96.31 370.82 64.99 357.54 70.83
  Q 329.51 83.16 317.67 111.47"
/>
<path stroke="#b8e5c1" vector-effect="non-scaling-stroke" d="
  M 317.67 111.47
  Q 316.84 111.22 316.36 110.94
  C 295.63 99.00 272.07 94.60 248.35 95.85"
/>
<path stroke="#b0ddb9" vector-effect="non-scaling-stroke" d="
  M 248.35 95.85
  Q 218.96 96.74 194.37 111.46"
/>
<path stroke="#8ebc99" vector-effect="non-scaling-stroke" d="
  M 194.37 111.46
  Q 182.72 83.53 155.44 71.21
  C 129.91 59.69 114.95 153.64 113.23 166.91
  Q 110.28 189.56 107.29 212.28"
/>
<path stroke="#b0ddb9" vector-effect="non-scaling-stroke" d="
  M 107.29 212.28
  L 87.69 354.55"
/>
<path stroke="#c5bebd" vector-effect="non-scaling-stroke" d="
  M 404.50 211.98
  C 392.17 171.84 369.64 140.00 332.60 119.86
  Q 324.98 115.72 317.67 111.47"
/>
<path stroke="#e8e0dd" vector-effect="non-scaling-stroke" d="
  M 248.35 95.85
  C 244.34 97.54 239.90 98.51 236.36 100.39
  C 221.12 108.50 209.19 123.04 201.60 138.34"
/>
<path stroke="#beb7b5" vector-effect="non-scaling-stroke" d="
  M 201.60 138.34
  L 200.71 139.00"
/>
<path stroke="#aaa3a2" vector-effect="non-scaling-stroke" d="
  M 200.71 139.00
  C 175.47 148.20 152.15 166.41 139.19 189.93
  C 115.96 232.07 131.33 279.62 168.52 307.25"
/>
<path stroke="#beb7b5" vector-effect="non-scaling-stroke" d="
  M 168.52 307.25
  Q 168.28 307.30 168.77 307.55"
/>
<path stroke="#e8e0dd" vector-effect="non-scaling-stroke" d="
  M 168.77 307.55
  Q 168.71 307.66 168.58 307.73
  Q 168.51 307.78 168.50 307.87
  L 165.86 352.27
  Q 165.72 354.55 168.01 354.57
  L 190.26 354.76"
/>
<path stroke="#beb7b5" vector-effect="non-scaling-stroke" d="
  M 194.37 111.46
  Q 176.60 121.32 166.58 127.83
  C 138.36 146.17 119.43 175.32 109.25 206.97
  Q 108.39 209.64 107.29 212.28"
/>
<path stroke="#c5bebd" vector-effect="non-scaling-stroke" d="
  M 168.77 307.55
  C 220.91 345.59 299.11 345.17 348.95 302.70
  C 379.92 276.31 392.91 236.28 376.59 198.02
  C 359.40 157.72 315.45 134.08 273.55 129.68
  Q 236.41 125.78 201.60 138.34"
/>
<path stroke="#83a3a9" vector-effect="non-scaling-stroke" d="
  M 188.26 168.01
  C 172.41 169.51 159.50 183.15 161.04 199.44
  Q 162.44 214.22 175.12 222.22"
/>
<path stroke="#878282" vector-effect="non-scaling-stroke" d="
  M 168.52 307.25
  Q 169.24 291.97 170.03 276.68
  Q 171.45 249.60 175.12 222.22"
/>
<path stroke="#97b7bd" vector-effect="non-scaling-stroke" d="
  M 175.12 222.22
  Q 187.82 228.87 199.65 224.70
  C 216.20 218.85 224.23 199.46 216.20 184.04
  Q 207.83 167.96 188.26 168.01"
/>
<path stroke="#878282" vector-effect="non-scaling-stroke" d="
  M 188.26 168.01
  Q 193.41 152.88 200.71 139.00"
/>
<path stroke="#e5999c" vector-effect="non-scaling-stroke" d="
  M 378.37 378.85
  Q 384.50 378.57 390.62 378.73
  C 398.69 378.94 401.34 368.94 394.22 365.94
  Q 392.57 365.24 388.67 365.24
  Q 371.21 365.26 353.77 365.24
  Q 349.59 365.24 347.85 366.03
  C 343.01 368.22 342.56 375.30 347.42 377.92
  C 350.68 379.67 359.79 378.74 363.70 378.76
  A 0.56 0.55 90.0 0 1 364.25 379.32
  Q 364.25 411.36 364.25 443.48
  Q 364.25 447.53 365.19 449.35
  C 368.12 455.06 377.79 453.07 377.77 446.75
  Q 377.69 413.11 377.78 379.47
  Q 377.78 378.88 378.37 378.85"
/>
<path stroke="#e5999c" vector-effect="non-scaling-stroke" d="
  M 127.27 438.70
  Q 127.20 407.01 127.25 375.34
  Q 127.26 370.51 126.15 368.47
  C 122.87 362.44 113.84 365.34 113.80 373.07
  Q 113.51 420.48 113.77 446.00
  C 113.82 451.36 117.57 452.74 122.46 452.75
  Q 134.03 452.77 145.61 452.73
  C 153.67 452.70 155.96 442.68 148.79 439.89
  C 144.20 438.10 133.11 439.27 127.80 439.23
  Q 127.27 439.23 127.27 438.70"
/>
<path stroke="#e5999c" vector-effect="non-scaling-stroke" d="
  M 255.71 409.10
  A 43.69 43.69 0.0 0 0 212.02 365.41
  A 43.69 43.69 0.0 0 0 168.33 409.10
  A 43.69 43.69 0.0 0 0 212.02 452.79
  A 43.69 43.69 0.0 0 0 255.71 409.10"
/>
<path stroke="#e5999c" vector-effect="non-scaling-stroke" d="
  M 278.87 404.63
  Q 281.06 406.70 282.31 407.20
  Q 294.23 412.06 306.14 416.92
  C 321.77 423.31 315.78 438.02 301.74 439.21
  Q 290.41 440.17 281.50 432.61
  Q 277.39 429.11 276.29 428.70
  C 271.96 427.06 266.60 431.74 267.76 436.45
  Q 268.29 438.57 270.73 440.91
  C 280.59 450.38 295.95 455.53 309.35 451.47
  C 318.10 448.82 325.68 442.37 328.25 433.48
  C 335.11 409.75 306.18 402.46 290.92 396.06
  C 279.56 391.30 287.24 379.70 296.28 379.03
  Q 306.56 378.28 314.96 384.36
  C 323.29 390.39 331.37 380.23 323.56 374.10
  C 314.97 367.37 303.41 364.00 292.63 366.04
  C 274.13 369.55 263.85 390.51 278.87 404.63"
/>
<path stroke="#7a7575" vector-effect="non-scaling-stroke" d="
  M 149.22 92.04
  C 141.51 84.84 136.43 95.25 134.15 100.92
  C 131.55 107.41 124.92 131.69 132.51 136.19
  C 136.60 138.60 148.81 134.37 152.98 132.47
  C 170.99 124.29 159.06 101.23 149.22 92.04"
/>
<path stroke="#7a7575" vector-effect="non-scaling-stroke" d="
  M 359.44 95.19
  C 351.31 105.44 342.23 125.47 359.71 132.80
  Q 367.88 136.22 376.20 136.91
  C 390.13 138.07 379.65 95.18 370.56 90.22
  C 366.43 87.96 362.05 91.89 359.44 95.19"
/>
<path stroke="#97b7bd" vector-effect="non-scaling-stroke" d="
  M 350.96 197.17
  A 29.11 29.11 0.0 0 0 321.85 168.06
  A 29.11 29.11 0.0 0 0 292.74 197.17
  A 29.11 29.11 0.0 0 0 321.85 226.28
  A 29.11 29.11 0.0 0 0 350.96 197.17"
/>
<path stroke="#706b6d" vector-effect="non-scaling-stroke" d="
  M 261.47 224.87
  C 267.82 221.82 273.12 209.78 277.90 201.17
  C 282.65 192.63 277.17 181.30 267.50 181.26
  Q 257.93 181.22 248.37 181.26
  Q 242.22 181.29 239.44 182.58
  C 233.09 185.51 230.33 194.22 233.52 200.25
  Q 235.88 204.72 244.86 219.91
  Q 246.59 222.84 249.94 224.61
  Q 250.38 224.84 250.41 225.34
  Q 250.71 229.93 250.47 231.20
  C 248.98 239.20 237.63 239.72 235.28 231.77
  C 234.29 228.42 235.93 223.98 233.20 221.36
  C 231.35 219.58 228.37 219.67 226.45 221.39
  C 224.57 223.10 224.90 226.27 224.98 229.24
  C 225.39 245.68 243.03 253.33 255.27 242.40
  Q 255.66 242.05 256.05 242.40
  C 270.54 255.54 288.78 242.40 286.47 224.46
  C 285.82 219.45 279.55 218.49 276.98 223.00
  C 275.92 224.86 276.86 229.80 276.03 232.28
  C 274.04 238.26 265.23 239.49 261.95 233.88
  C 260.56 231.51 260.95 228.34 261.02 225.57
  Q 261.03 225.08 261.47 224.87"
/>
<path stroke="#6c8c95" vector-effect="non-scaling-stroke" d="
  M 208.16 197.18
  A 18.01 18.01 0.0 0 0 190.15 179.17
  A 18.01 18.01 0.0 0 0 172.14 197.18
  A 18.01 18.01 0.0 0 0 190.15 215.19
  A 18.01 18.01 0.0 0 0 208.16 197.18"
/>
<path stroke="#6c8c95" vector-effect="non-scaling-stroke" d="
  M 339.86 197.18
  A 18.02 18.02 0.0 0 0 321.84 179.16
  A 18.02 18.02 0.0 0 0 303.82 197.18
  A 18.02 18.02 0.0 0 0 321.84 215.20
  A 18.02 18.02 0.0 0 0 339.86 197.18"
/>
<path stroke="#e5999c" vector-effect="non-scaling-stroke" d="
  M 242.18 409.10
  A 30.15 30.15 0.0 0 0 212.03 378.95
  A 30.15 30.15 0.0 0 0 181.88 409.10
  A 30.15 30.15 0.0 0 0 212.03 439.25
  A 30.15 30.15 0.0 0 0 242.18 409.10"
/>
</g>
<path fill="#ffd939" d="
  M 250.31 0.00
  L 261.77 0.00
  Q 312.43 1.31 358.54 21.50
  Q 358.33 22.00 358.00 22.00
  Q 256.21 22.00 154.43 22.00
  A 1.05 1.04 65.7 0 1 153.73 21.73
  L 153.46 21.50
  Q 199.72 1.32 250.31 0.00
  Z"
/>
<path fill="#efe7e4" d="
  M 78.84 21.86
  L 48.36 52.22
  L 45.87 54.51
  Q 45.36 54.99 44.87 54.49
  L 27.06 36.69
  Q 26.63 36.25 27.06 35.81
  L 62.44 0.44
  A 0.62 0.61 44.7 0 1 63.31 0.44
  L 81.18 18.31
  Q 81.59 18.72 81.21 19.15
  L 78.84 21.86
  Z"
/>
<path fill="#efe7e4" d="
  M 463.61 52.37
  L 433.18 21.88
  L 430.76 19.29
  Q 430.31 18.81 430.77 18.35
  L 448.69 0.44
  A 0.62 0.61 -44.7 0 1 449.56 0.44
  L 484.94 35.81
  Q 485.38 36.25 484.94 36.69
  L 467.10 54.52
  A 0.76 0.75 -46.4 0 1 466.06 54.55
  L 463.61 52.37
  Z"
/>
<path fill="#da4a54" d="
  M 153.46 21.50
  L 153.73 21.73
  A 1.05 1.04 65.7 0 0 154.43 22.00
  Q 256.21 22.00 358.00 22.00
  Q 358.33 22.00 358.54 21.50
  Q 359.46 21.81 359.94 21.81
  Q 396.38 22.23 433.18 21.88
  L 463.61 52.37
  L 463.49 106.04
  L 463.52 405.81
  Q 463.15 406.68 462.95 406.95
  C 416.18 470.23 345.13 508.49 266.43 512.00
  L 245.20 512.00
  C 166.28 508.17 95.46 470.02 48.61 406.33
  C 48.53 406.22 48.50 405.96 48.49 405.84
  Q 48.50 257.31 48.50 108.90
  C 48.50 108.11 49.04 107.07 48.37 106.27
  L 48.36 52.22
  L 78.84 21.86
  Q 115.03 22.10 150.83 22.00
  C 151.81 22.00 152.50 21.67 153.46 21.50
  Z
  M 87.69 354.55
  L 190.26 354.76
  L 423.75 354.66
  L 431.00 354.50
  Q 431.50 354.49 431.50 353.99
  L 431.50 55.75
  A 0.50 0.50 0.0 0 0 431.00 55.25
  L 81.00 55.25
  Q 80.50 55.25 80.50 55.75
  L 80.50 353.99
  Q 80.50 354.48 80.99 354.48
  L 87.69 354.55
  Z
  M 378.37 378.85
  Q 384.50 378.57 390.62 378.73
  C 398.69 378.94 401.34 368.94 394.22 365.94
  Q 392.57 365.24 388.67 365.24
  Q 371.21 365.26 353.77 365.24
  Q 349.59 365.24 347.85 366.03
  C 343.01 368.22 342.56 375.30 347.42 377.92
  C 350.68 379.67 359.79 378.74 363.70 378.76
  A 0.56 0.55 90.0 0 1 364.25 379.32
  Q 364.25 411.36 364.25 443.48
  Q 364.25 447.53 365.19 449.35
  C 368.12 455.06 377.79 453.07 377.77 446.75
  Q 377.69 413.11 377.78 379.47
  Q 377.78 378.88 378.37 378.85
  Z
  M 127.27 438.70
  Q 127.20 407.01 127.25 375.34
  Q 127.26 370.51 126.15 368.47
  C 122.87 362.44 113.84 365.34 113.80 373.07
  Q 113.51 420.48 113.77 446.00
  C 113.82 451.36 117.57 452.74 122.46 452.75
  Q 134.03 452.77 145.61 452.73
  C 153.67 452.70 155.96 442.68 148.79 439.89
  C 144.20 438.10 133.11 439.27 127.80 439.23
  Q 127.27 439.23 127.27 438.70
  Z
  M 255.71 409.10
  A 43.69 43.69 0.0 0 0 212.02 365.41
  A 43.69 43.69 0.0 0 0 168.33 409.10
  A 43.69 43.69 0.0 0 0 212.02 452.79
  A 43.69 43.69 0.0 0 0 255.71 409.10
  Z
  M 278.87 404.63
  Q 281.06 406.70 282.31 407.20
  Q 294.23 412.06 306.14 416.92
  C 321.77 423.31 315.78 438.02 301.74 439.21
  Q 290.41 440.17 281.50 432.61
  Q 277.39 429.11 276.29 428.70
  C 271.96 427.06 266.60 431.74 267.76 436.45
  Q 268.29 438.57 270.73 440.91
  C 280.59 450.38 295.95 455.53 309.35 451.47
  C 318.10 448.82 325.68 442.37 328.25 433.48
  C 335.11 409.75 306.18 402.46 290.92 396.06
  C 279.56 391.30 287.24 379.70 296.28 379.03
  Q 306.56 378.28 314.96 384.36
  C 323.29 390.39 331.37 380.23 323.56 374.10
  C 314.97 367.37 303.41 364.00 292.63 366.04
  C 274.13 369.55 263.85 390.51 278.87 404.63
  Z"
/>
<path fill="#80e29d" d="
  M 423.75 354.66
  Q 424.06 353.84 424.01 353.50
  Q 414.60 284.38 405.04 215.28
  Q 404.77 213.34 404.50 211.98
  Q 402.58 195.30 398.12 163.57
  Q 393.66 131.85 384.81 104.32
  C 382.24 96.31 370.82 64.99 357.54 70.83
  Q 329.51 83.16 317.67 111.47
  Q 316.84 111.22 316.36 110.94
  C 295.63 99.00 272.07 94.60 248.35 95.85
  Q 218.96 96.74 194.37 111.46
  Q 182.72 83.53 155.44 71.21
  C 129.91 59.69 114.95 153.64 113.23 166.91
  Q 110.28 189.56 107.29 212.28
  L 87.69 354.55
  L 80.99 354.48
  Q 80.50 354.48 80.50 353.99
  L 80.50 55.75
  Q 80.50 55.25 81.00 55.25
  L 431.00 55.25
  A 0.50 0.50 0.0 0 1 431.50 55.75
  L 431.50 353.99
  Q 431.50 354.49 431.00 354.50
  L 423.75 354.66
  Z"
/>
<path fill="#9b9595" d="
  M 194.37 111.46
  Q 176.60 121.32 166.58 127.83
  C 138.36 146.17 119.43 175.32 109.25 206.97
  Q 108.39 209.64 107.29 212.28
  Q 110.28 189.56 113.23 166.91
  C 114.95 153.64 129.91 59.69 155.44 71.21
  Q 182.72 83.53 194.37 111.46
  Z
  M 149.22 92.04
  C 141.51 84.84 136.43 95.25 134.15 100.92
  C 131.55 107.41 124.92 131.69 132.51 136.19
  C 136.60 138.60 148.81 134.37 152.98 132.47
  C 170.99 124.29 159.06 101.23 149.22 92.04
  Z"
/>
<path fill="#9b9595" d="
  M 404.50 211.98
  C 392.17 171.84 369.64 140.00 332.60 119.86
  Q 324.98 115.72 317.67 111.47
  Q 329.51 83.16 357.54 70.83
  C 370.82 64.99 382.24 96.31 384.81 104.32
  Q 393.66 131.85 398.12 163.57
  Q 402.58 195.30 404.50 211.98
  Z
  M 359.44 95.19
  C 351.31 105.44 342.23 125.47 359.71 132.80
  Q 367.88 136.22 376.20 136.91
  C 390.13 138.07 379.65 95.18 370.56 90.22
  C 366.43 87.96 362.05 91.89 359.44 95.19
  Z"
/>
<path fill="#595454" d="
  M 149.22 92.04
  C 159.06 101.23 170.99 124.29 152.98 132.47
  C 148.81 134.37 136.60 138.60 132.51 136.19
  C 124.92 131.69 131.55 107.41 134.15 100.92
  C 136.43 95.25 141.51 84.84 149.22 92.04
  Z"
/>
<path fill="#595454" d="
  M 359.44 95.19
  C 362.05 91.89 366.43 87.96 370.56 90.22
  C 379.65 95.18 390.13 138.07 376.20 136.91
  Q 367.88 136.22 359.71 132.80
  C 342.23 125.47 351.31 105.44 359.44 95.19
  Z"
/>
<path fill="#e0d8d5" d="
  M 248.35 95.85
  C 244.34 97.54 239.90 98.51 236.36 100.39
  C 221.12 108.50 209.19 123.04 201.60 138.34
  L 200.71 139.00
  C 175.47 148.20 152.15 166.41 139.19 189.93
  C 115.96 232.07 131.33 279.62 168.52 307.25
  Q 168.28 307.30 168.77 307.55
  Q 168.71 307.66 168.58 307.73
  Q 168.51 307.78 168.50 307.87
  L 165.86 352.27
  Q 165.72 354.55 168.01 354.57
  L 190.26 354.76
  L 87.69 354.55
  L 107.29 212.28
  Q 108.39 209.64 109.25 206.97
  C 119.43 175.32 138.36 146.17 166.58 127.83
  Q 176.60 121.32 194.37 111.46
  Q 218.96 96.74 248.35 95.85
  Z"
/>
<path fill="#efe7e4" d="
  M 248.35 95.85
  C 272.07 94.60 295.63 99.00 316.36 110.94
  Q 316.84 111.22 317.67 111.47
  Q 324.98 115.72 332.60 119.86
  C 369.64 140.00 392.17 171.84 404.50 211.98
  Q 404.77 213.34 405.04 215.28
  Q 414.60 284.38 424.01 353.50
  Q 424.06 353.84 423.75 354.66
  L 190.26 354.76
  L 168.01 354.57
  Q 165.72 354.55 165.86 352.27
  L 168.50 307.87
  Q 168.51 307.78 168.58 307.73
  Q 168.71 307.66 168.77 307.55
  C 220.91 345.59 299.11 345.17 348.95 302.70
  C 379.92 276.31 392.91 236.28 376.59 198.02
  C 359.40 157.72 315.45 134.08 273.55 129.68
  Q 236.41 125.78 201.60 138.34
  C 209.19 123.04 221.12 108.50 236.36 100.39
  C 239.90 98.51 244.34 97.54 248.35 95.85
  Z"
/>
<path fill="#ffd939" d="
  M 463.49 106.04
  Q 509.83 171.04 512.00 251.30
  L 512.00 259.80
  Q 510.16 340.50 463.52 405.81
  L 463.49 106.04
  Z"
/>
<path fill="#ffd939" d="
  M 48.37 106.27
  C 49.04 107.07 48.50 108.11 48.50 108.90
  Q 48.50 257.31 48.49 405.84
  Q 2.03 340.84 0.00 260.42
  L 0.00 252.19
  Q 1.82 171.58 48.37 106.27
  Z"
/>
<path fill="#9b9595" d="
  M 168.77 307.55
  Q 168.28 307.30 168.52 307.25
  Q 169.24 291.97 170.03 276.68
  Q 171.45 249.60 175.12 222.22
  Q 187.82 228.87 199.65 224.70
  C 216.20 218.85 224.23 199.46 216.20 184.04
  Q 207.83 167.96 188.26 168.01
  Q 193.41 152.88 200.71 139.00
  L 201.60 138.34
  Q 236.41 125.78 273.55 129.68
  C 315.45 134.08 359.40 157.72 376.59 198.02
  C 392.91 236.28 379.92 276.31 348.95 302.70
  C 299.11 345.17 220.91 345.59 168.77 307.55
  Z
  M 350.96 197.17
  A 29.11 29.11 0.0 0 0 321.85 168.06
  A 29.11 29.11 0.0 0 0 292.74 197.17
  A 29.11 29.11 0.0 0 0 321.85 226.28
  A 29.11 29.11 0.0 0 0 350.96 197.17
  Z
  M 261.47 224.87
  C 267.82 221.82 273.12 209.78 277.90 201.17
  C 282.65 192.63 277.17 181.30 267.50 181.26
  Q 257.93 181.22 248.37 181.26
  Q 242.22 181.29 239.44 182.58
  C 233.09 185.51 230.33 194.22 233.52 200.25
  Q 235.88 204.72 244.86 219.91
  Q 246.59 222.84 249.94 224.61
  Q 250.38 224.84 250.41 225.34
  Q 250.71 229.93 250.47 231.20
  C 248.98 239.20 237.63 239.72 235.28 231.77
  C 234.29 228.42 235.93 223.98 233.20 221.36
  C 231.35 219.58 228.37 219.67 226.45 221.39
  C 224.57 223.10 224.90 226.27 224.98 229.24
  C 225.39 245.68 243.03 253.33 255.27 242.40
  Q 255.66 242.05 256.05 242.40
  C 270.54 255.54 288.78 242.40 286.47 224.46
  C 285.82 219.45 279.55 218.49 276.98 223.00
  C 275.92 224.86 276.86 229.80 276.03 232.28
  C 274.04 238.26 265.23 239.49 261.95 233.88
  C 260.56 231.51 260.95 228.34 261.02 225.57
  Q 261.03 225.08 261.47 224.87
  Z"
/>
<path fill="#736e6e" d="
  M 200.71 139.00
  Q 193.41 152.88 188.26 168.01
  C 172.41 169.51 159.50 183.15 161.04 199.44
  Q 162.44 214.22 175.12 222.22
  Q 171.45 249.60 170.03 276.68
  Q 169.24 291.97 168.52 307.25
  C 131.33 279.62 115.96 232.07 139.19 189.93
  C 152.15 166.41 175.47 148.20 200.71 139.00
  Z"
/>
<path fill="#93d8e4" d="
  M 188.26 168.01
  Q 207.83 167.96 216.20 184.04
  C 224.23 199.46 216.20 218.85 199.65 224.70
  Q 187.82 228.87 175.12 222.22
  Q 162.44 214.22 161.04 199.44
  C 159.50 183.15 172.41 169.51 188.26 168.01
  Z
  M 208.16 197.18
  A 18.01 18.01 0.0 0 0 190.15 179.17
  A 18.01 18.01 0.0 0 0 172.14 197.18
  A 18.01 18.01 0.0 0 0 190.15 215.19
  A 18.01 18.01 0.0 0 0 208.16 197.18
  Z"
/>
<path fill="#93d8e4" d="
  M 350.96 197.17
  A 29.11 29.11 0.0 0 1 321.85 226.28
  A 29.11 29.11 0.0 0 1 292.74 197.17
  A 29.11 29.11 0.0 0 1 321.85 168.06
  A 29.11 29.11 0.0 0 1 350.96 197.17
  Z
  M 339.86 197.18
  A 18.02 18.02 0.0 0 0 321.84 179.16
  A 18.02 18.02 0.0 0 0 303.82 197.18
  A 18.02 18.02 0.0 0 0 321.84 215.20
  A 18.02 18.02 0.0 0 0 339.86 197.18
  Z"
/>
<circle fill="#454045" cx="190.15" cy="197.18" r="18.01"/>
<circle fill="#454045" cx="321.84" cy="197.18" r="18.02"/>
<path fill="#454045" d="
  M 261.02 225.57
  C 260.95 228.34 260.56 231.51 261.95 233.88
  C 265.23 239.49 274.04 238.26 276.03 232.28
  C 276.86 229.80 275.92 224.86 276.98 223.00
  C 279.55 218.49 285.82 219.45 286.47 224.46
  C 288.78 242.40 270.54 255.54 256.05 242.40
  Q 255.66 242.05 255.27 242.40
  C 243.03 253.33 225.39 245.68 224.98 229.24
  C 224.90 226.27 224.57 223.10 226.45 221.39
  C 228.37 219.67 231.35 219.58 233.20 221.36
  C 235.93 223.98 234.29 228.42 235.28 231.77
  C 237.63 239.72 248.98 239.20 250.47 231.20
  Q 250.71 229.93 250.41 225.34
  Q 250.38 224.84 249.94 224.61
  Q 246.59 222.84 244.86 219.91
  Q 235.88 204.72 233.52 200.25
  C 230.33 194.22 233.09 185.51 239.44 182.58
  Q 242.22 181.29 248.37 181.26
  Q 257.93 181.22 267.50 181.26
  C 277.17 181.30 282.65 192.63 277.90 201.17
  C 273.12 209.78 267.82 221.82 261.47 224.87
  Q 261.03 225.08 261.02 225.57
  Z"
/>
<path fill="#efe7e4" d="
  M 377.78 379.47
  Q 377.69 413.11 377.77 446.75
  C 377.79 453.07 368.12 455.06 365.19 449.35
  Q 364.25 447.53 364.25 443.48
  Q 364.25 411.36 364.25 379.32
  A 0.56 0.55 90.0 0 0 363.70 378.76
  C 359.79 378.74 350.68 379.67 347.42 377.92
  C 342.56 375.30 343.01 368.22 347.85 366.03
  Q 349.59 365.24 353.77 365.24
  Q 371.21 365.26 388.67 365.24
  Q 392.57 365.24 394.22 365.94
  C 401.34 368.94 398.69 378.94 390.62 378.73
  Q 384.50 378.57 378.37 378.85
  Q 377.78 378.88 377.78 379.47
  Z"
/>
<path fill="#efe7e4" d="
  M 127.80 439.23
  C 133.11 439.27 144.20 438.10 148.79 439.89
  C 155.96 442.68 153.67 452.70 145.61 452.73
  Q 134.03 452.77 122.46 452.75
  C 117.57 452.74 113.82 451.36 113.77 446.00
  Q 113.51 420.48 113.80 373.07
  C 113.84 365.34 122.87 362.44 126.15 368.47
  Q 127.26 370.51 127.25 375.34
  Q 127.20 407.01 127.27 438.70
  Q 127.27 439.23 127.80 439.23
  Z"
/>
<path fill="#efe7e4" d="
  M 255.71 409.10
  A 43.69 43.69 0.0 0 1 212.02 452.79
  A 43.69 43.69 0.0 0 1 168.33 409.10
  A 43.69 43.69 0.0 0 1 212.02 365.41
  A 43.69 43.69 0.0 0 1 255.71 409.10
  Z
  M 242.18 409.10
  A 30.15 30.15 0.0 0 0 212.03 378.95
  A 30.15 30.15 0.0 0 0 181.88 409.10
  A 30.15 30.15 0.0 0 0 212.03 439.25
  A 30.15 30.15 0.0 0 0 242.18 409.10
  Z"
/>
<path fill="#efe7e4" d="
  M 278.87 404.63
  C 263.85 390.51 274.13 369.55 292.63 366.04
  C 303.41 364.00 314.97 367.37 323.56 374.10
  C 331.37 380.23 323.29 390.39 314.96 384.36
  Q 306.56 378.28 296.28 379.03
  C 287.24 379.70 279.56 391.30 290.92 396.06
  C 306.18 402.46 335.11 409.75 328.25 433.48
  C 325.68 442.37 318.10 448.82 309.35 451.47
  C 295.95 455.53 280.59 450.38 270.73 440.91
  Q 268.29 438.57 267.76 436.45
  C 266.60 431.74 271.96 427.06 276.29 428.70
  Q 277.39 429.11 281.50 432.61
  Q 290.41 440.17 301.74 439.21
  C 315.78 438.02 321.77 423.31 306.14 416.92
  Q 294.23 412.06 282.31 407.20
  Q 281.06 406.70 278.87 404.63
  Z"
/>
<circle fill="#da4a54" cx="212.03" cy="409.10" r="30.15"/>
</svg>
