<!-- icon666.com - MILLIONS OF FREE VECTOR ICONS -->
<svg 
  id="Layer_1" viewBox="0 0 32 32" xmlns="http://www.w3.org/2000/svg" data-name="Layer 1">
    <path 
        fill="currentColor" d="m26.707 9.293-7-7a1 1 0 0 0 -.707-.293h-11a3 3 0 0 0 -3 3v22a3 3 0 0 0 3 3h16a3 3 0 0 0 3-3v-17a1 1 0 0 0 -.293-.707zm-6.707-3.879 3.586 3.586h-2.586a1 1 0 0 1 -1-1zm4 22.586h-16a1 1 0 0 1 -1-1v-22a1 1 0 0 1 1-1h10v4a3 3 0 0 0 3 3h4v16a1 1 0 0 1 -1 1z">
    </path>
    <path 
        fill="currentColor" d="m22 18h-9.586l1.293-1.293a1 1 0 0 0 -1.414-1.414l-3 3a1 1 0 0 0 0 1.414l3 3a1 1 0 0 0 1.414-1.414l-1.293-1.293h9.586a1 1 0 0 0 0-2z">
    </path>
</svg>