<svg 
    xmlns="http://www.w3.org/2000/svg" 
    viewBox="0 0 39.69 40.08">
    <g id="Слой_2" data-name="Слой 2">
        <g id="Слой_1-2" data-name="Слой 1">
        <path 
            fill="currentColor"
            d="M19.64,0h1a20,20,0,0,1,19,19.18v1.66A20,20,0,0,1,20.58,40.08h-1A20,20,0,0,1,0,20.24v-.43A20,20,0,0,1,5.22,6.53,19.71,19.71,0,0,1,19.64,0Z"/>
                <path 
                    fill-rule="evenodd"
                    fill="#fefefe"
                    d="M26.79,16.72l-3-3.06L12.22,25.31l3,3.06Zm4.59-4L27.75,9a.84.84,0,0,0-1.22,0L10.77,24.94a1.53,1.53,0,0,0-.45.88l-.88,4.67a.6.6,0,0,0,.17.52.51.51,0,0,0,.48.17l4.62-.89a1.6,1.6,0,0,0,.91-.49L31.38,13.91a.93.93,0,0,0,0-1.23Zm-1.42.4-2.63-2.63a.28.28,0,0,0-.4,0l-2.18,2.2,3,3.07L30,13.48a.27.27,0,0,0,0-.4Zm-15.79,16L11.45,26.4l-.79,3.18a.27.27,0,0,0,.08.28A.23.23,0,0,0,11,30Z"/>
        </g>
    </g>
</svg>