<svg xmlns="http://www.w3.org/2000/svg" image-rendering="optimizeSpeed" fill-rule="evenodd" clip-rule="evenodd"
    viewBox="0 0 424 511.51">
    <path fill-rule="nonzero" fill="currentColor"
        d="M174.43 443.27H21.31C9.54 443.27 0 433.73 0 421.97V21.3C0 9.51 9.52 0 21.31 0h200.94c3.64 0 6.97 1.66 9.15 4.36l104.84 102.09c5.64 5.64 8.62 10.07 8.62 11.43l-.02 135.35c-7.59-3.2-15.53-5.72-23.76-7.49l-.01-113.62h-98.82c-6.64 0-11.94-5.41-11.94-11.95V23.69H23.8v395.78h140.26c2.7 8.32 6.18 16.28 10.37 23.8zm90.89-79.42 16.54 15.77 34.91-35.9c2.73-2.77 4.45-5 7.82-1.52l10.93 11.2c3.59 3.55 3.42 5.63.03 8.94l-47.44 47.24c-7.14 7-5.9 7.43-13.14.25l-28.06-27.92c-1.51-1.63-1.35-3.28.3-4.91l12.7-13.17c1.92-2.03 3.45-1.85 5.41.02zm27.18-89.68c28.59 0 54.48 11.59 73.22 30.33 18.75 18.74 30.33 44.63 30.33 73.23 0 20.92-6.2 40.39-16.87 56.68L424 483.26l-30.9 28.25-43.23-47.56c-16.42 10.95-36.15 17.34-57.37 17.34-28.6 0-54.49-11.6-73.22-30.34-18.75-18.74-30.34-44.63-30.34-73.22 0-28.6 11.59-54.49 30.33-73.23 18.74-18.74 44.63-30.33 73.23-30.33zm59.62 43.93c-15.25-15.26-36.33-24.7-59.62-24.7s-44.37 9.44-59.62 24.7c-15.26 15.26-24.7 36.34-24.7 59.63 0 23.28 9.44 44.37 24.7 59.62 15.25 15.26 36.33 24.69 59.62 24.69s44.37-9.43 59.62-24.69c15.26-15.26 24.7-36.34 24.7-59.62 0-23.29-9.44-44.37-24.7-59.63zM63.27 201.12h218.02v-15.34H63.27v15.34zm0 169.09h94.42c.28-5.2.87-10.32 1.72-15.34H63.27v15.34zm0-56.36h110.25c2.87-5.34 6.1-10.47 9.63-15.34H63.27v15.34zm0-56.37h167.76c15.37-7.87 32.46-12.88 50.56-14.33v-1H63.27v15.33zm0-169.09h71.9V73.06h-71.9v15.33zm0 56.37h102.06v-15.34H63.27v15.34z" />
</svg>