<?xml version="1.0" encoding="utf-8"?>
<svg version="1.1" id="Layer_1" xmlns="http://www.w3.org/2000/svg" xmlns:xlink="http://www.w3.org/1999/xlink" x="0px"
    y="0px" viewBox="0 0 95.71 122.88" xml:space="preserve">
    <path fill="currentColor"
        d="M63.33,12.26c-0.3,0-0.56-0.04-0.82-0.13c-1.33,0-2.45-1.08-2.45-2.45V4.87H36.33v4.82c0,1.24-0.99,2.32-2.2,2.41 c-0.26,0.09-0.56,0.13-0.86,0.13h-8.94v9.97h46.82v-9.98h-7.91L63.33,12.26L63.33,12.26L63.33,12.26z M17.02,101.49 c-0.67-0.99-0.4-2.34,0.6-3.01c0.99-0.67,2.34-0.41,3.01,0.6l1.19,1.75l4.69-5.71c0.76-0.93,2.13-1.06,3.05-0.3 c0.93,0.76,1.06,2.13,0.3,3.05l-6.5,7.9c-0.14,0.18-0.32,0.35-0.52,0.49c-0.99,0.67-2.34,0.4-3.01-0.6L17.02,101.49L17.02,101.49 L17.02,101.49z M40.3,101.63c-1.33,0-2.45-1.08-2.45-2.45c0-1.33,1.08-2.45,2.45-2.45h35.81c1.33,0,2.45,1.08,2.45,2.45 c0,1.33-1.08,2.45-2.45,2.45H40.3L40.3,101.63L40.3,101.63z M17.02,79.4c-0.67-0.99-0.4-2.34,0.6-3.01 c0.99-0.67,2.34-0.41,3.01,0.6l1.19,1.75l4.69-5.71c0.76-0.93,2.13-1.06,3.05-0.3c0.93,0.76,1.06,2.13,0.3,3.05l-6.5,7.9 c-0.14,0.18-0.32,0.35-0.52,0.49c-0.99,0.67-2.34,0.4-3.01-0.6L17.02,79.4L17.02,79.4L17.02,79.4z M40.3,79.54 c-1.33,0-2.45-1.08-2.45-2.45c0-1.33,1.08-2.45,2.45-2.45h35.81c1.33,0,2.45,1.08,2.45,2.45c0,1.33-1.08,2.45-2.45,2.45H40.3 L40.3,79.54L40.3,79.54z M17.36,49.24h13.45l4.39-8.89l8.3,11.97l8.44-16.46l8.77,17.18l3.39-3.11l1.76-0.69h12.49v5.2H66.86 l-7.68,7.05l-7.27-14.24l-7.75,15.12l-8.21-11.84l-1.93,3.91H17.36V49.24L17.36,49.24z M4.82,118.06h85.94V19.13 c0-0.13-0.04-0.3-0.17-0.39c-0.09-0.09-0.21-0.17-0.39-0.17H76.1v4.9c0,0.99-0.39,1.89-1.08,2.58c-0.65,0.65-1.55,1.08-2.58,1.08 H23.13c-0.99,0-1.94-0.43-2.58-1.08c-0.09-0.09-0.13-0.17-0.21-0.26c-0.52-0.65-0.86-1.47-0.86-2.32v-4.9H5.38 c-0.13,0-0.3,0.04-0.39,0.17C4.91,18.83,4.82,19,4.82,19.13V118.06L4.82,118.06z M93.31,122.77v0.11H0v-0.11v-4.71V19.13 c0-1.5,0.6-2.83,1.59-3.83s2.32-1.59,3.83-1.59h14.1v-2.67c0-0.99,0.39-1.89,1.08-2.58c0.65-0.65,1.55-1.08,2.58-1.08h8.35V4.04 c0-1.12,0.47-2.11,1.2-2.83C33.45,0.47,34.44,0,35.56,0h25.41c1.12,0,2.11,0.47,2.83,1.2c0.73,0.73,1.21,1.72,1.21,2.83v3.35h7.53 c0.99,0,1.89,0.43,2.58,1.08c0.65,0.65,1.08,1.59,1.08,2.58v2.67l14.1,0c1.5,0,2.83,0.6,3.83,1.59c0.99,0.99,1.59,2.32,1.59,3.83 v103.63H93.31L93.31,122.77z" />
</svg>