<?xml version="1.0" encoding="UTF-8"?>
<!DOCTYPE svg PUBLIC "-//W3C//DTD SVG 1.1//EN" "http://www.w3.org/Graphics/SVG/1.1/DTD/svg11.dtd">
<!-- Creator: CorelDRAW 2021 (64-Bit) -->
<svg xmlns="http://www.w3.org/2000/svg" xml:space="preserve" version="1.1" shape-rendering="geometricPrecision"
    text-rendering="geometricPrecision" image-rendering="optimizeQuality" fill-rule="evenodd" clip-rule="evenodd"
    viewBox="0 0 5646 5575" xmlns:xlink="http://www.w3.org/1999/xlink"
    xmlns:xodm="http://www.corel.com/coreldraw/odm/2003">
    <g id="Слой_x0020_1">
        <metadata id="CorelCorpID_0Corel-Layer" />
        <path fill="currentColor"
            d="M2956 5571l1319 -659 1338 -669c20,-10 33,-30 33,-53l0 -1334 0 -1313c0,-12 -6,-23 -17,-30 -11,-7 -24,-8 -35,-2l-2657 1328c-20,11 -33,31 -33,54l0 2646c0,13 6,24 17,31 11,6 24,7 35,1zm252 -453l2158 -1067 0 -2158 -2158 1067 0 2158zm-519 453l-1318 -659 -1338 -669c-21,-10 -33,-30 -33,-53l0 -1334 0 -1313c0,-12 6,-23 17,-30 11,-7 24,-7 35,-2l2656 1328c21,11 33,31 33,54l0 2646c0,13 -6,24 -17,31 -11,6 -23,7 -35,1zm-227 -453l-2182 -1067 0 -2158 2182 1067 0 2158zm-2301 -3793l1300 -650 1338 -668c17,-9 36,-9 53,0l1338 668 1300 650c12,7 20,19 20,33 0,13 -8,25 -20,32l-2638 1318c-17,9 -36,9 -53,0l-2638 -1318c-13,-7 -20,-19 -20,-32 0,-14 7,-26 20,-33zm4823 33l-2159 1002 -2159 -1026 2183 -1051 2135 1075z" />
    </g>
</svg>