<?xml version="1.0" encoding="UTF-8"?>
<!DOCTYPE svg PUBLIC "-//W3C//DTD SVG 1.1//EN" "http://www.w3.org/Graphics/SVG/1.1/DTD/svg11.dtd">
<!-- Creator: CorelDRAW 2021 (64-Bit) -->
<svg xmlns="http://www.w3.org/2000/svg" xml:space="preserve" version="1.1" shape-rendering="geometricPrecision" text-rendering="geometricPrecision" image-rendering="optimizeQuality" fill-rule="evenodd" clip-rule="evenodd"
viewBox="0 0 5.1 5.1"
 xmlns:xlink="http://www.w3.org/1999/xlink"
 xmlns:xodm="http://www.corel.com/coreldraw/odm/2003">
 <g id="Слой_x0020_1">
  <metadata id="CorelCorpID_0Corel-Layer"/>
  <g>
   <path fill="currentColor" d="M3.06 4.33l0 0.62c0,0.08 -0.07,0.15 -0.15,0.15l-2.76 0c-0.08,0 -0.15,-0.07 -0.15,-0.15l0 -4.02c0,-0.09 0.07,-0.16 0.15,-0.16l1.89 0 1.02 3.56zm-0.26 0l0 0.48c0,0.02 -0.01,0.03 -0.03,0.03l-2.48 0c-0.02,0 -0.04,-0.01 -0.04,-0.03l0 -3.75c0,-0.02 0.02,-0.03 0.04,-0.03l1.75 0 0.76 3.3zm-0.45 -4.05l1.7 0c0.02,0 0.03,0.01 0.03,0.03l0 0.56c0,0.08 0.07,0.15 0.15,0.15l0.56 0c0.02,0 0.03,0.01 0.03,0.03l0 2.99c0,0.02 -0.01,0.03 -0.03,0.03l-2.44 0c-0.02,0 -0.03,-0.01 -0.03,-0.03l0 -3.73c0,-0.02 0.01,-0.03 0.03,-0.03zm0.45 4.05l-0.61 0c-0.08,0 -0.15,-0.07 -0.15,-0.16l0 -3.14 0.76 3.3zm-0.76 -3.56l0 -0.62c0,-0.08 0.07,-0.15 0.15,-0.15l1.98 0c0.01,0 0.01,0 0.02,0.01l0.9 0.9c0.01,0 0.01,0.01 0.01,0.02l0 3.24c0,0.09 -0.07,0.16 -0.15,0.16l-1.89 0 -1.02 -3.56z"/>
  </g>
 </g>
</svg>
