<?xml version="1.0" encoding="UTF-8"?>
<!DOCTYPE svg PUBLIC "-//W3C//DTD SVG 1.1//EN" "http://www.w3.org/Graphics/SVG/1.1/DTD/svg11.dtd">
<!-- Creator: CorelDRAW 2021 (64-Bit) -->
<svg xmlns="http://www.w3.org/2000/svg" xml:space="preserve" version="1.1" shape-rendering="geometricPrecision" text-rendering="geometricPrecision" image-rendering="optimizeQuality" fill-rule="evenodd" clip-rule="evenodd"
viewBox="0 0 653000 465000"
 xmlns:xlink="http://www.w3.org/1999/xlink"
 xmlns:xodm="http://www.corel.com/coreldraw/odm/2003">
 <g id="Слой_x0020_1">
  <metadata id="CorelCorpID_0Corel-Layer"/>
  <g id="_2531675727104">
   <path fill="currentColor" d="M624000 79000l12000 6000c11000,4000 17000,14000 17000,26000l0 314000c0,16000 -13000,28000 -28000,28000l-261000 0c-25000,17000 -50000,15000 -75000,0l-261000 0c-15000,0 -28000,-12000 -28000,-28000l0 -314000c0,-12000 6000,-22000 17000,-26000l12000 -6000c3000,-1000 6000,-1000 9000,1000 3000,2000 5000,5000 5000,8000l0 324000 246000 0c25000,14000 50000,16000 75000,0l246000 0 0 -324000c0,-3000 2000,-6000 5000,-8000 2000,-2000 6000,-2000 9000,-1000z"/>
   <g>
    <path fill="currentColor" d="M364000 26000c35000,0 62000,-6000 90000,-12000 30000,-7000 60000,-14000 101000,-14000l26000 0 0 26000 0 311000 0 27000 -26000 0c-35000,0 -62000,6000 -90000,12000 -30000,7000 -60000,14000 -101000,14000l-26000 0 0 -26000 0 -311000 0 -27000 26000 0zm0 27000c76000,0 115000,-27000 191000,-27000l0 311000c-76000,0 -115000,27000 -191000,27000l0 -311000zm-266000 -27000c76000,0 115000,27000 191000,27000l0 311000c-76000,0 -115000,-27000 -191000,-27000l0 -311000zm0 -26000c41000,0 71000,7000 101000,14000 27000,6000 55000,12000 90000,12000l26000 0 0 27000 0 311000 0 26000 -26000 0c-41000,0 -71000,-7000 -101000,-14000 -28000,-6000 -55000,-12000 -90000,-12000l-26000 0 0 -27000 0 -311000 0 -26000 26000 0z"/>
   </g>
  </g>
 </g>
</svg>
