<svg xmlns="http://www.w3.org/2000/svg" viewBox="0 0 30.3 30.89"><defs><style>.cls-1{fill:#9bcb64;fill-rule:evenodd;}.cls-2{fill:#fefefe;}.cls-3{fill:none;stroke:#fefefe;stroke-miterlimit:10;stroke-width:0.74px;}</style></defs><g id="Слой_2" data-name="Слой 2"><g id="Слой_1-2" data-name="Слой 1"><path class="cls-1" d="M15,0h.76A15.37,15.37,0,0,1,30.3,14.8v1.26A15.32,15.32,0,0,1,15.7,30.89H15A15.3,15.3,0,0,1,0,15.6v-.31A15.43,15.43,0,0,1,4,5,14.92,14.92,0,0,1,15,0Z"/><path class="cls-2" d="M9.89,18.55a1.3,1.3,0,0,0,.17.75,1,1,0,0,0,.48.37l-.28,1a1.91,1.91,0,0,1-1-.37,1.78,1.78,0,0,1-.54-.89,2.56,2.56,0,0,1-2.3,1.26A2.29,2.29,0,0,1,4.62,20,2.43,2.43,0,0,1,4,18.18a2.49,2.49,0,0,1,.88-2.06,4,4,0,0,1,2.52-.72H8.56v-.6a1.7,1.7,0,0,0-.4-1.26,1.72,1.72,0,0,0-1.22-.4,6.52,6.52,0,0,0-2.06.46l-.34-1.06A7.33,7.33,0,0,1,7.2,12a2.59,2.59,0,0,1,2,.71,2.89,2.89,0,0,1,.68,2.06Zm-3.17,1a2,2,0,0,0,1.84-1.29V16.38h-1c-1.42,0-2.15.57-2.15,1.71a1.54,1.54,0,0,0,.36,1.12,1.16,1.16,0,0,0,1,.37Z"/><path class="cls-2" d="M16.21,12a2.42,2.42,0,0,1,2.1,1.14,5.79,5.79,0,0,1,.77,3.21,6.47,6.47,0,0,1-.37,2.29,3.72,3.72,0,0,1-1,1.55A2.79,2.79,0,0,1,16,20.7,2.51,2.51,0,0,1,14,19.58l-.11.92H12.7V8.79L14,8.62V13.2A2.57,2.57,0,0,1,16.21,12Zm-.48,7.56a1.53,1.53,0,0,0,1.39-.78,4.53,4.53,0,0,0,.51-2.43,4.77,4.77,0,0,0-.45-2.43,1.5,1.5,0,0,0-1.36-.78A2.25,2.25,0,0,0,14,14.43v4a2.89,2.89,0,0,0,.8.83,1.55,1.55,0,0,0,.93.29Z"/><path class="cls-2" d="M23.5,12a4.19,4.19,0,0,1,1.42.23,5.09,5.09,0,0,1,1.22.71l-.6.92a4.64,4.64,0,0,0-1-.55,2.86,2.86,0,0,0-1-.17,1.75,1.75,0,0,0-1.05.32.88.88,0,0,0-.37.77,1,1,0,0,0,.34.8,4.44,4.44,0,0,0,1.3.55,4.71,4.71,0,0,1,2,1,2.1,2.1,0,0,1,.62,1.63,2.13,2.13,0,0,1-.9,1.89,3.53,3.53,0,0,1-2.16.66,4,4,0,0,1-2.89-1.12l.71-.86a3.4,3.4,0,0,0,2.18.81,2,2,0,0,0,1.19-.35,1.1,1.1,0,0,0,.46-.94,1.41,1.41,0,0,0-.17-.69,1.54,1.54,0,0,0-.57-.46,7.76,7.76,0,0,0-1.16-.4,4.07,4.07,0,0,1-1.79-.94,2.07,2.07,0,0,1-.51-1.49,2,2,0,0,1,.34-1.18,2.47,2.47,0,0,1,1-.83A3.38,3.38,0,0,1,23.5,12Z"/><path class="cls-3" d="M9.89,18.55a1.3,1.3,0,0,0,.17.75,1,1,0,0,0,.48.37l-.28,1a1.91,1.91,0,0,1-1-.37,1.78,1.78,0,0,1-.54-.89,2.56,2.56,0,0,1-2.3,1.26A2.29,2.29,0,0,1,4.62,20,2.43,2.43,0,0,1,4,18.18a2.49,2.49,0,0,1,.88-2.06,4,4,0,0,1,2.52-.72H8.56v-.6a1.7,1.7,0,0,0-.4-1.26,1.72,1.72,0,0,0-1.22-.4,6.52,6.52,0,0,0-2.06.46l-.34-1.06A7.33,7.33,0,0,1,7.2,12a2.59,2.59,0,0,1,2,.71,2.89,2.89,0,0,1,.68,2.06Zm-3.17,1a2,2,0,0,0,1.84-1.29V16.38h-1c-1.42,0-2.15.57-2.15,1.71a1.54,1.54,0,0,0,.36,1.12,1.16,1.16,0,0,0,1,.37Z"/><path class="cls-3" d="M16.21,12a2.42,2.42,0,0,1,2.1,1.14,5.79,5.79,0,0,1,.77,3.21,6.47,6.47,0,0,1-.37,2.29,3.72,3.72,0,0,1-1,1.55A2.79,2.79,0,0,1,16,20.7,2.51,2.51,0,0,1,14,19.58l-.11.92H12.7V8.79L14,8.62V13.2A2.57,2.57,0,0,1,16.21,12Zm-.48,7.56a1.53,1.53,0,0,0,1.39-.78,4.53,4.53,0,0,0,.51-2.43,4.77,4.77,0,0,0-.45-2.43,1.5,1.5,0,0,0-1.36-.78A2.25,2.25,0,0,0,14,14.43v4a2.89,2.89,0,0,0,.8.83,1.55,1.55,0,0,0,.93.29Z"/><path class="cls-3" d="M23.5,12a4.19,4.19,0,0,1,1.42.23,5.09,5.09,0,0,1,1.22.71l-.6.92a4.64,4.64,0,0,0-1-.55,2.86,2.86,0,0,0-1-.17,1.75,1.75,0,0,0-1.05.32.88.88,0,0,0-.37.77,1,1,0,0,0,.34.8,4.44,4.44,0,0,0,1.3.55,4.71,4.71,0,0,1,2,1,2.1,2.1,0,0,1,.62,1.63,2.13,2.13,0,0,1-.9,1.89,3.53,3.53,0,0,1-2.16.66,4,4,0,0,1-2.89-1.12l.71-.86a3.4,3.4,0,0,0,2.18.81,2,2,0,0,0,1.19-.35,1.1,1.1,0,0,0,.46-.94,1.41,1.41,0,0,0-.17-.69,1.54,1.54,0,0,0-.57-.46,7.76,7.76,0,0,0-1.16-.4,4.07,4.07,0,0,1-1.79-.94,2.07,2.07,0,0,1-.51-1.49,2,2,0,0,1,.34-1.18,2.47,2.47,0,0,1,1-.83A3.38,3.38,0,0,1,23.5,12Z"/></g></g></svg>