<svg xmlns="http://www.w3.org/2000/svg" viewBox="0 0 39.69 40.08"><defs><style>.cls-1{fill:#9bcb64;}.cls-2{fill:#fefefe;}</style></defs><g id="Слой_2" data-name="Слой 2"><g id="Слой_1-2" data-name="Слой 1"><path class="cls-1" d="M19.62,0h1A20,20,0,0,1,39.69,19.15v1.66A20,20,0,0,1,20.58,40.08h-1A20,20,0,0,1,0,20.21v-.4A20,20,0,0,1,19.62,0Zm.22,8.25v0a1.33,1.33,0,0,0-1.19.78,4.32,4.32,0,0,0-.11,1.23V18.7s0,0,0,0H9.89a2.85,2.85,0,0,0-.85.09,1.32,1.32,0,0,0,.51,2.55h8.93s.06,0,.06,0V30a3.11,3.11,0,0,0,.11,1,1.36,1.36,0,0,0,1.19.8s0,0,0,0A1.31,1.31,0,0,0,21,31a3.32,3.32,0,0,0,.12-1.15V21.42a.06.06,0,0,1,.05-.06h8.59a2.72,2.72,0,0,0,.82-.09,1.33,1.33,0,0,0-.53-2.57H21.2s-.05,0-.05,0V10.16A3.16,3.16,0,0,0,21,9.05a1.37,1.37,0,0,0-1.19-.8Z"/><path class="cls-2" d="M19.84,31.81a1.36,1.36,0,0,1-1.19-.8,3.11,3.11,0,0,1-.11-1V21.39s0,0-.06,0H9.55A1.32,1.32,0,0,1,9,18.81a2.85,2.85,0,0,1,.85-.09h8.62s0,0,0,0V10.28a4.32,4.32,0,0,1,.11-1.23,1.33,1.33,0,0,1,1.19-.78v0a1.37,1.37,0,0,1,1.19.8,3.16,3.16,0,0,1,.12,1.11v8.51s0,0,.05,0h8.88a1.33,1.33,0,0,1,.53,2.57,2.72,2.72,0,0,1-.82.09H21.2a.06.06,0,0,0-.05.06v8.44A3.32,3.32,0,0,1,21,31a1.31,1.31,0,0,1-1.16.8s0,0,0,0Z"/></g></g></svg>