<svg xmlns="http://www.w3.org/2000/svg" viewBox="0 0 30.3 30.89"><defs><style>.cls-1{fill:#9bcb64;fill-rule:evenodd;}.cls-2{fill:#fefefe;}.cls-3{fill:none;stroke:#fefefe;stroke-miterlimit:10;stroke-width:0.77px;}</style></defs><g id="Слой_2" data-name="Слой 2"><g id="Слой_1-2" data-name="Слой 1"><path class="cls-1" d="M15,0h.76A15.32,15.32,0,0,1,30.3,14.77v1.29A15.31,15.31,0,0,1,15.73,30.89H15A15.36,15.36,0,0,1,0,15.6v-.34A15.6,15.6,0,0,1,4,5,14.86,14.86,0,0,1,15,0Z"/><path class="cls-2" d="M18,18.12a4.3,4.3,0,0,1-1.9-.37,14.63,14.63,0,0,1-1.93-1.14,9.84,9.84,0,0,0-1.1-.72,1.83,1.83,0,0,0-.91-.26c-1,0-1.84.75-2.66,2.18l-2.1-1.18c1.25-2.57,3-3.89,5.1-3.89a4.23,4.23,0,0,1,1.84.37,11.85,11.85,0,0,1,1.82,1.09,12,12,0,0,0,1.19.75,2.11,2.11,0,0,0,1,.25,2.28,2.28,0,0,0,1.48-.54,5.22,5.22,0,0,0,1.16-1.4l2,1.23c-1.16,2.43-2.83,3.63-5,3.63Z"/><path class="cls-3" d="M18,18.12a4.3,4.3,0,0,1-1.9-.37,14.63,14.63,0,0,1-1.93-1.14,9.84,9.84,0,0,0-1.1-.72,1.83,1.83,0,0,0-.91-.26c-1,0-1.84.75-2.66,2.18l-2.1-1.18c1.25-2.57,3-3.89,5.1-3.89a4.23,4.23,0,0,1,1.84.37,11.85,11.85,0,0,1,1.82,1.09,12,12,0,0,0,1.19.75,2.11,2.11,0,0,0,1,.25,2.28,2.28,0,0,0,1.48-.54,5.22,5.22,0,0,0,1.16-1.4l2,1.23c-1.16,2.43-2.83,3.63-5,3.63Z"/></g></g></svg>