<svg xmlns="http://www.w3.org/2000/svg" viewBox="0 0 30.3 30.89"><defs><style>.cls-1{fill:#9bcb64;fill-rule:evenodd;}.cls-2{fill:none;stroke:#fefefe;stroke-miterlimit:10;stroke-width:2.03px;}.cls-3{fill:#fefefe;}</style></defs><g id="Слой_2" data-name="Слой 2"><g id="Слой_1-2" data-name="Слой 1"><path class="cls-1" d="M15,0h.76A15.37,15.37,0,0,1,30.3,14.8v1.26A15.32,15.32,0,0,1,15.7,30.89H15A15.3,15.3,0,0,1,0,15.6v-.31A15.43,15.43,0,0,1,4,5,14.92,14.92,0,0,1,15,0Z"/><path class="cls-2" d="M15.14,25.57a10.11,10.11,0,1,0-10-10.11,10.1,10.1,0,0,0,10,10.11Z"/><rect class="cls-3" x="13.83" y="5.44" width="2.47" height="20.04"/><rect class="cls-3" x="5.13" y="14.23" width="19.87" height="2.46"/></g></g></svg>