<svg xmlns="http://www.w3.org/2000/svg" viewBox="0 0 39.69 40.08"><defs><style>.cls-1{fill:#9bcb64;}.cls-2{fill:#fefefe;}.cls-3{fill:none;stroke:#fefefe;stroke-miterlimit:10;stroke-width:0.74px;}</style></defs><g id="Слой_2" data-name="Слой 2"><g id="Слой_1-2" data-name="Слой 1"><path class="cls-1" d="M19.67,0h1a20,20,0,0,1,19,19.15v1.66A20,20,0,0,1,20.58,40.08h-1A20,20,0,0,1,0,20.24v-.43A20,20,0,0,1,5.22,6.53,19.71,19.71,0,0,1,19.64,0Z"/><path class="cls-2" d="M16.13,13.91V26.65H14.66l-.15-1.25a3.33,3.33,0,0,1-1.19,1.08,3,3,0,0,1-1.53.38A3.11,3.11,0,0,1,9.16,25.6a5.7,5.7,0,0,1-.94-3.44,6.22,6.22,0,0,1,.45-2.49A3.73,3.73,0,0,1,10,18a3.29,3.29,0,0,1,1.95-.6,3.42,3.42,0,0,1,2.53,1.12V13.71Zm-4,11.69a2.7,2.7,0,0,0,1.31-.32,4,4,0,0,0,1-1V19.81a3.43,3.43,0,0,0-1-.89,2.29,2.29,0,0,0-1.19-.31,1.91,1.91,0,0,0-1.67.89A4.72,4.72,0,0,0,10,22.13a4.69,4.69,0,0,0,.56,2.61,1.72,1.72,0,0,0,1.56.86Z"/><path class="cls-2" d="M21.17,17.58v9.07H19.5V17.58ZM20.3,13.2a1.3,1.3,0,0,1,.87.31,1.1,1.1,0,0,1,.29.78,1,1,0,0,1-.29.77,1.3,1.3,0,0,1-.87.31,1.11,1.11,0,0,1-.8-.31,1,1,0,0,1-.31-.77,1,1,0,0,1,.31-.78,1.11,1.11,0,0,1,.8-.31Z"/><polygon class="cls-2" points="31.46 17.58 28.26 26.66 26.31 26.66 23.05 17.58 24.8 17.58 27.27 25.25 29.73 17.58 31.46 17.58"/><path class="cls-3" d="M16.13,13.91V26.65H14.66l-.15-1.25a3.33,3.33,0,0,1-1.19,1.08,3,3,0,0,1-1.53.38A3.11,3.11,0,0,1,9.16,25.6a5.7,5.7,0,0,1-.94-3.44,6.22,6.22,0,0,1,.45-2.49A3.73,3.73,0,0,1,10,18a3.29,3.29,0,0,1,1.95-.6,3.42,3.42,0,0,1,2.53,1.12V13.71Zm-4,11.69a2.7,2.7,0,0,0,1.31-.32,4,4,0,0,0,1-1V19.81a3.43,3.43,0,0,0-1-.89,2.29,2.29,0,0,0-1.19-.31,1.91,1.91,0,0,0-1.67.89A4.72,4.72,0,0,0,10,22.13a4.69,4.69,0,0,0,.56,2.61,1.72,1.72,0,0,0,1.56.86Z"/><path class="cls-3" d="M21.17,17.58v9.07H19.5V17.58ZM20.3,13.2a1.3,1.3,0,0,1,.87.31,1.1,1.1,0,0,1,.29.78,1,1,0,0,1-.29.77,1.3,1.3,0,0,1-.87.31,1.11,1.11,0,0,1-.8-.31,1,1,0,0,1-.31-.77,1,1,0,0,1,.31-.78,1.11,1.11,0,0,1,.8-.31Z"/><polygon class="cls-3" points="31.46 17.58 28.26 26.66 26.31 26.66 23.05 17.58 24.8 17.58 27.27 25.25 29.73 17.58 31.46 17.58"/></g></g></svg>