<svg xmlns="http://www.w3.org/2000/svg" viewBox="0 0 30.3 30.89"><defs><style>.cls-1{fill:#9bcb64;}.cls-1,.cls-5{fill-rule:evenodd;}.cls-2{fill:#eb5451;}.cls-3{fill:none;stroke:#eb5451;stroke-miterlimit:10;stroke-width:0.77px;}.cls-4,.cls-5{fill:#fefefe;}</style></defs><g id="Слой_2" data-name="Слой 2"><g id="Слой_1-2" data-name="Слой 1"><path class="cls-1" d="M15,0h.76A15.37,15.37,0,0,1,30.3,14.8v1.26A15.32,15.32,0,0,1,15.7,30.89H15A15.3,15.3,0,0,1,0,15.6v-.31A15.43,15.43,0,0,1,4,5,14.92,14.92,0,0,1,15,0Z"/><path class="cls-2" d="M15.14,17.61a2.38,2.38,0,0,1,2.21,1.26,7,7,0,0,1,.74,3.63,7.09,7.09,0,0,1-.74,3.64,2.43,2.43,0,0,1-2.21,1.26A2.4,2.4,0,0,1,13,26.14a7.4,7.4,0,0,1-.76-3.64A7.3,7.3,0,0,1,13,18.87a2.35,2.35,0,0,1,2.19-1.26Zm0,1a1.43,1.43,0,0,0-1.28.91,8.24,8.24,0,0,0-.4,2.95,8.28,8.28,0,0,0,.4,2.95,1.44,1.44,0,0,0,1.28.92,1.38,1.38,0,0,0,1.27-.92,7.45,7.45,0,0,0,.4-2.95,7.42,7.42,0,0,0-.4-2.95,1.37,1.37,0,0,0-1.27-.91Z"/><path class="cls-3" d="M15.14,17.61a2.38,2.38,0,0,1,2.21,1.26,7,7,0,0,1,.74,3.63,7.09,7.09,0,0,1-.74,3.64,2.43,2.43,0,0,1-2.21,1.26A2.4,2.4,0,0,1,13,26.14a7.4,7.4,0,0,1-.76-3.64A7.3,7.3,0,0,1,13,18.87a2.35,2.35,0,0,1,2.19-1.26Zm0,1a1.43,1.43,0,0,0-1.28.91,8.24,8.24,0,0,0-.4,2.95,8.28,8.28,0,0,0,.4,2.95,1.44,1.44,0,0,0,1.28.92,1.38,1.38,0,0,0,1.27-.92,7.45,7.45,0,0,0,.4-2.95,7.42,7.42,0,0,0-.4-2.95,1.37,1.37,0,0,0-1.27-.91Z"/><rect class="cls-4" x="9.18" y="14.57" width="11.93" height="1.35"/><path class="cls-5" d="M11.34,12.91a.81.81,0,0,1-.48-.8c0-.26,0-.37.11-.49a1,1,0,0,1,.62-.43c.26,0,.26,0,1.17-1.37.48-.77.9-1.43.9-1.46A13.73,13.73,0,0,0,13.15,7c-.51-1.26-.51-1.26-1-1.29s-.74-.09-.93-.52a.77.77,0,0,1,.11-.94c.25-.29.48-.35,1.25-.35,1.19,0,1.24,0,1.84,1.49a9.81,9.81,0,0,0,.48,1.09s.34-.49.71-1.06c.76-1.17.93-1.34,1.47-1.46A2.46,2.46,0,0,1,18.4,4a.79.79,0,0,1,.42.77.87.87,0,0,1-.91.92c-.36,0-.36,0-.82.68l-.88,1.38c-.48.77-.48.77,0,2s.6,1.4.71,1.4a2.91,2.91,0,0,0,.65-.57c.4-.43.57-.57.74-.63a.88.88,0,0,1,1.11,1.06,4.92,4.92,0,0,1-1.36,1.58,1.88,1.88,0,0,1-2.55-.32,3.08,3.08,0,0,1-.66-1.12c-.17-.45-.34-.8-.36-.74s-.35.49-.71,1.06c-.71,1.12-.91,1.32-1.39,1.43a1.76,1.76,0,0,1-1.05,0Z"/></g></g></svg>