<svg xmlns="http://www.w3.org/2000/svg" viewBox="0 0 30.3 30.89"><defs><style>.cls-1{fill:#9bcb64;fill-rule:evenodd;}.cls-2{fill:#fefefe;}.cls-3{fill:none;stroke:#fefefe;stroke-miterlimit:10;stroke-width:0.74px;}</style></defs><g id="Слой_2" data-name="Слой 2"><g id="Слой_1-2" data-name="Слой 1"><path class="cls-1" d="M15,0h.76A15.37,15.37,0,0,1,30.3,14.8v1.26A15.32,15.32,0,0,1,15.7,30.89H15A15.3,15.3,0,0,1,0,15.6v-.31A15.43,15.43,0,0,1,4,5,14.92,14.92,0,0,1,15,0Z"/><path class="cls-2" d="M8,20.27a1.4,1.4,0,0,1-1.13-.46,1.8,1.8,0,0,1-.4-1.29V8.88L7.77,8.7v9.8a.79.79,0,0,0,.11.48.42.42,0,0,0,.34.15A1.14,1.14,0,0,0,8.7,19L9,20a2.09,2.09,0,0,1-1,.26Z"/><path class="cls-2" d="M13.41,11.91A2.91,2.91,0,0,1,15.82,13a4.8,4.8,0,0,1,.88,3.06,6,6,0,0,1-.4,2.2,3.44,3.44,0,0,1-1.13,1.46,3.09,3.09,0,0,1-1.79.52,2.89,2.89,0,0,1-2.44-1.12,4.8,4.8,0,0,1-.88-3.06,5.65,5.65,0,0,1,.4-2.18,3,3,0,0,1,1.13-1.48,3.12,3.12,0,0,1,1.82-.52Zm0,1.12c-1.31,0-2,1-2,3.06s.65,3.06,1.93,3.06,1.9-1,1.9-3.06S14.66,13,13.41,13Z"/><path class="cls-2" d="M24.8,12.45a3.23,3.23,0,0,1-.9.2c-.34,0-.74,0-1.25,0a2.16,2.16,0,0,1,1.33,2,2.69,2.69,0,0,1-.79,2,2.81,2.81,0,0,1-2.07.75,3.14,3.14,0,0,1-.94-.15,1,1,0,0,0-.28.32,2,2,0,0,0-.06.43c0,.43.31.66.94.66H22A2.86,2.86,0,0,1,23.3,19a2.14,2.14,0,0,1,.88.77,2,2,0,0,1,.31,1.15,2.07,2.07,0,0,1-.88,1.8,4.27,4.27,0,0,1-2.58.63,5.74,5.74,0,0,1-1.9-.25,1.82,1.82,0,0,1-1-.81,2.7,2.7,0,0,1-.31-1.37H19a1.3,1.3,0,0,0,.17.77,1,1,0,0,0,.62.43,4.14,4.14,0,0,0,1.22.15,3.39,3.39,0,0,0,1.68-.32,1,1,0,0,0,.48-.94.89.89,0,0,0-.4-.83,1.71,1.71,0,0,0-1.08-.29H20.55a2.1,2.1,0,0,1-1.44-.46,1.37,1.37,0,0,1-.49-1.09,1.42,1.42,0,0,1,.2-.74,2.19,2.19,0,0,1,.63-.66,2.28,2.28,0,0,1-1-.92,2.55,2.55,0,0,1-.28-1.31,2.7,2.7,0,0,1,.37-1.43,2.42,2.42,0,0,1,1-1,3.07,3.07,0,0,1,1.47-.34,9.93,9.93,0,0,0,1.45-.09,4.15,4.15,0,0,0,1-.22,9,9,0,0,0,.93-.41Zm-3.74.46a1.44,1.44,0,0,0-1.16.49,2.07,2.07,0,0,0-.4,1.29A2,2,0,0,0,19.9,16a1.62,1.62,0,0,0,2.35,0,2.06,2.06,0,0,0,.4-1.34c0-1.18-.54-1.78-1.59-1.78Z"/><path class="cls-3" d="M8,20.27a1.4,1.4,0,0,1-1.13-.46,1.8,1.8,0,0,1-.4-1.29V8.88L7.77,8.7v9.8a.79.79,0,0,0,.11.48.42.42,0,0,0,.34.15A1.14,1.14,0,0,0,8.7,19L9,20a2.09,2.09,0,0,1-1,.26Z"/><path class="cls-3" d="M13.41,11.91A2.91,2.91,0,0,1,15.82,13a4.8,4.8,0,0,1,.88,3.06,6,6,0,0,1-.4,2.2,3.44,3.44,0,0,1-1.13,1.46,3.09,3.09,0,0,1-1.79.52,2.89,2.89,0,0,1-2.44-1.12,4.8,4.8,0,0,1-.88-3.06,5.65,5.65,0,0,1,.4-2.18,3,3,0,0,1,1.13-1.48,3.12,3.12,0,0,1,1.82-.52Zm0,1.12c-1.31,0-2,1-2,3.06s.65,3.06,1.93,3.06,1.9-1,1.9-3.06S14.66,13,13.41,13Z"/><path class="cls-3" d="M24.8,12.45a3.23,3.23,0,0,1-.9.2c-.34,0-.74,0-1.25,0a2.16,2.16,0,0,1,1.33,2,2.69,2.69,0,0,1-.79,2,2.81,2.81,0,0,1-2.07.75,3.14,3.14,0,0,1-.94-.15,1,1,0,0,0-.28.32,2,2,0,0,0-.06.43c0,.43.31.66.94.66H22A2.86,2.86,0,0,1,23.3,19a2.14,2.14,0,0,1,.88.77,2,2,0,0,1,.31,1.15,2.07,2.07,0,0,1-.88,1.8,4.27,4.27,0,0,1-2.58.63,5.74,5.74,0,0,1-1.9-.25,1.82,1.82,0,0,1-1-.81,2.7,2.7,0,0,1-.31-1.37H19a1.3,1.3,0,0,0,.17.77,1,1,0,0,0,.62.43,4.14,4.14,0,0,0,1.22.15,3.39,3.39,0,0,0,1.68-.32,1,1,0,0,0,.48-.94.89.89,0,0,0-.4-.83,1.71,1.71,0,0,0-1.08-.29H20.55a2.1,2.1,0,0,1-1.44-.46,1.37,1.37,0,0,1-.49-1.09,1.42,1.42,0,0,1,.2-.74,2.19,2.19,0,0,1,.63-.66,2.28,2.28,0,0,1-1-.92,2.55,2.55,0,0,1-.28-1.31,2.7,2.7,0,0,1,.37-1.43,2.42,2.42,0,0,1,1-1,3.07,3.07,0,0,1,1.47-.34,9.93,9.93,0,0,0,1.45-.09,4.15,4.15,0,0,0,1-.22,9,9,0,0,0,.93-.41Zm-3.74.46a1.44,1.44,0,0,0-1.16.49,2.07,2.07,0,0,0-.4,1.29A2,2,0,0,0,19.9,16a1.62,1.62,0,0,0,2.35,0,2.06,2.06,0,0,0,.4-1.34c0-1.18-.54-1.78-1.59-1.78Z"/></g></g></svg>