<svg xmlns="http://www.w3.org/2000/svg" viewBox="0 0 39.69 40.08"><defs><style>.cls-1{fill:#9bcb64;}.cls-2{fill:#fefefe;}.cls-3{fill:none;stroke:#fefefe;stroke-miterlimit:10;stroke-width:0.74px;}</style></defs><g id="Слой_2" data-name="Слой 2"><g id="Слой_1-2" data-name="Слой 1"><path class="cls-1" d="M19.67,0h1a20,20,0,0,1,19,19.15v1.66A20,20,0,0,1,20.58,40.08h-1A20,20,0,0,1,0,20.24v-.43A20,20,0,0,1,5.22,6.53,19.71,19.71,0,0,1,19.64,0Z"/><path class="cls-2" d="M13.92,17.12a1.8,1.8,0,0,1,1.56.75,3.13,3.13,0,0,1,.59,2V26.4H14.68V20.1c0-1.18-.37-1.75-1.1-1.75a1.4,1.4,0,0,0-1,.37A6,6,0,0,0,11.71,20V26.4H10.35V20.1c0-1.18-.37-1.75-1.14-1.75a1.32,1.32,0,0,0-1,.4A6.1,6.1,0,0,0,7.37,20V26.4H6V17.32H7.17l.14,1.32a2.54,2.54,0,0,1,2.27-1.52,1.94,1.94,0,0,1,1.25.43,2.44,2.44,0,0,1,.74,1.2,4.15,4.15,0,0,1,1-1.23,2.12,2.12,0,0,1,1.33-.4Z"/><path class="cls-2" d="M21.8,17.12a2.92,2.92,0,0,1,2.58,1.26,5.77,5.77,0,0,1,.93,3.46,6.28,6.28,0,0,1-.42,2.5A3.81,3.81,0,0,1,23.7,26a3.2,3.2,0,0,1-1.9.6,3,3,0,0,1-2.58-1.26,5.81,5.81,0,0,1-1-3.47,7.54,7.54,0,0,1,.42-2.49,4,4,0,0,1,1.22-1.69,3.12,3.12,0,0,1,1.9-.57Zm0,1.26c-1.36,0-2,1.17-2,3.49s.68,3.47,2,3.47,2-1.18,2-3.5-.68-3.46-2-3.46Z"/><path class="cls-2" d="M33.73,13.66V26.4H32.49l-.12-1.26a3.27,3.27,0,0,1-1,1.09,2.3,2.3,0,0,1-1.3.37,2.45,2.45,0,0,1-2.19-1.26,6.42,6.42,0,0,1-.79-3.44,7.33,7.33,0,0,1,.37-2.49,3.8,3.8,0,0,1,1.1-1.69,2.45,2.45,0,0,1,1.65-.6,2.62,2.62,0,0,1,2.09,1.12V13.46ZM30.39,25.34A1.9,1.9,0,0,0,31.46,25a3,3,0,0,0,.85-1V19.55a2.42,2.42,0,0,0-.82-.88,1.7,1.7,0,0,0-1-.32,1.6,1.6,0,0,0-1.42.89,5.76,5.76,0,0,0-.51,2.63,5.46,5.46,0,0,0,.49,2.61,1.46,1.46,0,0,0,1.33.86Z"/><path class="cls-3" d="M13.92,17.12a1.8,1.8,0,0,1,1.56.75,3.13,3.13,0,0,1,.59,2V26.4H14.68V20.1c0-1.18-.37-1.75-1.1-1.75a1.4,1.4,0,0,0-1,.37A6,6,0,0,0,11.71,20V26.4H10.35V20.1c0-1.18-.37-1.75-1.14-1.75a1.32,1.32,0,0,0-1,.4A6.1,6.1,0,0,0,7.37,20V26.4H6V17.32H7.17l.14,1.32a2.54,2.54,0,0,1,2.27-1.52,1.94,1.94,0,0,1,1.25.43,2.44,2.44,0,0,1,.74,1.2,4.15,4.15,0,0,1,1-1.23,2.12,2.12,0,0,1,1.33-.4Z"/><path class="cls-3" d="M21.8,17.12a2.92,2.92,0,0,1,2.58,1.26,5.77,5.77,0,0,1,.93,3.46,6.28,6.28,0,0,1-.42,2.5A3.81,3.81,0,0,1,23.7,26a3.2,3.2,0,0,1-1.9.6,3,3,0,0,1-2.58-1.26,5.81,5.81,0,0,1-1-3.47,7.54,7.54,0,0,1,.42-2.49,4,4,0,0,1,1.22-1.69,3.12,3.12,0,0,1,1.9-.57Zm0,1.26c-1.36,0-2,1.17-2,3.49s.68,3.47,2,3.47,2-1.18,2-3.5-.68-3.46-2-3.46Z"/><path class="cls-3" d="M33.73,13.66V26.4H32.49l-.12-1.26a3.27,3.27,0,0,1-1,1.09,2.3,2.3,0,0,1-1.3.37,2.45,2.45,0,0,1-2.19-1.26,6.42,6.42,0,0,1-.79-3.44,7.33,7.33,0,0,1,.37-2.49,3.8,3.8,0,0,1,1.1-1.69,2.45,2.45,0,0,1,1.65-.6,2.62,2.62,0,0,1,2.09,1.12V13.46ZM30.39,25.34A1.9,1.9,0,0,0,31.46,25a3,3,0,0,0,.85-1V19.55a2.42,2.42,0,0,0-.82-.88,1.7,1.7,0,0,0-1-.32,1.6,1.6,0,0,0-1.42.89,5.76,5.76,0,0,0-.51,2.63,5.46,5.46,0,0,0,.49,2.61,1.46,1.46,0,0,0,1.33.86Z"/></g></g></svg>