<svg xmlns="http://www.w3.org/2000/svg" viewBox="0 0 30.3 30.89"><defs><style>.cls-1{fill:#9bcb64;fill-rule:evenodd;}.cls-2{fill:#fefefe;}.cls-3{fill:none;stroke:#fefefe;stroke-miterlimit:10;stroke-width:0.74px;}</style></defs><g id="Слой_2" data-name="Слой 2"><g id="Слой_1-2" data-name="Слой 1"><path class="cls-1" d="M15.31,30.89h-.77A15.36,15.36,0,0,1,0,16.09V14.83A15.35,15.35,0,0,1,14.6,0h.74a15.32,15.32,0,0,1,15,15.29v.34a15.44,15.44,0,0,1-4,10.22,15,15,0,0,1-11,5Z"/><polygon class="cls-2" points="17.52 20.44 16.84 18.7 23.78 15.43 16.84 12.14 17.52 10.45 25.31 14.37 25.31 16.52 17.52 20.44"/><polygon class="cls-2" points="6.92 20.44 6.24 18.7 13.18 15.43 6.24 12.14 6.92 10.45 14.71 14.37 14.71 16.52 6.92 20.44"/><polygon class="cls-3" points="17.52 20.44 16.84 18.7 23.78 15.43 16.84 12.14 17.52 10.45 25.31 14.37 25.31 16.52 17.52 20.44"/><polygon class="cls-3" points="6.92 20.44 6.24 18.7 13.18 15.43 6.24 12.14 6.92 10.45 14.71 14.37 14.71 16.52 6.92 20.44"/></g></g></svg>