<svg xmlns="http://www.w3.org/2000/svg" viewBox="0 0 39.69 40.08"><defs><style>.cls-1{fill:#9bcb64;}.cls-2{fill:#fefefe;}</style></defs><g id="Слой_2" data-name="Слой 2"><g id="Слой_1-2" data-name="Слой 1"><path class="cls-1" d="M19.67,0h1a20,20,0,0,1,19,19.15v1.66A20.06,20.06,0,0,1,20.58,40.08h-1A20,20,0,0,1,0,20.21v-.4A19.9,19.9,0,0,1,5.22,6.53,19.71,19.71,0,0,1,19.64,0Zm.17,21.36h10a2.59,2.59,0,0,0,.82-.09,1.32,1.32,0,0,0-.51-2.57H19.84v0H9.92a2.59,2.59,0,0,0-.85.09,1.3,1.3,0,0,0,.51,2.52H19.84v0Z"/><path class="cls-2" d="M19.84,18.7H30.1a1.32,1.32,0,0,1,.51,2.57,2.59,2.59,0,0,1-.82.09H19.84v0H9.58a1.3,1.3,0,0,1-.51-2.52,2.59,2.59,0,0,1,.85-.09h9.92v0Z"/></g></g></svg>