<?xml version="1.0" encoding="UTF-8"?>
<svg id="_Слой_2" data-name="Слой 2" xmlns="http://www.w3.org/2000/svg" viewBox="0 0 39.69 25.82">
  <defs>
    <style>
      .cls-1 {
        fill: #4c4997;
      }

      .cls-1, .cls-2, .cls-3, .cls-4, .cls-5, .cls-6, .cls-7, .cls-8 {
        fill-rule: evenodd;
      }

      .cls-2 {
        fill: #7f8386;
      }

      .cls-3 {
        fill: #efeff3;
      }

      .cls-4 {
        fill: #95999e;
      }

      .cls-5 {
        fill: #3f3c79;
      }

      .cls-6, .cls-9 {
        fill: #c4c2cd;
      }

      .cls-7 {
        fill: #fefefe;
      }

      .cls-8 {
        fill: #a9acb3;
      }
    </style>
  </defs>
  <g id="_Слой_1-2" data-name="Слой 1">
    <g>
      <path class="cls-8" d="m14.74,7.7h11.45v15.49h-12.67V7.67l1.22.03Zm24.94-.23v15.8c-.03.94-.34,1.17-.34,1.17,0,0-.03.03-.03.06-11.74.14-23.78,0-35.57,0-1.19,0-2.27.06-2.44-1.15-.09-.63-.03-9.71-.03-10.82,0-2.32.09-4.78,0-7.13.51-.29.85-.31,1.59-.29h27.3c2.35,0,4.96-.11,7.29-.03.96.06,1.7.8,2.07,1.6.09.2.14.46.17.77h0Zm-26.25,15.72H4.11c-1.84,0-1.53.03-1.53-3.12v-9.33c0-3.18-.31-3.06,1.62-3.06,3.09.03,6.15,0,9.24,0v15.52Zm20.92,0h-1.16l-.17-.37.06.37h-6.8V7.67l5.47.03h1.56c.91-.06,1.93-.03,2.83-.03,1.25,0,.99.66.99,1.75v11.11c0,.6.17,2.2-.23,2.52-.34.26-2.04.17-2.55.14h0Z"/>
      <path class="cls-7" d="m19.93,11.77c-.54,0-1.45.14-1.7-.23-.14-.23-.34-1.06.68-1.06,1.76,0,2.3-.2,2.3.89v8.22c0,1.15-1.19,1.06-1.28.17-.11-1.6.11-5.75,0-7.99h0Zm-2.78-2.78c-1.53.23-1.13,2.09-1.13,4.04v5.24c0,1.63-.45,3.64,1.42,3.64h5.16c1.47-.23,1.11-2.23,1.11-4.04v-5.24c0-1.66.43-3.64-1.45-3.66l-5.1.03Z"/>
      <path class="cls-7" d="m32.51,21.9c-.6-.46-.82-.2-1.33-.46-.45-.23-.43-.94.06-1.15.26-.09,2.04-.11,1.84-1.86-.2-1.6-2.49-1.98-3.09-.26-.43,1.26-1.81.74-1.05-.83,1.22-2.46,4.9-1.95,5.39.77.2,1.2-.37,2.23-1.02,2.69.17.37.25.3.45.54.14.17.23.37.34.57,1.87-.26,1.76-.52,1.76-2.72,0-1.4.09-8.36-.03-9.1-.2-1.49-1.98-1.12-3.34-1.15h-.06c-.37.6-1.39,1.8-1.62,2.26.82.11,3.34-.26,3.69.31.2.26.14.57-.06.8-.31.31-2.04.2-2.72.2-.96,0-3.49.31-2.61-1.2.34-.57,1.56-1.95,1.64-2.32-.28-.11-2.13-.06-2.41.06-.74.26-.82.92-.82,1.83v5.33c0,5.21-.51,5.67,2.24,5.67.91,0,1.84.03,2.75,0h0Z"/>
      <path class="cls-4" d="m39.32,24.51c-11.74.14-23.78,0-35.57,0-1.19,0-2.27.06-2.44-1.15-.09-.63-.03-9.71-.03-10.82,0-2.32.09-4.78,0-7.13-.43.4-.62.4-.94.97-.28.52-.34.72-.34,1.35v15.63c0,.14.03.23.03.29.14.97.94,1.8,1.81,2.06.65.2,21.49.06,23.19.06h11.65c.96,0,1.76-.06,2.41-.89.2-.23.14-.09.23-.37h0Z"/>
      <path class="cls-3" d="m4.93,9.02c.88-.2,4.11-.03,5.24-.03.96-.03,1.53,0,1.87.72.26.6.11,8.96.11,10.51.03.92-.2,1.49-.96,1.66-.85.2-4.2.03-5.3.03-2.38.03-2.04-.86-2.04-3.24v-7.99c-.03-.94.23-1.49,1.08-1.66h0Zm8.5,14.17V7.67c-3.09,0-6.15.03-9.24,0-1.93,0-1.62-.11-1.62,3.06v9.33c0,3.15-.31,3.12,1.53,3.12h9.33Z"/>
      <path class="cls-3" d="m22.25,8.96c1.87.03,1.45,2,1.45,3.66v5.24c0,1.8.37,3.81-1.11,4.04h-5.16c-1.87,0-1.42-2-1.42-3.64v-5.24c0-1.95-.4-3.81,1.13-4.04l5.1-.03Zm-7.51,14.23h10.23V7.7h-10.23v15.49Z"/>
      <path class="cls-7" d="m7.57,10.42c1.36-.37,2.35.26,3.03.92.85.86.82,1.86.82,3.32,0,1.09.14,3.06-.23,3.95-.82,2.06-3.43,2.75-5.16,1-.88-.94-.85-1.78-.85-3.29,0-2.43-.48-5.12,2.38-5.9h0Zm-2.64-1.4c-.85.17-1.11.72-1.08,1.66v7.99c0,2.38-.34,3.26,2.04,3.24,1.11,0,4.45.17,5.3-.03.77-.17.99-.74.96-1.66,0-1.55.14-9.91-.11-10.51-.34-.72-.91-.74-1.87-.72-1.13,0-4.37-.17-5.24.03h0Z"/>
      <path class="cls-3" d="m33.02,22.82c-.06-.43-.2-.54-.34-.83-.11-.06-.09-.03-.17-.09-.91.03-1.84,0-2.75,0-2.75,0-2.24-.46-2.24-5.67v-5.33c0-.92.09-1.57.82-1.83.28-.11,2.13-.17,2.41-.06l.2-.14c.11-.31.57-.8.79-1.17l-5.47-.03v15.52h6.8l-.06-.37Z"/>
      <path class="cls-1" d="m7.91,11.65c.91-.2,1.64.31,1.96.8.4.66.28,1.66.28,2.52,0,.72.09,2.23-.03,2.83-.31,1.66-2.52,2.03-3.37.63-.4-.66-.28-1.69-.28-2.52,0-1.89-.37-3.84,1.45-4.27h0Zm-.34-1.23c-2.86.77-2.38,3.46-2.38,5.9,0,1.52-.03,2.35.85,3.29,1.73,1.75,4.34,1.06,5.16-1,.37-.89.23-2.86.23-3.95,0-1.46.03-2.46-.82-3.32-.68-.66-1.67-1.29-3.03-.92h0Z"/>
      <path class="cls-3" d="m32.49,8.96c1.36.03,3.15-.34,3.34,1.15.11.74.03,7.7.03,9.1,0,2.2.11,2.46-1.76,2.72.17.49.23.66.26,1.26.51.03,2.21.11,2.55-.14.4-.31.23-1.92.23-2.52v-11.11c0-1.09.26-1.75-.99-1.75-.91,0-1.93-.03-2.83.03-.2.4-.65.86-.82,1.26h0Z"/>
      <path class="cls-7" d="m7.91,11.65c-1.81.43-1.45,2.38-1.45,4.27,0,.83-.11,1.86.28,2.52.85,1.4,3.06,1.03,3.37-.63.11-.6.03-2.12.03-2.83,0-.86.11-1.86-.28-2.52-.31-.49-1.05-1-1.96-.8h0Z"/>
      <polygon class="cls-6" points="14.74 23.19 14.74 7.7 13.52 7.67 13.52 23.19 14.74 23.19"/>
      <rect class="cls-9" x="24.97" y="7.7" width="1.22" height="15.49"/>
      <path class="cls-1" d="m32.56,21.87c.09.06.02.04.14.09.23-.2,1.06-.07,1.4-.04-.11-.2-.2-.4-.34-.57-.23-.23-.28-.17-.45-.54.65-.46,1.22-1.49,1.02-2.69-.48-2.72-4.17-3.24-5.39-.77-.77,1.57.62,2.09,1.05.83.6-1.72,2.89-1.35,3.09.26.2,1.75-1.59,1.78-1.84,1.86-.48.2-.51.92-.06,1.15.51.26.73-.06,1.33.4l.05.03Z"/>
      <path class="cls-1" d="m19.93,11.77c.11,2.23-.11,6.38,0,7.99.09.89,1.28.97,1.28-.17v-8.22c0-1.09-.54-.89-2.3-.89-1.02,0-.82.83-.68,1.06.26.37,1.16.23,1.7.23h0Z"/>
      <path class="cls-1" d="m29.15,11.34c-.88,1.52,1.64,1.2,2.61,1.2.68,0,2.41.11,2.72-.2.2-.23.26-.54.06-.8-.34-.57-2.86-.2-3.69-.31.23-.46,1.25-1.66,1.62-2.26-.26.03-.51.03-.79.03h-.4c-.34-.06-.12-.03-.32-.07-.26-.06-1.63,2.13-1.8,2.42h0Z"/>
      <path class="cls-5" d="m30.84,8.97c.19.05.03.02.37.07.08.01.31,0,.4,0,.28,0,.57,0,.82-.03h.03c.17-.42.62-.89.82-1.31h-1.56c-.23.39-.67.89-.81,1.21l-.07.07Z"/>
      <path class="cls-5" d="m33.13,23.2h.06s1.16,0,1.16,0c-.03-.62-.09-.8-.26-1.3-.34-.03-1.23-.17-1.46.03.14.29.38.82.44,1.26h.05Z"/>
      <path class="cls-2" d="m20.47,0c2.78,0,5.07,2.29,5.07,5.12h-10.15c0-2.83,2.27-5.12,5.07-5.12h0Z"/>
    </g>
  </g>
</svg>