<?xml version="1.0" encoding="UTF-8"?>
<!DOCTYPE svg PUBLIC "-//W3C//DTD SVG 1.1//EN" "http://www.w3.org/Graphics/SVG/1.1/DTD/svg11.dtd">
<svg xmlns="http://www.w3.org/2000/svg" version="1.1" width="228px" height="161px" style="shape-rendering:geometricPrecision; text-rendering:geometricPrecision; image-rendering:optimizeQuality; fill-rule:evenodd; clip-rule:evenodd" xmlns:xlink="http://www.w3.org/1999/xlink">
<g><path style="opacity:0.966" fill="#22a1e8" d="M 105.5,-0.5 C 106.167,-0.5 106.833,-0.5 107.5,-0.5C 108.122,0.626561 108.955,1.62656 110,2.5C 111.562,12.126 112.729,21.7927 113.5,31.5C 110.522,33.6749 109.022,36.6749 109,40.5C 107.443,59.9153 105.61,79.2487 103.5,98.5C 102.883,98.6107 102.383,98.944 102,99.5C 101.502,96.5184 101.335,93.5184 101.5,90.5C 100.5,90.5 99.5,90.5 98.5,90.5C 98.5,95.8333 98.5,101.167 98.5,106.5C 99.8333,106.5 101.167,106.5 102.5,106.5C 102.5,107.833 102.5,109.167 102.5,110.5C 98.5,110.5 94.5,110.5 90.5,110.5C 90.5,111.833 90.5,113.167 90.5,114.5C 92.4832,114.157 93.8166,114.824 94.5,116.5C 87.2827,117.544 81.7827,121.211 78,127.5C 75.1986,136.339 74.6986,145.339 76.5,154.5C 56.5,154.5 36.5,154.5 16.5,154.5C 31.4069,152.424 46.4069,150.091 61.5,147.5C 61.719,146.325 61.3857,145.325 60.5,144.5C 45.8683,136.503 31.535,128.169 17.5,119.5C 32.9421,124.509 48.2754,129.509 63.5,134.5C 68.5842,132.974 69.5842,130.141 66.5,126C 58.9497,123.433 51.6163,120.6 44.5,117.5C 51.0845,119.185 57.7512,120.019 64.5,120C 70.8585,108.639 80.0252,100.473 92,95.5C 95.9943,65.2281 99.661,34.8947 103,4.5C 103.366,2.54826 104.199,0.88159 105.5,-0.5 Z"/></g>
<g><path style="opacity:0.917" fill="#9ef3fc" d="M 118.5,95.5 C 117.517,99.2984 117.183,103.298 117.5,107.5C 112.997,106.847 108.997,105.013 105.5,102C 104.177,101.184 103.511,100.017 103.5,98.5C 105.61,79.2487 107.443,59.9153 109,40.5C 109.022,36.6749 110.522,33.6749 113.5,31.5C 115.01,30.2721 116.51,30.2721 118,31.5C 118.5,52.8307 118.667,74.1641 118.5,95.5 Z"/></g>
<g><path style="opacity:0.896" fill="#fefffe" d="M 63.5,43.5 C 64.4959,43.4142 65.3292,43.7476 66,44.5C 69.7213,54.6459 72.3879,64.9792 74,75.5C 72.276,78.7303 70.276,79.0636 68,76.5C 63.6368,69.107 59.8035,61.4403 56.5,53.5C 58.3373,49.8275 60.6706,46.4942 63.5,43.5 Z"/></g>
<g><path style="opacity:1" fill="#23a2e8" d="M 142.5,111.5 C 141.627,113.886 140.127,115.886 138,117.5C 137.517,118.448 137.351,119.448 137.5,120.5C 135.455,119.077 134.455,117.077 134.5,114.5C 127.833,114.5 121.167,114.5 114.5,114.5C 114.5,115.833 114.5,117.167 114.5,118.5C 113.167,118.5 111.833,118.5 110.5,118.5C 110.5,117.167 110.5,115.833 110.5,114.5C 106.486,114.334 102.486,114.501 98.5,115C 99.7375,115.232 100.737,115.732 101.5,116.5C 99.1667,116.5 96.8333,116.5 94.5,116.5C 93.8166,114.824 92.4832,114.157 90.5,114.5C 90.5,113.167 90.5,111.833 90.5,110.5C 94.5,110.5 98.5,110.5 102.5,110.5C 102.5,109.167 102.5,107.833 102.5,106.5C 101.167,106.5 99.8333,106.5 98.5,106.5C 98.5,101.167 98.5,95.8333 98.5,90.5C 99.5,90.5 100.5,90.5 101.5,90.5C 101.335,93.5184 101.502,96.5184 102,99.5C 102.383,98.944 102.883,98.6107 103.5,98.5C 103.511,100.017 104.177,101.184 105.5,102C 108.997,105.013 112.997,106.847 117.5,107.5C 117.183,103.298 117.517,99.2984 118.5,95.5C 131.135,81.3596 143.635,67.0263 156,52.5C 158.197,50.0505 159.697,50.2172 160.5,53C 153.389,70.2249 145.722,87.2249 137.5,104C 138.589,106.916 140.256,109.416 142.5,111.5 Z"/></g>
<g><path style="opacity:0.946" fill="#9ff4fc" d="M 146.5,116.5 C 144.704,117.793 143.037,119.293 141.5,121C 139.934,121.765 138.601,121.598 137.5,120.5C 137.351,119.448 137.517,118.448 138,117.5C 140.127,115.886 141.627,113.886 142.5,111.5C 148.793,106.199 154.793,100.366 160.5,94C 162.403,92.1723 164.236,92.339 166,94.5C 166.315,95.9078 165.982,97.2411 165,98.5C 158.965,104.703 152.798,110.703 146.5,116.5 Z"/></g>
<g><path style="opacity:1" fill="#a0f4fc" d="M 131.5,94.5 C 132.586,94.62 133.253,95.2867 133.5,96.5C 132.053,100.386 130.386,104.052 128.5,107.5C 126.625,106.46 125.292,104.96 124.5,103C 126.654,100.013 128.987,97.1798 131.5,94.5 Z"/></g>
<g><path style="opacity:0.961" fill="#fafdfe" d="M 44.5,117.5 C 51.6163,120.6 58.9497,123.433 66.5,126C 69.5842,130.141 68.5842,132.974 63.5,134.5C 48.2754,129.509 32.9421,124.509 17.5,119.5C 10.7465,119.26 7.91318,115.927 9,109.5C 10.3129,108.427 11.8129,107.76 13.5,107.5C 23.8511,110.839 34.1845,114.173 44.5,117.5 Z"/></g>
<g><path style="opacity:1" fill="#9df3fb" d="M 94.5,116.5 C 96.8333,116.5 99.1667,116.5 101.5,116.5C 108.685,116.848 111.519,120.515 110,127.5C 107.935,130.96 106.435,134.626 105.5,138.5C 105.939,143.238 108.606,145.404 113.5,145C 114.167,145.667 114.833,146.333 115.5,147C 123.167,147.333 130.833,147.667 138.5,148C 141.693,149.026 143.026,151.192 142.5,154.5C 120.5,154.5 98.5,154.5 76.5,154.5C 74.6986,145.339 75.1986,136.339 78,127.5C 81.7827,121.211 87.2827,117.544 94.5,116.5 Z"/></g>
<g><path style="opacity:0.972" fill="#21a1e8" d="M 137.5,120.5 C 138.601,121.598 139.934,121.765 141.5,121C 143.037,119.293 144.704,117.793 146.5,116.5C 147.985,120.141 149.485,123.808 151,127.5C 152.085,128.293 153.252,128.96 154.5,129.5C 165.964,127.652 177.464,125.985 189,124.5C 195.674,126.251 196.841,129.585 192.5,134.5C 179.924,139.451 166.924,142.951 153.5,145C 152.09,145.368 151.09,146.201 150.5,147.5C 173.455,149.789 196.455,151.622 219.5,153C 220.416,153.278 221.082,153.778 221.5,154.5C 195.167,154.5 168.833,154.5 142.5,154.5C 143.026,151.192 141.693,149.026 138.5,148C 130.833,147.667 123.167,147.333 115.5,147C 114.833,146.333 114.167,145.667 113.5,145C 108.606,145.404 105.939,143.238 105.5,138.5C 106.435,134.626 107.935,130.96 110,127.5C 111.519,120.515 108.685,116.848 101.5,116.5C 100.737,115.732 99.7375,115.232 98.5,115C 102.486,114.501 106.486,114.334 110.5,114.5C 110.5,115.833 110.5,117.167 110.5,118.5C 111.833,118.5 113.167,118.5 114.5,118.5C 114.5,117.167 114.5,115.833 114.5,114.5C 121.167,114.5 127.833,114.5 134.5,114.5C 134.455,117.077 135.455,119.077 137.5,120.5 Z"/></g>
<g><path style="opacity:1" fill="#9af0fb" d="M 123.5,122.5 C 127.789,121.483 130.122,123.15 130.5,127.5C 135.719,127.878 138.219,130.545 138,135.5C 131.521,138.167 126.521,136.167 123,129.5C 122.297,127.071 122.463,124.738 123.5,122.5 Z"/></g>
<g><path style="opacity:1" fill="#f8fefe" d="M 86.5,123.5 C 87.8333,123.5 89.1667,123.5 90.5,123.5C 90.8768,130.26 88.3768,135.594 83,139.5C 79.7192,136.953 78.7192,133.619 80,129.5C 81.8725,127.153 84.0392,125.153 86.5,123.5 Z"/></g>
<g><path style="opacity:0.883" fill="#fcfeff" d="M 16.5,154.5 C 36.5,154.5 56.5,154.5 76.5,154.5C 98.5,154.5 120.5,154.5 142.5,154.5C 168.833,154.5 195.167,154.5 221.5,154.5C 223.621,154.325 225.621,154.659 227.5,155.5C 227.5,156.833 227.5,158.167 227.5,159.5C 226.833,159.5 226.5,159.833 226.5,160.5C 151.167,160.5 75.8333,160.5 0.5,160.5C 0.5,159.833 0.166667,159.5 -0.5,159.5C -0.5,158.167 -0.5,156.833 -0.5,155.5C 5.07475,154.548 10.7414,154.214 16.5,154.5 Z"/></g>
</svg>
