<?xml version="1.0" encoding="UTF-8"?>
<!DOCTYPE svg PUBLIC "-//W3C//DTD SVG 1.1//EN" "http://www.w3.org/Graphics/SVG/1.1/DTD/svg11.dtd">
<svg xmlns="http://www.w3.org/2000/svg" version="1.1" width="192px" height="182px" style="shape-rendering:geometricPrecision; text-rendering:geometricPrecision; image-rendering:optimizeQuality; fill-rule:evenodd; clip-rule:evenodd" xmlns:xlink="http://www.w3.org/1999/xlink">
<g><path style="opacity:0.982" fill="#82c415" d="M 94.5,-0.5 C 95.1667,-0.5 95.8333,-0.5 96.5,-0.5C 106.043,19.4192 115.71,39.2525 125.5,59C 147.463,62.4947 169.463,65.6613 191.5,68.5C 191.5,69.1667 191.5,69.8333 191.5,70.5C 174.952,84.543 159.118,99.543 144,115.5C 147.382,137.463 150.882,159.463 154.5,181.5C 153.833,181.5 153.167,181.5 152.5,181.5C 133.722,170.941 114.722,160.608 95.5,150.5C 75.7873,160.353 56.454,170.686 37.5,181.5C 36.8333,181.5 36.1667,181.5 35.5,181.5C 39.2337,159.596 43.2337,137.763 47.5,116C 31.9087,99.906 15.9087,84.406 -0.5,69.5C -0.5,69.1667 -0.5,68.8333 -0.5,68.5C 21.4533,65.1721 43.4533,62.0054 65.5,59C 75.8719,39.4247 85.5385,19.5914 94.5,-0.5 Z"/></g>
</svg>
