<?xml version="1.0" encoding="UTF-8"?>
<!DOCTYPE svg PUBLIC "-//W3C//DTD SVG 1.1//EN" "http://www.w3.org/Graphics/SVG/1.1/DTD/svg11.dtd">
<svg xmlns="http://www.w3.org/2000/svg" version="1.1" width="150px" height="200px" style="shape-rendering:geometricPrecision; text-rendering:geometricPrecision; image-rendering:optimizeQuality; fill-rule:evenodd; clip-rule:evenodd" xmlns:xlink="http://www.w3.org/1999/xlink">
<g><path style="opacity:0.923" fill="#fefffe" d="M 11.5,-0.5 C 12.8333,-0.5 14.1667,-0.5 15.5,-0.5C 57.0169,23.2686 98.6836,47.1019 140.5,71C 147.761,79.1085 146.761,86.1085 137.5,92C 99.1219,115.182 61.1219,138.849 23.5,163C 12.813,169.317 5.47971,166.651 1.5,155C 1.70396,151.168 3.37062,148.168 6.5,146C 41.2996,124.096 76.2996,102.429 111.5,81C 75.6642,60.6349 39.9975,40.1349 4.5,19.5C 1.72416,15.7463 1.22416,11.7463 3,7.5C 5.1565,4.02414 7.98983,1.35748 11.5,-0.5 Z"/></g>
<g><path style="opacity:0.903" fill="#fefffe" d="M 149.5,185.5 C 149.5,187.167 149.5,188.833 149.5,190.5C 147.258,193.31 145.258,196.31 143.5,199.5C 98.1667,199.5 52.8333,199.5 7.5,199.5C 4.16667,197.5 1.5,194.833 -0.5,191.5C -0.5,189.5 -0.5,187.5 -0.5,185.5C 0.983199,181.853 3.64987,179.353 7.5,178C 51.8333,177.333 96.1667,177.333 140.5,178C 144.598,179.271 147.598,181.771 149.5,185.5 Z"/></g>
</svg>
