<?xml version="1.0" encoding="UTF-8"?>
<!DOCTYPE svg PUBLIC "-//W3C//DTD SVG 1.1//EN" "http://www.w3.org/Graphics/SVG/1.1/DTD/svg11.dtd">
<svg xmlns="http://www.w3.org/2000/svg" version="1.1" width="215px" height="220px" style="shape-rendering:geometricPrecision; text-rendering:geometricPrecision; image-rendering:optimizeQuality; fill-rule:evenodd; clip-rule:evenodd" xmlns:xlink="http://www.w3.org/1999/xlink">
<g><path style="opacity:0.79" fill="#fefffe" d="M 170.5,-0.5 C 173.5,-0.5 176.5,-0.5 179.5,-0.5C 192.285,0.964261 202.118,7.29759 209,18.5C 210.577,23.1019 212.411,27.4353 214.5,31.5C 214.5,37.5 214.5,43.5 214.5,49.5C 211.809,56.1825 208.809,62.8492 205.5,69.5C 198.3,80.1345 190.3,90.8011 181.5,101.5C 179.475,103.196 177.475,104.863 175.5,106.5C 171.921,104.429 168.754,101.762 166,98.5C 154.267,85.4187 144.934,70.752 138,54.5C 131.931,31.3341 139.098,13.8341 159.5,2C 163.312,1.20451 166.979,0.371179 170.5,-0.5 Z M 169.5,7.5 C 179.958,6.58847 188.958,9.08847 196.5,15C 203.158,22.1373 206.158,30.6373 205.5,40.5C 205.604,47.5507 204.104,54.2174 201,60.5C 193.803,73.5603 185.136,85.5603 175,96.5C 163.716,84.2068 154.382,70.5401 147,55.5C 142.163,42.5237 143.497,30.1904 151,18.5C 156.149,12.8524 162.316,9.18576 169.5,7.5 Z"/></g>
<g><path style="opacity:0.932" fill="#2bace9" d="M 172.5,21.5 C 187.737,23.318 193.57,31.6513 190,46.5C 180.692,58.022 171.025,58.3553 161,47.5C 156.233,34.9548 160.066,26.2881 172.5,21.5 Z"/></g>
<g><path style="opacity:0.954" fill="#fefffe" d="M 102.5,219.5 C 80.5,219.5 58.5,219.5 36.5,219.5C 35.9278,217.745 35.0945,216.078 34,214.5C 33.5,185.169 33.3334,155.835 33.5,126.5C 24.1607,126.666 14.8274,126.5 5.5,126C 2.97457,125.576 0.97457,124.41 -0.5,122.5C -0.5,121.5 -0.5,120.5 -0.5,119.5C 22.2322,97.2652 45.7322,75.9319 70,55.5C 75.7905,59.6218 81.2905,64.1218 86.5,69C 103.338,85.5048 120.505,101.672 138,117.5C 140.134,122.046 138.634,124.879 133.5,126C 123.839,126.5 114.172,126.666 104.5,126.5C 104.667,156.169 104.5,185.835 104,215.5C 103.209,216.745 102.709,218.078 102.5,219.5 Z"/></g>
</svg>
