<?xml version="1.0" encoding="UTF-8"?>
<!DOCTYPE svg PUBLIC "-//W3C//DTD SVG 1.1//EN" "http://www.w3.org/Graphics/SVG/1.1/DTD/svg11.dtd">
<svg xmlns="http://www.w3.org/2000/svg" version="1.1" width="200px" height="100px" style="shape-rendering:geometricPrecision; text-rendering:geometricPrecision; image-rendering:optimizeQuality; fill-rule:evenodd; clip-rule:evenodd" xmlns:xlink="http://www.w3.org/1999/xlink">
<g><path style="opacity:0.858" fill="#fefffe" d="M 9.5,-0.5 C 18.8333,-0.5 28.1667,-0.5 37.5,-0.5C 39.8953,1.90796 39.8953,4.2413 37.5,6.5C 28.1667,7.83333 18.8333,7.83333 9.5,6.5C 7.10466,4.2413 7.10466,1.90796 9.5,-0.5 Z"/></g>
<g><path style="opacity:0.891" fill="#fefffe" d="M 114.5,99.5 C 79.5,99.5 44.5,99.5 9.5,99.5C 5.45643,96.4575 2.12309,92.7908 -0.5,88.5C -0.5,66.8333 -0.5,45.1667 -0.5,23.5C 1.34345,18.1579 5.01012,14.6579 10.5,13C 45.1667,12.3333 79.8333,12.3333 114.5,13C 120.098,14.9306 123.598,18.7639 125,24.5C 125.667,45.5 125.667,66.5 125,87.5C 123.064,92.9322 119.564,96.9322 114.5,99.5 Z M 12.5,19.5 C 46.5868,19.0139 80.5868,19.5139 114.5,21C 116.768,22.5577 117.934,24.7244 118,27.5C 118.667,46.1667 118.667,64.8333 118,83.5C 117.883,86.9115 116.383,89.4115 113.5,91C 96.5,91.1667 79.5,91.3333 62.5,91.5C 44.7454,91.654 27.0787,91.154 9.5,90C 8.53986,88.5806 7.70653,87.0806 7,85.5C 6.33333,65.8333 6.33333,46.1667 7,26.5C 7.93826,23.4025 9.77159,21.0691 12.5,19.5 Z"/></g>
<g><path style="opacity:0.907" fill="#fefffe" d="M 199.5,53.5 C 199.5,55.1667 199.5,56.8333 199.5,58.5C 198.711,58.7828 198.044,59.2828 197.5,60C 189.507,60.4997 181.507,60.6664 173.5,60.5C 173.666,68.5069 173.5,76.5069 173,84.5C 170,87.1667 167,87.1667 164,84.5C 163.5,76.5069 163.334,68.5069 163.5,60.5C 155.493,60.6664 147.493,60.4997 139.5,60C 136.595,56.6258 136.928,53.6258 140.5,51C 148.159,50.5003 155.826,50.3336 163.5,50.5C 163.334,42.8261 163.5,35.1594 164,27.5C 167,23.5 170,23.5 173,27.5C 173.5,35.1594 173.666,42.8261 173.5,50.5C 181.174,50.3336 188.841,50.5003 196.5,51C 197.373,52.045 198.373,52.8783 199.5,53.5 Z"/></g>
<g><path style="opacity:0.965" fill="#fefffe" d="M 18.5,31.5 C 47.8333,31.5 77.1667,31.5 106.5,31.5C 106.5,43.5 106.5,55.5 106.5,67.5C 77.1667,67.5 47.8333,67.5 18.5,67.5C 18.5,55.5 18.5,43.5 18.5,31.5 Z"/></g>
</svg>
