<?xml version="1.0" encoding="UTF-8"?>
<!DOCTYPE svg PUBLIC "-//W3C//DTD SVG 1.1//EN" "http://www.w3.org/Graphics/SVG/1.1/DTD/svg11.dtd">
<svg xmlns="http://www.w3.org/2000/svg" version="1.1" width="236px" height="204px" style="shape-rendering:geometricPrecision; text-rendering:geometricPrecision; image-rendering:optimizeQuality; fill-rule:evenodd; clip-rule:evenodd" xmlns:xlink="http://www.w3.org/1999/xlink">
<g><path style="opacity:0.898" fill="#fefffe" d="M 141.5,-0.5 C 143.167,-0.5 144.833,-0.5 146.5,-0.5C 147.072,1.25542 147.906,2.92209 149,4.5C 149.499,9.82294 149.666,15.1563 149.5,20.5C 160.5,20.5 171.5,20.5 182.5,20.5C 182.335,17.4816 182.502,14.4816 183,11.5C 186.294,8.68875 189.294,9.02209 192,12.5C 192.497,15.146 192.664,17.8127 192.5,20.5C 203.5,20.5 214.5,20.5 225.5,20.5C 225.334,14.8236 225.501,9.15688 226,3.5C 226.662,2.01608 227.496,0.682751 228.5,-0.5C 229.833,-0.5 231.167,-0.5 232.5,-0.5C 233.167,0.833333 234.167,1.83333 235.5,2.5C 235.5,11.1667 235.5,19.8333 235.5,28.5C 234.711,28.7828 234.044,29.2828 233.5,30C 202.833,30.6667 172.167,30.6667 141.5,30C 140.333,29.5 139.5,28.6667 139,27.5C 138.333,19.5 138.333,11.5 139,3.5C 140.481,2.52912 141.315,1.19578 141.5,-0.5 Z"/></g>
<g><path style="opacity:0.922" fill="#fefffe" d="M 165.5,203.5 C 163.167,203.5 160.833,203.5 158.5,203.5C 142.979,189.484 127.812,174.817 113,159.5C 94.4495,170.749 74.6162,173.582 53.5,168C 23.5633,157.901 5.56331,137.401 -0.5,106.5C -0.5,99.1667 -0.5,91.8333 -0.5,84.5C 10.2325,41.274 37.8992,20.1073 82.5,21C 123.561,28.938 145.895,53.7713 149.5,95.5C 148.687,111.939 143.687,126.939 134.5,140.5C 148.182,154.348 161.682,168.348 175,182.5C 177.093,187.816 176.426,192.816 173,197.5C 170.262,199.426 167.762,201.426 165.5,203.5 Z M 72.5,30.5 C 105.615,31.8436 127.115,48.5103 137,80.5C 142.796,120.434 126.629,146.6 88.5,159C 53.6324,164.321 28.7991,151.154 14,119.5C 4.41793,90.3955 10.9179,65.5622 33.5,45C 45.1503,36.2862 58.1503,31.4529 72.5,30.5 Z"/></g>
<g><path style="opacity:0.982" fill="#2aace8" d="M 29.5,50.5 C 59.1685,50.3334 88.8352,50.5 118.5,51C 119.495,80.7597 119.829,110.593 119.5,140.5C 89.5,140.5 59.5,140.5 29.5,140.5C 29.5,110.5 29.5,80.5 29.5,50.5 Z"/></g>
</svg>
