<?xml version="1.0" encoding="UTF-8"?>
<!DOCTYPE svg PUBLIC "-//W3C//DTD SVG 1.1//EN" "http://www.w3.org/Graphics/SVG/1.1/DTD/svg11.dtd">
<svg xmlns="http://www.w3.org/2000/svg" version="1.1" width="222px" height="206px" style="shape-rendering:geometricPrecision; text-rendering:geometricPrecision; image-rendering:optimizeQuality; fill-rule:evenodd; clip-rule:evenodd" xmlns:xlink="http://www.w3.org/1999/xlink">
<g><path style="opacity:0.938" fill="#fefffe" d="M 165.5,-0.5 C 168.833,-0.5 172.167,-0.5 175.5,-0.5C 175.5,2.5 175.5,5.5 175.5,8.5C 178.833,8.5 182.167,8.5 185.5,8.5C 185.5,5.5 185.5,2.5 185.5,-0.5C 190.5,-0.5 195.5,-0.5 200.5,-0.5C 200.5,2.5 200.5,5.5 200.5,8.5C 203.833,8.5 207.167,8.5 210.5,8.5C 210.5,5.5 210.5,2.5 210.5,-0.5C 214.167,-0.5 217.833,-0.5 221.5,-0.5C 221.5,8.16667 221.5,16.8333 221.5,25.5C 218.5,25.5 215.5,25.5 212.5,25.5C 213.833,39.1667 215.167,52.8333 216.5,66.5C 211.5,66.5 206.5,66.5 201.5,66.5C 201.666,58.8261 201.5,51.1594 201,43.5C 198.016,37.2818 193.516,35.9485 187.5,39.5C 186.416,40.6651 185.583,41.9984 185,43.5C 184.5,51.1594 184.334,58.8261 184.5,66.5C 179.5,66.5 174.5,66.5 169.5,66.5C 170.729,53.0997 172.396,39.7663 174.5,26.5C 171.572,25.5159 168.572,25.1826 165.5,25.5C 165.5,16.8333 165.5,8.16667 165.5,-0.5 Z"/></g>
<g><path style="opacity:0.921" fill="#fefffe" d="M 166.5,205.5 C 164.167,205.5 161.833,205.5 159.5,205.5C 144.244,191.581 129.244,177.247 114.5,162.5C 77.0437,181.413 44.2103,175.413 16,144.5C 7.70317,132.586 2.20317,119.586 -0.5,105.5C -0.5,100.5 -0.5,95.5 -0.5,90.5C 5.54249,56.9544 24.8758,35.1211 57.5,25C 88.8678,18.8984 114.701,28.0651 135,52.5C 155.371,82.5976 155.537,112.764 135.5,143C 149.73,156.561 163.23,170.728 176,185.5C 178.511,194.812 175.345,201.479 166.5,205.5 Z M 64.5,33.5 C 98.1847,30.9198 122.018,44.9198 136,75.5C 146.064,113.691 133.564,141.524 98.5,159C 64.9132,168.918 38.4132,159.418 19,130.5C 4.62467,100.116 9.12467,72.9491 32.5,49C 42.06,41.3857 52.7267,36.219 64.5,33.5 Z"/></g>
<g><path style="opacity:0.979" fill="#c53121" d="M 22.5,67.5 C 57.8396,67.1668 93.173,67.5001 128.5,68.5C 111.086,98.9973 93.4191,129.331 75.5,159.5C 56.8142,129.467 39.1475,98.8004 22.5,67.5 Z"/></g>
</svg>
