<?xml version="1.0" encoding="UTF-8"?>
<!DOCTYPE svg PUBLIC "-//W3C//DTD SVG 1.1//EN" "http://www.w3.org/Graphics/SVG/1.1/DTD/svg11.dtd">
<svg xmlns="http://www.w3.org/2000/svg" version="1.1" width="232px" height="204px" style="shape-rendering:geometricPrecision; text-rendering:geometricPrecision; image-rendering:optimizeQuality; fill-rule:evenodd; clip-rule:evenodd" xmlns:xlink="http://www.w3.org/1999/xlink">
<g><path style="opacity:0.901" fill="#fefffe" d="M 177.5,-0.5 C 178.833,-0.5 180.167,-0.5 181.5,-0.5C 188.779,10.6192 196.279,21.6192 204,32.5C 204.875,33.8732 205.375,35.3732 205.5,37C 198.789,48.7267 191.622,60.2267 184,71.5C 181.582,73.6801 178.916,74.0135 176,72.5C 174.699,70.6354 174.365,68.6354 175,66.5C 181.697,56.6348 188.197,46.6348 194.5,36.5C 188.195,27.0286 181.695,17.6953 175,8.5C 173.927,4.90027 174.76,1.90027 177.5,-0.5 Z"/></g>
<g><path style="opacity:0.906" fill="#fefffe" d="M 203.5,-0.5 C 204.833,-0.5 206.167,-0.5 207.5,-0.5C 215.144,11.134 223.144,22.4673 231.5,33.5C 231.5,35.5 231.5,37.5 231.5,39.5C 224.193,49.4249 217.36,59.7583 211,70.5C 206.756,74.7828 203.256,74.2828 200.5,69C 207.035,58.0994 213.701,47.2661 220.5,36.5C 214,26.8333 207.5,17.1667 201,7.5C 200.388,4.3893 201.221,1.72264 203.5,-0.5 Z"/></g>
<g><path style="opacity:0.923" fill="#fefffe" d="M 165.5,203.5 C 162.833,203.5 160.167,203.5 157.5,203.5C 143.109,189.611 128.776,175.444 114.5,161C 113.5,160.333 112.5,160.333 111.5,161C 75.6633,178.637 43.83,172.803 16,143.5C 7.6913,132.72 2.1913,120.72 -0.5,107.5C -0.5,99.8333 -0.5,92.1667 -0.5,84.5C 10.0283,41.8207 37.3616,20.654 81.5,21C 118.306,26.8052 140.472,47.9718 148,84.5C 150.717,104.962 146.217,123.629 134.5,140.5C 147.153,153.653 159.986,166.653 173,179.5C 178.266,189.87 175.766,197.87 165.5,203.5 Z M 68.5,30.5 C 106.442,30.9505 129.608,49.6172 138,86.5C 140.166,125.655 122.332,150.155 84.5,160C 49.4418,163.148 25.4418,148.482 12.5,116C 4.14604,80.0492 16.146,53.3825 48.5,36C 55.1292,33.5126 61.7958,31.6793 68.5,30.5 Z"/></g>
<g><path style="opacity:0.864" fill="#c63021" d="M 21.5,65.5 C 22.8333,65.5 24.1667,65.5 25.5,65.5C 25.8016,68.0593 25.4682,70.3926 24.5,72.5C 23.2271,70.2872 22.2271,67.9538 21.5,65.5 Z"/></g>
<g><path style="opacity:0.985" fill="#c63121" d="M 25.5,65.5 C 57.5,65.5 89.5,65.5 121.5,65.5C 121.025,68.0821 121.692,70.0821 123.5,71.5C 108.669,98.5009 93.3354,125.168 77.5,151.5C 75.1667,151.5 72.8333,151.5 70.5,151.5C 55.2022,125.189 39.8688,98.8555 24.5,72.5C 25.4682,70.3926 25.8016,68.0593 25.5,65.5 Z"/></g>
<g><path style="opacity:0.926" fill="#c63021" d="M 121.5,65.5 C 123.167,65.5 124.833,65.5 126.5,65.5C 126.346,67.9699 125.346,69.9699 123.5,71.5C 121.692,70.0821 121.025,68.0821 121.5,65.5 Z"/></g>
<g><path style="opacity:0.885" fill="#c63121" d="M 70.5,151.5 C 72.8333,151.5 75.1667,151.5 77.5,151.5C 76.5974,153.636 75.4307,155.636 74,157.5C 72.5693,155.636 71.4026,153.636 70.5,151.5 Z"/></g>
</svg>
