<?xml version="1.0" encoding="UTF-8"?>
<!DOCTYPE svg PUBLIC "-//W3C//DTD SVG 1.1//EN" "http://www.w3.org/Graphics/SVG/1.1/DTD/svg11.dtd">
<svg xmlns="http://www.w3.org/2000/svg" version="1.1" width="94px" height="150px" style="shape-rendering:geometricPrecision; text-rendering:geometricPrecision; image-rendering:optimizeQuality; fill-rule:evenodd; clip-rule:evenodd" xmlns:xlink="http://www.w3.org/1999/xlink">
<g><path style="opacity:0.933" fill="#fefffe" d="M 5.5,-0.5 C 27.1667,-0.5 48.8333,-0.5 70.5,-0.5C 82.1045,2.77223 89.7712,10.1056 93.5,21.5C 93.5,33.8333 93.5,46.1667 93.5,58.5C 91.3421,64.2888 88.0087,69.4555 83.5,74C 81.5,75 79.5,76 77.5,77C 65.8813,78.221 54.2146,78.8877 42.5,79C 39.6667,79.8333 37.8333,81.6667 37,84.5C 36.6667,91.1667 36.3333,97.8333 36,104.5C 33.7742,108.861 30.2742,110.361 25.5,109C 23.3333,108.167 21.8333,106.667 21,104.5C 20.3333,96.1667 20.3333,87.8333 21,79.5C 22.7361,72.7634 26.9028,68.2634 33.5,66C 46.1899,65.0446 58.8566,64.0446 71.5,63C 74.7544,60.6581 76.5877,57.4915 77,53.5C 77.8908,43.7722 77.5575,34.1055 76,24.5C 73.4417,19.2712 69.275,16.4378 63.5,16C 43.8333,15.6667 24.1667,15.3333 4.5,15C 3.11547,13.3506 1.44881,12.1839 -0.5,11.5C -0.5,9.16667 -0.5,6.83333 -0.5,4.5C 1.48073,2.85639 3.48073,1.18973 5.5,-0.5 Z"/></g>
<g><path style="opacity:0.91" fill="#fefffe" d="M 32.5,149.5 C 29.8333,149.5 27.1667,149.5 24.5,149.5C 23.1639,147.99 21.9973,146.323 21,144.5C 20.3333,139.5 20.3333,134.5 21,129.5C 23.9547,125.723 27.788,124.557 32.5,126C 34.0488,127.214 35.2155,128.714 36,130.5C 36.6667,135.167 36.6667,139.833 36,144.5C 35.0027,146.323 33.8361,147.99 32.5,149.5 Z"/></g>
</svg>
