<?xml version="1.0" encoding="UTF-8"?>
<!DOCTYPE svg PUBLIC "-//W3C//DTD SVG 1.1//EN" "http://www.w3.org/Graphics/SVG/1.1/DTD/svg11.dtd">
<svg xmlns="http://www.w3.org/2000/svg" version="1.1" width="184px" height="164px" style="shape-rendering:geometricPrecision; text-rendering:geometricPrecision; image-rendering:optimizeQuality; fill-rule:evenodd; clip-rule:evenodd" xmlns:xlink="http://www.w3.org/1999/xlink">
<g><path style="opacity:0.973" fill="#fefffe" d="M 52.5,-0.5 C 57.1667,-0.5 61.8333,-0.5 66.5,-0.5C 98.9585,6.29869 116.625,26.2987 119.5,59.5C 119.245,67.0305 117.912,74.3639 115.5,81.5C 119.763,87.1025 124.43,92.4359 129.5,97.5C 113.798,109.606 108.465,125.272 113.5,144.5C 112.998,145.521 112.332,145.688 111.5,145C 101.833,135.333 92.1667,125.667 82.5,116C 59.9705,122.829 39.3038,119.162 20.5,105C 9.463,95.0851 2.463,82.9184 -0.5,68.5C -0.5,62.5 -0.5,56.5 -0.5,50.5C 0.73077,47.3133 1.89744,43.98 3,40.5C 4.72609,39.4238 6.55942,39.2571 8.5,40C 20,51.5 31.5,63 43,74.5C 54.046,64.9547 64.2126,54.6213 73.5,43.5C 62.576,31.0733 51.076,19.0733 39,7.5C 38.2195,6.05629 38.3861,4.72296 39.5,3.5C 43.8321,1.71936 48.1654,0.386023 52.5,-0.5 Z"/></g>
<g><path style="opacity:0.934" fill="#83c314" d="M 183.5,130.5 C 183.5,131.833 183.5,133.167 183.5,134.5C 182.373,135.122 181.373,135.955 180.5,137C 172.841,137.5 165.174,137.666 157.5,137.5C 157.666,145.174 157.5,152.841 157,160.5C 155.955,161.373 155.122,162.373 154.5,163.5C 152.833,163.5 151.167,163.5 149.5,163.5C 149.217,162.711 148.717,162.044 148,161.5C 147.5,153.507 147.334,145.507 147.5,137.5C 139.833,137.5 132.167,137.5 124.5,137.5C 125.679,135.591 125.346,135.258 123.5,136.5C 120.855,133.783 120.855,130.95 123.5,128C 131.493,127.5 139.493,127.334 147.5,127.5C 147.334,119.493 147.5,111.493 148,103.5C 151.294,100.689 154.294,101.022 157,104.5C 157.5,112.159 157.666,119.826 157.5,127.5C 165.174,127.334 172.841,127.5 180.5,128C 181.373,129.045 182.373,129.878 183.5,130.5 Z"/></g>
<g><path style="opacity:0.665" fill="#84c315" d="M 124.5,137.5 C 123.833,137.5 123.5,137.167 123.5,136.5C 125.346,135.258 125.679,135.591 124.5,137.5 Z"/></g>
</svg>
