<?xml version="1.0" encoding="UTF-8"?>
<!DOCTYPE svg PUBLIC "-//W3C//DTD SVG 1.1//EN" "http://www.w3.org/Graphics/SVG/1.1/DTD/svg11.dtd">
<svg xmlns="http://www.w3.org/2000/svg" version="1.1" width="200px" height="181px" style="shape-rendering:geometricPrecision; text-rendering:geometricPrecision; image-rendering:optimizeQuality; fill-rule:evenodd; clip-rule:evenodd" xmlns:xlink="http://www.w3.org/1999/xlink">
<g><path style="opacity:0.951" fill="#fefefe" d="M 161.5,-0.5 C 162.5,-0.5 163.5,-0.5 164.5,-0.5C 153.304,20.0579 141.97,40.5579 130.5,61C 142.657,66.9113 154.657,73.078 166.5,79.5C 164.029,81.0706 161.363,82.0706 158.5,82.5C 156.833,82.5 155.167,82.5 153.5,82.5C 151.786,81.2616 149.786,80.595 147.5,80.5C 147.81,77.2869 147.477,74.2869 146.5,71.5C 144.661,70.2475 142.828,70.2475 141,71.5C 140.502,74.8168 140.335,78.1501 140.5,81.5C 116.851,84.4819 103.518,97.8152 100.5,121.5C 96.8936,121.211 93.3936,121.544 90,122.5C 89.3333,123.833 89.3333,125.167 90,126.5C 91.9483,127.109 93.7816,127.776 95.5,128.5C 91.7593,134.308 88.2593,140.308 85,146.5C 82.6667,150.5 80.3333,150.5 78,146.5C 73.1174,136.804 67.2841,127.804 60.5,119.5C 42.9208,127.36 25.2542,135.027 7.5,142.5C 6.31405,140.806 6.48071,139.139 8,137.5C 18.13,122.072 28.63,106.905 39.5,92C 30.2008,88.0083 20.8675,84.0083 11.5,80C 7.55317,78.5162 3.55317,77.3495 -0.5,76.5C -0.5,75.5 -0.5,74.5 -0.5,73.5C 13.8563,68.487 27.8563,62.487 41.5,55.5C 31.2849,38.7871 21.2849,21.9538 11.5,5C 11.8333,4.5 12.1667,4 12.5,3.5C 28.813,13.4685 45.1463,23.4685 61.5,33.5C 66.5984,22.7016 71.5984,11.8683 76.5,1C 77.635,0.250612 78.635,0.417278 79.5,1.5C 85.5042,11.4805 91.8375,21.1472 98.5,30.5C 119.438,19.864 140.438,9.53067 161.5,-0.5 Z"/></g>
<g><path style="opacity:1" fill="#e9b1ab" d="M 146.5,71.5 C 147.477,74.2869 147.81,77.2869 147.5,80.5C 149.786,80.595 151.786,81.2616 153.5,82.5C 151.139,82.3259 148.806,81.9926 146.5,81.5C 146.5,78.1667 146.5,74.8333 146.5,71.5 Z"/></g>
<g><path style="opacity:0.866" fill="#c63221" d="M 146.5,71.5 C 146.5,74.8333 146.5,78.1667 146.5,81.5C 148.806,81.9926 151.139,82.3259 153.5,82.5C 155.167,82.5 156.833,82.5 158.5,82.5C 172.291,88.439 181.457,98.1056 186,111.5C 186.696,114.478 187.196,117.478 187.5,120.5C 190.518,120.335 193.518,120.502 196.5,121C 197.691,121.698 198.691,122.531 199.5,123.5C 199.5,123.833 199.5,124.167 199.5,124.5C 198.814,125.848 197.814,127.015 196.5,128C 192.972,128.089 189.638,128.756 186.5,130C 184.591,146.299 175.924,157.966 160.5,165C 157.095,166.544 153.595,167.711 150,168.5C 149.586,168.043 149.086,167.709 148.5,167.5C 147.636,171.816 146.969,176.149 146.5,180.5C 146.167,180.5 145.833,180.5 145.5,180.5C 145.167,179.167 144.833,179.167 144.5,180.5C 143.833,180.5 143.167,180.5 142.5,180.5C 141.066,176.67 140.066,172.67 139.5,168.5C 117.413,165.02 104.08,152.02 99.5,129.5C 98.3112,128.571 96.9778,128.238 95.5,128.5C 93.7816,127.776 91.9483,127.109 90,126.5C 89.3333,125.167 89.3333,123.833 90,122.5C 93.3936,121.544 96.8936,121.211 100.5,121.5C 103.518,97.8152 116.851,84.4819 140.5,81.5C 140.335,78.1501 140.502,74.8168 141,71.5C 142.828,70.2475 144.661,70.2475 146.5,71.5 Z M 147.5,150.5 C 148.767,151.087 149.767,151.087 150.5,150.5C 141.499,132.663 133.165,114.496 125.5,96C 129.669,93.1061 134.336,91.2728 139.5,90.5C 140.166,94.6845 140.833,99.0178 141.5,103.5C 143.496,104.61 145.329,104.276 147,102.5C 147.499,97.8452 147.666,93.1785 147.5,88.5C 165.833,91.5 176.5,102.167 179.5,120.5C 174.821,120.334 170.155,120.501 165.5,121C 163.941,123.642 164.275,125.975 166.5,128C 170.821,128.499 175.154,128.666 179.5,128.5C 176.514,146.819 165.848,157.486 147.5,160.5C 147.5,157.167 147.5,153.833 147.5,150.5 Z M 112.5,128.5 C 113.5,128.5 114.5,128.5 115.5,128.5C 121.588,133.39 127.921,138.056 134.5,142.5C 136.739,143.788 139.072,144.788 141.5,145.5C 140.555,150.405 140.221,155.405 140.5,160.5C 121.957,157.624 110.957,146.957 107.5,128.5C 109.167,128.5 110.833,128.5 112.5,128.5 Z"/></g>
<g><path style="opacity:0.909" fill="#fefbfb" d="M 139.5,90.5 C 134.336,91.2728 129.669,93.1061 125.5,96C 133.165,114.496 141.499,132.663 150.5,150.5C 149.767,151.087 148.767,151.087 147.5,150.5C 146.661,149.359 145.994,148.026 145.5,146.5C 144.311,145.571 142.978,145.238 141.5,145.5C 139.072,144.788 136.739,143.788 134.5,142.5C 127.921,138.056 121.588,133.39 115.5,128.5C 117.167,127.833 118.833,127.167 120.5,126.5C 121.833,124.833 121.833,123.167 120.5,121.5C 116.366,120.515 112.032,120.182 107.5,120.5C 107.704,117.482 108.037,114.482 108.5,111.5C 113.372,100.132 121.705,92.2988 133.5,88C 135.902,87.1859 138.235,87.3526 140.5,88.5C 140.137,89.1835 139.804,89.8501 139.5,90.5 Z"/></g>
<g><path style="opacity:1" fill="#ebb6b0" d="M 108.5,111.5 C 108.037,114.482 107.704,117.482 107.5,120.5C 112.032,120.182 116.366,120.515 120.5,121.5C 115.833,121.5 111.167,121.5 106.5,121.5C 106.159,117.84 106.825,114.507 108.5,111.5 Z"/></g>
<g><path style="opacity:1" fill="#e18b81" d="M 120.5,126.5 C 118.833,127.167 117.167,127.833 115.5,128.5C 114.5,128.5 113.5,128.5 112.5,128.5C 114.78,126.777 117.447,126.111 120.5,126.5 Z"/></g>
<g><path style="opacity:0.004" fill="#fefffe" d="M 7.5,142.5 C 6.83333,143.167 6.83333,143.167 7.5,142.5 Z"/></g>
</svg>
