<?xml version="1.0" encoding="UTF-8"?>
<!DOCTYPE svg PUBLIC "-//W3C//DTD SVG 1.1//EN" "http://www.w3.org/Graphics/SVG/1.1/DTD/svg11.dtd">
<svg xmlns="http://www.w3.org/2000/svg" version="1.1" width="223px" height="224px" style="shape-rendering:geometricPrecision; text-rendering:geometricPrecision; image-rendering:optimizeQuality; fill-rule:evenodd; clip-rule:evenodd" xmlns:xlink="http://www.w3.org/1999/xlink">
<g><path style="opacity:0.847" fill="#fefffe" d="M 109.5,-0.5 C 110.5,-0.5 111.5,-0.5 112.5,-0.5C 113.836,1.01027 115.003,2.67694 116,4.5C 116.5,10.8246 116.666,17.1579 116.5,23.5C 164.38,30.415 191.714,57.7483 198.5,105.5C 203.844,105.334 209.177,105.501 214.5,106C 217.488,106.502 220.155,107.669 222.5,109.5C 222.5,110.833 222.5,112.167 222.5,113.5C 220.99,114.836 219.323,116.003 217.5,117C 211.175,117.5 204.842,117.666 198.5,117.5C 194.776,149.643 179.11,173.81 151.5,190C 140.358,195.202 128.691,198.368 116.5,199.5C 116.666,206.175 116.5,212.842 116,219.5C 114.624,220.705 113.458,222.038 112.5,223.5C 111.5,223.5 110.5,223.5 109.5,223.5C 108.269,222.282 107.102,220.949 106,219.5C 105.5,212.842 105.334,206.175 105.5,199.5C 66.1855,195.145 39.6855,174.478 26,137.5C 24.5089,130.879 23.3422,124.212 22.5,117.5C 16.4908,117.666 10.4908,117.499 4.5,117C 2.31305,115.975 0.646381,114.475 -0.5,112.5C -0.5,111.833 -0.5,111.167 -0.5,110.5C 1.08167,108.03 3.41501,106.53 6.5,106C 11.8229,105.501 17.1563,105.334 22.5,105.5C 30.0026,56.9927 57.6692,29.6593 105.5,23.5C 105.334,16.825 105.5,10.1583 106,3.5C 107.102,2.05104 108.269,0.717703 109.5,-0.5 Z M 102.5,34.5 C 103.5,34.5 104.5,34.5 105.5,34.5C 105.334,39.1785 105.501,43.8452 106,48.5C 108.838,52.0349 112.005,52.3682 115.5,49.5C 116.119,44.5177 116.786,39.5177 117.5,34.5C 157.167,41.5 180.5,64.8333 187.5,104.5C 182.841,105.37 178.175,106.203 173.5,107C 170.575,110.696 170.908,114.029 174.5,117C 178.871,117.172 183.204,117.672 187.5,118.5C 182.42,152.747 163.42,175.247 130.5,186C 125.882,187.158 121.216,187.992 116.5,188.5C 116.666,184.486 116.499,180.486 116,176.5C 113.098,171.936 109.765,171.603 106,175.5C 105.501,179.821 105.334,184.154 105.5,188.5C 71.4455,184.724 48.6121,166.724 37,134.5C 35.7671,129.168 34.6004,123.834 33.5,118.5C 37.7956,117.672 42.1289,117.172 46.5,117C 49.9355,113.94 50.2688,110.607 47.5,107C 42.8255,106.203 38.1588,105.37 33.5,104.5C 40.4755,65.1921 63.4755,41.8588 102.5,34.5 Z"/></g>
<g><path style="opacity:0.917" fill="#c63120" d="M 78.5,74.5 C 81.1795,74.6726 83.5128,75.6726 85.5,77.5C 94.1811,86.0142 102.681,94.6809 111,103.5C 120.014,94.6525 128.848,85.6525 137.5,76.5C 145.263,73.4201 148.43,76.0867 147,84.5C 137.93,93.6145 128.763,102.615 119.5,111.5C 128.264,120.719 137.264,129.719 146.5,138.5C 148.649,146.761 145.649,149.594 137.5,147C 128.667,138.167 119.833,129.333 111,120.5C 102.167,129.333 93.3333,138.167 84.5,147C 79.0252,149.431 75.3586,147.764 73.5,142C 82.7755,131.723 92.4422,121.723 102.5,112C 93.2183,102.596 84.0516,93.096 75,83.5C 73.4633,79.6256 74.6299,76.6256 78.5,74.5 Z"/></g>
</svg>
