<?xml version="1.0" encoding="UTF-8"?>
<!DOCTYPE svg PUBLIC "-//W3C//DTD SVG 1.1//EN" "http://www.w3.org/Graphics/SVG/1.1/DTD/svg11.dtd">
<svg xmlns="http://www.w3.org/2000/svg" version="1.1" width="180px" height="166px" style="shape-rendering:geometricPrecision; text-rendering:geometricPrecision; image-rendering:optimizeQuality; fill-rule:evenodd; clip-rule:evenodd" xmlns:xlink="http://www.w3.org/1999/xlink">
<g><path style="opacity:0.838" fill="#82c415" d="M 71.5,-0.5 C 72.8333,-0.5 74.1667,-0.5 75.5,-0.5C 76.0819,0.931107 76.9152,2.26444 78,3.5C 78.6667,22.5 78.6667,41.5 78,60.5C 73.5607,64.9456 70.2273,64.279 68,58.5C 67.3333,40.5 67.3333,22.5 68,4.5C 68.9973,2.67694 70.1639,1.01027 71.5,-0.5 Z"/></g>
<g><path style="opacity:0.914" fill="#82c415" d="M 113.5,133.5 C 114.812,134.145 115.812,135.145 116.5,136.5C 115.74,140.02 114.74,143.353 113.5,146.5C 77.1154,166.852 44.6154,161.852 16,131.5C 7.74739,120.333 2.24739,108 -0.5,94.5C -0.5,88.5 -0.5,82.5 -0.5,76.5C 4.11675,49.43 18.7834,29.93 43.5,18C 48.3441,15.2042 51.6774,16.3709 53.5,21.5C 53.2811,22.938 52.7811,24.2713 52,25.5C 19.1642,40.5029 5.83084,65.8362 12,101.5C 23.4524,134.321 46.6191,149.821 81.5,148C 93.623,146.1 104.29,141.267 113.5,133.5 Z"/></g>
<g><path style="opacity:0.91" fill="#82c415" d="M 145.5,100.5 C 142.687,95.4058 139.687,90.4058 136.5,85.5C 135.211,58.0686 122.211,38.5686 97.5,27C 93.0838,22.4991 93.9171,19.3324 100,17.5C 129.616,30.3685 145.116,53.0352 146.5,85.5C 146.277,90.5144 145.944,95.5144 145.5,100.5 Z"/></g>
<g><path style="opacity:0.956" fill="#fefefe" d="M 136.5,85.5 C 139.687,90.4058 142.687,95.4058 145.5,100.5C 146.754,104.176 148.421,107.676 150.5,111C 160.227,112.423 169.894,113.923 179.5,115.5C 179.5,115.833 179.5,116.167 179.5,116.5C 171.998,122.835 164.998,129.669 158.5,137C 160.33,146.478 161.996,155.978 163.5,165.5C 162.833,165.5 162.167,165.5 161.5,165.5C 153.759,160.297 145.592,155.63 137,151.5C 128.569,155.901 120.402,160.568 112.5,165.5C 111.833,165.5 111.167,165.5 110.5,165.5C 111.824,159.222 112.824,152.888 113.5,146.5C 114.74,143.353 115.74,140.02 116.5,136.5C 115.812,135.145 114.812,134.145 113.5,133.5C 106.731,127.735 100.731,121.402 95.5,114.5C 104.866,113.662 114.199,112.496 123.5,111C 127.959,102.583 132.292,94.0826 136.5,85.5 Z"/></g>
</svg>
