<?xml version="1.0" encoding="UTF-8"?>
<!DOCTYPE svg PUBLIC "-//W3C//DTD SVG 1.1//EN" "http://www.w3.org/Graphics/SVG/1.1/DTD/svg11.dtd">
<svg xmlns="http://www.w3.org/2000/svg" version="1.1" width="198px" height="194px" style="shape-rendering:geometricPrecision; text-rendering:geometricPrecision; image-rendering:optimizeQuality; fill-rule:evenodd; clip-rule:evenodd" xmlns:xlink="http://www.w3.org/1999/xlink">
<g><path style="opacity:0.919" fill="#fbfdfe" d="M 180.5,-0.5 C 185.167,-0.5 189.833,-0.5 194.5,-0.5C 195.167,0.833333 196.167,1.83333 197.5,2.5C 197.5,6.5 197.5,10.5 197.5,14.5C 193.617,45.3081 190.117,76.3081 187,107.5C 187.863,114.114 185.363,118.78 179.5,121.5C 178.205,120.902 176.872,120.402 175.5,120C 166.625,111.292 157.958,102.459 149.5,93.5C 131.863,109.803 114.53,126.469 97.5,143.5C 90.9565,116.956 74.2898,100.956 47.5,95.5C 65.6259,77.8745 83.6259,60.0411 101.5,42C 93.3874,33.8874 85.2208,25.7208 77,17.5C 74.7492,13.3336 75.5826,9.83358 79.5,7C 113.322,4.53375 146.989,2.03375 180.5,-0.5 Z"/></g>
<g><path style="opacity:1" fill="#22a1e8" d="M 171.5,6.5 C 177.833,6.5 184.167,6.5 190.5,6.5C 187.194,42.2251 183.361,77.8918 179,113.5C 170.167,104.667 161.333,95.8333 152.5,87C 150.5,86.3333 148.5,86.3333 146.5,87C 131.36,101.472 116.193,115.972 101,130.5C 93.2381,111.572 79.7381,98.572 60.5,91.5C 75.848,76.3182 91.348,61.3182 107,46.5C 107.402,45.1279 107.902,43.7946 108.5,42.5C 101.471,32.0064 93.138,22.5064 83.5,14C 87.0836,12.9266 90.7502,12.2599 94.5,12C 120.356,10.5693 146.023,8.73597 171.5,6.5 Z"/></g>
<g><path style="opacity:0.931" fill="#9ef3fc" d="M 51.5,46.5 C 59.84,46.3336 68.1733,46.5003 76.5,47C 77.5762,48.7261 77.7429,50.5594 77,52.5C 71.6468,57.3543 66.1468,62.0209 60.5,66.5C 58.8333,65.5 57.5,64.1667 56.5,62.5C 58.8388,59.4668 61.5055,56.6335 64.5,54C 53.0816,53.9011 41.415,54.5677 29.5,56C 35.4321,62.0901 40.7654,68.5901 45.5,75.5C 42.3851,80.4496 38.3851,84.6163 33.5,88C 29.1452,89.003 24.9786,90.503 21,92.5C 20.3333,91.8333 20.3333,91.1667 21,90.5C 26.0413,85.2907 31.208,80.2907 36.5,75.5C 30.853,68.6853 25.0196,62.0186 19,55.5C 17.5039,53.5497 17.3373,51.5497 18.5,49.5C 29.5908,48.0858 40.5908,47.0858 51.5,46.5 Z"/></g>
<g><path style="opacity:0.92" fill="#9ef3fc" d="M 139.5,117.5 C 143.027,119.058 144.36,121.891 143.5,126C 142.407,142.875 140.907,159.708 139,176.5C 137.867,178.211 136.367,178.711 134.5,178C 127.35,171.684 120.35,165.184 113.5,158.5C 110.167,161.5 106.833,164.5 103.5,167.5C 103.167,167.167 102.833,166.833 102.5,166.5C 103.645,163.252 104.479,159.919 105,156.5C 107.382,153.781 110.049,151.447 113,149.5C 114.49,150.317 115.99,151.15 117.5,152C 122.348,157.015 127.348,161.848 132.5,166.5C 134.125,154.871 134.959,143.204 135,131.5C 132.618,134.219 129.951,136.553 127,138.5C 123.928,137.553 122.928,135.553 124,132.5C 129.062,127.269 134.229,122.269 139.5,117.5 Z"/></g>
<g><path style="opacity:0.974" fill="#22a1e8" d="M 45.5,193.5 C 43.1667,193.5 40.8333,193.5 38.5,193.5C 35.8607,191.691 33.6941,189.358 32,186.5C 31.5003,178.173 31.3336,169.84 31.5,161.5C 23.16,161.666 14.8267,161.5 6.5,161C 3.37935,160.033 1.04602,158.2 -0.5,155.5C -0.5,152.833 -0.5,150.167 -0.5,147.5C 1.39512,144.443 4.06178,142.277 7.5,141C 15.4931,140.5 23.4931,140.334 31.5,140.5C 31.3336,132.16 31.5003,123.827 32,115.5C 35.3825,108.728 40.5492,106.895 47.5,110C 49.8936,111.952 51.3936,114.452 52,117.5C 52.4997,125.159 52.6664,132.826 52.5,140.5C 60.5069,140.334 68.5069,140.5 76.5,141C 83.7279,144.012 85.8945,149.179 83,156.5C 81.4571,158.378 79.6238,159.878 77.5,161C 69.1733,161.5 60.84,161.666 52.5,161.5C 52.9137,170.582 52.4137,179.582 51,188.5C 49.2703,190.402 47.437,192.069 45.5,193.5 Z"/></g>
<g><path style="opacity:1" fill="#9cf2fc" d="M 10.5,145.5 C 18.8333,145.5 27.1667,145.5 35.5,145.5C 35.5,147.167 35.5,148.833 35.5,150.5C 36.8333,150.5 38.1667,150.5 39.5,150.5C 39.5,147.833 39.5,145.167 39.5,142.5C 38.5,142.5 37.5,142.5 36.5,142.5C 36.5,134.833 36.5,127.167 36.5,119.5C 39.8774,115.522 43.3774,115.522 47,119.5C 47.4997,127.827 47.6664,136.16 47.5,144.5C 55.1739,144.334 62.8406,144.5 70.5,145C 77.1937,147.453 78.1937,151.453 73.5,157C 64.8397,157.5 56.1731,157.666 47.5,157.5C 47.6664,165.84 47.4997,174.173 47,182.5C 43.3797,186.487 39.713,186.487 36,182.5C 35.5003,174.173 35.3336,165.84 35.5,157.5C 27.16,157.666 18.8267,157.5 10.5,157C 6.51912,153.047 6.51912,149.214 10.5,145.5 Z"/></g>
<g><path style="opacity:1" fill="#88e4f9" d="M 36.5,119.5 C 36.5,127.167 36.5,134.833 36.5,142.5C 37.5,142.5 38.5,142.5 39.5,142.5C 39.5,145.167 39.5,147.833 39.5,150.5C 38.1667,150.5 36.8333,150.5 35.5,150.5C 35.5,148.833 35.5,147.167 35.5,145.5C 27.1667,145.5 18.8333,145.5 10.5,145.5C 18.6499,144.507 26.9832,144.174 35.5,144.5C 35.1739,135.983 35.5073,127.65 36.5,119.5 Z"/></g>
</svg>
