<?xml version="1.0" encoding="UTF-8"?>
<!DOCTYPE svg PUBLIC "-//W3C//DTD SVG 1.1//EN" "http://www.w3.org/Graphics/SVG/1.1/DTD/svg11.dtd">
<svg xmlns="http://www.w3.org/2000/svg" version="1.1" width="220px" height="228px" style="shape-rendering:geometricPrecision; text-rendering:geometricPrecision; image-rendering:optimizeQuality; fill-rule:evenodd; clip-rule:evenodd" xmlns:xlink="http://www.w3.org/1999/xlink">
<g><path style="opacity:0.953" fill="#9ef3fc" d="M 144.5,-0.5 C 145.5,-0.5 146.5,-0.5 147.5,-0.5C 147.308,2.60075 146.642,5.60075 145.5,8.5C 187.773,26.0924 212.439,57.4257 219.5,102.5C 219.5,109.5 219.5,116.5 219.5,123.5C 211.677,173.827 183.177,205.827 134,219.5C 129.251,219.414 127.585,217.08 129,212.5C 129.308,211.692 129.808,211.025 130.5,210.5C 173.898,198.701 199.732,170.701 208,126.5C 211.467,75.737 190.134,40.0704 144,19.5C 141.965,22.2489 140.298,25.2489 139,28.5C 132.792,21.9608 126.959,15.1275 121.5,8C 129.127,4.8489 136.794,2.01557 144.5,-0.5 Z"/></g>
<g><path style="opacity:0.952" fill="#9ef3fc" d="M 77.5,227.5 C 76.1667,227.5 74.8333,227.5 73.5,227.5C 74.1148,224.206 75.1148,221.039 76.5,218C 32.5859,201.263 6.91922,169.763 -0.5,123.5C -0.5,116.5 -0.5,109.5 -0.5,102.5C 7.64533,51.8481 36.4787,19.5148 86,5.5C 89.5,5.66667 91.3333,7.5 91.5,11C 91.5607,12.7106 90.8941,14.044 89.5,15C 51.2407,24.5357 26.074,48.0357 14,85.5C 3.52559,133.765 18.6923,171.599 59.5,199C 65.5027,202.252 71.6694,205.086 78,207.5C 79.3136,204.599 80.4803,201.599 81.5,198.5C 81.8333,198.667 82.1667,198.833 82.5,199C 88,205.167 93.5,211.333 99,217.5C 99.6172,218.449 99.4506,219.282 98.5,220C 91.2878,222.235 84.2878,224.735 77.5,227.5 Z"/></g>
<g><path style="opacity:0.842" fill="#fefffe" d="M 70.5,33.5 C 73.0014,33.8256 74.1681,35.1589 74,37.5C 35.0602,60.0636 20.7268,93.397 31,137.5C 38.1595,159.492 51.9929,175.826 72.5,186.5C 74.0021,188.833 73.5021,190.499 71,191.5C 39.2534,174.883 22.7534,148.549 21.5,112.5C 22.8931,76.6808 39.2264,50.3475 70.5,33.5 Z"/></g>
<g><path style="opacity:0.842" fill="#fefffe" d="M 147.5,34.5 C 150.016,34.7553 152.35,35.5886 154.5,37C 189.284,60.4276 202.784,92.9276 195,134.5C 188.054,160.745 172.387,179.745 148,191.5C 145.474,190.872 144.641,189.539 145.5,187.5C 180.941,166.949 195.774,136.282 190,95.5C 183.939,69.7822 169.273,50.7822 146,38.5C 145.7,36.9343 146.2,35.601 147.5,34.5 Z"/></g>
<g><path style="opacity:0.839" fill="#9ef3fc" d="M 135.5,51.5 C 139.182,51.3347 142.848,51.5014 146.5,52C 150.975,51.4894 153.142,53.3227 153,57.5C 149.366,63.9362 145.866,70.4362 142.5,77C 143.944,79.4485 145.778,81.6152 148,83.5C 154.546,80.4774 161.046,77.3107 167.5,74C 169.112,73.2797 170.612,73.4464 172,74.5C 176.163,95.0122 168.329,108.512 148.5,115C 143.581,115.802 138.748,115.635 134,114.5C 126.016,121.65 118.183,128.983 110.5,136.5C 109.853,164.992 95.5197,177.492 67.5,174C 66.4258,173.261 65.7591,172.261 65.5,171C 68.8655,164.436 72.3655,157.936 76,151.5C 75.7354,148.18 74.0688,145.513 71,143.5C 64.4542,146.523 57.9542,149.689 51.5,153C 48.162,154.206 46.3287,153.04 46,149.5C 43.8782,132.239 50.7116,120.072 66.5,113C 72.678,111.33 78.8447,111.164 85,112.5C 92.9841,105.35 100.817,98.0166 108.5,90.5C 107.861,70.5215 116.861,57.5215 135.5,51.5 Z"/></g>
<g><path style="opacity:1" fill="#53c0f1" d="M 166.5,80.5 C 166.56,79.9569 166.893,79.6236 167.5,79.5C 168.797,81.9732 168.797,84.3066 167.5,86.5C 167.795,84.2646 167.461,82.2646 166.5,80.5 Z"/></g>
<g><path style="opacity:1" fill="#22a1e8" d="M 166.5,80.5 C 167.461,82.2646 167.795,84.2646 167.5,86.5C 165.642,98.8615 158.642,106.695 146.5,110C 141.449,110.492 136.449,110.492 131.5,110C 122.333,118.5 113.167,127 104,135.5C 106.476,148.048 102.642,158.215 92.5,166C 89.4388,168.035 86.1055,169.201 82.5,169.5C 78.9581,169.813 75.6248,169.479 72.5,168.5C 75.3214,163.527 78.1547,158.527 81,153.5C 81.9913,151.553 82.3247,149.553 82,147.5C 78.6457,144.062 75.3123,140.728 72,137.5C 65.1054,140.697 58.272,144.031 51.5,147.5C 51.1667,146.333 50.8333,145.167 50.5,144C 51.0409,138.949 52.2076,134.116 54,129.5C 57.5079,125.659 61.3412,122.159 65.5,119C 73.452,116.767 81.452,115.767 89.5,116C 97.6966,107.469 106.197,99.3025 115,91.5C 112.358,73.9606 119.524,62.4606 136.5,57C 139.817,56.5017 143.15,56.335 146.5,56.5C 144.001,62.8112 140.834,68.8112 137,74.5C 136.333,76.1667 136.333,77.8333 137,79.5C 140.354,82.9383 143.688,86.2716 147,89.5C 153.161,85.8373 159.661,82.8373 166.5,80.5 Z"/></g>
<g><path style="opacity:1" fill="#62cbf1" d="M 72.5,168.5 C 75.6248,169.479 78.9581,169.813 82.5,169.5C 78.9813,170.808 75.3147,170.808 71.5,169.5C 71.6236,168.893 71.9569,168.56 72.5,168.5 Z"/></g>
</svg>
