<?xml version="1.0" encoding="UTF-8"?>
<!DOCTYPE svg PUBLIC "-//W3C//DTD SVG 1.1//EN" "http://www.w3.org/Graphics/SVG/1.1/DTD/svg11.dtd">
<svg xmlns="http://www.w3.org/2000/svg" version="1.1" width="136px" height="146px" style="shape-rendering:geometricPrecision; text-rendering:geometricPrecision; image-rendering:optimizeQuality; fill-rule:evenodd; clip-rule:evenodd" xmlns:xlink="http://www.w3.org/1999/xlink">
<g><path style="opacity:0.925" fill="#2aace9" d="M 64.5,-0.5 C 66.1667,-0.5 67.8333,-0.5 69.5,-0.5C 69.7828,0.28913 70.2828,0.955796 71,1.5C 71.6667,19.5 71.6667,37.5 71,55.5C 67.8442,58.3988 65.1775,58.0655 63,54.5C 62.3333,37.1667 62.3333,19.8333 63,2.5C 63.5133,1.47344 64.0133,0.473444 64.5,-0.5 Z"/></g>
<g><path style="opacity:0.909" fill="#2babe9" d="M 135.5,70.5 C 135.5,75.8333 135.5,81.1667 135.5,86.5C 128.441,118.32 109.108,137.987 77.5,145.5C 70.5,145.5 63.5,145.5 56.5,145.5C 24.9626,137.962 5.96262,118.296 -0.5,86.5C -0.5,80.5 -0.5,74.5 -0.5,68.5C 4.66249,43.3639 18.9958,25.5306 42.5,15C 48.2451,14.7365 50.0784,17.2365 48,22.5C 19.3391,35.1416 6.6724,57.1416 10,88.5C 17.7514,118.079 36.9181,134.079 67.5,136.5C 96.5151,134.247 115.348,119.247 124,91.5C 128.632,59.7629 116.632,36.7629 88,22.5C 86.8333,17 89,14.8333 94.5,16C 117.269,27.3922 130.936,45.5589 135.5,70.5 Z"/></g>
</svg>
