<?xml version="1.0" encoding="UTF-8"?>
<!DOCTYPE svg PUBLIC "-//W3C//DTD SVG 1.1//EN" "http://www.w3.org/Graphics/SVG/1.1/DTD/svg11.dtd">
<svg xmlns="http://www.w3.org/2000/svg" version="1.1" width="178px" height="194px" style="shape-rendering:geometricPrecision; text-rendering:geometricPrecision; image-rendering:optimizeQuality; fill-rule:evenodd; clip-rule:evenodd" xmlns:xlink="http://www.w3.org/1999/xlink">
<g><path style="opacity:0.941" fill="#9ef3fc" d="M 117.5,-0.5 C 118.167,-0.5 118.833,-0.5 119.5,-0.5C 119.149,2.23769 118.482,4.90436 117.5,7.5C 150.61,22.0743 170.61,47.0743 177.5,82.5C 177.5,91.5 177.5,100.5 177.5,109.5C 171.077,142.749 152.744,166.916 122.5,182C 117.857,184.103 113.024,185.603 108,186.5C 103.918,185.841 102.584,183.508 104,179.5C 151.383,162.424 172.05,128.758 166,78.5C 159.586,48.9588 142.419,28.6255 114.5,17.5C 114.567,19.4008 114.233,21.2341 113.5,23C 113.15,24.2575 112.483,24.5908 111.5,24C 106.595,18.9309 102.262,13.4309 98.5,7.5C 104.737,4.42657 111.07,1.7599 117.5,-0.5 Z"/></g>
<g><path style="opacity:0.942" fill="#9ef3fc" d="M 62.5,193.5 C 61.5,193.5 60.5,193.5 59.5,193.5C 59.8511,190.762 60.5178,188.096 61.5,185.5C 27.2608,170.653 6.59417,144.986 -0.5,108.5C -0.5,100.167 -0.5,91.8333 -0.5,83.5C 7.34452,43.1574 30.8445,16.8241 70,4.5C 74.251,6.12056 75.4177,8.9539 73.5,13C 28.6018,27.9428 7.43511,59.1095 10,106.5C 14.9124,139.399 32.579,162.399 63,175.5C 64.1316,173.661 64.9649,171.661 65.5,169.5C 66.0016,168.479 66.6683,168.312 67.5,169C 71.6667,173.833 75.8333,178.667 80,183.5C 80.7494,184.635 80.5827,185.635 79.5,186.5C 73.4909,188.273 67.8242,190.607 62.5,193.5 Z"/></g>
<g><path style="opacity:0.971" fill="#fefffe" d="M 78.5,47.5 C 95.5033,47.3334 112.503,47.5001 129.5,48C 129.87,87.9292 115.203,121.263 85.5,148C 79.5091,152.664 73.1758,156.83 66.5,160.5C 57.0906,146.026 48.4239,131.026 40.5,115.5C 52.2074,107.625 61.7074,97.6252 69,85.5C 74.2659,73.3307 77.4326,60.664 78.5,47.5 Z"/></g>
<g><path style="opacity:0.732" fill="#fefffe" d="M 123.5,124.5 C 128.5,124.5 133.5,124.5 138.5,124.5C 138.5,125.833 138.5,127.167 138.5,128.5C 133.489,128.334 128.489,128.501 123.5,129C 122.167,131.667 122.167,134.333 123.5,137C 127.833,137.333 132.167,137.667 136.5,138C 138.923,139.64 139.923,141.973 139.5,145C 139.853,148.2 138.853,150.867 136.5,153C 130.509,153.499 124.509,153.666 118.5,153.5C 118.33,152.178 118.663,151.011 119.5,150C 124.75,149.807 129.917,149.307 135,148.5C 135.769,145.901 135.602,143.401 134.5,141C 130.167,140.667 125.833,140.333 121.5,140C 118.572,136.743 117.738,132.909 119,128.5C 119.907,126.391 121.407,125.058 123.5,124.5 Z"/></g>
</svg>
