<?xml version="1.0" encoding="UTF-8" standalone="no"?>
<svg
   version="1.1"
   viewBox="0 0 186 124"
   id="svg26"
   sodipodi:docname="ally_in_zone.svg"
   inkscape:version="1.2.2 (b0a8486541, 2022-12-01)"
   xmlns:inkscape="http://www.inkscape.org/namespaces/inkscape"
   xmlns:sodipodi="http://sodipodi.sourceforge.net/DTD/sodipodi-0.dtd"
   xmlns="http://www.w3.org/2000/svg"
   xmlns:svg="http://www.w3.org/2000/svg">
  <defs
     id="defs30" />
  <sodipodi:namedview
     id="namedview28"
     pagecolor="#505050"
     bordercolor="#eeeeee"
     borderopacity="1"
     inkscape:showpageshadow="0"
     inkscape:pageopacity="0"
     inkscape:pagecheckerboard="0"
     inkscape:deskcolor="#505050"
     showgrid="false"
     inkscape:zoom="9.8804635"
     inkscape:cx="89.368277"
     inkscape:cy="38.358524"
     inkscape:window-width="3840"
     inkscape:window-height="2128"
     inkscape:window-x="0"
     inkscape:window-y="32"
     inkscape:window-maximized="1"
     inkscape:current-layer="svg26" />
  <path
     fill="#ffffff"
     fill-opacity="0.11"
     d="m 167.67626,36.183909 c 0.22,0.19 2.80249,1.685768 2.9325,1.955769 -2.62462,2.73425 -2.95989,3.329279 -6.79511,7.242858 -24.15767,23.262185 -28.26417,28.270443 -70.520412,70.338604 -3.952088,2.97213 1.363762,2.39417 -3.204903,-0.0116 C 41.011476,66.840077 34.223905,60.278348 12.855222,38.960621 c -0.27,-0.27 -0.34,-0.58 -0.22,-0.94 l 0.139713,-1.561474 c 1.500007,-0.98035 2.992062,-2.051285 4.658612,-2.861164 44.741259,-21.742507 98.613413,-27.62777 150.242713,2.585926 z"
     id="path14-6"
     sodipodi:nodetypes="ccccccccsc" />
  <path
     fill="#ffffff"
     d="m 98.673003,50.772433 c 0.46,3.01 0.352586,6.022432 -0.07741,9.032432 -0.06242,-0.0055 -0.220431,-0.02571 -0.282844,-0.03105 C 88.076734,58.899151 77.969213,59.654545 68,62.04 l -0.75,0.17 c -6.93,1.57 -13.59,3.91 -19.98,7 -0.212904,0.102298 -0.259193,0.385176 -0.09,0.55 13.98,14.06 27.98,28.08 41.99,42.07 1.13,1.13 2.28,2.04 3.44,2.71 0.54896,0.31765 1.244581,0.22762 1.7,-0.22 L 138.2,70.48 c 0.22,-0.22 0.19,-0.39 -0.1,-0.52 l -8.17397,-3.426213 -0.99665,-0.22959 c -0.73,-2.99 -0.27788,-5.916838 0.32212,-8.946838 0.20174,0.06264 0.70149,0.198487 0.90226,0.262274 5.0239,1.596186 9.74339,3.552975 14.17624,5.870367 0.32135,0.167112 0.70998,0.110436 0.96,-0.14 10.68,-10.71 21.46,-21.4 32.33,-32.05 3.35,-3.29 5.31,-0.87 7.62,1.65 0.23,0.26 0.34,0.56 0.33,0.9 -0.04,0.99 -0.46,1.89 -1.27,2.7 -27.47,27.53 -54.98,55.02 -82.51,82.49 -5.75,5.73 -11.48,5.77 -17.19,0.12 C 57.55,92.34 30.56,65.45 3.65,38.5 2.62,37.47 1.75,36.03 0.36,34.99 0.03,34.74 -0.04,34.44 0.15,34.07 c 1.25,-2.41 4.55,-6 7.36,-3.32 11.01,10.44 21.84,21.08 32.48,31.91 0.22,0.23 0.47,0.27 0.76,0.12 18.05117,-9.210188 37.237452,-13.222761 57.578716,-12.03772 0.04376,0.0025 0.30052,0.02755 0.344287,0.03015 z"
     id="path12"
     sodipodi:nodetypes="ccsccccccccccccsccccccccccccccsc" />
  <g
     fill="#2aace9"
     id="g18">
    <path
       d="   M 73.54 16.75   L 73.34 31.64   L 43.27 31.29   C 42.90 31.28 42.71 31.09 42.71 30.72   L 42.76 1.12   C 42.76 0.71 42.97 0.50 43.38 0.50   L 72.99 0.50   C 73.32 0.50 73.49 0.67 73.49 1.00   L 73.54 16.75   Z"
       id="path14" />
    <path
       d="m 129.38179,53.825736 -0.2,14.89 -30.070004,-0.35 c -0.37,-0.01 -0.56,-0.2 -0.56,-0.57 l 0.05,-29.600001 c 0,-0.41 0.21,-0.62 0.62,-0.62 h 29.610004 c 0.33,0 0.5,0.17 0.5,0.5 z"
       id="path14-3" />
  </g>
</svg>
