<?xml version="1.0" encoding="UTF-8"?>
<!DOCTYPE svg PUBLIC "-//W3C//DTD SVG 1.1//EN" "http://www.w3.org/Graphics/SVG/1.1/DTD/svg11.dtd">
<svg xmlns="http://www.w3.org/2000/svg" version="1.1" width="208px" height="68px" style="shape-rendering:geometricPrecision; text-rendering:geometricPrecision; image-rendering:optimizeQuality; fill-rule:evenodd; clip-rule:evenodd" xmlns:xlink="http://www.w3.org/1999/xlink">
<g><path style="opacity:0.884" fill="#fefffe" d="M 104.5,-0.5 C 109.833,-0.5 115.167,-0.5 120.5,-0.5C 121.833,22.1667 121.833,44.8333 120.5,67.5C 115.167,67.5 109.833,67.5 104.5,67.5C 104.5,44.8333 104.5,22.1667 104.5,-0.5 Z"/></g>
<g><path style="opacity:0.967" fill="#fefffe" d="M 125.5,-0.5 C 142.167,-0.5 158.833,-0.5 175.5,-0.5C 192.714,3.04725 203.381,13.3806 207.5,30.5C 207.5,32.8333 207.5,35.1667 207.5,37.5C 203.192,53.1412 193.192,63.1412 177.5,67.5C 160.167,67.5 142.833,67.5 125.5,67.5C 125.5,44.8333 125.5,22.1667 125.5,-0.5 Z"/></g>
<g><path style="opacity:0.904" fill="#fefffe" d="M -0.5,9.5 C -0.5,8.16667 -0.5,6.83333 -0.5,5.5C 0.922058,5.25038 1.92206,4.41704 2.5,3C 32.1667,2.33333 61.8333,2.33333 91.5,3C 94.3112,6.29352 93.9779,9.29352 90.5,12C 61.8333,12.6667 33.1667,12.6667 4.5,12C 2.92209,10.9055 1.25542,10.0722 -0.5,9.5 Z"/></g>
<g><path style="opacity:0.898" fill="#fefffe" d="M 48.5,26.5 C 62.504,26.3334 76.504,26.5001 90.5,27C 93.9779,29.7065 94.3112,32.7065 91.5,36C 76.8333,36.6667 62.1667,36.6667 47.5,36C 44.0166,32.5635 44.3499,29.3968 48.5,26.5 Z"/></g>
<g><path style="opacity:0.877" fill="#fefffe" d="M 18.5,54.5 C 31.8375,54.3334 45.1708,54.5001 58.5,55C 62.8717,56.8711 63.8717,59.7044 61.5,63.5C 46.5111,64.6662 31.5111,64.8328 16.5,64C 13.5227,60.0526 14.1894,56.8859 18.5,54.5 Z"/></g>
</svg>
