<?xml version="1.0" encoding="UTF-8"?>
<!DOCTYPE svg PUBLIC "-//W3C//DTD SVG 1.1//EN" "http://www.w3.org/Graphics/SVG/1.1/DTD/svg11.dtd">
<svg xmlns="http://www.w3.org/2000/svg" version="1.1" width="214px" height="183px" style="shape-rendering:geometricPrecision; text-rendering:geometricPrecision; image-rendering:optimizeQuality; fill-rule:evenodd; clip-rule:evenodd" xmlns:xlink="http://www.w3.org/1999/xlink">
<g><path style="opacity:0.778" fill="#fefffe" d="M 155.5,-0.5 C 157.167,-0.5 158.833,-0.5 160.5,-0.5C 162.254,3.25759 162.921,7.25759 162.5,11.5C 179.192,13.7807 190.858,22.2807 197.5,37C 200.139,41.3698 201.639,45.8698 202,50.5C 205.791,51.2745 209.624,51.9412 213.5,52.5C 213.5,53.8333 213.5,55.1667 213.5,56.5C 209.967,58.9551 205.967,60.1217 201.5,60C 198.148,82.1838 185.148,95.0172 162.5,98.5C 162.665,101.85 162.498,105.183 162,108.5C 159.577,110.994 157.244,110.994 155,108.5C 154.788,105.242 154.288,102.076 153.5,99C 130.562,95.0615 117.395,81.5615 114,58.5C 110.507,59.9542 107.174,59.6208 104,57.5C 103.349,55.765 103.515,54.0983 104.5,52.5C 107.768,51.513 111.102,51.1796 114.5,51.5C 117.334,31.5003 128.334,18.3337 147.5,12C 149.81,11.5034 152.143,11.3367 154.5,11.5C 154.395,7.4517 154.728,3.4517 155.5,-0.5 Z M 153.5,18.5 C 154.326,22.9819 154.826,27.6486 155,32.5C 156.793,34.8056 158.96,35.1389 161.5,33.5C 162.493,28.8804 162.827,24.2137 162.5,19.5C 180.974,22.3068 191.307,32.9734 193.5,51.5C 188.786,51.1734 184.12,51.5067 179.5,52.5C 178.04,55.2884 178.707,57.4551 181.5,59C 185.486,59.4988 189.486,59.6655 193.5,59.5C 190.812,76.8595 180.812,87.5262 163.5,91.5C 162.672,86.8685 162.172,82.2018 162,77.5C 159.061,74.4906 156.728,74.824 155,78.5C 154.501,82.8206 154.334,87.1539 154.5,91.5C 142.668,90.0072 133.501,84.3405 127,74.5C 124.395,69.8505 122.895,64.8505 122.5,59.5C 127.267,59.8092 131.934,59.3092 136.5,58C 137.833,56 137.833,54 136.5,52C 131.845,51.5008 127.179,51.3342 122.5,51.5C 123.575,38.8417 129.575,29.3417 140.5,23C 144.98,21.5638 149.313,20.0638 153.5,18.5 Z"/></g>
<g><path style="opacity:0.866" fill="#fefffe" d="M 98.5,182.5 C 94.5,182.5 90.5,182.5 86.5,182.5C 85.5135,163.91 85.1802,145.243 85.5,126.5C 90.1667,126.5 94.8333,126.5 99.5,126.5C 99.8198,145.243 99.4865,163.91 98.5,182.5 Z"/></g>
<g><path style="opacity:0.948" fill="#fefffe" d="M 143.5,182.5 C 130.167,182.5 116.833,182.5 103.5,182.5C 102.514,163.91 102.18,145.243 102.5,126.5C 117.504,126.333 132.504,126.5 147.5,127C 166.08,133.696 172.246,146.529 166,165.5C 160.911,174.43 153.411,180.097 143.5,182.5 Z"/></g>
<g><path style="opacity:0.822" fill="#fefffe" d="M -0.5,133.5 C -0.5,132.833 -0.5,132.167 -0.5,131.5C 0.363622,130.312 1.36362,129.145 2.5,128C 26.8333,127.333 51.1667,127.333 75.5,128C 78.9062,130.241 79.4062,133.075 77,136.5C 75.9326,137.191 74.7659,137.691 73.5,138C 50.5,138.667 27.5,138.667 4.5,138C 2.31305,136.975 0.646381,135.475 -0.5,133.5 Z"/></g>
<g><path style="opacity:0.811" fill="#fefffe" d="M 38.5,147.5 C 50.8378,147.333 63.1712,147.5 75.5,148C 79.3509,151.669 79.0175,155.002 74.5,158C 63.1667,158.667 51.8333,158.667 40.5,158C 35.0306,155.273 34.3639,151.773 38.5,147.5 Z"/></g>
<g><path style="opacity:0.804" fill="#fefffe" d="M 13.5,170.5 C 25.8378,170.333 38.1712,170.5 50.5,171C 54.3735,174.489 54.0401,177.822 49.5,181C 37.8333,181.667 26.1667,181.667 14.5,181C 11.1291,177.653 10.7957,174.153 13.5,170.5 Z"/></g>
</svg>
