<?xml version="1.0" encoding="UTF-8"?>
<!DOCTYPE svg PUBLIC "-//W3C//DTD SVG 1.1//EN" "http://www.w3.org/Graphics/SVG/1.1/DTD/svg11.dtd">
<svg xmlns="http://www.w3.org/2000/svg" version="1.1" width="210px" height="146px" style="shape-rendering:geometricPrecision; text-rendering:geometricPrecision; image-rendering:optimizeQuality; fill-rule:evenodd; clip-rule:evenodd" xmlns:xlink="http://www.w3.org/1999/xlink">
<g><path style="opacity:0.951" fill="#fefffe" d="M 174.5,-0.5 C 175.167,-0.5 175.833,-0.5 176.5,-0.5C 187.172,10.1717 198.172,20.505 209.5,30.5C 209.5,31.5 209.5,32.5 209.5,33.5C 203.894,34.4069 198.227,34.7402 192.5,34.5C 192.667,49.1705 192.5,63.8371 192,78.5C 181.243,79.6529 170.41,79.8196 159.5,79C 159,78.5 158.5,78 158,77.5C 157.5,63.1705 157.333,48.8372 157.5,34.5C 152.489,34.6659 147.489,34.4993 142.5,34C 141.446,32.6124 141.28,31.1124 142,29.5C 153.33,20.0018 164.163,10.0018 174.5,-0.5 Z"/></g>
<g><path style="opacity:0.937" fill="#fefffe" d="M 98.5,145.5 C 94.1667,145.5 89.8333,145.5 85.5,145.5C 85.5,126.833 85.5,108.167 85.5,89.5C 89.8333,89.5 94.1667,89.5 98.5,89.5C 98.5324,108.375 98.5324,127.042 98.5,145.5 Z"/></g>
<g><path style="opacity:0.967" fill="#fefffe" d="M 144.5,145.5 C 130.5,145.5 116.5,145.5 102.5,145.5C 102.333,127.164 102.5,108.83 103,90.5C 115.758,89.3449 128.591,89.1783 141.5,90C 158.031,91.6986 167.031,100.865 168.5,117.5C 167.635,127.071 163.301,134.571 155.5,140C 151.741,141.879 148.075,143.713 144.5,145.5 Z"/></g>
<g><path style="opacity:0.844" fill="#fefffe" d="M -0.5,98.5 C -0.5,96.8333 -0.5,95.1667 -0.5,93.5C 0.682751,92.4955 2.01608,91.6622 3.5,91C 26.8333,90.3333 50.1667,90.3333 73.5,91C 78.8333,94.3333 78.8333,97.6667 73.5,101C 50.5,101.667 27.5,101.667 4.5,101C 2.54826,100.634 0.88159,99.8005 -0.5,98.5 Z"/></g>
<g><path style="opacity:0.844" fill="#fefffe" d="M 39.5,110.5 C 50.8382,110.333 62.1716,110.5 73.5,111C 78.7007,114.24 78.7007,117.574 73.5,121C 62.1667,121.667 50.8333,121.667 39.5,121C 34.5597,117.46 34.5597,113.96 39.5,110.5 Z"/></g>
<g><path style="opacity:0.827" fill="#fefffe" d="M 14.5,133.5 C 26.1714,133.333 37.8381,133.5 49.5,134C 53.7287,137.843 53.3954,141.177 48.5,144C 37.8333,144.667 27.1667,144.667 16.5,144C 10.643,141.547 9.97631,138.047 14.5,133.5 Z"/></g>
</svg>
