<?xml version="1.0" encoding="UTF-8"?>
<!DOCTYPE svg PUBLIC "-//W3C//DTD SVG 1.1//EN" "http://www.w3.org/Graphics/SVG/1.1/DTD/svg11.dtd">
<svg xmlns="http://www.w3.org/2000/svg" version="1.1" width="150px" height="200px" style="shape-rendering:geometricPrecision; text-rendering:geometricPrecision; image-rendering:optimizeQuality; fill-rule:evenodd; clip-rule:evenodd" xmlns:xlink="http://www.w3.org/1999/xlink">
<g><path style="opacity:0.922" fill="#fefffe" d="M 132.5,-0.5 C 133.833,-0.5 135.167,-0.5 136.5,-0.5C 140.274,1.30426 143.441,3.97093 146,7.5C 147.426,12.7566 146.259,17.2566 142.5,21C 107.759,41.2113 72.759,61.2113 37.5,81C 72.6329,102.635 107.633,124.469 142.5,146.5C 148.286,153.429 147.619,159.762 140.5,165.5C 137.227,166.585 133.894,166.752 130.5,166C 89.899,140.692 49.2323,115.359 8.5,90C 1.54681,82.995 1.88014,76.3284 9.5,70C 51.0171,46.9233 92.0171,23.4233 132.5,-0.5 Z"/></g>
<g><path style="opacity:0.902" fill="#fefffe" d="M 149.5,185.5 C 149.5,187.167 149.5,188.833 149.5,190.5C 147.549,193.786 145.215,196.786 142.5,199.5C 97.5,199.5 52.5,199.5 7.5,199.5C 4.09299,197.097 1.42632,194.097 -0.5,190.5C -0.5,188.833 -0.5,187.167 -0.5,185.5C 0.95803,181.88 3.6247,179.38 7.5,178C 52.1667,177.333 96.8333,177.333 141.5,178C 145.021,179.69 147.688,182.19 149.5,185.5 Z"/></g>
</svg>
