<?xml version="1.0" encoding="UTF-8"?>
<!DOCTYPE svg PUBLIC "-//W3C//DTD SVG 1.1//EN" "http://www.w3.org/Graphics/SVG/1.1/DTD/svg11.dtd">
<svg xmlns="http://www.w3.org/2000/svg" version="1.1" width="167px" height="165px" style="shape-rendering:geometricPrecision; text-rendering:geometricPrecision; image-rendering:optimizeQuality; fill-rule:evenodd; clip-rule:evenodd" xmlns:xlink="http://www.w3.org/1999/xlink">
<g><path style="opacity:0.886" fill="#fefffe" d="M 155.5,-0.5 C 156.167,-0.5 156.833,-0.5 157.5,-0.5C 160.74,1.39221 163.74,3.72554 166.5,6.5C 166.5,8.5 166.5,10.5 166.5,12.5C 154.874,23.6281 143.54,34.7948 132.5,46C 134.066,46.6082 135.4,47.4415 136.5,48.5C 134.287,49.6053 132.12,49.6053 130,48.5C 90.7119,87.2871 51.2119,125.954 11.5,164.5C 9.5,164.5 7.5,164.5 5.5,164.5C 3.16667,162.833 1.16667,160.833 -0.5,158.5C -0.5,156.167 -0.5,153.833 -0.5,151.5C 33.5256,117.643 67.859,83.8098 102.5,50C 100.782,49.654 99.1151,49.154 97.5,48.5C 94.3489,51.1504 91.3489,53.9838 88.5,57C 62.8333,57.6667 37.1667,57.6667 11.5,57C 5.51279,54.8599 3.34612,50.6932 5,44.5C 6.5,43 8,41.5 9.5,40C 41.1057,38.3558 72.7724,38.0224 104.5,39C 104.677,42.2269 103.01,44.5602 99.5,46C 101.833,46.6667 104.167,46.6667 106.5,46C 122.729,30.268 139.062,14.768 155.5,-0.5 Z"/></g>
<g><path style="opacity:0.811" fill="#fefffe" d="M 136.5,48.5 C 139.964,45.5375 143.297,42.3709 146.5,39C 151.488,38.6379 154.988,40.8045 157,45.5C 157.682,49.0691 157.182,52.4024 155.5,55.5C 146.986,57.3358 138.32,58.0025 129.5,57.5C 131.378,54.2711 133.712,51.2711 136.5,48.5 Z"/></g>
<g><path style="opacity:0.831" fill="#fefffe" d="M 10.5,107.5 C 18.8333,107.5 27.1667,107.5 35.5,107.5C 30.2231,114.777 23.8898,121.11 16.5,126.5C 8.16656,126.006 4.33323,121.673 5,113.5C 6.35968,110.977 8.19301,108.977 10.5,107.5 Z"/></g>
<g><path style="opacity:0.862" fill="#fefffe" d="M 76.5,107.5 C 101.502,107.333 126.502,107.5 151.5,108C 157.659,111.417 158.992,116.25 155.5,122.5C 153.972,123.861 152.305,125.028 150.5,126C 121.167,126.667 91.8333,126.667 62.5,126C 61.376,125.751 60.376,125.251 59.5,124.5C 64.8814,118.452 70.5481,112.785 76.5,107.5 Z"/></g>
</svg>
