<?xml version="1.0" encoding="UTF-8"?>
<!DOCTYPE svg PUBLIC "-//W3C//DTD SVG 1.1//EN" "http://www.w3.org/Graphics/SVG/1.1/DTD/svg11.dtd">
<svg xmlns="http://www.w3.org/2000/svg" version="1.1" width="154px" height="86px" style="shape-rendering:geometricPrecision; text-rendering:geometricPrecision; image-rendering:optimizeQuality; fill-rule:evenodd; clip-rule:evenodd" xmlns:xlink="http://www.w3.org/1999/xlink">
<g><path style="opacity:0.923" fill="#fefffe" d="M 5.5,-0.5 C 52.8333,-0.5 100.167,-0.5 147.5,-0.5C 149.833,1.16667 151.833,3.16667 153.5,5.5C 153.5,7.5 153.5,9.5 153.5,11.5C 151.75,12.7417 150.083,14.2417 148.5,16C 147.167,16.3333 145.833,16.6667 144.5,17C 99.1667,17.6667 53.8333,17.6667 8.5,17C 7.16667,16.6667 5.83333,16.3333 4.5,16C 2.91679,14.2417 1.25013,12.7417 -0.5,11.5C -0.5,9.16667 -0.5,6.83333 -0.5,4.5C 1.48073,2.85639 3.48073,1.18973 5.5,-0.5 Z"/></g>
<g><path style="opacity:0.924" fill="#fefffe" d="M 153.5,73.5 C 153.5,75.5 153.5,77.5 153.5,79.5C 151.833,81.8333 149.833,83.8333 147.5,85.5C 100.167,85.5 52.8333,85.5 5.5,85.5C 3.16667,83.8333 1.16667,81.8333 -0.5,79.5C -0.5,77.5 -0.5,75.5 -0.5,73.5C 1.25013,72.2583 2.91679,70.7583 4.5,69C 5.83333,68.6667 7.16667,68.3333 8.5,68C 53.8333,67.3333 99.1667,67.3333 144.5,68C 145.833,68.3333 147.167,68.6667 148.5,69C 150.083,70.7583 151.75,72.2583 153.5,73.5 Z"/></g>
</svg>
