<?xml version="1.0" encoding="UTF-8"?>
<!DOCTYPE svg PUBLIC "-//W3C//DTD SVG 1.1//EN" "http://www.w3.org/Graphics/SVG/1.1/DTD/svg11.dtd">
<svg xmlns="http://www.w3.org/2000/svg" version="1.1" width="144px" height="166px" style="shape-rendering:geometricPrecision; text-rendering:geometricPrecision; image-rendering:optimizeQuality; fill-rule:evenodd; clip-rule:evenodd" xmlns:xlink="http://www.w3.org/1999/xlink">
<g><path style="opacity:0.957" fill="#fefffe" d="M 8.5,-0.5 C 10.5,-0.5 12.5,-0.5 14.5,-0.5C 55.1001,25.4759 96.1001,50.9759 137.5,76C 139.416,78.09 141.416,79.9233 143.5,81.5C 143.5,84.1667 143.5,86.8333 143.5,89.5C 141.5,91.9716 139.167,94.1383 136.5,96C 95.6081,118.941 54.9414,142.108 14.5,165.5C 12.5,165.5 10.5,165.5 8.5,165.5C 5.19508,163.525 2.19508,161.191 -0.5,158.5C -0.5,155.833 -0.5,153.167 -0.5,150.5C 2.02855,146.811 5.36188,143.978 9.5,142C 43.1587,123.506 76.492,104.506 109.5,85C 75.5,64 41.5,43 7.5,22C 4.30777,19.9718 1.64111,17.4718 -0.5,14.5C -0.5,11.8333 -0.5,9.16667 -0.5,6.5C 2.19508,3.80854 5.19508,1.47521 8.5,-0.5 Z"/></g>
</svg>
