<?xml version="1.0" encoding="UTF-8"?>
<!DOCTYPE svg PUBLIC "-//W3C//DTD SVG 1.1//EN" "http://www.w3.org/Graphics/SVG/1.1/DTD/svg11.dtd">
<svg xmlns="http://www.w3.org/2000/svg" version="1.1" width="169px" height="192px" style="shape-rendering:geometricPrecision; text-rendering:geometricPrecision; image-rendering:optimizeQuality; fill-rule:evenodd; clip-rule:evenodd" xmlns:xlink="http://www.w3.org/1999/xlink">
<g><path style="opacity:0.913" fill="#fefffe" d="M 155.5,-0.5 C 157.833,-0.5 160.167,-0.5 162.5,-0.5C 164.737,1.64712 166.737,3.98045 168.5,6.5C 168.5,8.5 168.5,10.5 168.5,12.5C 118.193,62.9703 67.1931,113.137 15.5,163C 7.92163,166.037 2.5883,163.871 -0.5,156.5C -0.5,155.167 -0.5,153.833 -0.5,152.5C 21.1922,130.307 43.1922,108.14 65.5,86C 95.7853,57.2098 125.785,28.3765 155.5,-0.5 Z"/></g>
<g><path style="opacity:0.848" fill="#fefffe" d="M 79.5,15.5 C 90.2578,15.1901 100.924,17.0234 111.5,21C 114.719,22.7685 117.719,24.7685 120.5,27C 117.911,30.0969 114.911,32.5969 111.5,34.5C 90.3407,24.519 70.0073,26.019 50.5,39C 37.8569,51.4038 31.5235,66.5705 31.5,84.5C 32.4081,92.4663 34.4081,100.133 37.5,107.5C 35.1203,110.924 32.287,113.924 29,116.5C 17.8388,96.5492 16.5054,75.8825 25,54.5C 35.5441,30.8142 53.7108,17.8142 79.5,15.5 Z"/></g>
<g><path style="opacity:0.857" fill="#fefffe" d="M 85.5,191.5 C 84.5,191.5 83.5,191.5 82.5,191.5C 68.5986,177.09 55.9319,161.59 44.5,145C 43.6705,143.535 43.5038,142.035 44,140.5C 45.8333,138.667 47.6667,136.833 49.5,135C 50.5,134.333 51.5,134.333 52.5,135C 61.8538,149.358 72.3538,162.858 84,175.5C 102.45,155.709 117.783,133.709 130,109.5C 137.625,92.0735 137.792,74.4069 130.5,56.5C 132.866,53.2992 135.7,50.6325 139,48.5C 139.772,48.6448 140.439,48.9781 141,49.5C 148.882,68.1863 149.882,87.1863 144,106.5C 129.798,138.526 110.298,166.859 85.5,191.5 Z"/></g>
<g><path style="opacity:0.905" fill="#2aabe8" d="M 77.5,53.5 C 81.8461,53.3343 86.1794,53.501 90.5,54C 91.4506,54.7175 91.6172,55.5509 91,56.5C 80.5294,65.9698 70.3628,75.8031 60.5,86C 59.552,86.4828 58.552,86.6495 57.5,86.5C 56.0205,70.3585 62.6872,59.3585 77.5,53.5 Z"/></g>
<g><path style="opacity:0.835" fill="#2aace8" d="M 107.5,77.5 C 108.5,77.5 109.5,77.5 110.5,77.5C 109.678,96.6555 99.6778,106.322 80.5,106.5C 85.5609,99.6031 91.5609,93.4365 98.5,88C 102.107,84.9023 105.107,81.4023 107.5,77.5 Z"/></g>
</svg>
