<?xml version="1.0" encoding="UTF-8"?>
<!DOCTYPE svg PUBLIC "-//W3C//DTD SVG 1.1//EN" "http://www.w3.org/Graphics/SVG/1.1/DTD/svg11.dtd">
<svg xmlns="http://www.w3.org/2000/svg" version="1.1" width="188px" height="148px" style="shape-rendering:geometricPrecision; text-rendering:geometricPrecision; image-rendering:optimizeQuality; fill-rule:evenodd; clip-rule:evenodd" xmlns:xlink="http://www.w3.org/1999/xlink">
<g><path style="opacity:0.889" fill="#fefffe" d="M 15.5,-0.5 C 28.8333,-0.5 42.1667,-0.5 55.5,-0.5C 58.9584,2.47425 59.2917,5.80759 56.5,9.5C 42.8786,10.6484 29.2119,10.8151 15.5,10C 11.5654,6.50401 11.5654,3.00401 15.5,-0.5 Z"/></g>
<g><path style="opacity:0.886" fill="#fefffe" d="M 187.5,36.5 C 187.5,67.1667 187.5,97.8333 187.5,128.5C 184.167,137.833 177.833,144.167 168.5,147.5C 118.5,147.5 68.5,147.5 18.5,147.5C 9.16667,144.167 2.83333,137.833 -0.5,128.5C -0.5,97.8333 -0.5,67.1667 -0.5,36.5C 1.54135,32.595 3.87468,28.7617 6.5,25C 9.71799,22.2235 13.3847,20.2235 17.5,19C 68.1667,18.3333 118.833,18.3333 169.5,19C 173.615,20.2235 177.282,22.2235 180.5,25C 183.125,28.7617 185.459,32.595 187.5,36.5 Z M 18.5,29.5 C 69.5595,29.0136 120.559,29.5136 171.5,31C 173.617,32.7309 175.117,34.8976 176,37.5C 176.977,68.5611 176.644,99.5611 175,130.5C 173.127,132.709 170.96,134.542 168.5,136C 117.75,136.991 67.0836,136.657 16.5,135C 13.8647,133.039 12.0314,130.539 11,127.5C 10.3333,97.5 10.3333,67.5 11,37.5C 12.3796,33.6247 14.8796,30.958 18.5,29.5 Z"/></g>
<g><path style="opacity:0.963" fill="#fefffe" d="M 29.5,46.5 C 72.168,46.3333 114.835,46.5 157.5,47C 158.658,64.4262 158.825,81.9262 158,99.5C 115.238,100.663 72.4043,100.83 29.5,100C 28.1731,82.1667 28.1731,64.3334 29.5,46.5 Z"/></g>
</svg>
