<?xml version="1.0" encoding="UTF-8"?>
<!DOCTYPE svg PUBLIC "-//W3C//DTD SVG 1.1//EN" "http://www.w3.org/Graphics/SVG/1.1/DTD/svg11.dtd">
<svg xmlns="http://www.w3.org/2000/svg" version="1.1" width="192px" height="100px" style="shape-rendering:geometricPrecision; text-rendering:geometricPrecision; image-rendering:optimizeQuality; fill-rule:evenodd; clip-rule:evenodd" xmlns:xlink="http://www.w3.org/1999/xlink">
<g><path style="opacity:0.846" fill="#fefffe" d="M 8.5,-0.5 C 18.1667,-0.5 27.8333,-0.5 37.5,-0.5C 39.8953,1.90796 39.8953,4.2413 37.5,6.5C 28.2145,7.63962 18.8812,7.80629 9.5,7C 7.16325,4.80634 6.82991,2.30634 8.5,-0.5 Z"/></g>
<g><path style="opacity:0.879" fill="#fefffe" d="M 114.5,99.5 C 79.5,99.5 44.5,99.5 9.5,99.5C 5.45643,96.4575 2.12309,92.7908 -0.5,88.5C -0.5,66.5 -0.5,44.5 -0.5,22.5C 1.73934,17.7658 5.40601,14.5992 10.5,13C 45.1667,12.3333 79.8333,12.3333 114.5,13C 119.757,15.2563 123.257,19.0896 125,24.5C 125.667,45.1667 125.667,65.8333 125,86.5C 123.466,92.523 119.966,96.8564 114.5,99.5 Z M 12.5,19.5 C 46.5621,19.0206 80.5621,19.5206 114.5,21C 115.701,21.9025 116.535,23.0692 117,24.5C 117.667,45.5 117.667,66.5 117,87.5C 115.833,88.6667 114.667,89.8333 113.5,91C 78.7483,91.9861 44.0816,91.6527 9.5,90C 8.29857,89.0975 7.46524,87.9308 7,86.5C 6.33333,66.1667 6.33333,45.8333 7,25.5C 8.35968,22.9774 10.193,20.9774 12.5,19.5 Z"/></g>
<g><path style="opacity:0.965" fill="#fefffe" d="M 18.5,31.5 C 47.5019,31.3334 76.5019,31.5 105.5,32C 106.833,43.6667 106.833,55.3333 105.5,67C 76.5019,67.5 47.5019,67.6666 18.5,67.5C 18.5,55.5 18.5,43.5 18.5,31.5 Z"/></g>
<g><path style="opacity:0.912" fill="#fefffe" d="M 191.5,34.5 C 191.5,36.5 191.5,38.5 191.5,40.5C 186.035,45.4636 180.702,50.6303 175.5,56C 180.702,61.3697 186.035,66.5364 191.5,71.5C 191.5,73.1667 191.5,74.8333 191.5,76.5C 189.313,79.6192 186.646,80.1192 183.5,78C 178.652,72.9849 173.652,68.1515 168.5,63.5C 162.983,68.8512 157.316,74.0178 151.5,79C 144.799,78.4288 143.299,75.2621 147,69.5C 151.506,64.6609 156.339,60.1609 161.5,56C 155.281,50.2834 149.614,44.1167 144.5,37.5C 145.633,33.1903 148.3,31.6903 152.5,33C 157.681,38.3484 163.015,43.515 168.5,48.5C 173.681,43.1516 179.015,37.985 184.5,33C 187.171,32.1668 189.504,32.6668 191.5,34.5 Z"/></g>
</svg>
