<?xml version="1.0" encoding="UTF-8"?>
<!DOCTYPE svg PUBLIC "-//W3C//DTD SVG 1.1//EN" "http://www.w3.org/Graphics/SVG/1.1/DTD/svg11.dtd">
<svg xmlns="http://www.w3.org/2000/svg" version="1.1" width="200px" height="200px" style="shape-rendering:geometricPrecision; text-rendering:geometricPrecision; image-rendering:optimizeQuality; fill-rule:evenodd; clip-rule:evenodd" xmlns:xlink="http://www.w3.org/1999/xlink">
<g><path style="opacity:0.848" fill="#4d7f9f" d="M 66.5,-0.5 C 67.5,-0.5 68.5,-0.5 69.5,-0.5C 70.4553,5.40926 70.7886,11.4093 70.5,17.5C 68.8333,18.8333 67.1667,18.8333 65.5,17.5C 65.2114,11.4093 65.5447,5.40926 66.5,-0.5 Z"/></g>
<g><path style="opacity:0.848" fill="#4d7f9f" d="M 129.5,-0.5 C 130.5,-0.5 131.5,-0.5 132.5,-0.5C 133.455,5.40926 133.789,11.4093 133.5,17.5C 131.833,18.8333 130.167,18.8333 128.5,17.5C 128.211,11.4093 128.545,5.40926 129.5,-0.5 Z"/></g>
<g><path style="opacity:0.905" fill="#fefefe" d="M 65.5,17.5 C 67.1667,18.8333 68.8333,18.8333 70.5,17.5C 89.8333,17.5 109.167,17.5 128.5,17.5C 130.167,18.8333 131.833,18.8333 133.5,17.5C 147.171,17.3334 160.837,17.5001 174.5,18C 175.308,18.3076 175.975,18.8076 176.5,19.5C 177.484,34.7851 177.817,50.1185 177.5,65.5C 177.5,67.1667 177.5,68.8333 177.5,70.5C 177.5,89.8333 177.5,109.167 177.5,128.5C 177.5,130.167 177.5,131.833 177.5,133.5C 177.667,147.504 177.5,161.504 177,175.5C 176.25,176.126 175.416,176.626 174.5,177C 160.837,177.5 147.171,177.667 133.5,177.5C 131.833,176.167 130.167,176.167 128.5,177.5C 109.167,177.5 89.8333,177.5 70.5,177.5C 68.8333,176.167 67.1667,176.167 65.5,177.5C 50.0704,177.968 34.7371,177.468 19.5,176C 18.5098,161.912 18.1765,147.745 18.5,133.5C 18.5,131.833 18.5,130.167 18.5,128.5C 18.5,109.167 18.5,89.8333 18.5,70.5C 18.5,68.8333 18.5,67.1667 18.5,65.5C 18.3334,50.4963 18.5001,35.4963 19,20.5C 19.8333,19.6667 20.6667,18.8333 21.5,18C 36.1629,17.5001 50.8295,17.3334 65.5,17.5 Z M 65.5,27.5 C 65.5,33.1667 65.5,38.8333 65.5,44.5C 58.1667,44.5 50.8333,44.5 43.5,44.5C 43.5,51.5 43.5,58.5 43.5,65.5C 38.1667,65.5 32.8333,65.5 27.5,65.5C 27.5,52.8333 27.5,40.1667 27.5,27.5C 40.1667,27.5 52.8333,27.5 65.5,27.5 Z M 70.5,27.5 C 89.8333,27.5 109.167,27.5 128.5,27.5C 128.5,33.1667 128.5,38.8333 128.5,44.5C 122.167,44.5 115.833,44.5 109.5,44.5C 109.5,51.5 109.5,58.5 109.5,65.5C 101.833,65.5 94.1667,65.5 86.5,65.5C 86.5,58.5 86.5,51.5 86.5,44.5C 81.1667,44.5 75.8333,44.5 70.5,44.5C 70.5,38.8333 70.5,33.1667 70.5,27.5 Z M 133.5,27.5 C 145.167,27.5 156.833,27.5 168.5,27.5C 168.5,40.1667 168.5,52.8333 168.5,65.5C 163.167,65.5 157.833,65.5 152.5,65.5C 153.589,58.8833 153.756,52.2166 153,45.5C 146.59,44.5223 140.09,44.189 133.5,44.5C 133.5,38.8333 133.5,33.1667 133.5,27.5 Z M 27.5,70.5 C 32.8333,70.5 38.1667,70.5 43.5,70.5C 43.5,76.1667 43.5,81.8333 43.5,87.5C 50.8333,87.5 58.1667,87.5 65.5,87.5C 65.5,101.167 65.5,114.833 65.5,128.5C 52.8333,128.5 40.1667,128.5 27.5,128.5C 27.5,109.167 27.5,89.8333 27.5,70.5 Z M 86.5,70.5 C 94.3516,70.1746 102.018,70.508 109.5,71.5C 109.5,76.8333 109.5,82.1667 109.5,87.5C 115.833,87.5 122.167,87.5 128.5,87.5C 128.5,101.167 128.5,114.833 128.5,128.5C 125.5,128.5 122.5,128.5 119.5,128.5C 119.5,121.5 119.5,114.5 119.5,107.5C 105.496,107.333 91.496,107.5 77.5,108C 76.5212,114.744 76.1878,121.578 76.5,128.5C 74.5,128.5 72.5,128.5 70.5,128.5C 70.5,114.833 70.5,101.167 70.5,87.5C 75.8333,87.5 81.1667,87.5 86.5,87.5C 86.5,81.8333 86.5,76.1667 86.5,70.5 Z M 152.5,70.5 C 157.833,70.5 163.167,70.5 168.5,70.5C 168.5,89.8333 168.5,109.167 168.5,128.5C 156.833,128.5 145.167,128.5 133.5,128.5C 133.5,114.833 133.5,101.167 133.5,87.5C 139.842,87.6662 146.175,87.4995 152.5,87C 153.766,81.5313 153.766,76.0313 152.5,70.5 Z M 27.5,133.5 C 40.1667,133.5 52.8333,133.5 65.5,133.5C 65.5,144.833 65.5,156.167 65.5,167.5C 52.8333,167.5 40.1667,167.5 27.5,167.5C 27.5,156.167 27.5,144.833 27.5,133.5 Z M 76.5,133.5 C 76.5,139.5 76.5,145.5 76.5,151.5C 90.8333,151.5 105.167,151.5 119.5,151.5C 119.5,145.5 119.5,139.5 119.5,133.5C 122.5,133.5 125.5,133.5 128.5,133.5C 128.5,144.833 128.5,156.167 128.5,167.5C 109.167,167.5 89.8333,167.5 70.5,167.5C 70.5,156.167 70.5,144.833 70.5,133.5C 72.5,133.5 74.5,133.5 76.5,133.5 Z M 168.5,133.5 C 168.5,144.833 168.5,156.167 168.5,167.5C 156.833,167.5 145.167,167.5 133.5,167.5C 133.5,156.167 133.5,144.833 133.5,133.5C 145.167,133.5 156.833,133.5 168.5,133.5 Z"/></g>
<g><path style="opacity:0.875" fill="#4c7d9d" d="M 70.5,27.5 C 70.5,33.1667 70.5,38.8333 70.5,44.5C 68.8333,44.5 67.1667,44.5 65.5,44.5C 65.5,38.8333 65.5,33.1667 65.5,27.5C 67.2837,26.2801 68.9504,26.2801 70.5,27.5 Z"/></g>
<g><path style="opacity:0.875" fill="#4c7d9d" d="M 133.5,27.5 C 133.5,33.1667 133.5,38.8333 133.5,44.5C 131.833,44.5 130.167,44.5 128.5,44.5C 128.5,38.8333 128.5,33.1667 128.5,27.5C 130.05,26.2801 131.716,26.2801 133.5,27.5 Z"/></g>
<g><path style="opacity:0.99" fill="#2aabe8" d="M 65.5,44.5 C 67.1667,44.5 68.8333,44.5 70.5,44.5C 75.8333,44.5 81.1667,44.5 86.5,44.5C 86.5,51.5 86.5,58.5 86.5,65.5C 86.5,67.1667 86.5,68.8333 86.5,70.5C 86.5,76.1667 86.5,81.8333 86.5,87.5C 81.1667,87.5 75.8333,87.5 70.5,87.5C 68.8333,87.5 67.1667,87.5 65.5,87.5C 58.1667,87.5 50.8333,87.5 43.5,87.5C 43.5,81.8333 43.5,76.1667 43.5,70.5C 43.5,68.8333 43.5,67.1667 43.5,65.5C 43.5,58.5 43.5,51.5 43.5,44.5C 50.8333,44.5 58.1667,44.5 65.5,44.5 Z"/></g>
<g><path style="opacity:0.984" fill="#2aabe8" d="M 128.5,44.5 C 130.167,44.5 131.833,44.5 133.5,44.5C 140.09,44.189 146.59,44.5223 153,45.5C 153.756,52.2166 153.589,58.8833 152.5,65.5C 152.5,67.1667 152.5,68.8333 152.5,70.5C 153.766,76.0313 153.766,81.5313 152.5,87C 146.175,87.4995 139.842,87.6662 133.5,87.5C 131.833,87.5 130.167,87.5 128.5,87.5C 122.167,87.5 115.833,87.5 109.5,87.5C 109.5,82.1667 109.5,76.8333 109.5,71.5C 110.833,69.5 110.833,67.5 109.5,65.5C 109.5,58.5 109.5,51.5 109.5,44.5C 115.833,44.5 122.167,44.5 128.5,44.5 Z"/></g>
<g><path style="opacity:0.842" fill="#4b7e9e" d="M 18.5,65.5 C 18.5,67.1667 18.5,68.8333 18.5,70.5C 12.077,70.7912 5.74365,70.4578 -0.5,69.5C -0.5,68.5 -0.5,67.5 -0.5,66.5C 5.74365,65.5422 12.077,65.2088 18.5,65.5 Z"/></g>
<g><path style="opacity:0.827" fill="#4a7d9c" d="M 27.5,65.5 C 32.8333,65.5 38.1667,65.5 43.5,65.5C 43.5,67.1667 43.5,68.8333 43.5,70.5C 38.1667,70.5 32.8333,70.5 27.5,70.5C 27.5,68.8333 27.5,67.1667 27.5,65.5 Z"/></g>
<g><path style="opacity:0.857" fill="#4b7f9e" d="M 86.5,65.5 C 94.1667,65.5 101.833,65.5 109.5,65.5C 110.833,67.5 110.833,69.5 109.5,71.5C 102.018,70.508 94.3516,70.1746 86.5,70.5C 86.5,68.8333 86.5,67.1667 86.5,65.5 Z"/></g>
<g><path style="opacity:0.857" fill="#4b7d9c" d="M 152.5,65.5 C 157.833,65.5 163.167,65.5 168.5,65.5C 168.5,67.1667 168.5,68.8333 168.5,70.5C 163.167,70.5 157.833,70.5 152.5,70.5C 152.5,68.8333 152.5,67.1667 152.5,65.5 Z"/></g>
<g><path style="opacity:0.847" fill="#4c7e9e" d="M 177.5,65.5 C 184.92,65.2027 192.254,65.536 199.5,66.5C 199.5,67.5 199.5,68.5 199.5,69.5C 192.254,70.464 184.92,70.7973 177.5,70.5C 177.5,68.8333 177.5,67.1667 177.5,65.5 Z"/></g>
<g><path style="opacity:0.877" fill="#4c7e9e" d="M 65.5,87.5 C 67.1667,87.5 68.8333,87.5 70.5,87.5C 70.5,101.167 70.5,114.833 70.5,128.5C 72.5,128.5 74.5,128.5 76.5,128.5C 76.5,130.167 76.5,131.833 76.5,133.5C 74.5,133.5 72.5,133.5 70.5,133.5C 70.5,144.833 70.5,156.167 70.5,167.5C 68.8333,168.833 67.1667,168.833 65.5,167.5C 65.5,156.167 65.5,144.833 65.5,133.5C 52.8333,133.5 40.1667,133.5 27.5,133.5C 27.5,131.833 27.5,130.167 27.5,128.5C 40.1667,128.5 52.8333,128.5 65.5,128.5C 65.5,114.833 65.5,101.167 65.5,87.5 Z"/></g>
<g><path style="opacity:0.873" fill="#4c7e9e" d="M 128.5,87.5 C 130.167,87.5 131.833,87.5 133.5,87.5C 133.5,101.167 133.5,114.833 133.5,128.5C 145.167,128.5 156.833,128.5 168.5,128.5C 168.5,130.167 168.5,131.833 168.5,133.5C 156.833,133.5 145.167,133.5 133.5,133.5C 133.5,144.833 133.5,156.167 133.5,167.5C 131.833,168.833 130.167,168.833 128.5,167.5C 128.5,156.167 128.5,144.833 128.5,133.5C 125.5,133.5 122.5,133.5 119.5,133.5C 119.5,131.833 119.5,130.167 119.5,128.5C 122.5,128.5 125.5,128.5 128.5,128.5C 128.5,114.833 128.5,101.167 128.5,87.5 Z"/></g>
<g><path style="opacity:0.964" fill="#2aabe8" d="M 119.5,128.5 C 119.5,130.167 119.5,131.833 119.5,133.5C 119.5,139.5 119.5,145.5 119.5,151.5C 105.167,151.5 90.8333,151.5 76.5,151.5C 76.5,145.5 76.5,139.5 76.5,133.5C 76.5,131.833 76.5,130.167 76.5,128.5C 76.1878,121.578 76.5212,114.744 77.5,108C 91.496,107.5 105.496,107.333 119.5,107.5C 119.5,114.5 119.5,121.5 119.5,128.5 Z"/></g>
<g><path style="opacity:0.842" fill="#4b7e9e" d="M 18.5,128.5 C 18.5,130.167 18.5,131.833 18.5,133.5C 12.077,133.791 5.74365,133.458 -0.5,132.5C -0.5,131.5 -0.5,130.5 -0.5,129.5C 5.74365,128.542 12.077,128.209 18.5,128.5 Z"/></g>
<g><path style="opacity:0.846" fill="#4c7e9e" d="M 177.5,128.5 C 184.92,128.203 192.254,128.536 199.5,129.5C 199.5,130.5 199.5,131.5 199.5,132.5C 192.254,133.464 184.92,133.797 177.5,133.5C 177.5,131.833 177.5,130.167 177.5,128.5 Z"/></g>
<g><path style="opacity:0.846" fill="#4c7e9e" d="M 70.5,177.5 C 70.7973,184.92 70.464,192.254 69.5,199.5C 68.5,199.5 67.5,199.5 66.5,199.5C 65.536,192.254 65.2027,184.92 65.5,177.5C 67.1667,176.167 68.8333,176.167 70.5,177.5 Z"/></g>
<g><path style="opacity:0.846" fill="#4c7e9e" d="M 133.5,177.5 C 133.797,184.92 133.464,192.254 132.5,199.5C 131.5,199.5 130.5,199.5 129.5,199.5C 128.536,192.254 128.203,184.92 128.5,177.5C 130.167,176.167 131.833,176.167 133.5,177.5 Z"/></g>
</svg>
