<?xml version="1.0" encoding="UTF-8" standalone="no"?>
<svg
   version="1.1"
   viewBox="0 0 196 208"
   id="svg247"
   sodipodi:docname="count_ally_in_blast.svg"
   inkscape:version="1.2.2 (b0a8486541, 2022-12-01)"
   xmlns:inkscape="http://www.inkscape.org/namespaces/inkscape"
   xmlns:sodipodi="http://sodipodi.sourceforge.net/DTD/sodipodi-0.dtd"
   xmlns="http://www.w3.org/2000/svg"
   xmlns:svg="http://www.w3.org/2000/svg">
  <defs
     id="defs251" />
  <sodipodi:namedview
     id="namedview249"
     pagecolor="#505050"
     bordercolor="#eeeeee"
     borderopacity="1"
     inkscape:showpageshadow="0"
     inkscape:pageopacity="0"
     inkscape:pagecheckerboard="0"
     inkscape:deskcolor="#505050"
     showgrid="false"
     inkscape:zoom="6.0508954"
     inkscape:cx="65.11433"
     inkscape:cy="102.62944"
     inkscape:window-width="3840"
     inkscape:window-height="2160"
     inkscape:window-x="0"
     inkscape:window-y="0"
     inkscape:window-maximized="1"
     inkscape:current-layer="svg247" />
  <g
     stroke-width="2.00"
     fill="none"
     stroke-linecap="butt"
     id="g207">
    <path
       stroke="#289cd3"
       stroke-opacity="0.557"
       vector-effect="non-scaling-stroke"
       d="   M 81.50 107.21   L 53.25 107.21"
       id="path197" />
    <path
       stroke="#289cd3"
       stroke-opacity="0.557"
       vector-effect="non-scaling-stroke"
       d="   M 46.21 144.75   C 46.48 141.84 46.39 138.63 45.94 135.10"
       id="path199" />
    <path
       stroke="#289cd3"
       stroke-opacity="0.557"
       vector-effect="non-scaling-stroke"
       d="   M 46.00 108.46   L 46.18 116.90"
       id="path201" />
    <path
       stroke="#289cd3"
       stroke-opacity="0.557"
       vector-effect="non-scaling-stroke"
       d="   M 145.25 191.29   L 149.18 191.25   C 149.51 191.24 149.69 191.08 149.74 190.75   L 149.84 189.98"
       id="path203" />
    <path
       stroke="#289cd3"
       stroke-opacity="0.557"
       vector-effect="non-scaling-stroke"
       d="   M 149.97 172.02   L 149.85 159.86"
       id="path205" />
  </g>
  <g
     fill="#2bace9"
     id="g213">
    <path
       d="   M 53.25 107.21   L 81.50 107.21   L 82.60 107.50   C 82.87 107.57 83.00 107.75 83.00 108.02   L 83.00 144.23   A 0.88 0.87 89.7 0 1 82.14 145.11   C 71.89 145.29 61.51 145.34 51.00 145.27   C 49.39 145.26 47.79 145.09 46.21 144.75   C 46.48 141.84 46.39 138.63 45.94 135.10   L 46.18 116.90   L 46.00 108.46   L 46.32 107.76   C 46.47 107.43 46.73 107.26 47.10 107.25   L 53.25 107.21   Z"
       id="path209" />
    <path
       d="   M 149.85 159.86   L 149.97 172.02   L 149.84 189.98   L 149.74 190.75   C 149.69 191.08 149.51 191.24 149.18 191.25   L 145.25 191.29   L 113.43 191.26   A 0.45 0.45 0.0 0 1 112.98 190.81   L 113.01 153.81   A 0.31 0.31 0.0 0 1 113.32 153.50   L 149.04 153.50   C 149.46 153.50 149.67 153.71 149.68 154.12   L 149.85 159.86   Z"
       id="path211" />
  </g>
  <g
     fill="#ffffff"
     id="g235">
    <path
       d="   M 77.15 0.28   A 0.62 0.62 0.0 0 1 77.76 0.90   L 77.79 18.78   A 0.27 0.27 0.0 0 1 77.28 18.91   L 67.21 0.92   C 66.96 0.46 67.09 0.23 67.61 0.24   L 77.15 0.28   Z"
       id="path215" />
    <path
       d="   M 114.38 7.29   A 0.71 0.71 0.0 0 1 113.67 8.00   L 82.31 8.00   A 0.71 0.71 0.0 0 1 81.60 7.29   L 81.60 0.97   A 0.71 0.71 0.0 0 1 82.31 0.26   L 113.67 0.26   A 0.71 0.71 0.0 0 1 114.38 0.97   L 114.38 7.29   Z"
       id="path217" />
    <path
       d="   M 118.19 18.94   L 118.25 1.00   C 118.25 0.50 118.50 0.25 119.00 0.25   L 128.23 0.25   A 0.55 0.54 -75.0 0 1 128.70 1.07   C 127.14 3.81 120.01 18.10 118.25 18.98   A 0.04 0.04 0.0 0 1 118.19 18.94   Z"
       id="path219" />
    <path
       d="   M 112.90 39.88   C 107.05 53.27 87.53 52.64 82.63 38.81   C 82.05 37.17 81.76 34.41 81.77 30.53   C 81.78 24.11 81.74 17.63 81.67 11.09   C 81.66 10.70 81.86 10.50 82.25 10.50   L 113.74 10.50   C 114.13 10.50 114.32 10.69 114.31 11.08   C 114.26 17.85 114.24 24.57 114.23 31.25   C 114.22 35.00 113.78 37.87 112.90 39.88   Z"
       id="path221" />
    <path
       d="   M 100.2623 64.6342   A 2.14 2.14 0.0 0 1 98.1373 66.7891   L 97.9173 66.7906   A 2.14 2.14 0.0 0 1 95.7624 64.6656   L 95.7177 58.2658   A 2.14 2.14 0.0 0 1 97.8427 56.1109   L 98.0627 56.1094   A 2.14 2.14 0.0 0 1 100.2176 58.2344   L 100.2623 64.6342   Z"
       id="path223" />
    <path
       d="   M 100.2115 80.5023   A 2.10 2.10 0.0 0 1 98.1188 82.6096   L 97.9189 82.6103   A 2.10 2.10 0.0 0 1 95.8115 80.5177   L 95.7885 73.9177   A 2.10 2.10 0.0 0 1 97.8812 71.8104   L 98.0811 71.8097   A 2.10 2.10 0.0 0 1 100.1885 73.9023   L 100.2115 80.5023   Z"
       id="path225" />
    <path
       d="   M 100.21 96.06   A 2.12 2.12 0.0 0 1 98.09 98.18   L 97.91 98.18   A 2.12 2.12 0.0 0 1 95.79 96.06   L 95.79 89.44   A 2.12 2.12 0.0 0 1 97.91 87.32   L 98.09 87.32   A 2.12 2.12 0.0 0 1 100.21 89.44   L 100.21 96.06   Z"
       id="path227" />
    <path
       d="   M 100.2244 111.5839   A 2.13 2.13 0.0 0 1 98.0907 113.7102   L 97.8907 113.7098   A 2.13 2.13 0.0 0 1 95.7644 111.5761   L 95.7756 105.1561   A 2.13 2.13 0.0 0 1 97.9093 103.0298   L 98.1093 103.0302   A 2.13 2.13 0.0 0 1 100.2356 105.1639   L 100.2244 111.5839   Z"
       id="path229" />
    <path
       d="   M 100.3454 127.1259   A 2.22 2.22 0.0 0 1 98.1293 129.3498   L 97.8893 129.3502   A 2.22 2.22 0.0 0 1 95.6654 127.1341   L 95.6546 120.8941   A 2.22 2.22 0.0 0 1 97.8707 118.6702   L 98.1107 118.6698   A 2.22 2.22 0.0 0 1 100.3346 120.8859   L 100.3454 127.1259   Z"
       id="path231" />
    <path
       d="   M 100.1985 143.0377   A 2.11 2.11 0.0 0 1 98.0811 145.1403   L 97.9012 145.1397   A 2.11 2.11 0.0 0 1 95.7985 143.0223   L 95.8215 136.4423   A 2.11 2.11 0.0 0 1 97.9389 134.3397   L 98.1188 134.3403   A 2.11 2.11 0.0 0 1 100.2215 136.4577   L 100.1985 143.0377   Z"
       id="path233" />
  </g>
  <g
     fill="#ffffff"
     fill-opacity="0.11"
     id="g50"
     transform="translate(-0.37843826,-0.04818203)">
    <path
       d="m 46.590101,108.04929 c -0.0028,0.14709 -0.179281,0.47373 -0.176568,0.61681 0.05767,3.04142 0.05251,3.85811 0.134641,8.16421 0.113351,0.17152 -0.641485,0.35162 -1.061485,0.54162 -4.31,1.87 -7.776689,3.20807 -12.936689,5.81807 -14.18,7.16 -29.18,22.83 -21.87,39.58 2.26,5.17 5.89,9.74 10.9,13.71 3.52,2.79 6.28,5.17 9.67,7 15.33,8.31 31.66,13.25 48.97,14.8 25.55,2.29 51.42,-0.01 75.16,-10.08 6.5,-2.75 12.53,-6.32 18.09,-10.71 4.65,-3.67 8.49,-8.4 11.52,-14.19 2.55,-4.89 3,-9.81 1.35,-14.75 -1.37857,-3.87853 -1.58738,-3.77151 -2.99,-7.34 -1.6,-4.55 -9.18,-11.68 -14.14,-14.61 -2.23,-1.31 -4.4,-2.93 -6.62,-4.04 -13.21,-6.59 -27.14,-10.8 -41.77,-12.62 -4.99,-0.62 -11.83,-1.74 -17.93,-1.67 -0.36,0 -2.18312,-0.0539 -2.19312,-0.41394 -0.42282,-3.58112 -0.0565,-3.64324 -1.295912,-4.59286 -0.477945,-0.0293 -0.62182,-0.11956 -1.01018,-0.13275 -0.227118,-0.008 -0.347335,-0.28048 -0.947471,0.19079 -1.198185,0.9409 -1.270033,1.04477 -1.291219,2.1624 -0.02119,1.11762 0.643768,2.31427 -0.211378,2.31435 -3.158137,3.2e-4 -5.567308,0.19777 -8.317171,0.14468 -0.732923,-0.0142 -3.578362,0.37024 -4.210794,0.38346 -0.641382,0.0134 0.352502,-0.65602 -0.186168,-0.78511 -1.586433,-0.38018 -13.936115,-0.01 -18.747798,-0.29794 -1.331855,-0.0798 -16.111712,0.0819 -16.107177,0.0473 0.06477,-0.49398 14.519353,-3.73953 21.93903,-4.89746 21.657262,-3.035312 26.384312,-2.501428 31.366738,-2.35291 12.51,0.65 28.42262,2.43997 40.57262,5.48997 1.99,0.5 4.71,1.73 7.12,2.44 11.87,3.53 20.07,8.37 30.42,15.85 2.05983,1.50367 2.42304,1.76628 4.01,3.78 2.95,3.22 5.6668,6.66756 7.8768,10.41756 1.01,1.72 1.03885,2.54616 2.38,6.02 2.77471,7.00043 0.3332,19.03244 -2.7268,25.52244 -0.13,0.29 -0.34,0.53 -0.61,0.7 -0.49,0.31 -0.73,0.76 -0.72,1.36 0.01,0.33 -0.09,0.63 -0.29,0.89 -7.54,9.83 -17.01,17.27 -28.4,22.32 -16.16,7.18 -30.16,9.83 -48.31,12.23 -4.85,0.64 -14.01,0.69 -27.48,0.15 -2.47,-0.1 -4.97,-0.78 -7.01,-0.96 -8.9,-0.79 -17.65,-2.38 -26.25,-4.76 -9.17,-2.53 -18.62,-6.67 -28.35,-12.41 -1.89,-1.11 -3.17,-1.99 -3.86,-2.62 -3.11,-2.87 -6.91,-5.61 -9.44,-8.55 -8.13,-9.46 -11.58,-20.54 -8.74,-32.88 0.56,-2.44 1.98,-4.84 3.07,-7.27 0.49,-1.08 1.01,-2 1.54,-2.77 8.4,-11.94 19.1,-18.5 32.29,-24.22 2.18,-0.95 5.266328,-2.16065 6.336328,-2.25065 z"
       id="path44"
       sodipodi:nodetypes="csccccccccccccccccccsszsssssscccccccccccccccccccccccccc" />
    <path
       d="m 150.2513,167.1444 c -0.0604,-5.75162 -0.0581,-6.1109 0.005,-6.61298 -0.005,-0.72007 0.37621,-0.93231 0.51089,-1.06211 1.0461,-1.00818 1.53408,-1.73933 2.26328,-3.01931 0.16,-0.29 0.71145,-1.45464 0.70145,-1.78464 0.39253,-4.05942 -0.22785,-2.98973 -1.19255,-5.87857 l -0.76926,-1.61597 c -2.1488,-2.89593 -3.29148,-3.94182 -6.38602,-6.31588 C 141.60358,138.62122 132.66,134.27 128.9,133.18 c -8.81,-2.54 -17.02,-4.15 -25.89,-4.1 -0.94712,0.0536 -3.059202,0.20736 -4.001502,0.27552 -0.08185,0.006 0.4085,-0.54388 0.864981,-0.97667 0.320381,-0.30376 0.173141,-5.75196 0.222421,-6.01183 l 0.009,-1.12877 c 1.13023,-0.28814 1.67201,-0.32817 2.71426,-0.40825 3.52,-0.31 6.15,0.5 9.35,0.63 7.07,0.28 14.21,2.29 20.96,4.34 1.19,0.36 1.99744,0.87446 4.45,1.81 3.34,0.47 10.43,4.99 13,7.27 1.29,1.14 2.99,1.86 4.09,3.01 11.69116,11.71491 8.50594,24.77745 -0.84994,32.06307 -0.8141,0.63395 -2.53192,1.47581 -3.33202,2.07896 -0.27006,-1.40791 -0.15952,-1.91171 -0.2359,-4.88763 z"
       id="path46"
       sodipodi:nodetypes="ccscccccccssccccccccscc" />
    <path
       d="m 90.669939,130.02759 c -0.721381,0.0872 -1.941888,0.22534 -3.985984,0.49481 -3.520992,0.46416 -2.818703,0.40346 -3.414889,0.44658 0.17743,-6.28469 -0.108274,-3.58477 0.14091,-8.74754 1.30008,-0.24849 3.586168,-0.47151 5.564208,-0.75311 6.22097,-0.23927 1.047737,-0.10861 5.564258,-0.19545 1.020039,-0.037 1.112768,-0.30524 1.102002,0.36934 -0.01702,1.06675 -0.04674,4.29837 -0.0651,5.74546 -0.0044,0.34472 0.07459,0.65864 0.202012,0.93988 0.139831,0.30864 0.294149,0.51657 0.504577,0.74403 0.277945,0.30044 1.534582,0.7229 1.107484,0.50272 -1.123672,-0.0611 -3.836005,-0.0149 -6.719478,0.45328 z"
       id="path46-6"
       sodipodi:nodetypes="csccccsssscc" />
    <path
       d="m 46.6087,144.81004 c 0.592932,0.0791 0.410362,0.0182 0.228208,0.24326 -0.510424,0.63079 -0.999942,1.29202 -1.47399,1.98575 C 39.222918,155.98905 47.54,165.1 54.97,169 c 6.99,3.66 14.32,6.34 22,8.04 13.637673,2.02615 23.18988,1.99765 35.29557,0.84139 2.51259,-0.20045 -2.96707,0.4276 1.09972,-0.14527 l 0.0167,7.92638 c -0.4188,0.0956 -0.67977,0.10311 -1.08318,0.2089 -10.29,1.61 -18.66885,1.5486 -30.53885,0.1186 -13.75,-1.66 -25.58,-5.81 -35.5,-12.45 -4.47,-3 -8.319953,-7.57336 -10.525283,-14.02835 -0.69429,-3.12924 -0.436015,-1.7586 -1.07314,-6.02941 0.786516,-6.31488 0.925395,-5.28698 1.829923,-8.22294 2.338825,-4.93405 5.477228,-7.32039 9.935642,-10.19253 0.572408,10.42081 0.346498,6.35502 0.181558,9.74327 z"
       id="path48"
       sodipodi:nodetypes="cscccccccccccccc" />
  </g>
</svg>
