<?xml version="1.0" encoding="UTF-8"?>
<!DOCTYPE svg PUBLIC "-//W3C//DTD SVG 1.1//EN" "http://www.w3.org/Graphics/SVG/1.1/DTD/svg11.dtd">
<svg xmlns="http://www.w3.org/2000/svg" version="1.1" width="145px" height="142px" style="shape-rendering:geometricPrecision; text-rendering:geometricPrecision; image-rendering:optimizeQuality; fill-rule:evenodd; clip-rule:evenodd" xmlns:xlink="http://www.w3.org/1999/xlink">
<g><path style="opacity:0.846" fill="#fefffe" d="M 31.5,-0.5 C 58.5,-0.5 85.5,-0.5 112.5,-0.5C 129.055,3.72093 139.721,14.0543 144.5,30.5C 144.5,45.8333 144.5,61.1667 144.5,76.5C 140.411,91.2605 131.077,101.26 116.5,106.5C 115.904,114.554 115.07,122.554 114,130.5C 112.357,132.977 110.524,135.31 108.5,137.5C 105.941,138.608 103.608,139.941 101.5,141.5C 82.5,141.5 63.5,141.5 44.5,141.5C 37.044,139.552 31.8774,134.886 29,127.5C 28.8311,120.476 28.3311,113.476 27.5,106.5C 21.8824,104.693 16.8824,101.86 12.5,98C 7.09631,92.1181 2.76298,85.6181 -0.5,78.5C -0.5,62.5 -0.5,46.5 -0.5,30.5C 0.833333,30.1667 0.833333,29.8333 -0.5,29.5C -0.5,29.1667 -0.5,28.8333 -0.5,28.5C 2.76298,21.3819 7.09631,14.8819 12.5,9C 18.3933,4.71994 24.7267,1.55327 31.5,-0.5 Z M 32.5,11.5 C 58.8354,11.3334 85.1688,11.5 111.5,12C 121.558,14.3908 128.058,20.5574 131,30.5C 131.667,46.1667 131.667,61.8333 131,77.5C 126.848,88.3101 119.014,94.8101 107.5,97C 106.789,98.2547 105.956,99.4214 105,100.5C 103.76,108.757 103.093,117.091 103,125.5C 99.604,129.203 95.4374,130.369 90.5,129C 91.3793,122.801 91.7126,116.634 91.5,110.5C 90.0897,104.773 86.7564,102.94 81.5,105C 80.1068,106.171 79.2735,107.671 79,109.5C 78.19,116.082 78.3567,122.582 79.5,129C 74.8452,129.499 70.1785,129.666 65.5,129.5C 65.8961,121.747 65.3961,114.08 64,106.5C 59.7082,102.691 56.0415,103.358 53,108.5C 52.5004,115.492 52.3337,122.492 52.5,129.5C 47.8736,130.3 44.0403,128.966 41,125.5C 40.6667,118.167 40.3333,110.833 40,103.5C 39.6397,101.579 38.8064,99.9122 37.5,98.5C 32.7018,95.7253 27.7018,93.2253 22.5,91C 17.9686,87.4291 14.802,82.9291 13,77.5C 12.3333,61.8333 12.3333,46.1667 13,30.5C 16.1125,20.5525 22.6125,14.2192 32.5,11.5 Z"/></g>
<g><path style="opacity:0.842" fill="#fefffe" d="M 31.5,34.5 C 33.3084,34.4914 34.9751,34.9914 36.5,36C 39.0159,38.6833 41.6826,41.1833 44.5,43.5C 47.0205,40.1458 50.0205,37.3124 53.5,35C 59.3333,34.1667 61.8333,36.6667 61,42.5C 58.5374,45.9646 55.7041,49.1312 52.5,52C 55.7041,54.8688 58.5374,58.0354 61,61.5C 61.8333,67.3333 59.3333,69.8333 53.5,69C 50.0354,66.5374 46.8688,63.7041 44,60.5C 41.1667,63.3333 38.3333,66.1667 35.5,69C 29.2124,70.378 26.3791,67.878 27,61.5C 29.3124,58.0205 32.1458,55.0205 35.5,52.5C 33.1833,49.6826 30.6833,47.0159 28,44.5C 25.5463,39.7624 26.713,36.4291 31.5,34.5 Z"/></g>
<g><path style="opacity:0.851" fill="#fefffe" d="M 86.5,34.5 C 87.8734,34.3433 89.2068,34.51 90.5,35C 93.3226,37.9884 96.3226,40.8217 99.5,43.5C 102.686,40.4791 106.02,37.6458 109.5,35C 116.382,35.0094 118.548,38.176 116,44.5C 113.317,47.0159 110.817,49.6826 108.5,52.5C 111.15,55.6511 113.984,58.6511 117,61.5C 117.635,67.781 114.801,70.281 108.5,69C 105.667,66.1667 102.833,63.3333 100,60.5C 97.1312,63.7041 93.9646,66.5374 90.5,69C 84.7141,69.8809 82.2141,67.3809 83,61.5C 85.4626,58.0354 88.2959,54.8688 91.5,52C 88.2959,49.1312 85.4626,45.9646 83,42.5C 82.2793,38.9463 83.4459,36.2796 86.5,34.5 Z"/></g>
</svg>
