<?xml version="1.0" encoding="UTF-8"?>
<!DOCTYPE svg PUBLIC "-//W3C//DTD SVG 1.1//EN" "http://www.w3.org/Graphics/SVG/1.1/DTD/svg11.dtd">
<svg xmlns="http://www.w3.org/2000/svg" version="1.1" width="164px" height="50px" style="shape-rendering:geometricPrecision; text-rendering:geometricPrecision; image-rendering:optimizeQuality; fill-rule:evenodd; clip-rule:evenodd" xmlns:xlink="http://www.w3.org/1999/xlink">
<g><path style="opacity:0.959" fill="#fefffe" d="M 4.5,-0.5 C 6.83333,-0.5 9.16667,-0.5 11.5,-0.5C 13.6959,0.854084 15.1959,2.85408 16,5.5C 16.4998,14.8274 16.6665,24.1607 16.5,33.5C 35.5,33.5 54.5,33.5 73.5,33.5C 73.3342,28.8215 73.5008,24.1548 74,19.5C 77.0133,14.4648 81.1799,13.2981 86.5,16C 87.7014,16.9025 88.5348,18.0692 89,19.5C 89.4992,24.1548 89.6658,28.8215 89.5,33.5C 108.5,33.5 127.5,33.5 146.5,33.5C 146.334,24.1607 146.5,14.8274 147,5.5C 147.804,2.85408 149.304,0.854084 151.5,-0.5C 153.833,-0.5 156.167,-0.5 158.5,-0.5C 160.142,0.802988 161.809,2.13632 163.5,3.5C 163.5,17.5 163.5,31.5 163.5,45.5C 161.809,46.8637 160.142,48.197 158.5,49.5C 107.167,49.5 55.8333,49.5 4.5,49.5C 2.85774,48.197 1.19107,46.8637 -0.5,45.5C -0.5,31.5 -0.5,17.5 -0.5,3.5C 1.19107,2.13632 2.85774,0.802988 4.5,-0.5 Z"/></g>
</svg>
