<?xml version="1.0" encoding="UTF-8"?>
<!DOCTYPE svg PUBLIC "-//W3C//DTD SVG 1.1//EN" "http://www.w3.org/Graphics/SVG/1.1/DTD/svg11.dtd">
<svg xmlns="http://www.w3.org/2000/svg" version="1.1" width="146px" height="92px" style="shape-rendering:geometricPrecision; text-rendering:geometricPrecision; image-rendering:optimizeQuality; fill-rule:evenodd; clip-rule:evenodd" xmlns:xlink="http://www.w3.org/1999/xlink">
<g><path style="opacity:0.961" fill="#82c415" d="M 138.5,-0.5 C 139.5,-0.5 140.5,-0.5 141.5,-0.5C 142.262,1.26242 143.596,2.26242 145.5,2.5C 145.5,3.83333 145.5,5.16667 145.5,6.5C 118.283,34.2178 90.7829,61.8844 63,89.5C 62.5357,90.0944 62.369,90.7611 62.5,91.5C 60.8333,91.5 59.1667,91.5 57.5,91.5C 39.19,69.1924 19.8566,47.8591 -0.5,27.5C -0.5,26.1667 -0.5,24.8333 -0.5,23.5C 0.626561,22.8783 1.62656,22.045 2.5,21C 3.83333,20.3333 5.16667,20.3333 6.5,21C 24.289,29.3119 42.1223,37.4786 60,45.5C 86.6405,30.7707 112.807,15.4374 138.5,-0.5 Z"/></g>
</svg>
