<?xml version="1.0" encoding="UTF-8" standalone="no"?>
<!DOCTYPE svg PUBLIC "-//W3C//DTD SVG 1.1//EN" "http://www.w3.org/Graphics/SVG/1.1/DTD/svg11.dtd">
<svg xmlns="http://www.w3.org/2000/svg" version="1.1" viewBox="0.00 0.00 217.00 254.00">
<g stroke-width="2.00" fill="none" stroke-linecap="butt">
<path stroke="#e39990" vector-effect="non-scaling-stroke" d="
  M 90.13 190.65
  C 99.16 180.88 111.83 186.91 115.24 197.99
  Q 117.57 205.59 116.58 212.48
  Q 116.17 215.32 117.77 212.94
  Q 122.13 206.46 125.43 198.54
  C 126.45 196.09 127.72 193.74 128.49 191.27
  C 131.97 180.16 133.27 170.93 132.81 160.91
  C 132.36 151.07 131.09 142.59 126.70 133.54
  Q 120.06 119.82 110.64 107.75
  Q 109.52 106.32 111.33 106.18
  C 137.27 104.18 159.99 96.06 180.08 79.17
  Q 182.09 77.48 179.58 78.26
  Q 148.86 87.77 116.52 96.62
  Q 101.29 100.78 93.75 101.34
  C 86.33 101.88 83.94 92.52 90.75 89.41
  C 99.85 85.25 105.54 78.86 104.22 68.25
  Q 103.41 61.75 100.11 54.05
  Q 93.89 39.51 84.14 26.61
  A 0.32 0.32 0.0 0 0 83.56 26.75
  C 80.49 45.72 77.52 64.43 73.41 83.66
  Q 72.00 90.27 70.39 92.75
  C 67.07 97.90 60.98 98.66 55.75 99.83
  A 1.43 1.40 -76.8 0 0 54.96 100.33
  Q 52.38 103.58 52.22 107.54
  Q 52.06 111.49 51.76 112.38
  Q 50.10 117.30 44.90 120.38
  Q 42.44 121.84 40.99 124.90
  Q 40.12 126.75 40.60 129.15
  Q 41.58 134.00 42.94 138.45
  A 4.03 4.01 6.7 0 0 44.80 140.79
  Q 53.53 145.81 62.21 150.76
  C 66.65 153.30 67.95 149.92 71.01 149.96
  C 75.25 150.01 78.68 153.36 76.99 157.58
  C 75.16 162.15 67.18 163.12 63.27 162.59
  Q 59.65 162.09 52.78 158.11
  Q 47.30 154.92 41.79 151.81
  A 0.40 0.40 0.0 0 0 41.29 151.90
  Q 39.37 154.23 36.96 156.21
  Q 26.82 164.54 17.00 173.25
  C 15.86 174.26 14.37 175.31 14.20 176.89
  C 13.83 180.24 17.05 181.99 19.91 180.94
  Q 23.28 179.70 24.49 178.74
  Q 34.88 170.46 38.80 167.82
  C 52.27 158.74 74.59 167.86 73.47 185.50
  Q 73.45 185.84 73.26 186.15
  C 72.41 187.60 72.81 189.07 72.36 190.67
  Q 71.83 192.52 71.77 193.47
  C 71.52 196.89 69.89 202.88 73.72 204.83
  C 83.10 209.59 85.71 195.44 90.13 190.65"
/>
<path stroke="#e39990" vector-effect="non-scaling-stroke" d="
  M 100.55 131.72
  C 99.75 135.25 94.63 137.35 92.57 140.21
  C 89.82 144.01 87.50 152.34 92.08 155.72
  C 94.77 157.71 98.46 157.14 99.71 153.75
  C 101.04 150.17 99.68 146.65 102.92 143.68
  Q 106.90 140.03 110.73 136.24
  Q 112.22 134.76 112.45 132.00
  C 112.81 127.63 112.28 124.65 108.93 121.62
  C 100.44 113.99 85.09 114.86 79.54 125.57
  C 77.79 128.95 77.22 133.01 80.42 135.56
  C 83.43 137.96 87.37 136.56 88.41 132.95
  Q 89.11 130.50 89.12 130.47
  C 91.70 124.85 102.30 124.02 100.55 131.72"
/>
<path stroke="#e39990" vector-effect="non-scaling-stroke" d="
  M 100.26 166.05
  A 4.88 4.88 0.0 0 0 95.38 161.17
  A 4.88 4.88 0.0 0 0 90.50 166.05
  A 4.88 4.88 0.0 0 0 95.38 170.93
  A 4.88 4.88 0.0 0 0 100.26 166.05"
/>
</g>
<path fill="#c63221" d="
  M 111.56 85.78
  Q 111.08 86.65 112.03 86.39
  C 145.25 77.40 178.06 67.39 210.90 57.30
  C 212.01 56.96 212.78 56.02 214.28 56.75
  Q 214.95 57.09 214.24 57.32
  L 213.88 57.44
  Q 213.41 57.60 213.10 57.99
  Q 208.75 63.59 204.39 69.17
  Q 175.61 105.99 129.74 114.82
  Q 129.09 114.94 129.43 115.52
  C 134.65 124.30 139.66 133.82 141.85 143.68
  C 143.20 149.81 143.37 155.49 143.79 161.34
  Q 143.94 163.41 143.69 165.65
  C 143.48 167.61 143.66 169.73 143.52 171.45
  C 141.36 198.23 128.48 222.11 108.84 239.85
  Q 102.76 245.33 97.76 250.37
  Q 96.10 252.04 96.79 249.79
  C 99.54 240.83 112.82 202.51 101.31 197.04
  Q 100.91 196.85 100.47 196.94
  Q 98.36 197.37 97.85 198.38
  C 92.53 209.00 87.41 218.61 73.55 216.02
  Q 64.26 214.29 61.07 206.51
  Q 59.76 203.32 60.23 197.86
  Q 60.86 190.58 62.62 183.49
  Q 62.92 182.28 61.23 180.27
  C 57.17 175.45 50.48 173.22 45.00 177.09
  Q 37.43 182.43 30.16 188.15
  Q 26.32 191.17 21.09 191.98
  C 6.03 194.32 -3.48 177.00 8.16 166.42
  Q 19.40 156.21 31.30 146.80
  C 32.51 145.85 33.03 143.61 32.56 141.98
  Q 30.20 133.83 29.57 129.75
  C 28.26 121.14 34.02 114.19 40.82 109.89
  Q 41.25 109.62 41.33 109.13
  C 41.59 107.50 41.42 105.64 41.61 104.30
  Q 42.98 94.79 51.13 89.76
  Q 51.57 89.49 52.08 89.48
  C 53.57 89.46 54.52 88.70 55.88 88.55
  Q 58.45 88.29 60.27 87.28
  Q 61.54 86.59 61.86 85.18
  C 67.87 58.44 71.94 31.05 76.07 3.96
  Q 76.12 3.68 75.92 3.25
  Q 75.86 3.11 75.79 2.79
  A 0.42 0.42 0.0 0 1 76.49 2.41
  Q 82.45 8.26 87.66 14.07
  Q 96.80 24.29 103.71 36.13
  C 111.72 49.85 120.04 70.72 111.56 85.78
  Z
  M 90.13 190.65
  C 99.16 180.88 111.83 186.91 115.24 197.99
  Q 117.57 205.59 116.58 212.48
  Q 116.17 215.32 117.77 212.94
  Q 122.13 206.46 125.43 198.54
  C 126.45 196.09 127.72 193.74 128.49 191.27
  C 131.97 180.16 133.27 170.93 132.81 160.91
  C 132.36 151.07 131.09 142.59 126.70 133.54
  Q 120.06 119.82 110.64 107.75
  Q 109.52 106.32 111.33 106.18
  C 137.27 104.18 159.99 96.06 180.08 79.17
  Q 182.09 77.48 179.58 78.26
  Q 148.86 87.77 116.52 96.62
  Q 101.29 100.78 93.75 101.34
  C 86.33 101.88 83.94 92.52 90.75 89.41
  C 99.85 85.25 105.54 78.86 104.22 68.25
  Q 103.41 61.75 100.11 54.05
  Q 93.89 39.51 84.14 26.61
  A 0.32 0.32 0.0 0 0 83.56 26.75
  C 80.49 45.72 77.52 64.43 73.41 83.66
  Q 72.00 90.27 70.39 92.75
  C 67.07 97.90 60.98 98.66 55.75 99.83
  A 1.43 1.40 -76.8 0 0 54.96 100.33
  Q 52.38 103.58 52.22 107.54
  Q 52.06 111.49 51.76 112.38
  Q 50.10 117.30 44.90 120.38
  Q 42.44 121.84 40.99 124.90
  Q 40.12 126.75 40.60 129.15
  Q 41.58 134.00 42.94 138.45
  A 4.03 4.01 6.7 0 0 44.80 140.79
  Q 53.53 145.81 62.21 150.76
  C 66.65 153.30 67.95 149.92 71.01 149.96
  C 75.25 150.01 78.68 153.36 76.99 157.58
  C 75.16 162.15 67.18 163.12 63.27 162.59
  Q 59.65 162.09 52.78 158.11
  Q 47.30 154.92 41.79 151.81
  A 0.40 0.40 0.0 0 0 41.29 151.90
  Q 39.37 154.23 36.96 156.21
  Q 26.82 164.54 17.00 173.25
  C 15.86 174.26 14.37 175.31 14.20 176.89
  C 13.83 180.24 17.05 181.99 19.91 180.94
  Q 23.28 179.70 24.49 178.74
  Q 34.88 170.46 38.80 167.82
  C 52.27 158.74 74.59 167.86 73.47 185.50
  Q 73.45 185.84 73.26 186.15
  C 72.41 187.60 72.81 189.07 72.36 190.67
  Q 71.83 192.52 71.77 193.47
  C 71.52 196.89 69.89 202.88 73.72 204.83
  C 83.10 209.59 85.71 195.44 90.13 190.65
  Z"
/>
<path fill="#ffffff" d="
  M 90.13 190.65
  C 85.71 195.44 83.10 209.59 73.72 204.83
  C 69.89 202.88 71.52 196.89 71.77 193.47
  Q 71.83 192.52 72.36 190.67
  C 72.81 189.07 72.41 187.60 73.26 186.15
  Q 73.45 185.84 73.47 185.50
  C 74.59 167.86 52.27 158.74 38.80 167.82
  Q 34.88 170.46 24.49 178.74
  Q 23.28 179.70 19.91 180.94
  C 17.05 181.99 13.83 180.24 14.20 176.89
  C 14.37 175.31 15.86 174.26 17.00 173.25
  Q 26.82 164.54 36.96 156.21
  Q 39.37 154.23 41.29 151.90
  A 0.40 0.40 0.0 0 1 41.79 151.81
  Q 47.30 154.92 52.78 158.11
  Q 59.65 162.09 63.27 162.59
  C 67.18 163.12 75.16 162.15 76.99 157.58
  C 78.68 153.36 75.25 150.01 71.01 149.96
  C 67.95 149.92 66.65 153.30 62.21 150.76
  Q 53.53 145.81 44.80 140.79
  A 4.03 4.01 6.7 0 1 42.94 138.45
  Q 41.58 134.00 40.60 129.15
  Q 40.12 126.75 40.99 124.90
  Q 42.44 121.84 44.90 120.38
  Q 50.10 117.30 51.76 112.38
  Q 52.06 111.49 52.22 107.54
  Q 52.38 103.58 54.96 100.33
  A 1.43 1.40 -76.8 0 1 55.75 99.83
  C 60.98 98.66 67.07 97.90 70.39 92.75
  Q 72.00 90.27 73.41 83.66
  C 77.52 64.43 80.49 45.72 83.56 26.75
  A 0.32 0.32 0.0 0 1 84.14 26.61
  Q 93.89 39.51 100.11 54.05
  Q 103.41 61.75 104.22 68.25
  C 105.54 78.86 99.85 85.25 90.75 89.41
  C 83.94 92.52 86.33 101.88 93.75 101.34
  Q 101.29 100.78 116.52 96.62
  Q 148.86 87.77 179.58 78.26
  Q 182.09 77.48 180.08 79.17
  C 159.99 96.06 137.27 104.18 111.33 106.18
  Q 109.52 106.32 110.64 107.75
  Q 120.06 119.82 126.70 133.54
  C 131.09 142.59 132.36 151.07 132.81 160.91
  C 133.27 170.93 131.97 180.16 128.49 191.27
  C 127.72 193.74 126.45 196.09 125.43 198.54
  Q 122.13 206.46 117.77 212.94
  Q 116.17 215.32 116.58 212.48
  Q 117.57 205.59 115.24 197.99
  C 111.83 186.91 99.16 180.88 90.13 190.65
  Z
  M 100.55 131.72
  C 99.75 135.25 94.63 137.35 92.57 140.21
  C 89.82 144.01 87.50 152.34 92.08 155.72
  C 94.77 157.71 98.46 157.14 99.71 153.75
  C 101.04 150.17 99.68 146.65 102.92 143.68
  Q 106.90 140.03 110.73 136.24
  Q 112.22 134.76 112.45 132.00
  C 112.81 127.63 112.28 124.65 108.93 121.62
  C 100.44 113.99 85.09 114.86 79.54 125.57
  C 77.79 128.95 77.22 133.01 80.42 135.56
  C 83.43 137.96 87.37 136.56 88.41 132.95
  Q 89.11 130.50 89.12 130.47
  C 91.70 124.85 102.30 124.02 100.55 131.72
  Z
  M 100.26 166.05
  A 4.88 4.88 0.0 0 0 95.38 161.17
  A 4.88 4.88 0.0 0 0 90.50 166.05
  A 4.88 4.88 0.0 0 0 95.38 170.93
  A 4.88 4.88 0.0 0 0 100.26 166.05
  Z"
/>
<path fill="#c63221" d="
  M 100.55 131.72
  C 102.30 124.02 91.70 124.85 89.12 130.47
  Q 89.11 130.50 88.41 132.95
  C 87.37 136.56 83.43 137.96 80.42 135.56
  C 77.22 133.01 77.79 128.95 79.54 125.57
  C 85.09 114.86 100.44 113.99 108.93 121.62
  C 112.28 124.65 112.81 127.63 112.45 132.00
  Q 112.22 134.76 110.73 136.24
  Q 106.90 140.03 102.92 143.68
  C 99.68 146.65 101.04 150.17 99.71 153.75
  C 98.46 157.14 94.77 157.71 92.08 155.72
  C 87.50 152.34 89.82 144.01 92.57 140.21
  C 94.63 137.35 99.75 135.25 100.55 131.72
  Z"
/>
<circle fill="#c63221" cx="95.38" cy="166.05" r="4.88"/>
</svg>
