<?xml version="1.0" encoding="UTF-8" standalone="no"?>
<!DOCTYPE svg PUBLIC "-//W3C//DTD SVG 1.1//EN" "http://www.w3.org/Graphics/SVG/1.1/DTD/svg11.dtd">
<svg xmlns="http://www.w3.org/2000/svg" version="1.1" viewBox="0.00 0.00 218.00 215.00">
<g stroke-width="2.00" fill="none" stroke-linecap="butt">
<path stroke="#e39990" vector-effect="non-scaling-stroke" d="
  M 45.17 160.42
  Q 34.13 167.20 24.11 175.86
  Q 21.71 177.93 21.74 180.50
  Q 21.83 189.32 24.16 199.40
  Q 24.45 200.67 25.76 200.60
  C 33.39 200.21 39.12 199.20 48.85 199.17
  Q 49.36 199.17 49.42 198.66
  Q 50.40 190.96 51.43 183.27
  Q 51.76 180.79 52.82 179.32
  Q 65.30 162.02 85.01 153.80
  Q 86.44 153.20 88.00 153.28
  C 91.80 153.46 95.63 153.75 99.33 153.55
  C 131.45 151.85 167.95 139.57 190.04 115.03
  C 205.92 97.39 206.96 76.31 202.18 53.76
  C 199.67 41.96 194.40 35.11 183.87 29.37
  C 167.36 20.38 146.25 14.99 128.00 13.75
  C 97.79 11.70 63.76 17.32 36.52 32.06
  C 20.27 40.85 9.60 56.25 13.89 75.42
  Q 14.27 77.12 14.54 78.83
  C 14.69 79.84 15.22 80.50 15.57 81.41
  A 0.62 0.61 -24.5 0 0 16.43 81.73
  L 67.84 54.87
  A 0.44 0.43 68.9 0 1 68.46 55.15
  Q 69.90 60.95 70.42 66.26
  C 73.31 95.22 53.90 118.93 25.07 121.97
  Q 24.55 122.02 24.57 122.55
  C 25.23 138.20 34.16 149.63 45.25 159.45
  A 0.60 0.60 0.0 0 1 45.17 160.42"
/>
<path stroke="#e39990" vector-effect="non-scaling-stroke" d="
  M 104.80 108.35
  L 118.60 103.25
  A 1.03 1.01 -40.8 0 1 119.41 103.30
  C 122.02 104.64 124.60 105.87 127.32 106.46
  C 147.75 110.84 163.22 89.52 153.61 71.44
  C 152.92 70.15 151.72 68.68 150.87 67.19
  Q 150.60 66.72 150.83 66.22
  L 153.11 61.09
  A 2.27 2.27 0.0 0 1 155.23 59.74
  L 160.57 59.82
  A 1.89 1.89 0.0 0 1 162.32 61.08
  C 165.82 70.87 177.64 74.33 186.11 68.31
  C 196.54 60.89 193.76 44.31 181.47 40.76
  C 175.09 38.92 168.70 41.08 164.47 46.56
  A 2.43 2.43 0.0 0 1 162.55 47.50
  L 147.69 47.48
  A 3.62 3.60 11.2 0 0 144.35 49.71
  L 140.58 58.89
  A 1.45 1.45 0.0 0 1 138.91 59.75
  Q 130.11 57.72 121.78 61.25
  Q 121.29 61.45 120.92 61.08
  L 115.94 56.11
  Q 114.99 55.17 115.58 53.97
  C 119.54 45.91 116.67 35.09 108.94 30.09
  C 97.53 22.72 82.18 28.79 79.32 42.21
  C 76.14 57.10 90.71 68.94 104.73 64.21
  A 2.33 2.33 0.0 0 1 107.13 64.79
  L 111.88 69.68
  A 0.57 0.57 0.0 0 1 111.97 70.37
  Q 105.96 80.67 110.21 92.05
  Q 110.58 93.02 109.60 93.39
  L 94.47 98.96
  A 3.72 3.71 80.3 0 0 92.03 102.41
  L 91.90 111.78
  Q 91.88 112.72 91.02 113.12
  C 82.83 116.91 80.51 126.80 84.66 134.49
  C 89.96 144.31 103.48 144.87 110.40 136.63
  C 116.77 129.04 114.01 117.40 104.84 112.81
  Q 104.31 112.54 104.32 111.95
  L 104.33 109.01
  A 0.71 0.70 -10.1 0 1 104.80 108.35"
/>
<path stroke="#e39990" vector-effect="non-scaling-stroke" d="
  M 106.52 46.11
  A 8.30 8.30 0.0 0 0 98.22 37.81
  A 8.30 8.30 0.0 0 0 89.92 46.11
  A 8.30 8.30 0.0 0 0 98.22 54.41
  A 8.30 8.30 0.0 0 0 106.52 46.11"
/>
<path stroke="#e39990" vector-effect="non-scaling-stroke" d="
  M 181.71 55.68
  A 4.71 4.71 0.0 0 0 177.00 50.97
  A 4.71 4.71 0.0 0 0 172.29 55.68
  A 4.71 4.71 0.0 0 0 177.00 60.39
  A 4.71 4.71 0.0 0 0 181.71 55.68"
/>
<path stroke="#e39990" vector-effect="non-scaling-stroke" d="
  M 145.65 82.93
  A 13.13 13.13 0.0 0 0 132.52 69.80
  A 13.13 13.13 0.0 0 0 119.39 82.93
  A 13.13 13.13 0.0 0 0 132.52 96.06
  A 13.13 13.13 0.0 0 0 145.65 82.93"
/>
<path stroke="#e39990" vector-effect="non-scaling-stroke" d="
  M 102.79 126.85
  A 4.62 4.62 0.0 0 0 98.17 122.23
  A 4.62 4.62 0.0 0 0 93.55 126.85
  A 4.62 4.62 0.0 0 0 98.17 131.47
  A 4.62 4.62 0.0 0 0 102.79 126.85"
/>
</g>
<path fill="#ffffff" d="
  M 27.99 157.64
  Q 24.70 154.42 22.11 150.06
  Q 11.58 132.31 13.96 111.62
  Q 14.02 111.12 14.52 111.14
  Q 21.52 111.41 23.87 111.15
  C 40.68 109.26 54.20 98.68 58.63 82.23
  C 59.47 79.12 59.69 75.46 60.15 72.08
  A 0.49 0.49 0.0 0 0 59.43 71.58
  L 11.98 96.47
  Q 11.32 96.82 10.91 96.19
  C 5.88 88.45 2.80 79.73 2.29 70.44
  C 1.03 47.32 13.46 31.87 33.41 21.47
  Q 52.34 11.61 73.24 7.17
  C 111.90 -1.04 155.82 0.77 190.46 20.57
  C 198.65 25.26 205.19 30.84 209.17 40.09
  Q 212.47 47.75 213.93 55.97
  Q 216.62 71.12 215.05 85.50
  C 212.10 112.46 191.94 132.79 169.28 145.04
  Q 131.57 165.43 88.50 164.47
  Q 87.07 164.44 84.41 165.85
  C 78.08 169.21 62.13 180.35 61.44 188.24
  Q 60.50 198.99 59.25 209.42
  Q 59.17 210.11 58.48 210.08
  Q 44.80 209.62 31.17 210.99
  C 27.47 211.36 22.16 212.31 17.61 212.74
  Q 17.10 212.79 16.94 212.30
  Q 15.57 207.91 14.26 203.60
  Q 9.77 188.82 11.55 173.52
  Q 11.61 172.97 12.00 172.57
  Q 19.34 164.89 27.92 158.66
  Q 28.56 158.20 27.99 157.64
  Z
  M 45.17 160.42
  Q 34.13 167.20 24.11 175.86
  Q 21.71 177.93 21.74 180.50
  Q 21.83 189.32 24.16 199.40
  Q 24.45 200.67 25.76 200.60
  C 33.39 200.21 39.12 199.20 48.85 199.17
  Q 49.36 199.17 49.42 198.66
  Q 50.40 190.96 51.43 183.27
  Q 51.76 180.79 52.82 179.32
  Q 65.30 162.02 85.01 153.80
  Q 86.44 153.20 88.00 153.28
  C 91.80 153.46 95.63 153.75 99.33 153.55
  C 131.45 151.85 167.95 139.57 190.04 115.03
  C 205.92 97.39 206.96 76.31 202.18 53.76
  C 199.67 41.96 194.40 35.11 183.87 29.37
  C 167.36 20.38 146.25 14.99 128.00 13.75
  C 97.79 11.70 63.76 17.32 36.52 32.06
  C 20.27 40.85 9.60 56.25 13.89 75.42
  Q 14.27 77.12 14.54 78.83
  C 14.69 79.84 15.22 80.50 15.57 81.41
  A 0.62 0.61 -24.5 0 0 16.43 81.73
  L 67.84 54.87
  A 0.44 0.43 68.9 0 1 68.46 55.15
  Q 69.90 60.95 70.42 66.26
  C 73.31 95.22 53.90 118.93 25.07 121.97
  Q 24.55 122.02 24.57 122.55
  C 25.23 138.20 34.16 149.63 45.25 159.45
  A 0.60 0.60 0.0 0 1 45.17 160.42
  Z"
/>
<path fill="#c63221" d="
  M 45.17 160.42
  A 0.60 0.60 0.0 0 0 45.25 159.45
  C 34.16 149.63 25.23 138.20 24.57 122.55
  Q 24.55 122.02 25.07 121.97
  C 53.90 118.93 73.31 95.22 70.42 66.26
  Q 69.90 60.95 68.46 55.15
  A 0.44 0.43 68.9 0 0 67.84 54.87
  L 16.43 81.73
  A 0.62 0.61 -24.5 0 1 15.57 81.41
  C 15.22 80.50 14.69 79.84 14.54 78.83
  Q 14.27 77.12 13.89 75.42
  C 9.60 56.25 20.27 40.85 36.52 32.06
  C 63.76 17.32 97.79 11.70 128.00 13.75
  C 146.25 14.99 167.36 20.38 183.87 29.37
  C 194.40 35.11 199.67 41.96 202.18 53.76
  C 206.96 76.31 205.92 97.39 190.04 115.03
  C 167.95 139.57 131.45 151.85 99.33 153.55
  C 95.63 153.75 91.80 153.46 88.00 153.28
  Q 86.44 153.20 85.01 153.80
  Q 65.30 162.02 52.82 179.32
  Q 51.76 180.79 51.43 183.27
  Q 50.40 190.96 49.42 198.66
  Q 49.36 199.17 48.85 199.17
  C 39.12 199.20 33.39 200.21 25.76 200.60
  Q 24.45 200.67 24.16 199.40
  Q 21.83 189.32 21.74 180.50
  Q 21.71 177.93 24.11 175.86
  Q 34.13 167.20 45.17 160.42
  Z
  M 104.80 108.35
  L 118.60 103.25
  A 1.03 1.01 -40.8 0 1 119.41 103.30
  C 122.02 104.64 124.60 105.87 127.32 106.46
  C 147.75 110.84 163.22 89.52 153.61 71.44
  C 152.92 70.15 151.72 68.68 150.87 67.19
  Q 150.60 66.72 150.83 66.22
  L 153.11 61.09
  A 2.27 2.27 0.0 0 1 155.23 59.74
  L 160.57 59.82
  A 1.89 1.89 0.0 0 1 162.32 61.08
  C 165.82 70.87 177.64 74.33 186.11 68.31
  C 196.54 60.89 193.76 44.31 181.47 40.76
  C 175.09 38.92 168.70 41.08 164.47 46.56
  A 2.43 2.43 0.0 0 1 162.55 47.50
  L 147.69 47.48
  A 3.62 3.60 11.2 0 0 144.35 49.71
  L 140.58 58.89
  A 1.45 1.45 0.0 0 1 138.91 59.75
  Q 130.11 57.72 121.78 61.25
  Q 121.29 61.45 120.92 61.08
  L 115.94 56.11
  Q 114.99 55.17 115.58 53.97
  C 119.54 45.91 116.67 35.09 108.94 30.09
  C 97.53 22.72 82.18 28.79 79.32 42.21
  C 76.14 57.10 90.71 68.94 104.73 64.21
  A 2.33 2.33 0.0 0 1 107.13 64.79
  L 111.88 69.68
  A 0.57 0.57 0.0 0 1 111.97 70.37
  Q 105.96 80.67 110.21 92.05
  Q 110.58 93.02 109.60 93.39
  L 94.47 98.96
  A 3.72 3.71 80.3 0 0 92.03 102.41
  L 91.90 111.78
  Q 91.88 112.72 91.02 113.12
  C 82.83 116.91 80.51 126.80 84.66 134.49
  C 89.96 144.31 103.48 144.87 110.40 136.63
  C 116.77 129.04 114.01 117.40 104.84 112.81
  Q 104.31 112.54 104.32 111.95
  L 104.33 109.01
  A 0.71 0.70 -10.1 0 1 104.80 108.35
  Z"
/>
<path fill="#ffffff" d="
  M 104.33 109.01
  L 104.32 111.95
  Q 104.31 112.54 104.84 112.81
  C 114.01 117.40 116.77 129.04 110.40 136.63
  C 103.48 144.87 89.96 144.31 84.66 134.49
  C 80.51 126.80 82.83 116.91 91.02 113.12
  Q 91.88 112.72 91.90 111.78
  L 92.03 102.41
  A 3.72 3.71 80.3 0 1 94.47 98.96
  L 109.60 93.39
  Q 110.58 93.02 110.21 92.05
  Q 105.96 80.67 111.97 70.37
  A 0.57 0.57 0.0 0 0 111.88 69.68
  L 107.13 64.79
  A 2.33 2.33 0.0 0 0 104.73 64.21
  C 90.71 68.94 76.14 57.10 79.32 42.21
  C 82.18 28.79 97.53 22.72 108.94 30.09
  C 116.67 35.09 119.54 45.91 115.58 53.97
  Q 114.99 55.17 115.94 56.11
  L 120.92 61.08
  Q 121.29 61.45 121.78 61.25
  Q 130.11 57.72 138.91 59.75
  A 1.45 1.45 0.0 0 0 140.58 58.89
  L 144.35 49.71
  A 3.62 3.60 11.2 0 1 147.69 47.48
  L 162.55 47.50
  A 2.43 2.43 0.0 0 0 164.47 46.56
  C 168.70 41.08 175.09 38.92 181.47 40.76
  C 193.76 44.31 196.54 60.89 186.11 68.31
  C 177.64 74.33 165.82 70.87 162.32 61.08
  A 1.89 1.89 0.0 0 0 160.57 59.82
  L 155.23 59.74
  A 2.27 2.27 0.0 0 0 153.11 61.09
  L 150.83 66.22
  Q 150.60 66.72 150.87 67.19
  C 151.72 68.68 152.92 70.15 153.61 71.44
  C 163.22 89.52 147.75 110.84 127.32 106.46
  C 124.60 105.87 122.02 104.64 119.41 103.30
  A 1.03 1.01 -40.8 0 0 118.60 103.25
  L 104.80 108.35
  A 0.71 0.70 -10.1 0 0 104.33 109.01
  Z
  M 106.52 46.11
  A 8.30 8.30 0.0 0 0 98.22 37.81
  A 8.30 8.30 0.0 0 0 89.92 46.11
  A 8.30 8.30 0.0 0 0 98.22 54.41
  A 8.30 8.30 0.0 0 0 106.52 46.11
  Z
  M 181.71 55.68
  A 4.71 4.71 0.0 0 0 177.00 50.97
  A 4.71 4.71 0.0 0 0 172.29 55.68
  A 4.71 4.71 0.0 0 0 177.00 60.39
  A 4.71 4.71 0.0 0 0 181.71 55.68
  Z
  M 145.65 82.93
  A 13.13 13.13 0.0 0 0 132.52 69.80
  A 13.13 13.13 0.0 0 0 119.39 82.93
  A 13.13 13.13 0.0 0 0 132.52 96.06
  A 13.13 13.13 0.0 0 0 145.65 82.93
  Z
  M 102.79 126.85
  A 4.62 4.62 0.0 0 0 98.17 122.23
  A 4.62 4.62 0.0 0 0 93.55 126.85
  A 4.62 4.62 0.0 0 0 98.17 131.47
  A 4.62 4.62 0.0 0 0 102.79 126.85
  Z"
/>
<circle fill="#c63221" cx="98.22" cy="46.11" r="8.30"/>
<circle fill="#c63221" cx="177.00" cy="55.68" r="4.71"/>
<circle fill="#c63221" cx="132.52" cy="82.93" r="13.13"/>
<circle fill="#c63221" cx="98.17" cy="126.85" r="4.62"/>
</svg>
