<?xml version="1.0" encoding="UTF-8"?>
<!DOCTYPE svg PUBLIC "-//W3C//DTD SVG 1.1//EN" "http://www.w3.org/Graphics/SVG/1.1/DTD/svg11.dtd">
<svg xmlns="http://www.w3.org/2000/svg" version="1.1" width="192px" height="158px" style="shape-rendering:geometricPrecision; text-rendering:geometricPrecision; image-rendering:optimizeQuality; fill-rule:evenodd; clip-rule:evenodd" xmlns:xlink="http://www.w3.org/1999/xlink">
<g><path style="opacity:0.906" fill="#fefffe" d="M 23.5,-0.5 C 52.5,-0.5 81.5,-0.5 110.5,-0.5C 114.739,3.17758 114.406,6.34425 109.5,9C 81.1667,9.33333 52.8333,9.66667 24.5,10C 15.9232,13.3259 10.7565,19.4926 9,28.5C 8.33333,61.8333 8.33333,95.1667 9,128.5C 10.7565,137.507 15.9232,143.674 24.5,147C 52.8333,147.333 81.1667,147.667 109.5,148C 114.406,150.656 114.739,153.822 110.5,157.5C 81.5,157.5 52.5,157.5 23.5,157.5C 11.8333,153.167 3.83333,145.167 -0.5,133.5C -0.5,96.8333 -0.5,60.1667 -0.5,23.5C 3.83333,11.8333 11.8333,3.83333 23.5,-0.5 Z"/></g>
<g><path style="opacity:0.985" fill="#c63121" d="M 191.5,75.5 C 191.5,77.8333 191.5,80.1667 191.5,82.5C 171.338,101.828 151.005,120.995 130.5,140C 126.328,141.291 123.161,140.124 121,136.5C 120.5,120.17 120.333,103.837 120.5,87.5C 96.831,87.6666 73.1643,87.5 49.5,87C 43.6318,83.9598 42.1318,79.4598 45,73.5C 46.214,71.9512 47.714,70.7845 49.5,70C 73.1643,69.5 96.831,69.3334 120.5,69.5C 120.333,53.1633 120.5,36.8299 121,20.5C 123.161,16.8759 126.328,15.7093 130.5,17C 151.362,36.0301 171.695,55.5301 191.5,75.5 Z"/></g>
</svg>
