<?xml version="1.0" encoding="UTF-8"?>
<!DOCTYPE svg PUBLIC "-//W3C//DTD SVG 1.1//EN" "http://www.w3.org/Graphics/SVG/1.1/DTD/svg11.dtd">
<svg xmlns="http://www.w3.org/2000/svg" version="1.1" width="180px" height="157px" style="shape-rendering:geometricPrecision; text-rendering:geometricPrecision; image-rendering:optimizeQuality; fill-rule:evenodd; clip-rule:evenodd" xmlns:xlink="http://www.w3.org/1999/xlink">
<g><path style="opacity:0.914" fill="#fefffe" d="M 84.5,-0.5 C 107.833,-0.5 131.167,-0.5 154.5,-0.5C 166.351,3.89644 174.684,11.8964 179.5,23.5C 179.5,59.8333 179.5,96.1667 179.5,132.5C 174.798,144.201 166.464,152.201 154.5,156.5C 131.167,156.5 107.833,156.5 84.5,156.5C 81.1772,151.94 82.1772,148.773 87.5,147C 109.5,146.667 131.5,146.333 153.5,146C 162.186,143.313 167.353,137.479 169,128.5C 169.667,94.8333 169.667,61.1667 169,27.5C 166.725,16.892 160.225,10.7254 149.5,9C 127.833,8.66667 106.167,8.33333 84.5,8C 81.8987,5.17047 81.8987,2.33713 84.5,-0.5 Z"/></g>
<g><path style="opacity:0.973" fill="#82c415" d="M -0.5,80.5 C -0.5,78.8333 -0.5,77.1667 -0.5,75.5C 1.39512,72.4433 4.06178,70.2767 7.5,69C 27.8306,68.5 48.1639,68.3334 68.5,68.5C 68.3334,52.1633 68.5001,35.8299 69,19.5C 71.8134,15.5587 75.3134,14.7253 79.5,17C 99.3333,36.1667 119.167,55.3333 139,74.5C 139.755,77.3033 139.422,79.9699 138,82.5C 118.469,101.699 98.6359,120.532 78.5,139C 74.328,140.291 71.1613,139.124 69,135.5C 68.5001,119.503 68.3334,103.503 68.5,87.5C 47.8306,87.6666 27.164,87.5 6.5,87C 3.64238,85.3059 1.30904,83.1393 -0.5,80.5 Z"/></g>
</svg>
