<?xml version="1.0" encoding="UTF-8"?>
<!DOCTYPE svg PUBLIC "-//W3C//DTD SVG 1.1//EN" "http://www.w3.org/Graphics/SVG/1.1/DTD/svg11.dtd">
<svg xmlns="http://www.w3.org/2000/svg" version="1.1" width="186px" height="192px" style="shape-rendering:geometricPrecision; text-rendering:geometricPrecision; image-rendering:optimizeQuality; fill-rule:evenodd; clip-rule:evenodd" xmlns:xlink="http://www.w3.org/1999/xlink">
<g><path style="opacity:0.959" fill="#fefffe" d="M 91.5,-0.5 C 92.1667,-0.5 92.8333,-0.5 93.5,-0.5C 100.161,19.8162 106.828,40.1496 113.5,60.5C 130.624,56.3023 147.624,51.6357 164.5,46.5C 165.521,47.0016 165.688,47.6683 165,48.5C 157.379,58.2434 149.879,68.0767 142.5,78C 156.684,83.6718 171.018,88.8384 185.5,93.5C 185.5,94.5 185.5,95.5 185.5,96.5C 123.5,95.1667 61.5,95.1667 -0.5,96.5C -0.5,95.5 -0.5,94.5 -0.5,93.5C 15.9735,88.9385 32.3068,83.7718 48.5,78C 38.1667,69 27.8333,60 17.5,51C 36.8823,53.2411 56.2156,56.0745 75.5,59.5C 76.086,59.2907 76.586,58.9574 77,58.5C 81.9956,38.8514 86.8289,19.1847 91.5,-0.5 Z"/></g>
<g><path style="opacity:0.97" fill="#fefffe" d="M 133.5,191.5 C 105.833,191.5 78.1667,191.5 50.5,191.5C 50.1669,164.159 50.5002,136.825 51.5,109.5C 65.1234,108.842 78.79,108.508 92.5,108.5C 106.073,108.504 119.573,108.838 133,109.5C 133.5,136.831 133.667,164.165 133.5,191.5 Z"/></g>
</svg>
