<svg xmlns="http://www.w3.org/2000/svg" width="238" height="204" viewBox="0 0 238 204" version="1.1"><path d="M 22.167 66.842 C 23.070 69.124, 74.568 157.953, 75 157.974 C 75.275 157.987, 76.822 155.636, 78.439 152.749 C 80.055 149.862, 91.868 129.356, 104.689 107.179 C 117.510 85.003, 128 66.666, 128 66.429 C 128 66.193, 104.112 66, 74.917 66 C 45.721 66, 21.983 66.379, 22.167 66.842" stroke="none" fill="#c43324" fill-rule="evenodd"/><path d="M 142.557 2.223 C 140.717 4.849, 140.309 25.841, 142.035 29.066 C 143.035 30.935, 144.610 31, 188.601 31 C 218.074 31, 234.814 30.635, 236.066 29.965 C 237.819 29.026, 238 27.765, 238 16.465 C 238 5.333, 237.786 3.786, 236 2 C 233.517 -0.483, 231.789 -0.530, 229.655 1.829 C 228.383 3.234, 228 5.663, 228 12.329 L 228 21 211.250 20.999 L 194.500 20.997 194.212 16.805 C 193.872 11.870, 192.586 10, 189.533 10 C 186.333 10, 184 13.090, 184 17.329 L 184 21 167.500 21 L 151 21 151 12.155 C 151 4.856, 150.680 3.021, 149.171 1.655 C 146.665 -0.613, 144.407 -0.420, 142.557 2.223 M 61.486 22.389 C 26.343 29.108, -0.052 61.003, 0.017 96.667 C 0.076 127.017, 20.066 155.775, 48.631 166.604 C 61.454 171.465, 78.005 172.800, 90.559 169.987 C 96.455 168.666, 110.778 163.169, 111.541 161.934 C 113.021 159.539, 116.395 162.298, 133.936 180.250 C 155.994 202.824, 161.038 206.230, 167.264 202.750 C 175.530 198.130, 179.155 190.123, 175.894 183.684 C 175.285 182.483, 165.801 172.461, 154.817 161.414 L 134.846 141.328 137.948 136.732 C 145.904 124.944, 149.378 112.743, 149.402 96.500 C 149.429 78.774, 145.626 66.774, 135.417 52.372 C 125.897 38.942, 109.491 27.621, 93.500 23.445 C 85.143 21.263, 69.988 20.763, 61.486 22.389 M 63.500 32.478 C 43.759 36.137, 27.378 48.230, 18.092 66 C 12.671 76.374, 10.656 84.521, 10.672 96 C 10.708 121.298, 24.107 143.319, 46.246 154.465 C 56.101 159.427, 66.018 161.364, 78.365 160.739 C 95.599 159.866, 108.309 154.279, 120.364 142.278 C 140.707 122.024, 145.306 91.639, 131.908 66 C 122.513 48.021, 106.192 36.086, 86 32.428 C 76.892 30.779, 72.618 30.788, 63.500 32.478" stroke="none" fill="#fcfcfc" fill-rule="evenodd"/></svg>