<?xml version="1.0" encoding="UTF-8"?>
<!DOCTYPE svg PUBLIC "-//W3C//DTD SVG 1.1//EN" "http://www.w3.org/Graphics/SVG/1.1/DTD/svg11.dtd">
<svg xmlns="http://www.w3.org/2000/svg" version="1.1" width="232px" height="198px" style="shape-rendering:geometricPrecision; text-rendering:geometricPrecision; image-rendering:optimizeQuality; fill-rule:evenodd; clip-rule:evenodd" xmlns:xlink="http://www.w3.org/1999/xlink">
<g><path style="opacity:0.964" fill="#fefffe" d="M 172.5,-0.5 C 175.5,-0.5 178.5,-0.5 181.5,-0.5C 186.786,1.22868 191.619,3.89535 196,7.5C 200.167,4.17047 204.667,1.5038 209.5,-0.5C 213.167,-0.5 216.833,-0.5 220.5,-0.5C 223.022,1.36056 225.522,3.36056 228,5.5C 228.716,7.8791 229.883,9.8791 231.5,11.5C 231.5,14.1667 231.5,16.8333 231.5,19.5C 228.047,27.048 223.547,34.048 218,40.5C 210.982,47.0192 203.815,53.3525 196.5,59.5C 183.434,50.2685 172.601,38.9352 164,25.5C 158.978,14.0681 161.811,5.40145 172.5,-0.5 Z"/></g>
<g><path style="opacity:0.925" fill="#fefffe" d="M 167.5,197.5 C 164.5,197.5 161.5,197.5 158.5,197.5C 143.258,183.761 128.425,169.428 114,154.5C 95.4552,165.752 75.6218,168.585 54.5,163C 23.779,152.453 5.44563,131.286 -0.5,99.5C -0.5,93.8333 -0.5,88.1667 -0.5,82.5C 6.58261,45.5839 28.5826,23.4172 65.5,16C 105.875,13.9256 133.042,31.7589 147,69.5C 153.139,93.297 149.306,115.297 135.5,135.5C 149.182,149.348 162.682,163.348 176,177.5C 178.435,186.307 175.602,192.973 167.5,197.5 Z M 67.5,25.5 C 100.283,24.2937 123.117,38.627 136,68.5C 145.169,101.626 135.669,127.793 107.5,147C 77.6689,161.662 50.8356,157.495 27,134.5C 6.52454,107.797 5.19121,80.1303 23,51.5C 34.6427,37.2656 49.476,28.599 67.5,25.5 Z"/></g>
<g><path style="opacity:0.97" fill="#c63121" d="M 22.5,59.5 C 57.5,59.5 92.5,59.5 127.5,59.5C 126.908,62.6907 125.741,65.6907 124,68.5C 107.907,96.3601 91.5734,124.027 75,151.5C 56.205,121.577 38.705,90.9106 22.5,59.5 Z"/></g>
</svg>
