<?xml version="1.0" encoding="UTF-8" standalone="no"?>
<svg
   version="1.1"
   viewBox="0 0 186 122"
   id="svg36"
   sodipodi:docname="foe_in_zone.svg"
   inkscape:version="1.2.2 (b0a8486541, 2022-12-01)"
   xmlns:inkscape="http://www.inkscape.org/namespaces/inkscape"
   xmlns:sodipodi="http://sodipodi.sourceforge.net/DTD/sodipodi-0.dtd"
   xmlns="http://www.w3.org/2000/svg"
   xmlns:svg="http://www.w3.org/2000/svg">
  <defs
     id="defs40" />
  <sodipodi:namedview
     id="namedview38"
     pagecolor="#505050"
     bordercolor="#eeeeee"
     borderopacity="1"
     inkscape:showpageshadow="0"
     inkscape:pageopacity="0"
     inkscape:pagecheckerboard="0"
     inkscape:deskcolor="#505050"
     showgrid="false"
     inkscape:zoom="9.3133294"
     inkscape:cx="91.911277"
     inkscape:cy="40.372243"
     inkscape:window-width="3840"
     inkscape:window-height="2128"
     inkscape:window-x="0"
     inkscape:window-y="32"
     inkscape:window-maximized="1"
     inkscape:current-layer="svg36" />
  <g
     stroke-width="2.00"
     fill="none"
     stroke-linecap="butt"
     id="g20">
    <path
       stroke="#b42f20"
       stroke-opacity="0.557"
       vector-effect="non-scaling-stroke"
       d="   M 66.71 14.75   L 51.26 41.49   A 0.73 0.73 0.0 0 1 50.00 41.49   L 39.04 22.75"
       id="path2" />
    <path
       stroke="#e8e8e8"
       stroke-opacity="0.557"
       vector-effect="non-scaling-stroke"
       d="   M 136.00 57.21   L 127.75 54.21"
       id="path4" />
    <path
       stroke="#b42f20"
       stroke-opacity="0.557"
       vector-effect="non-scaling-stroke"
       d="   M 127.75 54.21   L 135.97 39.91   A 0.31 0.31 0.0 0 0 135.70 39.44   L 87.93 39.51   A 0.41 0.41 0.0 0 0 87.57 40.12   L 92.00 47.96"
       id="path6" />
    <path
       stroke="#e8e8e8"
       stroke-opacity="0.557"
       vector-effect="non-scaling-stroke"
       d="   M 92.00 47.96   C 80.85 48.82 71.11 49.18 60.25 52.46"
       id="path8" />
    <path
       stroke="#b42f20"
       stroke-opacity="0.557"
       vector-effect="non-scaling-stroke"
       d="   M 123.29 61.75   L 112.27 80.74   A 0.72 0.72 0.0 0 1 111.03 80.74   L 97.00 56.71"
       id="path10" />
    <path
       stroke="#e39990"
       vector-effect="non-scaling-stroke"
       d="   M 92.00 47.96   L 97.00 56.71"
       id="path12" />
    <path
       stroke="#e8e8e8"
       stroke-opacity="0.557"
       vector-effect="non-scaling-stroke"
       d="   M 97.00 56.71   C 84.79 56.10 72.88 57.60 61.25 61.21"
       id="path14" />
    <path
       stroke="#e8e8e8"
       stroke-opacity="0.557"
       vector-effect="non-scaling-stroke"
       d="   M 127.83 63.60   C 126.57 62.69 125.06 62.08 123.29 61.75"
       id="path16" />
    <path
       stroke="#e39990"
       vector-effect="non-scaling-stroke"
       d="   M 123.29 61.75   L 127.75 54.21"
       id="path18" />
  </g>
  <path
     fill="#ffffff"
     d="M 60.25,52.46 C 71.11,49.18 80.85,48.82 92,47.96 l 5,8.75 c -12.21,-0.61 -24.12,0.89 -35.75,4.5 -5.17,1.47 -10.15,3.44 -14.92,5.91 -0.129968,0.07028 -0.155091,0.246143 -0.05,0.35 l 45.28,45.22 c 0.860829,0.86335 2.261376,0.86335 3.13,0 l 44.12,-44.13 c 0.20296,-0.200415 0.15811,-0.539285 -0.09,-0.68 -3.23,-1.81 -6.86,-3.24 -10.89,-4.28 -1.6499,-0.477973 -3.24052,-0.907833 -5.01052,-1.237833 L 127.75,54.21 l 8.25,3 9.32,4.17 c 0.31,0.14 0.59,0.09 0.83,-0.15 10.44,-10.45 20.87,-20.87 31.29,-31.27 3.58,-3.57 5.00423,-0.988774 7.25423,1.501226 0.44,0.48 1.38577,1.818774 0.92577,2.278774 C 157.53,61.89 129.41,90 101.25,118.08 94.46,124.84 88.17,121.7 82.48,116.02 45.56,79.13 18.41,51.95 1.02,34.48 -0.97212225,32.486791 1.4506632,30.449659 1.8671924,29.942061 4.1417104,27.166372 6.45,28.03 8.84,30.33 c 10.35,9.93 20.53,20.05 30.53,30.34 0.23,0.25 0.5,0.29 0.79,0.12 6.38,-3.6 13.08,-6.38 20.09,-8.33 z"
     id="path22"
     sodipodi:nodetypes="ccccccccccccccccccccccccccc" />
  <g
     fill="#c63221"
     id="g28">
    <path
       d="   M 66.71 14.75   L 51.26 41.49   A 0.73 0.73 0.0 0 1 50.00 41.49   L 39.04 22.75   L 26.44 0.78   C 26.24 0.43 26.34 0.25 26.75 0.25   L 74.25 0.25   A 0.50 0.50 0.0 0 1 74.69 1.00   L 66.71 14.75   Z"
       id="path24" />
    <path
       d="   M 127.75 54.21   L 123.29 61.75   L 112.27 80.74   A 0.72 0.72 0.0 0 1 111.03 80.74   L 97.00 56.71   L 92.00 47.96   L 87.57 40.12   A 0.41 0.41 0.0 0 1 87.93 39.51   L 135.70 39.44   A 0.31 0.31 0.0 0 1 135.97 39.91   L 127.75 54.21   Z"
       id="path26" />
  </g>
  <g
     fill="white"
     fill-opacity="0.11"
     id="g34">
    <path
       d="m 136,57.21 -8.25,-3 8.22,-14.3 c 0.12558,-0.208338 -0.0268,-0.473532 -0.27,-0.47 l -47.77,0.07 c -0.313993,-0.0016 -0.513173,0.335898 -0.36,0.61 L 92,47.96 c -11.15,0.86 -20.89,1.22 -31.75,4.5 -6.051668,1.853385 -10.589259,3.323357 -18.87097,7.674197 -1.111998,0.567232 -1.702184,0.817341 -2.391899,0.132244 L 13.876306,35.189958 C 13.074346,34.399385 15.462016,33.039775 16.49,32.58 l 21.16,-9.5 c 1.667809,-0.800286 1.295182,-0.32673 1.39,-0.33 L 50,41.49 c 0.281927,0.481624 0.978073,0.481624 1.26,0 L 65.508114,16.797044 C 85.053088,14.847955 107.43574,14.222926 124.83,18.32 c 13.91,3.38 26.71,7.94 39.63,14.69 2.20466,1.146843 1.73162,0.892059 5.57637,4.352358 l -23.49499,23.452447 c -0.507,0.494415 -0.66839,0.91072 -1.5213,0.423193 C 141.13875,59.510325 142.81223,60.262728 136,57.21 Z"
       id="path30"
       sodipodi:nodetypes="ccccccccccccccccccccccc" />
    <path
       d="m 97,56.71 14.03,24.03 c 0.27863,0.47192 0.96137,0.47192 1.24,0 l 10.67232,-18.335546 c 1.77,0.33 3.22003,0.721758 4.88768,1.195546 1.23015,0.289855 7.14722,2.050781 11.0668,4.392555 0.27,0.15 -0.0553,0.531022 -0.33054,0.832929 -1.63256,1.649786 -1.75638,1.765981 -5.40861,5.374944 -12.88048,13.292198 -27.24978,27.425862 -38.635866,38.666132 -0.971082,0.54332 -1.562403,0.5874 -2.588925,0.16379 C 68.940881,90.212337 77.98525,99.172562 46.102633,67.280177 46.482101,67.181379 46.80111,65.976376 61.25,61.21 72.88,57.6 84.79,56.1 97,56.71 Z"
       id="path32"
       sodipodi:nodetypes="ccccccccccccc" />
  </g>
</svg>
