<?xml version="1.0" encoding="UTF-8" standalone="no"?>
<svg
   version="1.1"
   viewBox="0 0 236 202"
   id="svg28"
   sodipodi:docname="foe_at_base.svg"
   inkscape:version="1.2.2 (b0a8486541, 2022-12-01)"
   xmlns:inkscape="http://www.inkscape.org/namespaces/inkscape"
   xmlns:sodipodi="http://sodipodi.sourceforge.net/DTD/sodipodi-0.dtd"
   xmlns="http://www.w3.org/2000/svg"
   xmlns:svg="http://www.w3.org/2000/svg">
  <defs
     id="defs32" />
  <sodipodi:namedview
     id="namedview30"
     pagecolor="#505050"
     bordercolor="#eeeeee"
     borderopacity="1"
     inkscape:showpageshadow="0"
     inkscape:pageopacity="0"
     inkscape:pagecheckerboard="0"
     inkscape:deskcolor="#505050"
     showgrid="false"
     inkscape:zoom="9.7534466"
     inkscape:cx="51.26393"
     inkscape:cy="81.304592"
     inkscape:window-width="3840"
     inkscape:window-height="2128"
     inkscape:window-x="0"
     inkscape:window-y="32"
     inkscape:window-maximized="1"
     inkscape:current-layer="svg28" />
  <ellipse
     style="fill:#ffffff;fill-opacity:0.11;stroke-width:2.53901"
     id="path367"
     cx="74.408279"
     cy="95.958046"
     rx="43.392582"
     ry="43.401134" />
  <ellipse
     style="fill:#4c7f9d"
     id="path367-3"
     cx="74.432144"
     cy="95.848732"
     rx="11.720233"
     ry="11.741471" />
  <g
     fill="#ffffff"
     id="g6">
    <path
       d="   M 182.78 20.23   C 182.89 17.02 181.99 13.41 184.04 11.18   C 186.18 8.86 190.02 9.29 191.54 12.08   C 192.71 14.23 192.12 17.59 191.95 20.18   A 0.49 0.49 0.0 0 0 192.44 20.70   L 225.74 20.85   A 0.45 0.45 0.0 0 0 226.20 20.37   C 225.96 15.58 225.89 10.78 225.99 5.99   C 226.14 -1.37 235.24 -1.07 235.25 5.18   C 235.26 11.86 235.26 18.54 235.23 25.22   C 235.22 28.34 233.05 30.25 230.08 30.25   C 201.82 30.26 173.56 30.25 145.30 30.24   C 142.17 30.24 139.80 28.78 139.78 25.50   C 139.73 18.37 139.73 11.25 139.77 4.13   C 139.77 3.80 139.86 3.50 140.03 3.23   C 143.46 -2.12 148.62 0.57 148.70 6.13   C 148.77 10.89 148.78 15.59 148.73 20.24   A 0.53 0.52 0.5 0 0 149.26 20.77   L 182.25 20.74   C 182.59 20.74 182.77 20.57 182.78 20.23   Z"
       id="path2" />
    <path
       d="   M 140.08 146.23   C 150.37 157.00 161.06 167.39 171.59 177.91   C 181.92 188.22 171.27 206.23 157.72 201.03   C 155.83 200.30 153.41 198.46 150.47 195.50   C 138.40 183.35 126.32 171.21 114.24 159.06   C 113.99 158.81 113.72 158.78 113.42 158.97   C 61.00 191.22 -3.90 149.17 0.78 89.44   C 4.21 45.60 45.04 14.05 88.57 22.28   C 142.17 32.43 166.49 95.78 134.20 139.82   C 133.99 140.11 134.01 140.37 134.28 140.61   C 136.29 142.42 138.23 144.29 140.08 146.23   Z   M 139.49 98.24   C 141.38 52.34 96.19 18.24 52.92 34.00   C 17.89 46.76 0.52 85.84 14.68 120.44   C 26.93 150.34 60.09 167.21 91.56 158.56   C 118.92 151.05 138.34 126.37 139.49 98.24   Z"
       id="path4" />
  </g>
  <path
     fill="#ffffff"
     d="m 61.289865,55.961254 c 0.340301,0.01827 0.169618,0.08681 0.270135,4.978746 -0.07,0.37 0.08,0.56 0.46,0.56 H 68 c 0.5,0 0.75,-0.25 0.75,-0.75 v -4.29 c 0,-0.36 0.18,-0.53 0.54,-0.52 l 4.83,0.09 c 0.42,0.01 0.63,0.23 0.63,0.65 v 15.16 c 0,0.43 -0.22,0.65 -0.65,0.65 l -4.36,0.02 c -0.35,0 -0.51,0.18 -0.47,0.53 l 1.27,11.46 1.8,14.61 c 0.06,0.45 -0.14,0.67 -0.59,0.67 l -8.5,0.01 -0.42,-0.32 C 62.58,99.28 62.47,99.03 62.49,98.72 62.317011,95.615277 62.106055,89.992044 62.027069,85.067554 61.356878,78.690492 51.840434,78.843809 51.24,85.53 c 0.05,4.49 0.05,8.98 -0.02,13.47 -0.01,0.33 -0.18,0.5 -0.51,0.5 h -8.7 c -0.345396,0.0032 -0.615849,-0.304555 -0.58,-0.66 l 1.92,-16.12 1.23,-9.56 C 44.63,72.72 44.44,72.5 44,72.5 H 39.75 C 39.25,72.5 39,72.25 39,71.75 v -15 C 39,56.25 39.25,56 39.75,56 h 4.75 c 0.33,0 0.5,0.17 0.5,0.5 v 4.34 c 0,0.43 0.22,0.65 0.65,0.65 l 6.1,0.01 c 0.33,0.01 0.5,-0.16 0.5,-0.5 v -4.46 c 0,-0.35 0.18,-0.54 0.53,-0.55 z"
     id="path20"
     sodipodi:nodetypes="ccssssccssccccccccccccsccccssssssssccsscc" />
  <path
     fill="#c63120"
     d="   M 100.25 127.46   L 87.72 105.68   C 87.55 105.38 87.47 105.06 87.49 104.72   L 87.54 104.00   L 120.67 103.83   A 0.43 0.43 0.0 0 1 121.04 104.48   L 104.73 132.73   A 0.82 0.81 44.9 0 1 103.32 132.73   L 100.25 127.46   Z"
     id="path22" />
</svg>
