<?xml version="1.0" encoding="UTF-8"?>
<!DOCTYPE svg PUBLIC "-//W3C//DTD SVG 1.1//EN" "http://www.w3.org/Graphics/SVG/1.1/DTD/svg11.dtd">
<svg xmlns="http://www.w3.org/2000/svg" version="1.1" width="196px" height="172px" style="shape-rendering:geometricPrecision; text-rendering:geometricPrecision; image-rendering:optimizeQuality; fill-rule:evenodd; clip-rule:evenodd" xmlns:xlink="http://www.w3.org/1999/xlink">
<g><path style="opacity:0.899" fill="#fefffe" d="M 38.5,-0.5 C 43.1667,-0.5 47.8333,-0.5 52.5,-0.5C 69.1536,3.32625 84.1536,10.6596 97.5,21.5C 109.186,10.9939 122.519,3.66056 137.5,-0.5C 144.833,-0.5 152.167,-0.5 159.5,-0.5C 179.604,5.60142 191.604,18.9348 195.5,39.5C 195.5,44.5 195.5,49.5 195.5,54.5C 189.901,75.0272 180.068,93.3606 166,109.5C 145.156,132.186 122.656,152.853 98.5,171.5C 97.8333,171.5 97.1667,171.5 96.5,171.5C 72.3443,152.853 49.8443,132.186 29,109.5C 14.9324,93.3606 5.09906,75.0272 -0.5,54.5C -0.5,49.1667 -0.5,43.8333 -0.5,38.5C 3.81987,16.8882 16.8199,3.88821 38.5,-0.5 Z M 140.5,9.5 C 175.988,8.49344 190.488,25.4934 184,60.5C 177.807,77.2258 168.807,92.2258 157,105.5C 138.863,125.475 119.03,143.475 97.5,159.5C 66.4362,137.603 40.2696,110.937 19,79.5C 9.77328,64.9317 7.10661,49.265 11,32.5C 17.1187,16.9041 28.6187,9.5708 45.5,10.5C 66.5331,11.4334 84.0331,19.7667 98,35.5C 109.03,21.6233 123.197,12.9566 140.5,9.5 Z"/></g>
</svg>
