<?xml version="1.0" encoding="UTF-8" standalone="no"?>
<svg
   version="1.1"
   viewBox="0 0 190 112"
   id="svg40"
   sodipodi:docname="in_zone.svg"
   inkscape:version="1.2.2 (b0a8486541, 2022-12-01)"
   xmlns:inkscape="http://www.inkscape.org/namespaces/inkscape"
   xmlns:sodipodi="http://sodipodi.sourceforge.net/DTD/sodipodi-0.dtd"
   xmlns="http://www.w3.org/2000/svg"
   xmlns:svg="http://www.w3.org/2000/svg">
  <defs
     id="defs44" />
  <sodipodi:namedview
     id="namedview42"
     pagecolor="#505050"
     bordercolor="#eeeeee"
     borderopacity="1"
     inkscape:showpageshadow="0"
     inkscape:pageopacity="0"
     inkscape:pagecheckerboard="0"
     inkscape:deskcolor="#505050"
     showgrid="false"
     inkscape:zoom="9.0616648"
     inkscape:cx="127.23931"
     inkscape:cy="77.910629"
     inkscape:window-width="3840"
     inkscape:window-height="2128"
     inkscape:window-x="0"
     inkscape:window-y="32"
     inkscape:window-maximized="1"
     inkscape:current-layer="svg40" />
  <path
     fill="#ffffff"
     fill-opacity="0.11"
     d="m 129.08113,5.0971784 c 14.4313,3.9331277 32.47638,11.3206666 41.53002,16.4034716 2.97197,1.414689 3.84855,2.56675 3.97855,2.83675 -2.62461,2.73425 -3.28811,3.162459 -7.12333,7.076038 -24.15767,23.262186 -28.18087,28.448688 -70.437119,70.516852 -3.952088,2.97213 0.628426,2.31642 -3.940239,-0.0893 C 44.012153,52.971468 37.876618,46.309251 16.507935,24.991523 c -0.27,-0.27 -2.825756,-2.430609 -2.705756,-2.790609 l 4.025138,-2.979956 C 21.956412,16.446503 36.78067,11.227307 41.55831,9.1623868 77.923754,-2.9718269 107.12498,1.0013497 129.08113,5.0971784 Z"
     id="path14-6"
     sodipodi:nodetypes="ccccccccccc" />
  <g
     fill="#ffffff"
     id="g28">
    <path
       d="m 45.79,46 c 4.95,-2.27 10.02,-4.2 15.21,-5.79 2.56,1.97 5.181746,4.226625 6.621746,7.096625 L 66.260891,47.70637 59.5,49.96 47.29,55.13 c -0.257846,0.113867 -0.320192,0.451572 -0.12,0.65 15.24,15.19 30.46,30.38 45.67,45.59 1.48,1.48 3.18,1.49 4.62,0.06 14.91,-14.87 29.84,-29.82 44.79,-44.85 0.28,-0.28 0.24,-0.5 -0.11,-0.67 -7.41,-3.49 -15.04,-6.22 -22.89,-8.2 -0.49734,-0.179953 -0.49023,-0.03834 -0.33828,-0.193104 2.1846,-2.225167 4.5275,-5.206715 6.94828,-7.206896 l 11.11,3.88 11.88,5.17 c 0.31,0.13 0.58,0.08 0.81,-0.16 10.39,-10.37 20.76,-20.74 31.11,-31.11 5.63,-5.64 11.76,0.51 6.78,5.49 l -81.62,81.62 c -6.91,6.91 -12.68,8.92 -20.03,1.57 L 2.29,23.16 C 2.24,23.11 1.8,22.76 0.97,22.1 c -3.03,-2.38 1.96,-6.75 4.51,-6.39 1.23,0.18 2.65,1.07 4.26,2.67 10.09,10.05 20.16,20.1 30.22,30.14 0.25,0.26 0.54,0.3 0.87,0.13 z"
       id="path24"
       sodipodi:nodetypes="cccccccsccccscccccsssscccccc" />
    <path
       d="   M 85.25 35.79   L 102.11 36.09   C 99.08 38.42 95.88 40.36 92.49 41.92   C 92.20 42.06 91.90 42.07 91.60 41.95   C 87.63 40.45 83.85 38.65 80.25 36.54   L 85.25 35.79   Z"
       id="path26" />
  </g>
  <path
     fill="#83c414"
     d="m 150.79,13.75 -0.45,1.37 c -0.1,0.31 -0.27,0.59 -0.5,0.82 l -23.98,24.37 c -2.69982,3.172007 -3.03398,3.363127 -8.15,8.44 -7.49,7.35 -14.87,14.82 -22.15,22.39 -2.31,2.39 -3.85,2.93 -6.25,0.28 C 82.37,63.77 75.46,56.07 68.57,48.33 60.908765,40.150303 67.630437,47.237054 61,40.21 58.21,36.9 55.34,33.64 52.41,30.45 c -2.43,-2.64 -0.77,-6.64 2.71,-5 8.29,3.89 16.67,7.58 25.13,11.09 3.6,2.11 7.38,3.91 11.35,5.41 0.3,0.12 0.6,0.11 0.89,-0.03 3.39,-1.56 6.59,-3.5 9.62,-5.83 l 0.79,-0.12 c 0.31,-0.05 0.61,-0.16 0.89,-0.32 13.58,-7.74 27.15,-15.5 40.71,-23.27 2.64,-1.51 5.17,-2.32 6.29,1.37 z"
     id="path30"
     sodipodi:nodetypes="ccccccccccccccccccc" />
</svg>
