<?xml version="1.0" encoding="UTF-8"?>
<!DOCTYPE svg PUBLIC "-//W3C//DTD SVG 1.1//EN" "http://www.w3.org/Graphics/SVG/1.1/DTD/svg11.dtd">
<svg xmlns="http://www.w3.org/2000/svg" version="1.1" width="226px" height="234px" style="shape-rendering:geometricPrecision; text-rendering:geometricPrecision; image-rendering:optimizeQuality; fill-rule:evenodd; clip-rule:evenodd" xmlns:xlink="http://www.w3.org/1999/xlink">
<g><path style="opacity:0.792" fill="#fefffe" d="M 177.5,-0.5 C 183.167,-0.5 188.833,-0.5 194.5,-0.5C 213.74,5.75955 224.073,19.0929 225.5,39.5C 225.5,41.1667 225.5,42.8333 225.5,44.5C 222.55,57.038 217.55,68.3713 210.5,78.5C 203.897,87.3874 197.063,96.0541 190,104.5C 188.028,106.442 185.861,106.776 183.5,105.5C 169.321,90.9818 157.987,74.4818 149.5,56C 142.252,28.6624 151.586,9.82908 177.5,-0.5 Z M 176.5,8.5 C 182.698,8.57811 188.865,8.57811 195,8.5C 211.978,15.3195 219.311,27.9861 217,46.5C 210.368,65.4646 200.035,82.1312 186,96.5C 172.73,82.9702 162.73,67.3035 156,49.5C 152.301,30.2294 159.135,16.5627 176.5,8.5 Z"/></g>
<g><path style="opacity:0.938" fill="#2babe9" d="M 181.5,22.5 C 196.735,21.9555 203.568,29.2888 202,44.5C 194.862,56.43 185.529,58.43 174,50.5C 166.629,38.4531 169.129,29.1198 181.5,22.5 Z"/></g>
<g><path style="opacity:0.978" fill="#2bace9" d="M 53.5,233.5 C 52.1667,233.5 50.8333,233.5 49.5,233.5C 33.5188,215.912 16.8521,198.912 -0.5,182.5C -0.5,180.833 -0.5,179.167 -0.5,177.5C 22.1579,154.2 44.9912,131.533 68,109.5C 68.6667,108.5 68.6667,107.5 68,106.5C 60.6791,99.0128 53.1791,91.6794 45.5,84.5C 44.129,77.211 47.2957,74.211 55,75.5C 86.1563,77.1955 117.323,78.6955 148.5,80C 149.416,80.3742 150.25,80.8742 151,81.5C 153.662,115.395 154.996,149.395 155,183.5C 152.736,186.52 149.903,187.187 146.5,185.5C 139.027,177.605 131.36,169.939 123.5,162.5C 99.4493,185.55 76.1159,209.217 53.5,233.5 Z"/></g>
</svg>
