<?xml version="1.0" encoding="UTF-8"?>
<!DOCTYPE svg PUBLIC "-//W3C//DTD SVG 1.1//EN" "http://www.w3.org/Graphics/SVG/1.1/DTD/svg11.dtd">
<svg xmlns="http://www.w3.org/2000/svg" version="1.1" width="233px" height="236px" style="shape-rendering:geometricPrecision; text-rendering:geometricPrecision; image-rendering:optimizeQuality; fill-rule:evenodd; clip-rule:evenodd" xmlns:xlink="http://www.w3.org/1999/xlink">
<g><path style="opacity:0.779" fill="#fefffe" d="M 174.5,-0.5 C 175.833,-0.5 177.167,-0.5 178.5,-0.5C 180.343,3.18691 181.01,7.18691 180.5,11.5C 196.027,12.5286 207.527,19.8619 215,33.5C 217.138,38.0998 218.971,42.7664 220.5,47.5C 220.392,48.4419 220.059,49.2753 219.5,50C 223.863,50.3694 228.196,50.8694 232.5,51.5C 232.5,53.1667 232.5,54.8333 232.5,56.5C 228.742,58.2541 224.742,58.9208 220.5,58.5C 216.176,80.8237 202.843,94.1571 180.5,98.5C 180.665,101.85 180.498,105.183 180,108.5C 176.914,110.22 174.581,109.553 173,106.5C 172.503,103.854 172.336,101.187 172.5,98.5C 149.487,94.8203 136.154,81.4869 132.5,58.5C 129.482,58.6646 126.482,58.498 123.5,58C 120.833,55.6667 120.833,53.3333 123.5,51C 126.482,50.502 129.482,50.3354 132.5,50.5C 135.216,32.9639 144.55,20.4639 160.5,13C 164.44,11.9847 168.44,11.4847 172.5,11.5C 172.079,7.25759 172.746,3.25759 174.5,-0.5 Z M 167.5,18.5 C 169.167,18.5 170.833,18.5 172.5,18.5C 172.334,22.8461 172.501,27.1794 173,31.5C 174.826,35.0374 177.16,35.3707 180,32.5C 180.499,27.8452 180.666,23.1785 180.5,18.5C 198.821,21.6559 209.488,32.1559 212.5,50C 207.833,50.3333 203.167,50.6667 198.5,51C 195.833,53.3333 195.833,55.6667 198.5,58C 203.155,58.4992 207.821,58.6658 212.5,58.5C 209.5,76.8333 198.833,87.5 180.5,90.5C 180.827,85.7863 180.493,81.1196 179.5,76.5C 176.527,74.7823 174.36,75.4489 173,78.5C 172.501,82.4862 172.334,86.4862 172.5,90.5C 154.294,87.3931 143.628,76.7264 140.5,58.5C 144.846,58.6657 149.179,58.499 153.5,58C 157.466,55.7152 157.466,53.3819 153.5,51C 149.179,50.501 144.846,50.3343 140.5,50.5C 143.074,34.2699 152.074,23.6032 167.5,18.5 Z"/></g>
<g><path style="opacity:0.975" fill="#2bace9" d="M 108.5,235.5 C 108.167,235.5 107.833,235.5 107.5,235.5C 107.167,234.167 106.833,234.167 106.5,235.5C 103.833,235.5 101.167,235.5 98.5,235.5C 97.5,234.167 96.5,234.167 95.5,235.5C 95.1667,235.5 94.8333,235.5 94.5,235.5C 93.5,234.167 92.5,234.167 91.5,235.5C 91.1667,235.5 90.8333,235.5 90.5,235.5C 62.5796,234.575 34.5796,233.075 6.5,231C 5.283,229.352 4.44966,227.519 4,225.5C 2.54251,199.812 1.70918,174.478 1.5,149.5C 1.01131,148.005 0.344644,146.671 -0.5,145.5C -0.5,140.167 -0.5,134.833 -0.5,129.5C 0.786329,124.922 3.78633,123.422 8.5,125C 16.3476,133.015 24.3476,140.848 32.5,148.5C 55.5568,124.276 79.3901,100.942 104,78.5C 105.559,79.0294 107.059,79.696 108.5,80.5C 122.86,95.5271 137.527,110.194 152.5,124.5C 157.833,128.833 157.833,133.167 152.5,137.5C 130.626,159.541 108.626,181.374 86.5,203C 94.3333,210.833 102.167,218.667 110,226.5C 110.788,229.772 110.288,232.772 108.5,235.5 Z"/></g>
<g><path style="opacity:0.004" fill="#00fffe" d="M -0.5,145.5 C 0.344644,146.671 1.01131,148.005 1.5,149.5C 0.833333,149.5 0.166667,149.5 -0.5,149.5C -0.5,148.167 -0.5,146.833 -0.5,145.5 Z"/></g>
</svg>
