<?xml version="1.0" encoding="UTF-8"?>
<!DOCTYPE svg PUBLIC "-//W3C//DTD SVG 1.1//EN" "http://www.w3.org/Graphics/SVG/1.1/DTD/svg11.dtd">
<svg xmlns="http://www.w3.org/2000/svg" version="1.1" width="241px" height="246px" style="shape-rendering:geometricPrecision; text-rendering:geometricPrecision; image-rendering:optimizeQuality; fill-rule:evenodd; clip-rule:evenodd" xmlns:xlink="http://www.w3.org/1999/xlink">
<g><path style="opacity:0.781" fill="#fefffe" d="M 182.5,-0.5 C 184.167,-0.5 185.833,-0.5 187.5,-0.5C 186.105,0.647669 186.272,1.64767 188,2.5C 188.498,5.48162 188.665,8.48162 188.5,11.5C 211.046,15.4698 224.379,28.8031 228.5,51.5C 232.548,51.3946 236.548,51.7279 240.5,52.5C 240.5,53.8333 240.5,55.1667 240.5,56.5C 239.691,57.4687 238.691,58.3021 237.5,59C 234.518,59.498 231.518,59.6646 228.5,59.5C 225.846,77.3317 216.18,89.8317 199.5,97C 195.896,98.1539 192.229,98.9872 188.5,99.5C 188.665,102.518 188.498,105.518 188,108.5C 185.667,111.167 183.333,111.167 181,108.5C 180.502,105.518 180.335,102.518 180.5,99.5C 157.474,95.8071 144.14,82.4737 140.5,59.5C 137.482,59.6646 134.482,59.498 131.5,59C 129.006,56.7564 129.006,54.4231 131.5,52C 134.482,51.502 137.482,51.3354 140.5,51.5C 144.674,28.7899 158.008,15.4566 180.5,11.5C 180.19,7.30048 180.857,3.30048 182.5,-0.5 Z M 176.5,19.5 C 177.833,19.5 179.167,19.5 180.5,19.5C 180.334,23.8461 180.501,28.1794 181,32.5C 182.903,35.9547 185.237,36.288 188,33.5C 188.499,28.8452 188.666,24.1785 188.5,19.5C 206.856,22.5223 217.522,33.1889 220.5,51.5C 215.786,51.1734 211.12,51.5067 206.5,52.5C 203.956,54.6112 203.956,56.7779 206.5,59C 211.155,59.4992 215.821,59.6658 220.5,59.5C 217.499,77.8345 206.832,88.5012 188.5,91.5C 188.666,87.1539 188.499,82.8206 188,78.5C 185.16,75.6293 182.826,75.9626 181,79.5C 180.501,83.4862 180.334,87.4862 180.5,91.5C 162.175,88.5083 151.508,77.8416 148.5,59.5C 152.846,59.6657 157.179,59.499 161.5,59C 163.673,57.1353 164.007,54.9686 162.5,52.5C 157.88,51.5067 153.214,51.1734 148.5,51.5C 151.179,34.8317 160.512,24.165 176.5,19.5 Z"/></g>
<g><path style="opacity:0.978" fill="#2babe9" d="M 53.5,245.5 C 52.1667,245.5 50.8333,245.5 49.5,245.5C 33.1667,228.5 16.5,211.833 -0.5,195.5C -0.5,193.833 -0.5,192.167 -0.5,190.5C 22.1609,167.734 44.9942,145.068 68,122.5C 68.6667,121.5 68.6667,120.5 68,119.5C 60.3333,111.833 52.6667,104.167 45,96.5C 44.2536,93.2106 45.4203,90.7106 48.5,89C 81.8329,89.9383 115.166,91.2716 148.5,93C 149.667,94.1667 150.833,95.3333 152,96.5C 153.747,129.821 154.747,163.154 155,196.5C 153.136,199.207 150.636,200.041 147.5,199C 140.167,191.667 132.833,184.333 125.5,177C 124.167,176.333 122.833,176.333 121.5,177C 98.6589,199.674 75.9922,222.508 53.5,245.5 Z"/></g>
</svg>
