<?xml version="1.0" encoding="UTF-8"?>
<!DOCTYPE svg PUBLIC "-//W3C//DTD SVG 1.1//EN" "http://www.w3.org/Graphics/SVG/1.1/DTD/svg11.dtd">
<svg xmlns="http://www.w3.org/2000/svg" version="1.1" width="229px" height="234px" style="shape-rendering:geometricPrecision; text-rendering:geometricPrecision; image-rendering:optimizeQuality; fill-rule:evenodd; clip-rule:evenodd" xmlns:xlink="http://www.w3.org/1999/xlink">
<g><path style="opacity:0.945" fill="#fefffe" d="M 164.5,-0.5 C 168.5,-0.5 172.5,-0.5 176.5,-0.5C 176.5,2.83333 176.5,6.16667 176.5,9.5C 180.514,9.66551 184.514,9.49885 188.5,9C 187.549,5.94325 187.216,2.77659 187.5,-0.5C 193.5,-0.5 199.5,-0.5 205.5,-0.5C 205.5,2.83333 205.5,6.16667 205.5,9.5C 209.5,9.5 213.5,9.5 217.5,9.5C 217.5,6.16667 217.5,2.83333 217.5,-0.5C 221.167,-0.5 224.833,-0.5 228.5,-0.5C 228.5,9.5 228.5,19.5 228.5,29.5C 225.167,29.5 221.833,29.5 218.5,29.5C 220.336,45.5242 222.336,61.5242 224.5,77.5C 218.5,77.5 212.5,77.5 206.5,77.5C 206.666,68.1607 206.5,58.8274 206,49.5C 202.252,43.4578 197.085,41.9578 190.5,45C 188.683,46.7998 187.516,48.9664 187,51.5C 186.5,60.1603 186.334,68.8269 186.5,77.5C 180.833,77.5 175.167,77.5 169.5,77.5C 171.02,61.4839 172.687,45.4839 174.5,29.5C 171.167,29.5 167.833,29.5 164.5,29.5C 164.5,19.5 164.5,9.5 164.5,-0.5 Z"/></g>
<g><path style="opacity:0.982" fill="#2babe9" d="M 53.5,233.5 C 52.5,233.5 51.5,233.5 50.5,233.5C 33.9625,216.296 16.9625,199.296 -0.5,182.5C -0.5,180.833 -0.5,179.167 -0.5,177.5C 23.1457,154.521 46.479,131.188 69.5,107.5C 61.8479,99.3476 54.0145,91.3476 46,83.5C 44.8132,78.8421 46.6465,76.1755 51.5,75.5C 83.8106,77.2044 116.144,78.7044 148.5,80C 149.416,80.3742 150.25,80.8742 151,81.5C 152.784,96.7628 153.951,112.096 154.5,127.5C 155.001,146.424 155.001,165.424 154.5,184.5C 152.809,186.256 150.809,186.756 148.5,186C 140.5,178.667 132.833,171 125.5,163C 124.5,162.333 123.5,162.333 122.5,163C 99.0506,185.951 76.0506,209.451 53.5,233.5 Z"/></g>
</svg>
