<?xml version="1.0" encoding="UTF-8"?>
<!DOCTYPE svg PUBLIC "-//W3C//DTD SVG 1.1//EN" "http://www.w3.org/Graphics/SVG/1.1/DTD/svg11.dtd">
<svg xmlns="http://www.w3.org/2000/svg" version="1.1" width="178px" height="172px" style="shape-rendering:geometricPrecision; text-rendering:geometricPrecision; image-rendering:optimizeQuality; fill-rule:evenodd; clip-rule:evenodd" xmlns:xlink="http://www.w3.org/1999/xlink">
<g><path style="opacity:0.984" fill="#fefefe" d="M 56.5,-0.5 C 81.8333,-0.5 107.167,-0.5 132.5,-0.5C 133.548,46.356 119.548,88.356 90.5,125.5C 82.1506,122.826 74.1506,119.326 66.5,115C 62.4943,114.013 60.661,115.513 61,119.5C 67.0421,126.038 72.8755,132.705 78.5,139.5C 67.2397,149.249 55.2397,158.082 42.5,166C 40.9556,167.187 39.2889,167.52 37.5,167C 25.9534,147.41 14.7867,127.576 4,107.5C 2.93309,105.308 1.43309,103.642 -0.5,102.5C -0.5,101.5 -0.5,100.5 -0.5,99.5C 27.007,83.8067 44.507,60.4733 52,29.5C 53.4525,19.4226 54.9525,9.42262 56.5,-0.5 Z"/></g>
<g><path style="opacity:0.955" fill="#82c315" d="M 177.5,99.5 C 177.5,100.833 177.5,102.167 177.5,103.5C 154.546,125.455 132.213,148.121 110.5,171.5C 109.167,171.5 107.833,171.5 106.5,171.5C 97.5393,160.537 88.206,149.871 78.5,139.5C 72.8755,132.705 67.0421,126.038 61,119.5C 60.661,115.513 62.4943,114.013 66.5,115C 74.1506,119.326 82.1506,122.826 90.5,125.5C 95.4081,127.954 100.408,130.454 105.5,133C 107.167,133.667 108.833,133.667 110.5,133C 131.431,121.286 152.264,109.453 173,97.5C 174.406,98.4138 175.906,99.0805 177.5,99.5 Z"/></g>
</svg>
