<?xml version="1.0" encoding="UTF-8"?>
<!DOCTYPE svg PUBLIC "-//W3C//DTD SVG 1.1//EN" "http://www.w3.org/Graphics/SVG/1.1/DTD/svg11.dtd">
<svg xmlns="http://www.w3.org/2000/svg" version="1.1" width="176px" height="176px" style="shape-rendering:geometricPrecision; text-rendering:geometricPrecision; image-rendering:optimizeQuality; fill-rule:evenodd; clip-rule:evenodd" xmlns:xlink="http://www.w3.org/1999/xlink">
<g><path style="opacity:0.907" fill="#fefffe" d="M 77.5,-0.5 C 84.1667,-0.5 90.8333,-0.5 97.5,-0.5C 140.725,7.72548 166.725,33.3921 175.5,76.5C 175.5,83.8333 175.5,91.1667 175.5,98.5C 166.725,141.608 140.725,167.275 97.5,175.5C 90.8333,175.5 84.1667,175.5 77.5,175.5C 33.8463,167.18 7.84626,141.18 -0.5,97.5C -0.5,90.8333 -0.5,84.1667 -0.5,77.5C 7.84626,33.8204 33.8463,7.8204 77.5,-0.5 Z M 76.5,10.5 C 114.75,7.6982 142.25,23.3649 159,57.5C 170.968,91.4574 164.134,120.957 138.5,146C 114.013,165.359 87.0126,169.692 57.5,159C 21.0643,140.632 5.89762,111.132 12,70.5C 21.204,37.1247 42.704,17.1247 76.5,10.5 Z"/></g>
<g><path style="opacity:0.833" fill="#2aabe9" d="M 59.5,49.5 C 61.1439,49.2865 62.6439,49.6198 64,50.5C 72.2754,75.9936 80.9421,101.327 90,126.5C 97.3333,109.167 104.667,91.8333 112,74.5C 113.925,72.0266 115.758,72.0266 117.5,74.5C 121.306,83.4455 125.639,92.1122 130.5,100.5C 133.709,95.2483 137.042,90.0816 140.5,85C 146.833,84.3333 153.167,84.3333 159.5,85C 162.167,86.6667 162.167,88.3333 159.5,90C 153.804,90.1701 148.138,90.6701 142.5,91.5C 139.532,96.9639 136.366,102.297 133,107.5C 131.604,109.527 129.938,109.86 128,108.5C 123.394,99.6219 119.061,90.6219 115,81.5C 107.667,98.8333 100.333,116.167 93,133.5C 91.4577,137.884 89.2911,138.384 86.5,135C 78.1975,109.759 69.6975,84.5925 61,59.5C 57.1611,70.0065 52.6611,80.1732 47.5,90C 38.1667,90.6667 28.8333,90.6667 19.5,90C 16.8333,88.3333 16.8333,86.6667 19.5,85C 28.1603,84.5002 36.8269,84.3336 45.5,84.5C 49.7733,72.681 54.44,61.0143 59.5,49.5 Z"/></g>
</svg>
