<?xml version="1.0" encoding="UTF-8" standalone="no"?>
<!DOCTYPE svg PUBLIC "-//W3C//DTD SVG 1.1//EN" "http://www.w3.org/Graphics/SVG/1.1/DTD/svg11.dtd">
<svg xmlns="http://www.w3.org/2000/svg" version="1.1" viewBox="0.00 0.00 256.00 116.00">
<path stroke="#c1e28a" stroke-width="2.00" fill="none" stroke-linecap="butt" vector-effect="non-scaling-stroke" d="
  M 139.62 99.07
  L 189.38 99.04"
/>
<path fill="#ffffff" d="
  M 113.67 18.47
  C 111.00 18.31 108.04 19.01 105.84 17.47
  C 102.92 15.41 102.06 11.62 103.97 8.52
  C 106.36 4.64 109.65 5.11 114.58 5.11
  Q 128.40 5.10 142.23 5.08
  Q 146.33 5.08 150.70 4.20
  C 171.69 -0.01 195.89 6.06 213.64 17.89
  C 241.71 36.61 257.43 68.60 253.26 102.47
  Q 252.67 107.22 252.19 111.75
  A 1.11 1.11 0.0 0 1 251.09 112.74
  Q 155.39 112.74 59.75 112.75
  C 53.30 112.75 53.00 102.26 57.57 99.66
  Q 59.01 98.84 62.31 98.86
  Q 68.57 98.90 74.84 98.83
  A 0.82 0.81 -2.6 0 0 75.65 97.95
  Q 74.36 81.70 79.26 66.18
  A 0.54 0.54 0.0 0 0 78.68 65.48
  C 66.26 66.98 66.14 51.93 76.23 52.19
  Q 80.22 52.29 83.75 52.29
  A 1.78 1.78 0.0 0 0 85.33 51.33
  Q 95.59 31.67 113.83 19.04
  A 0.31 0.31 0.0 0 0 113.67 18.47
  Z
  M 139.62 99.07
  L 189.38 99.04
  L 239.44 99.04
  A 1.07 1.07 0.0 0 0 240.51 98.02
  C 242.70 53.86 209.47 16.87 164.78 16.64
  C 120.49 16.41 85.66 54.40 88.93 98.33
  Q 88.98 99.00 89.66 99.00
  L 139.62 99.07
  Z"
/>
<rect fill="#ffffff" x="-13.97" y="-6.64" transform="translate(79.74,11.76) rotate(0.6)" width="27.94" height="13.28" rx="6.33"/>
<path fill="#83c415" d="
  M 189.38 99.04
  L 139.62 99.07
  C 144.36 87.43 151.05 80.48 164.50 79.81
  Q 165.72 79.75 166.58 78.54
  Q 176.25 64.89 186.32 50.88
  Q 188.04 48.49 187.55 51.39
  Q 184.81 67.71 182.44 85.59
  C 182.29 86.69 182.67 87.21 183.34 87.97
  Q 187.54 92.66 189.38 99.04
  Z"
/>
<rect fill="#ffffff" x="-17.47" y="-6.63" transform="translate(42.15,58.62) rotate(0.1)" width="34.94" height="13.26" rx="6.36"/>
<rect fill="#ffffff" x="-21.87" y="-6.92" transform="translate(24.23,105.77) rotate(-0.1)" width="43.74" height="13.84" rx="6.69"/>
</svg>
