<?xml version="1.0" encoding="UTF-8"?>
<!DOCTYPE svg PUBLIC "-//W3C//DTD SVG 1.1//EN" "http://www.w3.org/Graphics/SVG/1.1/DTD/svg11.dtd">
<svg xmlns="http://www.w3.org/2000/svg" version="1.1" width="238px" height="207px" style="shape-rendering:geometricPrecision; text-rendering:geometricPrecision; image-rendering:optimizeQuality; fill-rule:evenodd; clip-rule:evenodd" xmlns:xlink="http://www.w3.org/1999/xlink">
<g><path style="opacity:0.951" fill="#fefcfb" d="M 59.5,-0.5 C 98.8333,-0.5 138.167,-0.5 177.5,-0.5C 197.263,33.3674 217.263,67.0341 237.5,100.5C 237.5,101.833 237.5,103.167 237.5,104.5C 217.109,138.235 197.109,172.235 177.5,206.5C 138.167,206.5 98.8333,206.5 59.5,206.5C 39.8907,172.235 19.8907,138.235 -0.5,104.5C -0.5,103.167 -0.5,101.833 -0.5,100.5C 19.7371,67.0341 39.7371,33.3674 59.5,-0.5 Z"/></g>
<g><path style="opacity:1" fill="#c63221" d="M 64.5,10.5 C 100.506,10.1668 136.506,10.5001 172.5,11.5C 190.378,41.5727 208.045,71.906 225.5,102.5C 207.879,133.579 189.879,164.413 171.5,195C 136.167,195.667 100.833,195.667 65.5,195C 47.1487,164.477 29.1487,133.644 11.5,102.5C 29.1896,71.8191 46.8563,41.1525 64.5,10.5 Z"/></g>
<g><path style="opacity:1" fill="#fefefe" d="M 45.5,79.5 C 94.1667,79.5 142.833,79.5 191.5,79.5C 191.5,94.8333 191.5,110.167 191.5,125.5C 142.833,125.5 94.1667,125.5 45.5,125.5C 45.5,110.167 45.5,94.8333 45.5,79.5 Z"/></g>
</svg>
