<?xml version="1.0" encoding="UTF-8"?>
<!DOCTYPE svg PUBLIC "-//W3C//DTD SVG 1.1//EN" "http://www.w3.org/Graphics/SVG/1.1/DTD/svg11.dtd">
<svg xmlns="http://www.w3.org/2000/svg" version="1.1" width="222px" height="222px" style="shape-rendering:geometricPrecision; text-rendering:geometricPrecision; image-rendering:optimizeQuality; fill-rule:evenodd; clip-rule:evenodd" xmlns:xlink="http://www.w3.org/1999/xlink">
<g><path style="opacity:0.916" fill="#fefffe" d="M 107.5,-0.5 C 109.5,-0.5 111.5,-0.5 113.5,-0.5C 115.393,6.93194 116.06,14.5986 115.5,22.5C 155.958,27.1265 182.458,48.7932 195,87.5C 196.549,93.4088 197.382,99.4088 197.5,105.5C 204.508,105.334 211.508,105.5 218.5,106C 219.244,107.039 220.244,107.539 221.5,107.5C 221.5,109.5 221.5,111.5 221.5,113.5C 220.244,113.461 219.244,113.961 218.5,115C 211.508,115.5 204.508,115.666 197.5,115.5C 193.343,155.3 172.343,181.8 134.5,195C 128.231,196.585 121.898,197.752 115.5,198.5C 116.06,206.401 115.393,214.068 113.5,221.5C 111.5,221.5 109.5,221.5 107.5,221.5C 105.607,214.068 104.94,206.401 105.5,198.5C 62.474,193.641 35.3074,170.308 24,128.5C 23.0775,124.21 22.5775,119.877 22.5,115.5C 14.5986,116.06 6.93194,115.393 -0.5,113.5C -0.5,111.5 -0.5,109.5 -0.5,107.5C 6.93194,105.607 14.5986,104.94 22.5,105.5C 26.672,65.6524 47.672,39.1524 85.5,26C 92.0858,24.3214 98.7524,23.1547 105.5,22.5C 104.94,14.5986 105.607,6.93194 107.5,-0.5 Z M 98.5,33.5 C 100.833,33.5 103.167,33.5 105.5,33.5C 105.334,40.175 105.5,46.8417 106,53.5C 109,57.5 112,57.5 115,53.5C 115.5,46.8417 115.666,40.175 115.5,33.5C 149.615,37.1078 172.448,55.1078 184,87.5C 185.677,93.4129 186.844,99.4129 187.5,105.5C 182.821,105.334 178.155,105.501 173.5,106C 170.833,109 170.833,112 173.5,115C 178.155,115.499 182.821,115.666 187.5,115.5C 183.643,149.059 165.976,171.892 134.5,184C 128.286,185.876 121.952,187.043 115.5,187.5C 115.666,183.154 115.499,178.821 115,174.5C 111.581,171.61 108.581,171.943 106,175.5C 105.501,179.486 105.334,183.486 105.5,187.5C 71.0634,184.029 47.8967,166.029 36,133.5C 34.6382,127.857 33.4716,122.191 32.5,116.5C 36.7956,115.672 41.1289,115.172 45.5,115C 49.0567,112.419 49.39,109.419 46.5,106C 41.7982,105.828 37.1315,105.328 32.5,104.5C 38.6748,65.9957 60.6748,42.329 98.5,33.5 Z"/></g>
<g><path style="opacity:0.991" fill="#4e809e" d="M 126.5,69.5 C 125.833,93.3368 125.167,117.337 124.5,141.5C 115.362,143.436 106.028,144.103 96.5,143.5C 95.5023,118.672 95.169,93.6722 95.5,68.5C 106.014,68.1724 116.347,68.5058 126.5,69.5 Z"/></g>
<g><path style="opacity:0.173" fill="#4e809c" d="M 126.5,69.5 C 126.667,94.1689 126.5,118.836 126,143.5C 116.069,144.829 106.235,144.829 96.5,143.5C 106.028,144.103 115.362,143.436 124.5,141.5C 125.167,117.337 125.833,93.3368 126.5,69.5 Z"/></g>
<g><path style="opacity:0.985" fill="#4e809e" d="M 86.5,88.5 C 86.5,106.167 86.5,123.833 86.5,141.5C 76.9845,143.334 67.3178,144.001 57.5,143.5C 56.338,125.671 56.1713,107.671 57,89.5C 66.7504,88.5144 76.5837,88.181 86.5,88.5 Z"/></g>
<g><path style="opacity:0.95" fill="#4f809e" d="M 159.5,115.5 C 160.607,117.847 162.274,118.18 164.5,116.5C 164.5,125.5 164.5,134.5 164.5,143.5C 154.24,144.102 144.24,143.436 134.5,141.5C 134.5,132.833 134.5,124.167 134.5,115.5C 142.833,115.5 151.167,115.5 159.5,115.5 Z"/></g>
<g><path style="opacity:0.641" fill="#4e829c" d="M 159.5,115.5 C 161.415,115.216 163.081,115.549 164.5,116.5C 162.274,118.18 160.607,117.847 159.5,115.5 Z"/></g>
<g><path style="opacity:0.28" fill="#4e829b" d="M 86.5,88.5 C 87.6621,106.662 87.8288,124.995 87,143.5C 77.0686,144.829 67.2352,144.829 57.5,143.5C 67.3178,144.001 76.9845,143.334 86.5,141.5C 86.5,123.833 86.5,106.167 86.5,88.5 Z"/></g>
<g><path style="opacity:0.141" fill="#4e809b" d="M 134.5,141.5 C 144.24,143.436 154.24,144.102 164.5,143.5C 154.681,144.494 144.681,144.827 134.5,144.5C 134.5,143.5 134.5,142.5 134.5,141.5 Z"/></g>
<g><path style="opacity:0.851" fill="#29abe6" d="M 55.5,150.5 C 92.1667,150.5 128.833,150.5 165.5,150.5C 165.5,151.5 165.5,152.5 165.5,153.5C 128.833,153.5 92.1667,153.5 55.5,153.5C 55.5,152.5 55.5,151.5 55.5,150.5 Z"/></g>
</svg>
