<?xml version="1.0" encoding="UTF-8"?>
<!DOCTYPE svg PUBLIC "-//W3C//DTD SVG 1.1//EN" "http://www.w3.org/Graphics/SVG/1.1/DTD/svg11.dtd">
<svg xmlns="http://www.w3.org/2000/svg" version="1.1" width="222px" height="158px" style="shape-rendering:geometricPrecision; text-rendering:geometricPrecision; image-rendering:optimizeQuality; fill-rule:evenodd; clip-rule:evenodd" xmlns:xlink="http://www.w3.org/1999/xlink">
<g><path style="opacity:0.888" fill="#fefffe" d="M 76.5,-0.5 C 77.5,-0.5 78.5,-0.5 79.5,-0.5C 83.412,4.41127 84.412,9.91127 82.5,16C 115.834,21.166 134.834,40.3327 139.5,73.5C 143.846,73.3343 148.179,73.501 152.5,74C 157.833,77 157.833,80 152.5,83C 148.179,83.499 143.846,83.6657 139.5,83.5C 134.797,116.704 115.797,135.871 82.5,141C 84.412,147.089 83.412,152.589 79.5,157.5C 78.5,157.5 77.5,157.5 76.5,157.5C 76.2504,156.078 75.417,155.078 74,154.5C 73.5008,149.845 73.3342,145.179 73.5,140.5C 41.0056,135.84 21.6722,117.34 15.5,85C 15.8333,84.6667 16.1667,84.3333 16.5,84C 12.1667,83.6667 7.83333,83.3333 3.5,83C 2.01608,82.3378 0.682751,81.5045 -0.5,80.5C -0.5,79.1667 -0.5,77.8333 -0.5,76.5C 0.682751,75.4955 2.01608,74.6622 3.5,74C 7.83333,73.6667 12.1667,73.3333 16.5,73C 19.3776,47.7478 32.711,30.0812 56.5,20C 61.9923,17.9736 67.659,16.8069 73.5,16.5C 73.3343,12.1539 73.501,7.82056 74,3.5C 75.0848,2.26444 75.9181,0.931107 76.5,-0.5 Z M 72.5,25.5 C 73.3285,32.3213 73.8285,39.3213 74,46.5C 77.2935,49.3112 80.2935,48.9779 83,45.5C 83.4995,39.1754 83.6662,32.8421 83.5,26.5C 110.812,30.4785 126.478,46.1452 130.5,73.5C 124.158,73.3338 117.825,73.5005 111.5,74C 106.167,77 106.167,80 111.5,83C 117.825,83.4995 124.158,83.6662 130.5,83.5C 126.478,110.855 110.812,126.522 83.5,130.5C 83.8774,123.743 83.3774,117.076 82,110.5C 79.0854,107.93 76.4187,108.263 74,111.5C 73.6667,118.167 73.3333,124.833 73,131.5C 45.573,126.907 29.7397,110.907 25.5,83.5C 31.8421,83.6662 38.1754,83.4995 44.5,83C 47.3788,81.3342 48.2121,78.8342 47,75.5C 46.2496,74.8742 45.4162,74.3742 44.5,74C 38.1754,73.5005 31.8421,73.3338 25.5,73.5C 29.7821,46.2189 45.4488,30.2189 72.5,25.5 Z"/></g>
<g><path style="opacity:0.93" fill="#fefffe" d="M 221.5,35.5 C 221.5,36.1667 221.5,36.8333 221.5,37.5C 215.557,38.7034 209.89,40.7034 204.5,43.5C 207.577,50.6522 210.91,57.6522 214.5,64.5C 214.167,64.8333 213.833,65.1667 213.5,65.5C 207.5,61.5 201.5,57.5 195.5,53.5C 192.261,56.9829 189.261,60.6496 186.5,64.5C 183.75,60.6682 181.25,56.6682 179,52.5C 171.68,56.0879 164.18,58.9213 156.5,61C 160.833,54.6667 165.167,48.3333 169.5,42C 164.5,39.6667 159.5,37.3333 154.5,35C 160.027,32.405 165.36,29.5717 170.5,26.5C 166.625,19.9164 162.625,13.4164 158.5,7C 165.556,10.1195 172.389,13.9529 179,18.5C 180.639,13.8878 182.806,9.55446 185.5,5.5C 188.528,9.36118 191.361,13.3612 194,17.5C 202.629,12.5988 211.462,8.43216 220.5,5C 215.833,13 211.167,21 206.5,29C 211.299,31.7354 216.299,33.9021 221.5,35.5 Z"/></g>
</svg>
