<?xml version="1.0" encoding="UTF-8"?>
<!DOCTYPE svg PUBLIC "-//W3C//DTD SVG 1.1//EN" "http://www.w3.org/Graphics/SVG/1.1/DTD/svg11.dtd">
<svg xmlns="http://www.w3.org/2000/svg" version="1.1" width="214px" height="158px" style="shape-rendering:geometricPrecision; text-rendering:geometricPrecision; image-rendering:optimizeQuality; fill-rule:evenodd; clip-rule:evenodd" xmlns:xlink="http://www.w3.org/1999/xlink">
<g><path style="opacity:0.903" fill="#fefffe" d="M 162.5,-0.5 C 163.833,-0.5 165.167,-0.5 166.5,-0.5C 174.471,10.6113 181.804,22.1113 188.5,34C 182.651,44.8566 176.151,55.3566 169,65.5C 163,69.1667 160.333,67.5 161,60.5C 166.833,51.5 172.667,42.5 178.5,33.5C 172.333,24.5 166.167,15.5 160,6.5C 159.683,3.79298 160.516,1.45965 162.5,-0.5 Z"/></g>
<g><path style="opacity:0.899" fill="#fefffe" d="M 186.5,-0.5 C 188.167,-0.5 189.833,-0.5 191.5,-0.5C 197.848,10.8704 205.182,21.5371 213.5,31.5C 213.5,32.8333 213.5,34.1667 213.5,35.5C 206.442,45.2605 199.609,55.2605 193,65.5C 190.333,68.1667 187.667,68.1667 185,65.5C 184.294,63.0288 184.627,60.6954 186,58.5C 191.696,50.3022 197.196,41.9689 202.5,33.5C 195.773,24.1037 189.44,14.437 183.5,4.5C 184.26,2.63964 185.26,0.972969 186.5,-0.5 Z"/></g>
<g><path style="opacity:0.901" fill="#fefffe" d="M 80.5,157.5 C 78.8333,157.5 77.1667,157.5 75.5,157.5C 73.8305,152.408 72.9972,147.075 73,141.5C 40.4051,136.072 21.2384,117.072 15.5,84.5C 11.2044,83.6725 6.8711,83.1725 2.5,83C 1.62656,81.955 0.626561,81.1217 -0.5,80.5C -0.5,79.5 -0.5,78.5 -0.5,77.5C 0.626561,76.8783 1.62656,76.045 2.5,75C 6.8711,74.8275 11.2044,74.3275 15.5,73.5C 20.7604,40.7394 39.7604,21.906 72.5,17C 73.3029,12.5855 73.8029,8.08554 74,3.5C 78.0502,-0.64376 81.0502,0.0229068 83,5.5C 83.3504,9.53324 83.5171,13.3666 83.5,17C 112.65,21.4798 131.15,37.9798 139,66.5C 139.497,69.146 139.664,71.8127 139.5,74.5C 144.511,74.3341 149.511,74.5007 154.5,75C 157.167,77.6667 157.167,80.3333 154.5,83C 149.511,83.4993 144.511,83.6659 139.5,83.5C 137.326,106.673 125.993,123.84 105.5,135C 98.5005,138.222 91.1672,140.222 83.5,141C 83.5171,144.633 83.3504,148.467 83,152.5C 82.6339,154.452 81.8005,156.118 80.5,157.5 Z M 69.5,26.5 C 70.8333,26.5 72.1667,26.5 73.5,26.5C 73.3337,33.175 73.5004,39.8417 74,46.5C 77.5228,50.7014 80.5228,50.3681 83,45.5C 83.8087,39.2511 83.642,33.0844 82.5,27C 110.197,30.8627 126.197,46.696 130.5,74.5C 123.825,74.3337 117.158,74.5004 110.5,75C 106.524,77.6174 106.524,80.2841 110.5,83C 117.158,83.4996 123.825,83.6663 130.5,83.5C 126.201,111.3 110.201,127.133 82.5,131C 83.6406,125.25 83.8072,119.416 83,113.5C 80.805,109.128 77.805,108.461 74,111.5C 73.5004,118.158 73.3337,124.825 73.5,131.5C 45.7936,127.127 29.7936,111.127 25.5,83.5C 32.175,83.6663 38.8417,83.4996 45.5,83C 48.1667,80.3333 48.1667,77.6667 45.5,75C 38.8417,74.5004 32.175,74.3337 25.5,74.5C 29.4339,48.5694 44.1006,32.5694 69.5,26.5 Z"/></g>
</svg>
