<?xml version="1.0" encoding="UTF-8"?>
<!DOCTYPE svg PUBLIC "-//W3C//DTD SVG 1.1//EN" "http://www.w3.org/Graphics/SVG/1.1/DTD/svg11.dtd">
<svg xmlns="http://www.w3.org/2000/svg" version="1.1" width="198px" height="198px" style="shape-rendering:geometricPrecision; text-rendering:geometricPrecision; image-rendering:optimizeQuality; fill-rule:evenodd; clip-rule:evenodd" xmlns:xlink="http://www.w3.org/1999/xlink">
<g><path style="opacity:0.914" fill="#fefffe" d="M 95.5,-0.5 C 97.5,-0.5 99.5,-0.5 101.5,-0.5C 102.504,0.682751 103.338,2.01608 104,3.5C 104.499,8.82294 104.666,14.1563 104.5,19.5C 118.968,20.9091 131.968,25.9091 143.5,34.5C 141.167,37.5 138.5,40.1667 135.5,42.5C 126.085,36.2949 115.752,32.6282 104.5,31.5C 104.666,39.84 104.5,48.1733 104,56.5C 102.309,60.2127 99.4755,61.3794 95.5,60C 94.2986,59.0975 93.4652,57.9308 93,56.5C 92.5003,48.1733 92.3336,39.84 92.5,31.5C 57.1697,36.8303 36.8364,57.1636 31.5,92.5C 39.5069,92.3336 47.5069,92.5003 55.5,93C 59.2127,94.6912 60.3794,97.5245 59,101.5C 58.0975,102.701 56.9308,103.535 55.5,104C 47.5069,104.5 39.5069,104.666 31.5,104.5C 32.2355,115.373 35.5688,125.373 41.5,134.5C 39.1667,137.5 36.5,140.167 33.5,142.5C 25.098,131.302 20.4313,118.636 19.5,104.5C 14.1563,104.666 8.82294,104.499 3.5,104C 2.01608,103.338 0.682751,102.504 -0.5,101.5C -0.5,99.5 -0.5,97.5 -0.5,95.5C 0.682751,94.4955 2.01608,93.6622 3.5,93C 8.82294,92.5006 14.1563,92.334 19.5,92.5C 25.4927,49.8406 49.8261,25.5073 92.5,19.5C 92.334,14.1563 92.5006,8.82294 93,3.5C 93.6622,2.01608 94.4955,0.682751 95.5,-0.5 Z"/></g>
<g><path style="opacity:0.951" fill="#fefffe" d="M 169.5,18.5 C 176.719,17.7718 181.052,20.9385 182.5,28C 182.007,30.8192 180.84,33.3192 179,35.5C 128.86,84.3059 78.6934,133.139 28.5,182C 21.4859,184.663 16.6526,182.496 14,175.5C 13.5162,173.087 13.8495,170.754 15,168.5C 66.3953,118.27 117.895,68.2696 169.5,18.5 Z"/></g>
<g><path style="opacity:0.912" fill="#fefffe" d="M 197.5,95.5 C 197.5,97.5 197.5,99.5 197.5,101.5C 196.317,102.504 194.984,103.338 193.5,104C 187.843,104.499 182.176,104.666 176.5,104.5C 170.678,146.656 146.678,170.989 104.5,177.5C 104.666,182.844 104.499,188.177 104,193.5C 103.338,194.984 102.504,196.317 101.5,197.5C 99.5,197.5 97.5,197.5 95.5,197.5C 94.4955,196.317 93.6622,194.984 93,193.5C 92.5006,188.177 92.334,182.844 92.5,177.5C 78.9907,176.377 66.6573,172.044 55.5,164.5C 57.8663,161.299 60.6997,158.633 64,156.5C 72.904,161.413 82.404,164.413 92.5,165.5C 92.3336,157.493 92.5003,149.493 93,141.5C 94.6912,137.787 97.5245,136.621 101.5,138C 102.701,138.903 103.535,140.069 104,141.5C 104.5,149.493 104.666,157.493 104.5,165.5C 138.943,159.557 159.276,139.39 165.5,105C 157.167,104.667 148.833,104.333 140.5,104C 136.787,102.309 135.621,99.4755 137,95.5C 137.903,94.2986 139.069,93.4652 140.5,93C 148.833,92.6667 157.167,92.3333 165.5,92C 163.808,82.3763 160.975,73.2096 157,64.5C 159.978,62.689 162.478,60.3557 164.5,57.5C 172.058,67.8371 176.058,79.5037 176.5,92.5C 182.176,92.3339 187.843,92.5006 193.5,93C 194.984,93.6622 196.317,94.4955 197.5,95.5 Z"/></g>
</svg>
