<?xml version="1.0" encoding="UTF-8"?>
<!DOCTYPE svg PUBLIC "-//W3C//DTD SVG 1.1//EN" "http://www.w3.org/Graphics/SVG/1.1/DTD/svg11.dtd">
<svg xmlns="http://www.w3.org/2000/svg" version="1.1" width="214px" height="158px" style="shape-rendering:geometricPrecision; text-rendering:geometricPrecision; image-rendering:optimizeQuality; fill-rule:evenodd; clip-rule:evenodd" xmlns:xlink="http://www.w3.org/1999/xlink">
<g><path style="opacity:0.889" fill="#fefffe" d="M 75.5,-0.5 C 76.8333,-0.5 78.1667,-0.5 79.5,-0.5C 79.6854,1.19578 80.5187,2.52912 82,3.5C 82.499,7.82056 82.6657,12.1539 82.5,16.5C 115.119,21.7856 134.119,40.7856 139.5,73.5C 143.846,73.3343 148.179,73.501 152.5,74C 156.5,77 156.5,80 152.5,83C 148.179,83.499 143.846,83.6657 139.5,83.5C 134.119,116.214 115.119,135.214 82.5,140.5C 82.6657,144.846 82.499,149.179 82,153.5C 80.5187,154.471 79.6854,155.804 79.5,157.5C 78.1667,157.5 76.8333,157.5 75.5,157.5C 75.3146,155.804 74.4813,154.471 73,153.5C 72.501,149.179 72.3343,144.846 72.5,140.5C 39.132,135.799 20.132,116.799 15.5,83.5C 11.1539,83.6657 6.82056,83.499 2.5,83C 1.62656,81.955 0.626561,81.1217 -0.5,80.5C -0.5,79.1667 -0.5,77.8333 -0.5,76.5C 0.626561,75.8783 1.62656,75.045 2.5,74C 6.82056,73.501 11.1539,73.3343 15.5,73.5C 20.132,40.2013 39.132,21.2013 72.5,16.5C 72.3343,12.1539 72.501,7.82056 73,3.5C 74.4813,2.52912 75.3146,1.19578 75.5,-0.5 Z M 66.5,26.5 C 68.5,26.5 70.5,26.5 72.5,26.5C 72.3338,32.8421 72.5005,39.1754 73,45.5C 74.6658,48.3788 77.1658,49.2121 80.5,48C 81.1258,47.2496 81.6258,46.4162 82,45.5C 82.4995,39.1754 82.6662,32.8421 82.5,26.5C 109.793,30.4593 125.459,46.1259 129.5,73.5C 123.158,73.3338 116.825,73.5005 110.5,74C 107.621,75.6658 106.788,78.1658 108,81.5C 108.75,82.1258 109.584,82.6258 110.5,83C 116.825,83.4995 123.158,83.6662 129.5,83.5C 125.459,110.874 109.793,126.541 82.5,130.5C 82.6662,124.491 82.4995,118.491 82,112.5C 79,107.167 76,107.167 73,112.5C 72.5005,118.491 72.3338,124.491 72.5,130.5C 44.9928,126.66 28.9928,110.993 24.5,83.5C 31.175,83.6663 37.8417,83.4996 44.5,83C 48.5,80 48.5,77 44.5,74C 37.8417,73.5004 31.175,73.3337 24.5,73.5C 28.731,48.9435 42.731,33.2768 66.5,26.5 Z"/></g>
<g><path style="opacity:0.961" fill="#fefffe" d="M 213.5,20.5 C 213.5,23.5 213.5,26.5 213.5,29.5C 206.11,44.2344 195.443,56.2344 181.5,65.5C 169.432,57.2661 159.599,46.9327 152,34.5C 148.113,26.8837 148.946,19.8837 154.5,13.5C 164.303,8.71747 173.303,10.0508 181.5,17.5C 190.349,9.52781 199.849,8.52781 210,14.5C 211.459,16.4319 212.625,18.4319 213.5,20.5 Z"/></g>
</svg>
