<?xml version="1.0" encoding="UTF-8"?>
<!DOCTYPE svg PUBLIC "-//W3C//DTD SVG 1.1//EN" "http://www.w3.org/Graphics/SVG/1.1/DTD/svg11.dtd">
<svg xmlns="http://www.w3.org/2000/svg" version="1.1" width="225px" height="181px" style="shape-rendering:geometricPrecision; text-rendering:geometricPrecision; image-rendering:optimizeQuality; fill-rule:evenodd; clip-rule:evenodd" xmlns:xlink="http://www.w3.org/1999/xlink">
<g><path style="opacity:0.901" fill="#fefffe" d="M 130.5,-0.5 C 132.167,-0.5 133.833,-0.5 135.5,-0.5C 136.072,1.25542 136.906,2.92209 138,4.5C 138.804,9.75132 138.637,14.918 137.5,20C 148.828,20.4999 160.162,20.6665 171.5,20.5C 171.335,17.4816 171.502,14.4816 172,11.5C 175.294,8.68875 178.294,9.02209 181,12.5C 181.497,15.146 181.664,17.8127 181.5,20.5C 192.5,20.5 203.5,20.5 214.5,20.5C 214.334,14.8236 214.501,9.15688 215,3.5C 215.662,2.01608 216.496,0.682751 217.5,-0.5C 218.833,-0.5 220.167,-0.5 221.5,-0.5C 222.167,0.833333 223.167,1.83333 224.5,2.5C 224.5,11.1667 224.5,19.8333 224.5,28.5C 223.711,28.7828 223.044,29.2828 222.5,30C 191.833,30.6667 161.167,30.6667 130.5,30C 129.333,29.5 128.5,28.6667 128,27.5C 127.333,19.5 127.333,11.5 128,3.5C 129.481,2.52912 130.315,1.19578 130.5,-0.5 Z"/></g>
<g><path style="opacity:0.901" fill="#fefffe" d="M 80.5,180.5 C 78.8333,180.5 77.1667,180.5 75.5,180.5C 73.8305,175.408 72.9972,170.075 73,164.5C 40.422,159.089 21.2553,140.089 15.5,107.5C 11.2044,106.672 6.8711,106.172 2.5,106C 1.62656,104.955 0.626561,104.122 -0.5,103.5C -0.5,102.5 -0.5,101.5 -0.5,100.5C 0.626561,99.8783 1.62656,99.045 2.5,98C 6.8711,97.8275 11.2044,97.3275 15.5,96.5C 20.7604,63.7394 39.7604,44.906 72.5,40C 73.3029,35.5855 73.8029,31.0855 74,26.5C 78.0502,22.3562 81.0502,23.0229 83,28.5C 83.3504,32.5332 83.5171,36.3666 83.5,40C 112.643,44.4716 131.143,60.9716 139,89.5C 139.497,92.146 139.664,94.8127 139.5,97.5C 144.511,97.3341 149.511,97.5007 154.5,98C 157.167,100.667 157.167,103.333 154.5,106C 149.511,106.499 144.511,106.666 139.5,106.5C 137.313,129.708 125.979,146.875 105.5,158C 98.5005,161.222 91.1672,163.222 83.5,164C 83.5171,167.633 83.3504,171.467 83,175.5C 82.6339,177.452 81.8005,179.118 80.5,180.5 Z M 69.5,49.5 C 70.8333,49.5 72.1667,49.5 73.5,49.5C 73.3337,56.175 73.5004,62.8417 74,69.5C 77.5228,73.7014 80.5228,73.3681 83,68.5C 83.8087,62.2511 83.642,56.0844 82.5,50C 110.191,53.8566 126.191,69.69 130.5,97.5C 123.825,97.3337 117.158,97.5004 110.5,98C 106.524,100.617 106.524,103.284 110.5,106C 117.158,106.5 123.825,106.666 130.5,106.5C 126.202,134.299 110.202,150.132 82.5,154C 83.6406,148.25 83.8072,142.416 83,136.5C 80.805,132.128 77.805,131.461 74,134.5C 73.5004,141.158 73.3337,147.825 73.5,154.5C 45.7896,150.123 29.7896,134.123 25.5,106.5C 32.175,106.666 38.8417,106.5 45.5,106C 48.1667,103.333 48.1667,100.667 45.5,98C 38.8417,97.5004 32.175,97.3337 25.5,97.5C 29.4307,71.5724 44.0974,55.5724 69.5,49.5 Z"/></g>
</svg>
