<?xml version="1.0" encoding="UTF-8"?>
<!DOCTYPE svg PUBLIC "-//W3C//DTD SVG 1.1//EN" "http://www.w3.org/Graphics/SVG/1.1/DTD/svg11.dtd">
<svg xmlns="http://www.w3.org/2000/svg" version="1.1" width="222px" height="221px" style="shape-rendering:geometricPrecision; text-rendering:geometricPrecision; image-rendering:optimizeQuality; fill-rule:evenodd; clip-rule:evenodd" xmlns:xlink="http://www.w3.org/1999/xlink">
<g><path style="opacity:0.907" fill="#fefffe" d="M 107.5,-0.5 C 109.5,-0.5 111.5,-0.5 113.5,-0.5C 115.393,6.93194 116.06,14.5986 115.5,22.5C 153.013,26.8484 178.846,46.515 193,81.5C 195.566,88.9642 197.066,96.6308 197.5,104.5C 204.175,104.334 210.842,104.5 217.5,105C 218.471,106.481 219.804,107.315 221.5,107.5C 221.5,109.167 221.5,110.833 221.5,112.5C 219.745,113.072 218.078,113.906 216.5,115C 210.175,115.5 203.842,115.666 197.5,115.5C 193.042,154.905 172.042,181.072 134.5,194C 128.277,195.815 121.944,196.981 115.5,197.5C 116.06,205.401 115.393,213.068 113.5,220.5C 111.5,220.5 109.5,220.5 107.5,220.5C 105.607,213.068 104.94,205.401 105.5,197.5C 66.1879,193.261 39.6879,172.594 26,135.5C 23.9935,128.969 22.8269,122.302 22.5,115.5C 16.1579,115.666 9.82458,115.5 3.5,115C 2.26444,113.915 0.931107,113.082 -0.5,112.5C -0.5,110.833 -0.5,109.167 -0.5,107.5C 1.19578,107.315 2.52912,106.481 3.5,105C 9.82458,104.5 16.1579,104.334 22.5,104.5C 27.142,63.6836 49.142,37.1836 88.5,25C 94.1113,23.7313 99.7779,22.898 105.5,22.5C 105.334,15.825 105.5,9.15835 106,2.5C 106.513,1.47344 107.013,0.473444 107.5,-0.5 Z M 97.5,33.5 C 100.167,33.5 102.833,33.5 105.5,33.5C 105.334,38.1785 105.501,42.8452 106,47.5C 109.49,51.5883 112.49,51.2549 115,46.5C 115.499,42.1794 115.666,37.8461 115.5,33.5C 151.263,37.7647 174.43,57.098 185,91.5C 186.075,95.77 186.575,100.103 186.5,104.5C 182.486,104.334 178.486,104.501 174.5,105C 169.191,108.384 169.191,111.717 174.5,115C 178.486,115.499 182.486,115.666 186.5,115.5C 183.492,146.005 168.159,167.839 140.5,181C 132.46,184.26 124.127,186.094 115.5,186.5C 115.666,182.486 115.499,178.486 115,174.5C 111.952,170.518 108.952,170.518 106,174.5C 105.667,178.833 105.333,183.167 105,187.5C 63.6149,181.115 39.4482,157.281 32.5,116C 36.5,115.667 40.5,115.333 44.5,115C 49.3954,112.177 49.7287,108.843 45.5,105C 41.1667,104.667 36.8333,104.333 32.5,104C 38.1145,65.557 59.7812,42.057 97.5,33.5 Z"/></g>
<g><path style="opacity:0.936" fill="#82c315" d="M 108.5,60.5 C 112.17,60.3266 114.67,61.9933 116,65.5C 116.822,78.4088 116.655,91.2421 115.5,104C 129.167,104.333 142.833,104.667 156.5,105C 160.5,108.333 160.5,111.667 156.5,115C 142.821,115.167 129.154,115.667 115.5,116.5C 116.647,129.121 116.814,141.788 116,154.5C 112.775,160.628 109.108,160.961 105,155.5C 104.5,142.171 104.333,128.837 104.5,115.5C 91.1625,115.667 77.8292,115.5 64.5,115C 60.5,111.667 60.5,108.333 64.5,105C 77.8292,104.5 91.1625,104.333 104.5,104.5C 104.333,91.1625 104.5,77.8292 105,64.5C 106.376,63.2949 107.542,61.9616 108.5,60.5 Z"/></g>
</svg>
