<?xml version="1.0" encoding="UTF-8" standalone="no"?>
<!DOCTYPE svg PUBLIC "-//W3C//DTD SVG 1.1//EN" "http://www.w3.org/Graphics/SVG/1.1/DTD/svg11.dtd">
<svg xmlns="http://www.w3.org/2000/svg" version="1.1" viewBox="0.00 0.00 214.00 210.00">
<path fill="#ffffff" d="
  M 58.02 60.88
  Q 56.98 60.24 55.96 61.70
  Q 54.33 64.05 52.56 66.31
  Q 41.55 80.39 30.27 94.24
  C 18.75 108.39 -3.45 90.43 7.62 76.37
  Q 34.71 41.97 61.87 7.62
  Q 63.02 6.17 66.31 4.58
  C 74.64 0.55 86.75 7.19 86.74 16.86
  Q 86.72 105.31 86.74 193.75
  C 86.74 198.27 83.50 202.19 79.50 204.34
  Q 69.12 209.92 60.85 200.14
  Q 57.97 196.75 57.97 192.00
  Q 57.95 130.62 57.96 69.25
  Q 57.96 65.66 58.42 61.70
  A 0.87 0.85 19.6 0 0 58.02 60.88
  Z"
/>
<path fill="#ffffff" d="
  M 121.84 161.75
  C 113.55 131.29 127.72 99.92 159.01 91.23
  C 170.13 88.14 180.99 88.77 192.04 91.50
  Q 200.08 93.49 201.42 94.05
  C 207.38 96.56 211.31 103.06 209.42 109.48
  C 207.88 114.71 200.88 120.23 195.07 118.33
  C 191.20 117.07 187.68 115.09 183.85 114.35
  C 179.45 113.49 175.73 112.64 171.17 113.45
  C 168.17 113.98 165.12 114.42 162.40 115.46
  Q 151.51 119.61 146.66 130.05
  C 144.44 134.81 142.74 143.62 143.78 148.74
  C 145.85 158.85 148.95 166.91 157.66 172.85
  C 166.47 178.84 176.12 180.05 186.48 178.66
  Q 188.66 178.37 194.23 176.46
  C 200.05 174.46 207.44 179.64 208.86 185.11
  Q 209.80 188.75 208.61 192.73
  C 206.78 198.90 200.48 201.46 194.65 201.98
  C 188.80 202.51 183.32 203.55 177.37 203.37
  C 151.78 202.61 128.67 186.82 121.84 161.75
  Z"
/>
</svg>
