<?xml version="1.0" encoding="UTF-8"?>
<!DOCTYPE svg PUBLIC "-//W3C//DTD SVG 1.1//EN" "http://www.w3.org/Graphics/SVG/1.1/DTD/svg11.dtd">
<svg xmlns="http://www.w3.org/2000/svg" version="1.1" width="196px" height="132px" style="shape-rendering:geometricPrecision; text-rendering:geometricPrecision; image-rendering:optimizeQuality; fill-rule:evenodd; clip-rule:evenodd" xmlns:xlink="http://www.w3.org/1999/xlink">
<g><path style="opacity:0.873" fill="#fefffe" d="M 41.5,-0.5 C 52.1667,-0.5 62.8333,-0.5 73.5,-0.5C 76.9554,2.72522 77.2887,6.22522 74.5,10C 62.7871,10.8119 51.1204,10.6452 39.5,9.5C 38.3036,8.44061 37.637,7.10727 37.5,5.5C 38.4316,3.23453 39.7649,1.23453 41.5,-0.5 Z"/></g>
<g><path style="opacity:0.901" fill="#fefffe" d="M 64.5,131.5 C 59.8333,131.5 55.1667,131.5 50.5,131.5C 31.7772,127.609 17.2772,117.609 7,101.5C 4.17875,95.51 1.67875,89.51 -0.5,83.5C -0.5,76.5 -0.5,69.5 -0.5,62.5C 13.0853,23.0387 40.0853,8.87201 80.5,20C 111.816,37.6103 121.649,63.4436 110,97.5C 100.366,116.234 85.1996,127.567 64.5,131.5 Z M 52.5,25.5 C 72.6718,24.6679 88.1718,32.6679 99,49.5C 110.436,74.8374 105.269,96.0041 83.5,113C 57.3255,126.299 35.1588,121.466 17,98.5C 3.87718,71.5616 9.37718,49.395 33.5,32C 39.5905,28.738 45.9238,26.5713 52.5,25.5 Z"/></g>
<g><path style="opacity:0.97" fill="#fefffe" d="M 195.5,70.5 C 195.5,72.1667 195.5,73.8333 195.5,75.5C 182.006,88.1608 169.006,101.328 156.5,115C 154.167,117 151.833,117 149.5,115C 148.833,88.3333 148.167,61.6667 147.5,35C 149.235,30.3219 152.235,28.9886 156.5,31C 169.006,44.6725 182.006,57.8392 195.5,70.5 Z"/></g>
<g><path style="opacity:0.878" fill="#fefffe" d="M 54.5,32.5 C 57.3646,32.0548 59.8646,32.7215 62,34.5C 62.4998,45.495 62.6665,56.495 62.5,67.5C 70.5069,67.3336 78.5069,67.5003 86.5,68C 91.4077,70.8727 91.741,74.206 87.5,78C 76.8333,78.6667 66.1667,78.6667 55.5,78C 54.6667,77.1667 53.8333,76.3333 53,75.5C 52.3333,61.8333 52.3333,48.1667 53,34.5C 53.7172,33.9558 54.2172,33.2891 54.5,32.5 Z"/></g>
</svg>
