<?xml version="1.0" encoding="UTF-8"?>
<!DOCTYPE svg PUBLIC "-//W3C//DTD SVG 1.1//EN" "http://www.w3.org/Graphics/SVG/1.1/DTD/svg11.dtd">
<svg xmlns="http://www.w3.org/2000/svg" version="1.1" width="182px" height="206px" style="shape-rendering:geometricPrecision; text-rendering:geometricPrecision; image-rendering:optimizeQuality; fill-rule:evenodd; clip-rule:evenodd" xmlns:xlink="http://www.w3.org/1999/xlink">
<g><path style="opacity:0.878" fill="#fefffe" d="M 64.5,-0.5 C 81.5,-0.5 98.5,-0.5 115.5,-0.5C 117.2,1.20994 118.533,3.20994 119.5,5.5C 118.968,7.74108 117.635,9.24108 115.5,10C 98.5,10.6667 81.5,10.6667 64.5,10C 60.5503,6.55058 60.5503,3.05058 64.5,-0.5 Z"/></g>
<g><path style="opacity:0.903" fill="#fefffe" d="M 181.5,105.5 C 181.5,111.833 181.5,118.167 181.5,124.5C 172.026,169.641 144.693,196.641 99.5,205.5C 93.5,205.5 87.5,205.5 81.5,205.5C 36.307,196.641 8.97365,169.641 -0.5,124.5C -0.5,117.833 -0.5,111.167 -0.5,104.5C 7.37487,63.1222 31.7082,36.9555 72.5,26C 119.2,19.7637 153.034,37.597 174,79.5C 177.083,88.1389 179.583,96.8055 181.5,105.5 Z M 76.5,35.5 C 111.829,31.5862 139.329,44.2529 159,73.5C 177.565,109.878 173.065,143.045 145.5,173C 116.301,197.252 84.6346,200.919 50.5,184C 14.9833,159.791 3.48334,126.958 16,85.5C 27.6488,58.3368 47.8155,41.6701 76.5,35.5 Z"/></g>
<g><path style="opacity:0.923" fill="#82c314" d="M 89.5,48.5 C 93.57,48.7352 96.4033,50.7352 98,54.5C 98.3333,72.1667 98.6667,89.8333 99,107.5C 112.091,106.345 125.258,106.178 138.5,107C 144.799,111.137 145.466,115.804 140.5,121C 123.258,122.638 105.925,122.971 88.5,122C 86.714,121.215 85.214,120.049 84,118.5C 82.3563,97.2556 82.023,75.9222 83,54.5C 84.4361,51.5581 86.6028,49.5581 89.5,48.5 Z"/></g>
</svg>
