<?xml version="1.0" encoding="UTF-8"?>
<!DOCTYPE svg PUBLIC "-//W3C//DTD SVG 1.1//EN" "http://www.w3.org/Graphics/SVG/1.1/DTD/svg11.dtd">
<svg xmlns="http://www.w3.org/2000/svg" version="1.1" width="195px" height="132px" style="shape-rendering:geometricPrecision; text-rendering:geometricPrecision; image-rendering:optimizeQuality; fill-rule:evenodd; clip-rule:evenodd" xmlns:xlink="http://www.w3.org/1999/xlink">
<g><path style="opacity:0.831" fill="#fefffe" d="M 41.5,-0.5 C 52.5,-0.5 63.5,-0.5 74.5,-0.5C 77.9458,2.68146 78.2791,6.18146 75.5,10C 63.8333,10.6667 52.1667,10.6667 40.5,10C 38.8757,8.88286 37.8757,7.38286 37.5,5.5C 38.4316,3.23453 39.7649,1.23453 41.5,-0.5 Z"/></g>
<g><path style="opacity:0.842" fill="#fefffe" d="M 65.5,131.5 C 61.1667,131.5 56.8333,131.5 52.5,131.5C 52.1667,130.167 51.8333,130.167 51.5,131.5C 51.1667,131.5 50.8333,131.5 50.5,131.5C 23.5636,124.896 6.56355,108.23 -0.5,81.5C -0.5,76.1667 -0.5,70.8333 -0.5,65.5C 9.00154,28.745 32.6682,12.245 70.5,16C 98.4172,24.4314 113.75,43.2647 116.5,72.5C 113.388,104.272 96.3885,123.939 65.5,131.5 Z M 54.5,25.5 C 80.2121,25.5978 96.7121,37.9311 104,62.5C 107.326,96.4774 91.9924,115.811 58,120.5C 29.2776,117.446 13.7776,101.612 11.5,73C 13.4388,45.8965 27.7721,30.0632 54.5,25.5 Z"/></g>
<g><path style="opacity:0.818" fill="#fefffe" d="M 56.5,31.5 C 59.3245,31.0807 61.4912,32.0807 63,34.5C 63.4998,45.495 63.6665,56.495 63.5,67.5C 71.84,67.3336 80.1733,67.5003 88.5,68C 92.436,71.1589 92.436,74.4922 88.5,78C 77.5,78.6667 66.5,78.6667 55.5,78C 55,77.5 54.5,77 54,76.5C 52.37,62.9278 52.0367,49.2611 53,35.5C 53.6897,33.6498 54.8564,32.3164 56.5,31.5 Z"/></g>
<g><path style="opacity:0.835" fill="#fefffe" d="M 194.5,51.5 C 194.5,52.5 194.5,53.5 194.5,54.5C 189.336,59.9408 184.336,65.6074 179.5,71.5C 184.336,77.3926 189.336,83.0592 194.5,88.5C 194.5,89.5 194.5,90.5 194.5,91.5C 192.96,95.0532 190.293,96.2199 186.5,95C 181.319,89.6516 175.985,84.485 170.5,79.5C 165.015,84.485 159.681,89.6516 154.5,95C 147.848,95.5171 145.681,92.6838 148,86.5C 153.015,81.6519 157.848,76.6519 162.5,71.5C 157.515,66.0147 152.348,60.6813 147,55.5C 146.276,49.222 148.942,46.8887 155,48.5C 160.079,53.6167 165.245,58.6167 170.5,63.5C 175.652,58.8485 180.652,54.0151 185.5,49C 189.286,46.8884 192.286,47.7218 194.5,51.5 Z"/></g>
</svg>
