<svg xmlns="http://www.w3.org/2000/svg" viewBox="0 0 234.9 233.19"><defs><style>.cls-1,.cls-5{fill:#fdfdfd;}.cls-1,.cls-2,.cls-3,.cls-4{fill-rule:evenodd;}.cls-2{fill:#fefefe;}.cls-3{fill:#17455b;}.cls-4{fill:#68bd5e;}</style></defs><g id="Слой_2" data-name="Слой 2"><g id="Слой_1-2" data-name="Слой 1"><path class="cls-1" d="M103,149.36c.2-24.39-1.78-29.6,10.44-47C128,81.48,146,77,149.73,74l-5.53-6.93c-9.3-12.25-25.43-16.72-41.47-16.75-22.79,0-35.52,7.79-45,21.22-10.31,14.65-8,34.21-8,58.6v19.18Z"/><path class="cls-2" d="M117.72,185.73c-3.4-5.33-6.29-8.62-9.49-15-1.59-3.21-5.87-15.8-6.81-16.89H33.73v12.31c.06,6.53,0,13,0,19.56Z"/><path class="cls-3" d="M155.74,97.86c0-12.4,13-12.43,13,0v30.29c0,11.28-13,11.42-13,0Zm79,47.1c-3.18,33.18-26.45,56.77-56.89,63.1C116.19,217,74,150.08,110.18,98.32c16.16-23.11,47.34-34.27,74.24-26.4,34.05,10.28,52.44,39.57,50.32,73Zm-56.61-33c-.28-4.72,3-8.33,7.6-8.21,13.6.28,37.61,48.52-.17,72.66-32.86,21-73.73-8.19-66-46.53,1.87-9.33,6.34-15.68,11.14-21,9.15-10.14,18.42-2.72,15,5.09-1.62,3.78-9.92,8.11-11.82,20.36-1.53,10.08,2.09,19.24,7.4,24.48,29.14,28.89,64.91-13.37,43.39-37.82-2.46-2.78-6.32-4.7-6.6-9Z"/><path class="cls-4" d="M178.13,112c.28,4.35,4.14,6.27,6.6,9,21.52,24.45-14.25,66.71-43.39,37.82-5.31-5.24-8.93-14.4-7.4-24.48,1.9-12.25,10.2-16.58,11.82-20.36,3.37-7.81-5.9-15.23-15-5.09-4.8,5.3-9.27,11.65-11.14,21-7.74,38.34,33.13,67.54,66,46.53,37.78-24.14,13.77-72.38.17-72.66-4.62-.12-7.88,3.49-7.6,8.21Z"/><path class="cls-4" d="M155.74,97.86v30.29c0,11.42,13,11.28,13,0V97.86c0-12.43-13-12.4-13,0Z"/><path class="cls-3" d="M106.47,66.42c1.25-17-48.42-.68-47,35.56-.09,7.27,8,10.82,9.81-2.26,4.56-33,34.89-26.8,37.16-33.3Z"/><rect class="cls-5" x="62.73" y="190.76" width="11.99" height="42.43"/><polygon class="cls-2" points="142.72 204.59 131.73 199.98 131.73 233.19 142.72 233.19 142.72 204.59"/><path class="cls-1" d="M98.33,0h4.14a6.86,6.86,0,0,1,6.81,6.87V29a6.85,6.85,0,0,1-6.81,6.88H98.33A6.84,6.84,0,0,1,91.53,29V6.87A6.85,6.85,0,0,1,98.33,0Z"/><path class="cls-1" d="M0,102V97.77A6.85,6.85,0,0,1,6.8,90.9H28.69a6.84,6.84,0,0,1,6.8,6.87V102a6.84,6.84,0,0,1-6.8,6.87H6.8A6.85,6.85,0,0,1,0,102Z"/><path class="cls-1" d="M28.43,28.17l2.92-3a6.78,6.78,0,0,1,9.61,0L56.44,40.86a6.89,6.89,0,0,1,0,9.7l-2.92,2.95a6.73,6.73,0,0,1-9.61,0L28.43,37.88a6.91,6.91,0,0,1,0-9.71Z"/></g></g></svg>