<?xml version="1.0" encoding="UTF-8"?>
<!DOCTYPE svg PUBLIC "-//W3C//DTD SVG 1.1//EN" "http://www.w3.org/Graphics/SVG/1.1/DTD/svg11.dtd">
<svg xmlns="http://www.w3.org/2000/svg" version="1.1" width="242px" height="108px" style="shape-rendering:geometricPrecision; text-rendering:geometricPrecision; image-rendering:optimizeQuality; fill-rule:evenodd; clip-rule:evenodd" xmlns:xlink="http://www.w3.org/1999/xlink">
<g><path style="opacity:0.984" fill="#fefefe" d="M 115.5,-0.5 C 118.833,-0.5 122.167,-0.5 125.5,-0.5C 154.791,5.29679 171.124,23.1301 174.5,53C 174.155,62.9279 171.488,72.0945 166.5,80.5C 135.819,84.4206 105.152,84.4206 74.5,80.5C 63.2293,59.8547 64.396,39.8547 78,20.5C 87.8844,8.64547 100.384,1.64547 115.5,-0.5 Z"/></g>
<g><path style="opacity:0.93" fill="#4c7e9e" d="M 74.5,80.5 C 105.152,84.4206 135.819,84.4206 166.5,80.5C 186.778,78.7643 206.111,73.5976 224.5,65C 228.816,63.194 230.65,60.0273 230,55.5C 226.79,51.8128 222.956,48.9794 218.5,47C 207.392,42.8523 196.058,39.519 184.5,37C 181.833,34 181.833,31 184.5,28C 201.733,28.9763 217.733,33.9763 232.5,43C 236.114,46.1033 239.114,49.6033 241.5,53.5C 241.5,56.1667 241.5,58.8333 241.5,61.5C 235.637,70.2842 227.637,76.4509 217.5,80C 198.054,86.7226 178.054,90.556 157.5,91.5C 150.183,92.1178 142.849,92.4512 135.5,92.5C 119.156,92.5663 102.823,92.233 86.5,91.5C 85.5,91.5 84.5,91.5 83.5,91.5C 62.9465,90.556 42.9465,86.7226 23.5,80C 13.3634,76.4509 5.36336,70.2842 -0.5,61.5C -0.5,58.8333 -0.5,56.1667 -0.5,53.5C 4.63954,45.0744 11.9729,39.2411 21.5,36C 32.4363,31.4319 43.7696,28.7652 55.5,28C 58.9661,30.6612 59.2994,33.6612 56.5,37C 44.9415,39.519 33.6082,42.8523 22.5,47C 18.0435,48.9794 14.2102,51.8128 11,55.5C 10.3503,60.0273 12.1837,63.194 16.5,65C 34.8913,73.5982 54.2246,78.7649 74.5,80.5 Z"/></g>
<g><path style="opacity:0.938" fill="#fdfefe" d="M 83.5,91.5 C 84.5,91.5 85.5,91.5 86.5,91.5C 96.6306,92.9259 106.964,93.5926 117.5,93.5C 123.676,93.4995 129.676,93.1662 135.5,92.5C 142.849,92.4512 150.183,92.1178 157.5,91.5C 147.686,100.907 136.02,106.24 122.5,107.5C 121.167,107.5 119.833,107.5 118.5,107.5C 104.98,106.24 93.3136,100.907 83.5,91.5 Z"/></g>
<g><path style="opacity:1" fill="#aac4d0" d="M 86.5,91.5 C 102.823,92.233 119.156,92.5663 135.5,92.5C 129.676,93.1662 123.676,93.4995 117.5,93.5C 106.964,93.5926 96.6306,92.9259 86.5,91.5 Z"/></g>
</svg>
