<?xml version="1.0" encoding="UTF-8"?>
<!DOCTYPE svg PUBLIC "-//W3C//DTD SVG 1.1//EN" "http://www.w3.org/Graphics/SVG/1.1/DTD/svg11.dtd">
<svg xmlns="http://www.w3.org/2000/svg" version="1.1" width="154px" height="156px" style="shape-rendering:geometricPrecision; text-rendering:geometricPrecision; image-rendering:optimizeQuality; fill-rule:evenodd; clip-rule:evenodd" xmlns:xlink="http://www.w3.org/1999/xlink">
<g><path style="opacity:0.982" fill="#fefffe" d="M 105.5,-0.5 C 109.833,-0.5 114.167,-0.5 118.5,-0.5C 136.768,4.10214 148.435,15.4355 153.5,33.5C 153.5,38.5 153.5,43.5 153.5,48.5C 151.607,55.9845 148.441,62.9845 144,69.5C 121.96,91.8742 99.6264,113.874 77,135.5C 57.3738,116.874 38.0405,97.8745 19,78.5C 18.3333,77.5 18.3333,76.5 19,75.5C 40.8333,53.6667 62.6667,31.8333 84.5,10C 91.0346,5.39933 98.0346,1.89933 105.5,-0.5 Z"/></g>
<g><path style="opacity:0.93" fill="#fefffe" d="M 59.5,155.5 C 59.1667,155.5 58.8333,155.5 58.5,155.5C 39.1667,135.5 19.5,115.833 -0.5,96.5C -0.5,95.8333 -0.5,95.1667 -0.5,94.5C 3.96447,90.5368 8.2978,86.3702 12.5,82C 13.1667,81.3333 13.8333,81.3333 14.5,82C 33.6667,101.167 52.8333,120.333 72,139.5C 72.6667,140.167 72.6667,140.833 72,141.5C 67.2323,145.76 63.0656,150.427 59.5,155.5 Z"/></g>
</svg>
