<?xml version="1.0" encoding="UTF-8"?>
<!DOCTYPE svg PUBLIC "-//W3C//DTD SVG 1.1//EN" "http://www.w3.org/Graphics/SVG/1.1/DTD/svg11.dtd">
<svg xmlns="http://www.w3.org/2000/svg" version="1.1" width="186px" height="180px" style="shape-rendering:geometricPrecision; text-rendering:geometricPrecision; image-rendering:optimizeQuality; fill-rule:evenodd; clip-rule:evenodd" xmlns:xlink="http://www.w3.org/1999/xlink">
<g><path style="opacity:0.964" fill="#23a2e8" d="M 83.5,-0.5 C 88.5,-0.5 93.5,-0.5 98.5,-0.5C 107.022,2.52795 112.189,8.52795 114,17.5C 114.875,28.2174 114.541,38.8841 113,49.5C 109.329,58.0902 102.829,62.9235 93.5,64C 63.5,64.6667 33.5,64.6667 3.5,64C 2.01608,63.3378 0.682751,62.5045 -0.5,61.5C -0.5,59.8333 -0.5,58.1667 -0.5,56.5C 1.88753,53.9238 4.88753,52.9238 8.5,53.5C 8.55688,54.609 8.89022,55.609 9.5,56.5C 8.11899,58.2741 8.45232,59.7741 10.5,61C 31.5,61.6667 52.5,61.6667 73.5,61C 75.3937,59.9207 75.727,58.5874 74.5,57C 53.1693,56.5 31.8359,56.3334 10.5,56.5C 31.6866,56.1632 52.6866,55.1632 73.5,53.5C 80.5079,53.6663 87.5079,53.4996 94.5,53C 98.4987,52.3322 101.332,50.1655 103,46.5C 103.667,36.5 103.667,26.5 103,16.5C 100.635,12.1493 96.9683,9.81599 92,9.5C 88.7215,9.92828 85.2215,10.7616 81.5,12C 80.6667,12.8333 79.8333,13.6667 79,14.5C 78.5012,18.4862 78.3345,22.4862 78.5,26.5C 81.8499,26.335 85.1832,26.5017 88.5,27C 92.6625,30.8292 92.3292,34.1625 87.5,37C 82.5,37.6667 77.5,37.6667 72.5,37C 71.0692,36.5348 69.9025,35.7014 69,34.5C 68.3333,26.8333 68.3333,19.1667 69,11.5C 72.0687,5.23488 76.902,1.23488 83.5,-0.5 Z"/></g>
<g><path style="opacity:0.926" fill="#9ff3fc" d="M 26.5,35.5 C 36.1724,35.3335 45.8391,35.5002 55.5,36C 60.8333,39.3333 60.8333,42.6667 55.5,46C 45.8333,46.6667 36.1667,46.6667 26.5,46C 21.2721,42.5116 21.2721,39.0116 26.5,35.5 Z"/></g>
<g><path style="opacity:0.975" fill="#9ef3fc" d="M 148.5,45.5 C 161.002,48.1662 168.835,55.8329 172,68.5C 175.704,85.7907 174.704,102.791 169,119.5C 165.955,127.71 160.455,133.377 152.5,136.5C 146.782,137.995 141.115,137.829 135.5,136C 128.764,132.024 126.264,126.191 128,118.5C 131.787,115.086 136.287,113.253 141.5,113C 148.148,108.048 148.148,103.048 141.5,98C 107.891,96.0865 74.2244,95.0865 40.5,95C 37.7006,91.6612 38.0339,88.6612 41.5,86C 68.6735,85.2547 95.8402,85.4214 123,86.5C 128.867,86.3842 134.7,85.8842 140.5,85C 146.773,81.7794 148.106,77.1127 144.5,71C 139.55,69.4282 134.717,67.5949 130,65.5C 127.323,53.5611 132.156,46.5611 144.5,44.5C 145.736,45.2458 147.07,45.5792 148.5,45.5 Z"/></g>
<g><path style="opacity:0.961" fill="#21a1e8" d="M 185.5,78.5 C 185.5,86.8333 185.5,95.1667 185.5,103.5C 183.91,113.085 180.076,121.751 174,129.5C 167.681,135.026 160.515,137.36 152.5,136.5C 160.455,133.377 165.955,127.71 169,119.5C 174.704,102.791 175.704,85.7907 172,68.5C 168.835,55.8329 161.002,48.1662 148.5,45.5C 162.506,42.75 173.006,47.75 180,60.5C 182.165,66.5194 183.999,72.5194 185.5,78.5 Z"/></g>
<g><path style="opacity:0.644" fill="#1199e6" d="M 8.5,53.5 C 30.1667,53.5 51.8333,53.5 73.5,53.5C 52.6866,55.1632 31.6866,56.1632 10.5,56.5C 10.1667,56.5 9.83333,56.5 9.5,56.5C 8.89022,55.609 8.55688,54.609 8.5,53.5 Z"/></g>
<g><path style="opacity:1" fill="#f1f8fd" d="M 9.5,56.5 C 9.83333,56.5 10.1667,56.5 10.5,56.5C 31.8359,56.3334 53.1693,56.5 74.5,57C 75.727,58.5874 75.3937,59.9207 73.5,61C 52.5,61.6667 31.5,61.6667 10.5,61C 8.45232,59.7741 8.11899,58.2741 9.5,56.5 Z"/></g>
<g><path style="opacity:0.964" fill="#23a2e8" d="M 98.5,179.5 C 93.5,179.5 88.5,179.5 83.5,179.5C 76.902,177.765 72.0687,173.765 69,167.5C 68.3333,159.833 68.3333,152.167 69,144.5C 69.9025,143.299 71.0692,142.465 72.5,142C 77.5,141.333 82.5,141.333 87.5,142C 92.3292,144.837 92.6625,148.171 88.5,152C 85.1832,152.498 81.8499,152.665 78.5,152.5C 75.5271,162.999 79.3605,168.666 90,169.5C 92.9531,169.091 96.1198,168.258 99.5,167C 101.049,165.786 102.215,164.286 103,162.5C 103.667,152.5 103.667,142.5 103,132.5C 101.437,129.272 98.9371,127.105 95.5,126C 87.8406,125.5 80.1739,125.334 72.5,125.5C 52.0202,123.837 31.3535,122.837 10.5,122.5C 31.8359,122.667 53.1693,122.5 74.5,122C 75.727,120.413 75.3937,119.079 73.5,118C 52.5,117.333 31.5,117.333 10.5,118C 9.69194,118.308 9.02527,118.808 8.5,119.5C 9.12723,120.417 9.46056,121.417 9.5,122.5C 9.5,123.5 9.5,124.5 9.5,125.5C 5.56695,126.143 2.23362,125.143 -0.5,122.5C -0.5,120.833 -0.5,119.167 -0.5,117.5C 0.682751,116.496 2.01608,115.662 3.5,115C 33.5,114.333 63.5,114.333 93.5,115C 102.829,116.076 109.329,120.91 113,129.5C 114.541,140.116 114.875,150.783 114,161.5C 112.189,170.472 107.022,176.472 98.5,179.5 Z"/></g>
<g><path style="opacity:1" fill="#f1f9fd" d="M 10.5,122.5 C 10.1667,122.5 9.83333,122.5 9.5,122.5C 9.46056,121.417 9.12723,120.417 8.5,119.5C 9.02527,118.808 9.69194,118.308 10.5,118C 31.5,117.333 52.5,117.333 73.5,118C 75.3937,119.079 75.727,120.413 74.5,122C 53.1693,122.5 31.8359,122.667 10.5,122.5 Z"/></g>
<g><path style="opacity:0.641" fill="#1199e6" d="M 9.5,122.5 C 9.83333,122.5 10.1667,122.5 10.5,122.5C 31.3535,122.837 52.0202,123.837 72.5,125.5C 51.5,125.5 30.5,125.5 9.5,125.5C 9.5,124.5 9.5,123.5 9.5,122.5 Z"/></g>
<g><path style="opacity:0.929" fill="#9ef3fc" d="M 26.5,130.5 C 36.1724,130.334 45.8391,130.5 55.5,131C 60.8333,134.333 60.8333,137.667 55.5,141C 45.8333,141.667 36.1667,141.667 26.5,141C 21.2937,137.446 21.2937,133.946 26.5,130.5 Z"/></g>
</svg>
