<?xml version="1.0" encoding="UTF-8"?>
<!DOCTYPE svg PUBLIC "-//W3C//DTD SVG 1.1//EN" "http://www.w3.org/Graphics/SVG/1.1/DTD/svg11.dtd">
<svg xmlns="http://www.w3.org/2000/svg" version="1.1" width="182px" height="159px" style="shape-rendering:geometricPrecision; text-rendering:geometricPrecision; image-rendering:optimizeQuality; fill-rule:evenodd; clip-rule:evenodd" xmlns:xlink="http://www.w3.org/1999/xlink">
<g><path style="opacity:0.898" fill="#fefffe" d="M 87.5,-0.5 C 89.1667,-0.5 90.8333,-0.5 92.5,-0.5C 93.0722,1.25542 93.9055,2.92209 95,4.5C 95.8037,9.75132 95.637,14.918 94.5,20C 105.828,20.4999 117.162,20.6665 128.5,20.5C 128.335,17.4816 128.502,14.4816 129,11.5C 132.294,8.68875 135.294,9.02209 138,12.5C 138.497,15.146 138.664,17.8127 138.5,20.5C 149.5,20.5 160.5,20.5 171.5,20.5C 171.334,14.8236 171.501,9.15688 172,3.5C 172.662,2.01608 173.496,0.682751 174.5,-0.5C 175.833,-0.5 177.167,-0.5 178.5,-0.5C 179.167,0.833333 180.167,1.83333 181.5,2.5C 181.5,11.1667 181.5,19.8333 181.5,28.5C 180.711,28.7828 180.044,29.2828 179.5,30C 148.833,30.6667 118.167,30.6667 87.5,30C 86.3333,29.5 85.5,28.6667 85,27.5C 84.3333,19.5 84.3333,11.5 85,3.5C 86.4813,2.52912 87.3146,1.19578 87.5,-0.5 Z"/></g>
<g><path style="opacity:0.967" fill="#2aabe9" d="M -0.5,49.5 C 4.5,49.5 9.5,49.5 14.5,49.5C 14.5,54.1667 14.5,58.8333 14.5,63.5C 20.1667,63.5 25.8333,63.5 31.5,63.5C 31.5,58.8333 31.5,54.1667 31.5,49.5C 39.5,49.5 47.5,49.5 55.5,49.5C 55.5,54.1667 55.5,58.8333 55.5,63.5C 61.1667,63.5 66.8333,63.5 72.5,63.5C 72.5,58.8333 72.5,54.1667 72.5,49.5C 77.8333,49.5 83.1667,49.5 88.5,49.5C 88.5,63.5 88.5,77.5 88.5,91.5C 83.8333,91.5 79.1667,91.5 74.5,91.5C 76.8748,113.874 79.5415,136.207 82.5,158.5C 74.1667,158.5 65.8333,158.5 57.5,158.5C 57.6666,145.496 57.4999,132.496 57,119.5C 53.2192,111.695 47.0525,108.862 38.5,111C 33.6643,112.819 30.831,116.319 30,121.5C 29.5001,133.829 29.3335,146.162 29.5,158.5C 21.5,158.5 13.5,158.5 5.5,158.5C 7.54948,136.218 10.2161,114.051 13.5,92C 8.8452,91.5008 4.17853,91.3342 -0.5,91.5C -0.5,77.5 -0.5,63.5 -0.5,49.5 Z"/></g>
</svg>
