<svg xmlns="http://www.w3.org/2000/svg" viewBox="0 0 234.17 149.79"><defs><style>.cls-1{fill:#fefefe;}.cls-1,.cls-2{fill-rule:evenodd;}.cls-2{fill:#fdfdfd;}</style></defs><g id="Слой_2" data-name="Слой 2"><g id="Слой_1-2" data-name="Слой 1"><path class="cls-1" d="M44.45,75.87c0-17.29,11.76-29,26.25-30.83,9-.69,18.14,1.05,25.79,9.76,18.06,20.5,1.82,50.87-22.19,50.36A30,30,0,0,1,44.45,75.87ZM70.7,122.68c15.7.2,26.78-3.43,37.78-14.49,22.37-24.65,15.11-61.49-12.64-75.84C72.43,20.27,42.49,29.43,30.76,56.12,16.61,88.5,41.16,121.28,70.7,122.68Z"/><path class="cls-1" d="M188.67,28.72l0,17.09H171.13a8.14,8.14,0,0,0-6,2.55,8.31,8.31,0,0,0-2.47,6.09v3A8.58,8.58,0,0,0,171.13,66H188.7l0,17.67a8.43,8.43,0,0,0,2.5,6.07,8.26,8.26,0,0,0,6,2.52h2.1a8.2,8.2,0,0,0,6-2.52,8.36,8.36,0,0,0,2.49-6.1L207.69,66h18a8.57,8.57,0,0,0,8.5-8.59v-3a8.57,8.57,0,0,0-8.5-8.59h-18l.09-17.07a8.34,8.34,0,0,0-2.49-6.09,8.24,8.24,0,0,0-6-2.52h-2.1a8.26,8.26,0,0,0-6,2.52,8.42,8.42,0,0,0-2.5,6.07Z"/><path class="cls-2" d="M171.21,130.64h54.46a8.56,8.56,0,0,0,8.5-8.59v-3a8.57,8.57,0,0,0-8.5-8.58H171.21a8.57,8.57,0,0,0-8.5,8.58v3a8.56,8.56,0,0,0,8.5,8.59Z"/><path class="cls-2" d="M72.91,0H75.4a4.16,4.16,0,0,1,4.14,4.15v13.4a4.18,4.18,0,0,1-4.14,4.18H72.91a4.16,4.16,0,0,1-4.11-4.18V4.15A4.13,4.13,0,0,1,72.91,0Z"/><path class="cls-2" d="M72.91,128.09H75.4a4.16,4.16,0,0,1,4.14,4.15v13.4a4.16,4.16,0,0,1-4.14,4.15H72.91a4.13,4.13,0,0,1-4.11-4.15v-13.4a4.13,4.13,0,0,1,4.11-4.15Z"/><path class="cls-2" d="M0,76.16V73.64a4.13,4.13,0,0,1,4.11-4.15H17.38a4.15,4.15,0,0,1,4.13,4.15v2.52a4.18,4.18,0,0,1-4.13,4.18H4.11A4.16,4.16,0,0,1,0,76.16Z"/><path class="cls-2" d="M126.82,76.16V73.64a4.13,4.13,0,0,1,4.11-4.15H144.2a4.13,4.13,0,0,1,4.11,4.15v2.52a4.16,4.16,0,0,1-4.11,4.18H130.93a4.16,4.16,0,0,1-4.11-4.18Z"/><path class="cls-2" d="M126.43,21.79l1.75,1.77a4.19,4.19,0,0,1,0,5.9l-9.35,9.48a4.15,4.15,0,0,1-5.84,0l-1.76-1.81a4.2,4.2,0,0,1,0-5.89l9.36-9.45a4.1,4.1,0,0,1,5.84,0Z"/><path class="cls-2" d="M35.32,110.89l1.79,1.77a4.26,4.26,0,0,1,0,5.9L27.72,128a4.13,4.13,0,0,1-5.84,0l-1.75-1.8a4.19,4.19,0,0,1,0-5.9l9.38-9.44a4,4,0,0,1,5.81,0Z"/><path class="cls-2" d="M20.49,23.16l1.79-1.77a4.08,4.08,0,0,1,5.84,0l9.35,9.47a4.15,4.15,0,0,1,0,5.87l-1.75,1.81a4.15,4.15,0,0,1-5.84,0l-9.39-9.48a4.26,4.26,0,0,1,0-5.9Z"/><path class="cls-2" d="M110.83,113.06l1.79-1.77a4,4,0,0,1,5.81,0l9.38,9.44a4.25,4.25,0,0,1,0,5.9L126,128.41a4.06,4.06,0,0,1-5.81,0L110.83,119a4.21,4.21,0,0,1,0-5.9Z"/></g></g></svg>