<?xml version="1.0" encoding="UTF-8"?>
<!DOCTYPE svg PUBLIC "-//W3C//DTD SVG 1.1//EN" "http://www.w3.org/Graphics/SVG/1.1/DTD/svg11.dtd">
<svg xmlns="http://www.w3.org/2000/svg" version="1.1" width="224px" height="204px" style="shape-rendering:geometricPrecision; text-rendering:geometricPrecision; image-rendering:optimizeQuality; fill-rule:evenodd; clip-rule:evenodd" xmlns:xlink="http://www.w3.org/1999/xlink">
<g><path style="opacity:0.903" fill="#fefffe" d="M 169.5,-0.5 C 170.833,-0.5 172.167,-0.5 173.5,-0.5C 180.753,10.6013 188.253,21.6013 196,32.5C 196.875,33.8732 197.375,35.3732 197.5,37C 190.789,48.7267 183.622,60.2267 176,71.5C 173.582,73.6801 170.916,74.0135 168,72.5C 166.699,70.6354 166.365,68.6354 167,66.5C 173.5,56.6667 180,46.8333 186.5,37C 180.371,27.2397 173.871,17.7397 167,8.5C 165.927,4.90027 166.76,1.90027 169.5,-0.5 Z"/></g>
<g><path style="opacity:0.911" fill="#fefffe" d="M 195.5,-0.5 C 196.833,-0.5 198.167,-0.5 199.5,-0.5C 207.507,11.1718 215.507,22.8385 223.5,34.5C 223.5,36.1667 223.5,37.8333 223.5,39.5C 216.109,49.9286 208.942,60.5952 202,71.5C 196.132,74.9631 193.132,73.2965 193,66.5C 199.749,56.6705 206.249,46.6705 212.5,36.5C 205.804,26.9697 199.304,17.3031 193,7.5C 192.388,4.3893 193.221,1.72264 195.5,-0.5 Z"/></g>
<g><path style="opacity:0.923" fill="#fefffe" d="M 165.5,203.5 C 163.167,203.5 160.833,203.5 158.5,203.5C 142.979,189.484 127.812,174.817 113,159.5C 94.4576,170.749 74.6242,173.582 53.5,168C 23.5478,157.888 5.54782,137.388 -0.5,106.5C -0.5,99.5 -0.5,92.5 -0.5,85.5C 9.75089,41.7633 37.4176,20.2633 82.5,21C 123.55,28.8993 145.884,53.7326 149.5,95.5C 148.685,111.945 143.685,126.945 134.5,140.5C 148.182,154.348 161.682,168.348 175,182.5C 176.324,188.343 175.324,193.676 172,198.5C 169.243,199.603 167.076,201.269 165.5,203.5 Z M 69.5,30.5 C 106.628,31.0862 129.461,49.7529 138,86.5C 140.838,121.18 126.171,144.847 94,157.5C 61.8362,165.339 36.5029,155.673 18,128.5C 2.96987,96.8406 8.13654,69.0073 33.5,45C 44.2744,36.9134 56.2744,32.0801 69.5,30.5 Z"/></g>
<g><path style="opacity:0.984" fill="#2aabe8" d="M 29.5,50.5 C 59.1685,50.3334 88.8352,50.5 118.5,51C 119.495,80.7597 119.829,110.593 119.5,140.5C 89.5,140.5 59.5,140.5 29.5,140.5C 29.5,110.5 29.5,80.5 29.5,50.5 Z"/></g>
</svg>
