<svg xmlns="http://www.w3.org/2000/svg" viewBox="0 0 128.51 202.19"><defs><style>.cls-1{fill:#fefefe;}.cls-1,.cls-2{fill-rule:evenodd;}.cls-2{fill:#17465a;}</style></defs><g id="Слой_2" data-name="Слой 2"><g id="Слой_1-2" data-name="Слой 1"><path class="cls-1" d="M62,0h5.7c21.46.83,42,11.34,47.4,31.26,4.11,15.18,2,58.44,2,78.82,18.26,1.81,12.22,25.34-1,24.25h-32v14.15h32c8.9,0,6.92,10.1,2,10.1l-43.57,0V134.33H55.07V196c0,9-10,7-10,2V134.33h-32c-16,0-18-21.87-2-23.22V47.47c0-9.39-.63-10.77,2.26-17.92C20.94,10.62,41.35.83,62,0Z"/><path class="cls-2" d="M74.51,57.72v52.13a4.59,4.59,0,0,0,4.54,4.59h.48a4.58,4.58,0,0,0,4.54-4.59V52.42a4.57,4.57,0,0,0-4.54-4.58H54a4.57,4.57,0,0,0-4.53,4.58v.72A4.57,4.57,0,0,0,54,57.72Z"/><path class="cls-2" d="M48.92,114.44h2a4.29,4.29,0,0,0,4.25-4.3V71.52a4.27,4.27,0,0,0-4.25-4.3h-2a4.27,4.27,0,0,0-4.25,4.3v38.62a4.29,4.29,0,0,0,4.25,4.3Z"/></g></g></svg>