<?xml version="1.0" encoding="UTF-8"?>
<!DOCTYPE svg PUBLIC "-//W3C//DTD SVG 1.1//EN" "http://www.w3.org/Graphics/SVG/1.1/DTD/svg11.dtd">
<svg xmlns="http://www.w3.org/2000/svg" version="1.1" width="188px" height="168px" style="shape-rendering:geometricPrecision; text-rendering:geometricPrecision; image-rendering:optimizeQuality; fill-rule:evenodd; clip-rule:evenodd" xmlns:xlink="http://www.w3.org/1999/xlink">
<g><path style="opacity:0.958" fill="#fefffe" d="M 4.5,-0.5 C 7.16667,-0.5 9.83333,-0.5 12.5,-0.5C 14.168,1.34004 15.668,3.34004 17,5.5C 17.3333,9.5 17.6667,13.5 18,17.5C 25.1093,16.1879 32.2759,16.1879 39.5,17.5C 32.3333,30.5 25.1667,43.5 18,56.5C 17.6667,91.5 17.3333,126.5 17,161.5C 16.1959,164.146 14.6959,166.146 12.5,167.5C 9.83333,167.5 7.16667,167.5 4.5,167.5C 3.41543,165.413 1.74876,164.08 -0.5,163.5C -0.5,110.5 -0.5,57.5 -0.5,4.5C 1.5,3.16667 3.16667,1.5 4.5,-0.5 Z"/></g>
<g><path style="opacity:0.96" fill="#fefffe" d="M 174.5,-0.5 C 176.833,-0.5 179.167,-0.5 181.5,-0.5C 183.475,1.13696 185.475,2.80363 187.5,4.5C 187.5,57.1667 187.5,109.833 187.5,162.5C 185.5,163.833 183.833,165.5 182.5,167.5C 179.833,167.5 177.167,167.5 174.5,167.5C 172.525,166.354 171.025,164.687 170,162.5C 169.667,132.167 169.333,101.833 169,71.5C 161.891,72.8121 154.724,72.8121 147.5,71.5C 154.667,58.5 161.833,45.5 169,32.5C 169.333,23.5 169.667,14.5 170,5.5C 170.979,3.03244 172.479,1.03244 174.5,-0.5 Z"/></g>
<g><path style="opacity:0.93" fill="#fefffe" d="M 54.5,16.5 C 63.1667,16.5 71.8333,16.5 80.5,16.5C 80.5086,18.3084 80.0086,19.9751 79,21.5C 69.5795,38.0061 60.4128,54.6728 51.5,71.5C 42.1667,72.8333 32.8333,72.8333 23.5,71.5C 33.5921,52.9774 43.9254,34.6441 54.5,16.5 Z"/></g>
<g><path style="opacity:0.93" fill="#fefffe" d="M 95.5,16.5 C 104.525,16.1685 113.525,16.5018 122.5,17.5C 112.5,35.5 102.5,53.5 92.5,71.5C 83.5246,72.4982 74.5246,72.8315 65.5,72.5C 74.9586,53.585 84.9586,34.9184 95.5,16.5 Z"/></g>
<g><path style="opacity:0.93" fill="#fefffe" d="M 136.5,16.5 C 145.525,16.1685 154.525,16.5018 163.5,17.5C 153.373,35.5864 143.373,53.753 133.5,72C 124.482,72.832 115.482,72.6653 106.5,71.5C 116.528,53.1497 126.528,34.8164 136.5,16.5 Z"/></g>
</svg>
