<?xml version="1.0" encoding="UTF-8"?>
<!DOCTYPE svg PUBLIC "-//W3C//DTD SVG 1.1//EN" "http://www.w3.org/Graphics/SVG/1.1/DTD/svg11.dtd">
<svg xmlns="http://www.w3.org/2000/svg" version="1.1" width="186px" height="166px" style="shape-rendering:geometricPrecision; text-rendering:geometricPrecision; image-rendering:optimizeQuality; fill-rule:evenodd; clip-rule:evenodd" xmlns:xlink="http://www.w3.org/1999/xlink">
<g><path style="opacity:0.949" fill="#fefffe" d="M 50.5,-0.5 C 50.8333,-0.5 51.1667,-0.5 51.5,-0.5C 51.8333,0.833333 52.1667,0.833333 52.5,-0.5C 57.8333,-0.5 63.1667,-0.5 68.5,-0.5C 100.129,7.474 117.462,27.8073 120.5,60.5C 119.862,68.6547 118.695,76.6547 117,84.5C 121.682,89.0148 126.182,93.6815 130.5,98.5C 114.295,111.231 108.629,127.564 113.5,147.5C 103.347,137.848 93.3475,128.014 83.5,118C 46.3589,126.978 19.5255,114.478 3,80.5C 2.33333,77.1667 1.66667,73.8333 1,70.5C 0.617425,69.944 0.117425,69.6107 -0.5,69.5C -0.5,64.1667 -0.5,58.8333 -0.5,53.5C 0.934943,49.3117 2.26828,44.9783 3.5,40.5C 5.09833,39.5153 6.76499,39.3486 8.5,40C 20.0412,51.8756 31.8745,63.3756 44,74.5C 53.9849,65.5154 63.6516,56.1821 73,46.5C 73.6667,45.1667 73.6667,43.8333 73,42.5C 61.9859,31.3191 50.8193,20.3191 39.5,9.5C 38.1667,7.83333 38.1667,6.16667 39.5,4.5C 43.5023,3.27241 47.169,1.60575 50.5,-0.5 Z"/></g>
<g><path style="opacity:0.954" fill="#2aabe9" d="M 185.5,112.5 C 185.5,129.167 185.5,145.833 185.5,162.5C 184.599,163.29 183.932,164.29 183.5,165.5C 166.167,165.5 148.833,165.5 131.5,165.5C 130.173,147.667 130.173,129.833 131.5,112C 149.574,111.181 167.574,111.348 185.5,112.5 Z"/></g>
</svg>
