<svg xmlns="http://www.w3.org/2000/svg" viewBox="0 0 214.02 212.83"><defs><style>.cls-1{fill:#c63020;}.cls-1,.cls-2,.cls-3,.cls-4,.cls-5,.cls-6{fill-rule:evenodd;}.cls-2{fill:#fefefe;}.cls-3{fill:#c63122;}.cls-4{fill:#e19792;}.cls-5{fill:#e08d84;}.cls-6{fill:#e2938c;}</style></defs><g id="Слой_2" data-name="Слой 2"><g id="Слой_1-2" data-name="Слой 1"><path class="cls-1" d="M40.68,27.1a8.23,8.23,0,0,1-.8.43c-.19.09-.56.29-.79.38l-2.69.88c-6.47,6-12.79,5.07-20.75,19-5.05,8.88-6.41,23.91-1.73,32.41,5.84-3,49.86-24.82,51.16-27,4.57,2.67,3.94,20,3.09,25.43-1.61,10.62-4.5,14.14-8.87,22l-2.64,3c-5.13,8-22.08,14.46-36,15.66.34,8.33,1.76,18,5.28,24.34,4.67,8.39,11.59,8.93,16.15,15.49l-3.4.74c-7.54,3.81-11.59,8.76-17.32,13.29-6,4.72-1.44,20.15,1.65,27.25l24.43-2.06c1-12.91.77-17.89,7.51-25,4.79-5,10.72-11.2,17.78-15.35,12.41-7.3,11-4.81,24.4-5.38,39.8-1.66,92.5-23.22,103.18-60.81,4.48-15.72,2.16-43-5.95-54.17C172.69,2.65,79.6,1.39,40.68,27.1Z"/><path class="cls-2" d="M13.92,80.24c-4.68-8.5-3.32-23.53,1.73-32.41C38.49,7.66,164.78-3.22,194.4,37.7c8.11,11.19,10.43,38.45,5.95,54.17C189.67,129.46,137,151,97.17,152.68c-13.43.57-12-1.92-24.4,5.38-7.06,4.15-13,10.31-17.78,15.35-6.74,7.1-6.52,12.08-7.51,25l-24.43,2.06c-3.09-7.1-5.53-21.82.45-26.54,5.73-4.55,12.81-10.39,20.38-14.23-4.88-5.27-20.35-16.06-21.29-38.85,45.5-2.15,54.14-60.07,42.49-67.6-5.64,3.3-42.69,22.62-51.16,27ZM0,63.32C0,76.81,1.79,84.77,9,95.65L56.72,70.88c3.63,7.73-8.16,38.91-38.72,38.91H11C7.85,138.48,14.94,146,25,157.26c-4.68,3.89-16,12.51-16,17.18-1.61,9.47,0,25.79,6,38.39l43-3.67c.06-8.87.57-22.7,6.32-29.4,3.8-4.38,15.59-13.86,21-15.09,7.51-1.74,23.73-1.06,33.25-2.77C161,154.17,214,127.28,214,73.43c0-30.92-8.48-45.55-28.44-57.15C127.56-17.39,0,2.54,0,63.32Z"/><path class="cls-2" d="M96,130.77c-7.68-1.34-5-10.53.77-9.79,6.12,1.35,5.33,9.77-.77,9.79Zm78.86-82.34a5.32,5.32,0,1,1-5.24,5.3,5.29,5.29,0,0,1,5.24-5.3ZM117.16,83.68c-2-18,22.93-22.33,26.67-3.75,1.22,17.4-22.59,21.3-26.67,3.75ZM104.68,46.52c-4,12.11-20.41,6.24-16.66-5.1,4.5-10.48,18.7-5.53,16.66,5.1Zm82,17.72c5.21-5.73,6.66-18.44-4.06-25-11-5.69-19.1.78-22.36,6.36l-15.59.17c-2.41,4.18-4.79,8.39-7.17,12.57A24.48,24.48,0,0,0,120,59.71l-6.41-6.15c9.47-20.76-14.23-38-30.47-23.82-6.21,5.27-9,16.58-3.65,24.91,5.69,9,16,11.71,24.54,7.93l6.18,6c-3.51,6.24-5.75,14.06-1.39,23.22L90.37,98.65l-.63,12.77a15.72,15.72,0,0,0-9.09,16.78c3.85,19.29,29.65,16.8,31.06-1.35.34-9.76-6.06-13.57-8.27-15l.08-4.67,14.09-5.24a24,24,0,0,0,27.44-1.2,24.43,24.43,0,0,0,9.32-20.24c-.65-8.62-3.68-12.17-6-15.09l3.29-7.53,7.42.37c.85,1.89,2.38,7.76,10.52,10.74a15.7,15.7,0,0,0,17.15-4.75Z"/><path class="cls-1" d="M117.5,83.53c3,17.27,28.26,13.06,26-3.66-2.41-17.89-29-13.48-26,3.66Z"/><path class="cls-1" d="M104.14,46.17C107,36,91.56,32,88.38,41.62,85,51.81,100.77,58.17,104.14,46.17Z"/><path class="cls-3" d="M96,130.57c6-1.89,6.29-8.79.76-9.39-4.45-.48-8.75,6.42-.76,9.39Z"/><path class="cls-4" d="M36.4,28.79l2.69-.88c.23-.09.6-.29.79-.38a8.23,8.23,0,0,0,.8-.43Z"/><path class="cls-5" d="M186.75,64.35l2.55-2.72Z"/><path class="cls-6" d="M56.66,103.69l2.64-3Z"/></g></g></svg>