<?xml version="1.0" encoding="UTF-8"?>
<!DOCTYPE svg PUBLIC "-//W3C//DTD SVG 1.1//EN" "http://www.w3.org/Graphics/SVG/1.1/DTD/svg11.dtd">
<svg xmlns="http://www.w3.org/2000/svg" version="1.1" width="230px" height="168px" style="shape-rendering:geometricPrecision; text-rendering:geometricPrecision; image-rendering:optimizeQuality; fill-rule:evenodd; clip-rule:evenodd" xmlns:xlink="http://www.w3.org/1999/xlink">
<g><path style="opacity:0.913" fill="#fefffe" d="M 37.5,-0.5 C 38.8333,-0.5 40.1667,-0.5 41.5,-0.5C 44.5541,1.27965 45.7207,3.94632 45,7.5C 11.4289,40.4611 2.76221,79.1277 19,123.5C 24.9157,136.688 33.249,148.021 44,157.5C 46.2708,161.303 45.7708,164.637 42.5,167.5C 40.8333,167.5 39.1667,167.5 37.5,167.5C 16.9869,148.477 4.32022,125.144 -0.5,97.5C -0.5,88.1667 -0.5,78.8333 -0.5,69.5C 4.3334,41.8277 17.0001,18.4944 37.5,-0.5 Z"/></g>
<g><path style="opacity:0.913" fill="#fefffe" d="M 187.5,-0.5 C 188.833,-0.5 190.167,-0.5 191.5,-0.5C 211.997,18.4873 224.663,41.8206 229.5,69.5C 229.5,78.8333 229.5,88.1667 229.5,97.5C 224.68,125.144 212.013,148.477 191.5,167.5C 189.833,167.5 188.167,167.5 186.5,167.5C 183.229,164.637 182.729,161.303 185,157.5C 217.928,125.101 226.262,87.1009 210,43.5C 203.625,29.7997 194.958,17.7997 184,7.5C 183.279,3.94632 184.446,1.27965 187.5,-0.5 Z"/></g>
<g><path style="opacity:0.911" fill="#fefffe" d="M 57.5,24.5 C 61.8558,24.1834 64.5225,26.1834 65.5,30.5C 58.4281,38.3036 52.5947,46.9703 48,56.5C 39.7054,77.7861 41.0387,98.4528 52,118.5C 56.3832,124.773 60.8832,130.939 65.5,137C 63.7327,142.216 60.3993,143.55 55.5,141C 30.6879,114.647 24.8546,84.4799 38,50.5C 42.8296,40.474 49.3296,31.8073 57.5,24.5 Z"/></g>
<g><path style="opacity:0.906" fill="#fefffe" d="M 167.5,24.5 C 172.064,24.55 175.564,26.55 178,30.5C 205.333,65.8333 205.333,101.167 178,136.5C 175.834,139.507 173.001,141.507 169.5,142.5C 166.062,142.229 164.062,140.395 163.5,137C 168.117,130.939 172.617,124.773 177,118.5C 190.722,92.3347 189.389,67.0014 173,42.5C 169.643,38.6438 166.476,34.6438 163.5,30.5C 164.361,28.0894 165.694,26.0894 167.5,24.5 Z"/></g>
<g><path style="opacity:0.896" fill="#fefffe" d="M 72.5,51.5 C 77.3327,50.7498 80.3327,52.7498 81.5,57.5C 77.2072,63.2864 74.0406,69.6198 72,76.5C 71.1955,82.5692 71.5288,88.5692 73,94.5C 75.4597,99.9232 78.293,105.09 81.5,110C 79.8955,115.526 76.5622,116.859 71.5,114C 55.2936,92.8991 55.6269,72.0658 72.5,51.5 Z"/></g>
<g><path style="opacity:0.896" fill="#fefffe" d="M 151.5,51.5 C 153.199,51.3398 154.866,51.5065 156.5,52C 172.766,71.5058 173.6,91.6725 159,112.5C 153.97,116.95 150.136,116.117 147.5,110C 150.707,105.09 153.54,99.9232 156,94.5C 158,87.1667 158,79.8333 156,72.5C 153.687,67.2074 150.854,62.2074 147.5,57.5C 148.361,55.0894 149.694,53.0894 151.5,51.5 Z"/></g>
<g><path style="opacity:0.961" fill="#fefffe" d="M 112.5,54.5 C 130.889,55.5553 141.222,65.222 143.5,83.5C 141.5,100.833 131.833,110.5 114.5,112.5C 97.3996,110.566 87.7329,101.066 85.5,84C 87.1236,67.2166 96.1236,57.3833 112.5,54.5 Z"/></g>
</svg>
