<?xml version="1.0" encoding="UTF-8" standalone="no"?>
<!DOCTYPE svg PUBLIC "-//W3C//DTD SVG 1.1//EN" "http://www.w3.org/Graphics/SVG/1.1/DTD/svg11.dtd">
<svg xmlns="http://www.w3.org/2000/svg" version="1.1" viewBox="0.00 0.00 120.00 119.00">
<path fill="#ffffff" d="
  M 74.23 32.71
  C 73.85 33.95 74.26 35.81 74.26 36.79
  Q 74.32 68.53 74.22 100.24
  Q 74.20 106.57 69.89 110.42
  C 63.18 116.40 50.02 115.29 46.32 106.27
  Q 45.38 103.97 45.36 98.35
  Q 45.28 65.70 45.43 33.59
  A 1.64 1.64 0.0 0 0 43.78 31.95
  Q 31.15 32.08 18.73 31.91
  Q 12.79 31.83 9.99 30.34
  C -0.22 24.92 1.16 8.83 11.57 4.44
  Q 14.82 3.07 21.12 3.06
  Q 74.71 2.96 101.50 3.10
  C 114.00 3.16 120.23 16.90 113.38 26.87
  C 110.77 30.67 106.87 32.00 102.04 31.99
  Q 88.62 31.95 75.17 32.01
  A 1.00 0.99 8.0 0 0 74.23 32.71
  Z"
/>
</svg>
