<svg xmlns="http://www.w3.org/2000/svg" viewBox="0 0 201.17 182.83"><defs><style>.cls-1,.cls-5{fill:#fdfdfd;}.cls-1,.cls-2,.cls-3,.cls-4{fill-rule:evenodd;}.cls-2{fill:#fefefe;}.cls-3{fill:#17455b;}.cls-4{fill:#f5766a;}</style></defs><g id="Слой_2" data-name="Слой 2"><g id="Слой_1-2" data-name="Слой 1"><path class="cls-1" d="M69.22,99c.2-24.37-1.78-29.58,10.43-47C94.22,31.12,112.31,26.63,116,23.68l-5.52-7C101.17,4.5,85,0,69,0,46.2,0,33.48,7.79,24,21.22c-10.32,14.65-8,34.21-8,58.57V99Z"/><path class="cls-2" d="M84,135.36c-3.4-5.32-6.29-8.61-9.5-15-1.58-3.18-5.86-15.77-6.8-16.86H0v12.31c.06,6.53,0,13,0,19.55Z"/><path class="cls-3" d="M122,47.5c0-12.4,13-12.43,13,0V77.79c0,11.28-13,11.42-13,0Zm79,47.07c-3.17,33.18-26.44,56.8-56.89,63.13C82.46,166.6,40.25,99.69,76.45,48c16.16-23.11,47.34-34.27,74.24-26.4,34,10.28,52.44,39.57,50.31,73Zm-56.6-33c-.29-4.69,3-8.3,7.59-8.21,13.61.31,37.62,48.52-.17,72.69-32.85,21-73.73-8.19-66-46.53,1.87-9.36,6.35-15.69,11.14-21,9.16-10.17,18.43-2.72,15.06,5.07-1.62,3.8-9.93,8.13-11.83,20.38-1.53,10.08,2.1,19.24,7.4,24.48,29.14,28.89,64.92-13.37,43.4-37.82-2.46-2.81-6.32-4.7-6.6-9.08Z"/><path class="cls-4" d="M144.4,61.61c.28,4.38,4.14,6.27,6.6,9.08,21.52,24.45-14.26,66.71-43.4,37.82-5.3-5.24-8.93-14.4-7.4-24.48,1.9-12.25,10.21-16.58,11.83-20.38,3.37-7.79-5.9-15.24-15.06-5.07-4.79,5.29-9.27,11.62-11.14,21-7.74,38.34,33.14,67.54,66,46.53,37.79-24.17,13.78-72.38.17-72.69-4.62-.09-7.88,3.52-7.59,8.21Z"/><path class="cls-4" d="M122,47.5V77.79c0,11.42,13,11.28,13,0V47.5c0-12.43-13-12.4-13,0Z"/><path class="cls-3" d="M72.74,16c1.24-17-48.42-.66-47,35.59-.09,7.27,8,10.79,9.8-2.26,4.57-33,34.9-26.8,37.17-33.33Z"/><rect class="cls-5" x="29" y="140.4" width="11.99" height="42.43"/><polygon class="cls-2" points="108.99 154.23 97.99 149.59 97.99 182.83 108.99 182.83 108.99 154.23"/></g></g></svg>