<svg xmlns="http://www.w3.org/2000/svg" viewBox="0 0 40.24 40.45"><defs><style>.cls-1{fill:#5997ab;}.cls-1,.cls-3,.cls-4{fill-rule:evenodd;}.cls-2,.cls-5{fill:none;}.cls-2{stroke:#dd2a1a;stroke-linecap:round;stroke-width:1.49px;}.cls-2,.cls-3,.cls-5{stroke-miterlimit:10;}.cls-3{fill:#428ab9;stroke:#71bbd1;stroke-width:0.74px;}.cls-4{fill:#dd2a1a;}.cls-5{stroke:#fefefe;stroke-width:1.5px;}</style></defs><g id="Слой_2" data-name="Слой 2"><g id="Слой_1-2" data-name="Слой 1"><path class="cls-1" d="M6.92,0H7.2a.41.41,0,0,1,.4.43V4.15H6.52V.43A.41.41,0,0,1,6.92,0Z"/><path class="cls-1" d="M11.25,0h.29a.41.41,0,0,1,.39.43V4.15H10.86V.43A.43.43,0,0,1,11.25,0Z"/><path class="cls-1" d="M15.62,0h.25a.44.44,0,0,1,.43.43V4.15H15.19V.43A.44.44,0,0,1,15.62,0Z"/><path class="cls-1" d="M0,16v-.25a.44.44,0,0,1,.4-.43H4.11v1.11H.4A.44.44,0,0,1,0,16Z"/><path class="cls-1" d="M0,11.65v-.26A.43.43,0,0,1,.4,11H4.11v1.11H.4a.44.44,0,0,1-.4-.43Z"/><path class="cls-1" d="M0,7.27V7a.42.42,0,0,1,.4-.41H4.11V7.67H.4a.41.41,0,0,1-.4-.4Z"/><path class="cls-1" d="M22.79,16v-.25a.41.41,0,0,0-.4-.43H18.68v1.11h3.71a.41.41,0,0,0,.4-.43Z"/><path class="cls-1" d="M22.79,11.65v-.26a.41.41,0,0,0-.4-.42H18.68v1.11h3.71a.41.41,0,0,0,.4-.43Z"/><path class="cls-1" d="M22.79,7.27V7a.4.4,0,0,0-.4-.41H18.68V7.67h3.71a.39.39,0,0,0,.4-.4Z"/><path class="cls-1" d="M6.92,23.05H7.2a.41.41,0,0,0,.4-.43V18.87H6.52v3.75a.41.41,0,0,0,.4.43Z"/><path class="cls-1" d="M11.25,23.05h.29a.41.41,0,0,0,.39-.43V18.87H10.86v3.75a.43.43,0,0,0,.39.43Z"/><path class="cls-1" d="M15.62,23.05h.25a.44.44,0,0,0,.43-.43V18.87H15.19v3.75a.44.44,0,0,0,.43.43Z"/><path class="cls-1" d="M5,4.15H17.83a.86.86,0,0,1,.85.89V18a.84.84,0,0,1-.85.86H5A.86.86,0,0,1,4.11,18V5A.88.88,0,0,1,5,4.15ZM16.13,5.41a1.23,1.23,0,1,1-1.22,1.23,1.21,1.21,0,0,1,1.22-1.23Z"/><polyline class="cls-2" points="7.06 23.05 7.06 30.41 17.83 30.41 17.83 23.71 28.49 23.71 28.49 27.51"/><polygon class="cls-3" points="20.32 27.51 32.74 27.51 36.23 30.66 39.69 33.81 36.23 36.93 32.74 40.08 20.32 40.08 20.32 27.51"/><polygon class="cls-4" points="15.08 30.41 13.27 28.97 11.45 27.51 11.45 30.41 11.45 33.3 13.27 31.87 15.08 30.41"/><polygon class="cls-4" points="25.71 23.71 23.9 22.36 22.08 21.02 22.08 23.71 22.08 26.37 23.9 25.05 25.71 23.71"/><path class="cls-5" d="M21.83,35.07h1a1.21,1.21,0,0,0,.82-.31,1.12,1.12,0,0,0,.31-.83V31.38a1,1,0,0,1,.32-.83,1.22,1.22,0,0,1,.82-.32h.23a1.15,1.15,0,0,1,1.13,1.15v5.15a1.15,1.15,0,0,0,1.13,1.15h.54a1.15,1.15,0,0,0,1.14-1.15V31.38a1.15,1.15,0,0,1,1.13-1.15h.28a1.15,1.15,0,0,1,1.14,1.15l0,1.26a1.11,1.11,0,0,0,1.14,1.12h1.25"/></g></g></svg>