<svg xmlns="http://www.w3.org/2000/svg" viewBox="0 0 40.06 40.45"><defs><style>.cls-1{fill:#5997ab;}.cls-1,.cls-3,.cls-4{fill-rule:evenodd;}.cls-2,.cls-5{fill:none;}.cls-2{stroke:#dd2a1a;stroke-linecap:round;stroke-width:1.49px;}.cls-2,.cls-3,.cls-5{stroke-miterlimit:10;}.cls-3{fill:#428ab9;stroke:#71bbd1;stroke-width:0.74px;}.cls-4{fill:#dd2a1a;}.cls-5{stroke:#fefefe;stroke-width:1.5px;}</style></defs><g id="Слой_2" data-name="Слой 2"><g id="Слой_1-2" data-name="Слой 1"><path class="cls-1" d="M24.15,17.44h.29a.39.39,0,0,1,.4.4v3.75H23.76V17.84a.39.39,0,0,1,.39-.4Z"/><path class="cls-1" d="M28.52,17.44h.26a.41.41,0,0,1,.42.4v3.75H28.1V17.84a.41.41,0,0,1,.42-.4Z"/><path class="cls-1" d="M32.86,17.44h.25a.41.41,0,0,1,.43.4v3.75H32.46V17.84a.39.39,0,0,1,.4-.4Z"/><path class="cls-1" d="M17.24,33.47v-.26a.44.44,0,0,1,.42-.43h3.72v1.09H17.66a.41.41,0,0,1-.42-.4Z"/><path class="cls-1" d="M17.24,29.09V28.8a.41.41,0,0,1,.42-.4h3.72v1.09H17.66a.41.41,0,0,1-.42-.4Z"/><path class="cls-1" d="M17.24,24.68v-.26a.44.44,0,0,1,.42-.43h3.72v1.12H17.66a.44.44,0,0,1-.42-.43Z"/><path class="cls-1" d="M40.06,33.47v-.26a.44.44,0,0,0-.43-.43H35.92v1.09h3.71a.41.41,0,0,0,.43-.4Z"/><path class="cls-1" d="M40.06,29.09V28.8a.41.41,0,0,0-.43-.4H35.92v1.09h3.71a.41.41,0,0,0,.43-.4Z"/><path class="cls-1" d="M40.06,24.68v-.26a.44.44,0,0,0-.43-.43H35.92v1.12h3.71a.44.44,0,0,0,.43-.43Z"/><path class="cls-1" d="M24.15,40.45h.29a.39.39,0,0,0,.4-.4V36.3H23.76v3.75a.39.39,0,0,0,.39.4Z"/><path class="cls-1" d="M28.52,40.45h.26a.41.41,0,0,0,.42-.4V36.3H28.1v3.75a.41.41,0,0,0,.42.4Z"/><path class="cls-1" d="M32.86,40.45h.25a.41.41,0,0,0,.43-.4V36.3H32.46v3.75a.39.39,0,0,0,.4.4Z"/><path class="cls-1" d="M22.23,21.59H35.07a.86.86,0,0,1,.85.86v13a.86.86,0,0,1-.85.86H22.23a.86.86,0,0,1-.85-.86v-13a.86.86,0,0,1,.85-.86Zm11.14,1.26a1.22,1.22,0,1,1,0,2.43,1.22,1.22,0,1,1,0-2.43Z"/><polyline class="cls-2" points="7.63 12.94 7.63 20.3 16.67 20.3 16.67 13.6 28.63 13.6 28.63 17.44"/><polygon class="cls-3" points="0.37 0.37 12.79 0.37 16.27 3.52 19.73 6.64 16.27 9.79 12.79 12.94 0.37 12.94 0.37 0.37"/><polygon class="cls-4" points="13.89 20.39 12.08 18.93 10.27 17.49 10.27 20.39 10.27 23.25 12.08 21.82 13.89 20.39"/><polygon class="cls-4" points="24.21 13.4 22.4 12 20.58 10.59 20.58 13.4 20.58 16.18 22.4 14.8 24.21 13.4"/><path class="cls-5" d="M2.13,8h1a1.1,1.1,0,0,0,.8-.34,1.08,1.08,0,0,0,.34-.81l0-2.54a1.12,1.12,0,0,1,.34-.83,1,1,0,0,1,.82-.32h.23a1.12,1.12,0,0,1,1.1,1.15V9.42a1.14,1.14,0,0,0,1.14,1.14h.56A1.14,1.14,0,0,0,9.53,9.42V4.27a1.15,1.15,0,0,1,1.13-1.15h.26a1.19,1.19,0,0,1,1.16,1.15V5.53a1.11,1.11,0,0,0,1.13,1.11h1.25"/></g></g></svg>