<svg xmlns="http://www.w3.org/2000/svg" viewBox="0 0 39.69 40.08"><defs><style>.cls-1{fill:#71bbd1;fill-rule:evenodd;}.cls-2,.cls-3{fill:#fefefe;}.cls-2,.cls-4{stroke:#fefefe;stroke-miterlimit:10;stroke-width:0.23px;}.cls-4{fill:none;}</style></defs><g id="Слой_2" data-name="Слой 2"><g id="Слой_1-2" data-name="Слой 1"><path class="cls-1" d="M19.84,0a20,20,0,0,1,0,40.08A20,20,0,0,1,19.84,0Z"/><path class="cls-2" d="M22.34,14.2h3a77.91,77.91,0,0,0-2.12,8.7,49.15,49.15,0,0,0,2.12,8.68H22.42a24.21,24.21,0,0,1-1.05-3.15Q20,32,15.76,32a6.32,6.32,0,0,1-5.19-2.43,10.24,10.24,0,0,1-2-6.64c0-2.9.65-5.1,2-6.68a6.5,6.5,0,0,1,5.25-2.37,5.92,5.92,0,0,1,3.29.83,8.07,8.07,0,0,1,2.38,2.52c.08-.4.37-1.38.85-3Zm-6,2A3.81,3.81,0,0,0,13,18a8.58,8.58,0,0,0-1.22,4.9A9.11,9.11,0,0,0,13,27.77a3.61,3.61,0,0,0,3.18,1.78,4.05,4.05,0,0,0,3.32-1.75,8.19,8.19,0,0,0,1.33-5.07,8,8,0,0,0-1.22-4.84,4,4,0,0,0-3.26-1.66Z"/><path class="cls-3" d="M28.06,8.16a3.07,3.07,0,0,1,2.19.8,2.86,2.86,0,0,1,0,4.07,3.38,3.38,0,0,1-4.37,0A2.72,2.72,0,0,1,25,11a2.71,2.71,0,0,1,.85-2,3,3,0,0,1,2.18-.8Zm0,1.35a1.3,1.3,0,0,0-1,.4A1.63,1.63,0,0,0,26.65,11,1.66,1.66,0,0,0,27,12.08a1.3,1.3,0,0,0,1,.4,1.25,1.25,0,0,0,1-.4,1.49,1.49,0,0,0,.4-1.09,1.46,1.46,0,0,0-.4-1.08,1.18,1.18,0,0,0-1-.4Z"/><path class="cls-4" d="M28.06,8.16a3.07,3.07,0,0,1,2.19.8,2.86,2.86,0,0,1,0,4.07,3.38,3.38,0,0,1-4.37,0A2.72,2.72,0,0,1,25,11a2.71,2.71,0,0,1,.85-2,3,3,0,0,1,2.18-.8Zm0,1.35a1.3,1.3,0,0,0-1,.4A1.63,1.63,0,0,0,26.65,11,1.66,1.66,0,0,0,27,12.08a1.3,1.3,0,0,0,1,.4,1.25,1.25,0,0,0,1-.4,1.49,1.49,0,0,0,.4-1.09,1.46,1.46,0,0,0-.4-1.08,1.18,1.18,0,0,0-1-.4Z"/></g></g></svg>