<?xml version="1.0" encoding="UTF-8"?>
<svg id="_Слой_2" data-name="Слой 2" xmlns="http://www.w3.org/2000/svg" viewBox="0 0 13.58 24.34">
  <defs>
    <style>
      .cls-1 {
        fill: #fff;
      }

      .cls-1, .cls-2, .cls-3, .cls-4, .cls-5, .cls-6, .cls-7, .cls-8, .cls-9, .cls-10, .cls-11 {
        fill-rule: evenodd;
      }

      .cls-1, .cls-6, .cls-7, .cls-8, .cls-10, .cls-11 {
        stroke-width: 0px;
      }

      .cls-2 {
        stroke-width: .5px;
      }

      .cls-2, .cls-3, .cls-4, .cls-5 {
        fill: #f0aa00;
        stroke: #f0aa00;
      }

      .cls-2, .cls-3, .cls-4, .cls-5, .cls-9 {
        stroke-miterlimit: 22.93;
      }

      .cls-3 {
        stroke-width: .2px;
      }

      .cls-4 {
        stroke-width: .5px;
      }

      .cls-5 {
        stroke-width: .2px;
      }

      .cls-6 {
        fill: #f5c23e;
      }

      .cls-7 {
        fill: #cbcbd0;
      }

      .cls-8 {
        fill: #efa926;
      }

      .cls-9 {
        fill: none;
        stroke: #a8abb2;
        stroke-width: .5px;
      }

      .cls-10 {
        fill: #56676c;
      }

      .cls-11 {
        fill: #efa929;
      }
    </style>
  </defs>
  <g id="_Слой_1-2" data-name="Слой 1">
    <g>
      <path class="cls-7" d="M7.77,2.77v13.24h5.02c0-1.44,0-3.15,0-4.57,0-1.23.11-3.52-.08-4.52-.47-2.45-2.45-4.01-4.63-4.15h-.31Z"/>
      <path class="cls-1" d="M7.78,2.83v12.39H3.08c0-1.35,0-2.95,0-4.28,0-1.15-.11-3.29.08-4.23.44-2.3,2.3-3.75,4.34-3.88h.3Z"/>
      <path class="cls-9" d="M12.49,15.53H3.06c0-2.49-.18-5.57,0-7.99.07-.86.24-1.67.67-2.4.85-1.34,2.11-2.24,3.74-2.32h.6c2.04.13,3.9,1.59,4.34,3.88.18.94.08,3.08.08,4.23,0,1.43,0,3.18,0,4.59"/>
      <path class="cls-10" d="M4.9,15.3h.72v-1.9c.46,0,.44-.18.65-.49.16-.26.28-.49.44-.78.13-.21.44-.58.13-.81-.16-.13-.85-.08-1.13-.08-.98,0-.8,0-.8,1.59v2.48Z"/>
      <path class="cls-8" d="M5.63,18.5h-.75v4.67c0,.49-.13,1.12.34,1.18h.1c.44-.05.31-.68.31-1.18v-4.67Z"/>
      <path class="cls-8" d="M10.69,18.5h-.75v4.67c0,.49-.13,1.12.31,1.18h.1c.46-.05.34-.68.34-1.18v-4.67Z"/>
      <path class="cls-6" d="M9.19,17.07c0,.36-.03.76.1,1.02.05.13.13.21.23.31.13.11.21.11.41.11h.75c.7-.05.8-.63.7-1.43-.13-.08-1.96-.05-2.19,0h0Z"/>
      <path class="cls-6" d="M4.88,18.5h.75c.21,0,.28,0,.41-.11.1-.08.21-.18.26-.31.1-.26.08-.65.08-1.02-.23-.05-2.07-.08-2.19,0-.1.81,0,1.38.7,1.43h0Z"/>
      <path class="cls-5" d="M7.82,2.26h-.09s-.04-.01-.06-.02c-.03-.02-.05-.05-.05-.08V.35s0-.03.01-.05c.02-.03.06-.05.09-.05h.09s.03,0,.05.01c.03.02.05.05.06.09v1.8s-.01.03-.02.05c-.01.03-.05.05-.09.05h0Z"/>
      <path class="cls-4" d="M7.82,2.26h-.06s-.08,0-.09,0c-.05-.02-.04-.06-.04-.09V.35s0-.03.01-.05c.02-.03.06-.05.09-.05h.09s.03,0,.05.01c.03.02.05.05.06.09v1.8c0,.1,0,.06,0,.08,0,.05-.07.03-.11.02h0Z"/>
      <path class="cls-5" d="M5.05,2.99l-.08.04s-.04.02-.06.02c-.03,0-.07-.02-.08-.05l-.9-1.56s-.01-.03-.01-.05c0-.04.02-.07.06-.09l.08-.05s.03-.01.05-.01c.04,0,.07.02.1.05l.9,1.56s.01.03.01.05c0,.04-.02.07-.05.09h0Z"/>
      <path class="cls-3" d="M3.02,4.99l-.05.07s-.02.03-.04.04c-.03.02-.07.02-.1,0l-1.56-.9s-.03-.02-.04-.04c-.02-.03-.02-.07,0-.11l.04-.08s.02-.03.04-.03c.03-.02.07-.02.11,0l1.56.91s.03.02.04.04c.02.03.02.07,0,.1h0Z"/>
      <path class="cls-5" d="M2.26,7.75v.09s-.01.04-.02.06c-.02.03-.05.05-.08.05H.35s-.03,0-.05-.01c-.03-.02-.05-.06-.05-.09v-.09s0-.03.01-.05c.02-.03.05-.05.09-.06h1.8s.04,0,.05.02c.03.02.05.05.05.09h0Z"/>
      <path class="cls-2" d="M5.05,2.99l-.08.04s-.04.02-.06.02c-.03,0-.07-.02-.08-.05l-.9-1.56s-.01-.03-.01-.05c0-.04.02-.07.06-.09l.08-.05s.03-.01.05-.01c.04,0,.07.02.09.05l.9,1.56s.01.03.01.05c0,.04-.02.07-.05.09h0Z"/>
      <path class="cls-2" d="M3.02,4.99l-.05.07s-.02.03-.04.04c-.03.02-.07.02-.1,0l-1.56-.9s-.03-.02-.04-.04c-.02-.03-.02-.07,0-.11l.04-.08s.02-.03.04-.03c.03-.02.07-.02.11,0l1.56.91s.03.02.04.04c.02.03.02.07,0,.1h0Z"/>
      <path class="cls-4" d="M2.26,7.75v.07s-.01.06-.02.07c-.02.03-.05.05-.08.05H.35s-.03,0-.05-.01c-.03-.02-.05-.06-.05-.09v-.09s0-.03.01-.05c.02-.03.05-.05.09-.06h1.8s.02,0,.05.02c.02.01.04.01.05.09h0Z"/>
      <path class="cls-10" d="M9.95,15.3h.7c0-.78.01-1.67.01-2.48,0-.36.03-.81.03-1.18-.03-.47-.36-.44-.83-.42-.39,0-.44.31-.6.58-1.01,1.67-.93,1.59.7,1.59v1.9s0,0,0,0Z"/>
      <path class="cls-11" d="M12.65,17.07c.46,0,.88.08.93-.36,0-.18,0-1.12-.03-1.25-.13-.34-.57-.24-1.06-.24H3.07c-.18,0-.72-.03-.88.05-.31.13-.23.99-.18,1.43.02.44.41.36.85.36h9.79Z"/>
      <path class="cls-11" d="M7.75,3.69c1.92,0,3.48,1.56,3.48,3.48s-1.56,3.48-3.48,3.48-3.48-1.56-3.48-3.48,1.56-3.48,3.48-3.48Z"/>
      <path class="cls-1" d="M5.8,9.26l1.6-4.18h.61l1.7,4.18h-.63l-.48-1.27h-1.76l-.45,1.27h-.59ZM7,7.54h1.43l-.44-1.16c-.13-.35-.23-.64-.3-.87-.06.27-.13.54-.23.81l-.46,1.23Z"/>
    </g>
  </g>
</svg>