<svg xmlns="http://www.w3.org/2000/svg" viewBox="0 0 43.74 41.54"><defs><style>.cls-1{fill:#df636d;}.cls-1,.cls-2,.cls-3,.cls-4,.cls-5,.cls-6,.cls-7{fill-rule:evenodd;}.cls-2{fill:#458abd;}.cls-3{fill:#5997c5;}.cls-4{fill:#da4855;}.cls-5{fill:#f5ee64;}.cls-6{fill:#d82e3c;}.cls-7{fill:#f4bd2b;}</style></defs><g id="Слой_2" data-name="Слой 2"><g id="Слой_1-2" data-name="Слой 1"><path class="cls-1" d="M14.91,27.92c.51-.26.65-.78,1.64-.81.66-.34,3.38.15,4.31-.14L21,20.56c-.68-.09-1.53.26-1.84-.37A11,11,0,0,1,19,17.78c-.93.46-3.23,1.2-4.33.83a4.42,4.42,0,0,1-.09-1.4l.06-.86c-1.25-.14-2.07-.72-2.07-2.09s.74-1.89,2-2a9.92,9.92,0,0,1,.09-2.29c.79-.32,2.66.23,3.4.51A18.59,18.59,0,0,1,21,11.94c-.4-2.15,2.26-2.2,1.87,0A15.4,15.4,0,0,0,24.18,11a7.11,7.11,0,0,1,1.39-.65,7.05,7.05,0,0,1,3.63-.46A10.63,10.63,0,0,1,29,12.17c1.27.17,2.32.69,2.32,2.06a2.27,2.27,0,0,1-2.24,2.29l.14.34a6.54,6.54,0,0,1-.11,1.58c-1.19.43-3.51-.4-4.54-.83.06,3.18-.05,2.83-1.89,3L22.9,27c.94.29,3.63-.2,4.28.14.94,0,1.17.52,1.65.81h6.66c0-1.41-.48-7.28-.57-9l-.59-8.28a5.44,5.44,0,0,1-.09-.77c0-.89-.14-1.6-.17-2.17l-.31-5.39A2.25,2.25,0,0,0,31.18,0H12.25c-.15,4.38-2.7,26-2.19,27.72.77.4,3.69.14,4.85.2Z"/><path class="cls-2" d="M42.55,39.51s-25.17.2-37.22.14c-3,0-2.16.69-2.27-4.49-2.1,0-1.87.26-1.87,4.61,0,1.37,0,1.77,1.42,1.77,9.49-.08,19.3,0,28.83,0H41c1.47,0,1.56-.54,1.56-2ZM5.92,32H37.84a7.14,7.14,0,0,0,0-2.49L6,29.49a6.4,6.4,0,0,0,0,2.55ZM3.4,35.33H40.2l0-1.77c-11.68,0-23.22.23-34.95.11L5.07,32H3.6c-.43.52-.34,2.69-.2,3.38Z"/><path class="cls-3" d="M40.2,33.84,40.14,32,4.82,32l.11,1.78c.71.31,15.48.11,17.61.11Zm2.35,6V36.42c0-1.49-.82-1.26-2.21-1.26H2.89c.09,5.21-.74,4.67,2.3,4.67H37.56c1.61,0,3.4-.09,5,0Z"/><path class="cls-4" d="M29.37,29.55h6.29a17.25,17.25,0,0,0-.17-1.83H28.8a5.12,5.12,0,0,1,.57,1.83Zm-15,0A4.29,4.29,0,0,1,15,27.72H10.29L12.3,0A2.38,2.38,0,0,0,10,2.21L8.08,29.55Zm6.35-17.84,0,3.47L20.55,17c.06.95.4,1.66,1.36,1.66s1.25-.86,1.31-1.77l-.17-1.66L23,11.71c.4-2.17-2.61-2.15-2.24,0Zm-2,6.21a9.48,9.48,0,0,0,.11,2.41c.28.63,1.1.37,1.78.46l0,6.18h2.38l0-6.18c1.84-.2,1.93.31,1.9-2.87l-.88-.45a2.44,2.44,0,0,1-2.24,2.06,2.27,2.27,0,0,1-2.24-2.06Z"/><path class="cls-5" d="M23,11.71l.06,3.47a9.66,9.66,0,0,0,2.63,1.54,9.74,9.74,0,0,0,3.69.49V12a8.24,8.24,0,0,0-.12-2.26,7.07,7.07,0,0,0-3.6.45,6.82,6.82,0,0,0-1.41.69c-.43.26-.88.66-1.25.83Z"/><path class="cls-5" d="M14.37,12v5.21a8.87,8.87,0,0,0,6.35-2l0-3.47a13.8,13.8,0,0,0-2.69-1.54c-.77-.29-2.78-.75-3.57-.43A10.75,10.75,0,0,0,14.37,12Z"/><path class="cls-6" d="M19.53,17.52a2.5,2.5,0,0,0,2.35,2.21,2.6,2.6,0,0,0,2.33-2.29c-.4-.23-.8-.58-1.16-.83-.06.91-.2,1.86-1.17,1.86s-1.13-.86-1.19-1.81c-.34.26-.79.63-1.16.86Zm-5.16,12h15c-.15-1.29-.74-2.69-2.22-2.75H16.55c-1.44.06-2.06,1.46-2.18,2.75Z"/><path class="cls-7" d="M1.5,22.91c0,1.83,2.16.43,4.48-.38.74-.25,1-.4,1-.94,0-.69-.59-.86-1.1-.72L2.75,22c-.43.14-1.25.4-1.25.89ZM0,14.23c0,.4.14.92.6.92H5.05c.79,0,.79-1.52,0-1.52H.6a.8.8,0,0,0-.6.6ZM1.5,5.58c0,1,.77,1,2.07,1.49.77.29,3.4,1.66,3.4.15,0-.81-1.1-1-2.09-1.38A13.75,13.75,0,0,0,2.13,5a.77.77,0,0,0-.63.6Zm35.38,16c0,.86.71,1,2.07,1.4a11.41,11.41,0,0,0,2.66.86c.48,0,.63-.54.63-.91,0-.63-1.53-1-2.07-1.18-1-.4-3.29-1.6-3.29-.17ZM36.88,7c0,1.63,1.81.6,3.23.08s2.13-.54,2.13-1.52a.75.75,0,0,0-.71-.6L37.25,6.47a.76.76,0,0,0-.37.55Zm1.22,7.21c0,.4.14.92.59.92h4.45c.8,0,.8-1.52,0-1.52H38.69a.8.8,0,0,0-.59.6Zm-8.73,2.32a2.28,2.28,0,0,0,0-4.55Zm-6.32.29a8.67,8.67,0,0,0,1.19.83l.73.4c1,.46,3.12,1.14,4.31.74a5.88,5.88,0,0,0,.09-1.6,9.74,9.74,0,0,1-3.69-.49,9.66,9.66,0,0,1-2.63-1.54Zm-8.68.37a6.72,6.72,0,0,0,.12,1.6c1.1.37,3.34-.26,4.28-.71l.76-.43a11.68,11.68,0,0,0,1.16-.83l0-1.66a8.87,8.87,0,0,1-6.35,2Zm0-.66V12a2.28,2.28,0,0,0,0,4.55Z"/></g></g></svg>