<?xml version="1.0" encoding="UTF-8" standalone="no"?>
<!DOCTYPE svg PUBLIC "-//W3C//DTD SVG 1.1//EN" "http://www.w3.org/Graphics/SVG/1.1/DTD/svg11.dtd">
<svg xmlns="http://www.w3.org/2000/svg" version="1.1" viewBox="0.00 0.00 512.00 512.00">
<g stroke-width="2.00" fill="none" stroke-linecap="butt">
<path stroke="#78d154" vector-effect="non-scaling-stroke" d="
  M 256.10 0.00
  L 256.00 211.96"
/>
<path stroke="#f84e0d" vector-effect="non-scaling-stroke" d="
  M 255.75 242.04
  L 256.00 362.00"
/>
<path stroke="#a35a37" vector-effect="non-scaling-stroke" d="
  M 256.00 362.00
  L 150.75 362.04"
/>
<path stroke="#913920" vector-effect="non-scaling-stroke" d="
  M 361.00 362.04
  L 256.00 362.00"
/>
<path stroke="#3d444a" vector-effect="non-scaling-stroke" d="
  M 256.00 362.00
  L 256.00 391.16
  A 0.83 0.83 0.0 0 0 256.83 391.99
  L 361.00 391.96"
/>
<path stroke="#3d444a" vector-effect="non-scaling-stroke" d="
  M 450.97 481.93
  L 256.25 482.00"
/>
<path stroke="#4f575c" vector-effect="non-scaling-stroke" d="
  M 256.25 482.00
  L 255.99 393.37
  A 1.39 1.38 0.0 0 0 254.60 391.99
  L 151.00 391.96"
/>
<path stroke="#4f575c" vector-effect="non-scaling-stroke" d="
  M 256.25 482.00
  L 60.71 481.75"
/>
<path stroke="#3d444a" vector-effect="non-scaling-stroke" d="
  M 256.25 482.00
  L 255.71 512.00"
/>
</g>
<path fill="#97de3d" d="
  M 209.81 0.00
  L 256.10 0.00
  L 256.00 211.96
  Q 249.60 211.72 246.57 208.68
  Q 202.56 164.70 158.57 120.69
  Q 153.15 115.27 151.90 112.11
  C 149.01 104.84 153.36 95.52 160.79 92.95
  Q 163.63 91.97 171.34 92.01
  Q 183.36 92.08 195.40 91.96
  Q 195.97 91.96 195.97 91.39
  Q 196.06 55.83 195.98 20.37
  C 195.96 9.49 198.18 1.98 209.81 0.00
  Z"
/>
<path fill="#59c36a" d="
  M 256.10 0.00
  L 303.81 0.00
  C 312.57 2.33 316.00 8.26 316.00 16.99
  Q 315.99 54.21 316.01 91.47
  Q 316.01 91.99 316.53 91.99
  Q 330.81 92.02 345.02 92.01
  Q 349.40 92.00 352.10 93.24
  C 359.65 96.67 364.05 106.58 359.09 114.59
  C 356.74 118.38 351.78 122.94 348.51 126.16
  C 320.72 153.48 292.82 180.95 265.55 208.79
  Q 262.35 212.05 256.00 211.96
  L 256.10 0.00
  Z"
/>
<rect fill="#fed843" x="-14.97" y="-55.09" transform="translate(117.40,182.33) rotate(-41.1)" width="29.94" height="110.18" rx="14.68"/>
<rect fill="#fabe2c" x="-14.97" y="-55.09" transform="translate(394.60,182.34) rotate(41.0)" width="29.94" height="110.18" rx="14.68"/>
<path fill="#fed843" d="
  M 0.00 226.69
  L 0.00 224.94
  C 0.92 217.08 7.20 210.94 15.04 211.05
  Q 18.23 211.10 24.48 213.79
  Q 49.60 224.62 74.69 235.55
  Q 77.51 236.78 79.76 239.97
  C 88.76 252.69 75.72 268.40 61.57 262.35
  Q 35.17 251.06 8.83 239.65
  Q 1.03 236.28 0.00 226.69
  Z"
/>
<path fill="#fabe2c" d="
  M 512.00 225.06
  L 512.00 226.81
  C 511.16 234.45 507.25 237.81 500.10 240.96
  Q 475.89 251.62 451.54 261.98
  Q 447.12 263.87 444.08 263.76
  C 431.00 263.32 424.39 248.03 433.53 238.65
  Q 436.01 236.10 441.82 233.59
  Q 466.93 222.71 492.06 211.80
  C 501.04 207.91 510.85 215.61 512.00 225.06
  Z"
/>
<path fill="#ff641a" d="
  M 255.75 242.04
  L 256.00 362.00
  L 150.75 362.04
  Q 115.77 361.96 80.80 362.01
  Q 73.26 362.02 69.91 360.57
  C 62.31 357.27 60.58 350.32 61.24 342.25
  C 65.02 296.54 116.84 268.67 155.07 256.92
  Q 204.22 241.82 255.75 242.04
  Z"
/>
<path fill="#f03800" d="
  M 255.75 242.04
  Q 306.18 241.38 354.16 255.74
  C 393.33 267.46 448.02 296.04 450.92 343.05
  C 451.69 355.58 445.93 362.02 433.56 362.00
  Q 397.28 361.97 361.00 362.04
  L 256.00 362.00
  L 255.75 242.04
  Z"
/>
<path fill="#474f54" d="
  M 150.75 362.04
  L 256.00 362.00
  L 256.00 391.16
  A 0.83 0.83 0.0 0 0 256.83 391.99
  L 361.00 391.96
  Q 397.44 392.04 433.88 391.99
  C 444.66 391.97 450.97 397.15 450.98 408.31
  Q 451.04 444.91 450.97 481.93
  L 256.25 482.00
  L 255.99 393.37
  A 1.39 1.38 0.0 0 0 254.60 391.99
  L 151.00 391.96
  L 150.75 362.04
  Z"
/>
<path fill="#32393f" d="
  M 256.00 362.00
  L 361.00 362.04
  L 361.00 391.96
  L 256.83 391.99
  A 0.83 0.83 0.0 0 1 256.00 391.16
  L 256.00 362.00
  Z"
/>
<path fill="#575f64" d="
  M 151.00 391.96
  L 254.60 391.99
  A 1.39 1.38 0.0 0 1 255.99 393.37
  L 256.25 482.00
  L 60.71 481.75
  Q 60.73 481.63 60.84 481.53
  Q 61.00 481.40 61.00 481.20
  Q 61.01 446.31 61.00 411.42
  C 60.99 398.05 65.69 391.99 79.45 392.00
  Q 115.23 392.03 151.00 391.96
  Z"
/>
<path fill="#474f54" d="
  M 60.71 481.75
  L 256.25 482.00
  L 255.71 512.00
  L 44.69 512.00
  C 29.46 509.62 25.47 488.98 40.45 483.11
  C 45.58 481.10 54.43 482.11 60.71 481.75
  Z"
/>
<path fill="#32393f" d="
  M 450.97 481.93
  C 457.07 482.05 466.70 480.88 471.98 483.18
  C 486.04 489.28 483.02 507.73 468.94 512.00
  L 255.71 512.00
  L 256.25 482.00
  L 450.97 481.93
  Z"
/>
</svg>
