<svg xmlns="http://www.w3.org/2000/svg" viewBox="0 0 39.69 30.89"><defs><style>.cls-1{fill:#e43a35;}.cls-1,.cls-2,.cls-3,.cls-4,.cls-5{fill-rule:evenodd;}.cls-2{fill:#458abd;}.cls-3{fill:#5997c5;}.cls-4{fill:#ed5451;}.cls-5{fill:#ef7e12;stroke:#ef7e12;stroke-miterlimit:10;stroke-width:0.57px;}</style></defs><g id="Слой_2" data-name="Слой 2"><g id="Слой_1-2" data-name="Слой 1"><polygon class="cls-1" points="19.84 24.19 28.32 24.16 28.32 17.29 19.87 17.26 11.37 17.29 11.34 24.19 19.84 24.19"/><polygon class="cls-2" points="6.32 28.75 19.81 28.75 19.81 28.75 33.36 28.72 33.42 24.05 28.23 24.02 19.64 24.02 19.64 24.02 11.34 24.02 6.35 24.05 6.32 28.75"/><path class="cls-3" d="M0,28.52v2.31l19.64.06h20V28.52H0Z"/><path class="cls-4" d="M11.37,21.84H30.73a12.63,12.63,0,0,0-.46-4.55,6,6,0,0,0-2.07-2.77c-2.38-1.81-5-1.29-8.33-1.29-3.85,0-8.67-.75-10.46,4.12a13.23,13.23,0,0,0-.34,4.49Z"/><polygon class="cls-2" points="19.84 12.4 21.77 9.02 23.7 5.64 20.84 5.64 20.84 0 18.85 0 18.85 5.64 15.99 5.64 17.91 9.02 19.84 12.4"/><path class="cls-5" d="M26.59,11.42l-.26-.14a.31.31,0,0,1-.08-.4L28.8,6.44a.26.26,0,0,1,.37-.11l.25.14a.32.32,0,0,1,.12.4L27,11.31a.29.29,0,0,1-.4.11Z"/><path class="cls-5" d="M13.15,11.28l.23-.14a.29.29,0,0,0,.11-.4L10.94,6.3a.3.3,0,0,0-.4-.12l-.22.15a.3.3,0,0,0-.12.4l2.56,4.44a.27.27,0,0,0,.39.11Z"/><path class="cls-5" d="M31.35,16.35l-.11-.23a.28.28,0,0,1,.08-.4l4.42-2.58a.29.29,0,0,1,.4.12l.14.22a.33.33,0,0,1-.11.41l-4.42,2.57a.29.29,0,0,1-.4-.11Z"/><path class="cls-5" d="M8.36,16.2,8.5,16a.3.3,0,0,0-.11-.41L4,13a.29.29,0,0,0-.4.11l-.14.23a.29.29,0,0,0,.11.4L8,16.32a.27.27,0,0,0,.39-.12Z"/></g></g></svg>