<svg xmlns="http://www.w3.org/2000/svg" viewBox="0 0 39.7 40.09"><defs><style>.cls-1{fill:#9bcb64;}.cls-1,.cls-2,.cls-3,.cls-4{fill-rule:evenodd;}.cls-2{fill:#313130;}.cls-3{fill:#ed5451;}.cls-4{fill:#7cb242;}.cls-5{fill:#fefefe;stroke:#fefefe;stroke-miterlimit:10;stroke-width:0.2px;}</style></defs><g id="Слой_2" data-name="Слой 2"><g id="Слой_1-2" data-name="Слой 1"><path class="cls-1" d="M19.16,32c0-1.26,1.36-1.26,1.36,0v2.26c0,1.29-1.36,1.29-1.36,0ZM31.35,19.4c.31-.08,2.21,0,2.69,0,1.08,0,1.05,1.11.4,1.34a26.22,26.22,0,0,1-2.72.06c-1.22,0-1.19-1.15-.37-1.35Zm-26,0c.31-.05,2.24,0,2.69,0,1.16,0,1,1.23.28,1.37-.42.09-2.23,0-2.75,0-1-.06-1.07-1.15-.22-1.38ZM19.16,5.8c0-1.28,1.36-1.28,1.36,0V8.07c0,1.25-1.36,1.25-1.36,0Zm-5-2c.19.63.51,1.35.73,2l4.4,11.83c.19.54.73,1.49.36,2.06s-1.33.26-2,0l-6.09-2c-1.82-.6-6.58-2.23-8.08-2.6-.62,1.29-.79,4.89-.65,6.5A17.27,17.27,0,0,0,4.34,27.3a17.06,17.06,0,0,0,6.8,7.62A17.44,17.44,0,0,0,22.88,37,17.06,17.06,0,0,0,32.2,32a17.29,17.29,0,0,0,1.93-21.41c-4-6.33-12.64-9.6-20-6.79Z"/><path class="cls-2" d="M3.46,15.14c.82-3.61,3.88-7.48,7-9.51a17.7,17.7,0,0,1,3.69-1.86c7.34-2.81,16,.46,20,6.79A17.29,17.29,0,0,1,32.2,32,17.06,17.06,0,0,1,22.88,37a17.44,17.44,0,0,1-11.74-2.12,17.06,17.06,0,0,1-6.8-7.62,17.27,17.27,0,0,1-1.53-5.66c-.14-1.61,0-5.21.65-6.5ZM18.23.08A19.78,19.78,0,0,0,1.28,13,20.46,20.46,0,0,0,.06,21.69,20,20,0,0,0,21.52,40,20,20,0,0,0,39.63,18.37C38.75,8,29.65-.92,18.23.08Z"/><path class="cls-3" d="M3.46,15.14c1.5.37,6.26,2,8.08,2.6l6.09,2c.68.23,1.59.6,2,0s-.17-1.52-.36-2.06L14.88,5.77c-.22-.65-.54-1.37-.73-2a17.7,17.7,0,0,0-3.69,1.86c-3.12,2-6.18,5.9-7,9.51Z"/><path class="cls-4" d="M5.36,19.37c-.85.23-.74,1.32.22,1.38.52,0,2.33.06,2.75,0,.74-.14.88-1.35-.28-1.37-.45,0-2.38,0-2.69,0Z"/><path class="cls-4" d="M31.35,19.4c-.82.2-.85,1.32.37,1.35a26.22,26.22,0,0,0,2.72-.06c.65-.23.68-1.32-.4-1.34-.48,0-2.38,0-2.69,0Z"/><path class="cls-4" d="M19.16,32v2.26c0,1.29,1.36,1.29,1.36,0V32c0-1.26-1.36-1.26-1.36,0Z"/><path class="cls-4" d="M19.16,5.8V8.07c0,1.25,1.36,1.25,1.36,0V5.8c0-1.28-1.36-1.28-1.36,0Z"/><path class="cls-5" d="M19.73,11.67a5.33,5.33,0,0,1,2.55.55,3.86,3.86,0,0,1,1.65,1.51,4.12,4.12,0,0,1,.56,2.07,3.57,3.57,0,0,1-.85,2.43,4.71,4.71,0,0,1-.79.69.57.57,0,0,0-.29.51.6.6,0,0,0,.34.49,4.16,4.16,0,0,1,1.08.77,3.69,3.69,0,0,1,1,2.75A4.8,4.8,0,0,1,24.32,26a4.48,4.48,0,0,1-1.93,1.77,6.09,6.09,0,0,1-2.86.66,6.9,6.9,0,0,1-2.69-.54,5.58,5.58,0,0,1-1.73-1.21.57.57,0,0,1-.17-.42.6.6,0,0,1,.17-.41l.51-.48a.56.56,0,0,1,.76,0,5.72,5.72,0,0,0,1.25.86,4.42,4.42,0,0,0,1.82.37,3,3,0,0,0,3.23-3.18,2.69,2.69,0,0,0-.8-2.23,3.61,3.61,0,0,0-2.38-.66H19a.6.6,0,0,1-.42-.2.57.57,0,0,1-.14-.46l.08-.57a.59.59,0,0,1,.57-.49h.34A3,3,0,0,0,21.46,18a2.7,2.7,0,0,0,.82-2.09,2.31,2.31,0,0,0-.71-1.81,2.74,2.74,0,0,0-1.95-.68,4.07,4.07,0,0,0-1.7.34,5,5,0,0,0-1.19.75.58.58,0,0,1-.8-.06l-.4-.46a.48.48,0,0,1-.14-.43.56.56,0,0,1,.2-.4,6.35,6.35,0,0,1,4.14-1.52Z"/></g></g></svg>