<svg xmlns="http://www.w3.org/2000/svg" viewBox="0 0 40.24 40.45"><defs><style>.cls-1{fill:#5997ab;}.cls-1,.cls-3,.cls-6{fill-rule:evenodd;}.cls-2,.cls-5{fill:none;}.cls-2{stroke:#dd2a1a;stroke-linecap:round;stroke-width:1.49px;}.cls-2,.cls-3,.cls-5{stroke-miterlimit:10;}.cls-3{fill:#ef7e12;stroke:#f1c61d;stroke-width:0.74px;}.cls-4{fill:#fefefe;}.cls-5{stroke:#fefefe;stroke-width:0.2px;}.cls-6{fill:#dd2a1a;}</style></defs><g id="Слой_2" data-name="Слой 2"><g id="Слой_1-2" data-name="Слой 1"><path class="cls-1" d="M6.94,0H7.2a.44.44,0,0,1,.43.43V4.15H6.52V.43A.44.44,0,0,1,6.94,0Z"/><path class="cls-1" d="M11.28,0h.26A.44.44,0,0,1,12,.43V4.15H10.89V.43A.41.41,0,0,1,11.28,0Z"/><path class="cls-1" d="M15.62,0h.28a.41.41,0,0,1,.4.43V4.15H15.22V.43a.41.41,0,0,1,.4-.43Z"/><path class="cls-1" d="M0,16v-.25a.44.44,0,0,1,.43-.43H4.14v1.11H.43A.44.44,0,0,1,0,16Z"/><path class="cls-1" d="M0,11.65v-.26A.44.44,0,0,1,.43,11H4.14v1.08H.43a.41.41,0,0,1-.43-.4Z"/><path class="cls-1" d="M0,7.27V7a.42.42,0,0,1,.43-.41H4.14V7.67H.43A.41.41,0,0,1,0,7.27Z"/><path class="cls-1" d="M22.82,16v-.25a.44.44,0,0,0-.43-.43H18.71v1.11h3.68a.44.44,0,0,0,.43-.43Z"/><path class="cls-1" d="M22.82,11.65v-.26a.44.44,0,0,0-.43-.42H18.71v1.08h3.68a.41.41,0,0,0,.43-.4Z"/><path class="cls-1" d="M22.82,7.27V7a.42.42,0,0,0-.43-.41H18.71V7.67h3.68a.41.41,0,0,0,.43-.4Z"/><path class="cls-1" d="M6.94,23H7.2a.41.41,0,0,0,.43-.4V18.87H6.52v3.75a.41.41,0,0,0,.42.4Z"/><path class="cls-1" d="M11.28,23h.26a.41.41,0,0,0,.42-.4V18.87H10.89v3.75a.39.39,0,0,0,.39.4Z"/><path class="cls-1" d="M15.62,23h.28a.39.39,0,0,0,.4-.4V18.87H15.22v3.75a.39.39,0,0,0,.4.4Z"/><path class="cls-1" d="M5,4.15H17.83a.89.89,0,0,1,.88.89V18a.86.86,0,0,1-.88.86H5A.84.84,0,0,1,4.14,18V5A.86.86,0,0,1,5,4.15ZM16.13,5.41a1.23,1.23,0,0,1,0,2.46,1.23,1.23,0,0,1,0-2.46Z"/><polyline class="cls-2" points="7.06 23.02 7.06 30.41 17.86 30.41 17.86 23.71 28.49 23.71 28.49 27.51"/><polygon class="cls-3" points="20.32 27.51 32.77 27.51 36.23 30.66 39.69 33.81 36.23 36.93 32.77 40.08 20.32 40.08 20.32 27.51"/><polygon class="cls-4" points="24.63 30.84 24.63 36.76 23.81 36.76 23.81 31.72 22.45 32.55 22.11 31.98 23.92 30.84 24.63 30.84"/><path class="cls-4" d="M28,30.75a1.62,1.62,0,0,1,1.48.8A4.13,4.13,0,0,1,30,33.81a4.15,4.15,0,0,1-.48,2.26,1.75,1.75,0,0,1-3,0,4.44,4.44,0,0,1-.48-2.26,4.42,4.42,0,0,1,.48-2.26,1.62,1.62,0,0,1,1.47-.8Zm0,.66a.9.9,0,0,0-.85.57,4.72,4.72,0,0,0-.25,1.83,4.82,4.82,0,0,0,.25,1.83.92.92,0,0,0,1.71,0,4.71,4.71,0,0,0,.28-1.83A4.6,4.6,0,0,0,28.89,32a.91.91,0,0,0-.86-.57Z"/><polygon class="cls-4" points="33.31 30.84 33.31 36.76 32.48 36.76 32.48 31.72 31.12 32.55 30.78 31.98 32.6 30.84 33.31 30.84"/><polygon class="cls-5" points="24.63 30.84 24.63 36.76 23.81 36.76 23.81 31.72 22.45 32.55 22.11 31.98 23.92 30.84 24.63 30.84"/><path class="cls-5" d="M28,30.75a1.62,1.62,0,0,1,1.48.8A4.13,4.13,0,0,1,30,33.81a4.15,4.15,0,0,1-.48,2.26,1.75,1.75,0,0,1-3,0,4.44,4.44,0,0,1-.48-2.26,4.42,4.42,0,0,1,.48-2.26,1.62,1.62,0,0,1,1.47-.8Zm0,.66a.9.9,0,0,0-.85.57,4.72,4.72,0,0,0-.25,1.83,4.82,4.82,0,0,0,.25,1.83.92.92,0,0,0,1.71,0,4.71,4.71,0,0,0,.28-1.83A4.6,4.6,0,0,0,28.89,32a.91.91,0,0,0-.86-.57Z"/><polygon class="cls-5" points="33.31 30.84 33.31 36.76 32.48 36.76 32.48 31.72 31.12 32.55 30.78 31.98 32.6 30.84 33.31 30.84"/><polygon class="cls-6" points="15.11 30.41 13.29 28.95 11.45 27.51 11.45 30.41 11.45 33.3 13.29 31.87 15.11 30.41"/><polygon class="cls-6" points="25.74 23.71 23.92 22.36 22.08 21.02 22.08 23.71 22.08 26.37 23.92 25.02 25.74 23.71"/></g></g></svg>