<?xml version="1.0" encoding="UTF-8" standalone="no"?>
<!DOCTYPE svg PUBLIC "-//W3C//DTD SVG 1.1//EN" "http://www.w3.org/Graphics/SVG/1.1/DTD/svg11.dtd">
<svg xmlns="http://www.w3.org/2000/svg" version="1.1" viewBox="0.00 0.00 512.00 512.00">
<g stroke-width="2.00" fill="none" stroke-linecap="butt">
<path stroke="#904047" vector-effect="non-scaling-stroke" d="
  M 38.54 34.26
  L 38.50 281.46"
/>
<path stroke="#cf382d" vector-effect="non-scaling-stroke" d="
  M 226.29 76.81
  L 226.29 96.00"
/>
<path stroke="#c72e28" vector-effect="non-scaling-stroke" d="
  M 226.29 96.00
  L 226.26 279.94
  A 1.33 1.33 0.0 0 1 224.93 281.27
  Q 201.34 281.20 177.33 281.28
  C 169.54 281.30 154.39 282.02 142.84 281.39
  Q 142.35 281.37 141.91 281.56
  Q 141.33 281.82 140.75 281.79"
/>
<path stroke="#b83126" vector-effect="non-scaling-stroke" d="
  M 229.75 349.79
  L 226.92 349.75
  Q 226.38 349.75 226.36 349.21
  C 225.53 327.87 226.12 304.47 226.32 282.17
  C 226.33 280.60 226.74 278.82 226.74 277.25
  Q 226.81 225.06 226.52 111.94
  Q 226.50 103.97 226.29 96.00"
/>
</g>
<path fill="#424a60" d="
  M 28.81 0.00
  L 30.81 0.00
  Q 38.47 1.75 38.48 9.75
  Q 38.50 22.02 38.54 34.26
  L 38.50 281.46
  Q 38.47 391.95 38.44 502.44
  Q 38.44 510.35 30.69 512.00
  L 28.94 512.00
  C 22.09 510.50 21.26 505.91 21.26 499.30
  Q 21.24 254.40 21.25 9.50
  Q 21.26 1.81 28.81 0.00
  Z"
/>
<path fill="#dd352e" d="
  M 226.29 76.81
  L 226.29 96.00
  L 226.26 279.94
  A 1.33 1.33 0.0 0 1 224.93 281.27
  Q 201.34 281.20 177.33 281.28
  C 169.54 281.30 154.39 282.02 142.84 281.39
  Q 142.35 281.37 141.91 281.56
  Q 141.33 281.82 140.75 281.79
  Q 140.64 281.71 140.52 281.62
  Q 140.36 281.50 140.15 281.50
  L 38.50 281.46
  L 38.54 34.26
  L 225.16 34.25
  A 1.10 1.10 0.0 0 1 226.26 35.35
  L 226.29 76.81
  Z"
/>
<path fill="#c03a2b" d="
  M 229.75 349.79
  L 226.92 349.75
  Q 226.38 349.75 226.36 349.21
  C 225.53 327.87 226.12 304.47 226.32 282.17
  C 226.33 280.60 226.74 278.82 226.74 277.25
  Q 226.81 225.06 226.52 111.94
  Q 226.50 103.97 226.29 96.00
  L 226.29 76.81
  L 490.20 76.76
  A 0.26 0.26 0.0 0 1 490.42 77.17
  L 397.24 212.70
  A 1.12 1.11 45.3 0 0 397.24 213.97
  L 490.23 349.23
  A 0.35 0.34 72.7 0 1 489.95 349.77
  L 229.75 349.79
  Z"
/>
<path fill="#b02721" d="
  M 226.29 96.00
  Q 226.50 103.97 226.52 111.94
  Q 226.81 225.06 226.74 277.25
  C 226.74 278.82 226.33 280.60 226.32 282.17
  C 226.12 304.47 225.53 327.87 226.36 349.21
  Q 226.38 349.75 226.92 349.75
  L 229.75 349.79
  Q 192.73 350.31 173.74 349.96
  C 159.48 349.70 146.48 339.50 142.28 325.89
  Q 140.78 321.05 140.76 310.33
  Q 140.73 296.06 140.75 281.79
  Q 141.33 281.82 141.91 281.56
  Q 142.35 281.37 142.84 281.39
  C 154.39 282.02 169.54 281.30 177.33 281.28
  Q 201.34 281.20 224.93 281.27
  A 1.33 1.33 0.0 0 0 226.26 279.94
  L 226.29 96.00
  Z"
/>
</svg>
