<svg xmlns="http://www.w3.org/2000/svg" viewBox="0 0 40.17 40.83"><defs><style>.cls-1{fill:#71bbd1;}.cls-1,.cls-2{fill-rule:evenodd;}.cls-2{fill:#ef7e12;stroke:#f1bd29;stroke-width:0.74px;}.cls-2,.cls-3{stroke-miterlimit:10;}.cls-3{fill:none;stroke:#fefefe;stroke-width:1.5px;}</style></defs><g id="Слой_2" data-name="Слой 2"><g id="Слой_1-2" data-name="Слой 1"><path class="cls-1" d="M27.92,10.14h7.43a.57.57,0,0,1,.57.57V30.23a.58.58,0,0,1-.57.58H32.57v-.32c0-.26.12-1.29-.48-1.17-.05,0-1.25.77-2.61,1.69C27,32.7,27,32.7,27,32.92s0,.26,2.49,1.92c1.36.92,2.56,1.69,2.61,1.72.6.09.48-.92.48-1.2V35.1h5.62a2,2,0,0,0,2-2V7.84a2,2,0,0,0-2-2H27.92a2,2,0,0,0-2,2v.29a2,2,0,0,0,2,2Z"/><polygon class="cls-2" points="0.37 0.37 15.57 0.37 19.79 4.21 24.04 8.02 19.79 11.85 15.57 15.69 0.37 15.69 0.37 0.37"/><polygon class="cls-2" points="0.37 25.11 15.57 25.11 19.79 28.95 24.04 32.78 19.79 36.62 15.57 40.45 0.37 40.45 0.37 25.11"/><polyline class="cls-3" points="2.3 9.51 4.91 9.53 4.85 3.55 7.94 3.58 7.94 12.71 11.37 12.71 11.37 3.58 14.49 3.58 14.54 7.9 17.46 7.9"/><polyline class="cls-3" points="2.3 31.49 4.91 31.46 4.85 37.45 7.94 37.42 7.94 28.29 11.37 28.29 11.37 37.42 14.49 37.42 14.54 33.1 17.46 33.1"/></g></g></svg>