<svg xmlns="http://www.w3.org/2000/svg" viewBox="0 0 39.69 40.08"><defs><style>.cls-1{fill:#e43a35;}.cls-2{fill:#fefefe;}</style></defs><g id="Слой_2" data-name="Слой 2"><g id="Слой_1-2" data-name="Слой 1"><path class="cls-1" d="M19.84,0h.91A20,20,0,0,1,39.69,19.15V20.9a20,20,0,0,1-19,19.18H19.5A20,20,0,0,1,0,20.21v-.4A20,20,0,0,1,4.68,7.13,19.73,19.73,0,0,1,19.59,0Z"/><path class="cls-2" d="M19.84,22.65H30.3a1,1,0,0,1,.57.17,1.33,1.33,0,0,1-.31,2.4,4.45,4.45,0,0,1-.82.06H19.93a.11.11,0,0,1-.09,0l-10.23,0a1.33,1.33,0,0,1-.54-2.58,5.13,5.13,0,0,1,.71-.05Zm.06-7.88c3.29,0,6.6,0,9.89,0a2.34,2.34,0,0,1,.91.09,1.32,1.32,0,0,1,.76,1.46,1.28,1.28,0,0,1-1.41,1.09H19.9s0,0-.06,0H10.06a3.84,3.84,0,0,1-1-.09,1.3,1.3,0,0,1,.06-2.46,4.63,4.63,0,0,1,.82-.06h9.92a.09.09,0,0,1,.06,0Z"/></g></g></svg>