<svg xmlns="http://www.w3.org/2000/svg" viewBox="0 0 39.69 40.08"><defs><style>.cls-1{fill:#e43a35;}.cls-2{fill:#fefefe;}</style></defs><g id="Слой_2" data-name="Слой 2"><g id="Слой_1-2" data-name="Слой 1"><path class="cls-1" d="M19.84,0h.91A20,20,0,0,1,39.69,19.15V20.9a20,20,0,0,1-19,19.18H19.5A20,20,0,0,1,0,20.21v-.4A20.07,20.07,0,0,1,4.68,7.13,19.73,19.73,0,0,1,19.59,0Z"/><path class="cls-2" d="M18.37,28.57s-.06,0-.06,0c-1.08.72-2.15,1.43-3.2,2.15a1.32,1.32,0,0,1-2-.77,1.36,1.36,0,0,1,.73-1.52l4.48-3,.06-.05,7.91-5.33h0a.08.08,0,0,0,0-.09h0l-7.94-5.32h0c-1.42-.95-2.84-1.89-4.23-2.84-.59-.4-1-.6-1.07-1.23a1.31,1.31,0,0,1,1.61-1.46,3.13,3.13,0,0,1,.68.38c1,.63,1.93,1.28,2.92,1.94l.17.09c3.55,2.37,7.09,4.78,10.66,7.16a2.94,2.94,0,0,1,.68.57,1.34,1.34,0,0,1,0,1.57,1.72,1.72,0,0,1-.53.43q-5.4,3.66-10.86,7.3Z"/></g></g></svg>