<svg xmlns="http://www.w3.org/2000/svg" viewBox="0 0 39.69 40.08"><defs><style>.cls-1{fill:#e43a35;}.cls-2{fill:#fefefe;}</style></defs><g id="Слой_2" data-name="Слой 2"><g id="Слой_1-2" data-name="Слой 1"><path class="cls-1" d="M19.84,0h-.9A20,20,0,0,0,0,19.15v1.78A20,20,0,0,0,19,40.08h1.16A20,20,0,0,0,39.69,20.21v-.4A20.18,20.18,0,0,0,35,7.13,19.77,19.77,0,0,0,20.1,0Z"/><path class="cls-2" d="M21.32,28.57a.1.1,0,0,1,.08,0c1.05.72,2.13,1.43,3.2,2.15a1.31,1.31,0,0,0,2-.77,1.35,1.35,0,0,0-.71-1.52l-4.51-3-.05-.05-7.91-5.3a0,0,0,0,0,0,0V20h0l7.93-5.32h0c1.41-.95,2.83-1.89,4.22-2.84.6-.4,1-.6,1.08-1.23A1.29,1.29,0,0,0,25,9.16a1.67,1.67,0,0,0-.65.35l-3,1.94-.17.12L10.6,18.7a2.84,2.84,0,0,0-.71.57,1.39,1.39,0,0,0,0,1.57,1.94,1.94,0,0,0,.54.43q5.4,3.66,10.86,7.3Z"/></g></g></svg>