<?xml version="1.0" encoding="UTF-8"?>
<!DOCTYPE svg PUBLIC "-//W3C//DTD SVG 1.1//EN" "http://www.w3.org/Graphics/SVG/1.1/DTD/svg11.dtd">
<svg xmlns="http://www.w3.org/2000/svg" version="1.1" width="512px" height="512px" style="shape-rendering:geometricPrecision; text-rendering:geometricPrecision; image-rendering:optimizeQuality; fill-rule:evenodd; clip-rule:evenodd" xmlns:xlink="http://www.w3.org/1999/xlink">
<g><path style="opacity:0.962" fill="#d1322f" d="M 165.5,83.5 C 158.167,83.5 150.833,83.5 143.5,83.5C 135.512,69.5274 127.512,55.5274 119.5,41.5C 90.7778,40.976 62.1111,40.1427 33.5,39C 27.8875,33.0011 28.2208,27.3345 34.5,22C 50.1667,21.8333 65.8333,21.6667 81.5,21.5C 97.922,21.3471 114.255,21.8471 130.5,23C 142.821,42.8131 154.488,62.9798 165.5,83.5 Z"/></g>
<g><path style="opacity:0.964" fill="#606568" d="M 143.5,83.5 C 150.833,83.5 158.167,83.5 165.5,83.5C 171.176,83.3339 176.843,83.5006 182.5,84C 189.694,88.8401 190.361,94.5067 184.5,101C 182.26,101.977 179.927,102.477 177.5,102.5C 169.735,101.188 162.068,101.188 154.5,102.5C 149.156,102.666 143.823,102.499 138.5,102C 131.936,98.2363 130.436,93.0696 134,86.5C 136.642,83.9712 139.808,82.9712 143.5,83.5 Z"/></g>
<g><path style="opacity:0.965" fill="#d03330" d="M 177.5,102.5 C 236.155,204.473 294.822,306.473 353.5,408.5C 345.962,409.782 338.295,409.782 330.5,408.5C 272.261,306.259 213.594,204.259 154.5,102.5C 162.068,101.188 169.735,101.188 177.5,102.5 Z"/></g>
<g><path style="opacity:0.966" fill="#606568" d="M 330.5,408.5 C 338.295,409.782 345.962,409.782 353.5,408.5C 358.844,408.334 364.177,408.501 369.5,409C 375.931,412.036 377.764,416.87 375,423.5C 372.303,426.87 368.803,428.204 364.5,427.5C 357.167,427.5 349.833,427.5 342.5,427.5C 336.824,427.666 331.157,427.499 325.5,427C 319.241,423.044 318.074,417.878 322,411.5C 324.492,409.503 327.325,408.503 330.5,408.5 Z"/></g>
<g><path style="opacity:0.961" fill="#d1322f" d="M 342.5,427.5 C 349.833,427.5 357.167,427.5 364.5,427.5C 372.948,441.557 381.281,455.723 389.5,470C 418.895,470.024 448.228,470.69 477.5,472C 483.113,477.999 482.779,483.666 476.5,489C 460.333,489.167 444.167,489.333 428,489.5C 411.078,489.653 394.245,489.153 377.5,488C 365.443,468.051 353.776,447.885 342.5,427.5 Z"/></g>
</svg>
