<?xml version="1.0" encoding="UTF-8"?>
<svg id="_Слой_2" data-name="Слой 2" xmlns="http://www.w3.org/2000/svg" viewBox="0 0 23.03 43.15">
  <defs>
    <style>
      .cls-1 {
        fill: #eea933;
      }

      .cls-1, .cls-2, .cls-3, .cls-4, .cls-5 {
        fill-rule: evenodd;
      }

      .cls-2 {
        fill: #f2c61f;
      }

      .cls-3 {
        fill: #fff;
        stroke: #a8acb3;
        stroke-miterlimit: 10;
      }

      .cls-4 {
        fill: #676b6d;
      }

      .cls-5 {
        fill: #eda935;
      }
    </style>
  </defs>
  <g id="led">
    <g>
      <path class="cls-3" d="m20.87,25.68H2.18c0-2.79.01-6.25.01-9.1,0-4.24-.56-8.27,1.33-11.48.26-.41.51-.88.87-1.24.15-.21.31-.36.51-.57l.26-.26c1.69-1.6,3.74-2.43,5.78-2.53h1.18c4.04.26,7.73,3.15,8.6,7.7.36,1.86.15,6.1.15,8.38,0,2.84-.01,6.3-.01,9.1"/>
      <path class="cls-4" d="m5.83,25.21h1.43v-3.77c.92,0,.87-.36,1.28-.98.31-.52.56-.98.87-1.55.26-.41.87-1.14.26-1.6-.31-.26-1.69-.16-2.25-.16-1.95,0-1.59,0-1.59,3.15"/>
      <path class="cls-4" d="m15.84,25.21h1.38c0-1.55.02-3.31.02-4.91,0-.72.05-1.6.05-2.33-.05-.93-.72-.88-1.64-.83-.77,0-.87.62-1.18,1.14-2,3.31-1.84,3.15,1.38,3.15l-.02,3.77Z"/>
      <path class="cls-1" d="m7.26,31.57h-1.48v9.25c0,.98-.26,2.22.67,2.33h.2c.87-.1.61-1.34.61-2.33v-9.25Z"/>
      <path class="cls-1" d="m17.3,31.57h-1.48v9.25c0,.98-.26,2.22.61,2.33h.2c.92-.1.67-1.34.67-2.33v-9.25Z"/>
      <path class="cls-2" d="m14.33,28.73c0,.72-.05,1.5.2,2.02.1.26.26.41.46.62.26.21.41.21.82.21h1.48c1.38-.1,1.59-1.24,1.38-2.84-.26-.16-3.89-.1-4.35,0h0Z"/>
      <path class="cls-2" d="m5.78,31.57h1.48c.41,0,.56,0,.82-.21.2-.16.41-.36.51-.62.2-.52.15-1.29.15-2.02-.46-.1-4.1-.16-4.35,0-.2,1.6,0,2.74,1.38,2.84h0Z"/>
      <path class="cls-5" d="m21.19,28.73c.92,0,1.74.16,1.84-.72,0-.36,0-2.22-.05-2.48-.26-.67-1.13-.47-2.1-.47H2.19c-.36,0-1.43-.05-1.74.1-.61.26-.46,1.96-.36,2.84.05.88.82.72,1.69.72h19.4Z"/>
    </g>
  </g>
</svg>