<svg xmlns="http://www.w3.org/2000/svg" viewBox="0 0 25.89 40.5"><defs><style>.cls-1{fill:#ef7e12;stroke:#f1bd29;stroke-width:0.74px;fill-rule:evenodd;}.cls-1,.cls-3{stroke-miterlimit:10;}.cls-2{fill:#fefefe;}.cls-3{fill:none;stroke:#fefefe;stroke-width:0.49px;}</style></defs><g id="Слой_2" data-name="Слой 2"><g id="Слой_1-2" data-name="Слой 1"><polygon class="cls-1" points="0.37 0.37 0.37 25.77 6.67 32.84 12.93 39.94 19.22 32.84 25.52 25.77 25.52 0.37 0.37 0.37"/><polygon class="cls-2" points="4.88 14.52 4.88 21.67 7.66 21.67 7.52 22.65 3.97 22.65 3.97 14.52 4.88 14.52"/><path class="cls-2" d="M10.78,14.37a2.45,2.45,0,0,1,1.47.49,3.35,3.35,0,0,1,1,1.43,6.74,6.74,0,0,1,.34,2.29,6.56,6.56,0,0,1-.34,2.26,3.46,3.46,0,0,1-1,1.46,2.45,2.45,0,0,1-1.47.49,2.48,2.48,0,0,1-1.51-.49,3.26,3.26,0,0,1-1-1.43,6.56,6.56,0,0,1-.34-2.26,6.56,6.56,0,0,1,.34-2.26,3.19,3.19,0,0,1,1-1.46,2.33,2.33,0,0,1,1.51-.52Zm0,.92a1.53,1.53,0,0,0-1.37.8,4.82,4.82,0,0,0-.51,2.52,4.58,4.58,0,0,0,.51,2.46,1.48,1.48,0,0,0,1.37.8c1.21,0,1.84-1.08,1.84-3.29s-.63-3.29-1.84-3.29Z"/><polygon class="cls-2" points="21.92 14.52 20.55 22.65 19.36 22.65 18.14 15.83 16.9 22.65 15.74 22.65 14.38 14.52 15.28 14.52 16.36 21.67 17.64 14.52 18.63 14.52 19.96 21.67 21.07 14.52 21.92 14.52"/><polygon class="cls-3" points="4.88 14.52 4.88 21.67 7.66 21.67 7.52 22.65 3.97 22.65 3.97 14.52 4.88 14.52"/><path class="cls-3" d="M10.78,14.37a2.45,2.45,0,0,1,1.47.49,3.35,3.35,0,0,1,1,1.43,6.74,6.74,0,0,1,.34,2.29,6.56,6.56,0,0,1-.34,2.26,3.46,3.46,0,0,1-1,1.46,2.45,2.45,0,0,1-1.47.49,2.48,2.48,0,0,1-1.51-.49,3.26,3.26,0,0,1-1-1.43,6.56,6.56,0,0,1-.34-2.26,6.56,6.56,0,0,1,.34-2.26,3.19,3.19,0,0,1,1-1.46,2.33,2.33,0,0,1,1.51-.52Zm0,.92a1.53,1.53,0,0,0-1.37.8,4.82,4.82,0,0,0-.51,2.52,4.58,4.58,0,0,0,.51,2.46,1.48,1.48,0,0,0,1.37.8c1.21,0,1.84-1.08,1.84-3.29s-.63-3.29-1.84-3.29Z"/><polygon class="cls-3" points="21.92 14.52 20.55 22.65 19.36 22.65 18.14 15.83 16.9 22.65 15.74 22.65 14.38 14.52 15.28 14.52 16.36 21.67 17.64 14.52 18.63 14.52 19.96 21.67 21.07 14.52 21.92 14.52"/></g></g></svg>