<svg xmlns="http://www.w3.org/2000/svg" viewBox="0 0 39.69 40.08"><defs><style>.cls-1{fill:#71bbd1;fill-rule:evenodd;}.cls-2{fill:none;stroke:#fefefe;stroke-miterlimit:10;stroke-width:2.2px;}</style></defs><g id="Слой_2" data-name="Слой 2"><g id="Слой_1-2" data-name="Слой 1"><path class="cls-1" d="M19.84,0a20,20,0,0,1,0,40.08A20,20,0,0,1,19.84,0Z"/><path class="cls-2" d="M6,22.56l2.16,0A2.43,2.43,0,0,0,10,21.82,2.42,2.42,0,0,0,10.69,20l0-5.69a2.41,2.41,0,0,1,.74-1.86,2.47,2.47,0,0,1,1.84-.75h.51a2.59,2.59,0,0,1,2.52,2.58V25.82a2.55,2.55,0,0,0,2.55,2.58H20a2.57,2.57,0,0,0,2.55-2.58V14.29a2.57,2.57,0,0,1,2.55-2.58h.6a2.55,2.55,0,0,1,2.55,2.55l0,2.83a2.59,2.59,0,0,0,2.58,2.55l2.8,0"/></g></g></svg>