<svg xmlns="http://www.w3.org/2000/svg" viewBox="0 0 39.69 40.08"><defs><style>.cls-1{fill:#fefefe;}.cls-2{fill:#ef7e12;}.cls-2,.cls-4{fill-rule:evenodd;}.cls-3,.cls-4{fill:#141515;}</style></defs><g id="Слой_2" data-name="Слой 2"><g id="Слой_1-2" data-name="Слой 1"><rect class="cls-1" x="2.27" y="3.52" width="35.15" height="33.67"/><path class="cls-2" d="M2.27,12.08H37.42V37.19H2.27ZM15.93,3.52a2.19,2.19,0,0,1,2.16,2.21,2.17,2.17,0,1,1-4.34,0,2.19,2.19,0,0,1,2.18-2.21Zm-5.75,0a2.21,2.21,0,0,1,2.18,2.21,2.17,2.17,0,1,1-2.18-2.21Zm-5.73,0A2.19,2.19,0,0,1,6.6,5.73a2.17,2.17,0,1,1-4.33,0A2.19,2.19,0,0,1,4.45,3.52ZM2,0H37.7a2,2,0,0,1,2,2V38.08a2,2,0,0,1-2,2H2a2,2,0,0,1-2-2V2A2,2,0,0,1,2,0Z"/><path class="cls-3" d="M10.29,14.69v9.16H9V16L6.92,17.32l-.54-.89,2.8-1.74ZM9.69,25.4A2.52,2.52,0,0,1,12,26.6a6.59,6.59,0,0,1,.77,3.52A6.73,6.73,0,0,1,12,33.64a2.52,2.52,0,0,1-2.27,1.2,2.53,2.53,0,0,1-2.29-1.2,6.73,6.73,0,0,1-.77-3.52A6.59,6.59,0,0,1,7.4,26.6a2.53,2.53,0,0,1,2.29-1.2Zm0,1a1.41,1.41,0,0,0-1.33.86,7.15,7.15,0,0,0-.42,2.86A6.89,6.89,0,0,0,8.36,33a1.41,1.41,0,0,0,1.33.89A1.35,1.35,0,0,0,11,33a6.33,6.33,0,0,0,.45-2.83A6.57,6.57,0,0,0,11,27.26a1.35,1.35,0,0,0-1.28-.86Z"/><polygon class="cls-3" points="33.08 30.15 33.08 18.64 31.58 18.64 31.58 30.15 32.34 30.89 33.08 30.15"/><polygon class="cls-3" points="33.08 30.15 33.08 30.89 32.34 30.89 33.08 30.15 33.08 30.15"/><rect class="cls-3" x="24.69" y="29.37" width="7.65" height="1.52"/><polygon class="cls-4" points="15.99 30.15 25.17 34.79 25.17 25.51 15.99 30.15 15.99 30.15"/></g></g></svg>