<svg xmlns="http://www.w3.org/2000/svg" viewBox="0 0 39.69 40.08"><defs><style>.cls-1{fill:#fefefe;}.cls-2{fill:#ef7e12;fill-rule:evenodd;}.cls-3{fill:#141515;}</style></defs><g id="Слой_2" data-name="Слой 2"><g id="Слой_1-2" data-name="Слой 1"><rect class="cls-1" x="2.27" y="3.52" width="35.15" height="33.64"/><path class="cls-2" d="M2.27,12.08H37.42V37.16H2.27ZM15.9,3.52a2.19,2.19,0,1,1-2.18,2.21A2.2,2.2,0,0,1,15.9,3.52Zm-5.72,0A2.19,2.19,0,1,1,8,5.73a2.17,2.17,0,0,1,2.19-2.21Zm-5.76,0a2.19,2.19,0,0,1,0,4.38,2.19,2.19,0,0,1,0-4.38ZM2,0H37.67a2,2,0,0,1,2,2V38.08a2,2,0,0,1-2,2H2a2,2,0,0,1-2-2V2A2,2,0,0,1,2,0Z"/><path class="cls-3" d="M11.34,17.15V31.49h-2V19.24L6.07,21.3l-.85-1.4,4.39-2.75Zm8.28-.2a3.93,3.93,0,0,1,3.54,1.89,10.42,10.42,0,0,1,1.19,5.5,10.6,10.6,0,0,1-1.19,5.52,3.93,3.93,0,0,1-3.54,1.89A4,4,0,0,1,16,29.86a10.6,10.6,0,0,1-1.19-5.52A10.42,10.42,0,0,1,16,18.84,4,4,0,0,1,19.62,17Zm0,1.55a2.17,2.17,0,0,0-2.07,1.37,10.7,10.7,0,0,0-.66,4.47,10.65,10.65,0,0,0,.66,4.46,2.17,2.17,0,0,0,2.07,1.41,2.11,2.11,0,0,0,2-1.41,10.75,10.75,0,0,0,.68-4.46,10.71,10.71,0,0,0-.68-4.44,2.1,2.1,0,0,0-2-1.4ZM32.4,17.15V31.49h-2V19.24L27.13,21.3l-.85-1.4,4.39-2.75Z"/></g></g></svg>