<svg xmlns="http://www.w3.org/2000/svg" viewBox="0 0 39.69 40.08"><defs><style>.cls-1{fill:#dd6854;}.cls-1,.cls-2,.cls-3,.cls-4{fill-rule:evenodd;}.cls-2{fill:#f6f6f6;}.cls-3{fill:#f1bd29;}.cls-4{fill:#ef7e12;}.cls-5{fill:none;stroke:#141515;stroke-miterlimit:10;stroke-width:2.03px;}</style></defs><g id="Слой_2" data-name="Слой 2"><g id="Слой_1-2" data-name="Слой 1"><path class="cls-1" d="M1.62,0H38.1a1.62,1.62,0,0,1,1.59,1.66V38.45a1.62,1.62,0,0,1-1.59,1.63H1.62A1.62,1.62,0,0,1,0,38.45V1.66A1.63,1.63,0,0,1,1.62,0Z"/><path class="cls-2" d="M4.39,3.24H34.58a1.09,1.09,0,0,1,1.05,1.08V24a1.09,1.09,0,0,1-1.05,1.12H4.39a1.09,1.09,0,0,1-1-1.12V4.32a1.1,1.1,0,0,1,1-1.08Z"/><path class="cls-3" d="M7.34,35.93a3.12,3.12,0,0,0,3.12-3.15,3.13,3.13,0,1,0-3.12,3.15Z"/><path class="cls-4" d="M7.34,34.84a2.08,2.08,0,0,0,0-4.15,2.08,2.08,0,0,0,0,4.15Z"/><path class="cls-3" d="M17.06,35.93a3.15,3.15,0,0,0,3.15-3.15,3.13,3.13,0,1,0-6.26,0,3.12,3.12,0,0,0,3.11,3.15Z"/><path class="cls-4" d="M17.06,34.84a2.08,2.08,0,0,0,0-4.15,2.08,2.08,0,0,0,0,4.15Z"/><polyline class="cls-5" points="4.03 19.55 10.29 19.55 10.29 8.85 16.36 8.85 16.36 19.5 22.62 19.5 22.62 8.79 28.69 8.79 28.69 19.44 34.95 19.44"/></g></g></svg>