<svg xmlns="http://www.w3.org/2000/svg" viewBox="0 0 98.94 93.09"><defs><style>.cls-1{fill:#eceff0;stroke-width:3.56px;}.cls-1,.cls-2,.cls-3{stroke:#272c2a;}.cls-1,.cls-3{stroke-miterlimit:10;}.cls-2{fill:none;stroke-linecap:round;stroke-linejoin:round;stroke-width:6.41px;}.cls-3{fill:#272c2a;stroke-width:0.36px;}</style></defs><g id="Слой_2" data-name="Слой 2"><g id="Слой_1-2" data-name="Слой 1"><path class="cls-1" d="M1.79,15.7H97.16a0,0,0,0,1,0,0v72a3.64,3.64,0,0,1-3.64,3.64H5.43a3.64,3.64,0,0,1-3.64-3.64v-72A0,0,0,0,1,1.79,15.7Z"/><line class="cls-2" x1="17.08" y1="28.06" x2="17.08" y2="48.05"/><path class="cls-3" d="M43,28.32q2.3,3.43,2.3,9.7T43,47.78a7.59,7.59,0,0,1-6.75,3.45,7.59,7.59,0,0,1-6.75-3.45q-2.31-3.47-2.3-9.76t2.3-9.7a7.58,7.58,0,0,1,6.75-3.44A7.58,7.58,0,0,1,43,28.32Zm-9.41,2.8A19.88,19.88,0,0,0,32.7,38q0,5,.85,7a2.81,2.81,0,0,0,2.66,2.07A2.78,2.78,0,0,0,38.87,45a21.23,21.23,0,0,0,.81-7,19.77,19.77,0,0,0-.85-6.93,2.72,2.72,0,0,0-5.28,0Z"/><line class="cls-2" x1="56.31" y1="28.07" x2="56.31" y2="48.07"/><path class="cls-3" d="M82.19,28.6q2.3,3.45,2.3,9.71t-2.3,9.75a7.58,7.58,0,0,1-6.75,3.46,7.58,7.58,0,0,1-6.75-3.46q-2.31-3.45-2.3-9.75t2.3-9.71a7.6,7.6,0,0,1,6.75-3.44A7.6,7.6,0,0,1,82.19,28.6Zm-9.41,2.81a19.88,19.88,0,0,0-.85,6.9c0,3.3.28,5.65.85,7a2.8,2.8,0,0,0,2.66,2.06,2.77,2.77,0,0,0,2.66-2.06,21.27,21.27,0,0,0,.81-7,19.87,19.87,0,0,0-.85-6.94,2.72,2.72,0,0,0-5.28,0Z"/><line class="cls-2" x1="81.44" y1="61.06" x2="81.44" y2="81.05"/><path class="cls-3" d="M62.31,57.87a7.6,7.6,0,0,1,6.75,3.44q2.3,3.45,2.3,9.71t-2.3,9.75a7.58,7.58,0,0,1-6.75,3.46,7.6,7.6,0,0,1-6.76-3.46Q53.26,77.32,53.26,71t2.29-9.71A7.63,7.63,0,0,1,62.31,57.87Zm0,4.17a2.8,2.8,0,0,0-2.63,2A20.12,20.12,0,0,0,58.83,71a21,21,0,0,0,.82,7,2.77,2.77,0,0,0,2.66,2.06A2.82,2.82,0,0,0,65,78a20.29,20.29,0,0,0,.85-7,19.88,19.88,0,0,0-.85-6.9A2.83,2.83,0,0,0,62.31,62Z"/><line class="cls-2" x1="42.21" y1="61.07" x2="42.21" y2="81.07"/><path class="cls-3" d="M23.08,57.89a7.6,7.6,0,0,1,6.75,3.44c1.53,2.29,2.3,5.53,2.3,9.7s-.77,7.45-2.3,9.76a7.6,7.6,0,0,1-6.75,3.46,7.6,7.6,0,0,1-6.75-3.46Q14,77.33,14,71c0-4.17.76-7.41,2.3-9.7A7.6,7.6,0,0,1,23.08,57.89Zm0,4.16a2.81,2.81,0,0,0-2.63,2A20,20,0,0,0,19.6,71a21,21,0,0,0,.82,7,2.78,2.78,0,0,0,2.66,2.06,2.82,2.82,0,0,0,2.66-2.06q.86-2.07.85-7a19.88,19.88,0,0,0-.85-6.9A2.83,2.83,0,0,0,23.08,62.05Z"/><path class="cls-1" d="M5.42,1.78H93.52a3.64,3.64,0,0,1,3.64,3.64V15.48a0,0,0,0,1,0,0H1.78a0,0,0,0,1,0,0V5.42A3.64,3.64,0,0,1,5.42,1.78Z"/></g></g></svg>