<svg xmlns="http://www.w3.org/2000/svg" viewBox="0 0 40.2 40.08"><defs><style>.cls-1{fill:#71bbd1;}.cls-1,.cls-2,.cls-3,.cls-4{fill-rule:evenodd;}.cls-2{fill:#5997ab;}.cls-3{fill:#676766;stroke:#4d4d4d;stroke-miterlimit:10;stroke-width:1.03px;}.cls-4{fill:#c3c4c4;}</style></defs><g id="Слой_2" data-name="Слой 2"><g id="Слой_1-2" data-name="Слой 1"><path class="cls-1" d="M5,0H6.32A1.43,1.43,0,0,0,7.74,1.46,1.46,1.46,0,0,0,9.18,0h4.65a1.44,1.44,0,0,0,1.42,1.46A1.47,1.47,0,0,0,16.7,0h1.36a3.91,3.91,0,0,1,3.88,3.92V36.16a3.89,3.89,0,0,1-3.88,3.92H16.7a1.47,1.47,0,0,0-1.45-1.46,1.44,1.44,0,0,0-1.42,1.46H9.18a1.46,1.46,0,0,0-1.44-1.46,1.43,1.43,0,0,0-1.42,1.46H5a3.89,3.89,0,0,1-3.88-3.92V3.92A3.91,3.91,0,0,1,5,0Z"/><path class="cls-2" d="M.91,5h21.2A.9.9,0,0,1,23,6v28.2a.89.89,0,0,1-.91.88H.91A.89.89,0,0,1,0,34.16V6A.9.9,0,0,1,.91,5Z"/><path class="cls-3" d="M13.35,21.73l23.16-3.44a3.22,3.22,0,0,0,0-6.44l-23-3.66-.31-.09a6.83,6.83,0,0,0-1.5-.26h-.34a7.09,7.09,0,0,0,0,14.18h.34a11.71,11.71,0,0,0,1.36-.2l.31-.09Z"/><path class="cls-4" d="M11.51,19.78a4.85,4.85,0,1,0-4.82-4.86,4.83,4.83,0,0,0,4.82,4.86Z"/><path class="cls-4" d="M20.47,15.83a.9.9,0,1,0,0-1.8.9.9,0,1,0,0,1.8Z"/><path class="cls-4" d="M24.12,15.83a.9.9,0,1,0-.9-.91.89.89,0,0,0,.9.91Z"/><path class="cls-4" d="M27.75,15.83a.9.9,0,1,0,0-1.8.9.9,0,1,0,0,1.8Z"/></g></g></svg>