<svg xmlns="http://www.w3.org/2000/svg" viewBox="0 0 39.69 40.08"><defs><style>.cls-1{fill:#71bbd1;}.cls-1,.cls-4,.cls-5{fill-rule:evenodd;}.cls-2{fill:#fefefe;}.cls-3{fill:none;stroke:#fefefe;stroke-width:0.23px;}.cls-3,.cls-6{stroke-miterlimit:10;}.cls-4{fill:#8ca0a9;}.cls-5,.cls-7{fill:#c3c4c4;}.cls-6{fill:#676766;stroke:#4d4d4d;stroke-width:1.03px;}</style></defs><g id="Слой_2" data-name="Слой 2"><g id="Слой_1-2" data-name="Слой 1"><path class="cls-1" d="M19.84,40.08A20,20,0,0,0,19.84,0a20,20,0,0,0,0,40.08Z"/><path class="cls-2" d="M30.53,13.17h.91a17.59,17.59,0,0,0-.66,2.61,14.32,14.32,0,0,0,.66,2.6h-.88a3.84,3.84,0,0,1-.31-.94,1.7,1.7,0,0,1-1.71,1.06A1.89,1.89,0,0,1,27,17.75a3,3,0,0,1-.6-2,3,3,0,0,1,.6-2,1.91,1.91,0,0,1,1.58-.71,1.81,1.81,0,0,1,1,.25,2.23,2.23,0,0,1,.7.75c0-.12.12-.4.26-.89Zm-1.82.6a1.16,1.16,0,0,0-1,.52,2.68,2.68,0,0,0-.37,1.46,2.91,2.91,0,0,0,.34,1.49,1.15,1.15,0,0,0,1,.54,1.21,1.21,0,0,0,1-.54,2.39,2.39,0,0,0,.4-1.52,2.44,2.44,0,0,0-.37-1.46,1.19,1.19,0,0,0-1-.49Z"/><path class="cls-3" d="M30.53,13.17h.91a17.59,17.59,0,0,0-.66,2.61,14.32,14.32,0,0,0,.66,2.6h-.88a3.84,3.84,0,0,1-.31-.94,1.7,1.7,0,0,1-1.71,1.06A1.89,1.89,0,0,1,27,17.75a3,3,0,0,1-.6-2,3,3,0,0,1,.6-2,1.91,1.91,0,0,1,1.58-.71,1.81,1.81,0,0,1,1,.25,2.23,2.23,0,0,1,.7.75c0-.12.12-.4.26-.89Zm-1.82.6a1.16,1.16,0,0,0-1,.52,2.68,2.68,0,0,0-.37,1.46,2.91,2.91,0,0,0,.34,1.49,1.15,1.15,0,0,0,1,.54,1.21,1.21,0,0,0,1-.54,2.39,2.39,0,0,0,.4-1.52,2.44,2.44,0,0,0-.37-1.46,1.19,1.19,0,0,0-1-.49Z"/><path class="cls-2" d="M33.22,10.25a1.34,1.34,0,0,1,1,.37,1.21,1.21,0,0,1,.4,1,1.18,1.18,0,0,1-.4.94,1.34,1.34,0,0,1-1,.37,1.46,1.46,0,0,1-1-.37,1.32,1.32,0,0,1-.4-.94,1.35,1.35,0,0,1,.4-1,1.46,1.46,0,0,1,1-.37Zm0,.63a.58.58,0,0,0-.48.2.72.72,0,0,0-.17.52.8.8,0,0,0,.17.51.76.76,0,0,0,1,0,.75.75,0,0,0,.17-.51.68.68,0,0,0-.17-.52.54.54,0,0,0-.48-.2Z"/><path class="cls-3" d="M33.22,10.25a1.34,1.34,0,0,1,1,.37,1.21,1.21,0,0,1,.4,1,1.18,1.18,0,0,1-.4.94,1.34,1.34,0,0,1-1,.37,1.46,1.46,0,0,1-1-.37,1.32,1.32,0,0,1-.4-.94,1.35,1.35,0,0,1,.4-1,1.46,1.46,0,0,1,1-.37Zm0,.63a.58.58,0,0,0-.48.2.72.72,0,0,0-.17.52.8.8,0,0,0,.17.51.76.76,0,0,0,1,0,.75.75,0,0,0,.17-.51.68.68,0,0,0-.17-.52.54.54,0,0,0-.48-.2Z"/><path class="cls-4" d="M13.15,33l20.3-3a2.82,2.82,0,0,0,0-5.64l-20.18-3.2L13,21.1a5.35,5.35,0,0,0-1.33-.2,1,1,0,0,0-.31,0,6.22,6.22,0,0,0,0,12.43h.31a9.21,9.21,0,0,0,1.19-.17l.28-.09Z"/><path class="cls-5" d="M11.54,31.35a4.25,4.25,0,1,0-4.23-4.27,4.23,4.23,0,0,0,4.23,4.27Z"/><path class="cls-2" d="M28,27.08a.65.65,0,1,1-1.3,0Zm-1.3,0a12.84,12.84,0,0,0-.11-1.77l1.3-.14A13.6,13.6,0,0,1,28,27.08Zm-.11-1.77a17.38,17.38,0,0,0-.29-1.78l1.28-.28a15.07,15.07,0,0,1,.31,1.92Zm-.29-1.78A15.89,15.89,0,0,0,23.81,18l1.05-.78a16.91,16.91,0,0,1,2.75,6ZM23.81,18a15.76,15.76,0,0,0-4.45-4.13L20,12.8a16.39,16.39,0,0,1,4.85,4.46Zm-4.45-4.13a.63.63,0,0,1-.23-.88A.61.61,0,0,1,20,12.8Z"/><path class="cls-6" d="M17.63,27.06,20,6.5A2.84,2.84,0,0,0,18.09,3a2.79,2.79,0,0,0-3.43,2L6.32,23.85a1.34,1.34,0,0,1-.14.26,5.09,5.09,0,0,0-.54,1.23c0,.08-.06.2-.08.28a6.21,6.21,0,0,0,4.33,7.62,6.13,6.13,0,0,0,7.54-4.38,1.2,1.2,0,0,0,.06-.32,6.11,6.11,0,0,0,.14-1.17v-.31Z"/><path class="cls-7" d="M7.46,26a4.21,4.21,0,1,1,3,5.21,4.28,4.28,0,0,1-3-5.21Z"/><path class="cls-7" d="M12.81,19.24a.79.79,0,1,1,1.53.4.79.79,0,1,1-1.53-.4Z"/><path class="cls-7" d="M13.63,16.12a.79.79,0,0,1,1-.57.8.8,0,0,1,.57,1,.79.79,0,0,1-1,.57.8.8,0,0,1-.57-1Z"/><path class="cls-7" d="M14.46,13a.8.8,0,0,1,1-.57.8.8,0,1,1-1,.57Z"/></g></g></svg>