<svg xmlns="http://www.w3.org/2000/svg" viewBox="0 0 39.69 40.08"><defs><style>.cls-1{fill:#71bbd1;}.cls-2{fill:#8ca0a9;}.cls-3{fill:#989898;}.cls-4{fill:#fefefe;}.cls-5{fill:#676766;stroke:#4d4d4d;stroke-width:1.03px;}.cls-5,.cls-7{stroke-miterlimit:10;}.cls-6{fill:#c3c4c4;}.cls-7{fill:none;stroke:#fefefe;}</style></defs><g id="Слой_2" data-name="Слой 2"><g id="Слой_1-2" data-name="Слой 1"><path class="cls-1" d="M19.84,40.08A20,20,0,0,0,19.84,0a20,20,0,0,0,0,40.08Z"/><path class="cls-2" d="M13.15,33l20.3-3a2.82,2.82,0,0,0,0-5.64l-20.18-3.2L13,21.1a7.25,7.25,0,0,0-1.33-.23h-.31a6.22,6.22,0,0,0,0,12.43h.31a9.74,9.74,0,0,0,1.19-.17l.28-.09Z"/><path class="cls-3" d="M11.54,31.35a4.25,4.25,0,1,0-4.23-4.27,4.25,4.25,0,0,0,4.23,4.27Z"/><path class="cls-4" d="M28,27.08a.65.65,0,1,1-1.3,0Zm-1.3,0c0-.6-.06-1.2-.11-1.77l1.3-.17A14.11,14.11,0,0,1,28,27.08Zm-.11-1.77a13.25,13.25,0,0,0-.31-1.78l1.27-.28a13.11,13.11,0,0,1,.34,1.89Zm-.31-1.78A14.82,14.82,0,0,0,23.78,18l1.08-.8a16.59,16.59,0,0,1,2.72,6ZM23.78,18a15,15,0,0,0-4.45-4.13L20,12.8a16.59,16.59,0,0,1,4.85,4.44Zm-4.45-4.13a.65.65,0,0,1-.22-.88.64.64,0,0,1,.9-.23Z"/><path class="cls-5" d="M17.63,27.06,20,6.47a2.81,2.81,0,0,0-2-3.44,2.77,2.77,0,0,0-3.4,2L6.32,23.85a2.32,2.32,0,0,1-.14.23,5.91,5.91,0,0,0-.54,1.26.77.77,0,0,0-.08.28,6.15,6.15,0,1,0,11.87,3.24c0-.12,0-.2.06-.32a6.14,6.14,0,0,0,.14-1.2v-.28Z"/><path class="cls-6" d="M7.46,26a4.17,4.17,0,0,1,5.15-3,4.27,4.27,0,0,1,3,5.21,4.22,4.22,0,0,1-5.16,3,4.28,4.28,0,0,1-3-5.21Z"/><path class="cls-6" d="M12.81,19.21a.79.79,0,0,1,1-.54.78.78,0,0,1,.56,1,.8.8,0,0,1-1,.57.79.79,0,0,1-.54-1Z"/><path class="cls-6" d="M13.63,16.09a.8.8,0,1,1,.57,1,.83.83,0,0,1-.57-1Z"/><path class="cls-6" d="M14.46,13A.79.79,0,1,1,15,14a.8.8,0,0,1-.56-1Z"/><path class="cls-7" d="M24.07,14.43h1a1,1,0,0,0,.79-.34,1.15,1.15,0,0,0,.34-.83l0-2.52a1.09,1.09,0,0,1,.34-.83,1.12,1.12,0,0,1,.82-.35h.22a1.17,1.17,0,0,1,1.14,1.15v5.15A1.15,1.15,0,0,0,29.79,17h.54a1.15,1.15,0,0,0,1.13-1.18V10.74A1.15,1.15,0,0,1,32.6,9.59h.28A1.12,1.12,0,0,1,34,10.71V12a1.17,1.17,0,0,0,1.16,1.14h1.25"/></g></g></svg>