<svg xmlns="http://www.w3.org/2000/svg" viewBox="0 0 39.69 40.08"><defs><style>.cls-1{fill:#fefefe;}.cls-2{fill:#428ab9;fill-rule:evenodd;}.cls-3{fill:#141515;stroke:#141515;stroke-miterlimit:10;stroke-width:0.2px;}</style></defs><g id="Слой_2" data-name="Слой 2"><g id="Слой_1-2" data-name="Слой 1"><rect class="cls-1" x="2.27" y="3.52" width="35.15" height="33.67"/><path class="cls-2" d="M2.27,12.08H37.42V37.19H2.27ZM15.9,3.52a2.21,2.21,0,1,1-2.18,2.21A2.22,2.22,0,0,1,15.9,3.52Zm-5.72,0A2.21,2.21,0,1,1,8,5.73a2.19,2.19,0,0,1,2.19-2.21Zm-5.76,0a2.21,2.21,0,0,1,0,4.41,2.21,2.21,0,0,1,0-4.41ZM2,0H37.67a2,2,0,0,1,2,2V38.08a2,2,0,0,1-2,2H2a2,2,0,0,1-2-2V2A2,2,0,0,1,2,0Z"/><path class="cls-3" d="M9.78,14.57v9.28H8.36V16L6,17.26l-.62-.91,3.17-1.78Zm5.92-.14a3,3,0,0,1,2.58,1.23,6.21,6.21,0,0,1,.85,3.55,6.31,6.31,0,0,1-.85,3.58A3,3,0,0,1,15.7,24a3,3,0,0,1-2.55-1.23,6.4,6.4,0,0,1-.85-3.58,6.29,6.29,0,0,1,.85-3.55,3,3,0,0,1,2.55-1.23Zm0,1a1.59,1.59,0,0,0-1.47.89,6.4,6.4,0,0,0-.48,2.86,6.55,6.55,0,0,0,.48,2.89A1.59,1.59,0,0,0,15.7,23a1.56,1.56,0,0,0,1.48-.89,6.14,6.14,0,0,0,.48-2.89,6.08,6.08,0,0,0-.48-2.86,1.56,1.56,0,0,0-1.48-.89Zm9.22-.89v9.28H23.53V16l-2.41,1.31-.6-.91,3.15-1.78Zm5.95-.14a3,3,0,0,1,2.55,1.23,6,6,0,0,1,.88,3.55,6.07,6.07,0,0,1-.88,3.58,3.26,3.26,0,0,1-5.1,0,6.07,6.07,0,0,1-.88-3.58,6,6,0,0,1,.88-3.55,3,3,0,0,1,2.55-1.23Zm0,1a1.56,1.56,0,0,0-1.47.89,6.24,6.24,0,0,0-.49,2.86,6.38,6.38,0,0,0,.49,2.89,1.56,1.56,0,0,0,1.47.89,1.59,1.59,0,0,0,1.47-.89,6.38,6.38,0,0,0,.49-2.89,6.32,6.32,0,0,0-.49-2.86,1.59,1.59,0,0,0-1.47-.89Z"/><path class="cls-3" d="M9.55,25.08a2.86,2.86,0,0,1,2.55,1.23A6,6,0,0,1,13,29.86a6.07,6.07,0,0,1-.88,3.58,2.92,2.92,0,0,1-2.55,1.23A3,3,0,0,1,7,33.44a6.15,6.15,0,0,1-.88-3.58A6.06,6.06,0,0,1,7,26.31a2.88,2.88,0,0,1,2.55-1.23Zm0,1A1.56,1.56,0,0,0,8.08,27a6.4,6.4,0,0,0-.48,2.86,6.55,6.55,0,0,0,.48,2.89,1.56,1.56,0,0,0,1.47.89A1.6,1.6,0,0,0,11,32.75a6.55,6.55,0,0,0,.48-2.89A6.49,6.49,0,0,0,11,27a1.6,1.6,0,0,0-1.48-.89Zm9.22-.89V34.5H17.35V26.57L15,27.89,14.34,27l3.18-1.78Zm5.95-.14a2.88,2.88,0,0,1,2.55,1.23,6.23,6.23,0,0,1,.85,3.55,6.31,6.31,0,0,1-.85,3.58,3,3,0,0,1-2.55,1.23,3,3,0,0,1-2.58-1.23,6.31,6.31,0,0,1-.85-3.58,6.23,6.23,0,0,1,.85-3.55,2.94,2.94,0,0,1,2.58-1.23Zm0,1a1.55,1.55,0,0,0-1.48.89,6,6,0,0,0-.48,2.86,6.14,6.14,0,0,0,.48,2.89,1.55,1.55,0,0,0,1.48.89,1.52,1.52,0,0,0,1.44-.89,6.08,6.08,0,0,0,.51-2.89A6,6,0,0,0,26.16,27a1.52,1.52,0,0,0-1.44-.89Zm8.81-.89V34.5H32.12V26.57l-2.38,1.32-.6-.89,3.15-1.78Z"/></g></g></svg>