<svg xmlns="http://www.w3.org/2000/svg" viewBox="0 0 40.39 25.04"><defs><style>.cls-1,.cls-6{fill:#ef7e12;}.cls-1{stroke:#f1bd29;}.cls-1,.cls-2,.cls-3{stroke-miterlimit:10;stroke-width:0.77px;fill-rule:evenodd;}.cls-2,.cls-5{fill:#7cb242;}.cls-2{stroke:#9bcb64;}.cls-3,.cls-4{fill:#428ab9;}.cls-3{stroke:#71bbd1;}</style></defs><g id="Слой_2" data-name="Слой 2"><g id="Слой_1-2" data-name="Слой 1"><polygon class="cls-1" points="22.55 12.08 33.64 12.08 36.76 15.2 39.84 18.35 36.76 21.5 33.64 24.65 22.55 24.65 22.55 12.08"/><polygon class="cls-2" points="11.47 12.08 22.55 12.08 25.64 15.2 28.73 18.35 25.64 21.5 22.55 24.65 11.47 24.65 11.47 12.08"/><polygon class="cls-3" points="0.39 12.08 11.47 12.08 14.56 15.2 17.65 18.35 14.56 21.5 11.47 24.65 0.39 24.65 0.39 12.08"/><polygon class="cls-4" points="7.28 0 7.28 9.3 5.52 9.3 5.52 2.12 3.87 3.35 3.08 1.92 5.69 0 7.28 0"/><path class="cls-5" d="M17.51,0a2.37,2.37,0,0,1,2.15,1.26,7,7,0,0,1,.74,3.61,7,7,0,0,1-.74,3.6,2.32,2.32,0,0,1-2.15,1.26,2.35,2.35,0,0,1-2.16-1.26,7.28,7.28,0,0,1-.73-3.6,7.3,7.3,0,0,1,.73-3.61A2.41,2.41,0,0,1,17.51,0Zm0,1.6a.8.8,0,0,0-.63.32,2.35,2.35,0,0,0-.31,1,12.65,12.65,0,0,0-.11,2,12.17,12.17,0,0,0,.11,1.94,2.26,2.26,0,0,0,.31,1,.71.71,0,0,0,.63.31.74.74,0,0,0,.62-.29,2.61,2.61,0,0,0,.34-1,16.79,16.79,0,0,0,.09-2,17.1,17.1,0,0,0-.09-2,2.26,2.26,0,0,0-.34-1,.8.8,0,0,0-.62-.32Z"/><polygon class="cls-6" points="30.49 0 30.49 9.3 28.73 9.3 28.73 2.12 27.09 3.35 26.3 1.92 28.9 0 30.49 0"/></g></g></svg>