<?xml version="1.0" encoding="UTF-8"?>
<svg id="_Слой_2" data-name="Слой 2" xmlns="http://www.w3.org/2000/svg" viewBox="0 0 39.35 17.42">
  <defs>
    <style>
      .cls-1 {
        fill: #c7dff2;
      }

      .cls-1, .cls-2, .cls-3, .cls-4 {
        fill-rule: evenodd;
      }

      .cls-5 {
        fill: #fefefe;
        stroke: #fefefe;
        stroke-miterlimit: 10;
        stroke-width: .57px;
      }

      .cls-2 {
        fill: #eaf1f7;
      }

      .cls-3 {
        fill: #dc574d;
      }

      .cls-4 {
        fill: #e57069;
      }
    </style>
  </defs>
  <g id="_Слой_1-2" data-name="Слой 1">
    <g>
      <path class="cls-4" d="m5.49,13.47c-.57-.31-1.22-1.15-1.56-1.78-1.45-2.61-.88-5.64.94-7.5,2.3-2.38,6.26-2.55,8.79.06l.4.52c.79.72,1.39,2.66,1.3,4.21-.14,2.29-1.5,4.15-3.34,5.1-2.15,1.15-4.99.8-6.52-.6h0Zm-2.64,1.78c.65,1.03,3.23,1.89,4.73,2.12.82.11,20.01.03,20.58.03,2.55,0,4.31.11,6.04-.77,3.34-1.66,5.33-4.61,5.13-8.76-.06-.94-.4-2.06-.71-2.78-.28-.66-.82-1.72-1.36-2.18-.31-.14-.62-.43-1.02-.63-1.13-.66-2.52-1.09-3.91-1.15-2.18-.09-4.54,0-6.72,0h-13.38c-2.18,0-4.14-.09-5.95.77C1.97,4.02.08,8.83,1.72,13.04c.54,1.43.65,1.23,1.13,2.2h0Z"/>
      <path class="cls-2" d="m5.49,13.47c1.53,1.4,4.37,1.75,6.52.6,1.84-.94,3.2-2.81,3.34-5.1.09-1.55-.51-3.49-1.3-4.21-.6-.2-1.08-.6-1.9-.8-4.42-1.26-8.79,2.95-7.46,7.7.23.8.54,1.17.79,1.8h0Z"/>
      <path class="cls-3" d="m3.11,15.56c-.48-.94-.6-.77-1.13-2.2C.33,9.15,2.23,4.34,6.54,2.22c1.81-.86,3.77-.77,5.95-.77h13.38c2.18,0,4.54-.09,6.72,0,1.39.06,2.78.49,3.91,1.15.4.2.71.49,1.05.63-.14-.43-1.47-1.46-1.9-1.75C32.73-.47,29.7.07,25.96.07,24.2.07,8.47-.02,7.59.13c-2.92.49-5.1,1.98-6.55,4.55-.45.83-.74,1.86-.91,2.81-.48,2.83.4,5.1,2.01,7.16.23.31.68.77.96.92h0Z"/>
      <path class="cls-1" d="m5.49,13.47c-.26-.63-.57-1-.79-1.8-1.33-4.75,3.03-8.96,7.46-7.7.82.2,1.3.6,1.9.8l-.4-.52c-2.52-2.61-6.49-2.43-8.79-.06-1.81,1.86-2.38,4.9-.94,7.5.34.63.99,1.46,1.56,1.78h0Z"/>
      <path class="cls-5" d="m23.57,8.95c0,.83-.17,1.49-.48,1.98-.34.52-.82.74-1.45.74s-1.11-.23-1.45-.72c-.31-.49-.48-1.15-.48-2,0-.54.09-1,.23-1.43.14-.43.37-.74.65-.97.28-.23.65-.34,1.05-.34.62,0,1.11.26,1.45.74.31.49.48,1.17.48,2h0Zm-.68,0c0-.74-.11-1.29-.31-1.63-.2-.37-.51-.54-.94-.54s-.74.17-.94.54-.31.92-.31,1.63.11,1.26.31,1.63c.2.34.51.54.94.54s.74-.2.94-.54c.2-.37.31-.92.31-1.63h0Zm2.75-.26h2.07v.54h-2.07v2.35h-.65v-5.3h3.09l-.06.54h-2.38v1.86Zm4.59,0h2.07v.54h-2.07v2.35h-.65v-5.3h3.09l-.09.54h-2.35v1.86Z"/>
    </g>
  </g>
</svg>