<?xml version="1.0" encoding="UTF-8"?>
<svg id="_Слой_2" data-name="Слой 2" xmlns="http://www.w3.org/2000/svg" viewBox="0 0 39.69 40.08">
  <defs>
    <style>
      .cls-1 {
        fill: #fff;
      }

      .cls-2 {
        fill: #72c1ea;
      }
    </style>
  </defs>
  <g id="_Слой_1-2" data-name="Слой 1">
    <g>
      <path class="cls-2" d="m19.36,0h1.02c10.66.34,19.02,8.9,19.3,19.64v.72c-.23,10.82-8.73,19.44-19.45,19.73h-.91C8.7,39.71.31,31.21,0,20.47v-.86C.31,8.88,8.65.31,19.36,0h0Zm5.1,23.76c.03.92.03,1.83.03,2.75-.03.63.03,1.09.09,1.4.82,3.49,5.87,3.52,6.72.03.09-.31.11-.77.11-1.37v-13.11c0-.63-.03-1.09-.11-1.37-.88-3.46-5.92-3.41-6.72.09-.06.34-.11.83-.11,1.52.03.89.03,1.75,0,2.63h0v.03h-.03c-3.32-2.03-6.66-4.07-9.98-6.1-.48-.29-.85-.46-1.13-.54-1.05-.34-2.38-.23-3.29.49-.96.74-1.76,1.92-1.76,3.15v12.74c0,.72.03,1.23.11,1.55.43,1.83,2.15,3.06,4.03,2.89.68-.06,1.25-.23,1.7-.49,3.43-2.12,6.89-4.21,10.32-6.3h0s.03,0,.03.03h0Z"/>
      <path class="cls-1" d="m24.46,23.76h0s0-.03-.03-.03h0c-3.43,2.09-6.89,4.18-10.32,6.3-.45.26-1.02.43-1.7.49-1.87.17-3.6-1.06-4.03-2.89-.09-.31-.11-.83-.11-1.55v-12.74c0-1.23.79-2.4,1.76-3.15.91-.72,2.24-.83,3.29-.49.28.09.65.26,1.13.54,3.32,2.03,6.66,4.07,9.98,6.1h.03v-.03h0c.03-.89.03-1.75,0-2.63,0-.69.06-1.17.11-1.52.79-3.49,5.84-3.55,6.72-.09.09.29.11.74.11,1.37v13.11c0,.6-.03,1.06-.11,1.37-.85,3.49-5.9,3.46-6.72-.03-.06-.31-.11-.77-.09-1.4,0-.92,0-1.83-.03-2.75h0Zm-.99-5.35c-3.46-2.09-6.94-4.21-10.4-6.3-.54-.31-1.25-.4-1.76,0-.68.49-.74,1.09-.74,1.95v12c0,.52.06.89.11,1.09.26.63.91,1.23,1.62,1.15.2-.03.45-.14.79-.37,5.5-3.32,9.1-5.5,10.74-6.5.31-.17.26-.43.37-.69.48-1,.11-1.78-.74-2.32h0Zm5.64-5.41c0-.63-.51-1.15-1.13-1.15h-.06c-.62,0-1.13.52-1.13,1.15v14.06c0,.63.51,1.15,1.13,1.15h.06c.62,0,1.13-.52,1.13-1.15v-14.06Z"/>
      <path class="cls-2" d="m13.07,12.11c3.46,2.09,6.94,4.21,10.4,6.3.15.1.3.21.45.33.81.67.84,1.93.03,2.59-.04.04-.08.06-.11.08-1.64,1-5.24,3.18-10.74,6.5-.34.23-.6.34-.79.37-.71.09-1.36-.52-1.62-1.15-.06-.2-.11-.57-.11-1.09v-12c0-.86.06-1.46.74-1.95.51-.4,1.22-.31,1.76,0h0Z"/>
      <path class="cls-2" d="m27.92,11.85h.06c.62,0,1.13.52,1.13,1.15v14.06c0,.63-.51,1.15-1.13,1.15h-.06c-.62,0-1.13-.52-1.13-1.15v-14.06c0-.63.51-1.15,1.13-1.15h0Z"/>
    </g>
  </g>
</svg>