<svg xmlns="http://www.w3.org/2000/svg" viewBox="0 0 39.69 41.4"><defs><style>.cls-1{fill:#edf1f1;}.cls-1,.cls-2,.cls-3,.cls-4,.cls-5{fill-rule:evenodd;}.cls-2{fill:#add7e4;}.cls-3{fill:#72bcd4;}.cls-4{fill:#1c6aa4;}.cls-5{fill:#40494c;}</style></defs><g id="Слой_2" data-name="Слой 2"><g id="Слой_1-2" data-name="Слой 1"><path class="cls-1" d="M33.08,24.08c.57-7.19-6.32-14-13.24-13.37a13.21,13.21,0,0,0-12.07,7.9C2.89,29.6,14,41.31,25.34,36.25a13.4,13.4,0,0,0,7.74-12.17Z"/><path class="cls-2" d="M19.84,10.71a13.08,13.08,0,0,1,8.93,3.49,2.11,2.11,0,0,1,.43.46,13.41,13.41,0,0,1-3.86,21.59C14,41.31,2.89,29.6,7.77,18.61a13.21,13.21,0,0,1,12.07-7.9Zm-3.91-3.5a16.45,16.45,0,0,0-3.34,1.15c-.51.26-1,.49-1.45.77s-.93.66-1.39.89a4.07,4.07,0,0,1-.59.52L7.29,12.28a4.39,4.39,0,0,0-.51.63c-.63.63-1.34,1.89-1.56,2.09s-.43.75-.57,1A17.45,17.45,0,0,0,5.93,34.21a1.57,1.57,0,0,0,.39.49c.88.52,1.51,1.69,4.74,3.21a16.92,16.92,0,0,0,6.46,1.57,16.93,16.93,0,0,0,12-4,21.12,21.12,0,0,0,1.75-1.58,15.82,15.82,0,0,0,2.12-2.89,18.36,18.36,0,0,0,2-6.13,17.27,17.27,0,0,0-2.9-12.77c-.2-.28-.23-1.42-1.06-1.44-.29,0,.12-.68-.6-.51A1.06,1.06,0,0,1,30,10L28.52,9.1c-.51-.28-1-.54-1.5-.8a18.88,18.88,0,0,0-3-1.06,4.33,4.33,0,0,0-.51-.08,18.36,18.36,0,0,0-7.6,0Z"/><path class="cls-3" d="M37,12.37c-.45-.43-4.69-4.1-5.06-4.27a10.82,10.82,0,0,1-.94,1,3.43,3.43,0,0,1-.51.45c-.22.18-.34.32-.54.49a2.74,2.74,0,0,0,.6.52c.23.2.34.31.57.48a7.6,7.6,0,0,1,1,1,17.55,17.55,0,0,1,3,12.86A17.73,17.73,0,0,1,33,30.86a15.76,15.76,0,0,1-2.13,2.92,15.09,15.09,0,0,1-1.5,1.49,16.93,16.93,0,0,1-18.34,2.64C7.83,36.39,7.2,35.22,6.32,34.7h0a2,2,0,0,0,.4.57l2.07,2.09c.23.17.37.32.59.46a16.47,16.47,0,0,0,7.09,3.26,15.15,15.15,0,0,0,2.3.32h2.29a17.81,17.81,0,0,0,9.75-3.95c.23-.2.34-.32.54-.52a5.76,5.76,0,0,0,1.08-1c.34-.46.77-.86,1.39-1.74a17.39,17.39,0,0,0,3-13.09A18.47,18.47,0,0,0,34.5,15a14.66,14.66,0,0,0,1.08-1c.36-.4,1.22-1.06,1.43-1.57m-33.95.57c.74.66,1.42,1.35,2.16,2.06.22-.2.93-1.46,1.56-2.09a4.39,4.39,0,0,1,.51-.63l1.87-1.74A4.07,4.07,0,0,0,9.75,10a6.77,6.77,0,0,1-.54-.43c-.17-.14-.28-.29-.45-.46a7.9,7.9,0,0,1-1-1,21.89,21.89,0,0,0-2.41,2.41,29.63,29.63,0,0,0-2.3,2.43ZM15.93,7.21a18.36,18.36,0,0,1,7.6,0V3.46h-7.6Z"/><path class="cls-4" d="M32,8.1c.37.17,3.09,3.15,3.54,3.58h0a11.8,11.8,0,0,1,1.14,1.26c1.36,1.38,1,1,1.92.29,1.79-1.41,1.08-1.61.48-2.21-.22-.23-.39-.43-.62-.66s-.4-.45-.65-.71l-3.91-4c-.74-.77-.77-.83-1.53-.06A6.2,6.2,0,0,0,31.07,7c.11.54.59.71.88,1.14Zm-16-4.64h7.6a6.75,6.75,0,0,0,1.7,0,13.17,13.17,0,0,0,0-3.32C25.06.06,24.63,0,24,0H14.4l-.23.26v3l.26.22ZM3.06,12.94a29.63,29.63,0,0,1,2.3-2.43A21.89,21.89,0,0,1,7.77,8.1c.45-.71,1.33-.83.51-1.66C6.38,4.61,7,4.55,5.19,6.3c-.28.28-.4.49-.68.77L.23,11.45c-.37.4-.26.63.08,1l1.53,1.43c.57,0,.91-.55,1.22-.89Z"/><path class="cls-5" d="M19.76,25.8l5.41,5.44a.27.27,0,0,0,.43,0L26.79,30a.27.27,0,0,0,0-.43l-5.25-5.32a1.76,1.76,0,0,0-.76-1.66V15.09a.3.3,0,0,0-.31-.29H19a.3.3,0,0,0-.31.29v7.73a1.71,1.71,0,0,0,1.05,3Z"/></g></g></svg>