<?xml version="1.0" encoding="UTF-8"?>
<svg id="_Слой_2" data-name="Слой 2" xmlns="http://www.w3.org/2000/svg" viewBox="0 0 25.77 37.87">
  <defs>
    <style>
      .cls-1, .cls-2, .cls-3 {
        fill: #fff;
      }

      .cls-2 {
        stroke-width: 1.34px;
      }

      .cls-2, .cls-3 {
        stroke: #fff;
        stroke-linecap: round;
        stroke-linejoin: round;
      }

      .cls-3 {
        stroke-width: 2.06px;
      }

      .cls-4 {
        fill: #f2c61e;
      }
    </style>
  </defs>
  <g id="arrayPeek">
    <path class="cls-4" d="m18.35,11.1c-.08,1.88-.08.63,0,2.51.08,4.16.47,4.16,3.19,4.16.86,0,4.02-.33,4.22,1.27.03.26-.04.51-.17.74-.61,1.04-2.98,4.83-5.84,9.15q-5.99,8.95-6.84,8.95t-6.84-8.95C3.26,24.66.85,20.92.19,19.82c-.17-.28-.24-.62-.15-.93.42-1.42,3.34-1.11,4.17-1.11,2.64,0,3.11,0,3.26-4.16,0-2.04.08-1.02.16-2.98V0h10.78l-.05,11.1Z"/>
    <g>
      <circle class="cls-1" cx="14.28" cy="11.55" r="1.61"/>
      <g>
        <path class="cls-3" d="m13.72,15.08s-2.02,11.4-1.27,12.5"/>
        <line class="cls-2" x1="9.77" y1="16.36" x2="13.67" y2="14.72"/>
        <path class="cls-2" d="m16.11,25.11s-1.03,2.4-3.45,2.82"/>
      </g>
    </g>
  </g>
</svg>