<?xml version="1.0" encoding="UTF-8"?>
<svg id="_Слой_2" data-name="Слой 2" xmlns="http://www.w3.org/2000/svg" viewBox="0 0 55.66 37.87">
  <defs>
    <style>
      .cls-1, .cls-2, .cls-3 {
        fill: #fff;
      }

      .cls-2 {
        stroke-width: 2.74px;
      }

      .cls-2, .cls-3 {
        stroke: #fff;
        stroke-linecap: round;
        stroke-linejoin: round;
      }

      .cls-3 {
        stroke-width: 1.78px;
      }

      .cls-4 {
        fill: #f2c61e;
      }
    </style>
  </defs>
  <g id="arrayNext">
    <g>
      <path class="cls-4" d="m16.31,10.89c2.77.11.92.11,3.69,0,6.12-.11,6.12-.69,6.12-4.68,0-1.26-.49-5.91,1.86-6.2.38-.05.75.06,1.08.25,1.53.89,7.09,4.39,13.44,8.58q13.15,8.8,13.15,10.05t-13.15,10.05c-6.27,4.14-11.76,7.68-13.38,8.65-.41.25-.91.35-1.37.21-2.09-.62-1.63-4.9-1.63-6.12,0-3.88,0-4.57-6.12-4.8-3,0-1.5-.11-4.38-.23H0v-15.84l16.31.08Z"/>
      <g>
        <circle class="cls-1" cx="33.89" cy="9.23" r="2.14"/>
        <g>
          <path class="cls-2" d="m33.15,13.91s-2.68,15.13-1.69,16.6"/>
          <line class="cls-3" x1="27.91" y1="15.6" x2="33.08" y2="13.43"/>
          <path class="cls-3" d="m36.33,27.22s-1.37,3.19-4.58,3.75"/>
        </g>
      </g>
    </g>
  </g>
</svg>