<?xml version="1.0" encoding="UTF-8"?>
<svg id="_Слой_2" data-name="Слой 2" xmlns="http://www.w3.org/2000/svg" viewBox="0 0 37.41 37.79">
  <defs>
    <style>
      .cls-1 {
        fill: #fff;
        stroke: #72c0e9;
        stroke-miterlimit: 10;
        stroke-width: .5px;
      }

      .cls-2 {
        fill: #72c0e9;
      }
    </style>
  </defs>
  <g id="_128" data-name="128">
    <path class="cls-2" d="m18.52,0h.94c9.75.49,17.48,8.18,17.96,18.08v1.57c-.48,9.88-8.18,17.73-18.01,18.14h-.94C8.23,37.57.19,29.39,0,19.08v-.4c.11-4.83,1.76-8.99,4.92-12.52C8.36,2.29,13.31.08,18.52,0h0Z"/>
    <path class="cls-1" d="m23.61,18.97l3.96-3.96c.59-.61.99-1.07,1.21-1.38,2.31-3.59-1.49-7.1-4.92-4.63-.25.17-.45.32-.58.47l-4.59,4.59c-1.32-1.32-2.62-2.63-3.94-3.95-.61-.59-1.07-.99-1.38-1.21-3.59-2.31-7.09,1.49-4.63,4.92.18.25.33.45.47.58l4.57,4.57c-1.44,1.44-2.88,2.89-4.32,4.32-1.87,1.88-1.86,4.47-.07,5.73,1.42,1.03,3.5.67,4.97-.8,1.45-1.44,2.9-2.9,4.34-4.34l4.34,4.34c1.87,1.87,4.47,1.86,5.72.07,1.04-1.42.68-3.5-.79-4.97s-2.91-2.91-4.36-4.35Zm2.88,7.76l-.02.02c-.45.44-1.25.39-1.78-.14l-4.36-4.36-1.65-1.65-1.62,1.62-4.34,4.35c-.53.52-1.32.59-1.76.15l-.02-.02c-.44-.44-.39-1.25.14-1.77l4.34-4.35,1.62-1.62-1.62-1.62-4.44-4.44c-.55-.55-.61-1.37-.17-1.82h.02c.45-.46,1.24-.38,1.79.17l4.44,4.44,1.62,1.62,1.65-1.64,4.46-4.47c.55-.55,1.37-.59,1.8-.16l.02.02c.45.45.37,1.23-.18,1.78l-4.46,4.47-1.65,1.64,1.65,1.65,4.36,4.36c.53.53.59,1.32.16,1.76Z"/>
  </g>
</svg>