<?xml version="1.0" encoding="utf-8"?>
<!DOCTYPE svg PUBLIC "-//W3C//DTD SVG 1.0//EN" "http://www.w3.org/TR/2001/REC-SVG-20010904/DTD/svg10.dtd">
<svg version="1.0" xmlns="http://www.w3.org/2000/svg" width="512px" height="512px" viewBox="0 0 512 512" preserveAspectRatio="xMidYMid meet">
 <g fill="#00884f">
  <path d="M271 458.5 c0 -1.2 -1.7 -1.5 -9 -1.5 l-9 0 0 -62 0 -62 39.8 -0.2 39.7 -0.3 0 -76.5 0 -76.5 -39.7 -0.3 -39.8 -0.2 0 -62 0 -62 9 0 c7.3 0 9 -0.3 9 -1.5 0 -1.3 2.3 -1.5 15 -1.5 12.7 0 15 0.2 15 1.5 0 1.3 2.4 1.5 15.5 1.5 13.1 0 15.5 -0.2 15.5 -1.5 0 -1.3 2.3 -1.5 14.5 -1.5 12.2 0 14.5 0.2 14.5 1.5 0 1.3 2.4 1.5 15.5 1.5 13.1 0 15.5 -0.2 15.5 -1.5 0 -1.3 2.3 -1.5 14.5 -1.5 12.2 0 14.5 0.2 14.5 1.5 0 1.3 2.7 1.5 18 1.5 l18 0 0 18 c0 15.3 0.2 18 1.5 18 1.3 0 1.5 2.3 1.5 14.5 0 12.2 -0.2 14.5 -1.5 14.5 -1.3 0 -1.5 2.4 -1.5 15.5 0 13.1 0.2 15.5 1.5 15.5 1.3 0 1.5 2.3 1.5 14.5 0 12.2 -0.2 14.5 -1.5 14.5 -1.3 0 -1.5 2.4 -1.5 15.5 0 13.1 0.2 15.5 1.5 15.5 1.3 0 1.5 2.3 1.5 15 0 12.7 -0.2 15 -1.5 15 -1.3 0 -1.5 2.3 -1.5 15 0 12.7 0.2 15 1.5 15 1.3 0 1.5 2.3 1.5 15 0 12.7 -0.2 15 -1.5 15 -1.3 0 -1.5 2.4 -1.5 15.5 0 13.1 0.2 15.5 1.5 15.5 1.3 0 1.5 2.3 1.5 14.5 0 12.2 -0.2 14.5 -1.5 14.5 -1.3 0 -1.5 2.4 -1.5 15.5 0 13.1 0.2 15.5 1.5 15.5 1.3 0 1.5 2.3 1.5 14.5 0 12.2 -0.2 14.5 -1.5 14.5 -1.3 0 -1.5 2.7 -1.5 18 l0 18 -18 0 c-15.3 0 -18 0.2 -18 1.5 0 1.3 -2.3 1.5 -14.5 1.5 -12.2 0 -14.5 -0.2 -14.5 -1.5 0 -1.3 -2.4 -1.5 -15.5 -1.5 -13.1 0 -15.5 0.2 -15.5 1.5 0 1.3 -2.3 1.5 -14.5 1.5 -12.2 0 -14.5 -0.2 -14.5 -1.5 0 -1.3 -2.4 -1.5 -15.5 -1.5 -13.1 0 -15.5 0.2 -15.5 1.5 0 1.3 -2.3 1.5 -15 1.5 -12.7 0 -15 -0.2 -15 -1.5z"/>
 </g>
 <g fill="#00cc76">
  <path d="M91 458.5 c0 -1.3 -2.7 -1.5 -18 -1.5 l-18 0 0 -18 c0 -15.3 -0.2 -18 -1.5 -18 -1.3 0 -1.5 -2.3 -1.5 -14.5 0 -12.2 0.2 -14.5 1.5 -14.5 1.3 0 1.5 -2.4 1.5 -15.5 0 -13.1 -0.2 -15.5 -1.5 -15.5 -1.3 0 -1.5 -2.3 -1.5 -14.5 0 -12.2 0.2 -14.5 1.5 -14.5 1.3 0 1.5 -2.4 1.5 -15.5 0 -13.1 -0.2 -15.5 -1.5 -15.5 -1.3 0 -1.5 -2.3 -1.5 -15 0 -12.7 0.2 -15 1.5 -15 1.3 0 1.5 -2.3 1.5 -15 0 -12.7 -0.2 -15 -1.5 -15 -1.3 0 -1.5 -2.3 -1.5 -15 0 -12.7 0.2 -15 1.5 -15 1.3 0 1.5 -2.4 1.5 -15.5 0 -13.1 -0.2 -15.5 -1.5 -15.5 -1.3 0 -1.5 -2.3 -1.5 -14.5 0 -12.2 0.2 -14.5 1.5 -14.5 1.3 0 1.5 -2.4 1.5 -15.5 0 -13.1 -0.2 -15.5 -1.5 -15.5 -1.3 0 -1.5 -2.3 -1.5 -14.5 0 -12.2 0.2 -14.5 1.5 -14.5 1.3 0 1.5 -2.7 1.5 -18 l0 -18 18 0 c15.3 0 18 -0.2 18 -1.5 0 -1.3 2.3 -1.5 14.5 -1.5 12.2 0 14.5 0.2 14.5 1.5 0 1.3 2.4 1.5 15.5 1.5 13.1 0 15.5 -0.2 15.5 -1.5 0 -1.3 2.3 -1.5 14.5 -1.5 12.2 0 14.5 0.2 14.5 1.5 0 1.3 2.4 1.5 15.5 1.5 13.1 0 15.5 -0.2 15.5 -1.5 0 -1.3 2.3 -1.5 15 -1.5 12.7 0 15 0.2 15 1.5 0 1.2 1.5 1.5 7.5 1.5 l7.5 0 0 60.5 c0 53.1 0.2 60.5 1.5 60.5 0.8 0 1.5 0.7 1.5 1.5 0 1.3 -5 1.5 -39 1.5 -37.5 0 -39 0.1 -40 1.9 -1.4 2.7 -1.4 147.5 0 150.2 1 1.8 2.5 1.9 40 1.9 34 0 39 0.2 39 1.5 0 0.8 -0.7 1.5 -1.5 1.5 -1.3 0 -1.5 7.4 -1.5 60.5 l0 60.5 -7.5 0 c-6 0 -7.5 0.3 -7.5 1.5 0 1.3 -2.3 1.5 -15 1.5 -12.7 0 -15 -0.2 -15 -1.5 0 -1.3 -2.4 -1.5 -15.5 -1.5 -13.1 0 -15.5 0.2 -15.5 1.5 0 1.3 -2.3 1.5 -14.5 1.5 -12.2 0 -14.5 -0.2 -14.5 -1.5 0 -1.3 -2.4 -1.5 -15.5 -1.5 -13.1 0 -15.5 0.2 -15.5 1.5 0 1.3 -2.3 1.5 -14.5 1.5 -12.2 0 -14.5 -0.2 -14.5 -1.5z"/>
 </g>
 <g fill="#ff9f22">
  <path d="M271 484.5 l0 -27.5 15 0 15 0 0 27.5 0 27.5 -15 0 -15 0 0 -27.5z"/>
  <path d="M332 484.5 l0 -27.5 14.5 0 14.5 0 0 27.5 0 27.5 -14.5 0 -14.5 0 0 -27.5z"/>
  <path d="M392 484.5 l0 -27.5 14.5 0 14.5 0 0 27.5 0 27.5 -14.5 0 -14.5 0 0 -27.5z"/>
  <path d="M457 406.5 l0 -14.5 27.5 0 27.5 0 0 14.5 0 14.5 -27.5 0 -27.5 0 0 -14.5z"/>
  <path d="M457 346.5 l0 -14.5 27.5 0 27.5 0 0 14.5 0 14.5 -27.5 0 -27.5 0 0 -14.5z"/>
  <path d="M457 286 l0 -15 27.5 0 27.5 0 0 15 0 15 -27.5 0 -27.5 0 0 -15z"/>
  <path d="M457 226 l0 -15 27.5 0 27.5 0 0 15 0 15 -27.5 0 -27.5 0 0 -15z"/>
  <path d="M457 165.5 l0 -14.5 27.5 0 27.5 0 0 14.5 0 14.5 -27.5 0 -27.5 0 0 -14.5z"/>
  <path d="M457 105.5 l0 -14.5 27.5 0 27.5 0 0 14.5 0 14.5 -27.5 0 -27.5 0 0 -14.5z"/>
  <path d="M271 27.5 l0 -27.5 15 0 15 0 0 27.5 0 27.5 -15 0 -15 0 0 -27.5z"/>
  <path d="M332 27.5 l0 -27.5 14.5 0 14.5 0 0 27.5 0 27.5 -14.5 0 -14.5 0 0 -27.5z"/>
  <path d="M392 27.5 l0 -27.5 14.5 0 14.5 0 0 27.5 0 27.5 -14.5 0 -14.5 0 0 -27.5z"/>
 </g>
 <g fill="#ffd422">
  <path d="M91 484.5 l0 -27.5 14.5 0 14.5 0 0 27.5 0 27.5 -14.5 0 -14.5 0 0 -27.5z"/>
  <path d="M151 484.5 l0 -27.5 14.5 0 14.5 0 0 27.5 0 27.5 -14.5 0 -14.5 0 0 -27.5z"/>
  <path d="M211 484.5 l0 -27.5 15 0 15 0 0 27.5 0 27.5 -15 0 -15 0 0 -27.5z"/>
  <path d="M0 406.5 l0 -14.5 27.5 0 27.5 0 0 14.5 0 14.5 -27.5 0 -27.5 0 0 -14.5z"/>
  <path d="M0 346.5 l0 -14.5 27.5 0 27.5 0 0 14.5 0 14.5 -27.5 0 -27.5 0 0 -14.5z"/>
  <path d="M0 286 l0 -15 27.5 0 27.5 0 0 15 0 15 -27.5 0 -27.5 0 0 -15z"/>
  <path d="M0 226 l0 -15 27.5 0 27.5 0 0 15 0 15 -27.5 0 -27.5 0 0 -15z"/>
  <path d="M0 165.5 l0 -14.5 27.5 0 27.5 0 0 14.5 0 14.5 -27.5 0 -27.5 0 0 -14.5z"/>
  <path d="M0 105.5 l0 -14.5 27.5 0 27.5 0 0 14.5 0 14.5 -27.5 0 -27.5 0 0 -14.5z"/>
  <path d="M91 27.5 l0 -27.5 14.5 0 14.5 0 0 27.5 0 27.5 -14.5 0 -14.5 0 0 -27.5z"/>
  <path d="M151 27.5 l0 -27.5 14.5 0 14.5 0 0 27.5 0 27.5 -14.5 0 -14.5 0 0 -27.5z"/>
  <path d="M211 27.5 l0 -27.5 15 0 15 0 0 27.5 0 27.5 -15 0 -15 0 0 -27.5z"/>
 </g>
 <g fill="#b4d2d7">
  <path d="M248 334 c0 -1.3 0.7 -2 2 -2 2 0 2 -0.7 2 -76 0 -75.3 0 -76 -2 -76 -1.3 0 -2 -0.7 -2 -2 0 -2 0.5 -2 43.8 -1.8 l43.7 0.3 0 79.5 0 79.5 -43.7 0.3 c-43.3 0.2 -43.8 0.2 -43.8 -1.8z"/>
 </g>
 <g fill="#e1ebf0">
  <path d="M177.1 334.1 c-1.7 -3.1 -1.5 -154.2 0.2 -156.5 1.1 -1.6 4.1 -1.7 39.2 -1.4 l38 0.3 0.5 79.6 0.5 79.7 -38.7 0.1 c-37.6 0.2 -38.7 0.1 -39.7 -1.8z"/>
 </g>
</svg>