<?xml version="1.0" encoding="UTF-8" standalone="no"?>
<!DOCTYPE svg PUBLIC "-//W3C//DTD SVG 1.1//EN" "http://www.w3.org/Graphics/SVG/1.1/DTD/svg11.dtd">
<svg xmlns="http://www.w3.org/2000/svg" version="1.1" viewBox="0.00 0.00 512.00 512.00">
<g stroke-width="2.00" fill="none" stroke-linecap="butt">
<path stroke="#fd8a6d" vector-effect="non-scaling-stroke" d="
  M 318.00 141.21
  Q 317.55 162.35 317.77 183.51
  C 317.86 191.85 313.73 194.25 305.66 194.25
  Q 281.99 194.25 258.31 194.24
  C 249.78 194.24 247.13 190.65 247.23 182.11
  Q 247.45 161.65 247.00 141.21"
/>
<path stroke="#f0a04e" vector-effect="non-scaling-stroke" d="
  M 140.90 141.26
  L 140.75 229.46"
/>
<path stroke="#ec8d22" vector-effect="non-scaling-stroke" d="
  M 140.75 229.46
  L 43.79 229.50"
/>
<path stroke="#d0965d" vector-effect="non-scaling-stroke" d="
  M 472.79 144.25
  L 397.00 229.29"
/>
<path stroke="#f6af4b" vector-effect="non-scaling-stroke" d="
  M 397.00 229.29
  L 140.75 229.46"
/>
<path stroke="#935f3b" vector-effect="non-scaling-stroke" d="
  M 476.39 147.49
  L 476.29 247.25"
/>
<path stroke="#c57434" vector-effect="non-scaling-stroke" d="
  M 393.97 504.44
  C 397.43 495.91 396.75 487.01 396.75 478.16
  Q 396.76 355.06 396.74 231.96"
/>
<path stroke="#cc8331" vector-effect="non-scaling-stroke" d="
  M 396.74 231.96
  Q 396.58 230.63 397.00 229.29"
/>
<path stroke="#ec8d22" vector-effect="non-scaling-stroke" d="
  M 396.74 231.96
  Q 395.79 232.20 395.65 232.59
  Q 378.69 280.12 361.63 327.60
  C 359.78 332.75 357.22 335.43 351.75 335.44
  Q 192.88 335.53 34.41 335.47"
/>
<path stroke="#dc6a26" vector-effect="non-scaling-stroke" d="
  M 344.24 445.52
  Q 349.56 450.46 354.59 455.71
  C 363.11 464.59 376.02 452.60 366.93 443.37
  Q 359.06 435.35 351.05 427.46
  C 345.92 422.40 341.54 422.61 336.27 427.70
  Q 328.54 435.18 321.05 442.90
  C 311.53 452.71 324.02 464.51 332.99 455.72
  Q 338.18 450.63 343.40 445.53
  Q 343.81 445.13 344.24 445.52"
/>
<path stroke="#f2bf92" vector-effect="non-scaling-stroke" d="
  M 184.25 476.48
  Q 193.75 476.16 193.77 466.46
  Q 193.78 455.95 193.75 445.42
  C 193.72 437.91 192.17 432.53 183.75 432.51
  Q 158.37 432.46 81.24 432.52
  C 73.40 432.52 70.24 435.57 70.25 443.71
  Q 70.26 454.94 70.24 466.17
  C 70.24 472.71 73.13 476.69 80.01 476.70
  Q 131.85 476.76 183.70 476.75
  Q 183.90 476.75 184.02 476.60
  Q 184.12 476.49 184.25 476.48"
/>
<path stroke="#dc6a26" vector-effect="non-scaling-stroke" d="
  M 370.09 476.38
  A 8.46 8.46 0.0 0 0 361.63 467.92
  L 326.01 467.92
  A 8.46 8.46 0.0 0 0 317.55 476.38
  L 317.55 477.00
  A 8.46 8.46 0.0 0 0 326.01 485.46
  L 361.63 485.46
  A 8.46 8.46 0.0 0 0 370.09 477.00
  L 370.09 476.38"
/>
</g>
<path fill="#ff5364" d="
  M 281.81 0.00
  L 283.31 0.00
  Q 286.76 0.90 289.83 4.68
  Q 323.66 46.27 357.57 87.83
  Q 360.96 91.99 361.63 94.96
  C 363.19 101.87 357.63 106.05 351.20 106.03
  Q 340.97 105.99 330.75 105.99
  C 323.57 105.99 318.11 107.21 317.79 115.26
  Q 317.41 124.84 318.00 141.21
  Q 317.55 162.35 317.77 183.51
  C 317.86 191.85 313.73 194.25 305.66 194.25
  Q 281.99 194.25 258.31 194.24
  C 249.78 194.24 247.13 190.65 247.23 182.11
  Q 247.45 161.65 247.00 141.21
  Q 247.39 131.16 247.18 116.01
  C 247.07 107.53 242.05 105.97 234.37 105.99
  Q 223.06 106.02 211.75 105.99
  C 205.73 105.97 201.64 99.41 203.43 93.91
  Q 204.05 92.02 206.83 88.61
  Q 240.92 46.69 275.06 4.81
  Q 278.29 0.85 281.81 0.00
  Z"
/>
<path fill="#e57e25" d="
  M 140.90 141.26
  L 140.75 229.46
  L 43.79 229.50
  Q 99.60 173.17 127.00 146.25
  Q 132.56 140.78 140.90 141.26
  Z"
/>
<path fill="#fac176" d="
  M 140.90 141.26
  L 247.00 141.21
  Q 247.45 161.65 247.23 182.11
  C 247.13 190.65 249.78 194.24 258.31 194.24
  Q 281.99 194.25 305.66 194.25
  C 313.73 194.25 317.86 191.85 317.77 183.51
  Q 317.55 162.35 318.00 141.21
  Q 390.88 141.28 463.75 141.25
  Q 468.62 141.25 472.79 144.25
  L 397.00 229.29
  L 140.75 229.46
  L 140.90 141.26
  Z"
/>
<path fill="#a56a43" d="
  M 472.79 144.25
  Q 475.50 145.33 476.39 147.49
  L 476.29 247.25
  Q 476.21 331.25 476.25 415.25
  C 476.26 425.43 470.17 429.70 463.51 436.26
  Q 428.84 470.44 393.97 504.44
  C 397.43 495.91 396.75 487.01 396.75 478.16
  Q 396.76 355.06 396.74 231.96
  Q 396.58 230.63 397.00 229.29
  L 472.79 144.25
  Z"
/>
<path fill="#805333" d="
  M 476.39 147.49
  Q 479.14 150.08 480.84 155.18
  Q 493.65 193.55 506.44 231.95
  C 509.84 242.15 506.60 247.21 495.82 247.24
  Q 486.06 247.27 476.29 247.25
  L 476.39 147.49
  Z"
/>
<path fill="#f29c1f" d="
  M 397.00 229.29
  Q 396.58 230.63 396.74 231.96
  Q 395.79 232.20 395.65 232.59
  Q 378.69 280.12 361.63 327.60
  C 359.78 332.75 357.22 335.43 351.75 335.44
  Q 192.88 335.53 34.41 335.47
  Q 25.94 335.51 17.72 335.51
  C 11.01 335.51 5.10 334.98 4.20 327.68
  Q 3.89 325.14 5.39 321.50
  Q 24.40 275.41 43.79 229.50
  L 140.75 229.46
  L 397.00 229.29
  Z"
/>
<path fill="#e57e25" d="
  M 396.74 231.96
  Q 396.76 355.06 396.75 478.16
  C 396.75 487.01 397.43 495.91 393.97 504.44
  Q 388.60 510.70 380.44 512.00
  L 51.19 512.00
  C 37.25 509.71 34.72 500.68 34.76 487.89
  Q 34.99 411.67 34.41 335.47
  Q 192.88 335.53 351.75 335.44
  C 357.22 335.43 359.78 332.75 361.63 327.60
  Q 378.69 280.12 395.65 232.59
  Q 395.79 232.20 396.74 231.96
  Z
  M 344.24 445.52
  Q 349.56 450.46 354.59 455.71
  C 363.11 464.59 376.02 452.60 366.93 443.37
  Q 359.06 435.35 351.05 427.46
  C 345.92 422.40 341.54 422.61 336.27 427.70
  Q 328.54 435.18 321.05 442.90
  C 311.53 452.71 324.02 464.51 332.99 455.72
  Q 338.18 450.63 343.40 445.53
  Q 343.81 445.13 344.24 445.52
  Z
  M 184.25 476.48
  Q 193.75 476.16 193.77 466.46
  Q 193.78 455.95 193.75 445.42
  C 193.72 437.91 192.17 432.53 183.75 432.51
  Q 158.37 432.46 81.24 432.52
  C 73.40 432.52 70.24 435.57 70.25 443.71
  Q 70.26 454.94 70.24 466.17
  C 70.24 472.71 73.13 476.69 80.01 476.70
  Q 131.85 476.76 183.70 476.75
  Q 183.90 476.75 184.02 476.60
  Q 184.12 476.49 184.25 476.48
  Z
  M 370.09 476.38
  A 8.46 8.46 0.0 0 0 361.63 467.92
  L 326.01 467.92
  A 8.46 8.46 0.0 0 0 317.55 476.38
  L 317.55 477.00
  A 8.46 8.46 0.0 0 0 326.01 485.46
  L 361.63 485.46
  A 8.46 8.46 0.0 0 0 370.09 477.00
  L 370.09 476.38
  Z"
/>
<path fill="#d25627" d="
  M 343.40 445.53
  Q 338.18 450.63 332.99 455.72
  C 324.02 464.51 311.53 452.71 321.05 442.90
  Q 328.54 435.18 336.27 427.70
  C 341.54 422.61 345.92 422.40 351.05 427.46
  Q 359.06 435.35 366.93 443.37
  C 376.02 452.60 363.11 464.59 354.59 455.71
  Q 349.56 450.46 344.24 445.52
  Q 343.81 445.13 343.40 445.53
  Z"
/>
<path fill="#ffffff" d="
  M 184.25 476.48
  Q 184.12 476.49 184.02 476.60
  Q 183.90 476.75 183.70 476.75
  Q 131.85 476.76 80.01 476.70
  C 73.13 476.69 70.24 472.71 70.24 466.17
  Q 70.26 454.94 70.25 443.71
  C 70.24 435.57 73.40 432.52 81.24 432.52
  Q 158.37 432.46 183.75 432.51
  C 192.17 432.53 193.72 437.91 193.75 445.42
  Q 193.78 455.95 193.77 466.46
  Q 193.75 476.16 184.25 476.48
  Z"
/>
<rect fill="#d25627" x="317.55" y="467.92" width="52.54" height="17.54" rx="8.46"/>
</svg>
