<?xml version="1.0" encoding="UTF-8"?>
<svg id="_Слой_2" data-name="Слой 2" xmlns="http://www.w3.org/2000/svg" viewBox="0 0 36.58 37.74">
  <defs>
    <style>
      .cls-1 {
        fill: #fff;
      }

      .cls-2 {
        fill: #a8acb3;
        fill-rule: evenodd;
      }

      .cls-3 {
        fill: #72c0ea;
      }

      .cls-4 {
        fill: #acca7e;
      }
    </style>
  </defs>
  <g id="_126" data-name="126">
    <g id="_5" data-name="5">
      <g>
        <path class="cls-2" d="m9.43,26.09v7.06c0,.3.24.54.53.54h16.73c.29,0,.53-.24.53-.54v-.46h-.29c-.24,0-1.2.08-1.09-.46.03-.08.75-1.19,1.57-2.51q1.57-2.37,1.79-2.37t1.79,2.37c.85,1.32,1.57,2.43,1.6,2.51.08.54-.85.46-1.09.46h-.27v3.15c0,1.05-.85,1.89-1.87,1.89H7.3c-1.04,0-1.87-.84-1.87-1.89v-9.76c0-1.05.83-1.91,1.87-1.91h.24c1.04,0,1.89.86,1.89,1.91h0Z"/>
        <path class="cls-2" d="m27.24,11.67v-7.09c0-.3-.24-.54-.53-.54H9.97c-.29,0-.53.24-.53.54v.49h.27c.24,0,1.2-.11,1.09.46-.03.05-.72,1.19-1.57,2.48q-1.55,2.37-1.79,2.37t-1.79-2.37c-.85-1.29-1.57-2.43-1.57-2.48-.11-.57.85-.46,1.09-.46h.27V1.89c0-1.02.83-1.89,1.87-1.89h22.07c1.01,0,1.87.86,1.87,1.89v9.78c0,1.02-.85,1.89-1.87,1.89h-.27c-1.04,0-1.87-.86-1.87-1.89h0Z"/>
        <g>
          <path class="cls-4" d="m9.55,11.57c3.09.91,5.23,3.67,5.39,6.92v.66c-.12,2-.87,3.7-2.26,5.08-1.32,1.31-3.05,2.04-4.91,2.13h-.6c-1.1-.04-2.13-.32-3.09-.82-2.45-1.29-3.99-3.74-4.08-6.54v-.33c.11-4.05,3.28-7.26,7.28-7.39h.36c.65.02,1.29.12,1.91.3h0Zm-4.94,4.06c.12-.38-.25-.74-.62-.58-.06.03-.15.1-.25.19-.84.91-1.36,2.08-1.4,3.33-.05,1.51.44,2.8,1.47,3.89.37.38.98-.02.78-.5-.05-.11-.13-.18-.21-.27-1.44-1.56-1.49-3.99-.13-5.61.11-.13.3-.3.35-.45h0Zm5.73,6.35c-.15.36.2.74.58.61.15-.05.26-.18.36-.3,1.81-2.06,1.75-5.16-.16-7.13-.44-.43-1.1.15-.68.66.05.05.1.11.15.16,1.49,1.68,1.42,4.16-.11,5.8-.07.08-.12.14-.14.2h0Zm-4.79-.83c.34.1.74-.04.94-.33.19-.3.38-.6.59-.89,0-.01.01-.01.01-.02.03-.02.07-.02.11.01t.01.02c.19.5.34,1.03.91,1.19.66.19,1.02-.24,1.43-.67.09-.11.15-.19.17-.26.12-.38-.29-.74-.66-.55-.04.02-.1.06-.16.13-.13.13-.25.26-.36.39-.07.06-.18.1-.22-.01-.17-.42-.35-.84-.52-1.25,0-.02,0-.04.01-.06l.92-1.4s.03-.02.05-.02c.06,0,.14,0,.2-.01.54-.04.6-.79.09-.92-.1-.03-.22-.02-.33-.02-.39.01-.57.13-.78.45-.18.26-.35.53-.53.79-.01.02-.03.03-.05.03-.03,0-.05-.01-.06-.04-.12-.28-.23-.56-.35-.85-.1-.22-.22-.38-.45-.38h-.53c-.13,0-.22.01-.28.03-.39.14-.43.7-.04.87.14.05.32.04.48.04.03,0,.05.01.06.04l.53,1.29v.02l-.95,1.43s-.02.02-.03.02c-.04,0-.09,0-.13.01-.49.08-.52.78-.05.92h0Z"/>
          <path class="cls-1" d="m3.99,15.05c.37-.16.74.2.62.58-.05.15-.25.32-.35.45-1.37,1.63-1.31,4.05.13,5.61.09.09.16.16.21.27.2.47-.41.87-.78.5-1.03-1.09-1.53-2.38-1.47-3.89.04-1.25.55-2.42,1.4-3.33.1-.1.18-.16.25-.19h0Z"/>
          <path class="cls-1" d="m10.92,22.59c-.37.13-.73-.26-.58-.61.02-.06.06-.13.14-.2,1.53-1.64,1.6-4.12.11-5.8-.05-.05-.1-.11-.15-.16-.42-.51.25-1.09.68-.66,1.91,1.97,1.97,5.08.16,7.13-.11.12-.21.25-.36.3h0Z"/>
          <path class="cls-1" d="m6.49,20.81c-.2.29-.6.43-.94.33-.47-.14-.44-.84.05-.92.04-.01.09-.01.13-.01.01,0,.02-.01.03-.02l.95-1.43v-.02l-.53-1.29s-.03-.04-.06-.04c-.16,0-.34.01-.48-.04-.38-.17-.35-.73.04-.87.05-.02.15-.03.28-.03h.53c.22,0,.35.16.45.38.12.29.23.57.35.85.01.03.03.04.06.04.02,0,.04-.01.05-.03.18-.26.35-.53.53-.79.21-.32.38-.44.78-.45.11,0,.23-.01.33.02.51.13.46.87-.09.92-.06.01-.14.01-.2.01-.02,0-.04.01-.05.02l-.92,1.4s-.01.04-.01.06c.17.41.35.83.52,1.25.04.11.15.08.22.01.12-.13.23-.26.36-.39.06-.06.12-.11.16-.13.37-.19.78.17.66.55-.02.06-.09.15-.17.26-.41.43-.77.86-1.43.67-.57-.15-.71-.69-.91-1.19t-.01-.02s-.07-.03-.11-.01c0,.01-.01.01-.01.02-.2.29-.39.59-.59.89h0Z"/>
        </g>
        <g>
          <path class="cls-3" d="m31.2,11.57c3.09.91,5.23,3.67,5.39,6.92v.66c-.12,2-.87,3.7-2.26,5.08-1.32,1.31-3.05,2.04-4.91,2.13h-.6c-1.1-.04-2.13-.32-3.09-.82-2.45-1.29-3.99-3.74-4.08-6.54v-.33c.11-4.05,3.28-7.26,7.28-7.39h.36c.65.02,1.29.12,1.91.3h0Zm-4.94,4.06c.12-.38-.25-.74-.62-.58-.06.03-.15.1-.25.19-.84.91-1.36,2.08-1.4,3.33-.05,1.51.44,2.8,1.47,3.89.37.38.98-.02.78-.5-.05-.11-.13-.18-.21-.27-1.44-1.56-1.49-3.99-.13-5.61.11-.13.3-.3.35-.45h0Zm5.73,6.35c-.15.36.2.74.58.61.15-.05.26-.18.36-.3,1.81-2.06,1.75-5.16-.16-7.13-.44-.43-1.1.15-.68.66.05.05.1.11.15.16,1.49,1.68,1.42,4.16-.11,5.8-.07.08-.12.14-.14.2h0Zm-4.79-.83c.34.1.74-.04.94-.33.19-.3.38-.6.59-.89,0-.01.01-.01.01-.02.03-.02.07-.02.11.01t.01.02c.19.5.34,1.03.91,1.19.66.19,1.02-.24,1.43-.67.09-.11.15-.19.17-.26.12-.38-.29-.74-.66-.55-.04.02-.1.06-.16.13-.13.13-.25.26-.36.39-.07.06-.18.1-.22-.01-.17-.42-.35-.84-.52-1.25,0-.02,0-.04.01-.06l.92-1.4s.03-.02.05-.02c.06,0,.14,0,.2-.01.54-.04.6-.79.09-.92-.1-.03-.22-.02-.33-.02-.39.01-.57.13-.78.45-.18.26-.35.53-.53.79-.01.02-.03.03-.05.03-.03,0-.05-.01-.06-.04-.12-.28-.23-.56-.35-.85-.1-.22-.22-.38-.45-.38h-.53c-.13,0-.22.01-.28.03-.39.14-.43.7-.04.87.14.05.32.04.48.04.03,0,.05.01.06.04l.53,1.29v.02l-.95,1.43s-.02.02-.03.02c-.04,0-.09,0-.13.01-.49.08-.52.78-.05.92h0Z"/>
          <path class="cls-1" d="m25.64,15.05c.37-.16.74.2.62.58-.05.15-.25.32-.35.45-1.37,1.63-1.31,4.05.13,5.61.09.09.16.16.21.27.2.47-.41.87-.78.5-1.03-1.09-1.53-2.38-1.47-3.89.04-1.25.55-2.42,1.4-3.33.1-.1.18-.16.25-.19h0Z"/>
          <path class="cls-1" d="m32.56,22.59c-.37.13-.73-.26-.58-.61.02-.06.06-.13.14-.2,1.53-1.64,1.6-4.12.11-5.8-.05-.05-.1-.11-.15-.16-.42-.51.25-1.09.68-.66,1.91,1.97,1.97,5.08.16,7.13-.11.12-.21.25-.36.3h0Z"/>
          <path class="cls-1" d="m28.13,20.81c-.2.29-.6.43-.94.33-.47-.14-.44-.84.05-.92.04-.01.09-.01.13-.01.01,0,.02-.01.03-.02l.95-1.43v-.02l-.53-1.29s-.03-.04-.06-.04c-.16,0-.34.01-.48-.04-.38-.17-.35-.73.04-.87.05-.02.15-.03.28-.03h.53c.22,0,.35.16.45.38.12.29.23.57.35.85.01.03.03.04.06.04.02,0,.04-.01.05-.03.18-.26.35-.53.53-.79.21-.32.38-.44.78-.45.11,0,.23-.01.33.02.51.13.46.87-.09.92-.06.01-.14.01-.2.01-.02,0-.04.01-.05.02l-.92,1.4s-.01.04-.01.06c.17.41.35.83.52,1.25.04.11.15.08.22.01.12-.13.23-.26.36-.39.06-.06.12-.11.16-.13.37-.19.78.17.66.55-.02.06-.09.15-.17.26-.41.43-.77.86-1.43.67-.57-.15-.71-.69-.91-1.19t-.01-.02s-.07-.03-.11-.01c0,.01-.01.01-.01.02-.2.29-.39.59-.59.89h0Z"/>
        </g>
      </g>
    </g>
  </g>
</svg>