<?xml version="1.0" encoding="UTF-8" standalone="no"?>
<!DOCTYPE svg PUBLIC "-//W3C//DTD SVG 1.1//EN" "http://www.w3.org/Graphics/SVG/1.1/DTD/svg11.dtd">
<svg xmlns="http://www.w3.org/2000/svg" version="1.1" viewBox="0.00 0.00 512.00 512.00">
<g stroke-width="2.00" fill="none" stroke-linecap="butt">
<path stroke="#069bec" vector-effect="non-scaling-stroke" d="
  M 499.10 286.11
  Q 497.87 286.30 497.69 285.31
  Q 423.60 211.22 349.51 137.13
  A 1.55 1.47 -78.9 0 1 349.13 136.53
  Q 348.87 135.78 347.94 135.76"
/>
<path stroke="#86d8ff" vector-effect="non-scaling-stroke" d="
  M 347.94 135.76
  L 164.37 135.76
  Q 163.51 135.76 163.51 136.62
  L 163.55 197.97"
/>
<path stroke="#069bec" vector-effect="non-scaling-stroke" d="
  M 163.55 197.97
  L 206.77 241.41"
/>
<path stroke="#86d8ff" vector-effect="non-scaling-stroke" d="
  M 206.77 241.41
  L 120.05 241.48
  Q 119.54 241.48 119.55 241.99
  L 119.65 271.50"
/>
<path stroke="#069bec" vector-effect="non-scaling-stroke" d="
  M 119.65 271.50
  L 163.49 315.31"
/>
<path stroke="#86d8ff" vector-effect="non-scaling-stroke" d="
  M 163.49 315.31
  L 163.52 375.67
  Q 163.52 376.15 163.99 376.23
  L 165.18 376.43"
/>
<path stroke="#069bec" vector-effect="non-scaling-stroke" d="
  M 165.18 376.43
  Q 163.26 376.06 166.22 379.03
  Q 225.81 438.69 285.41 498.34
  Q 285.52 498.45 285.29 499.12"
/>
<path stroke="#80c2ec" vector-effect="non-scaling-stroke" d="
  M 347.94 135.76
  L 347.92 375.76
  Q 347.92 376.30 347.38 376.30
  L 165.18 376.43"
/>
<path stroke="#80c2ec" vector-effect="non-scaling-stroke" d="
  M 163.49 315.31
  C 163.43 314.61 163.39 314.02 164.28 314.02
  Q 178.58 313.97 193.01 314.01
  Q 193.50 314.02 193.50 314.51
  L 193.50 345.63
  Q 193.50 346.25 194.12 346.25
  L 317.53 346.26
  Q 318.00 346.26 318.00 345.78
  L 318.00 166.24
  Q 318.00 165.74 317.49 165.74
  L 193.81 165.72
  A 0.31 0.30 -0.0 0 0 193.50 166.02
  L 193.50 197.49
  Q 193.50 197.99 193.00 197.99
  L 163.55 197.97"
/>
<path stroke="#80c2ec" vector-effect="non-scaling-stroke" d="
  M 119.65 271.50
  L 230.00 271.51
  Q 230.61 271.51 230.18 271.95
  L 212.43 289.69
  A 0.80 0.80 0.0 0 0 212.44 290.82
  L 232.83 311.18
  A 0.43 0.42 44.5 0 0 233.44 311.18
  L 287.69 256.94
  Q 288.13 256.50 287.69 256.06
  L 233.44 201.81
  A 0.45 0.45 0.0 0 0 232.81 201.81
  L 212.34 222.29
  Q 211.92 222.71 212.33 223.12
  L 230.08 240.97
  Q 230.55 241.45 229.88 241.45
  L 206.77 241.41"
/>
</g>
<path fill="#0cb0ff" d="
  M 499.10 286.11
  Q 497.87 286.30 497.69 285.31
  Q 423.60 211.22 349.51 137.13
  A 1.55 1.47 -78.9 0 1 349.13 136.53
  Q 348.87 135.78 347.94 135.76
  L 164.37 135.76
  Q 163.51 135.76 163.51 136.62
  L 163.55 197.97
  L 206.77 241.41
  L 120.05 241.48
  Q 119.54 241.48 119.55 241.99
  L 119.65 271.50
  L 163.49 315.31
  L 163.52 375.67
  Q 163.52 376.15 163.99 376.23
  L 165.18 376.43
  Q 163.26 376.06 166.22 379.03
  Q 225.81 438.69 285.41 498.34
  Q 285.52 498.45 285.29 499.12
  C 188.07 510.84 91.52 462.84 43.47 377.85
  C -11.73 280.19 4.82 158.10 85.65 79.91
  C 206.64 -37.13 406.75 0.57 478.06 152.69
  Q 507.20 214.85 499.10 286.11
  Z"
/>
<path fill="#ffffff" d="
  M 347.94 135.76
  L 347.92 375.76
  Q 347.92 376.30 347.38 376.30
  L 165.18 376.43
  L 163.99 376.23
  Q 163.52 376.15 163.52 375.67
  L 163.49 315.31
  C 163.43 314.61 163.39 314.02 164.28 314.02
  Q 178.58 313.97 193.01 314.01
  Q 193.50 314.02 193.50 314.51
  L 193.50 345.63
  Q 193.50 346.25 194.12 346.25
  L 317.53 346.26
  Q 318.00 346.26 318.00 345.78
  L 318.00 166.24
  Q 318.00 165.74 317.49 165.74
  L 193.81 165.72
  A 0.31 0.30 -0.0 0 0 193.50 166.02
  L 193.50 197.49
  Q 193.50 197.99 193.00 197.99
  L 163.55 197.97
  L 163.51 136.62
  Q 163.51 135.76 164.37 135.76
  L 347.94 135.76
  Z"
/>
<path fill="#0085d8" d="
  M 347.94 135.76
  Q 348.87 135.78 349.13 136.53
  A 1.55 1.47 -78.9 0 0 349.51 137.13
  Q 423.60 211.22 497.69 285.31
  Q 497.87 286.30 499.10 286.11
  C 485.60 396.55 399.31 483.51 289.23 498.87
  C 288.00 499.05 286.62 498.93 285.29 499.12
  Q 285.52 498.45 285.41 498.34
  Q 225.81 438.69 166.22 379.03
  Q 163.26 376.06 165.18 376.43
  L 347.38 376.30
  Q 347.92 376.30 347.92 375.76
  L 347.94 135.76
  Z"
/>
<path fill="#0085d8" d="
  M 163.49 315.31
  L 119.65 271.50
  L 230.00 271.51
  Q 230.61 271.51 230.18 271.95
  L 212.43 289.69
  A 0.80 0.80 0.0 0 0 212.44 290.82
  L 232.83 311.18
  A 0.43 0.42 44.5 0 0 233.44 311.18
  L 287.69 256.94
  Q 288.13 256.50 287.69 256.06
  L 233.44 201.81
  A 0.45 0.45 0.0 0 0 232.81 201.81
  L 212.34 222.29
  Q 211.92 222.71 212.33 223.12
  L 230.08 240.97
  Q 230.55 241.45 229.88 241.45
  L 206.77 241.41
  L 163.55 197.97
  L 193.00 197.99
  Q 193.50 197.99 193.50 197.49
  L 193.50 166.02
  A 0.31 0.30 -0.0 0 1 193.81 165.72
  L 317.49 165.74
  Q 318.00 165.74 318.00 166.24
  L 318.00 345.78
  Q 318.00 346.26 317.53 346.26
  L 194.12 346.25
  Q 193.50 346.25 193.50 345.63
  L 193.50 314.51
  Q 193.50 314.02 193.01 314.01
  Q 178.58 313.97 164.28 314.02
  C 163.39 314.02 163.43 314.61 163.49 315.31
  Z"
/>
<path fill="#ffffff" d="
  M 119.65 271.50
  L 119.55 241.99
  Q 119.54 241.48 120.05 241.48
  L 206.77 241.41
  L 229.88 241.45
  Q 230.55 241.45 230.08 240.97
  L 212.33 223.12
  Q 211.92 222.71 212.34 222.29
  L 232.81 201.81
  A 0.45 0.45 0.0 0 1 233.44 201.81
  L 287.69 256.06
  Q 288.13 256.50 287.69 256.94
  L 233.44 311.18
  A 0.43 0.42 44.5 0 1 232.83 311.18
  L 212.44 290.82
  A 0.80 0.80 0.0 0 1 212.43 289.69
  L 230.18 271.95
  Q 230.61 271.51 230.00 271.51
  L 119.65 271.50
  Z"
/>
</svg>
