<?xml version="1.0" encoding="UTF-8" standalone="no"?>
<!DOCTYPE svg PUBLIC "-//W3C//DTD SVG 1.1//EN" "http://www.w3.org/Graphics/SVG/1.1/DTD/svg11.dtd">
<svg xmlns="http://www.w3.org/2000/svg" version="1.1" viewBox="0.00 0.00 512.00 512.00">
<path fill="#ff3838" d="
  M 290.24 82.50
  L 82.91 82.50
  A 0.41 0.41 0.0 0 0 82.50 82.91
  L 82.50 428.50
  Q 82.50 429.50 83.50 429.50
  L 290.23 429.50
  A 0.53 0.52 0.0 0 0 290.76 428.98
  Q 290.73 406.50 290.77 383.76
  C 290.79 373.31 297.51 370.47 306.80 370.49
  Q 324.30 370.52 341.77 370.49
  C 350.58 370.47 357.49 373.34 357.50 383.25
  Q 357.51 424.00 357.50 464.75
  C 357.50 478.01 349.25 490.51 336.44 494.51
  Q 331.68 495.99 320.78 495.99
  Q 187.99 496.01 55.21 496.00
  Q 41.88 496.00 36.95 494.44
  C 22.27 489.78 16.00 476.92 16.00 462.12
  Q 16.01 257.76 15.99 53.41
  Q 15.99 42.68 17.45 37.73
  C 21.09 25.35 32.64 16.01 46.30 16.00
  Q 186.02 15.99 325.75 15.84
  C 339.77 15.83 352.43 24.50 356.25 38.03
  Q 357.47 42.32 357.48 52.73
  Q 357.53 90.86 357.49 129.00
  C 357.48 138.74 350.38 141.53 341.73 141.51
  Q 323.73 141.48 305.74 141.51
  C 297.21 141.53 290.72 137.95 290.74 128.48
  Q 290.80 105.77 290.75 83.01
  Q 290.75 82.50 290.24 82.50
  Z"
/>
<path fill="#ff3838" d="
  M 394.44 289.28
  Q 275.04 289.19 155.65 289.27
  C 144.35 289.28 139.52 286.17 139.51 274.72
  Q 139.50 257.24 139.49 239.76
  C 139.49 228.39 141.80 222.74 153.82 222.75
  Q 274.14 222.76 394.46 222.75
  Q 394.98 222.75 394.98 222.23
  Q 395.05 205.06 394.99 188.01
  C 394.97 183.20 399.53 179.67 404.04 180.41
  Q 406.19 180.76 409.83 183.66
  Q 450.78 216.20 491.70 248.79
  C 500.05 255.44 495.12 260.53 488.81 265.54
  Q 449.40 296.85 410.05 328.19
  Q 406.40 331.10 403.71 331.53
  C 397.68 332.48 394.97 327.60 394.99 322.14
  Q 395.05 305.98 394.98 289.81
  Q 394.97 289.28 394.44 289.28
  Z"
/>
</svg>
