<?xml version="1.0" encoding="UTF-8" standalone="no"?>
<!DOCTYPE svg PUBLIC "-//W3C//DTD SVG 1.1//EN" "http://www.w3.org/Graphics/SVG/1.1/DTD/svg11.dtd">
<svg xmlns="http://www.w3.org/2000/svg" version="1.1" viewBox="0.00 0.00 512.00 512.00">
<g stroke-width="2.00" fill="none" stroke-linecap="butt">
<path stroke="#ed4a48" vector-effect="non-scaling-stroke" d="
  M 497.33 298.13
  Q 495.50 296.55 490.47 291.53
  Q 413.07 214.18 335.72 136.78
  Q 335.33 136.38 334.50 136.24"
/>
<path stroke="#ffadaa" vector-effect="non-scaling-stroke" d="
  M 334.50 136.24
  Q 334.52 136.14 334.49 135.96
  Q 334.45 135.75 334.24 135.75
  L 150.50 135.75
  A 0.50 0.50 0.0 0 0 150.00 136.25
  L 150.00 375.56
  A 0.93 0.93 0.0 0 0 150.46 376.36
  Q 150.86 376.58 151.25 376.51"
/>
<path stroke="#ed4a48" vector-effect="non-scaling-stroke" d="
  M 151.25 376.51
  Q 150.74 377.12 151.31 377.69
  Q 212.28 438.62 273.74 500.16"
/>
<path stroke="#ed9d9e" vector-effect="non-scaling-stroke" d="
  M 334.50 136.24
  L 334.49 197.49
  Q 334.49 198.00 333.99 198.00
  L 305.00 198.00
  Q 304.50 198.00 304.50 197.50
  L 304.50 166.37
  A 0.63 0.62 0.0 0 0 303.87 165.75
  L 180.47 165.75
  Q 180.00 165.75 180.00 166.22
  L 180.00 345.75
  Q 180.00 346.25 180.50 346.25
  L 303.87 346.26
  Q 304.50 346.26 304.50 345.63
  L 304.50 314.63
  A 0.63 0.62 -90.0 0 1 305.12 314.00
  L 334.03 314.00
  Q 334.51 314.00 334.51 314.47
  L 334.50 375.24
  Q 334.50 376.49 333.25 376.49
  L 151.25 376.51"
/>
<path stroke="#ed9d9e" vector-effect="non-scaling-stroke" d="
  M 354.00 272.03
  L 336.26 289.90
  Q 335.89 290.27 336.26 290.63
  L 356.65 311.03
  Q 357.06 311.43 357.46 311.03
  L 411.70 256.72
  A 0.46 0.45 45.4 0 0 411.70 256.07
  L 357.55 201.94
  A 0.61 0.61 0.0 0 0 356.69 201.94
  L 336.31 222.30
  Q 335.87 222.74 336.31 223.18
  L 353.82 240.70
  Q 354.62 241.50 353.49 241.50
  L 243.97 241.50
  Q 243.34 241.50 243.31 242.13
  C 243.01 251.57 244.03 261.04 243.13 270.52
  A 0.90 0.90 0.0 0 0 244.03 271.50
  L 353.77 271.50
  Q 354.53 271.50 354.00 272.03"
/>
</g>
<path fill="#ff5a54" d="
  M 497.33 298.13
  Q 495.50 296.55 490.47 291.53
  Q 413.07 214.18 335.72 136.78
  Q 335.33 136.38 334.50 136.24
  Q 334.52 136.14 334.49 135.96
  Q 334.45 135.75 334.24 135.75
  L 150.50 135.75
  A 0.50 0.50 0.0 0 0 150.00 136.25
  L 150.00 375.56
  A 0.93 0.93 0.0 0 0 150.46 376.36
  Q 150.86 376.58 151.25 376.51
  Q 150.74 377.12 151.31 377.69
  Q 212.28 438.62 273.74 500.16
  C 135.77 510.25 16.44 403.73 11.27 265.69
  C 6.10 127.62 115.74 11.79 254.30 11.13
  C 408.44 10.40 521.74 146.99 497.33 298.13
  Z"
/>
<path fill="#ffffff" d="
  M 334.50 136.24
  L 334.49 197.49
  Q 334.49 198.00 333.99 198.00
  L 305.00 198.00
  Q 304.50 198.00 304.50 197.50
  L 304.50 166.37
  A 0.63 0.62 0.0 0 0 303.87 165.75
  L 180.47 165.75
  Q 180.00 165.75 180.00 166.22
  L 180.00 345.75
  Q 180.00 346.25 180.50 346.25
  L 303.87 346.26
  Q 304.50 346.26 304.50 345.63
  L 304.50 314.63
  A 0.63 0.62 -90.0 0 1 305.12 314.00
  L 334.03 314.00
  Q 334.51 314.00 334.51 314.47
  L 334.50 375.24
  Q 334.50 376.49 333.25 376.49
  L 151.25 376.51
  Q 150.86 376.58 150.46 376.36
  A 0.93 0.93 0.0 0 1 150.00 375.56
  L 150.00 136.25
  A 0.50 0.50 0.0 0 1 150.50 135.75
  L 334.24 135.75
  Q 334.45 135.75 334.49 135.96
  Q 334.52 136.14 334.50 136.24
  Z"
/>
<path fill="#db3a3c" d="
  M 334.50 136.24
  Q 335.33 136.38 335.72 136.78
  Q 413.07 214.18 490.47 291.53
  Q 495.50 296.55 497.33 298.13
  Q 487.19 356.71 451.86 403.35
  C 412.32 455.54 354.76 489.52 289.75 498.75
  Q 280.25 500.10 273.74 500.16
  Q 212.28 438.62 151.31 377.69
  Q 150.74 377.12 151.25 376.51
  L 333.25 376.49
  Q 334.50 376.49 334.50 375.24
  L 334.51 314.47
  Q 334.51 314.00 334.03 314.00
  L 305.12 314.00
  A 0.63 0.62 90.0 0 0 304.50 314.63
  L 304.50 345.63
  Q 304.50 346.26 303.87 346.26
  L 180.50 346.25
  Q 180.00 346.25 180.00 345.75
  L 180.00 166.22
  Q 180.00 165.75 180.47 165.75
  L 303.87 165.75
  A 0.63 0.62 -0.0 0 1 304.50 166.37
  L 304.50 197.50
  Q 304.50 198.00 305.00 198.00
  L 333.99 198.00
  Q 334.49 198.00 334.49 197.49
  L 334.50 136.24
  Z
  M 354.00 272.03
  L 336.26 289.90
  Q 335.89 290.27 336.26 290.63
  L 356.65 311.03
  Q 357.06 311.43 357.46 311.03
  L 411.70 256.72
  A 0.46 0.45 45.4 0 0 411.70 256.07
  L 357.55 201.94
  A 0.61 0.61 0.0 0 0 356.69 201.94
  L 336.31 222.30
  Q 335.87 222.74 336.31 223.18
  L 353.82 240.70
  Q 354.62 241.50 353.49 241.50
  L 243.97 241.50
  Q 243.34 241.50 243.31 242.13
  C 243.01 251.57 244.03 261.04 243.13 270.52
  A 0.90 0.90 0.0 0 0 244.03 271.50
  L 353.77 271.50
  Q 354.53 271.50 354.00 272.03
  Z"
/>
<path fill="#ffffff" d="
  M 353.77 271.50
  L 244.03 271.50
  A 0.90 0.90 0.0 0 1 243.13 270.52
  C 244.03 261.04 243.01 251.57 243.31 242.13
  Q 243.34 241.50 243.97 241.50
  L 353.49 241.50
  Q 354.62 241.50 353.82 240.70
  L 336.31 223.18
  Q 335.87 222.74 336.31 222.30
  L 356.69 201.94
  A 0.61 0.61 0.0 0 1 357.55 201.94
  L 411.70 256.07
  A 0.46 0.45 45.4 0 1 411.70 256.72
  L 357.46 311.03
  Q 357.06 311.43 356.65 311.03
  L 336.26 290.63
  Q 335.89 290.27 336.26 289.90
  L 354.00 272.03
  Q 354.53 271.50 353.77 271.50
  Z"
/>
</svg>
