<?xml version="1.0" encoding="UTF-8"?>
<svg id="_Слой_2" data-name="Слой 2" xmlns="http://www.w3.org/2000/svg" viewBox="0 0 50.08 38.93">
  <defs>
    <style>
      .cls-1 {
        fill: none;
        stroke: #e5c688;
        stroke-linecap: round;
        stroke-linejoin: round;
        stroke-width: 2.5px;
      }

      .cls-2 {
        fill: #de6855;
        stroke: #c45944;
        stroke-miterlimit: 10;
        stroke-width: .83px;
      }
    </style>
  </defs>
  <g id="_130" data-name="130">
    <line class="cls-1" x1="35.57" y1="1.25" x2="14.54" y2="37.68"/>
    <path class="cls-2" d="m34.36,2.63c1.49.59,4.9,1.83,7.16,5.24.51.78.96,1.36,1.6,1.88,1.51,1.23,3.65,2.52,6.44,2.66.08,0,.12.08.09.14-.67,1.13-5.27,8.91-6.33,10.71-.13.22-.36.35-.61.35-1.33,0-4.66-.18-7.45-4.17-.34-.49-.6-1.03-.98-1.48-1.01-1.19-3.12-3.13-6.42-3.51-.4-.05-.62-.49-.42-.84,1.31-2.27,5.12-8.86,6.2-10.73.14-.25.44-.35.71-.25Z"/>
    <line class="cls-1" x1="14.54" y1="1.25" x2="35.57" y2="37.68"/>
    <path class="cls-2" d="m15.72,2.63c-1.49.59-4.9,1.83-7.16,5.24-.51.78-.96,1.36-1.6,1.88-1.51,1.23-3.65,2.52-6.44,2.66-.08,0-.12.08-.09.14.67,1.13,5.27,8.91,6.33,10.71.13.22.36.35.61.35,1.33,0,4.66-.18,7.45-4.17.34-.49.6-1.03.98-1.48,1.01-1.19,3.12-3.13,6.42-3.51.4-.05.62-.49.42-.84-1.31-2.27-5.12-8.86-6.2-10.73-.14-.25-.44-.35-.71-.25Z"/>
  </g>
</svg>