<?xml version="1.0" encoding="UTF-8"?>
<svg id="_Слой_2" data-name="Слой 2" xmlns="http://www.w3.org/2000/svg" viewBox="0 0 20 37.33">
  <defs>
    <style>
      .cls-1 {
        fill: #de6855;
        stroke: #c45944;
        stroke-miterlimit: 10;
        stroke-width: .85px;
      }

      .cls-2 {
        fill: none;
        stroke: #e5c688;
        stroke-linecap: round;
        stroke-linejoin: round;
        stroke-width: 2.56px;
      }
    </style>
  </defs>
  <g id="_129" data-name="129">
    <g id="_2" data-name="2">
      <line class="cls-2" x1="1.3" y1="1.28" x2="1.3" y2="36.05"/>
      <path class="cls-1" d="m.93,3.12c1.62-.24,5.29-.89,9.04.98.85.43,1.54.71,2.38.85,1.96.32,4.53.37,7.07-.94.07-.04.15,0,.15.08-.01,1.34-.11,10.6-.13,12.74,0,.26-.14.49-.36.62-1.18.69-4.22,2.22-8.74.11-.55-.26-1.05-.61-1.62-.81-1.5-.54-4.37-1.18-7.49.17-.38.16-.8-.11-.8-.53,0-2.68,0-10.48,0-12.7,0-.29.21-.54.5-.58Z"/>
    </g>
  </g>
</svg>