<?xml version="1.0" encoding="UTF-8" standalone="no"?>
<!DOCTYPE svg PUBLIC "-//W3C//DTD SVG 1.1//EN" "http://www.w3.org/Graphics/SVG/1.1/DTD/svg11.dtd">
<svg xmlns="http://www.w3.org/2000/svg" version="1.1" viewBox="0.00 0.00 512.00 512.00">
<g stroke-width="2.00" fill="none" stroke-linecap="butt">
<path stroke="#33b966" vector-effect="non-scaling-stroke" d="
  M 491.87 322.19
  L 312.98 143.62"
/>
<path stroke="#a3e6b5" vector-effect="non-scaling-stroke" d="
  M 312.98 143.62
  L 258.38 89.05
  A 0.40 0.40 0.0 0 0 257.82 89.05
  L 237.18 109.66
  A 0.45 0.45 0.0 0 0 237.18 110.30
  L 253.30 126.43
  Q 253.86 126.99 253.07 127.01
  Q 224.30 127.63 199.76 139.50
  C 115.14 180.41 100.19 294.38 172.82 355.20"
/>
<path stroke="#33b966" vector-effect="non-scaling-stroke" d="
  M 172.82 355.20
  C 172.75 357.06 175.06 358.17 175.96 359.06
  Q 242.62 425.77 309.24 492.51
  Q 310.43 493.70 310.67 494.91"
/>
<path stroke="#90d2b0" vector-effect="non-scaling-stroke" d="
  M 312.98 143.62
  L 258.41 198.19
  Q 257.99 198.61 257.57 198.19
  L 237.32 177.94
  Q 236.89 177.51 237.32 177.08
  L 256.64 157.59
  Q 257.12 157.11 256.45 157.06
  Q 254.10 156.86 251.76 156.99
  C 199.86 159.76 158.35 199.74 156.25 251.99
  C 154.55 294.26 180.67 333.98 220.31 348.71
  C 297.69 377.44 373.35 305.66 349.78 226.74
  Q 349.61 226.17 350.18 225.99
  L 377.98 217.23
  Q 378.33 217.12 378.44 217.47
  C 399.09 284.89 362.46 356.55 295.57 378.60
  C 253.63 392.41 207.14 383.69 172.82 355.20"
/>
</g>
<path fill="#46cc6b" d="
  M 491.87 322.19
  L 312.98 143.62
  L 258.38 89.05
  A 0.40 0.40 0.0 0 0 257.82 89.05
  L 237.18 109.66
  A 0.45 0.45 0.0 0 0 237.18 110.30
  L 253.30 126.43
  Q 253.86 126.99 253.07 127.01
  Q 224.30 127.63 199.76 139.50
  C 115.14 180.41 100.19 294.38 172.82 355.20
  C 172.75 357.06 175.06 358.17 175.96 359.06
  Q 242.62 425.77 309.24 492.51
  Q 310.43 493.70 310.67 494.91
  C 213.64 515.95 112.44 478.88 55.41 396.63
  C -30.50 272.72 13.02 101.35 149.57 35.32
  C 214.73 3.82 291.74 3.22 357.46 33.02
  C 468.00 83.14 523.36 205.63 491.87 322.19
  Z"
/>
<path fill="#ffffff" d="
  M 312.98 143.62
  L 258.41 198.19
  Q 257.99 198.61 257.57 198.19
  L 237.32 177.94
  Q 236.89 177.51 237.32 177.08
  L 256.64 157.59
  Q 257.12 157.11 256.45 157.06
  Q 254.10 156.86 251.76 156.99
  C 199.86 159.76 158.35 199.74 156.25 251.99
  C 154.55 294.26 180.67 333.98 220.31 348.71
  C 297.69 377.44 373.35 305.66 349.78 226.74
  Q 349.61 226.17 350.18 225.99
  L 377.98 217.23
  Q 378.33 217.12 378.44 217.47
  C 399.09 284.89 362.46 356.55 295.57 378.60
  C 253.63 392.41 207.14 383.69 172.82 355.20
  C 100.19 294.38 115.14 180.41 199.76 139.50
  Q 224.30 127.63 253.07 127.01
  Q 253.86 126.99 253.30 126.43
  L 237.18 110.30
  A 0.45 0.45 0.0 0 1 237.18 109.66
  L 257.82 89.05
  A 0.40 0.40 0.0 0 1 258.38 89.05
  L 312.98 143.62
  Z"
/>
<path fill="#20a561" d="
  M 312.98 143.62
  L 491.87 322.19
  C 467.68 409.11 398.27 474.30 310.67 494.91
  Q 310.43 493.70 309.24 492.51
  Q 242.62 425.77 175.96 359.06
  C 175.06 358.17 172.75 357.06 172.82 355.20
  C 207.14 383.69 253.63 392.41 295.57 378.60
  C 362.46 356.55 399.09 284.89 378.44 217.47
  Q 378.33 217.12 377.98 217.23
  L 350.18 225.99
  Q 349.61 226.17 349.78 226.74
  C 373.35 305.66 297.69 377.44 220.31 348.71
  C 180.67 333.98 154.55 294.26 156.25 251.99
  C 158.35 199.74 199.86 159.76 251.76 156.99
  Q 254.10 156.86 256.45 157.06
  Q 257.12 157.11 256.64 157.59
  L 237.32 177.08
  Q 236.89 177.51 237.32 177.94
  L 257.57 198.19
  Q 257.99 198.61 258.41 198.19
  L 312.98 143.62
  Z"
/>
</svg>
