<?xml version="1.0" encoding="UTF-8" standalone="no"?>
<!DOCTYPE svg PUBLIC "-//W3C//DTD SVG 1.1//EN" "http://www.w3.org/Graphics/SVG/1.1/DTD/svg11.dtd">
<svg xmlns="http://www.w3.org/2000/svg" version="1.1" viewBox="0.00 0.00 512.00 512.00">
<g stroke-width="2.00" fill="none" stroke-linecap="butt">
<path stroke="#d5dee6" vector-effect="non-scaling-stroke" d="
  M 427.20 15.02
  Q 436.50 18.51 438.75 19.76
  Q 452.23 27.22 456.52 41.46
  Q 458.24 47.18 458.40 59.71
  C 458.62 76.25 458.51 92.83 458.51 109.35
  C 458.51 219.34 458.78 329.36 458.29 439.36
  C 458.24 450.66 459.78 462.71 455.52 473.16
  Q 448.81 489.61 430.83 495.65
  Q 430.39 495.80 429.75 496.99"
/>
<path stroke="#99d7af" vector-effect="non-scaling-stroke" d="
  M 33.71 152.04
  Q 86.63 152.39 139.35 152.26
  Q 149.86 152.24 154.35 150.71
  C 165.43 146.95 171.00 137.03 171.00 125.50
  Q 171.00 72.06 170.99 18.63
  C 170.99 17.62 170.62 16.43 170.38 15.42"
/>
<path stroke="#d5dee6" vector-effect="non-scaling-stroke" d="
  M 241.11 60.33
  A 7.95 7.95 0.0 0 0 233.16 52.38
  L 218.02 52.38
  A 7.95 7.95 0.0 0 0 210.07 60.33
  L 210.07 61.23
  A 7.95 7.95 0.0 0 0 218.02 69.18
  L 233.16 69.18
  A 7.95 7.95 0.0 0 0 241.11 61.23
  L 241.11 60.33"
/>
<path stroke="#d5dee6" vector-effect="non-scaling-stroke" d="
  M 353.75 60.59
  A 8.32 8.32 0.0 0 0 345.43 52.27
  L 266.83 52.27
  A 8.32 8.32 0.0 0 0 258.51 60.59
  L 258.51 60.93
  A 8.32 8.32 0.0 0 0 266.83 69.25
  L 345.43 69.25
  A 8.32 8.32 0.0 0 0 353.75 60.93
  L 353.75 60.59"
/>
<path stroke="#d5dee6" vector-effect="non-scaling-stroke" d="
  M 305.96 99.59
  A 8.32 8.32 0.0 0 0 297.64 91.27
  L 218.88 91.27
  A 8.32 8.32 0.0 0 0 210.56 99.59
  L 210.56 99.91
  A 8.32 8.32 0.0 0 0 218.88 108.23
  L 297.64 108.23
  A 8.32 8.32 0.0 0 0 305.96 99.91
  L 305.96 99.59"
/>
<path stroke="#94a3bc" vector-effect="non-scaling-stroke" d="
  M 216.65 267.18
  C 215.97 252.45 210.71 234.40 194.74 229.53
  C 185.61 226.74 175.15 227.46 167.17 232.69
  C 150.74 243.45 149.71 269.30 153.56 286.14
  C 157.80 304.70 171.16 315.60 190.80 312.05
  C 211.82 308.26 217.48 285.18 216.65 267.18"
/>
<path stroke="#94a3bc" vector-effect="non-scaling-stroke" d="
  M 293.76 254.50
  C 287.85 280.55 295.84 317.90 331.04 312.00
  C 344.58 309.73 352.60 298.62 355.36 285.92
  C 359.61 266.44 357.26 234.93 332.80 229.02
  C 312.86 224.19 298.07 235.46 293.76 254.50"
/>
<path stroke="#94a3bc" vector-effect="non-scaling-stroke" d="
  M 124.52 296.94
  Q 124.46 267.71 124.49 238.49
  C 124.50 230.15 118.10 226.87 110.68 229.94
  C 108.20 230.95 94.01 237.27 91.64 241.34
  C 89.40 245.18 92.21 251.26 97.01 251.60
  C 100.58 251.86 105.79 248.88 109.01 247.06
  A 0.50 0.50 0.0 0 1 109.75 247.50
  L 109.75 296.79
  A 0.68 0.67 89.6 0 1 109.09 297.47
  C 104.89 297.57 98.34 296.67 95.00 298.66
  C 88.68 302.42 91.72 311.50 99.41 311.59
  Q 115.68 311.79 131.95 311.46
  Q 135.45 311.39 137.18 310.30
  C 140.75 308.05 141.12 303.27 138.66 300.06
  C 135.92 296.47 129.09 297.54 125.06 297.48
  Q 124.52 297.47 124.52 296.94"
/>
<path stroke="#94a3bc" vector-effect="non-scaling-stroke" d="
  M 249.53 297.45
  C 244.03 297.57 233.78 295.65 232.29 303.02
  C 231.08 308.96 235.35 311.47 240.76 311.49
  Q 257.00 311.52 273.24 311.49
  C 280.58 311.48 283.31 303.53 277.56 298.96
  C 274.62 296.64 268.82 297.51 265.30 297.49
  A 0.55 0.55 0.0 0 1 264.75 296.94
  Q 264.76 267.86 264.74 238.71
  Q 264.74 234.22 263.34 232.23
  C 257.36 223.71 241.99 234.52 235.79 237.79
  C 229.38 241.17 230.06 251.21 237.83 251.56
  C 241.24 251.72 245.98 248.77 249.48 247.17
  Q 250.00 246.93 250.00 247.51
  L 250.00 296.97
  Q 250.00 297.44 249.53 297.45"
/>
<path stroke="#94a3bc" vector-effect="non-scaling-stroke" d="
  M 405.27 296.97
  Q 405.21 267.57 405.25 238.17
  C 405.26 232.03 401.51 228.20 395.28 228.91
  C 391.12 229.38 375.36 237.30 372.85 240.59
  C 370.03 244.28 372.54 251.13 377.59 251.59
  C 381.23 251.92 386.46 248.94 389.78 247.08
  A 0.48 0.48 0.0 0 1 390.50 247.50
  L 390.50 296.80
  Q 390.50 297.47 389.83 297.48
  C 385.55 297.55 378.89 296.70 375.56 298.69
  C 371.66 301.02 371.47 307.98 375.57 310.49
  Q 377.26 311.52 380.66 311.52
  Q 397.21 311.53 413.78 311.47
  C 421.01 311.44 423.46 303.01 418.42 299.16
  C 415.30 296.79 409.78 297.43 405.84 297.52
  Q 405.27 297.53 405.27 296.97"
/>
<path stroke="#94a3bc" vector-effect="non-scaling-stroke" d="
  M 123.51 412.81
  C 131.41 424.78 143.92 429.11 157.80 425.53
  C 185.01 418.51 186.19 375.84 175.25 356.55
  C 165.72 339.76 141.91 337.08 128.55 349.48
  C 113.51 363.43 113.10 397.04 123.51 412.81"
/>
<path stroke="#94a3bc" vector-effect="non-scaling-stroke" d="
  M 257.95 371.73
  C 254.46 392.40 259.10 424.73 286.28 426.48
  C 305.81 427.74 316.34 416.65 320.41 399.12
  C 324.99 379.41 321.13 347.69 296.84 342.67
  C 275.45 338.25 261.34 351.66 257.95 371.73"
/>
<path stroke="#94a3bc" vector-effect="non-scaling-stroke" d="
  M 214.50 411.49
  C 210.56 411.52 203.49 410.70 200.30 412.48
  C 196.22 414.75 195.93 421.56 199.70 424.16
  Q 201.61 425.48 205.74 425.49
  Q 221.04 425.52 236.34 425.49
  Q 240.77 425.48 242.76 424.20
  C 246.77 421.64 246.28 414.25 241.77 412.24
  C 238.94 410.99 233.82 411.52 230.27 411.49
  Q 229.75 411.49 229.75 410.97
  Q 229.75 381.98 229.74 353.01
  C 229.74 348.04 228.26 343.60 222.99 343.02
  C 216.19 342.27 208.69 347.50 202.70 350.73
  Q 198.60 352.94 197.40 354.50
  C 194.59 358.16 196.93 364.82 201.82 365.50
  C 205.54 366.01 210.91 362.97 214.26 361.06
  A 0.50 0.49 -14.8 0 1 215.00 361.49
  L 215.00 410.98
  Q 215.00 411.48 214.50 411.49"
/>
<path stroke="#94a3bc" vector-effect="non-scaling-stroke" d="
  M 370.28 410.96
  Q 370.22 383.45 370.16 355.95
  C 370.15 353.06 370.49 350.11 369.25 347.44
  C 364.30 336.81 348.47 347.82 340.55 352.07
  C 336.06 354.48 335.33 360.45 338.98 363.83
  C 343.50 367.99 350.35 363.23 354.84 361.02
  A 0.35 0.34 -12.8 0 1 355.34 361.33
  L 355.22 411.12
  Q 355.22 411.51 354.83 411.51
  C 350.56 411.48 343.36 410.59 340.03 412.96
  C 336.41 415.53 336.61 422.41 340.82 424.63
  Q 342.43 425.48 345.83 425.49
  Q 361.47 425.53 377.10 425.48
  Q 381.15 425.46 383.04 424.30
  C 387.25 421.69 386.71 414.35 382.28 412.30
  C 379.40 410.97 374.39 411.52 370.81 411.49
  Q 370.28 411.49 370.28 410.96"
/>
<path stroke="#94a3bc" vector-effect="non-scaling-stroke" d="
  M 188.55 297.99
  C 206.90 293.23 206.83 245.70 187.32 242.40
  C 165.45 238.70 165.00 268.94 167.66 282.18
  C 169.79 292.79 176.68 301.07 188.55 297.99"
/>
<path stroke="#94a3bc" vector-effect="non-scaling-stroke" d="
  M 308.27 257.90
  C 305.28 270.52 305.73 302.32 327.60 298.41
  C 334.88 297.11 339.12 290.58 340.71 283.99
  C 343.60 272.03 344.32 243.01 325.40 242.13
  C 315.21 241.66 310.46 248.60 308.27 257.90"
/>
<path stroke="#94a3bc" vector-effect="non-scaling-stroke" d="
  M 137.41 407.15
  C 143.20 413.89 152.74 414.50 159.35 408.65
  C 169.68 399.52 170.48 361.18 154.24 356.69
  C 128.16 349.48 126.72 394.70 137.41 407.15"
/>
<path stroke="#94a3bc" vector-effect="non-scaling-stroke" d="
  M 279.69 409.06
  Q 286.34 414.62 294.22 411.94
  C 311.06 406.20 310.70 368.96 299.10 359.22
  C 293.35 354.40 283.71 355.27 278.91 360.07
  C 269.01 369.95 269.13 400.23 279.69 409.06"
/>
</g>
<path fill="#e5e8ef" d="
  M 427.20 15.02
  Q 436.50 18.51 438.75 19.76
  Q 452.23 27.22 456.52 41.46
  Q 458.24 47.18 458.40 59.71
  C 458.62 76.25 458.51 92.83 458.51 109.35
  C 458.51 219.34 458.78 329.36 458.29 439.36
  C 458.24 450.66 459.78 462.71 455.52 473.16
  Q 448.81 489.61 430.83 495.65
  Q 430.39 495.80 429.75 496.99
  Q 251.37 497.02 73.00 497.00
  C 55.50 496.99 40.00 486.37 35.20 469.49
  Q 33.76 464.43 33.76 453.75
  Q 33.77 302.55 33.71 152.04
  Q 86.63 152.39 139.35 152.26
  Q 149.86 152.24 154.35 150.71
  C 165.43 146.95 171.00 137.03 171.00 125.50
  Q 171.00 72.06 170.99 18.63
  C 170.99 17.62 170.62 16.43 170.38 15.42
  C 170.69 15.16 170.82 15.00 171.25 15.00
  Q 299.29 14.99 427.20 15.02
  Z
  M 241.11 60.33
  A 7.95 7.95 0.0 0 0 233.16 52.38
  L 218.02 52.38
  A 7.95 7.95 0.0 0 0 210.07 60.33
  L 210.07 61.23
  A 7.95 7.95 0.0 0 0 218.02 69.18
  L 233.16 69.18
  A 7.95 7.95 0.0 0 0 241.11 61.23
  L 241.11 60.33
  Z
  M 353.75 60.59
  A 8.32 8.32 0.0 0 0 345.43 52.27
  L 266.83 52.27
  A 8.32 8.32 0.0 0 0 258.51 60.59
  L 258.51 60.93
  A 8.32 8.32 0.0 0 0 266.83 69.25
  L 345.43 69.25
  A 8.32 8.32 0.0 0 0 353.75 60.93
  L 353.75 60.59
  Z
  M 305.96 99.59
  A 8.32 8.32 0.0 0 0 297.64 91.27
  L 218.88 91.27
  A 8.32 8.32 0.0 0 0 210.56 99.59
  L 210.56 99.91
  A 8.32 8.32 0.0 0 0 218.88 108.23
  L 297.64 108.23
  A 8.32 8.32 0.0 0 0 305.96 99.91
  L 305.96 99.59
  Z
  M 216.65 267.18
  C 215.97 252.45 210.71 234.40 194.74 229.53
  C 185.61 226.74 175.15 227.46 167.17 232.69
  C 150.74 243.45 149.71 269.30 153.56 286.14
  C 157.80 304.70 171.16 315.60 190.80 312.05
  C 211.82 308.26 217.48 285.18 216.65 267.18
  Z
  M 293.76 254.50
  C 287.85 280.55 295.84 317.90 331.04 312.00
  C 344.58 309.73 352.60 298.62 355.36 285.92
  C 359.61 266.44 357.26 234.93 332.80 229.02
  C 312.86 224.19 298.07 235.46 293.76 254.50
  Z
  M 124.52 296.94
  Q 124.46 267.71 124.49 238.49
  C 124.50 230.15 118.10 226.87 110.68 229.94
  C 108.20 230.95 94.01 237.27 91.64 241.34
  C 89.40 245.18 92.21 251.26 97.01 251.60
  C 100.58 251.86 105.79 248.88 109.01 247.06
  A 0.50 0.50 0.0 0 1 109.75 247.50
  L 109.75 296.79
  A 0.68 0.67 89.6 0 1 109.09 297.47
  C 104.89 297.57 98.34 296.67 95.00 298.66
  C 88.68 302.42 91.72 311.50 99.41 311.59
  Q 115.68 311.79 131.95 311.46
  Q 135.45 311.39 137.18 310.30
  C 140.75 308.05 141.12 303.27 138.66 300.06
  C 135.92 296.47 129.09 297.54 125.06 297.48
  Q 124.52 297.47 124.52 296.94
  Z
  M 249.53 297.45
  C 244.03 297.57 233.78 295.65 232.29 303.02
  C 231.08 308.96 235.35 311.47 240.76 311.49
  Q 257.00 311.52 273.24 311.49
  C 280.58 311.48 283.31 303.53 277.56 298.96
  C 274.62 296.64 268.82 297.51 265.30 297.49
  A 0.55 0.55 0.0 0 1 264.75 296.94
  Q 264.76 267.86 264.74 238.71
  Q 264.74 234.22 263.34 232.23
  C 257.36 223.71 241.99 234.52 235.79 237.79
  C 229.38 241.17 230.06 251.21 237.83 251.56
  C 241.24 251.72 245.98 248.77 249.48 247.17
  Q 250.00 246.93 250.00 247.51
  L 250.00 296.97
  Q 250.00 297.44 249.53 297.45
  Z
  M 405.27 296.97
  Q 405.21 267.57 405.25 238.17
  C 405.26 232.03 401.51 228.20 395.28 228.91
  C 391.12 229.38 375.36 237.30 372.85 240.59
  C 370.03 244.28 372.54 251.13 377.59 251.59
  C 381.23 251.92 386.46 248.94 389.78 247.08
  A 0.48 0.48 0.0 0 1 390.50 247.50
  L 390.50 296.80
  Q 390.50 297.47 389.83 297.48
  C 385.55 297.55 378.89 296.70 375.56 298.69
  C 371.66 301.02 371.47 307.98 375.57 310.49
  Q 377.26 311.52 380.66 311.52
  Q 397.21 311.53 413.78 311.47
  C 421.01 311.44 423.46 303.01 418.42 299.16
  C 415.30 296.79 409.78 297.43 405.84 297.52
  Q 405.27 297.53 405.27 296.97
  Z
  M 123.51 412.81
  C 131.41 424.78 143.92 429.11 157.80 425.53
  C 185.01 418.51 186.19 375.84 175.25 356.55
  C 165.72 339.76 141.91 337.08 128.55 349.48
  C 113.51 363.43 113.10 397.04 123.51 412.81
  Z
  M 257.95 371.73
  C 254.46 392.40 259.10 424.73 286.28 426.48
  C 305.81 427.74 316.34 416.65 320.41 399.12
  C 324.99 379.41 321.13 347.69 296.84 342.67
  C 275.45 338.25 261.34 351.66 257.95 371.73
  Z
  M 214.50 411.49
  C 210.56 411.52 203.49 410.70 200.30 412.48
  C 196.22 414.75 195.93 421.56 199.70 424.16
  Q 201.61 425.48 205.74 425.49
  Q 221.04 425.52 236.34 425.49
  Q 240.77 425.48 242.76 424.20
  C 246.77 421.64 246.28 414.25 241.77 412.24
  C 238.94 410.99 233.82 411.52 230.27 411.49
  Q 229.75 411.49 229.75 410.97
  Q 229.75 381.98 229.74 353.01
  C 229.74 348.04 228.26 343.60 222.99 343.02
  C 216.19 342.27 208.69 347.50 202.70 350.73
  Q 198.60 352.94 197.40 354.50
  C 194.59 358.16 196.93 364.82 201.82 365.50
  C 205.54 366.01 210.91 362.97 214.26 361.06
  A 0.50 0.49 -14.8 0 1 215.00 361.49
  L 215.00 410.98
  Q 215.00 411.48 214.50 411.49
  Z
  M 370.28 410.96
  Q 370.22 383.45 370.16 355.95
  C 370.15 353.06 370.49 350.11 369.25 347.44
  C 364.30 336.81 348.47 347.82 340.55 352.07
  C 336.06 354.48 335.33 360.45 338.98 363.83
  C 343.50 367.99 350.35 363.23 354.84 361.02
  A 0.35 0.34 -12.8 0 1 355.34 361.33
  L 355.22 411.12
  Q 355.22 411.51 354.83 411.51
  C 350.56 411.48 343.36 410.59 340.03 412.96
  C 336.41 415.53 336.61 422.41 340.82 424.63
  Q 342.43 425.48 345.83 425.49
  Q 361.47 425.53 377.10 425.48
  Q 381.15 425.46 383.04 424.30
  C 387.25 421.69 386.71 414.35 382.28 412.30
  C 379.40 410.97 374.39 411.52 370.81 411.49
  Q 370.28 411.49 370.28 410.96
  Z"
/>
<path fill="#c5d3dd" d="
  M 427.20 15.02
  C 434.99 15.00 443.79 14.13 451.26 16.46
  C 464.08 20.47 473.59 30.28 476.99 42.95
  Q 478.49 48.52 478.49 61.32
  Q 478.51 259.54 478.50 457.75
  C 478.50 476.30 466.54 492.40 448.29 496.23
  C 442.78 497.38 435.87 497.05 429.75 496.99
  Q 430.39 495.80 430.83 495.65
  Q 448.81 489.61 455.52 473.16
  C 459.78 462.71 458.24 450.66 458.29 439.36
  C 458.78 329.36 458.51 219.34 458.51 109.35
  C 458.51 92.83 458.62 76.25 458.40 59.71
  Q 458.24 47.18 456.52 41.46
  Q 452.23 27.22 438.75 19.76
  Q 436.50 18.51 427.20 15.02
  Z"
/>
<path fill="#4cc66e" d="
  M 170.38 15.42
  C 170.62 16.43 170.99 17.62 170.99 18.63
  Q 171.00 72.06 171.00 125.50
  C 171.00 137.03 165.43 146.95 154.35 150.71
  Q 149.86 152.24 139.35 152.26
  Q 86.63 152.39 33.71 152.04
  L 170.38 15.42
  Z"
/>
<rect fill="#c5d3dd" x="210.07" y="52.38" width="31.04" height="16.80" rx="7.95"/>
<rect fill="#c5d3dd" x="258.51" y="52.27" width="95.24" height="16.98" rx="8.32"/>
<rect fill="#c5d3dd" x="210.56" y="91.27" width="95.40" height="16.96" rx="8.32"/>
<path fill="#435e88" d="
  M 194.74 229.53
  C 210.71 234.40 215.97 252.45 216.65 267.18
  C 217.48 285.18 211.82 308.26 190.80 312.05
  C 171.16 315.60 157.80 304.70 153.56 286.14
  C 149.71 269.30 150.74 243.45 167.17 232.69
  C 175.15 227.46 185.61 226.74 194.74 229.53
  Z
  M 188.55 297.99
  C 206.90 293.23 206.83 245.70 187.32 242.40
  C 165.45 238.70 165.00 268.94 167.66 282.18
  C 169.79 292.79 176.68 301.07 188.55 297.99
  Z"
/>
<path fill="#435e88" d="
  M 331.04 312.00
  C 295.84 317.90 287.85 280.55 293.76 254.50
  C 298.07 235.46 312.86 224.19 332.80 229.02
  C 357.26 234.93 359.61 266.44 355.36 285.92
  C 352.60 298.62 344.58 309.73 331.04 312.00
  Z
  M 308.27 257.90
  C 305.28 270.52 305.73 302.32 327.60 298.41
  C 334.88 297.11 339.12 290.58 340.71 283.99
  C 343.60 272.03 344.32 243.01 325.40 242.13
  C 315.21 241.66 310.46 248.60 308.27 257.90
  Z"
/>
<path fill="#435e88" d="
  M 125.06 297.48
  C 129.09 297.54 135.92 296.47 138.66 300.06
  C 141.12 303.27 140.75 308.05 137.18 310.30
  Q 135.45 311.39 131.95 311.46
  Q 115.68 311.79 99.41 311.59
  C 91.72 311.50 88.68 302.42 95.00 298.66
  C 98.34 296.67 104.89 297.57 109.09 297.47
  A 0.68 0.67 89.6 0 0 109.75 296.79
  L 109.75 247.50
  A 0.50 0.50 0.0 0 0 109.01 247.06
  C 105.79 248.88 100.58 251.86 97.01 251.60
  C 92.21 251.26 89.40 245.18 91.64 241.34
  C 94.01 237.27 108.20 230.95 110.68 229.94
  C 118.10 226.87 124.50 230.15 124.49 238.49
  Q 124.46 267.71 124.52 296.94
  Q 124.52 297.47 125.06 297.48
  Z"
/>
<path fill="#435e88" d="
  M 250.00 296.97
  L 250.00 247.51
  Q 250.00 246.93 249.48 247.17
  C 245.98 248.77 241.24 251.72 237.83 251.56
  C 230.06 251.21 229.38 241.17 235.79 237.79
  C 241.99 234.52 257.36 223.71 263.34 232.23
  Q 264.74 234.22 264.74 238.71
  Q 264.76 267.86 264.75 296.94
  A 0.55 0.55 0.0 0 0 265.30 297.49
  C 268.82 297.51 274.62 296.64 277.56 298.96
  C 283.31 303.53 280.58 311.48 273.24 311.49
  Q 257.00 311.52 240.76 311.49
  C 235.35 311.47 231.08 308.96 232.29 303.02
  C 233.78 295.65 244.03 297.57 249.53 297.45
  Q 250.00 297.44 250.00 296.97
  Z"
/>
<path fill="#435e88" d="
  M 405.84 297.52
  C 409.78 297.43 415.30 296.79 418.42 299.16
  C 423.46 303.01 421.01 311.44 413.78 311.47
  Q 397.21 311.53 380.66 311.52
  Q 377.26 311.52 375.57 310.49
  C 371.47 307.98 371.66 301.02 375.56 298.69
  C 378.89 296.70 385.55 297.55 389.83 297.48
  Q 390.50 297.47 390.50 296.80
  L 390.50 247.50
  A 0.48 0.48 0.0 0 0 389.78 247.08
  C 386.46 248.94 381.23 251.92 377.59 251.59
  C 372.54 251.13 370.03 244.28 372.85 240.59
  C 375.36 237.30 391.12 229.38 395.28 228.91
  C 401.51 228.20 405.26 232.03 405.25 238.17
  Q 405.21 267.57 405.27 296.97
  Q 405.27 297.53 405.84 297.52
  Z"
/>
<path fill="#e5e8ef" d="
  M 187.32 242.40
  C 206.83 245.70 206.90 293.23 188.55 297.99
  C 176.68 301.07 169.79 292.79 167.66 282.18
  C 165.00 268.94 165.45 238.70 187.32 242.40
  Z"
/>
<path fill="#e5e8ef" d="
  M 327.60 298.41
  C 305.73 302.32 305.28 270.52 308.27 257.90
  C 310.46 248.60 315.21 241.66 325.40 242.13
  C 344.32 243.01 343.60 272.03 340.71 283.99
  C 339.12 290.58 334.88 297.11 327.60 298.41
  Z"
/>
<path fill="#435e88" d="
  M 123.51 412.81
  C 113.10 397.04 113.51 363.43 128.55 349.48
  C 141.91 337.08 165.72 339.76 175.25 356.55
  C 186.19 375.84 185.01 418.51 157.80 425.53
  C 143.92 429.11 131.41 424.78 123.51 412.81
  Z
  M 137.41 407.15
  C 143.20 413.89 152.74 414.50 159.35 408.65
  C 169.68 399.52 170.48 361.18 154.24 356.69
  C 128.16 349.48 126.72 394.70 137.41 407.15
  Z"
/>
<path fill="#435e88" d="
  M 286.28 426.48
  C 259.10 424.73 254.46 392.40 257.95 371.73
  C 261.34 351.66 275.45 338.25 296.84 342.67
  C 321.13 347.69 324.99 379.41 320.41 399.12
  C 316.34 416.65 305.81 427.74 286.28 426.48
  Z
  M 279.69 409.06
  Q 286.34 414.62 294.22 411.94
  C 311.06 406.20 310.70 368.96 299.10 359.22
  C 293.35 354.40 283.71 355.27 278.91 360.07
  C 269.01 369.95 269.13 400.23 279.69 409.06
  Z"
/>
<path fill="#435e88" d="
  M 215.00 410.98
  L 215.00 361.49
  A 0.50 0.49 -14.8 0 0 214.26 361.06
  C 210.91 362.97 205.54 366.01 201.82 365.50
  C 196.93 364.82 194.59 358.16 197.40 354.50
  Q 198.60 352.94 202.70 350.73
  C 208.69 347.50 216.19 342.27 222.99 343.02
  C 228.26 343.60 229.74 348.04 229.74 353.01
  Q 229.75 381.98 229.75 410.97
  Q 229.75 411.49 230.27 411.49
  C 233.82 411.52 238.94 410.99 241.77 412.24
  C 246.28 414.25 246.77 421.64 242.76 424.20
  Q 240.77 425.48 236.34 425.49
  Q 221.04 425.52 205.74 425.49
  Q 201.61 425.48 199.70 424.16
  C 195.93 421.56 196.22 414.75 200.30 412.48
  C 203.49 410.70 210.56 411.52 214.50 411.49
  Q 215.00 411.48 215.00 410.98
  Z"
/>
<path fill="#435e88" d="
  M 370.81 411.49
  C 374.39 411.52 379.40 410.97 382.28 412.30
  C 386.71 414.35 387.25 421.69 383.04 424.30
  Q 381.15 425.46 377.10 425.48
  Q 361.47 425.53 345.83 425.49
  Q 342.43 425.48 340.82 424.63
  C 336.61 422.41 336.41 415.53 340.03 412.96
  C 343.36 410.59 350.56 411.48 354.83 411.51
  Q 355.22 411.51 355.22 411.12
  L 355.34 361.33
  A 0.35 0.34 -12.8 0 0 354.84 361.02
  C 350.35 363.23 343.50 367.99 338.98 363.83
  C 335.33 360.45 336.06 354.48 340.55 352.07
  C 348.47 347.82 364.30 336.81 369.25 347.44
  C 370.49 350.11 370.15 353.06 370.16 355.95
  Q 370.22 383.45 370.28 410.96
  Q 370.28 411.49 370.81 411.49
  Z"
/>
<path fill="#e5e8ef" d="
  M 137.41 407.15
  C 126.72 394.70 128.16 349.48 154.24 356.69
  C 170.48 361.18 169.68 399.52 159.35 408.65
  C 152.74 414.50 143.20 413.89 137.41 407.15
  Z"
/>
<path fill="#e5e8ef" d="
  M 279.69 409.06
  C 269.13 400.23 269.01 369.95 278.91 360.07
  C 283.71 355.27 293.35 354.40 299.10 359.22
  C 310.70 368.96 311.06 406.20 294.22 411.94
  Q 286.34 414.62 279.69 409.06
  Z"
/>
</svg>
