<?xml version="1.0" encoding="UTF-8" standalone="no"?>
<!DOCTYPE svg PUBLIC "-//W3C//DTD SVG 1.1//EN" "http://www.w3.org/Graphics/SVG/1.1/DTD/svg11.dtd">
<svg xmlns="http://www.w3.org/2000/svg" version="1.1" viewBox="0.00 0.00 512.00 512.00">
<g stroke-width="2.00" fill="none" stroke-linecap="butt">
<path stroke="#00b6ed" vector-effect="non-scaling-stroke" d="
  M 389.90 90.80
  L 369.03 112.02"
/>
<path stroke="#00b6ed" vector-effect="non-scaling-stroke" d="
  M 433.07 48.75
  Q 432.93 48.92 432.57 48.94
  Q 432.13 48.97 431.82 49.28
  L 411.50 69.80"
/>
<path stroke="#6fa6b8" vector-effect="non-scaling-stroke" d="
  M 252.33 207.46
  L 262.86 218.05"
/>
<path stroke="#d2e7ec" vector-effect="non-scaling-stroke" d="
  M 262.86 218.05
  L 136.31 344.64
  Q 135.93 345.01 135.53 344.67
  Q 129.77 339.62 125.18 333.46
  Q 124.88 333.06 124.41 332.86
  Q 123.67 332.55 123.17 331.41"
/>
<path stroke="#00b6ed" vector-effect="non-scaling-stroke" d="
  M 347.79 133.25
  Q 317.31 163.36 287.18 193.82
  C 286.33 194.67 285.61 196.21 284.06 196.56"
/>
<path stroke="#0090b8" vector-effect="non-scaling-stroke" d="
  M 284.06 196.56
  Q 279.00 190.94 275.29 184.50"
/>
<path stroke="#0079a4" vector-effect="non-scaling-stroke" d="
  M 296.71 205.69
  Q 290.03 202.40 284.55 197.16"
/>
<path stroke="#0086b4" vector-effect="non-scaling-stroke" d="
  M 284.55 197.16
  Q 284.12 196.85 284.06 196.56"
/>
<path stroke="#00536f" vector-effect="non-scaling-stroke" d="
  M 284.55 197.16
  C 282.93 197.46 264.13 216.33 263.42 218.28"
/>
<path stroke="#63a1b3" vector-effect="non-scaling-stroke" d="
  M 263.42 218.28
  Q 263.08 218.23 262.86 218.05"
/>
<path stroke="#6394a3" vector-effect="non-scaling-stroke" d="
  M 273.76 228.62
  L 263.42 218.28"
/>
<path stroke="#aaced6" vector-effect="non-scaling-stroke" d="
  M 228.25 396.79
  Q 195.59 388.83 166.82 370.22
  Q 166.01 369.69 166.01 370.66
  L 166.04 481.97"
/>
<path stroke="#6394a3" vector-effect="non-scaling-stroke" d="
  M 166.04 481.97
  Q 166.02 482.01 166.00 482.04"
/>
<path stroke="#63a1b3" vector-effect="non-scaling-stroke" d="
  M 166.00 482.04
  L 94.23 481.94
  Q 94.04 481.94 94.00 481.75
  Q 93.97 481.63 93.98 481.50"
/>
<path stroke="#478092" vector-effect="non-scaling-stroke" d="
  M 239.36 481.49
  Q 239.29 481.61 239.25 481.72
  Q 239.16 481.94 238.93 481.94
  L 166.04 481.97"
/>
<path stroke="#00536f" vector-effect="non-scaling-stroke" d="
  M 166.00 482.04
  L 165.83 512.00"
/>
</g>
<path fill="#00c0f1" d="
  M 316.31 0.00
  L 319.07 0.00
  Q 385.76 2.36 433.07 48.75
  Q 432.93 48.92 432.57 48.94
  Q 432.13 48.97 431.82 49.28
  L 411.50 69.80
  Q 371.83 31.13 316.71 30.04
  Q 316.15 30.03 316.15 29.47
  L 316.31 0.00
  Z"
/>
<path fill="#00abe9" d="
  M 433.07 48.75
  Q 478.89 95.57 481.32 163.44
  Q 481.38 165.00 479.81 165.00
  L 451.50 165.00
  A 0.76 0.75 89.6 0 1 450.75 164.25
  C 450.22 131.73 439.06 101.24 417.72 76.89
  Q 414.47 73.19 411.50 69.80
  L 431.82 49.28
  Q 432.13 48.97 432.57 48.94
  Q 432.93 48.92 433.07 48.75
  Z"
/>
<path fill="#00c0f1" d="
  M 389.90 90.80
  L 369.03 112.02
  Q 347.35 90.68 316.54 90.06
  Q 316.00 90.05 316.00 89.51
  L 316.00 60.52
  A 0.50 0.50 0.0 0 1 316.52 60.02
  Q 359.28 60.98 389.90 90.80
  Z"
/>
<path fill="#deecf1" d="
  M 252.33 207.46
  L 262.86 218.05
  L 136.31 344.64
  Q 135.93 345.01 135.53 344.67
  Q 129.77 339.62 125.18 333.46
  Q 124.88 333.06 124.41 332.86
  Q 123.67 332.55 123.17 331.41
  C 70.78 266.47 64.10 177.85 107.12 106.16
  Q 113.27 95.92 124.75 80.57
  Q 125.05 80.18 125.40 80.53
  L 252.33 207.46
  Z"
/>
<path fill="#00abe9" d="
  M 389.90 90.80
  Q 416.01 116.68 420.49 154.01
  Q 421.15 159.52 420.98 164.34
  Q 420.95 165.00 420.29 165.00
  L 391.52 165.00
  A 0.74 0.74 0.0 0 1 390.78 164.27
  Q 390.07 133.91 369.03 112.02
  L 389.90 90.80
  Z"
/>
<path fill="#00c0f1" d="
  M 347.79 133.25
  Q 317.31 163.36 287.18 193.82
  C 286.33 194.67 285.61 196.21 284.06 196.56
  Q 279.00 190.94 275.29 184.50
  C 255.27 138.23 311.00 98.33 347.79 133.25
  Z"
/>
<path fill="#00abe9" d="
  M 347.79 133.25
  C 383.03 169.51 342.52 226.36 296.71 205.69
  Q 290.03 202.40 284.55 197.16
  Q 284.12 196.85 284.06 196.56
  C 285.61 196.21 286.33 194.67 287.18 193.82
  Q 317.31 163.36 347.79 133.25
  Z"
/>
<path fill="#00607f" d="
  M 275.29 184.50
  Q 279.00 190.94 284.06 196.56
  Q 284.12 196.85 284.55 197.16
  C 282.93 197.46 264.13 216.33 263.42 218.28
  Q 263.08 218.23 262.86 218.05
  L 252.33 207.46
  L 275.29 184.50
  Z"
/>
<path fill="#00465f" d="
  M 284.55 197.16
  Q 290.03 202.40 296.71 205.69
  L 273.76 228.62
  L 263.42 218.28
  C 264.13 216.33 282.93 197.46 284.55 197.16
  Z"
/>
<path fill="#c6e2e7" d="
  M 262.86 218.05
  Q 263.08 218.23 263.42 218.28
  L 273.76 228.62
  L 400.71 355.58
  A 0.57 0.57 0.0 0 1 400.64 356.44
  C 389.00 364.92 376.57 373.58 364.17 380.00
  Q 300.29 413.09 228.25 396.79
  Q 195.59 388.83 166.82 370.22
  Q 166.01 369.69 166.01 370.66
  L 166.04 481.97
  Q 166.02 482.01 166.00 482.04
  L 94.23 481.94
  Q 94.04 481.94 94.00 481.75
  Q 93.97 481.63 93.98 481.50
  L 123.17 331.41
  Q 123.67 332.55 124.41 332.86
  Q 124.88 333.06 125.18 333.46
  Q 129.77 339.62 135.53 344.67
  Q 135.93 345.01 136.31 344.64
  L 262.86 218.05
  Z"
/>
<path fill="#8ebac5" d="
  M 228.25 396.79
  L 239.36 481.49
  Q 239.29 481.61 239.25 481.72
  Q 239.16 481.94 238.93 481.94
  L 166.04 481.97
  L 166.01 370.66
  Q 166.01 369.69 166.82 370.22
  Q 195.59 388.83 228.25 396.79
  Z"
/>
<path fill="#00607f" d="
  M 93.98 481.50
  Q 93.97 481.63 94.00 481.75
  Q 94.04 481.94 94.23 481.94
  L 166.00 482.04
  L 165.83 512.00
  L 31.11 512.00
  L 31.07 482.65
  Q 31.07 482.00 31.72 482.00
  L 93.00 482.00
  Q 93.37 482.00 93.63 481.73
  Q 93.79 481.56 93.98 481.50
  Z"
/>
<path fill="#00465f" d="
  M 239.36 481.49
  L 239.54 481.68
  Q 239.83 482.00 240.27 482.00
  L 300.28 482.00
  Q 300.91 482.00 300.90 482.63
  L 300.78 512.00
  L 165.83 512.00
  L 166.00 482.04
  Q 166.02 482.01 166.04 481.97
  L 238.93 481.94
  Q 239.16 481.94 239.25 481.72
  Q 239.29 481.61 239.36 481.49
  Z"
/>
</svg>
