<?xml version="1.0" encoding="UTF-8"?>
<svg id="_Слой_2" data-name="Слой 2" xmlns="http://www.w3.org/2000/svg" viewBox="0 0 36.84 37.25">
  <defs>
    <style>
      .cls-1 {
        fill: #fff;
      }

      .cls-2 {
        fill: none;
        stroke-miterlimit: 10;
        stroke-width: 2.9px;
      }

      .cls-2, .cls-3 {
        stroke: #fff;
      }

      .cls-3 {
        stroke-linecap: round;
        stroke-linejoin: round;
        stroke-width: 2.9px;
      }

      .cls-3, .cls-4 {
        fill: #9bc765;
      }

      .cls-5 {
        fill: #f2c61e;
      }
    </style>
  </defs>
  <g id="set-value">
    <path class="cls-4" d="m36.84,18.64v.83c-.29,4.94-2.16,9.12-5.58,12.52-3.26,3.24-7.53,5.02-12.11,5.26h-1.47c-2.71-.11-5.26-.8-7.63-2.02C4,32.04.21,26.01,0,19.1v-.46"/>
    <path class="cls-1" d="m19.31,18.64c.42,1.01.95,2.27,1.37,3.3.11.27.37.19.55.03.29-.32.58-.64.89-.96.16-.16.29-.27.39-.32.92-.48,1.92.43,1.63,1.36-.05.16-.21.37-.42.64-1,1.06-1.89,2.13-3.53,1.65-1.39-.37-1.76-1.7-2.24-2.92t-.03-.05c-.08-.08-.18-.08-.26-.03,0,.03-.03.03-.03.05-.5.72-.97,1.46-1.45,2.21h0c-.5.72-1.47,1.06-2.32.82-1.16-.35-1.08-2.07.13-2.26.11-.03.21-.03.32-.03.03,0,.05-.03.08-.05l2.28-3.44"/>
    <path class="cls-1" d="m16.21,12.85c.55,0,.87.4,1.11.93.29.72.58,1.41.87,2.1"/>
    <path class="cls-5" d="m20.77,4.77c-.03.81-.03.27,0,1.08.03,1.79.2,1.79,1.37,1.79.37,0,1.73-.14,1.81.54.01.11-.02.22-.07.32-.26.45-1.28,2.07-2.51,3.93q-2.57,3.84-2.94,3.84t-2.94-3.84c-1.21-1.83-2.24-3.44-2.53-3.91-.07-.12-.1-.27-.06-.4.18-.61,1.43-.48,1.79-.48,1.13,0,1.34,0,1.4-1.79,0-.88.03-.44.07-1.28V0h4.63l-.02,4.77Z"/>
    <polyline class="cls-3" points="24.55 28.09 28.69 28.07 28.69 20.13"/>
    <polyline class="cls-3" points="12.77 27.96 8.68 27.96 8.68 20.13"/>
    <line class="cls-2" x1="8.68" y1="20.31" x2="8.68" y2="18.64"/>
    <line class="cls-2" x1="28.69" y1="20.86" x2="28.69" y2="18.64"/>
  </g>
</svg>