<?xml version="1.0" encoding="UTF-8" standalone="no"?>
<svg
   version="1.1"
   viewBox="0.00 0.00 512.00 512.00"
   id="svg8"
   xmlns="http://www.w3.org/2000/svg"
   xmlns:svg="http://www.w3.org/2000/svg">
  <defs
     id="defs8" />
  <path
     id="path13"
     style="color:#000000;fill:#000000;stroke-width:0.93225;-inkscape-stroke:none"
     d="m 139.08823,46.288954 c -9.19941,-1.581662 -19.22893,3.23933 -23.42888,11.638534 -2.58494,4.889707 -2.94896,10.502258 -4.13897,15.810025 C 88.848255,190.56531 66.189389,307.39575 43.50903,424.22191 c -1.008809,4.76167 -1.879401,9.74437 -0.721683,14.5646 1.790217,8.54874 9.167637,15.52345 17.743484,17.02595 4.868598,0.87998 10.002413,-0.0809 14.348584,-2.39952 4.997532,-2.663 8.973587,-7.27644 10.605771,-12.726 1.374659,-4.21653 1.802649,-8.6571 2.788862,-12.96697 8.946319,-46.00897 17.892742,-92.01791 26.839062,-138.02689 14.79791,2.8803 29.59583,5.76061 44.39375,8.64091 -1.08627,5.82739 -2.32916,11.66463 -2.57535,17.60284 -0.20325,11.73974 5.10484,23.34115 13.84078,31.13106 5.61635,5.07529 12.66967,8.54133 20.13163,9.83769 13.45607,2.87047 27.01671,5.21239 40.53064,7.78807 22.70209,4.31016 45.37278,8.78378 68.06197,13.16111 41.68244,8.08802 83.36711,16.16883 125.05679,24.21679 6.93164,0.84922 13.90773,-3.61441 16.55654,-9.97897 1.4202,-3.30492 1.63722,-7.08056 0.63302,-10.53287 -0.66708,-2.46998 -1.95138,-4.70546 -2.89402,-7.07216 -14.32511,-32.87682 -28.62199,-65.76596 -42.9362,-98.64755 27.29293,-26.84305 54.62135,-53.65069 81.85765,-80.54824 4.39213,-5.05885 4.77011,-12.90281 1.41473,-18.60424 -1.75941,-3.06096 -4.5781,-5.46177 -7.8654,-6.74379 -2.64648,-1.10131 -5.5317,-1.31218 -8.30592,-1.92724 -27.69929,-5.3238 -55.38179,-10.73468 -83.0746,-16.0921 -30.24115,-5.86575 -60.48233,-11.73149 -90.72337,-17.59784 1.10119,-5.79942 2.31043,-11.58455 3.19781,-17.42019 0.55274,-8.18546 -5.90958,-16.08113 -13.98427,-17.336435 -8.11176,-1.488159 -16.19511,-3.127418 -24.29563,-4.675671 -32.51276,-6.309826 -65.02554,-12.619652 -97.5383,-18.929479 0.7133,-3.583499 1.2299,-7.289027 0.54944,-10.921047 -0.65845,-4.431957 -2.47194,-8.781947 -5.6653,-11.988996 -3.28894,-3.47241 -7.67889,-5.908036 -12.39131,-6.765669 z M 252.06906,159.39939 c -7.76637,39.97105 -15.53233,79.94219 -23.29861,119.91326 -12.53667,-2.45891 -25.09867,-4.787 -37.67324,-7.04265 -3.34365,-0.6187 -6.65035,-1.44253 -9.98113,-2.10513 -1.67436,-0.10368 -3.29139,-0.61673 -4.94683,-0.86707 -18.33659,-3.57981 -36.67438,-7.1534 -55.01353,-10.72003 9.8131,-50.49722 19.62693,-100.9943 29.44035,-151.49146 35.85322,6.95845 71.70623,13.91792 107.55945,20.87637 -2.02909,10.47889 -4.05766,20.95789 -6.08642,31.43683 z m 156.59898,59.45207 c -14.4944,14.25939 -29.03158,28.47706 -43.43964,42.82205 -4.47785,5.18948 -5.00624,13.15915 -1.74024,19.10042 12.23524,28.1119 24.47049,56.2238 36.70573,84.3357 -50.10059,-9.72233 -100.2014,-19.44362 -150.3022,-29.16493 2.14457,-11.61147 4.51556,-23.18219 7.08106,-34.70726 1.58305,-6.04136 2.48111,-12.23187 3.75391,-18.34088 7.51513,-39.01996 15.13512,-78.02018 22.44463,-117.07934 0.0108,-0.71855 0.97204,-0.046 1.43904,-0.0969 49.58901,9.61558 99.17799,19.23126 148.76701,28.84674 -8.23643,8.09476 -16.47285,16.18953 -24.70929,24.28428 z m -202.40813,88.37186 c 5.45405,1.06203 10.90849,2.12202 16.36252,3.18405 -1.32918,6.52965 -2.63108,13.0652 -3.84205,19.61792 -6.9449,-1.30174 -13.90418,-2.538 -20.80473,-4.06312 -1.00929,-0.25808 -2.25303,-0.45363 -3.31586,-0.8051 -3.81063,-1.64847 -6.57221,-5.88269 -5.86764,-10.08325 0.44892,-3.59487 1.19062,-7.14579 1.85734,-10.70486 5.20022,0.96916 10.41018,1.88519 15.6104,2.8544 z" />
  <path
     id="path18"
     style="color:#000000;fill:#ffffff;stroke-width:0.93225;-inkscape-stroke:none"
     d="m 137.54503,53.597732 c -6.32681,-0.920537 -13.16877,2.627151 -15.66997,8.590644 -1.58183,3.572223 -1.848,7.522722 -2.70779,11.293537 C 96.468008,190.47002 73.755928,307.4557 51.072044,424.44675 c -0.780324,4.15078 -1.999761,8.42814 -1.014446,12.6558 0.601113,2.98029 2.230372,5.69831 4.500728,7.70897 3.142645,2.90375 7.609757,4.45362 11.864646,3.66633 5.290056,-0.75689 10.160493,-4.50686 11.820376,-9.65226 1.25514,-3.55605 1.557973,-7.34654 2.413372,-11.00232 9.518992,-48.95821 19.03788,-97.91642 28.55677,-146.87464 19.67262,3.82774 39.3452,7.65578 59.01777,11.48373 -1.30419,7.02039 -2.84438,14.00895 -3.70076,21.10269 -0.7698,7.86642 1.55746,15.91544 6.16119,22.31177 4.84131,6.81207 12.23038,11.87729 20.46767,13.49198 8.92044,1.95269 17.90896,3.57696 26.88113,5.27121 12.90416,2.38511 25.80242,4.80268 38.676,7.34832 56.23165,10.91367 112.46558,21.81548 168.70137,32.70779 4.63611,0.50986 9.03964,-3.42131 9.46058,-7.98649 0.30421,-2.92467 -1.31725,-5.54426 -2.43137,-8.12614 -5.6266,-13.05083 -11.3224,-26.07277 -16.98484,-39.10849 -9.47672,-21.77777 -18.9578,-43.55364 -28.43667,-65.33047 28.37195,-27.88981 56.74976,-55.77369 85.09736,-83.68825 3.09092,-3.65397 2.15916,-9.72129 -1.63897,-12.51904 -2.42215,-1.78684 -5.56548,-1.76646 -8.38196,-2.44893 -60.54113,-11.74395 -121.08237,-23.48729 -181.62355,-35.23094 1.51664,-7.92297 3.12964,-15.83263 4.49094,-23.78209 0.26455,-4.82081 -3.847,-9.30451 -8.62787,-9.64508 -42.82366,-8.310633 -85.6473,-16.621475 -128.47097,-24.932113 0.74695,-4.068669 1.6877,-8.113758 2.15288,-12.226187 0.0266,-3.089698 -0.57168,-6.245437 -2.04109,-8.980825 -2.27349,-3.680721 -6.15078,-6.372896 -10.43735,-7.063379 z M 259.03146,162.65038 c -8.11566,41.80442 -16.24003,83.60712 -24.36209,125.4103 -14.45335,-2.83207 -28.91351,-5.63545 -43.42331,-8.16512 -3.5762,-0.64551 -7.12093,-1.46771 -10.67459,-2.21059 -1.28328,-0.0259 -2.40604,-0.48895 -3.69625,-0.64675 -21.48246,-4.21209 -42.97338,-8.38085 -64.46184,-12.56218 10.76057,-55.37749 21.52185,-110.75484 32.28273,-166.132262 40.73348,7.905912 81.46679,15.812842 122.20027,23.718752 -2.62233,13.52924 -5.24364,27.05867 -7.86496,40.5881 z m 155.72879,60.66681 c -14.19639,13.96498 -28.41406,27.9081 -42.56666,41.91706 -1.04086,1.00601 -2.09144,2.05162 -2.61597,3.43413 -1.25032,2.92487 -0.8286,6.37009 0.73315,9.0928 14.12743,32.45743 28.25483,64.91486 42.38224,97.37229 -57.14962,-11.09083 -114.29943,-22.18063 -171.44926,-33.27044 2.41728,-13.9061 5.27543,-27.73233 8.24678,-41.52865 1.44812,-5.02932 2.17594,-10.2238 3.23478,-15.34096 7.48745,-38.80745 15.03896,-77.60287 22.36358,-116.44147 0.73151,-3.95032 1.42416,-7.90792 2.19502,-11.85086 57.14508,11.08241 114.29014,22.16492 171.43521,33.24734 -11.31964,11.12293 -22.63927,22.24586 -33.95892,33.36878 z m -207.13081,76.57476 c 7.9342,1.5446 15.8684,3.08919 23.80252,4.63408 -2.33637,11.37566 -4.64737,22.75854 -6.65761,34.19716 -10.60559,-2.00055 -21.25658,-3.80553 -31.77683,-6.22208 -6.58404,-2.19082 -11.62129,-8.67359 -11.77476,-15.65859 0.0902,-4.52181 1.24101,-8.92563 2.0033,-13.36134 0.50487,-2.61147 1.01178,-5.22254 1.52279,-7.83283 7.6065,1.52212 15.25632,2.81471 22.88045,4.24357 z" />
</svg>
