<svg
   version="1.1"
   width="512"
   height="512"
   viewBox="0 0 512 512"
   xmlns="http://www.w3.org/2000/svg"
   xmlns:svg="http://www.w3.org/2000/svg">
  <path
     style="fill:#000000"
     d="m 257.16602,31.166016 c -1.50449,0.05964 -2.85753,0.177861 -4.38282,0.375 -1.50135,0.193806 -2.83605,0.451983 -4.35156,0.763672 -10.1437,2.265508 -19.53863,6.937493 -28.59508,11.907249 -9.52516,5.274907 -18.75979,11.078627 -28.50453,15.952125 -27.80045,14.520384 -56.0351,28.543165 -83.91086,43.055248 -5.99963,3.13623 -12.27308,5.70471 -18.366027,8.64964 -4.597514,2.19392 -9.168753,4.58309 -13.387174,7.33027 -0.86919,0.57134 -1.607025,1.06545 -2.420827,1.6507 -6.978773,4.94933 -13.109446,11.53985 -16.147612,19.64992 -3.548954,9.32909 -4.07098,19.46195 -3.8647,29.34251 0.206906,10.14666 1.321738,20.25108 1.266378,30.43299 -0.01209,41.17861 0.0467,82.35806 -0.06986,123.53614 -0.243301,6.53792 -0.741972,13.03947 -0.99326,19.54139 -0.149779,4.02518 -0.198942,8.12565 -0.01178,12.22097 0.06932,1.4694 0.186633,3.21244 0.343269,4.78503 0.805462,8.30113 2.982676,16.72562 7.900717,23.58709 5.258978,7.23579 12.829696,12.38986 20.675803,16.47075 7.212066,3.70165 14.632427,6.94099 21.911983,10.62208 10.29101,5.25265 20.61493,10.44117 30.87956,15.74484 14.70058,7.55576 29.32841,15.24963 43.96718,22.92486 18.51433,9.5555 37.19491,18.88117 55.65053,28.60592 7.35573,3.67178 15.37237,6.59419 23.69777,6.50521 8.5205,-0.0898 16.72545,-2.90659 24.46746,-6.24982 13.19907,-5.81604 25.15417,-13.99461 37.93489,-20.61668 17.05326,-8.99684 34.30733,-17.60585 51.48286,-26.36684 13.21577,-6.69502 26.38798,-13.4766 39.50936,-20.35364 10.83458,-5.35178 22.34007,-9.63349 32.08631,-16.9352 6.91075,-5.09293 12.76058,-11.98283 15.47565,-20.22284 3.27463,-9.48565 3.5869,-19.6642 3.31082,-29.60158 -0.0922,-2.78275 -0.24477,-5.69141 -0.40237,-8.49128 -0.45764,-7.91503 -0.95803,-15.83678 -0.81638,-23.76963 0.003,-39.76848 -0.053,-79.53757 0.0599,-119.30564 0.27768,-10.03465 1.34515,-19.95002 1.09261,-29.96204 -0.0262,-1.02917 -0.0614,-2.06352 -0.11955,-3.06529 -0.44223,-8.5663 -1.97883,-17.32091 -6.29486,-24.84695 -4.07693,-7.11965 -10.59274,-12.48594 -17.55446,-16.64191 -6.58204,-3.9268 -13.66555,-6.89593 -20.5253,-10.28546 -6.07839,-2.93242 -12.02411,-6.13138 -18.06083,-9.146939 C 380.39741,88.924979 360.76863,78.746326 341.21298,68.428098 321.85551,58.401305 302.25995,48.833564 283.07361,38.479091 275.07378,34.327862 266.31274,30.986803 257.16602,31.166016 Z m 1.23242,34.753906 c 6.16844,0.273601 11.82014,3.055723 17.22753,5.791458 10.32785,5.442576 19.91417,12.222821 30.49262,17.204743 34.30861,17.287897 68.57923,34.656707 102.51813,52.661997 -22.88126,12.65589 -46.265,24.36766 -69.71627,35.92069 -20.216,9.98952 -40.49161,19.86675 -60.46699,30.33438 -6.02685,3.10912 -12.05507,6.23114 -18.20932,9.07892 -1.91708,0.73234 -4.02769,0.38698 -5.89641,-0.31652 -6.30727,-1.94865 -11.8405,-5.6557 -17.54042,-8.87596 -5.04146,-2.99601 -10.20103,-5.79106 -15.47342,-8.35867 -24.72677,-12.66672 -49.29416,-25.64486 -74.01459,-38.32521 -5.69344,-2.98144 -11.28062,-6.17783 -17.1318,-8.84825 -0.41565,-0.18717 -1.28197,-0.57737 -1.68394,-0.74784 -3.5883,-1.48218 -7.24408,-3.11863 -11.18862,-3.24547 -4.48189,-0.28236 -9.14412,1.08699 -12.45719,4.19144 -4.32285,3.93839 -6.409324,10.4516 -4.42842,16.06353 1.76249,5.20841 6.03252,9.14679 10.67228,11.86552 6.31663,3.76361 13.00021,6.8528 19.45686,10.36067 23.57868,12.30093 47.31455,24.29756 70.88226,36.61865 7.92136,4.09529 15.81688,8.17496 23.8529,11.98419 4.81302,2.19021 9.95772,4.08007 14.14824,7.45271 1.64236,1.13215 2.23085,3.17023 2.40982,5.06116 0.12398,1.01877 0.24976,2.00545 0.27645,3.1025 0.23116,8.46439 -1.11284,16.88188 -0.93585,25.34723 0.0653,42.33175 -0.0522,84.66358 -0.0156,126.99529 0.0541,5.0545 -0.0332,10.15939 0.90305,15.14709 0.97748,4.7466 3.24334,9.55144 7.39073,12.30148 4.3077,2.83863 10.09129,3.11359 14.70381,0.83983 5.09864,-2.37399 8.72321,-7.4124 9.70532,-12.91121 1.23558,-5.55777 0.83058,-11.28943 0.98778,-16.93732 0.006,-16.89537 -0.14558,-33.79052 -0.0803,-50.68593 -0.0146,-23.69386 0.0452,-47.38854 -0.0981,-71.08179 -0.28376,-7.95231 -1.19854,-16.06428 -1.11927,-24.1104 0.0121,-3.96943 0.41069,-7.96716 1.60607,-11.76758 3.39288,-2.37046 7.24279,-3.93947 10.86199,-5.91364 16.54385,-8.59518 33.24801,-16.8824 49.68684,-25.68206 29.17188,-15.69054 57.93426,-32.41668 88.19411,-46.05075 1.33105,-0.60371 2.66225,-1.20708 3.99339,-1.81058 -0.004,62.13028 0.0183,124.26087 0.0296,186.39095 -0.0854,3.19284 -0.27005,6.69288 -2.38832,9.27449 -2.68811,3.22244 -6.64915,4.90008 -10.30023,6.7592 -5.17605,2.49362 -10.38926,4.91781 -15.43474,7.67156 -19.61447,10.17329 -39.21984,20.36309 -58.96023,30.28747 -18.75597,9.58658 -37.50788,19.18535 -56.10533,29.07608 -7.30953,4.09155 -14.46448,8.95457 -22.60635,11.41915 -2.97201,0.84727 -6.18804,0.91036 -9.13701,-0.07 -6.77069,-1.91008 -12.80466,-5.65257 -18.82609,-9.17704 -5.26028,-3.1473 -10.49583,-6.26701 -16.00174,-9.03033 -25.95769,-12.98184 -51.64776,-26.48933 -77.47019,-39.73853 -6.80696,-3.48826 -13.60082,-7.00658 -20.45992,-10.39029 -8.85167,-4.12675 -18.21041,-7.50246 -26.192936,-13.29501 -2.458023,-1.84527 -4.774824,-4.20554 -5.526176,-7.28183 -1.132037,-4.29193 -0.742557,-8.7787 -0.676497,-13.16517 0.206171,-5.19939 0.256312,-10.44182 0.224157,-15.66354 -0.0078,-48.48944 0.02641,-96.97949 -0.06233,-145.46853 -0.234137,-7.91119 -1.172913,-15.84679 -0.647058,-23.79402 0.258537,-3.70534 0.743525,-7.66452 3.083934,-10.69576 3.151004,-3.86841 7.63875,-6.27233 11.938566,-8.63583 9.15843,-4.81891 18.95732,-8.28862 28.08498,-13.17146 30.48683,-15.52513 60.78552,-31.415096 91.26782,-46.947854 9.80356,-5.148975 18.83758,-11.859609 29.33949,-15.604893 2.36261,-0.775454 4.80975,-1.411684 7.31296,-1.403141 z" />
  <path
     d="m 256.94531,37.208984 c -6.76519,0.243189 -13.2991,2.367003 -19.51876,4.903333 -14.14464,5.890501 -26.7416,14.769759 -40.34313,21.725347 -29.30729,15.459188 -59.08171,30.014181 -88.40514,45.439706 -10.824022,5.39807 -22.390011,9.50148 -32.304353,16.5723 -6.009329,4.26882 -11.35128,9.90207 -13.947259,16.90972 -3.081896,8.05764 -3.540185,16.80898 -3.479753,25.34876 0.10065,8.43735 0.880425,16.8338 1.216295,25.22908 0.18681,6.41997 0.05487,12.84469 0.09501,19.26668 -0.0029,36.62658 0.01278,73.25361 -0.02374,109.87991 -0.296141,11.95845 -1.854951,23.95183 -0.871197,35.94782 0.603188,7.41688 2.200231,15.0051 6.382797,21.28593 3.871926,5.69932 9.498467,9.95094 15.394547,13.38399 8.125837,4.67885 16.866452,8.08372 25.150123,12.44378 23.36606,11.75136 46.63143,23.70552 69.72633,35.98035 18.40067,9.65959 37.08701,18.77123 55.45558,28.48798 6.93183,3.728 14.11345,7.43238 22.00109,8.5529 4.63735,0.66608 9.37675,0.23514 13.89734,-0.93962 10.33202,-2.53319 19.79564,-7.5983 28.99094,-12.80479 7.93118,-4.54879 15.74903,-9.30864 23.91269,-13.43846 28.68216,-15.05697 57.85417,-29.16209 86.45195,-44.37993 10.33404,-5.3592 21.45581,-9.26174 31.12103,-15.85966 5.68836,-3.80953 10.82511,-8.71186 13.94393,-14.87937 2.89387,-5.8721 4.05214,-12.43582 4.52394,-18.91745 0.86205,-12.41161 -0.74805,-24.80172 -1.0406,-37.20148 -0.0663,-11.02195 -0.0106,-22.04465 -0.0296,-33.0669 0.003,-31.16018 -0.0103,-62.3208 0.0241,-93.48069 0.29546,-11.96009 1.85098,-23.94947 0.86924,-35.94197 -0.59832,-7.38716 -2.19121,-14.93836 -6.32559,-21.21015 -4.24204,-6.30043 -10.57947,-10.83252 -17.16454,-14.43006 -7.36984,-3.99775 -15.16593,-7.13827 -22.56879,-11.0748 C 386.71272,99.07913 363.38124,87.143884 340.2431,74.840379 320.76396,64.659219 300.92773,55.167618 281.62482,44.648006 274.00937,40.602972 265.73983,37.02127 256.94531,37.208984 Z m 1.79102,22.757813 c 6.325,0.292078 12.23692,2.897082 17.84075,5.642588 8.97132,4.505714 17.20675,10.209707 26.06405,14.994352 13.70322,6.947291 27.44219,13.815268 41.1379,20.782613 25.81307,13.11469 51.56564,26.41862 77.08816,40.0824 -38.51786,22.05726 -78.76977,40.83024 -118.42271,60.69785 -11.59957,5.80809 -23.02639,11.95292 -34.63048,17.75258 -3.40237,1.71362 -6.97562,3.71408 -10.91556,3.48707 -6.31028,-0.85574 -12.02092,-3.92986 -17.48632,-7.02778 -5.97174,-3.4463 -11.82455,-7.11949 -18.05499,-10.09443 -24.88033,-12.62193 -49.46179,-25.82308 -74.33847,-38.45069 -8.43121,-4.34443 -16.60024,-9.28954 -25.50304,-12.64194 -3.56703,-1.21448 -7.74395,-1.58138 -11.11641,0.3903 -3.61927,2.08811 -5.91574,6.68871 -4.60429,10.78938 1.19137,3.86396 4.48671,6.55971 7.77721,8.64711 4.31103,2.659 8.92543,4.77285 13.37568,7.18154 15.72041,8.20817 31.4591,16.38069 47.27548,24.40223 16.8346,8.61473 33.50674,17.548 50.44349,25.96026 5.54713,2.59087 11.3702,4.70709 16.48714,8.12441 2.35396,1.6493 4.68319,3.68342 5.55188,6.52553 1.25477,3.85251 1.26947,7.97125 1.21073,11.98297 -0.1343,5.8704 -0.87791,11.70314 -0.9575,17.62399 0.006,39.90998 0.0382,79.82074 -0.0733,119.73087 0.02,6.40234 0.002,12.80795 0.17818,19.20742 0.22988,4.22277 0.86571,8.698 3.48881,12.1625 1.93494,2.43421 5.23848,3.69213 8.29341,3.00995 3.75279,-0.64024 6.95328,-3.47743 8.19323,-7.05663 1.68891,-4.34414 1.40201,-9.08787 1.55985,-13.65833 0.16346,-12.62487 -0.14246,-25.24983 -0.0581,-37.87507 -0.003,-28.76914 0.0146,-57.53887 -0.0234,-86.30765 -0.15522,-6.29415 -0.75548,-12.56538 -1.05677,-18.8525 -0.0577,-1.41288 -0.12926,-3.06182 -0.14444,-4.56718 -0.0439,-5.27137 0.11543,-10.65308 1.71368,-15.71951 0.64487,-2.52277 2.84747,-4.1887 5.00326,-5.41413 3.90538,-2.12845 7.92447,-4.04145 11.85482,-6.12412 16.06918,-8.38232 32.37388,-16.31322 48.28569,-24.99518 27.42103,-14.78589 54.39335,-30.35927 82.68845,-43.44112 5.55163,-2.55968 11.15463,-5.00816 16.80557,-7.34033 0.004,63.13708 -0.0103,126.27429 0.0167,189.41128 0.01,5.13602 0.37934,10.46801 -1.45859,15.36914 -1.58081,3.96158 -4.99722,6.80576 -8.579,8.92474 -5.40576,3.25368 -11.36222,5.4376 -16.8894,8.46399 -18.52326,9.53757 -36.93492,19.29776 -55.57594,28.60769 -20.5338,10.38282 -40.96754,20.96125 -61.35697,31.62524 -8.0478,4.36335 -15.66046,9.69466 -24.37475,12.69768 -3.99441,1.3785 -8.36787,2.03639 -12.52217,0.98769 -6.25643,-1.37537 -11.96307,-4.44638 -17.49981,-7.56415 -6.76365,-3.8729 -13.27835,-8.19538 -20.32783,-11.55143 -31.89979,-16.03228 -63.49504,-32.73562 -95.32229,-48.94441 -9.57192,-4.61524 -19.77198,-8.11984 -28.539599,-14.25206 -0.558543,-0.40679 -1.209156,-0.89163 -1.630297,-1.22899 -3.221932,-2.51613 -6.098905,-5.79128 -7.074919,-9.85647 -1.491862,-5.51502 -1.034614,-11.29219 -0.854091,-16.9332 0.290557,-7.50566 0.105682,-15.01898 0.157271,-22.52822 -0.0029,-45.07594 0.01298,-90.15228 -0.02091,-135.22798 -0.137501,-5.43459 -0.591272,-10.82323 -0.791899,-16.2271 -0.172335,-5.68228 -0.176667,-11.66321 1.379872,-17.25215 0.801029,-2.97794 2.419112,-5.70127 4.627328,-7.85078 3.765516,-3.7812 8.453914,-6.46803 13.146244,-8.92653 8.72902,-4.49852 18.01857,-7.80292 26.68889,-12.42254 30.55617,-15.46995 60.84136,-31.538725 91.38243,-46.976267 9.62449,-5.081159 18.51583,-11.538647 28.6976,-15.541325 3.75421,-1.425653 7.73948,-2.549661 11.79053,-2.415171 z"
     style="fill:#f2f2f2" />
</svg>
