<?xml version="1.0" encoding="UTF-8" standalone="no"?>
<!DOCTYPE svg PUBLIC "-//W3C//DTD SVG 1.1//EN" "http://www.w3.org/Graphics/SVG/1.1/DTD/svg11.dtd">
<svg xmlns="http://www.w3.org/2000/svg" version="1.1" viewBox="0.00 0.00 512.00 512.00">
<g stroke-width="2.00" fill="none" stroke-linecap="butt">
<path stroke="#069bec" vector-effect="non-scaling-stroke" d="
  M 202.35 143.43
  Q 199.05 140.86 195.60 138.62
  C 188.58 134.07 183.57 130.12 176.37 137.05"
/>
<path stroke="#86d8ff" vector-effect="non-scaling-stroke" d="
  M 176.37 137.05
  C 169.72 132.77 165.46 131.19 159.31 137.32
  Q 148.66 147.94 138.05 158.60
  C 123.36 173.34 149.41 181.46 145.24 197.46
  Q 144.03 202.08 138.48 214.37
  C 132.86 226.82 125.40 226.24 113.70 228.73
  C 106.88 230.18 103.61 233.12 103.59 240.25
  Q 103.51 262.89 103.69 272.39
  C 103.81 279.01 107.09 281.92 113.55 283.24
  C 122.31 285.04 132.77 285.45 137.21 294.77
  Q 139.67 299.94 143.56 309.95
  C 148.18 321.86 143.06 326.97 136.02 337.39
  C 131.71 343.75 132.44 347.81 137.96 353.32
  Q 148.29 363.64 158.63 374.05
  C 164.37 379.81 169.95 380.49 176.34 374.75"
/>
<path stroke="#069bec" vector-effect="non-scaling-stroke" d="
  M 176.34 374.75
  C 184.73 383.77 194.06 374.55 202.47 368.65"
/>
<path stroke="#86d8ff" vector-effect="non-scaling-stroke" d="
  M 202.47 368.65
  Q 209.54 371.37 216.33 374.39
  C 226.34 378.84 226.52 387.83 228.49 397.51
  C 229.93 404.57 232.67 408.39 240.25 408.45
  Q 262.56 408.62 275.86 408.17"
/>
<path stroke="#069bec" vector-effect="non-scaling-stroke" d="
  M 275.86 408.17
  Q 286.63 409.26 292.51 408.00
  C 305.56 405.20 297.20 380.91 311.42 374.91
  Q 318.62 371.87 326.11 368.59"
/>
<path stroke="#86d8ff" vector-effect="non-scaling-stroke" d="
  M 326.11 368.59
  C 330.85 371.69 339.09 378.42 344.25 378.67
  Q 349.08 378.90 352.99 374.59"
/>
<path stroke="#069bec" vector-effect="non-scaling-stroke" d="
  M 352.99 374.59
  C 359.34 381.24 365.14 379.26 370.96 373.42
  Q 380.69 363.67 390.45 353.93
  C 404.02 340.38 386.41 334.42 383.79 321.14
  C 382.71 315.70 384.35 312.55 386.82 306.41
  C 390.38 297.55 393.23 287.87 402.27 286.02
  Q 409.42 284.55 416.56 283.06
  C 423.11 281.69 425.22 277.52 425.24 270.96
  Q 425.26 256.12 425.25 241.27
  C 425.24 220.66 399.75 233.64 391.82 217.43
  Q 390.21 214.13 384.80 200.69
  C 380.43 189.80 388.01 182.06 393.48 173.96
  C 397.81 167.53 395.37 163.06 390.25 157.89
  Q 380.10 147.64 369.81 137.52
  C 364.23 132.03 358.75 131.87 352.66 137.17"
/>
<path stroke="#86d8ff" vector-effect="non-scaling-stroke" d="
  M 352.66 137.17
  C 348.08 132.34 343.60 132.21 337.97 135.72
  Q 331.76 139.60 326.04 143.50"
/>
<path stroke="#069bec" vector-effect="non-scaling-stroke" d="
  M 326.04 143.50
  C 315.37 138.43 305.28 137.56 302.40 123.99
  C 300.79 116.37 301.03 104.95 290.69 103.80
  Q 283.69 103.03 276.49 104.08"
/>
<path stroke="#86d8ff" vector-effect="non-scaling-stroke" d="
  M 276.49 104.08
  Q 275.48 103.89 272.25 103.82
  Q 252.31 103.38 240.01 103.49
  C 222.19 103.65 232.60 129.59 217.57 137.08
  Q 213.46 139.13 202.35 143.43"
/>
<path stroke="#80c2ec" vector-effect="non-scaling-stroke" d="
  M 276.49 104.08
  C 287.01 109.38 282.41 123.15 288.41 131.74
  C 292.14 137.09 299.16 139.13 305.00 141.51
  C 313.65 145.03 318.01 147.33 326.04 143.50"
/>
<path stroke="#80c2ec" vector-effect="non-scaling-stroke" d="
  M 352.66 137.17
  Q 363.05 147.57 374.01 158.47
  C 386.48 170.86 369.76 178.71 366.96 190.26
  C 365.54 196.13 367.46 199.51 370.20 206.42
  C 373.07 213.61 376.40 224.23 385.24 225.99
  Q 392.04 227.35 398.82 228.76
  C 405.71 230.19 408.16 233.57 408.31 240.79
  C 408.47 248.92 408.32 256.44 408.54 265.15
  C 408.76 274.41 408.85 281.01 398.56 283.27
  C 388.95 285.38 378.98 285.18 374.35 295.83
  C 370.13 305.54 362.62 317.24 369.50 327.50
  C 373.16 332.96 380.63 341.24 378.16 347.83
  Q 377.18 350.43 372.05 355.58
  Q 362.68 364.98 352.99 374.59"
/>
<path stroke="#80c2ec" vector-effect="non-scaling-stroke" d="
  M 326.11 368.59
  C 318.21 364.54 313.52 367.01 305.00 370.52
  C 299.16 372.93 291.92 374.88 288.08 380.80
  C 282.48 389.44 286.97 403.45 275.86 408.17"
/>
<path stroke="#80c2ec" vector-effect="non-scaling-stroke" d="
  M 202.47 368.65
  C 191.12 362.92 185.16 369.61 176.34 374.75"
/>
<path stroke="#80c2ec" vector-effect="non-scaling-stroke" d="
  M 176.37 137.05
  C 185.19 143.16 191.73 148.65 202.35 143.43"
/>
<path stroke="#86d8ff" vector-effect="non-scaling-stroke" d="
  M 261.77 333.83
  Q 296.17 330.89 317.12 304.60
  C 355.97 255.85 324.51 183.82 262.61 178.19"
/>
<path stroke="#80c2ec" vector-effect="non-scaling-stroke" d="
  M 262.61 178.19
  Q 233.93 176.28 211.59 191.82
  C 169.59 221.02 166.41 281.57 205.03 315.08
  Q 228.61 335.53 261.77 333.83"
/>
<path stroke="#069bec" vector-effect="non-scaling-stroke" d="
  M 262.61 178.19
  Q 261.00 179.03 258.92 179.32
  C 237.83 182.22 218.08 196.81 207.06 214.08
  C 181.75 253.73 197.11 304.47 238.25 326.01
  Q 246.55 330.36 261.77 333.83"
/>
</g>
<path fill="#0cb0ff" d="
  M 507.90 255.99
  A 251.90 251.90 0.0 0 1 256.00 507.89
  A 251.90 251.90 0.0 0 1 4.10 255.99
  A 251.90 251.90 0.0 0 1 256.00 4.09
  A 251.90 251.90 0.0 0 1 507.90 255.99
  Z
  M 202.35 143.43
  Q 199.05 140.86 195.60 138.62
  C 188.58 134.07 183.57 130.12 176.37 137.05
  C 169.72 132.77 165.46 131.19 159.31 137.32
  Q 148.66 147.94 138.05 158.60
  C 123.36 173.34 149.41 181.46 145.24 197.46
  Q 144.03 202.08 138.48 214.37
  C 132.86 226.82 125.40 226.24 113.70 228.73
  C 106.88 230.18 103.61 233.12 103.59 240.25
  Q 103.51 262.89 103.69 272.39
  C 103.81 279.01 107.09 281.92 113.55 283.24
  C 122.31 285.04 132.77 285.45 137.21 294.77
  Q 139.67 299.94 143.56 309.95
  C 148.18 321.86 143.06 326.97 136.02 337.39
  C 131.71 343.75 132.44 347.81 137.96 353.32
  Q 148.29 363.64 158.63 374.05
  C 164.37 379.81 169.95 380.49 176.34 374.75
  C 184.73 383.77 194.06 374.55 202.47 368.65
  Q 209.54 371.37 216.33 374.39
  C 226.34 378.84 226.52 387.83 228.49 397.51
  C 229.93 404.57 232.67 408.39 240.25 408.45
  Q 262.56 408.62 275.86 408.17
  Q 286.63 409.26 292.51 408.00
  C 305.56 405.20 297.20 380.91 311.42 374.91
  Q 318.62 371.87 326.11 368.59
  C 330.85 371.69 339.09 378.42 344.25 378.67
  Q 349.08 378.90 352.99 374.59
  C 359.34 381.24 365.14 379.26 370.96 373.42
  Q 380.69 363.67 390.45 353.93
  C 404.02 340.38 386.41 334.42 383.79 321.14
  C 382.71 315.70 384.35 312.55 386.82 306.41
  C 390.38 297.55 393.23 287.87 402.27 286.02
  Q 409.42 284.55 416.56 283.06
  C 423.11 281.69 425.22 277.52 425.24 270.96
  Q 425.26 256.12 425.25 241.27
  C 425.24 220.66 399.75 233.64 391.82 217.43
  Q 390.21 214.13 384.80 200.69
  C 380.43 189.80 388.01 182.06 393.48 173.96
  C 397.81 167.53 395.37 163.06 390.25 157.89
  Q 380.10 147.64 369.81 137.52
  C 364.23 132.03 358.75 131.87 352.66 137.17
  C 348.08 132.34 343.60 132.21 337.97 135.72
  Q 331.76 139.60 326.04 143.50
  C 315.37 138.43 305.28 137.56 302.40 123.99
  C 300.79 116.37 301.03 104.95 290.69 103.80
  Q 283.69 103.03 276.49 104.08
  Q 275.48 103.89 272.25 103.82
  Q 252.31 103.38 240.01 103.49
  C 222.19 103.65 232.60 129.59 217.57 137.08
  Q 213.46 139.13 202.35 143.43
  Z"
/>
<path fill="#ffffff" d="
  M 276.49 104.08
  C 287.01 109.38 282.41 123.15 288.41 131.74
  C 292.14 137.09 299.16 139.13 305.00 141.51
  C 313.65 145.03 318.01 147.33 326.04 143.50
  Q 331.76 139.60 337.97 135.72
  C 343.60 132.21 348.08 132.34 352.66 137.17
  Q 363.05 147.57 374.01 158.47
  C 386.48 170.86 369.76 178.71 366.96 190.26
  C 365.54 196.13 367.46 199.51 370.20 206.42
  C 373.07 213.61 376.40 224.23 385.24 225.99
  Q 392.04 227.35 398.82 228.76
  C 405.71 230.19 408.16 233.57 408.31 240.79
  C 408.47 248.92 408.32 256.44 408.54 265.15
  C 408.76 274.41 408.85 281.01 398.56 283.27
  C 388.95 285.38 378.98 285.18 374.35 295.83
  C 370.13 305.54 362.62 317.24 369.50 327.50
  C 373.16 332.96 380.63 341.24 378.16 347.83
  Q 377.18 350.43 372.05 355.58
  Q 362.68 364.98 352.99 374.59
  Q 349.08 378.90 344.25 378.67
  C 339.09 378.42 330.85 371.69 326.11 368.59
  C 318.21 364.54 313.52 367.01 305.00 370.52
  C 299.16 372.93 291.92 374.88 288.08 380.80
  C 282.48 389.44 286.97 403.45 275.86 408.17
  Q 262.56 408.62 240.25 408.45
  C 232.67 408.39 229.93 404.57 228.49 397.51
  C 226.52 387.83 226.34 378.84 216.33 374.39
  Q 209.54 371.37 202.47 368.65
  C 191.12 362.92 185.16 369.61 176.34 374.75
  C 169.95 380.49 164.37 379.81 158.63 374.05
  Q 148.29 363.64 137.96 353.32
  C 132.44 347.81 131.71 343.75 136.02 337.39
  C 143.06 326.97 148.18 321.86 143.56 309.95
  Q 139.67 299.94 137.21 294.77
  C 132.77 285.45 122.31 285.04 113.55 283.24
  C 107.09 281.92 103.81 279.01 103.69 272.39
  Q 103.51 262.89 103.59 240.25
  C 103.61 233.12 106.88 230.18 113.70 228.73
  C 125.40 226.24 132.86 226.82 138.48 214.37
  Q 144.03 202.08 145.24 197.46
  C 149.41 181.46 123.36 173.34 138.05 158.60
  Q 148.66 147.94 159.31 137.32
  C 165.46 131.19 169.72 132.77 176.37 137.05
  C 185.19 143.16 191.73 148.65 202.35 143.43
  Q 213.46 139.13 217.57 137.08
  C 232.60 129.59 222.19 103.65 240.01 103.49
  Q 252.31 103.38 272.25 103.82
  Q 275.48 103.89 276.49 104.08
  Z
  M 261.77 333.83
  Q 296.17 330.89 317.12 304.60
  C 355.97 255.85 324.51 183.82 262.61 178.19
  Q 233.93 176.28 211.59 191.82
  C 169.59 221.02 166.41 281.57 205.03 315.08
  Q 228.61 335.53 261.77 333.83
  Z"
/>
<path fill="#0085d8" d="
  M 326.04 143.50
  C 318.01 147.33 313.65 145.03 305.00 141.51
  C 299.16 139.13 292.14 137.09 288.41 131.74
  C 282.41 123.15 287.01 109.38 276.49 104.08
  Q 283.69 103.03 290.69 103.80
  C 301.03 104.95 300.79 116.37 302.40 123.99
  C 305.28 137.56 315.37 138.43 326.04 143.50
  Z"
/>
<path fill="#0085d8" d="
  M 202.35 143.43
  C 191.73 148.65 185.19 143.16 176.37 137.05
  C 183.57 130.12 188.58 134.07 195.60 138.62
  Q 199.05 140.86 202.35 143.43
  Z"
/>
<path fill="#0085d8" d="
  M 352.99 374.59
  Q 362.68 364.98 372.05 355.58
  Q 377.18 350.43 378.16 347.83
  C 380.63 341.24 373.16 332.96 369.50 327.50
  C 362.62 317.24 370.13 305.54 374.35 295.83
  C 378.98 285.18 388.95 285.38 398.56 283.27
  C 408.85 281.01 408.76 274.41 408.54 265.15
  C 408.32 256.44 408.47 248.92 408.31 240.79
  C 408.16 233.57 405.71 230.19 398.82 228.76
  Q 392.04 227.35 385.24 225.99
  C 376.40 224.23 373.07 213.61 370.20 206.42
  C 367.46 199.51 365.54 196.13 366.96 190.26
  C 369.76 178.71 386.48 170.86 374.01 158.47
  Q 363.05 147.57 352.66 137.17
  C 358.75 131.87 364.23 132.03 369.81 137.52
  Q 380.10 147.64 390.25 157.89
  C 395.37 163.06 397.81 167.53 393.48 173.96
  C 388.01 182.06 380.43 189.80 384.80 200.69
  Q 390.21 214.13 391.82 217.43
  C 399.75 233.64 425.24 220.66 425.25 241.27
  Q 425.26 256.12 425.24 270.96
  C 425.22 277.52 423.11 281.69 416.56 283.06
  Q 409.42 284.55 402.27 286.02
  C 393.23 287.87 390.38 297.55 386.82 306.41
  C 384.35 312.55 382.71 315.70 383.79 321.14
  C 386.41 334.42 404.02 340.38 390.45 353.93
  Q 380.69 363.67 370.96 373.42
  C 365.14 379.26 359.34 381.24 352.99 374.59
  Z"
/>
<path fill="#0085d8" d="
  M 262.61 178.19
  Q 261.00 179.03 258.92 179.32
  C 237.83 182.22 218.08 196.81 207.06 214.08
  C 181.75 253.73 197.11 304.47 238.25 326.01
  Q 246.55 330.36 261.77 333.83
  Q 228.61 335.53 205.03 315.08
  C 166.41 281.57 169.59 221.02 211.59 191.82
  Q 233.93 176.28 262.61 178.19
  Z"
/>
<path fill="#0cb0ff" d="
  M 262.61 178.19
  C 324.51 183.82 355.97 255.85 317.12 304.60
  Q 296.17 330.89 261.77 333.83
  Q 246.55 330.36 238.25 326.01
  C 197.11 304.47 181.75 253.73 207.06 214.08
  C 218.08 196.81 237.83 182.22 258.92 179.32
  Q 261.00 179.03 262.61 178.19
  Z"
/>
<path fill="#0085d8" d="
  M 202.47 368.65
  C 194.06 374.55 184.73 383.77 176.34 374.75
  C 185.16 369.61 191.12 362.92 202.47 368.65
  Z"
/>
<path fill="#0085d8" d="
  M 326.11 368.59
  Q 318.62 371.87 311.42 374.91
  C 297.20 380.91 305.56 405.20 292.51 408.00
  Q 286.63 409.26 275.86 408.17
  C 286.97 403.45 282.48 389.44 288.08 380.80
  C 291.92 374.88 299.16 372.93 305.00 370.52
  C 313.52 367.01 318.21 364.54 326.11 368.59
  Z"
/>
</svg>
