<?xml version="1.0" encoding="UTF-8" standalone="no"?>
<!DOCTYPE svg PUBLIC "-//W3C//DTD SVG 1.1//EN" "http://www.w3.org/Graphics/SVG/1.1/DTD/svg11.dtd">
<svg xmlns="http://www.w3.org/2000/svg" version="1.1" viewBox="0.00 0.00 512.00 512.00">
<g stroke-width="2.00" fill="none" stroke-linecap="butt">
<path stroke="#ffe083" vector-effect="non-scaling-stroke" d="
  M 323.61 178.98
  A 67.59 67.59 0.0 0 0 256.02 111.39
  A 67.59 67.59 0.0 0 0 188.43 178.98
  A 67.59 67.59 0.0 0 0 256.02 246.57
  A 67.59 67.59 0.0 0 0 323.61 178.98"
/>
<path stroke="#ffe083" vector-effect="non-scaling-stroke" d="
  M 405.90 382.71
  C 402.85 332.21 376.53 287.07 332.66 261.06
  A 0.70 0.69 41.0 0 0 331.88 261.11
  C 287.00 296.91 225.04 297.33 180.16 261.09
  A 0.72 0.72 0.0 0 0 179.34 261.04
  C 135.77 287.16 108.98 332.05 106.04 382.73
  A 0.73 0.72 8.2 0 0 106.60 383.47
  C 204.15 406.57 307.59 406.21 405.21 383.64
  A 0.89 0.89 0.0 0 0 405.90 382.71"
/>
</g>
<path fill="#ffc107" d="
  M 249.34 0.00
  L 262.80 0.00
  C 400.27 4.46 507.80 113.36 512.00 250.33
  L 512.00 261.06
  C 509.72 329.69 482.92 393.19 433.44 440.33
  Q 362.07 508.34 261.48 512.00
  L 251.19 512.00
  C 112.96 508.03 3.46 399.61 0.00 260.68
  L 0.00 251.20
  C 3.66 113.87 111.53 4.40 249.34 0.00
  Z
  M 323.61 178.98
  A 67.59 67.59 0.0 0 0 256.02 111.39
  A 67.59 67.59 0.0 0 0 188.43 178.98
  A 67.59 67.59 0.0 0 0 256.02 246.57
  A 67.59 67.59 0.0 0 0 323.61 178.98
  Z
  M 405.90 382.71
  C 402.85 332.21 376.53 287.07 332.66 261.06
  A 0.70 0.69 41.0 0 0 331.88 261.11
  C 287.00 296.91 225.04 297.33 180.16 261.09
  A 0.72 0.72 0.0 0 0 179.34 261.04
  C 135.77 287.16 108.98 332.05 106.04 382.73
  A 0.73 0.72 8.2 0 0 106.60 383.47
  C 204.15 406.57 307.59 406.21 405.21 383.64
  A 0.89 0.89 0.0 0 0 405.90 382.71
  Z"
/>
<circle fill="#ffffff" cx="256.02" cy="178.98" r="67.59"/>
<path fill="#ffffff" d="
  M 332.66 261.06
  C 376.53 287.07 402.85 332.21 405.90 382.71
  A 0.89 0.89 0.0 0 1 405.21 383.64
  C 307.59 406.21 204.15 406.57 106.60 383.47
  A 0.73 0.72 8.2 0 1 106.04 382.73
  C 108.98 332.05 135.77 287.16 179.34 261.04
  A 0.72 0.72 0.0 0 1 180.16 261.09
  C 225.04 297.33 287.00 296.91 331.88 261.11
  A 0.70 0.69 41.0 0 1 332.66 261.06
  Z"
/>
</svg>
