<?xml version="1.0" encoding="UTF-8"?>
<svg id="_Слой_2" data-name="Слой 2" xmlns="http://www.w3.org/2000/svg" viewBox="0 0 55.29 36.39">
  <defs>
    <style>
      .cls-1 {
        stroke-miterlimit: 10;
      }

      .cls-1, .cls-2 {
        fill: #eaf1f7;
        stroke: #4a4f4d;
        stroke-width: .97px;
      }

      .cls-3 {
        fill: #71bfe6;
        fill-rule: evenodd;
      }

      .cls-2 {
        stroke-linecap: round;
        stroke-linejoin: round;
      }
    </style>
  </defs>
  <g id="_135_134_" data-name="135(134)">
    <g>
      <path class="cls-3" d="m13.87,20.15c.46,0,.84.37.84.84v1.97l-.11,6.69c0,.44.35.79.78.79h24.58c.43,0,.78-.35.78-.78v-1.61h-.43c-.35,0-1.76.12-1.61-.67.04-.12,1.1-1.74,2.31-3.68q2.31-3.48,2.63-3.48t2.63,3.48c1.25,1.94,2.31,3.56,2.35,3.68.12.79-1.25.67-1.61.67h-.39v5.56c0,1.54-1.25,2.77-2.74,2.77H11.45c-1.53,0-2.74-1.23-2.74-2.77v-3.17l.14-9.47c0-.46.38-.82.84-.82h4.18Z"/>
      <g>
        <g>
          <path class="cls-1" d="m32.48,3.74h22.32v14.12c0,.43-.35.78-.78.78h-20.76c-.43,0-.78-.35-.78-.78V3.74h0Z"/>
          <path class="cls-1" d="m33.47.48h20.34c.55,0,.99.44.99.99v3.34h-22.32V1.47c0-.55.44-.99.99-.99Z"/>
        </g>
        <line class="cls-2" x1="34.25" y1="8.71" x2="48.58" y2="8.71"/>
        <line class="cls-2" x1="34.25" y1="11.83" x2="43.64" y2="11.83"/>
      </g>
      <g>
        <g>
          <path class="cls-1" d="m.49,3.74h22.32v14.12c0,.43-.35.78-.78.78H1.27c-.43,0-.78-.35-.78-.78V3.74H.49Z"/>
          <path class="cls-1" d="m1.47.48h20.34c.55,0,.99.44.99.99v3.34H.48V1.47C.48.93.93.48,1.47.48Z"/>
        </g>
        <line class="cls-2" x1="2.25" y1="8.71" x2="16.58" y2="8.71"/>
        <line class="cls-2" x1="2.25" y1="11.83" x2="11.65" y2="11.83"/>
      </g>
    </g>
  </g>
</svg>