<svg xmlns="http://www.w3.org/2000/svg" viewBox="0 0 39.69 40.08"><defs><style>.cls-1{fill:#9bcb64;}.cls-2{fill:#fff;}</style></defs><g id="Слой_2" data-name="Слой 2"><g id="Слой_1-2" data-name="Слой 1"><path class="cls-1" d="M25.37.8A20,20,0,0,1,39.69,19.18v1.75a20.09,20.09,0,0,1-6,13.48,19.74,19.74,0,0,1-13,5.67H19.05a19.44,19.44,0,0,1-8.22-2.17A20.15,20.15,0,0,1,0,20.53v-.89A20,20,0,0,1,19.33,0h1a20.1,20.1,0,0,1,5.07.8ZM12.25,11.6a1.24,1.24,0,0,0-1.65-1.55,2.93,2.93,0,0,0-.65.51,13.69,13.69,0,0,0-3.71,8.85,13.69,13.69,0,0,0,3.91,10.34,1.25,1.25,0,0,0,2.07-1.32,2.63,2.63,0,0,0-.57-.72,11.34,11.34,0,0,1-.34-14.91,5.84,5.84,0,0,0,.94-1.2ZM27.47,28.46A1.24,1.24,0,0,0,29,30.09a2.55,2.55,0,0,0,1-.8,14,14,0,0,0-.42-18.95,1.26,1.26,0,1,0-1.82,1.74c.14.15.26.29.4.43a11.36,11.36,0,0,1-.28,15.4,1.36,1.36,0,0,0-.37.55ZM14.74,26.25a2.32,2.32,0,0,0,2.49-.88c.51-.81,1-1.61,1.56-2.38,0,0,0,0,0-.06a.24.24,0,0,1,.29,0,.07.07,0,0,0,0,.06c.51,1.32.91,2.75,2.41,3.15,1.76.51,2.72-.63,3.8-1.78a2.77,2.77,0,0,0,.46-.68A1.24,1.24,0,0,0,24,22.25a1.56,1.56,0,0,0-.43.34c-.34.34-.65.69-1,1-.2.17-.48.26-.6,0-.45-1.12-.93-2.23-1.39-3.32a.34.34,0,0,1,0-.17l2.44-3.72a.22.22,0,0,1,.14-.06,3.26,3.26,0,0,0,.54,0A1.23,1.23,0,0,0,24,13.86a2.86,2.86,0,0,0-.88-.06A2.17,2.17,0,0,0,21.09,15c-.48.69-.94,1.41-1.42,2.09a.15.15,0,0,1-.14.09.16.16,0,0,1-.17-.12c-.31-.74-.62-1.49-.93-2.26-.26-.57-.6-1-1.2-1H15.82a2.15,2.15,0,0,0-.74.09A1.25,1.25,0,0,0,15,16.2a3.55,3.55,0,0,0,1.27.12.16.16,0,0,1,.17.11l1.42,3.44v.06l-2.52,3.8s-.06.06-.09.06a1.34,1.34,0,0,0-.34,0,1.25,1.25,0,0,0-.14,2.43Z"/><path class="cls-2" d="M10.6,10.05a1.24,1.24,0,0,1,1.65,1.55,5.84,5.84,0,0,1-.94,1.2,11.34,11.34,0,0,0,.34,14.91,2.63,2.63,0,0,1,.57.72,1.25,1.25,0,0,1-2.07,1.32A13.69,13.69,0,0,1,6.24,19.41,13.69,13.69,0,0,1,10,10.56a2.93,2.93,0,0,1,.65-.51Z"/><path class="cls-2" d="M29,30.09a1.24,1.24,0,0,1-1.53-1.63,1.36,1.36,0,0,1,.37-.55,11.36,11.36,0,0,0,.28-15.4c-.14-.14-.26-.28-.4-.43a1.26,1.26,0,1,1,1.82-1.74,14,14,0,0,1,.42,19,2.55,2.55,0,0,1-1,.8Z"/><path class="cls-2" d="M17.23,25.37a2.32,2.32,0,0,1-2.49.88,1.25,1.25,0,0,1,.14-2.43,1.34,1.34,0,0,1,.34,0s.06,0,.09-.06l2.52-3.8v-.06l-1.42-3.44a.16.16,0,0,0-.17-.11A3.55,3.55,0,0,1,15,16.2a1.25,1.25,0,0,1,.11-2.31,2.15,2.15,0,0,1,.74-.09h1.41c.6,0,.94.43,1.2,1,.31.77.62,1.52.93,2.26a.16.16,0,0,0,.17.12.15.15,0,0,0,.14-.09c.48-.68.94-1.4,1.42-2.09a2.17,2.17,0,0,1,2.07-1.2,2.86,2.86,0,0,1,.88.06,1.23,1.23,0,0,1-.23,2.43,3.26,3.26,0,0,1-.54,0,.22.22,0,0,0-.14.06L20.69,20.1a.34.34,0,0,0,0,.17c.46,1.09.94,2.2,1.39,3.32.12.29.4.2.6,0,.31-.34.62-.69,1-1a1.56,1.56,0,0,1,.43-.34,1.24,1.24,0,0,1,1.76,1.46,2.77,2.77,0,0,1-.46.68c-1.08,1.15-2,2.29-3.8,1.78-1.5-.4-1.9-1.83-2.41-3.15a.07.07,0,0,1,0-.06.24.24,0,0,0-.29,0s0,0,0,.06c-.53.77-1.05,1.57-1.56,2.38Z"/></g></g></svg>