<?xml version="1.0" encoding="UTF-8"?>
<svg id="_Слой_2" data-name="Слой 2" xmlns="http://www.w3.org/2000/svg" viewBox="0 0 36.84 37.21">
  <defs>
    <style>
      .cls-1 {
        fill: #fff;
      }

      .cls-2 {
        stroke: #fff;
        stroke-linecap: round;
        stroke-linejoin: round;
        stroke-width: 2.9px;
      }

      .cls-2, .cls-3 {
        fill: #9bc765;
      }
    </style>
  </defs>
  <g id="_Слой_2-2" data-name="Слой 2">
    <g>
      <path class="cls-3" d="m23.55.74c7.63,2.23,12.9,9.06,13.29,17.06v1.62c-.29,4.94-2.16,9.12-5.58,12.52-3.26,3.24-7.53,5.02-12.11,5.26h-1.47c-2.71-.11-5.26-.8-7.63-2.02C4,32,.21,25.97,0,19.06v-.82C.26,8.24,8.08.32,17.95,0h.89c1.61.05,3.18.29,4.71.74h0Z"/>
      <path class="cls-1" d="m16.21,23.55c-.5.72-1.47,1.06-2.32.82-1.16-.35-1.08-2.07.13-2.26.11-.03.21-.03.32-.03.03,0,.05-.03.08-.05l2.34-3.54v-.05l-1.32-3.19c-.03-.08-.08-.11-.16-.11-.39,0-.84.03-1.18-.11-.95-.43-.87-1.81.11-2.15.13-.05.37-.08.68-.08h1.32c.55,0,.87.4,1.11.93.29.72.58,1.41.87,2.1.03.08.08.11.16.11.05,0,.11-.03.13-.08.45-.64.87-1.3,1.32-1.94.53-.8.95-1.09,1.92-1.12.26,0,.58-.03.82.05,1.26.32,1.13,2.15-.21,2.26-.16.03-.34.03-.5.03-.05,0-.11.03-.13.05l-2.26,3.46c-.03.05-.03.11-.03.16.42,1.01.87,2.05,1.29,3.08.11.27.37.19.55.03.29-.32.58-.64.89-.96.16-.16.29-.27.39-.32.92-.48,1.92.43,1.63,1.36-.05.16-.21.37-.42.64-1,1.06-1.89,2.13-3.53,1.65-1.39-.37-1.76-1.7-2.24-2.92t-.03-.05c-.08-.08-.18-.08-.26-.03,0,.03-.03.03-.03.05-.5.72-.97,1.46-1.45,2.21h0Z"/>
      <line class="cls-2" x1="8.68" y1="9.12" x2="8.68" y2="27.92"/>
      <line class="cls-2" x1="28.69" y1="9.23" x2="28.69" y2="28.03"/>
    </g>
  </g>
</svg>