<?xml version="1.0" encoding="UTF-8" standalone="no"?>
<!DOCTYPE svg PUBLIC "-//W3C//DTD SVG 1.1//EN" "http://www.w3.org/Graphics/SVG/1.1/DTD/svg11.dtd">
<svg xmlns="http://www.w3.org/2000/svg" version="1.1" viewBox="0.00 0.00 512.00 512.00">
<g stroke-width="2.00" fill="none" stroke-linecap="butt">
<path stroke="#cc8331" vector-effect="non-scaling-stroke" d="
  M 353.21 70.57
  L 248.00 175.79"
/>
<path stroke="#c57434" vector-effect="non-scaling-stroke" d="
  M 248.00 175.79
  Q 247.30 176.11 246.75 176.87"
/>
<path stroke="#935f3b" vector-effect="non-scaling-stroke" d="
  M 246.75 176.87
  L 159.00 176.90"
/>
<path stroke="#c57434" vector-effect="non-scaling-stroke" d="
  M 159.00 176.90
  Q 159.66 176.06 159.44 175.98"
/>
<path stroke="#cc8331" vector-effect="non-scaling-stroke" d="
  M 159.44 175.98
  L 263.65 71.84
  Q 264.00 71.50 264.00 71.01
  L 264.00 70.51"
/>
<path stroke="#ec8d22" vector-effect="non-scaling-stroke" d="
  M 159.44 175.98
  Q 158.81 176.50 158.25 176.50
  Q 89.02 176.49 19.80 176.51
  Q 16.84 176.51 13.91 177.22
  Q 11.07 177.91 8.12 178.60"
/>
<path stroke="#cc8331" vector-effect="non-scaling-stroke" d="
  M 506.72 75.84
  L 400.90 181.70"
/>
<path stroke="#ec8d22" vector-effect="non-scaling-stroke" d="
  M 400.90 181.70
  Q 394.98 176.49 388.75 176.50
  Q 318.92 176.50 249.09 176.50
  C 248.54 176.50 248.22 176.25 248.00 175.79"
/>
<path stroke="#c57434" vector-effect="non-scaling-stroke" d="
  M 403.08 504.87
  Q 406.00 498.61 406.00 496.25
  Q 406.00 346.37 406.00 196.48
  C 406.00 190.16 404.87 186.12 400.90 181.70"
/>
<path stroke="#b3692c" vector-effect="non-scaling-stroke" d="
  M 159.00 176.90
  Q 158.99 236.81 159.01 297.08
  Q 159.01 301.63 160.12 303.72
  C 162.80 308.74 169.16 309.45 173.51 306.00
  Q 188.15 294.40 202.57 282.88
  A 0.76 0.76 0.0 0 1 203.51 282.88
  Q 216.59 293.25 229.68 303.79
  Q 234.21 307.43 237.06 307.99
  C 244.76 309.50 247.25 302.33 247.25 296.00
  Q 247.25 237.05 247.25 178.10
  C 247.25 177.79 247.05 176.83 246.75 176.87"
/>
<path stroke="#dc6a26" vector-effect="non-scaling-stroke" d="
  M 343.26 445.97
  Q 344.12 445.42 344.10 446.44
  Q 343.90 455.29 349.59 458.02
  C 354.04 460.17 359.11 458.10 361.09 453.61
  C 362.04 451.46 361.83 448.36 362.08 445.82
  A 0.38 0.38 0.0 0 1 362.77 445.63
  C 371.01 456.76 385.54 444.14 376.77 434.98
  Q 370.05 427.97 360.13 418.34
  C 354.37 412.75 349.90 414.55 344.60 419.80
  Q 336.73 427.58 328.96 435.46
  C 322.60 441.91 329.92 452.16 338.89 449.29
  C 340.78 448.68 341.77 446.91 343.26 445.97"
/>
<path stroke="#f2bf92" vector-effect="non-scaling-stroke" d="
  M 194.24 432.90
  A 9.16 9.16 0.0 0 0 185.08 423.74
  L 44.42 423.74
  A 9.16 9.16 0.0 0 0 35.26 432.90
  L 35.26 467.58
  A 9.16 9.16 0.0 0 0 44.42 476.74
  L 185.08 476.74
  A 9.16 9.16 0.0 0 0 194.24 467.58
  L 194.24 432.90"
/>
<path stroke="#dc6a26" vector-effect="non-scaling-stroke" d="
  M 379.40 476.37
  A 8.48 8.48 0.0 0 0 370.92 467.89
  L 335.32 467.89
  A 8.48 8.48 0.0 0 0 326.84 476.37
  L 326.84 476.97
  A 8.48 8.48 0.0 0 0 335.32 485.45
  L 370.92 485.45
  A 8.48 8.48 0.0 0 0 379.40 476.97
  L 379.40 476.37"
/>
</g>
<path fill="#a56a43" d="
  M 353.21 70.57
  L 248.00 175.79
  Q 247.30 176.11 246.75 176.87
  L 159.00 176.90
  Q 159.66 176.06 159.44 175.98
  L 263.65 71.84
  Q 264.00 71.50 264.00 71.01
  L 264.00 70.51
  C 266.58 70.74 282.86 50.96 284.29 49.04
  Q 300.03 27.85 300.05 0.69
  A 0.39 0.39 0.0 0 1 300.67 0.38
  L 334.92 26.06
  A 1.04 1.04 0.0 0 0 336.08 26.12
  L 378.82 0.48
  Q 379.57 0.03 379.53 0.91
  C 378.39 26.71 370.57 51.86 353.21 70.57
  Z"
/>
<path fill="#f29c1f" d="
  M 264.00 70.51
  L 264.00 71.01
  Q 264.00 71.50 263.65 71.84
  L 159.44 175.98
  Q 158.81 176.50 158.25 176.50
  Q 89.02 176.49 19.80 176.51
  Q 16.84 176.51 13.91 177.22
  Q 11.07 177.91 8.12 178.60
  Q 54.29 127.30 100.31 76.31
  Q 105.56 70.49 114.31 70.48
  Q 189.15 70.46 264.00 70.51
  Z"
/>
<path fill="#f29c1f" d="
  M 506.72 75.84
  L 400.90 181.70
  Q 394.98 176.49 388.75 176.50
  Q 318.92 176.50 249.09 176.50
  C 248.54 176.50 248.22 176.25 248.00 175.79
  L 353.21 70.57
  Q 421.15 70.41 489.00 70.54
  C 495.72 70.55 501.25 70.56 506.72 75.84
  Z"
/>
<path fill="#a56a43" d="
  M 506.72 75.84
  Q 511.20 80.21 512.00 87.07
  L 512.00 400.31
  C 510.87 408.02 507.32 410.71 501.63 415.87
  Q 452.51 460.45 403.08 504.87
  Q 406.00 498.61 406.00 496.25
  Q 406.00 346.37 406.00 196.48
  C 406.00 190.16 404.87 186.12 400.90 181.70
  L 506.72 75.84
  Z"
/>
<path fill="#e57e25" d="
  M 248.00 175.79
  C 248.22 176.25 248.54 176.50 249.09 176.50
  Q 318.92 176.50 388.75 176.50
  Q 394.98 176.49 400.90 181.70
  C 404.87 186.12 406.00 190.16 406.00 196.48
  Q 406.00 346.37 406.00 496.25
  Q 406.00 498.61 403.08 504.87
  Q 397.42 510.82 389.69 512.00
  L 16.19 512.00
  Q 2.06 509.55 0.00 495.44
  L 0.00 192.43
  Q 1.41 184.41 8.12 178.60
  Q 11.07 177.91 13.91 177.22
  Q 16.84 176.51 19.80 176.51
  Q 89.02 176.49 158.25 176.50
  Q 158.81 176.50 159.44 175.98
  Q 159.66 176.06 159.00 176.90
  Q 158.99 236.81 159.01 297.08
  Q 159.01 301.63 160.12 303.72
  C 162.80 308.74 169.16 309.45 173.51 306.00
  Q 188.15 294.40 202.57 282.88
  A 0.76 0.76 0.0 0 1 203.51 282.88
  Q 216.59 293.25 229.68 303.79
  Q 234.21 307.43 237.06 307.99
  C 244.76 309.50 247.25 302.33 247.25 296.00
  Q 247.25 237.05 247.25 178.10
  C 247.25 177.79 247.05 176.83 246.75 176.87
  Q 247.30 176.11 248.00 175.79
  Z
  M 343.26 445.97
  Q 344.12 445.42 344.10 446.44
  Q 343.90 455.29 349.59 458.02
  C 354.04 460.17 359.11 458.10 361.09 453.61
  C 362.04 451.46 361.83 448.36 362.08 445.82
  A 0.38 0.38 0.0 0 1 362.77 445.63
  C 371.01 456.76 385.54 444.14 376.77 434.98
  Q 370.05 427.97 360.13 418.34
  C 354.37 412.75 349.90 414.55 344.60 419.80
  Q 336.73 427.58 328.96 435.46
  C 322.60 441.91 329.92 452.16 338.89 449.29
  C 340.78 448.68 341.77 446.91 343.26 445.97
  Z
  M 194.24 432.90
  A 9.16 9.16 0.0 0 0 185.08 423.74
  L 44.42 423.74
  A 9.16 9.16 0.0 0 0 35.26 432.90
  L 35.26 467.58
  A 9.16 9.16 0.0 0 0 44.42 476.74
  L 185.08 476.74
  A 9.16 9.16 0.0 0 0 194.24 467.58
  L 194.24 432.90
  Z
  M 379.40 476.37
  A 8.48 8.48 0.0 0 0 370.92 467.89
  L 335.32 467.89
  A 8.48 8.48 0.0 0 0 326.84 476.37
  L 326.84 476.97
  A 8.48 8.48 0.0 0 0 335.32 485.45
  L 370.92 485.45
  A 8.48 8.48 0.0 0 0 379.40 476.97
  L 379.40 476.37
  Z"
/>
<path fill="#805333" d="
  M 159.00 176.90
  L 246.75 176.87
  C 247.05 176.83 247.25 177.79 247.25 178.10
  Q 247.25 237.05 247.25 296.00
  C 247.25 302.33 244.76 309.50 237.06 307.99
  Q 234.21 307.43 229.68 303.79
  Q 216.59 293.25 203.51 282.88
  A 0.76 0.76 0.0 0 0 202.57 282.88
  Q 188.15 294.40 173.51 306.00
  C 169.16 309.45 162.80 308.74 160.12 303.72
  Q 159.01 301.63 159.01 297.08
  Q 158.99 236.81 159.00 176.90
  Z"
/>
<path fill="#d25627" d="
  M 343.26 445.97
  C 341.77 446.91 340.78 448.68 338.89 449.29
  C 329.92 452.16 322.60 441.91 328.96 435.46
  Q 336.73 427.58 344.60 419.80
  C 349.90 414.55 354.37 412.75 360.13 418.34
  Q 370.05 427.97 376.77 434.98
  C 385.54 444.14 371.01 456.76 362.77 445.63
  A 0.38 0.38 0.0 0 0 362.08 445.82
  C 361.83 448.36 362.04 451.46 361.09 453.61
  C 359.11 458.10 354.04 460.17 349.59 458.02
  Q 343.90 455.29 344.10 446.44
  Q 344.12 445.42 343.26 445.97
  Z"
/>
<rect fill="#ffffff" x="35.26" y="423.74" width="158.98" height="53.00" rx="9.16"/>
<rect fill="#d25627" x="326.84" y="467.89" width="52.56" height="17.56" rx="8.48"/>
</svg>
