<?xml version="1.0" encoding="UTF-8"?>
<svg id="_Слой_2" data-name="Слой 2" xmlns="http://www.w3.org/2000/svg" viewBox="0 0 25.87 38.6">
  <defs>
    <style>
      .cls-1 {
        fill: #00afce;
        stroke: #00afce;
        stroke-miterlimit: 10;
        stroke-width: .09px;
      }
    </style>
  </defs>
  <g id="_КОМ._пищ_ноты" data-name="КОМ. пищ ноты">
    <g id="_пищалка_ноты" data-name="пищалка ноты">
      <g id="_пищалка_ноты-2" data-name="пищалка ноты">
        <path class="cls-1" d="m15.47.14c-.33-.16-.73-.12-.98.14-.1.1-.18.24-.2.42l-.07,27.01c0,.15-.16.24-.29.17-1.32-.8-6.9-3.59-12.42,2.22-.93.98-1.49,2.28-1.47,3.64.03,1.73.96,3.85,4.92,4.69,0,0,4.36.94,8.36-2.07,0,0,.15-.11.37-.32,1.48-1.36,2.3-3.29,2.3-5.29V12.54c0,.1.53.2,1.83,1.3.78.66,1.38,1.4,1.93,2.21,1.08,1.59,1.78,3.44,1.98,5.35.03.29.05.58.19.83.3.55.83.55,1.2.26.66-.52,1.14-1.93,1.29-2.27.47-1.12.85-2.31,1.13-3.5.45-1.94.4-4.07-.54-5.82-.63-1.18-1.63-2.12-2.65-2.98-1.21-1.02-2.49-1.97-3.62-3.08-1.3-1.27-2.06-2.67-2.84-4.28-.09-.18-.23-.33-.41-.42h0Z"/>
      </g>
    </g>
  </g>
</svg>