<?xml version="1.0" encoding="UTF-8"?>
<svg id="_Слой_2" data-name="Слой 2" xmlns="http://www.w3.org/2000/svg" viewBox="0 0 56.65 39.25">
  <defs>
    <style>
      .cls-1 {
        fill: #f6c340;
        fill-rule: evenodd;
      }

      .cls-2 {
        fill: none;
        stroke-linecap: round;
      }

      .cls-2, .cls-3, .cls-4, .cls-5 {
        stroke-miterlimit: 10;
      }

      .cls-2, .cls-3, .cls-5 {
        stroke: #a8acb3;
      }

      .cls-3 {
        fill: #a8acb3;
        stroke-width: .81px;
      }

      .cls-4 {
        stroke: #fff;
        stroke-width: .81px;
      }

      .cls-4, .cls-5 {
        fill: #fff;
      }
    </style>
  </defs>
  <g id="_Пищалка-звуки" data-name="Пищалка-звуки">
    <g id="_Пищалка-звуки-2" data-name="Пищалка-звуки">
      <path class="cls-3" d="m39.63,2.68l.09,33.86c0,1.27-1.02,2.29-2.29,2.29h-18.15c-1.26,0-2.29-1.02-2.29-2.29V2.69c0-1.26,1.02-2.29,2.29-2.29h18.06c1.26,0,2.28,1.02,2.29,2.28Z"/>
      <circle class="cls-4" cx="28.36" cy="8.93" r="5.95"/>
      <circle class="cls-4" cx="28.36" cy="26.95" r="9.21"/>
      <g>
        <path class="cls-1" d="m56.64,20.19l-.04.88c0-.18-.05,6.38-4.23,12.21l-1.8,2.36c-.79.8-2.34-.13-1-1.52,1.25-1.35,2.3-3.12,3.22-5.02,1.96-3.88,2.68-9.25,1.67-14.02-.79-3.67-2.38-7.01-4.72-9.75-.2-.26-.44-.48-.56-.81-.18-.47.08-1.02.56-1.17.36-.11.64.07,1.09.55,2.09,2.36,4.06,6.08,4.93,9.2.21.72.38,1.56.5,2.32.12.71.3,1.8.33,2.45l.07,1.5-.02.82Z"/>
        <path class="cls-1" d="m46.34,31.59c-.92.97.21,2.49,1.59.8,5.06-6.25,6.15-14.14,2.3-22.08-.38-.84-2.38-3.93-3.05-4.18-.67-.25-1.3.21-1.17.97.08.34.79,1.1,1.05,1.39.33.46.63.84.96,1.44,2.13,3.34,3.14,7.39,2.72,11.53-.38,3.76-2.05,7.6-4.39,10.13h0Z"/>
        <path class="cls-1" d="m46.47,21.58c-.71,5.11-3.51,7.01-3.55,7.81-.08.59.42,1.06,1,.93,1.05-.21,5.14-6.16,4.31-12.75-.46-3.38-1.63-5.49-3.47-7.94-1.21-1.56-2.01-.3-1.84.38l1.63,2.28c1.67,2.66,2.42,6,1.92,9.29h0Z"/>
      </g>
      <g>
        <path class="cls-1" d="m.02,20.19l.04.88c0-.18.05,6.38,4.23,12.21l1.8,2.36c.79.8,2.34-.13,1-1.52-1.25-1.35-2.3-3.12-3.22-5.02-1.96-3.88-2.68-9.25-1.67-14.02.79-3.67,2.38-7.01,4.72-9.75.2-.26.44-.48.56-.81.18-.47-.08-1.02-.56-1.17-.36-.11-.64.07-1.09.55C3.75,6.25,1.78,9.97.91,13.09c-.21.72-.38,1.56-.5,2.32-.12.71-.3,1.8-.33,2.45l-.07,1.5.02.82Z"/>
        <path class="cls-1" d="m10.31,31.59c.92.97-.21,2.49-1.59.8-5.06-6.25-6.15-14.14-2.3-22.08.38-.84,2.38-3.93,3.05-4.18.67-.25,1.3.21,1.17.97-.08.34-.79,1.1-1.05,1.39-.33.46-.63.84-.96,1.44-2.13,3.34-3.14,7.39-2.72,11.53.38,3.76,2.05,7.6,4.39,10.13h0Z"/>
        <path class="cls-1" d="m10.19,21.58c.71,5.11,3.51,7.01,3.55,7.81.08.59-.42,1.06-1,.93-1.05-.21-5.14-6.16-4.31-12.75.46-3.38,1.63-5.49,3.47-7.94,1.21-1.56,2.01-.3,1.84.38l-1.63,2.28c-1.67,2.66-2.42,6-1.92,9.29h0Z"/>
      </g>
      <circle class="cls-5" cx="28.36" cy="8.93" r="2.97"/>
      <circle class="cls-5" cx="28.36" cy="26.95" r="6.23"/>
      <path class="cls-2" d="m25.59,29.57c-.61-.64-.99-1.5-.99-2.46,0-1.96,1.59-3.54,3.54-3.54.87,0,1.66.31,2.27.83"/>
    </g>
  </g>
</svg>