<svg xmlns="http://www.w3.org/2000/svg" viewBox="0 0 39.69 40.08"><defs><style>.cls-1{fill:#00a3c4;fill-rule:evenodd;}</style></defs><g id="Слой_2" data-name="Слой 2"><g id="Слой_73" data-name="Слой 73"><path class="cls-1" d="M19.76,0c11,0,16.41,0,16.75.09a4.3,4.3,0,0,1,1.05.34,3.74,3.74,0,0,1,1,.72,3,3,0,0,1,.68,1,4.69,4.69,0,0,1,.34,1.06c.06.34.09,5.75.09,16.83s0,16.46-.09,16.84a5.66,5.66,0,0,1-.34,1.06,3.11,3.11,0,0,1-.71,1,3.47,3.47,0,0,1-1,.74,4.32,4.32,0,0,1-1.05.35c-.34,0-5.7.08-16.67.08s-16.3,0-16.67-.08a4.72,4.72,0,0,1-1-.35,5.2,5.2,0,0,1-1-.68,4.24,4.24,0,0,1-.73-1,4.5,4.5,0,0,1-.34-1.06C0,36.5,0,31.09,0,20S0,3.55.09,3.21A4.43,4.43,0,0,1,.43,2.12a3.93,3.93,0,0,1,.73-1,4,4,0,0,1,1-.72,4.28,4.28,0,0,1,1-.31C3.34,0,10.2,0,19.76,0ZM3,2.89a1.66,1.66,0,0,0-.31.4c-.11.2-.11,1-.11,4.7v4.49h9.75V2.61c-6.89,0-9,.05-9,.05A1.45,1.45,0,0,0,3,2.89ZM15,12.48h9.75V2.61H15Zm12.36,0h9.75l0-9a.5.5,0,0,0-.17-.4l-.28-.29a.54.54,0,0,0-.4-.17l-8.87-.05ZM2.61,25h9.75V15.12H2.61ZM15,25h9.75V15.12H15Zm12.36,0h9.75V15.12H27.33ZM2.61,32.07a30.93,30.93,0,0,0,.11,4.69,1.74,1.74,0,0,0,.34.43l.06.06a.5.5,0,0,0,.37.17l8.87,0V27.6H2.61ZM15,37.45h9.75V27.6H15Zm12.36,0c8.07,0,8.9,0,9.1-.12a2.09,2.09,0,0,0,.42-.34l.06-.06a.63.63,0,0,0,.14-.37l0-9H27.33Z"/></g></g></svg>