<?xml version="1.0" encoding="UTF-8"?>
<svg id="_Слой_2" data-name="Слой 2" xmlns="http://www.w3.org/2000/svg" viewBox="0 0 38.41 38.06">
  <defs>
    <style>
      .cls-1 {
        fill: #52a3da;
      }

      .cls-2 {
        fill: #f5c340;
      }

      .cls-3 {
        fill: #00a3c4;
        fill-rule: evenodd;
      }

      .cls-4 {
        fill: #2b97d4;
      }
    </style>
  </defs>
  <g id="_Матрица-картинка" data-name="Матрица-картинка">
    <g id="_Установить_матрицу" data-name="Установить матрицу">
      <g>
        <path class="cls-3" d="m18.04,1.46c10.09-.03,14.96.03,15.3.08.26.03.7.16.96.29.31.16.65.42.93.68.23.26.49.63.62.91.13.26.26.68.31.94.05.34.08,5.28.08,15.4s-.03,15.03-.08,15.37c-.05.26-.18.68-.31.94-.13.29-.39.65-.65.91-.26.29-.6.52-.91.68-.26.13-.7.26-.96.31-.34.05-5.23.08-15.22.08s-14.91-.03-15.22-.08c-.28-.05-.7-.18-.96-.31-.28-.13-.65-.39-.88-.65-.28-.26-.52-.6-.67-.91-.13-.26-.26-.71-.31-.97-.05-.34-.08-5.28-.08-15.37S.03,4.7.08,4.36c.05-.26.18-.71.31-.97.16-.31.39-.65.67-.91.23-.26.62-.52.88-.65.26-.13.65-.26.88-.29.23-.05,6.47-.08,15.22-.08h0ZM2.77,4.1c-.1.08-.23.24-.28.37-.1.16-.1.94-.1,4.29v4.1h8.9V3.84c-6.32.03-8.18.03-8.26.05-.05.03-.18.13-.26.21h0Zm10.9,8.76h8.9V3.84h-8.9v9.02Zm11.28,0h8.9l-.03-8.21c0-.13-.05-.26-.16-.37l-.26-.24c-.1-.1-.23-.16-.36-.16l-8.1-.05v9.02ZM2.38,24.26h8.9v-9.02H2.38v9.02Zm22.57,0h8.9v-9.02h-8.9v9.02Zm-11.28,11.4h8.9v-8.99h-8.9v8.99Zm11.28,0c7.38,0,8.13-.03,8.31-.1.1-.05.28-.21.36-.31l.05-.05c.1-.1.16-.21.16-.37l.03-8.16h-8.9v8.99Z"/>
        <path class="cls-1" d="m27.28,15.11l-2.25,2.33-1.92-1.93-1.94-1.99,1.04-1.05h0c.57-.58,1.14-1.15,1.16-1.15,0,0,3.34,3.32,3.91,3.79h0Z"/>
        <path class="cls-2" d="m17.21,21.12c-.05-.13-.16-.52-.23-.86-.08-.39-.13-.94-.13-1.36,0-.39.05-.94.1-1.23.05-.29.26-.81.44-1.18.26-.58.41-.78.96-1.33.36-.34.85-.76,1.09-.89.23-.13.67-.34.98-.47.31-.13.67-.29.75-.29.05,0,.47.5,1.94,1.99l1.94,1.96-.05.5c-.03.26-.1.71-.18.94-.05.24-.23.6-.39.84-.16.24-.47.63-.7.84-.23.21-.62.5-.83.6-.23.1-.62.24-.85.29s-.93.16-1.53.24c-.6.08-1.35.21-1.63.29-.28.08-.7.24-1.19.44l-.49-1.31Z"/>
        <path class="cls-4" d="m25.24,13.36l-1.94-1.93,5.25-5.39c2.87-2.95,5.38-5.44,5.54-5.54,2.59-1.78,5.44,1.65,3.88,3.82-.08.08-2.51,2.56-10.82,10.98l-1.92-1.93Z"/>
      </g>
    </g>
  </g>
</svg>