<svg xmlns="http://www.w3.org/2000/svg" viewBox="0 0 42.73 40.73"><defs><style>.cls-1{fill:#acca7e;}.cls-2{fill:#e5716a;}.cls-3{fill:#2b97d4;stroke:#2b97d4;stroke-miterlimit:10;stroke-width:0.32px;}.cls-4{fill:#f5c340;}.cls-5{fill:#71bfe8;}.cls-6{fill:#ed79bc;}.cls-7{fill:#ffeef9;}</style></defs><g id="Слой_2" data-name="Слой 2"><g id="Глаза-RGBK"><g id="установить_цвет" data-name="установить цвет"><circle class="cls-1" cx="30.24" cy="28.08" r="12.49"/><circle class="cls-2" cx="21.65" cy="12.49" r="12.49"/><circle class="cls-3" cx="12.65" cy="28.08" r="12.49"/><path class="cls-4" d="M33.62,16.06a12.82,12.82,0,0,0-5.32-.29,12.29,12.29,0,0,0-6.65,3.28,13,13,0,0,0-3.36,5.46,16.75,16.75,0,0,0,4.52.4,11.19,11.19,0,0,0,9.94-6.65A16.88,16.88,0,0,0,33.62,16.06Z"/><path class="cls-5" d="M21.2,19.55a12.89,12.89,0,0,0-2.73,4.57,12.32,12.32,0,0,0-.19,7.42,12.94,12.94,0,0,0,3.28,5.51,12.29,12.29,0,0,0,2.6-3.64c1.33-2.93,2.38-7.53-1.17-12.11A20.63,20.63,0,0,0,21.2,19.55Z"/><path class="cls-6" d="M9.6,15.81a12.79,12.79,0,0,1,5.32-.29,12.29,12.29,0,0,1,6.65,3.28,14.37,14.37,0,0,1,3.26,5.84,26.32,26.32,0,0,1-4.55.16A11.19,11.19,0,0,1,10.47,18,15.57,15.57,0,0,1,9.6,15.81Z"/><path class="cls-7" d="M21.73,19a11.32,11.32,0,0,1,3.1,5.67,19.56,19.56,0,0,1-6.49-.11S19.74,20.25,21.73,19Z"/></g></g></g></svg>