<?xml version="1.0" encoding="UTF-8"?>
<svg id="_Слой_2" data-name="Слой 2" xmlns="http://www.w3.org/2000/svg" viewBox="0 0 48.26 38.54">
  <defs>
    <style>
      .cls-1 {
        fill: #e5716a;
        stroke: #e5716a;
      }

      .cls-1, .cls-2 {
        stroke-miterlimit: 10;
        stroke-width: .07px;
      }

      .cls-2 {
        fill: #a9acb3;
        stroke: #a9acb3;
      }
    </style>
  </defs>
  <g id="_Пищалка-звуки" data-name="Пищалка-звуки">
    <g id="_последний_звук" data-name="последний звук">
      <g>
        <path class="cls-1" d="m26.22,11.44l-.05,18.84c0,.11-.12.18-.22.13-1-.6-5.23-2.72-9.41,1.68-.71.74-1.13,1.73-1.11,2.76.03,1.31.73,2.91,3.72,3.55,0,0,3.3.71,6.33-1.57,0,0,.11-.08.28-.24,1.12-1.03,1.74-2.49,1.74-4.01v-15.2"/>
        <path class="cls-1" d="m48.23,8.63v20.56c0,1.52-.62,2.98-1.74,4.01-.17.16-.28.24-.28.24-3.03,2.28-6.33,1.57-6.33,1.57-3-.63-3.7-2.24-3.72-3.55-.02-1.03.4-2.01,1.11-2.76,4.18-4.4,8.41-2.29,9.41-1.68.1.06.22-.01.22-.13l.04-12.51,1.31-5.75Z"/>
        <path class="cls-1" d="m46.45,6.73l-18.95,2.88c-.74.12-1.28.76-1.28,1.51v8.15s22.01-3.39,22.01-3.39v-7.64c0-.95-.85-1.66-1.78-1.51Z"/>
      </g>
      <path class="cls-2" d="m11.35.1c-.26-.12-.58-.08-.77.14-.07.08-.13.19-.15.34l.67,21.39c0,.12-.12.2-.23.14-1.07-.6-5.56-2.66-9.77,2.09-.71.8-1.12,1.85-1.06,2.92.07,1.37.87,3.02,4.02,3.58,0,0,3.47.63,6.57-1.87,0,0,.11-.09.29-.26,1.14-1.11,1.73-2.66,1.68-4.25,0,0-.49-14.33-.49-14.41,0,.08.43.14,1.49.98.64.5,1.13,1.07,1.59,1.7.9,1.23,1.5,2.68,1.71,4.19.03.23.06.46.17.66.25.43.68.41.96.18.51-.43.85-1.56.96-1.84.34-.9.61-1.85.8-2.8.3-1.55.21-3.23-.58-4.6-.53-.92-1.35-1.63-2.18-2.29-.99-.78-2.03-1.5-2.95-2.35-1.06-.97-1.7-2.06-2.36-3.31-.07-.14-.19-.25-.34-.32h0Z"/>
    </g>
  </g>
</svg>