<?xml version="1.0" encoding="UTF-8"?>
<svg id="_Слой_2" data-name="Слой 2" xmlns="http://www.w3.org/2000/svg" viewBox="0 0 54.4 38.31">
  <defs>
    <style>
      .cls-1 {
        fill: #e5716a;
        stroke: #e5716a;
      }

      .cls-1, .cls-2 {
        stroke-miterlimit: 10;
        stroke-width: .07px;
      }

      .cls-2 {
        fill: #a9acb3;
        stroke: #a9acb3;
      }
    </style>
  </defs>
  <g id="_КОМ._пищ_ноты" data-name="КОМ. пищ ноты">
    <g id="_последняя_нота" data-name="последняя нота">
      <g id="_последняя_нота-2" data-name="последняя нота">
        <path class="cls-2" d="m13.3,5.26c-.25-.14-.56-.12-.77.07-.08.07-.15.18-.17.32l-1.05,21.05c0,.12-.14.18-.23.12-1-.67-5.24-3.05-9.76,1.27-.76.73-1.25,1.72-1.28,2.78-.04,1.35.61,3.03,3.66,3.83,0,0,3.36.89,6.59-1.3,0,0,.12-.08.3-.23,1.2-1,1.92-2.48,1.99-4.04,0,0,.67-14.1.67-14.18,0,.07.41.17,1.38,1.08.58.54,1.02,1.14,1.42,1.79.78,1.28,1.26,2.75,1.35,4.25.01.22.02.45.12.66.21.44.63.46.92.25.54-.38.96-1.46,1.09-1.72.41-.86.75-1.77,1.01-2.68.42-1.5.47-3.16-.21-4.56-.45-.94-1.19-1.71-1.96-2.42-.91-.84-1.87-1.63-2.71-2.54-.96-1.04-1.51-2.15-2.05-3.44-.06-.14-.17-.27-.31-.34h0Z"/>
        <path class="cls-2" d="m31.63.08c-.26-.1-.57-.05-.75.17-.07.08-.12.19-.13.34l1.65,21.01c0,.12-.11.2-.22.15-1.08-.54-5.59-2.36-9.52,2.51-.66.82-1.02,1.87-.91,2.92.14,1.35.99,2.93,4.12,3.33,0,0,3.45.45,6.37-2.14,0,0,.11-.1.27-.27,1.07-1.15,1.58-2.7,1.46-4.26,0,0-1.14-14.07-1.15-14.15,0,.07.43.12,1.51.9.65.46,1.16,1,1.64,1.6.94,1.17,1.6,2.56,1.88,4.04.04.22.08.45.2.64.26.41.68.37.95.13.48-.45.77-1.57.86-1.85.3-.9.52-1.85.66-2.79.23-1.54.06-3.19-.79-4.49-.57-.88-1.4-1.54-2.25-2.15-1.01-.72-2.06-1.38-3.01-2.17-1.09-.91-1.77-1.94-2.48-3.15-.08-.14-.2-.24-.35-.3h0Z"/>
        <path class="cls-1" d="m47.36,9.05c-.24-.15-.56-.15-.77.04-.08.07-.15.17-.19.31l-2.07,20.98c-.01.12-.15.18-.24.11-.97-.72-5.09-3.3-9.81.8-.8.69-1.33,1.66-1.41,2.72-.1,1.35.46,3.06,3.47,4.01,0,0,3.31,1.05,6.65-.99,0,0,.12-.08.31-.22,1.25-.94,2.03-2.38,2.18-3.94l1.36-14.14c0,.07.4.19,1.33,1.15.56.57.97,1.19,1.33,1.86.72,1.32,1.12,2.81,1.14,4.31,0,.22,0,.46.08.66.19.45.61.49.91.29.55-.35,1.03-1.41,1.17-1.67.45-.84.84-1.73,1.14-2.63.49-1.47.62-3.13.01-4.56-.4-.96-1.11-1.77-1.84-2.51-.87-.89-1.79-1.72-2.58-2.67-.91-1.08-1.4-2.22-1.88-3.53-.05-.15-.16-.27-.29-.36h0Z"/>
      </g>
    </g>
  </g>
</svg>