<svg xmlns="http://www.w3.org/2000/svg" viewBox="0 0 35.62 35.95"><defs><style>.cls-1{fill:#00a3c4;}.cls-1,.cls-2{fill-rule:evenodd;}.cls-2{fill:#fff;stroke:#f3c23c;stroke-linejoin:bevel;stroke-width:1px;}.cls-3{fill:#272c2a;}.cls-4{fill:none;stroke:#272c2a;stroke-miterlimit:10;stroke-width:0.2px;}</style></defs><g id="Слой_2" data-name="Слой 2"><g id="Слой_75" data-name="Слой 75"><path class="cls-1" d="M20.86,33.91c6.18,0,6.81,0,7-.08a1.94,1.94,0,0,0,.31-.26l.06-.06a.39.39,0,0,0,.11-.31l0-6.87H20.86v7.58Zm-9.44,0h7.46V26.33H11.42v7.58Zm9.44-9.62h7.46V16.68H20.86v7.61ZM2,24.29H9.44V16.68H2v7.61Zm18.85-9.62h7.46l0-6.93a.45.45,0,0,0-.11-.31L28,7.23a.44.44,0,0,0-.31-.14l-6.78,0v7.61Zm-9.44,0h7.46V7.06H11.42v7.61ZM2.32,7.26a.84.84,0,0,0-.22.31A19.65,19.65,0,0,0,2,11.21v3.46H9.44V7.06c-5.27,0-6.83,0-6.89,0a.85.85,0,0,0-.23.17ZM15.08,5.05c8.45,0,12.53,0,12.81.06a3.37,3.37,0,0,1,.8.23,4.57,4.57,0,0,1,.76.57,4.06,4.06,0,0,1,.54.78,7.46,7.46,0,0,1,.26.8c0,.28.05,4.46.05,13s0,12.71-.05,13a7.92,7.92,0,0,1-.26.78,2.9,2.9,0,0,1-.54.77,2.2,2.2,0,0,1-.76.57,5.23,5.23,0,0,1-.8.29c-.28,0-4.39.06-12.72.06s-12.48,0-12.73-.06a3.63,3.63,0,0,1-.8-.29,2.2,2.2,0,0,1-.73-.54,2.26,2.26,0,0,1-.57-.78,2.94,2.94,0,0,1-.25-.8C0,33.2,0,29,0,20.49s0-12.72.09-13a2.49,2.49,0,0,1,.25-.8,1.82,1.82,0,0,1,.57-.78,2.69,2.69,0,0,1,.73-.57,2.63,2.63,0,0,1,.74-.23c.2-.06,5.39-.06,12.7-.06Zm-3.6,19.24h7.46V16.68H11.48v7.61Z"/><path class="cls-2" d="M27.47.5h.37a7.68,7.68,0,0,1,7.28,7.39v.63a7.66,7.66,0,0,1-7.28,7.41h-.4A7.62,7.62,0,0,1,20,8.29V8.12A7.58,7.58,0,0,1,22,3,7.51,7.51,0,0,1,27.47.5Z"/><path class="cls-3" d="M23.81,4.19a1,1,0,0,1,.91.49A2.62,2.62,0,0,1,25,6.08a2.59,2.59,0,0,1-.31,1.38,1.1,1.1,0,0,1-1.82,0,2.68,2.68,0,0,1-.31-1.38,2.71,2.71,0,0,1,.31-1.4,1,1,0,0,1,.91-.49Zm0,.41a.53.53,0,0,0-.51.34,2.79,2.79,0,0,0-.17,1.14A2.75,2.75,0,0,0,23.3,7.2a.55.55,0,0,0,1,0,2.75,2.75,0,0,0,.17-1.12,2.79,2.79,0,0,0-.17-1.14.53.53,0,0,0-.51-.34Z"/><polygon class="cls-3" points="26.93 4.25 26.93 7.89 26.45 7.89 26.45 4.8 25.6 5.31 25.4 4.94 26.5 4.25 26.93 4.25"/><path class="cls-3" d="M29,4.19a1,1,0,0,1,.9.49,2.61,2.61,0,0,1,.32,1.4,2.58,2.58,0,0,1-.32,1.38,1,1,0,0,1-.9.48,1,1,0,0,1-.91-.48,2.59,2.59,0,0,1-.31-1.38,2.62,2.62,0,0,1,.31-1.4A1,1,0,0,1,29,4.19Zm0,.41a.53.53,0,0,0-.51.34,2.63,2.63,0,0,0-.17,1.14,2.59,2.59,0,0,0,.17,1.12.53.53,0,0,0,.51.34.55.55,0,0,0,.51-.34,2.75,2.75,0,0,0,.17-1.12,2.79,2.79,0,0,0-.17-1.14A.55.55,0,0,0,29,4.6Z"/><polygon class="cls-3" points="32.15 4.25 32.15 7.89 31.66 7.89 31.66 4.8 30.81 5.31 30.61 4.94 31.72 4.25 32.15 4.25"/><polygon class="cls-3" points="24.04 8.55 24.04 12.18 23.56 12.18 23.56 9.09 22.71 9.61 22.51 9.23 23.61 8.55 24.04 8.55"/><path class="cls-3" d="M26.16,8.49a1,1,0,0,1,.91.49,2.59,2.59,0,0,1,.31,1.4,2.55,2.55,0,0,1-.31,1.37,1.08,1.08,0,0,1-1.81,0,2.54,2.54,0,0,1-.32-1.37A2.58,2.58,0,0,1,25.26,9a1,1,0,0,1,.9-.49Zm0,.4a.55.55,0,0,0-.51.34,2.82,2.82,0,0,0-.17,1.15,2.78,2.78,0,0,0,.17,1.12.57.57,0,0,0,.51.34.55.55,0,0,0,.51-.34,2.62,2.62,0,0,0,.17-1.12,2.65,2.65,0,0,0-.17-1.15.53.53,0,0,0-.51-.34Z"/><polygon class="cls-3" points="29.25 8.55 29.25 12.18 28.77 12.18 28.77 9.09 27.92 9.61 27.72 9.23 28.83 8.55 29.25 8.55"/><path class="cls-3" d="M31.38,8.49a1,1,0,0,1,.91.49,2.59,2.59,0,0,1,.31,1.4,2.55,2.55,0,0,1-.31,1.37,1.09,1.09,0,0,1-1.82,0,2.55,2.55,0,0,1-.31-1.37A2.59,2.59,0,0,1,30.47,9a1,1,0,0,1,.91-.49Zm0,.4a.53.53,0,0,0-.51.34,2.82,2.82,0,0,0-.17,1.15,2.78,2.78,0,0,0,.17,1.12.55.55,0,0,0,1,0,2.78,2.78,0,0,0,.17-1.12,2.82,2.82,0,0,0-.17-1.15.53.53,0,0,0-.51-.34Z"/><path class="cls-4" d="M23.81,4.19a1,1,0,0,1,.91.49A2.62,2.62,0,0,1,25,6.08a2.59,2.59,0,0,1-.31,1.38,1.1,1.1,0,0,1-1.82,0,2.68,2.68,0,0,1-.31-1.38,2.71,2.71,0,0,1,.31-1.4,1,1,0,0,1,.91-.49Zm0,.41a.53.53,0,0,0-.51.34,2.79,2.79,0,0,0-.17,1.14A2.75,2.75,0,0,0,23.3,7.2a.55.55,0,0,0,1,0,2.75,2.75,0,0,0,.17-1.12,2.79,2.79,0,0,0-.17-1.14.53.53,0,0,0-.51-.34Z"/><polygon class="cls-4" points="26.93 4.25 26.93 7.89 26.45 7.89 26.45 4.8 25.6 5.31 25.4 4.94 26.5 4.25 26.93 4.25"/><path class="cls-4" d="M29,4.19a1,1,0,0,1,.9.49,2.61,2.61,0,0,1,.32,1.4,2.58,2.58,0,0,1-.32,1.38,1,1,0,0,1-.9.48,1,1,0,0,1-.91-.48,2.59,2.59,0,0,1-.31-1.38,2.62,2.62,0,0,1,.31-1.4A1,1,0,0,1,29,4.19Zm0,.41a.53.53,0,0,0-.51.34,2.63,2.63,0,0,0-.17,1.14,2.59,2.59,0,0,0,.17,1.12.53.53,0,0,0,.51.34.55.55,0,0,0,.51-.34,2.75,2.75,0,0,0,.17-1.12,2.79,2.79,0,0,0-.17-1.14A.55.55,0,0,0,29,4.6Z"/><polygon class="cls-4" points="32.15 4.25 32.15 7.89 31.66 7.89 31.66 4.8 30.81 5.31 30.61 4.94 31.72 4.25 32.15 4.25"/><polygon class="cls-4" points="24.04 8.55 24.04 12.18 23.56 12.18 23.56 9.09 22.71 9.61 22.51 9.23 23.61 8.55 24.04 8.55"/><path class="cls-4" d="M26.16,8.49a1,1,0,0,1,.91.49,2.59,2.59,0,0,1,.31,1.4,2.55,2.55,0,0,1-.31,1.37,1.08,1.08,0,0,1-1.81,0,2.54,2.54,0,0,1-.32-1.37A2.58,2.58,0,0,1,25.26,9a1,1,0,0,1,.9-.49Zm0,.4a.55.55,0,0,0-.51.34,2.82,2.82,0,0,0-.17,1.15,2.78,2.78,0,0,0,.17,1.12.57.57,0,0,0,.51.34.55.55,0,0,0,.51-.34,2.62,2.62,0,0,0,.17-1.12,2.65,2.65,0,0,0-.17-1.15.53.53,0,0,0-.51-.34Z"/><polygon class="cls-4" points="29.25 8.55 29.25 12.18 28.77 12.18 28.77 9.09 27.92 9.61 27.72 9.23 28.83 8.55 29.25 8.55"/><path class="cls-4" d="M31.38,8.49a1,1,0,0,1,.91.49,2.59,2.59,0,0,1,.31,1.4,2.55,2.55,0,0,1-.31,1.37,1.09,1.09,0,0,1-1.82,0,2.55,2.55,0,0,1-.31-1.37A2.59,2.59,0,0,1,30.47,9a1,1,0,0,1,.91-.49Zm0,.4a.53.53,0,0,0-.51.34,2.82,2.82,0,0,0-.17,1.15,2.78,2.78,0,0,0,.17,1.12.55.55,0,0,0,1,0,2.78,2.78,0,0,0,.17-1.12,2.82,2.82,0,0,0-.17-1.15.53.53,0,0,0-.51-.34Z"/></g></g></svg>