<?xml version="1.0" encoding="UTF-8"?>
<svg id="_Слой_2" data-name="Слой 2" xmlns="http://www.w3.org/2000/svg" viewBox="0 0 37.86 38.6">
  <defs>
    <style>
      .cls-1 {
        fill: #72c0e9;
      }

      .cls-1, .cls-2 {
        fill-rule: evenodd;
      }

      .cls-3 {
        fill: #676b6d;
        stroke: #676b6d;
        stroke-width: .5px;
      }

      .cls-3, .cls-4, .cls-5 {
        stroke-miterlimit: 10;
      }

      .cls-2 {
        fill: #fff;
      }

      .cls-4 {
        fill: #fbe880;
        stroke: #fbe880;
      }

      .cls-4, .cls-5 {
        stroke-width: .07px;
      }

      .cls-5 {
        fill: #a9acb3;
        stroke: #a9acb3;
      }
    </style>
  </defs>
  <g id="_Матрица_анимация" data-name="Матрица анимация">
    <g id="_Матрица_анимация-2" data-name="Матрица анимация">
      <g>
        <g>
          <rect class="cls-5" x=".25" y=".27" width="9.68" height="9.68" rx=".89" ry=".89"/>
          <rect class="cls-3" x="14.07" y=".25" width="9.68" height="9.68" rx=".89" ry=".89"/>
          <rect class="cls-3" x="27.93" y=".26" width="9.68" height="9.68" rx=".89" ry=".89"/>
          <rect class="cls-3" x=".25" y="14.47" width="9.68" height="9.68" rx=".89" ry=".89"/>
          <rect class="cls-3" x=".25" y="28.67" width="9.68" height="9.68" rx=".89" ry=".89"/>
          <rect class="cls-4" x="14.07" y="14.45" width="9.68" height="9.68" rx=".89" ry=".89"/>
          <rect class="cls-3" x="27.93" y="14.5" width="9.68" height="9.68" rx=".89" ry=".89"/>
          <rect class="cls-3" x="14.07" y="28.67" width="9.68" height="9.68" rx=".89" ry=".89"/>
          <rect class="cls-5" x="27.93" y="28.67" width="9.68" height="9.68" rx=".89" ry=".89"/>
        </g>
        <g>
          <path class="cls-1" d="m18.98,31.6c6.72,0,12.19-5.52,12.19-12.31s-5.47-12.31-12.19-12.31-12.19,5.54-12.19,12.31,5.49,12.31,12.19,12.31h0Z"/>
          <path class="cls-2" d="m25.42,18.65l-4.86-2.85-4.88-2.83c-.23-.14-.49-.14-.73,0-.23.14-.37.37-.37.65v11.35c0,.26.14.49.37.63.24.14.51.14.73,0l4.88-2.83,4.86-2.85c.23-.12.37-.35.37-.63,0-.26-.14-.51-.37-.63h0Zm-1.65.44l-3.76-2.18-3.74-2.2c-.09-.04-.17-.04-.24,0-.09.05-.12.12-.12.21v8.76c0,.09.03.16.12.21.07.05.16.05.24,0l3.74-2.18,3.76-2.2c.07-.04.12-.12.12-.21s-.05-.16-.12-.21h0Z"/>
        </g>
      </g>
    </g>
  </g>
</svg>