<svg xmlns="http://www.w3.org/2000/svg" viewBox="0 0 47.8 37.2"><defs><style>.cls-1{fill:#e5c688;}.cls-2{fill:#fff;}.cls-3{fill:#e5716a;}.cls-4{fill:#efeff3;}.cls-5{fill:#acca7e;}.cls-6{fill:#2b98d5;}</style></defs><g id="Слой_2" data-name="Слой 2"><g id="Слой_73" data-name="Слой 73"><g id="установить_цвет" data-name="установить цвет"><path class="cls-1" d="M5.7,11.61C5.23,9.17,7,6.28,8.8,4.76A19,19,0,0,1,16.29.92a28.24,28.24,0,0,1,21.87,3.2,22.69,22.69,0,0,1,4.79,4C46,11.53,48.14,16.29,47.76,21c-.43,5.3-3.73,9.78-8.06,12.66a23.72,23.72,0,0,1-10.26,3.33A36.52,36.52,0,0,1,7.32,32.51C4.28,30.82.53,28.59,0,24.8A4.51,4.51,0,0,1,1.29,21a4.94,4.94,0,0,1,2.94-1.2,15.86,15.86,0,0,1,4.9.48c1.32.28,2.94.5,4.12-.34A1.56,1.56,0,0,0,14,18.73c.07-1.5-2-2.5-3.08-3a14.26,14.26,0,0,1-4-2.19A3.67,3.67,0,0,1,5.77,11.9,1.53,1.53,0,0,1,5.7,11.61Z"/><ellipse class="cls-2" cx="18.9" cy="10.72" rx="3.36" ry="5.45" transform="translate(2.55 25.04) rotate(-70.78)"/><circle class="cls-3" cx="37.7" cy="13.44" r="4.66"/><circle class="cls-4" cx="37.19" cy="26.03" r="4.66"/><circle class="cls-5" cx="25.63" cy="30.69" r="4.66"/><circle class="cls-6" cx="13.37" cy="28.3" r="4.66"/></g></g></g></svg>