<?xml version="1.0" encoding="UTF-8"?>
<svg id="_Слой_2" data-name="Слой 2" xmlns="http://www.w3.org/2000/svg" viewBox="0 0 37.76 38.14">
  <defs>
    <style>
      .cls-1 {
        fill: #dd54a9;
      }

      .cls-2 {
        fill: #52a3da;
      }

      .cls-3 {
        fill: #2b97d4;
      }
    </style>
  </defs>
  <g id="_Глаза-RGBK" data-name="Глаза-RGBK">
    <g id="_установить_цвет" data-name="установить цвет">
      <path class="cls-2" d="m14.91,3.49c1-1.04,1.94-1.96,2.08-2.1.24-.16.38-.19.7-.19.35-.03.49.03.73.22.16.11,3.21,3.16,6.74,6.76,3.56,3.6,6.53,6.65,6.61,6.73.08.14.11.35.11.6,0,.27-.03.49-.11.6-.08.11-3.83,3.95-8.36,8.53-4.53,4.6-8.39,8.44-8.55,8.55-.24.19-.35.25-.7.25-.32,0-.46-.05-.7-.25-.16-.11-3.18-3.16-6.74-6.76C3.16,22.83.19,19.78.11,19.69c-.05-.14-.11-.35-.11-.6,0-.35.03-.46.22-.71.11-.16,1.19-1.31,4.58-4.71l.89.93c.51.52,1.24,1.17,1.62,1.47.38.3,1,.74,1.35.95.38.25,1.05.63,1.48.82.46.22,1.21.54,1.7.71.49.16,1.24.35,1.67.44.54.08,1.02.11,1.62.08.65-.03,1-.08,1.43-.22.32-.11.81-.33,1.08-.49s.65-.44.86-.65c.3-.27.4-.44.43-.68.03-.16.03-.41,0-.54-.03-.16-.16-.38-.32-.54-.19-.16-.38-.27-.57-.33-.16-.03-.4-.03-.54,0-.13.03-.38.16-.54.33-.19.14-.46.33-.65.44-.19.08-.51.19-.73.25-.22.05-.59.08-.86.08-.24,0-.65-.03-.92-.08-.27-.03-.78-.16-1.16-.3-.35-.11-1.13-.46-1.7-.74-.57-.27-1.35-.74-1.73-1.01-.38-.3-1.16-.98-2.78-2.59l3.29-3.32c1.81-1.83,3.32-3.32,3.32-3.32.03.03.86-.82,1.86-1.85h0Z"/>
      <path class="cls-1" d="m29.13,21.41c.4-.49.86-.93,1-1.01.13-.05.38-.14.57-.14.16,0,.43.08.59.14.13.08.57.49,1,1.01.4.46,1,1.12,1.27,1.47.3.35.78.98,1.08,1.39.3.41.84,1.17,1.16,1.69.32.49.81,1.31,1.05,1.77.22.46.54,1.17.67,1.58.22.68.24.74.24,1.83,0,.93-.03,1.2-.16,1.74-.11.35-.32.9-.46,1.23-.16.33-.49.87-.73,1.2-.24.33-.62.79-.89,1.01-.22.22-.65.54-.94.74-.3.19-.76.44-1.08.57-.3.14-.78.3-1.05.38-.4.11-.78.14-1.75.14-1.02,0-1.29-.03-1.83-.16-.35-.11-.92-.33-1.29-.52-.35-.16-.92-.54-1.24-.79-.32-.25-.78-.68-1-.95-.24-.27-.54-.68-.7-.93-.13-.25-.35-.68-.49-.98-.11-.27-.27-.74-.35-1.04-.11-.41-.13-.76-.13-1.63,0-1.09.03-1.14.24-1.83.13-.41.46-1.12.67-1.58.24-.46.73-1.28,1.05-1.77.32-.52.86-1.28,1.16-1.69.3-.41.78-1.04,1.08-1.39.27-.35.86-1.01,1.27-1.47h0Z"/>
      <path class="cls-3" d="m3.78.57c.35-.16.86-.35,1.16-.44.4-.08.84-.14,1.54-.14s1.19.05,1.73.14c.4.08,1.05.27,1.46.41.38.16,1.11.46,1.59.71.49.25,1.24.68,1.67.95.43.3,1,.74,1.27.95.27.22.51.46.51.52,0,.03-.38.46-.81.9-.46.46-.84.82-.86.82-.03-.03-.19-.16-.4-.33-.19-.19-.65-.52-1-.76s-1-.63-1.4-.82c-.4-.22-1-.46-1.29-.57-.3-.11-.81-.27-1.11-.35-.3-.05-.86-.11-1.27-.14-.43,0-.84.05-1.11.14-.22.05-.57.22-.76.35-.22.14-.49.44-.62.63-.13.22-.3.54-.35.79-.08.22-.13.68-.13,1.06s.05.95.13,1.28c.08.33.24.87.35,1.2s.38.9.54,1.25c.19.38.54,1.01.81,1.39.27.38.65.93.86,1.2.22.27.81.9,1.32,1.42.51.52,1.24,1.14,1.62,1.44.38.27,1.16.74,1.73,1.01.57.27,1.35.63,1.7.74.38.14.89.27,1.16.3.27.05.67.08.92.08.27,0,.65-.03.86-.08.22-.05.54-.16.73-.25.19-.11.46-.3.65-.44.16-.16.4-.3.54-.33.13-.03.38-.03.54,0,.19.05.38.16.57.33.16.16.3.38.32.54.03.14.03.38,0,.54-.03.25-.13.41-.43.68-.22.22-.59.49-.86.65s-.76.38-1.08.49c-.43.14-.78.19-1.43.22-.59.03-1.08,0-1.62-.08-.43-.08-1.19-.27-1.67-.44-.49-.16-1.24-.49-1.7-.71-.43-.19-1.11-.57-1.48-.82-.35-.22-.97-.65-1.35-.95-.38-.3-1.16-.98-1.7-1.53-.54-.57-1.19-1.28-1.43-1.58-.24-.3-.65-.87-.89-1.23-.24-.35-.62-1.06-.86-1.55-.24-.52-.54-1.23-.7-1.63-.13-.41-.32-1.06-.4-1.5-.11-.52-.16-1.04-.16-1.66,0-.54.05-1.09.13-1.44.05-.3.27-.87.43-1.25.27-.54.46-.79.89-1.25.4-.41.7-.63,1.16-.87h0Z"/>
    </g>
  </g>
</svg>