<?xml version="1.0" encoding="UTF-8"?>
<svg id="_Слой_2" data-name="Слой 2" xmlns="http://www.w3.org/2000/svg" viewBox="0 0 47.8 37.2">
  <defs>
    <style>
      .cls-1 {
        fill: #e5c688;
      }

      .cls-2 {
        fill: #fff;
      }

      .cls-3 {
        fill: #dc574d;
      }

      .cls-4 {
        fill: #adcb7e;
      }

      .cls-5 {
        fill: #fbe880;
        stroke: #fbe880;
        stroke-miterlimit: 10;
        stroke-width: .07px;
      }

      .cls-6 {
        fill: #2b98d5;
      }
    </style>
  </defs>
  <g id="_Глаза_палитра" data-name="Глаза палитра">
    <g id="_установить_цвет" data-name="установить цвет">
      <path class="cls-1" d="m5.7,11.61c-.47-2.44,1.34-5.34,3.1-6.86,2.15-1.85,4.76-3.11,7.49-3.84,7.25-1.93,15.51-.81,21.87,3.2,1.76,1.11,3.39,2.45,4.78,4,3.08,3.42,5.19,8.17,4.81,12.84-.43,5.3-3.73,9.77-8.06,12.66-3,2-6.74,2.9-10.27,3.33-7.62.94-15.42-.7-22.12-4.43-3.03-1.69-6.79-3.91-7.28-7.71-.18-1.39.23-2.88,1.25-3.84.79-.74,1.87-1.1,2.94-1.21,1.65-.16,3.29.15,4.9.48,1.32.28,2.94.5,4.12-.34.39-.27.68-.7.71-1.17.08-1.5-1.97-2.5-3.08-3.03-1.36-.65-2.91-1.13-4.02-2.19-.47-.45-.9-.98-1.09-1.61-.03-.09-.05-.19-.07-.28Z"/>
      <ellipse class="cls-2" cx="18.9" cy="10.72" rx="3.36" ry="5.45" transform="translate(2.55 25.04) rotate(-70.78)"/>
      <circle class="cls-3" cx="37.7" cy="13.44" r="4.66"/>
      <circle class="cls-5" cx="37.19" cy="26.03" r="4.66"/>
      <circle class="cls-4" cx="25.63" cy="30.69" r="4.66"/>
      <circle class="cls-6" cx="13.37" cy="28.3" r="4.66"/>
    </g>
  </g>
</svg>