<svg xmlns="http://www.w3.org/2000/svg" viewBox="0 0 36.25 36.45"><defs><style>.cls-1,.cls-2,.cls-5,.cls-6,.cls-7{fill:none;}.cls-1,.cls-2,.cls-3,.cls-5,.cls-6{stroke:#00a3c4;}.cls-1,.cls-2,.cls-6,.cls-7{stroke-linecap:round;}.cls-1,.cls-2,.cls-3,.cls-4,.cls-5{stroke-miterlimit:10;}.cls-1,.cls-2{stroke-width:3.6px;}.cls-1{stroke-dasharray:6.14;}.cls-2{stroke-dasharray:12.7;}.cls-3{fill:#00a3c4;}.cls-3,.cls-4{stroke-width:0.12px;}.cls-4{fill:#fff;}.cls-4,.cls-7{stroke:#fff;}.cls-5{stroke-width:0.6px;}.cls-6,.cls-7{stroke-linejoin:round;stroke-width:1.73px;}</style></defs><g id="Слой_2" data-name="Слой 2"><g id="Слой_73" data-name="Слой 73"><path class="cls-1" d="M34.44,15.29c0,2.28,0,2.1,0,6.15"/><path class="cls-1" d="M15.34,1.81c2.28,0,2.1,0,6.14,0"/><path class="cls-2" d="M1.81,8.82c0-2.84,0-4.29.06-4.47a3.08,3.08,0,0,1,.88-1.69,2.82,2.82,0,0,1,1.58-.84H8.81"/><path class="cls-2" d="M27.45,1.81h4.47a2.82,2.82,0,0,1,1.59.84,3.08,3.08,0,0,1,.88,1.7c0,.17,0,1.63.06,4.46"/><path class="cls-1" d="M20.91,34.64c-2.28,0-2.1,0-6.15,0"/><path class="cls-2" d="M34.44,27.63c0,2.83,0,4.29-.06,4.46a3.09,3.09,0,0,1-.89,1.7,2.85,2.85,0,0,1-1.58.84H27.44"/><path class="cls-2" d="M8.8,34.64H4.32a2.84,2.84,0,0,1-1.58-.85,3,3,0,0,1-.88-1.69c0-.17-.05-1.63-.06-4.46"/><path class="cls-1" d="M1.81,15.29c0,2.28,0,2.1,0,6.15"/><path class="cls-3" d="M10.71,25.55s-7.4-7.68.92-15.48c0,0,7-5.47,13.73.82L10.85,25.55"/><path class="cls-4" d="M25.54,10.9s7.41,7.68-.92,15.48c0,0-7,5.47-13.73-.82L25.4,10.9"/><path class="cls-5" d="M28.4,18.22a10.36,10.36,0,1,1-3-7.33A10.36,10.36,0,0,1,28.4,18.22Z"/><polyline class="cls-5" points="10.71 25.55 18.04 18.22 25.36 10.9"/><line class="cls-6" x1="18.38" y1="21.73" x2="24.37" y2="21.73"/><line class="cls-7" x1="12.42" y1="13.88" x2="18.41" y2="13.88"/><line class="cls-7" x1="15.42" y1="16.88" x2="15.42" y2="10.89"/></g></g></svg>