<svg xmlns="http://www.w3.org/2000/svg" viewBox="0 0 36.27 36.48"><defs><style>.cls-1,.cls-5{fill:#fff;}.cls-2,.cls-3,.cls-6,.cls-7,.cls-8{fill:none;}.cls-2,.cls-3,.cls-4,.cls-6,.cls-7{stroke:#00a3c4;}.cls-2,.cls-3,.cls-7,.cls-8{stroke-linecap:round;}.cls-2,.cls-3,.cls-4,.cls-5,.cls-6{stroke-miterlimit:10;}.cls-2,.cls-3{stroke-width:3.6px;}.cls-2{stroke-dasharray:6.14;}.cls-3{stroke-dasharray:12.7;}.cls-4{fill:#00a3c4;}.cls-4,.cls-5{stroke-width:0.12px;}.cls-5,.cls-8{stroke:#fff;}.cls-6{stroke-width:0.6px;}.cls-7,.cls-8{stroke-linejoin:round;stroke-width:1.73px;}</style></defs><g id="Слой_2" data-name="Слой 2"><g id="Слой_73" data-name="Слой 73"><rect class="cls-1" width="36.13" height="36.39" rx="5.04"/><path class="cls-2" d="M34.46,15.33c0,2.28,0,2.1,0,6.14"/><path class="cls-2" d="M15.37,1.84c2.28,0,2.1,0,6.14,0"/><path class="cls-3" d="M1.84,8.86c0-2.84,0-4.3,0-4.47A3.07,3.07,0,0,1,2.78,2.7a2.9,2.9,0,0,1,1.58-.85H8.84"/><path class="cls-3" d="M27.48,1.84H32a2.87,2.87,0,0,1,1.58.85,3.07,3.07,0,0,1,.89,1.69c0,.17,0,1.63.06,4.47"/><path class="cls-2" d="M20.94,34.68c-2.29,0-2.11,0-6.15,0"/><path class="cls-3" d="M34.46,27.66c0,2.84,0,4.3-.05,4.47a3.07,3.07,0,0,1-.89,1.69,2.87,2.87,0,0,1-1.58.85H27.47"/><path class="cls-3" d="M8.82,34.68H4.35a2.87,2.87,0,0,1-1.58-.85,3.07,3.07,0,0,1-.89-1.69c0-.17,0-1.63,0-4.47"/><path class="cls-2" d="M1.84,15.33c0,2.28,0,2.1,0,6.14"/><path class="cls-4" d="M10.73,25.59s-7.4-7.68.93-15.48c0,0,7-5.47,13.73.81L10.88,25.59"/><path class="cls-5" d="M25.57,10.93s7.4,7.68-.92,15.48c0,0-7,5.47-13.73-.81L25.43,10.93"/><path class="cls-6" d="M28.43,18.26a10.36,10.36,0,1,1-3-7.34A10.36,10.36,0,0,1,28.43,18.26Z"/><polyline class="cls-6" points="10.74 25.58 18.06 18.26 25.39 10.93"/><line class="cls-7" x1="18.41" y1="21.77" x2="24.4" y2="21.77"/><line class="cls-8" x1="12.45" y1="13.92" x2="18.44" y2="13.92"/><line class="cls-8" x1="15.45" y1="16.91" x2="15.45" y2="10.92"/></g></g></svg>