<?xml version="1.0" encoding="utf-8"?>
<!-- Generator: Adobe Illustrator 26.0.3, SVG Export Plug-In . SVG Version: 6.00 Build 0)  -->
<svg version="1.1" id="Слой_1" xmlns="http://www.w3.org/2000/svg" xmlns:xlink="http://www.w3.org/1999/xlink" x="0px" y="0px"
	 viewBox="0 0 39.5 39.5" style="enable-background:new 0 0 39.5 39.5;" xml:space="preserve">
<style type="text/css">
	.st0{fill:#EFEFF3;stroke:#676B6D;stroke-linecap:round;stroke-linejoin:round;}
	.st1{fill:none;stroke:#007EBC;stroke-width:1.5;stroke-linecap:round;stroke-miterlimit:10;}
	.st2{fill:none;stroke:#007EBC;stroke-width:3.5;stroke-miterlimit:10;}
	.st3{fill:#676B6D;}
</style>
<g id="Слой_2_00000061455310827771893720000002126459508822444695_">
	<g id="irLed">
		<path class="st0" d="M4.6,0.5h30.2c2.3,0,4.1,1.8,4.1,4.1c0,0,0,0,0,0v30.2c0,2.3-1.8,4.1-4.1,4.2c0,0,0,0-0.1,0H4.6
			c-2.2,0-4.1-1.8-4.1-4.1c0,0,0,0,0,0V4.6C0.5,2.3,2.3,0.5,4.6,0.5z"/>
	</g>
	<g id="Пищалка-тембр">
		<g id="частота">
			<line class="st1" x1="5.3" y1="3.8" x2="5.3" y2="30.3"/>
			<line class="st1" x1="5.4" y1="17" x2="35.1" y2="17"/>
			<path class="st2" d="M34,17c0,0-1.9,11.7-6,11.9c-3.7,0.3-6.1-7.6-7.4-11.8l0,0c0,0-3.6-12.2-7.4-12.1c-4.1,0.2-6,11.9-6,11.9"/>
			<path class="st3" d="M29.4,32.7h0.4c0.7,0,0.7-0.1,0.7-0.5c0-0.1-0.1-0.6,0.2-0.7c0,0,0.1,0,0.1,0c0.2,0.1,0.8,0.5,1.5,0.9
				c1.4,1,1.4,1,1.4,1.1s0,0.2-1.4,1.1l-1.5,1c0,0-0.1,0-0.1,0c-0.2-0.1-0.2-0.5-0.2-0.7c0-0.4,0-0.5-0.7-0.5c-0.3,0-0.2,0-0.5,0
				h-1.7v-1.8L29.4,32.7z"/>
			<path class="st3" d="M10.1,34.5H9.7C9,34.5,9,34.5,9,35c0,0.1,0.1,0.6-0.2,0.7c0,0-0.1,0-0.1,0c-0.2-0.1-0.8-0.5-1.5-0.9
				c-1.4-1-1.4-1-1.4-1.1s0-0.2,1.4-1.1l1.5-1c0,0,0.1,0,0.1,0C9,31.6,9,32.1,9,32.2c0,0.4,0,0.5,0.7,0.5c0.3,0,0.2,0,0.5,0h17.5
				v1.7H10.1z"/>
		</g>
	</g>
</g>
</svg>
