<svg xmlns="http://www.w3.org/2000/svg" viewBox="0 0 39.47 39.47"><defs><style>.cls-1{fill:#efeff3;stroke:#676b6d;stroke-linejoin:round;}.cls-1,.cls-2{stroke-linecap:round;}.cls-2,.cls-3{fill:none;stroke:#007ebc;stroke-miterlimit:10;}.cls-2{stroke-width:1.5px;}.cls-3{stroke-width:3.5px;}.cls-4{fill:#676b6d;}</style></defs><g id="Слой_2" data-name="Слой 2"><g id="irLed"><path class="cls-1" d="M4.62.5H34.85A4.12,4.12,0,0,1,39,4.62V34.85A4.12,4.12,0,0,1,34.85,39H4.56A4.06,4.06,0,0,1,.5,34.91V4.62A4.12,4.12,0,0,1,4.62.5Z"/></g><g id="Пищалка-тембр"><g id="частота"><line class="cls-2" x1="5.26" y1="3.76" x2="5.26" y2="30.32"/><line class="cls-2" x1="5.37" y1="17.02" x2="35.07" y2="17.02"/><path class="cls-3" d="M34,17S32.08,28.67,28,28.9c-3.73.21-7.39-12-7.39-12l0,.16S17,4.81,13.22,5c-4.11.23-6,11.91-6,11.91"/><path class="cls-4" d="M29.38,32.75h.41c.67,0,.67-.08.67-.52,0-.13-.06-.64.2-.68a.27.27,0,0,1,.12,0c.17.1.78.48,1.48.94,1.44,1,1.44,1,1.44,1.11s0,.15-1.44,1.1l-1.47,1a.16.16,0,0,1-.15,0c-.23-.07-.18-.54-.18-.67,0-.43,0-.5-.67-.53-.33,0-.17,0-.49,0H27.59V32.74Z"/><path class="cls-4" d="M10.09,34.47H9.68C9,34.48,9,34.55,9,35c0,.13.05.64-.2.68a.24.24,0,0,1-.12,0c-.17-.1-.78-.48-1.48-.94-1.44-1-1.44-1-1.44-1.11s0-.15,1.44-1.1l1.47-1a.16.16,0,0,1,.15,0c.23.07.18.54.18.67,0,.43,0,.5.67.53.33,0,.17,0,.48,0H27.61v1.74Z"/></g></g></g></svg>