<svg xmlns="http://www.w3.org/2000/svg" viewBox="0 0 57.34 38.14"><defs><style>.cls-1{fill:#a9acb3;stroke-width:0.16px;}.cls-1,.cls-3{stroke:#a9acb3;}.cls-1,.cls-2,.cls-4{stroke-miterlimit:10;}.cls-2,.cls-3{fill:none;}.cls-2,.cls-4{stroke:#007ebc;}.cls-2{stroke-width:4px;}.cls-3{stroke-linecap:round;stroke-linejoin:round;stroke-width:2.63px;}.cls-4{fill:#007ebc;stroke-width:0.66px;}</style></defs><g id="Слой_2" data-name="Слой 2"><g id="Нос"><g id="Пороговое_значение" data-name="Пороговое значение"><path class="cls-1" d="M3,.08H28.67a0,0,0,0,1,0,0V28.67a0,0,0,0,1,0,0H3A2.93,2.93,0,0,1,.08,25.74V3A2.93,2.93,0,0,1,3,.08Z"/><path class="cls-1" d="M28.67.08H54.33A2.93,2.93,0,0,1,57.26,3V25.74a2.93,2.93,0,0,1-2.93,2.93H28.67a0,0,0,0,1,0,0V.08a0,0,0,0,1,0,0Z"/><line class="cls-2" x1="28.67" x2="28.67" y2="28.75"/><line class="cls-3" x1="12.76" y1="34.2" x2="43.35" y2="34.2"/><circle class="cls-4" cx="28.87" cy="34.2" r="3.61"/></g></g></g></svg>