<svg xmlns="http://www.w3.org/2000/svg" viewBox="0 0 57.34 33.59"><defs><style>.cls-1{fill:#a9acb3;stroke:#a9acb3;stroke-width:0.16px;}.cls-1,.cls-2,.cls-3{stroke-miterlimit:10;}.cls-2,.cls-3{fill:none;stroke:#e5716a;}.cls-2{stroke-width:4px;}.cls-3{stroke-width:1.05px;}</style></defs><g id="Слой_2" data-name="Слой 2"><g id="Нос"><g id="Пороговое_значение" data-name="Пороговое значение"><path class="cls-1" d="M3,2.39H28.67a0,0,0,0,1,0,0V31a0,0,0,0,1,0,0H3A2.93,2.93,0,0,1,.08,28.05V5.33A2.93,2.93,0,0,1,3,2.39Z"/><path class="cls-1" d="M28.67,2.39H54.33a2.93,2.93,0,0,1,2.93,2.93V28.05A2.93,2.93,0,0,1,54.33,31H28.67a0,0,0,0,1,0,0V2.39a0,0,0,0,1,0,0Z"/><line class="cls-2" x1="28.67" y1="2.32" x2="28.67" y2="31.06"/><rect class="cls-3" x="23.81" y="0.52" width="9.72" height="32.54" rx="1.39"/></g></g></g></svg>