<svg xmlns="http://www.w3.org/2000/svg" viewBox="0 0 57.98 37.96"><defs><style>.cls-1{fill:#efeff3;stroke-miterlimit:10;stroke-width:0.8px;}.cls-1,.cls-2{stroke:#a9acb3;}.cls-2{fill:none;stroke-width:2.63px;}.cls-2,.cls-4{stroke-linecap:round;stroke-linejoin:round;}.cls-3,.cls-4{fill:#007ebc;}.cls-4{stroke:#007ebc;}</style></defs><g id="Слой_2" data-name="Слой 2"><g id="Нос"><g id="Пороговое_значение" data-name="Пороговое значение"><path class="cls-1" d="M3.33.4H29a0,0,0,0,1,0,0V29a0,0,0,0,1,0,0H3.33A2.93,2.93,0,0,1,.4,26.06V3.33A2.93,2.93,0,0,1,3.33.4Z"/><path class="cls-1" d="M29,.4H54.65a2.93,2.93,0,0,1,2.93,2.93V26.06A2.93,2.93,0,0,1,54.65,29H29a0,0,0,0,1,0,0V.4A0,0,0,0,1,29,.4Z"/><line class="cls-2" x1="13.7" y1="34.36" x2="44.28" y2="34.36"/><circle class="cls-3" cx="28.99" cy="34.36" r="3.61"/><path class="cls-4" d="M28.56,28.24,23.94,1.88a.85.85,0,0,1,.83-1h8.44a.85.85,0,0,1,.83,1L29.42,28.24A.44.44,0,0,1,28.56,28.24Z"/></g></g></g></svg>