<?xml version="1.0" encoding="UTF-8"?>
<svg id="_Слой_2" data-name="Слой 2" xmlns="http://www.w3.org/2000/svg" viewBox="0 0 32.92 38.25">
  <defs>
    <style>
      .cls-1 {
        fill: none;
        stroke-linecap: round;
        stroke-linejoin: round;
        stroke-width: 2.12px;
      }

      .cls-1, .cls-2 {
        stroke: #a8acb3;
      }

      .cls-2 {
        fill: #efeff3;
        stroke-width: .43px;
      }

      .cls-2, .cls-3, .cls-4 {
        stroke-miterlimit: 10;
      }

      .cls-3 {
        stroke-width: .12px;
      }

      .cls-3, .cls-4 {
        fill: #f7be5d;
        stroke: #f7be5d;
      }

      .cls-4 {
        stroke-width: .11px;
      }

      .cls-5 {
        fill: #2b97d4;
        fill-rule: evenodd;
      }
    </style>
  </defs>
  <g id="_Уши-громкость" data-name="Уши-громкость">
    <g id="_Настроить_порог_громкости" data-name="Настроить порог громкости">
      <g>
        <g>
          <rect class="cls-4" x=".06" y="10.15" width="4.17" height="10.49" rx="1.16" ry="1.16"/>
          <path class="cls-3" d="m5.42,11.17v8.36c0,.69.27,1.35.76,1.83l8.47,8.47c.9.9,2.44.26,2.44-1.01V2.31c0-1.25-1.5-1.9-2.41-1.04L6.23,9.29c-.52.49-.81,1.17-.81,1.88Z"/>
          <g>
            <path class="cls-5" d="m32.9,15.95l-.04.83c0-.17-.05,6.03-4,11.53l-1.7,2.23c-.75.76-2.21-.12-.95-1.44,1.19-1.28,2.17-2.95,3.04-4.75,1.86-3.67,2.53-8.74,1.58-13.25-.75-3.47-2.25-6.62-4.46-9.22-.19-.24-.42-.46-.53-.77-.17-.45.08-.96.53-1.1.34-.11.6.06,1.03.52,1.98,2.23,3.83,5.75,4.66,8.7.2.68.36,1.48.47,2.19.11.67.29,1.7.31,2.32l.07,1.42-.02.78Z"/>
            <path class="cls-5" d="m23.17,26.72c-.87.92.2,2.35,1.5.76,4.78-5.91,5.81-13.37,2.17-20.87-.36-.8-2.25-3.71-2.88-3.95-.63-.24-1.22.2-1.11.92.08.32.75,1.04.99,1.32.32.44.59.8.91,1.36,2.01,3.15,2.96,6.98,2.57,10.89-.36,3.55-1.94,7.18-4.15,9.58h0Z"/>
            <path class="cls-5" d="m23.29,17.26c-.67,4.83-3.32,6.62-3.36,7.38-.08.56.4,1,.95.88.99-.2,4.86-5.83,4.07-12.05-.43-3.19-1.54-5.19-3.28-7.5-1.15-1.48-1.9-.28-1.74.36l1.54,2.15c1.58,2.51,2.29,5.67,1.82,8.78h0Z"/>
          </g>
        </g>
        <line class="cls-1" x1="4.16" y1="35.65" x2="28.81" y2="35.65"/>
        <circle class="cls-2" cx="11.09" cy="35.65" r="2.38"/>
      </g>
    </g>
  </g>
</svg>